<svg xmlns="http://www.w3.org/2000/svg" width="119.92" height="119.92" viewBox="0 0 119.92 119.92">
  <g id="t1-i32" transform="translate(5656 414)">
    <path id="Path_135225" data-name="Path 135225" d="M-5624.4-410l5.6,4.6v5.4l-.8,10.6s-3.4,2.8-2.2,3.8-11.8,1.2-11.8,1.2-5.4-3-5.6-3.6-2.8-6.6-2.8-7.2a74.569,74.569,0,0,1,2.8-8.8c.4-.6,5.6-4.8,5.6-4.8Z" fill="#f1d54e"/>
    <path id="Path_135226" data-name="Path 135226" d="M-5619.6-384.4l.634.358L-5611.8-380l4.4,7.4s1.8,6.6,1.8,7.4.2,12.6,0,13.8-1.8,7-1.8,7l-4.4,2.4h-1.8l-1.2,39.2s-3,4-3.6,4.2-11.8,1.4-11.8,1.4l-10.6-1.4s-1.4-20.6-1.4-21.2V-341s-6.2-.4-6.8-1-4-3.8-4-5,1.8-25.6,1.8-25.6l5.8-9.4,8.2-2.4Z" fill="#f1d54e"/>
    <path id="Path_135227" data-name="Path 135227" d="M-5568.2-408.8v15h28.6l-1-17Z" fill="#fb9e36"/>
    <path id="Path_135228" data-name="Path 135228" d="M-5566.8-377.2V-361h26.8v-18.6Z" fill="#17c878"/>
    <path id="Path_135229" data-name="Path 135229" d="M-5566.8-345v15.4h27.2V-345Z" fill="#fb9e36"/>
    <path id="Path_135230" data-name="Path 135230" d="M-5566.8-311.6V-297h28.6l-1.6-17.6Z" fill="#17c878"/>
    <g id="skills" transform="translate(-5656 -414)">
      <path id="Path_135224" data-name="Path 135224" d="M87.832,23.422h28.575a3.513,3.513,0,0,0,3.513-3.513V3.513A3.513,3.513,0,0,0,116.407,0H87.832a3.513,3.513,0,0,0-3.513,3.513V8.2H69.094a3.513,3.513,0,0,0-3.513,3.513V56.447H53.87V48.015A22.288,22.288,0,0,0,39.308,27.134a16.4,16.4,0,1,0-24.746,0A22.288,22.288,0,0,0,0,48.015V66.752a8.207,8.207,0,0,0,8.2,8.2H9.369v36.772a8.207,8.207,0,0,0,8.2,8.2H36.3a8.207,8.207,0,0,0,8.2-8.2V74.95h1.171a8.207,8.207,0,0,0,8.2-8.2V63.473H65.581v44.736a3.513,3.513,0,0,0,3.513,3.513H84.319v4.684a3.513,3.513,0,0,0,3.513,3.513h28.575a3.513,3.513,0,0,0,3.513-3.513v-16.4a3.513,3.513,0,0,0-3.513-3.513H87.832a3.513,3.513,0,0,0-3.513,3.513V104.7H72.608V79.556H84.319v4.684a3.513,3.513,0,0,0,3.513,3.513h28.575a3.513,3.513,0,0,0,3.513-3.513v-16.4a3.513,3.513,0,0,0-3.513-3.513H87.832a3.513,3.513,0,0,0-3.513,3.513V72.53H72.608V47.39H84.319v4.684a3.513,3.513,0,0,0,3.513,3.513h28.575a3.513,3.513,0,0,0,3.513-3.513v-16.4a3.513,3.513,0,0,0-3.513-3.513H87.832a3.513,3.513,0,0,0-3.513,3.513v4.684H72.608V15.224H84.319v4.684a3.513,3.513,0,0,0,3.513,3.513Zm3.513-16.4h21.548V16.4H91.345Zm-64.41,0A9.369,9.369,0,1,1,17.566,16.4,9.379,9.379,0,0,1,26.935,7.027ZM46.844,66.752a1.172,1.172,0,0,1-1.171,1.171H40.988a3.513,3.513,0,0,0-3.513,3.513v40.286a1.172,1.172,0,0,1-1.171,1.171H30.448V78.463a3.513,3.513,0,1,0-7.027,0v34.43H17.566a1.172,1.172,0,0,1-1.171-1.171V71.437a3.513,3.513,0,0,0-3.513-3.513H8.2a1.172,1.172,0,0,1-1.171-1.171V48.015A15.241,15.241,0,0,1,22.251,32.791H31.62A15.241,15.241,0,0,1,46.844,48.015Zm44.5,36.772h21.548v9.369H91.345Zm0-32.166h21.548v9.369H91.345Zm0-32.166h21.548v9.369H91.345Z"/>
    </g>
  </g>
</svg>
