<svg xmlns="http://www.w3.org/2000/svg" width="1030" height="448.5" viewBox="0 0 1030 448.5">
  <g id="t1-c1" transform="translate(9002 7887)">
    <path id="Path_140512" data-name="Path 140512" d="M0,0H1030V80H0Z" transform="translate(-9002 -7887)" fill="#f1d54e"/>
    <path id="Path_140517" data-name="Path 140517" d="M0,0H1030V80H0Z" transform="translate(-9002 -7757)" fill="#fff"/>
    <path id="Path_140518" data-name="Path 140518" d="M0,0H1030V80H0Z" transform="translate(-9002 -7679)" fill="#f6f6f6"/>
    <path id="Path_140519" data-name="Path 140519" d="M0,0H1030V80H0Z" transform="translate(-9002 -7599)" fill="#fff"/>
    <path id="Path_140520" data-name="Path 140520" d="M0,0H1030V80H0Z" transform="translate(-9002 -7519)" fill="#f6f6f6"/>
    <path id="Path_140513" data-name="Path 140513" d="M0,0H1030V50H0Z" transform="translate(-9002 -7807)" fill="#e8e8e8"/>
    <text id="Menores_o_iguales_a_23.563" data-name="Menores o iguales a 23.563" transform="translate(-8981 -7728)" fill="#12263f" font-size="18" font-family="Roboto-Regular, Roboto"><tspan x="-110.355" y="17">Menores o iguales a 23.563</tspan></text>
    <text id="Menores_o_iguales_a_32.988" data-name="Menores o iguales a 32.988" transform="translate(-8638 -7728)" fill="#12263f" font-size="18" font-family="Roboto-Regular, Roboto"><tspan x="-110.355" y="17">Menores o iguales a 32.988</tspan></text>
    <text id="Menores_o_iguales_a_44.769" data-name="Menores o iguales a 44.769" transform="translate(-8294 -7728)" fill="#12263f" font-size="18" font-family="Roboto-Regular, Roboto"><tspan x="-110.355" y="17">Menores o iguales a 44.769</tspan></text>
    <text id="Mayores_a_32.988_y_menores_o_iguales_a_131.951" data-name="Mayores a 32.988 y menores o iguales a 131.951" transform="translate(-8638 -7662)" fill="#12263f" font-size="18" font-family="Roboto-Regular, Roboto"><tspan x="-122.572" y="17">Mayores a 32.988 y menores o </tspan><tspan x="-70.726" y="42">iguales a 131.951</tspan></text>
    <text id="Mayores_a_44.769_y_menores_o_iguales_a_431.196" data-name="Mayores a 44.769 y menores o iguales a 431.196" transform="translate(-8294 -7662)" fill="#12263f" font-size="18" font-family="Roboto-Regular, Roboto"><tspan x="-122.572" y="17">Mayores a 44.769 y menores o </tspan><tspan x="-70.726" y="42">iguales a 431.196</tspan></text>
    <text id="Mayores_a_131.951_y_menores_o_iguales_a_483.034" data-name="Mayores a 131.951 y menores o iguales a 483.034" transform="translate(-8638 -7582)" fill="#12263f" font-size="18" font-family="Roboto-Regular, Roboto"><tspan x="-127.626" y="17">Mayores a 131.951 y menores o </tspan><tspan x="-70.726" y="42">iguales a 483.034</tspan></text>
    <text id="Mayores_a_431.196_y_menores_o_iguales_a_2.160.692" data-name="Mayores a 431.196 y menores o iguales a 2.160.692" transform="translate(-8294 -7582)" fill="#12263f" font-size="18" font-family="Roboto-Regular, Roboto"><tspan x="-127.626" y="17">Mayores a 431.196 y menores o </tspan><tspan x="-78.148" y="42">iguales a 2.160.692</tspan></text>
    <text id="Mayores_a_23.563_y_menores_o_iguales_a_204.995" data-name="Mayores a 23.563 y menores o iguales a 204.995" transform="translate(-8981 -7662)" fill="#12263f" font-size="18" font-family="Roboto-Regular, Roboto"><tspan x="-122.572" y="17">Mayores a 23.563 y menores o </tspan><tspan x="-70.726" y="42">iguales a 204.995</tspan></text>
    <text id="Mayores_a_204.995_y_menores_o_iguales_a_1_736.565" data-name="Mayores a 204.995 y menores o iguales a 1&apos;736.565" transform="translate(-8981 -7582)" fill="#12263f" font-size="18" font-family="Roboto-Regular, Roboto"><tspan x="-127.626" y="17">Mayores a 204.995 y menores o </tspan><tspan x="-77.348" y="42">iguales a 1&apos;736.565</tspan></text>
    <text id="Mayores_a_1_736.565" data-name="Mayores a 1&apos;736.565" transform="translate(-8981 -7490)" fill="#12263f" font-size="18" font-family="Roboto-Regular, Roboto"><tspan x="-83.048" y="17">Mayores a 1&apos;736.565</tspan></text>
    <text id="Mayores_a_483.034" data-name="Mayores a 483.034" transform="translate(-8638 -7490)" fill="#12263f" font-size="18" font-family="Roboto-Regular, Roboto"><tspan x="-76.425" y="17">Mayores a 483.034</tspan></text>
    <text id="Mayores_a_2.160.692" data-name="Mayores a 2.160.692" transform="translate(-8294 -7490)" fill="#12263f" font-size="18" font-family="Roboto-Regular, Roboto"><tspan x="-83.848" y="17">Mayores a 2.160.692</tspan></text>
    <path id="Line_205" data-name="Line 205" d="M0,368.5a.5.5,0,0,1-.5-.5V0A.5.5,0,0,1,0-.5.5.5,0,0,1,.5,0V368A.5.5,0,0,1,0,368.5Z" transform="translate(-8659 -7807)" fill="#12263f"/>
    <path id="Line_206" data-name="Line 206" d="M0,368.5a.5.5,0,0,1-.5-.5V0A.5.5,0,0,1,0-.5.5.5,0,0,1,.5,0V368A.5.5,0,0,1,0,368.5Z" transform="translate(-8316 -7807)" fill="#12263f"/>
    <text id="Ingresos_en_UVT_unidades_de_valor_tributario_de_actividades_ordinarias_según_sector_económico" data-name="Ingresos en UVT (unidades de valor tributario) de actividades ordinarias según sector económico" transform="translate(-8881 -7858)" fill="#12263f" font-size="18" font-family="Roboto-Bold, Roboto" font-weight="700"><tspan x="0" y="17">Ingresos en UVT (unidades de valor tributario) de actividades ordinarias según sector económico</tspan></text>
    <text id="Manufactura" transform="translate(-8885 -7793)" fill="#12263f" font-size="18" font-family="Roboto-Bold, Roboto" font-weight="700"><tspan x="0" y="17">Manufactura</tspan></text>
    <text id="Servicios" transform="translate(-8526 -7793)" fill="#12263f" font-size="18" font-family="Roboto-Bold, Roboto" font-weight="700"><tspan x="0" y="17">Servicios</tspan></text>
    <text id="Comercio" transform="translate(-8199 -7793)" fill="#12263f" font-size="18" font-family="Roboto-Bold, Roboto" font-weight="700"><tspan x="0" y="17">Comercio</tspan></text>
  </g>
</svg>
