<svg xmlns="http://www.w3.org/2000/svg" width="190" height="150" viewBox="0 0 190 150">
  <g id="t1-i2" transform="translate(-180 -1128)">
    <path id="Rectangle_31103" data-name="Rectangle 31103" d="M75,0H85a0,0,0,0,1,0,0V75a75,75,0,0,1-75,75H0a0,0,0,0,1,0,0V75A75,75,0,0,1,75,0Z" transform="translate(285 1128)" fill="#f1d54e" opacity="0.15"/>
    <path id="Rectangle_31395" data-name="Rectangle 31395" d="M0,0H10A75,75,0,0,1,85,75v47a0,0,0,0,1,0,0H75A75,75,0,0,1,0,47V0A0,0,0,0,1,0,0Z" transform="translate(180 1156)" fill="#17c878" opacity="0.15"/>
    <g id="edificio" transform="translate(224 1156)">
      <g id="_x3C_Group_x3E__36_" transform="translate(1.494 1.494)">
        <path id="Path_105483" data-name="Path 105483" d="M37.454,203.5,23.4,202.328a1.992,1.992,0,0,1-1.992-1.992l-.385-70.645,7.833-1.074,12.441,1.17V198.1Z" transform="translate(-18.329 -104.488)" fill="#f1d54e"/>
        <path id="Path_105484" data-name="Path 105484" d="M37.468,200.6l-2.835,3.984H19.492a1.992,1.992,0,0,1-1.992-1.992V130.868l1.647-.9,1.342.9V199.4a1.2,1.2,0,0,0,1.2,1.2Z" transform="translate(-15.508 -105.569)" fill="#fb9e36"/>
        <path id="Path_105485" data-name="Path 105485" d="M389.645,203.7l14.7-.57a1.992,1.992,0,0,0,1.992-1.992l.443-1.422V129.991l-10.167-1.119-11.657,1.119v70.447Z" transform="translate(-309.758 -104.692)" fill="#f1d54e"/>
        <path id="Path_105486" data-name="Path 105486" d="M393.626,199.343V130.81l-3.187-.916-5.488.916v70.448l4.692,3.265h15.141a1.992,1.992,0,0,0,1.992-1.992v-1.992H394.821A1.2,1.2,0,0,1,393.626,199.343Z" transform="translate(-309.755 -105.511)" fill="#fb9e36"/>
        <path id="Path_105487" data-name="Path 105487" d="M408.5,300.243h8.566a1,1,0,0,0,1-1v-9.762a1,1,0,0,0-1-1H408.5Z" transform="translate(-328.613 -232.511)" fill="#d2f6e6"/>
        <path id="Path_105488" data-name="Path 105488" d="M408.5,404.243h8.566a1,1,0,0,0,1-1v-9.762a1,1,0,0,0-1-1H408.5Z" transform="translate(-328.613 -315.792)" fill="#d2f6e6"/>
        <path id="Path_105489" data-name="Path 105489" d="M408.5,196.243h8.566a1,1,0,0,0,1-1v-9.762a1,1,0,0,0-1-1H408.5Z" transform="translate(-328.613 -149.229)" fill="#d2f6e6"/>
        <path id="Path_105490" data-name="Path 105490" d="M404.4,288.49h4.8v11.754h-4.8Z" transform="translate(-325.333 -232.512)" fill="#aeccbf"/>
        <path id="Path_105491" data-name="Path 105491" d="M404.4,392.49h4.8v11.754h-4.8Z" transform="translate(-325.333 -315.793)" fill="#aeccbf"/>
        <path id="Path_105492" data-name="Path 105492" d="M404.4,184.49h4.8v11.754h-4.8Z" transform="translate(-325.333 -149.23)" fill="#aeccbf"/>
        <path id="Path_105493" data-name="Path 105493" d="M404.639,109.78l18.332.065a1,1,0,0,0,1-1l.379-1.371v-1.992a1,1,0,0,0-1-1H409.205l-4.8.941Z" transform="translate(-325.334 -85.167)" fill="#f1d54e"/>
        <path id="Path_105494" data-name="Path 105494" d="M424.788,107.478v1.992a1,1,0,0,1-1,1H405.663l-.706-2.988.706-2.988h3.984v1.992a1,1,0,0,0,1,1Z" transform="translate(-325.776 -85.168)" fill="#fb9e36"/>
        <path id="Path_105495" data-name="Path 105495" d="M67.055,196.243H56.5a1,1,0,0,1-1-1v-9.762a1,1,0,0,1,1-1H67.055Z" transform="translate(-45.937 -149.229)" fill="#d2f6e6"/>
        <path id="Path_105496" data-name="Path 105496" d="M67.055,300.243H56.5a1,1,0,0,1-1-1v-9.762a1,1,0,0,1,1-1H67.055Z" transform="translate(-45.937 -232.511)" fill="#d2f6e6"/>
        <path id="Path_105497" data-name="Path 105497" d="M67.055,404.243H56.5a1,1,0,0,1-1-1v-9.762a1,1,0,0,1,1-1H67.055Z" transform="translate(-45.937 -315.792)" fill="#d2f6e6"/>
        <path id="Path_105498" data-name="Path 105498" d="M28.372,110.466l-17.266-.89a1,1,0,0,1-1-1l-.428-2.888a1,1,0,0,1,1-1l1.558-.206H28.372l1.494,3.5Z" transform="translate(-9.247 -85.167)" fill="#f1d54e"/>
        <path id="Path_105499" data-name="Path 105499" d="M26.625,107.478l.74,1.36-.74,1.628H8.5a1,1,0,0,1-1-1v-3.984a1,1,0,0,1,1-1h1.992v1.992a1,1,0,0,0,1,1Z" transform="translate(-7.5 -85.168)" fill="#fb9e36"/>
        <path id="Path_105500" data-name="Path 105500" d="M169.066,36.29v88.055l-.918,2.55L109.5,127.4V36.29l27.69-1.545Z" transform="translate(-89.18 -29.317)" fill="#f1d54e"/>
        <path id="Path_105501" data-name="Path 105501" d="M157.051,122.982v3.984H150.07l-4.283-1.352-4.283,1.352h-6.3l-11.366-1.825-7.291,1.825h-6.11l-4.673-1.079-3.893,1.079H93.5l1.992-3.991V34.927l1.494-1.884,1.295,1.884v86.859a1.2,1.2,0,0,0,1.2,1.2Z" transform="translate(-76.367 -27.954)" fill="#fb9e36"/>
        <g id="Group_91647" data-name="Group 91647" transform="translate(26.994 14.443)">
          <path id="Path_105502" data-name="Path 105502" d="M148.578,80.4v9.373a.4.4,0,0,1-.4.4H143.4a.4.4,0,0,1-.4-.4V80.4a.4.4,0,0,1,.4-.4h4.781A.4.4,0,0,1,148.578,80.4Z" transform="translate(-143 -80)" fill="#d2f6e6"/>
          <path id="Path_105503" data-name="Path 105503" d="M148.578,146.448v9.373a.4.4,0,0,1-.4.4H143.4a.4.4,0,0,1-.4-.4v-9.373a.4.4,0,0,1,.4-.4h4.781A.4.4,0,0,1,148.578,146.448Z" transform="translate(-143 -132.892)" fill="#d2f6e6"/>
          <path id="Path_105504" data-name="Path 105504" d="M148.578,212.5v9.373a.4.4,0,0,1-.4.4H143.4a.4.4,0,0,1-.4-.4V212.5a.4.4,0,0,1,.4-.4h4.781A.4.4,0,0,1,148.578,212.5Z" transform="translate(-143 -185.783)" fill="#d2f6e6"/>
          <path id="Path_105505" data-name="Path 105505" d="M148.578,278.548v9.371a.4.4,0,0,1-.4.4H143.4a.4.4,0,0,1-.4-.4v-9.371a.4.4,0,0,1,.4-.4h4.781A.4.4,0,0,1,148.578,278.548Z" transform="translate(-143 -238.675)" fill="#d2f6e6"/>
          <path id="Path_105506" data-name="Path 105506" d="M148.578,344.588v9.445a.4.4,0,0,1-.4.4H143.4a.4.4,0,0,1-.4-.4v-9.445a.4.4,0,0,1,.4-.4h4.781A.4.4,0,0,1,148.578,344.588Z" transform="translate(-143 -291.558)" fill="#d2f6e6"/>
          <path id="Path_105507" data-name="Path 105507" d="M223.009,80.4v9.373a.4.4,0,0,1-.4.4h-5.542a.4.4,0,0,1-.4-.4V80.4a.4.4,0,0,1,.4-.4h5.542A.4.4,0,0,1,223.009,80.4Z" transform="translate(-201.994 -80)" fill="#d2f6e6"/>
          <path id="Path_105508" data-name="Path 105508" d="M223.009,146.448v9.373a.4.4,0,0,1-.4.4h-5.542a.4.4,0,0,1-.4-.4v-9.373a.4.4,0,0,1,.4-.4h5.542A.4.4,0,0,1,223.009,146.448Z" transform="translate(-201.994 -132.892)" fill="#d2f6e6"/>
          <path id="Path_105509" data-name="Path 105509" d="M223.009,212.5v9.373a.4.4,0,0,1-.4.4h-5.542a.4.4,0,0,1-.4-.4V212.5a.4.4,0,0,1,.4-.4h5.542A.4.4,0,0,1,223.009,212.5Z" transform="translate(-201.994 -185.783)" fill="#d2f6e6"/>
          <path id="Path_105510" data-name="Path 105510" d="M223.009,278.548v9.371a.4.4,0,0,1-.4.4h-5.542a.4.4,0,0,1-.4-.4v-9.371a.4.4,0,0,1,.4-.4h5.542A.4.4,0,0,1,223.009,278.548Z" transform="translate(-201.994 -238.675)" fill="#d2f6e6"/>
          <path id="Path_105511" data-name="Path 105511" d="M223.009,344.588v9.445a.4.4,0,0,1-.4.4h-5.542a.4.4,0,0,1-.4-.4v-9.445a.4.4,0,0,1,.4-.4h5.542A.4.4,0,0,1,223.009,344.588Z" transform="translate(-201.994 -291.558)" fill="#d2f6e6"/>
          <path id="Path_105512" data-name="Path 105512" d="M269.829,80.4v9.373a.4.4,0,0,1-.4.4h-5.542a.4.4,0,0,1-.4-.4V80.4a.4.4,0,0,1,.4-.4h5.542A.4.4,0,0,1,269.829,80.4Z" transform="translate(-239.486 -80)" fill="#d2f6e6"/>
          <path id="Path_105513" data-name="Path 105513" d="M269.829,146.448v9.373a.4.4,0,0,1-.4.4h-5.542a.4.4,0,0,1-.4-.4v-9.373a.4.4,0,0,1,.4-.4h5.542A.4.4,0,0,1,269.829,146.448Z" transform="translate(-239.486 -132.892)" fill="#d2f6e6"/>
          <path id="Path_105514" data-name="Path 105514" d="M269.829,212.5v9.373a.4.4,0,0,1-.4.4h-5.542a.4.4,0,0,1-.4-.4V212.5a.4.4,0,0,1,.4-.4h5.542A.4.4,0,0,1,269.829,212.5Z" transform="translate(-239.486 -185.783)" fill="#d2f6e6"/>
          <path id="Path_105515" data-name="Path 105515" d="M269.829,278.548v9.371a.4.4,0,0,1-.4.4h-5.542a.4.4,0,0,1-.4-.4v-9.371a.4.4,0,0,1,.4-.4h5.542A.4.4,0,0,1,269.829,278.548Z" transform="translate(-239.486 -238.675)" fill="#d2f6e6"/>
          <path id="Path_105516" data-name="Path 105516" d="M269.829,344.588v9.445a.4.4,0,0,1-.4.4h-5.542a.4.4,0,0,1-.4-.4v-9.445a.4.4,0,0,1,.4-.4h5.542A.4.4,0,0,1,269.829,344.588Z" transform="translate(-239.486 -291.558)" fill="#d2f6e6"/>
          <path id="Path_105517" data-name="Path 105517" d="M347.528,80.4v9.373a.4.4,0,0,1-.4.4h-4.781a.4.4,0,0,1-.4-.4V80.4a.4.4,0,0,1,.4-.4h4.781A.4.4,0,0,1,347.528,80.4Z" transform="translate(-302.315 -80)" fill="#d2f6e6"/>
          <path id="Path_105518" data-name="Path 105518" d="M347.528,146.448v9.373a.4.4,0,0,1-.4.4h-4.781a.4.4,0,0,1-.4-.4v-9.373a.4.4,0,0,1,.4-.4h4.781A.4.4,0,0,1,347.528,146.448Z" transform="translate(-302.315 -132.892)" fill="#d2f6e6"/>
          <path id="Path_105519" data-name="Path 105519" d="M347.528,212.5v9.373a.4.4,0,0,1-.4.4h-4.781a.4.4,0,0,1-.4-.4V212.5a.4.4,0,0,1,.4-.4h4.781A.4.4,0,0,1,347.528,212.5Z" transform="translate(-302.315 -185.783)" fill="#d2f6e6"/>
          <path id="Path_105520" data-name="Path 105520" d="M347.528,278.548v9.371a.4.4,0,0,1-.4.4h-4.781a.4.4,0,0,1-.4-.4v-9.371a.4.4,0,0,1,.4-.4h4.781A.4.4,0,0,1,347.528,278.548Z" transform="translate(-302.315 -238.675)" fill="#d2f6e6"/>
          <path id="Path_105521" data-name="Path 105521" d="M347.528,344.588v9.445a.4.4,0,0,1-.4.4h-4.781a.4.4,0,0,1-.4-.4v-9.445a.4.4,0,0,1,.4-.4h4.781A.4.4,0,0,1,347.528,344.588Z" transform="translate(-302.315 -291.558)" fill="#d2f6e6"/>
        </g>
        <path id="Path_105522" data-name="Path 105522" d="M158.035,13.623l-61.315.436a1,1,0,0,1-1-1l.553-4.12a1,1,0,0,1,1-1L99.265,7.5h59.766a1,1,0,0,1,1,1v1.992l-1,2.138A1,1,0,0,1,158.035,13.623Z" transform="translate(-78.148 -7.5)" fill="#f1d54e"/>
        <path id="Path_105523" data-name="Path 105523" d="M158.246,10.488v2.988a1,1,0,0,1-1,1H94.5a1,1,0,0,1-1-1V8.5a1,1,0,0,1,1-1h2.988V9.492a1,1,0,0,0,1,1Z" transform="translate(-76.367 -7.5)" fill="#fb9e36"/>
        <path id="Path_105524" data-name="Path 105524" d="M145.677,434.2v9.224l-.163,3.346-8,.068.1-12.038a1,1,0,0,1,1-1l2.49-.6h3.586A1,1,0,0,1,145.677,434.2Z" transform="translate(-111.61 -348.393)" fill="#d2f6e6"/>
        <path id="Path_105525" data-name="Path 105525" d="M345.024,434.2v9.224l-.3,3.414H337.1l-.145-12.3a1,1,0,0,1,1-1l2.491-.342h3.586A1,1,0,0,1,345.024,434.2Z" transform="translate(-271.321 -348.393)" fill="#d2f6e6"/>
        <path id="Path_105526" data-name="Path 105526" d="M229.833,434.2v9.224l-.481,3.414-17.565-.356-.112-11.771a1,1,0,0,1,1-1l2.489-.511h13.676A1,1,0,0,1,229.833,434.2Z" transform="translate(-171 -348.393)" fill="#d2f6e6"/>
        <path id="Path_105527" data-name="Path 105527" d="M144.066,443.42V447.4H135.5V434.2a1,1,0,0,1,1-1h2.988v9.224a1,1,0,0,0,1,1Z" transform="translate(-110 -348.393)" fill="#aeccbf"/>
        <path id="Path_105528" data-name="Path 105528" d="M343.026,443.42V447.4H334.46V434.2a1,1,0,0,1,1-1h2.988v9.224a1,1,0,0,0,1,1Z" transform="translate(-269.323 -348.393)" fill="#aeccbf"/>
        <path id="Path_105529" data-name="Path 105529" d="M227.827,443.42V447.4H209.17V434.2a1,1,0,0,1,1-1h2.988v9.224a1,1,0,0,0,1,1Z" transform="translate(-168.994 -348.393)" fill="#aeccbf"/>
      </g>
      <g id="Group_91649" data-name="Group 91649" transform="translate(0 0)">
        <g id="Group_91648" data-name="Group 91648">
          <path id="Path_105530" data-name="Path 105530" d="M99.51,19.322H94.6a1.494,1.494,0,0,0,0,2.988h4.408V25.3H82.875V22.31h4.811a1.494,1.494,0,0,0,0-2.988H82.875V9.911a2.494,2.494,0,0,0,1.992-2.44V2.49A2.493,2.493,0,0,0,82.377,0H19.623a2.493,2.493,0,0,0-2.49,2.49v4.98a2.494,2.494,0,0,0,1.992,2.44v9.411H2.49A2.493,2.493,0,0,0,0,21.812V25.8a2.494,2.494,0,0,0,1.992,2.44V64.865a1.494,1.494,0,1,0,2.988,0V28.287H19.125V35.26H12.053a2.493,2.493,0,0,0-2.49,2.49v9.762A2.493,2.493,0,0,0,12.053,50h7.072v5.977H12.053a2.493,2.493,0,0,0-2.49,2.49V68.23a2.493,2.493,0,0,0,2.49,2.49h7.072V76.7H12.053a2.493,2.493,0,0,0-2.49,2.49v9.762a2.493,2.493,0,0,0,2.49,2.49h7.072v7.573H5.479a.5.5,0,0,1-.5-.5V71.808a1.494,1.494,0,1,0-2.988,0V98.514A3.49,3.49,0,0,0,5.479,102H96.521a3.49,3.49,0,0,0,3.486-3.486V28.237A2.494,2.494,0,0,0,102,25.8V21.812A2.493,2.493,0,0,0,99.51,19.322ZM82.875,79.685h6.574v8.766H82.875Zm0-20.719h6.574v8.766H82.875Zm0-20.719h6.574v8.766H82.875ZM2.988,25.3V22.31H19.125V25.3Zm9.562,21.715V38.248h6.574v8.766Zm0,20.719V58.967h6.574v8.766Zm0,20.719V79.685h6.574v8.766Zm9.562-78.49h9.741a1.494,1.494,0,0,0,0-2.988H20.121V2.988H81.879V6.973H38.856a1.494,1.494,0,0,0,0,2.988h41.03V99.012h-3.2V87.3a2.493,2.493,0,0,0-2.49-2.49H67.626a2.493,2.493,0,0,0-2.49,2.49V99.012H61.821V87.3a2.493,2.493,0,0,0-2.49-2.49H53.724a1.494,1.494,0,0,0,0,2.988h5.109V99.012H43.166V87.8h3.586a1.494,1.494,0,0,0,0-2.988H42.667a2.493,2.493,0,0,0-2.49,2.49V99.012H37.055V87.3a2.493,2.493,0,0,0-2.49-2.49H27.99A2.493,2.493,0,0,0,25.5,87.3V99.012H22.113ZM73.7,99.012H68.124V87.8H73.7Zm-39.635,0H28.488V87.8h5.578Zm62.455,0H82.875V91.439h7.072a2.493,2.493,0,0,0,2.49-2.49V79.187a2.493,2.493,0,0,0-2.49-2.49H82.875V70.72h7.072a2.493,2.493,0,0,0,2.49-2.49V58.469a2.493,2.493,0,0,0-2.49-2.49H82.875V50h7.072a2.493,2.493,0,0,0,2.49-2.49V37.75a2.493,2.493,0,0,0-2.49-2.49H82.875V28.287H97.02V98.514A.5.5,0,0,1,96.521,99.012Z" transform="translate(0 0)"/>
          <path id="Path_105531" data-name="Path 105531" d="M204.165,133.849h16.663a2.493,2.493,0,0,0,2.49-2.49V67.49a2.493,2.493,0,0,0-2.49-2.49H204.165a2.493,2.493,0,0,0-2.49,2.49v63.869A2.493,2.493,0,0,0,204.165,133.849ZM211,104.474h-6.339V94.3H211Zm2.988-10.17h6.339v10.17h-6.339ZM211,107.462v10.17h-6.339v-10.17Zm2.988,0h6.339v10.17h-6.339Zm6.339-16.146h-6.339V81.146h6.339Zm-9.327,0h-6.339V81.146H211Zm-6.339,29.3H211v10.24h-6.339Zm9.327,10.241v-10.24h6.339v10.24Zm6.339-52.7h-6.339V67.988h6.339ZM211,67.988v10.17h-6.339V67.988Z" transform="translate(-161.498 -52.051)"/>
          <path id="Path_105532" data-name="Path 105532" d="M130.49,133.849h6.574a2.493,2.493,0,0,0,2.49-2.49V67.49a2.493,2.493,0,0,0-2.49-2.49H130.49A2.493,2.493,0,0,0,128,67.49v63.869A2.493,2.493,0,0,0,130.49,133.849Zm6.076-26.387v10.17h-5.578v-10.17Zm-5.578-2.988V94.3h5.578v10.17Zm5.578-13.158h-5.578V81.146h5.578Zm-5.578,39.545v-10.24h5.578v10.24Zm5.578-62.873v10.17h-5.578V67.988Z" transform="translate(-102.5 -52.051)"/>
          <path id="Path_105533" data-name="Path 105533" d="M329.444,133.849h6.574a2.493,2.493,0,0,0,2.49-2.49V67.49a2.493,2.493,0,0,0-2.49-2.49h-6.574a2.493,2.493,0,0,0-2.49,2.49v63.869A2.493,2.493,0,0,0,329.444,133.849Zm6.076-26.387v10.17h-5.578v-10.17Zm-5.578-2.988V94.3h5.578v10.17Zm5.578-13.158h-5.578V81.146h5.578Zm-5.578,39.545v-10.24h5.578v10.24Zm5.578-62.873v10.17h-5.578V67.988Z" transform="translate(-261.819 -52.051)"/>
        </g>
      </g>
    </g>
  </g>
</svg>
