<svg xmlns="http://www.w3.org/2000/svg" width="120" height="119.92" viewBox="0 0 120 119.92">
  <g id="t1-i32" transform="translate(-1025 -11286)">
    <path id="Path_135201" data-name="Path 135201" d="M148.924,44.507a12.666,12.666,0,0,0-12.666-12.666h-42.4A12.666,12.666,0,0,0,81.19,44.507c0,15.7,2.682,19.656,2.682,35.352v38.878h62.37V79.859C146.242,64.162,148.924,60.2,148.924,44.507Z" transform="translate(962.839 11261.582)" fill="#e8e8e8"/>
    <g id="Group_92402" data-name="Group 92402" transform="translate(1062.427 11311.198)">
      <path id="Path_135202" data-name="Path 135202" d="M326.887,107.682h-3.658V117.5h3.658a3.158,3.158,0,0,0,3.158-3.158v-3.5a3.158,3.158,0,0,0-3.158-3.158Z" transform="translate(-284.899 -107.682)" fill="#ffc9a5"/>
      <path id="Path_135203" data-name="Path 135203" d="M166.5,107.682h-3.658a3.158,3.158,0,0,0-3.158,3.158v3.5a3.158,3.158,0,0,0,3.158,3.158H166.5Z" transform="translate(-159.688 -107.682)" fill="#ffc9a5"/>
    </g>
    <g id="Group_92403" data-name="Group 92403" transform="translate(1071.361 11329.393)">
      <path id="Path_135204" data-name="Path 135204" d="M211.448,235.673l13.639-31.382c-.155-.021-.306-2.15-.451-2.169a3.021,3.021,0,0,1-2.633-3V185.313H200.894v13.814a3.021,3.021,0,0,1-2.633,3c-.146.019-.3,2.148-.452,2.169Z" transform="translate(-197.809 -185.313)" fill="#ffd4b7"/>
    </g>
    <path id="Path_135205" data-name="Path 135205" d="M328.186,31.841H313.313a12.666,12.666,0,0,1,12.666,12.666c0,15.7-2.682,19.656-2.682,35.352v38.878H338.17V79.859c0-15.7,2.682-19.656,2.682-35.352a12.665,12.665,0,0,0-12.666-12.666Z" transform="translate(785.12 11261.582)" fill="#afafaf"/>
    <path id="Path_135206" data-name="Path 135206" d="M202.551,58.462c3.5-3.017,5.029-7.459,5.128-12.074l0-30.117a18.049,18.049,0,0,0-7.317-1.6,18.289,18.289,0,0,0-11.94,4.575,15.92,15.92,0,0,0-5.09,8.615l.013,18.3c.1,4.583,1.6,8.995,5.077,11.991a18.643,18.643,0,0,0,7.615,4.022A18.989,18.989,0,0,0,202.551,58.462Z" transform="translate(884.633 11274.728)" fill="#ffd4b7"/>
    <path id="Path_135207" data-name="Path 135207" d="M256.585,50.892h0V32.6a15.92,15.92,0,0,0-5.09-8.615,19.212,19.212,0,0,0-4.973-3.127l0,30.039c-.1,4.583-1.613,8.995-5.093,11.991a18.779,18.779,0,0,1-6.906,3.822,17.683,17.683,0,0,0,16.975-3.822C254.972,59.887,256.487,55.476,256.585,50.892Z" transform="translate(845.448 11269.995)" fill="#ffc9a5"/>
    <g id="Group_92404" data-name="Group 92404" transform="translate(1044.652 11345.406)">
      <path id="Path_135208" data-name="Path 135208" d="M150.82,277.861a14.7,14.7,0,0,0-8.718-13.425c-3.781-1.684-10.8-2.938-15.581-3.667l-2.324,1.807-11.5-8.944a3.014,3.014,0,0,1-1.683.8c-4.492.583-13.616,1.968-18.443,4.117a14.7,14.7,0,0,0-8.718,13.425v19.84A4.248,4.248,0,0,0,88.1,296.06H150.82Z" transform="translate(-83.85 -253.633)" fill="#f7f4f7"/>
    </g>
    <g id="Group_92405" data-name="Group 92405" transform="translate(1086.612 11345.406)">
      <path id="Path_135209" data-name="Path 135209" d="M292.9,258.547c-4.827-2.149-13.951-3.535-18.443-4.117a3.014,3.014,0,0,1-1.683-.8l-9.892,7.69c4.784.723,11.348,1.95,15.19,3.66a14.7,14.7,0,0,1,8.718,13.424V296.06h10.58a4.248,4.248,0,0,0,4.248-4.248v-19.84A14.7,14.7,0,0,0,292.9,258.547Z" transform="translate(-262.88 -253.633)" fill="#edeaed"/>
    </g>
    <path id="Path_135210" data-name="Path 135210" d="M190.523,19.477a20.685,20.685,0,0,0,6.645-1.1l.422-.143.081-.027,0-10.36-.349-.179H183.175a12.914,12.914,0,0,0-12.914,12.914v10.6a3.169,3.169,0,0,1,.68-.075h3.011a3.516,3.516,0,0,0,2.279-3.289V21.11a3.386,3.386,0,0,1,3.386-3.386h.729a9.681,9.681,0,0,1,3.11.513l.422.143A20.7,20.7,0,0,0,190.523,19.477Z" transform="translate(894.644 11280.087)" fill="#f1d54e"/>
    <path id="Path_135211" data-name="Path 135211" d="M298.173,31.11a3.171,3.171,0,0,1,.68.075c0-.7,0-3.853,0-10.6A12.917,12.917,0,0,0,285.936,7.67h-.209l0,10.657.268-.091a9.681,9.681,0,0,1,3.11-.513h.395a3.386,3.386,0,0,1,3.386,3.386v6.712a3.516,3.516,0,0,0,2.279,3.289h3.011Z" transform="translate(806.242 11280.088)" fill="#fb9e36"/>
    <path id="Path_135212" data-name="Path 135212" d="M237.781,291.794h0l-5.577,2.815,2.813,6h5.528l2.813-6Z" transform="translate(847.22 11062.556)" fill="#f1d54e"/>
    <path id="Path_135213" data-name="Path 135213" d="M229.494,329.4h-5.528l-6.2,24.668H235.69Z" transform="translate(858.271 11033.761)" fill="#f1d54e"/>
    <g id="Group_92422" data-name="Group 92422" transform="translate(1067.578 11345.405)">
      <path id="Path_135214" data-name="Path 135214" d="M185.9,254.43c-1.155.15-2.619.353-4.235.609l4.172,10.719a2.856,2.856,0,0,0,3.948,1.514l9.3-4.695-11.5-8.944A3.014,3.014,0,0,1,185.9,254.43Z" transform="translate(-181.666 -253.633)" fill="#fff"/>
      <g id="Group_92421" data-name="Group 92421" transform="translate(17.422 7.137)">
        <path id="Path_135215" data-name="Path 135215" d="M258.324,284.086,256,285.893l9.3,4.695a2.856,2.856,0,0,0,3.948-1.514l1.006-2.585A106.522,106.522,0,0,0,258.324,284.086Z" transform="translate(-256 -284.086)" fill="#fff"/>
      </g>
    </g>
    <path id="Path_135216" data-name="Path 135216" d="M188.063,282.111a14.7,14.7,0,0,0-8.718-13.425,30.4,30.4,0,0,0-4.426-1.476L164.09,293.8a2.861,2.861,0,0,1-5.3,0l-14.1-34.619a87.751,87.751,0,0,0-12.2,2.618v38.507h55.569Z" transform="translate(923.559 11087.523)" fill="#17c878"/>
    <path id="Path_135217" data-name="Path 135217" d="M275.226,263.938l3.464-8.9c-1.616-.255-3.08-.459-4.235-.609a3.014,3.014,0,0,1-1.683-.8l-9.892,7.69A90.115,90.115,0,0,1,275.226,263.938Z" transform="translate(823.732 11091.772)" fill="#e8e8e8"/>
    <g id="Group_92425" data-name="Group 92425" transform="translate(1098.176 11346.706)">
      <path id="Path_135218" data-name="Path 135218" d="M315.79,259.183l-3.571,8.769a28.954,28.954,0,0,1,3.626,1.281,14.7,14.7,0,0,1,8.718,13.425v17.651h3.443v-38.5a87.653,87.653,0,0,0-12.216-2.624Z" transform="translate(-312.219 -259.183)" fill="#15b36b"/>
    </g>
    <g id="Group_92428" data-name="Group 92428" transform="translate(1026.758 11372.379)">
      <path id="Path_135219" data-name="Path 135219" d="M117.086,402.395V375.168H21.25v27.227A3.045,3.045,0,0,0,24.3,405.44h89.745a3.046,3.046,0,0,0,3.045-3.045Z" transform="translate(-18.027 -373.657)" fill="#e8e8e8"/>
      <path id="Path_135220" data-name="Path 135220" d="M417.536,375.168v27.227a3.045,3.045,0,0,1-3.045,3.045h14.828a3.045,3.045,0,0,0,3.045-3.045V375.168Z" transform="translate(-319.102 -373.657)" fill="#afafaf"/>
      <path id="Path_135221" data-name="Path 135221" d="M109.782,375.117v-5.453l-.625-.945H10.718A3.217,3.217,0,0,0,7.5,371.936v3.18a3.217,3.217,0,0,0,3.217,3.217h95.846a3.217,3.217,0,0,0,3.218-3.217Z" transform="translate(-7.5 -368.719)" fill="#f6f6f6"/>
      <path id="Path_135222" data-name="Path 135222" d="M442.335,368.719h-11.61v6.4a3.217,3.217,0,0,1-3.217,3.217h14.828a3.217,3.217,0,0,0,3.217-3.217v-3.18A3.218,3.218,0,0,0,442.335,368.719Z" transform="translate(-329.069 -368.719)" fill="#afafaf"/>
    </g>
    <g id="Group_92429" data-name="Group 92429" transform="translate(1025 11286)">
      <path id="Path_135223" data-name="Path 135223" d="M115.024,84.791H102.105V77.914a16.431,16.431,0,0,0-2.058-7.962c.187-10.96-.611-19.091,1.321-31.752.482-3.156.84-6.37,1.065-9.554a1.758,1.758,0,1,0-3.507-.248c-.218,3.089-.566,6.209-1.033,9.271-1.9,12.467-1.213,20.8-1.361,27.907-5.239-4.625-16.091-6.035-23.119-6.947a1.264,1.264,0,0,1-1.1-1.252v-8.36c.261-.206.52-.417.776-.638a17.1,17.1,0,0,0,5.586-11.438h.742a4.922,4.922,0,0,0,4.916-4.916v-3.5a4.946,4.946,0,0,0-2.479-4.26l0-9.424A14.6,14.6,0,0,0,80.78,9.35h7.526A10.92,10.92,0,0,1,99.214,20.258a1.758,1.758,0,0,0,3.516,0A14.44,14.44,0,0,0,88.306,5.835H78.747A14.653,14.653,0,0,0,67.178.17H52.819A14.65,14.65,0,0,0,41.25,5.835H31.695A14.44,14.44,0,0,0,17.271,20.259,119.327,119.327,0,0,0,18.632,38.2c1.932,12.666,1.133,20.8,1.321,31.752a16.428,16.428,0,0,0-2.058,7.962v6.877H4.976A4.981,4.981,0,0,0,0,89.766v3.18A4.979,4.979,0,0,0,3.223,97.6v17.69a4.809,4.809,0,0,0,4.8,4.8H111.974a4.809,4.809,0,0,0,4.8-4.8V97.6A4.979,4.979,0,0,0,120,92.946v-3.18a4.981,4.981,0,0,0-4.976-4.975ZM98.59,77.914v6.877H90.721V66.013A12.942,12.942,0,0,1,98.59,77.914ZM68.907,84.791l8.942-21.959a89.335,89.335,0,0,1,9.356,1.977V84.791ZM47.039,62.116a4.781,4.781,0,0,0,1.362-.387L56.728,68.2l-6.822,3.443a1.074,1.074,0,0,1-.328.1l-3.851-9.457C46.213,62.225,46.655,62.165,47.039,62.116ZM68.51,74.783a4.583,4.583,0,0,0,.577.242l-3.149,7.732-1.317-5.244L66.4,73.719Zm-10.157.793-1.614-3.442L60,70.488l3.261,1.646-1.614,3.442Zm-6.863-.793L53.6,73.719l1.779,3.794-1.317,5.244-3.149-7.732A4.587,4.587,0,0,0,51.49,74.784Zm7.117,4.308h2.786l1.431,5.7H57.175Zm15.666-16.8-3.851,9.457a1.075,1.075,0,0,1-.328-.1L65.6,69.378,63.272,68.2,71.6,61.729a8.453,8.453,0,0,0,2.674.563Zm-5.119-3.116L60,66.293l-9.154-7.117a4.769,4.769,0,0,0,.358-1.8v-6.11a19.707,19.707,0,0,0,8.776,2.114h.039A19.711,19.711,0,0,0,68.8,51.267v6.11a4.768,4.768,0,0,0,.358,1.8Zm1.64-13.46a16.112,16.112,0,0,1-21.587,0c-3.514-3.025-4.372-7.377-4.462-10.55,0-.01,0-.019,0-.029-.015-11.636-.009-7.391-.011-8.356a5.3,5.3,0,0,0,2.9-4.7V15.366a1.63,1.63,0,0,1,1.628-1.628h.729c2.8,0,4.535,1.753,10.178,1.753,5.538,0,7.434-1.753,10.178-1.753h.395a1.63,1.63,0,0,1,1.628,1.628v6.713a5.3,5.3,0,0,0,2.905,4.7v8.273c0,.106,0,.105,0,.136-.094,3.164-.96,7.495-4.477,10.523ZM39.184,28.526a1.406,1.406,0,0,1,1.1-1.366,1.426,1.426,0,0,1,.3-.034h.634l0,6.3h-.639a1.4,1.4,0,0,1-1.4-1.4Zm41.631,3.5a1.4,1.4,0,0,1-1.4,1.4h-.627v-6.3h.627a1.407,1.407,0,0,1,1.4,1.4v3.5Zm-28-28.34H67.178A11.171,11.171,0,0,1,78.335,14.843l0,8.767H76.782a1.768,1.768,0,0,1-.9-1.531V15.366a5.149,5.149,0,0,0-5.144-5.144h-.395c-3.795,0-4.873,1.753-10.178,1.753-5.239,0-6.407-1.753-10.178-1.753H49.26a5.149,5.149,0,0,0-5.144,5.144v6.713a1.768,1.768,0,0,1-.9,1.531H41.663V14.842A11.168,11.168,0,0,1,52.819,3.686ZM31.695,9.351h7.523a14.59,14.59,0,0,0-1.07,5.491v9.425a4.946,4.946,0,0,0-2.478,4.259v3.5a4.922,4.922,0,0,0,4.916,4.916h.754A16.83,16.83,0,0,0,46.913,48.38c.256.22.515.432.776.638v8.36a1.264,1.264,0,0,1-1.1,1.252c-6.957.9-17.868,2.312-23.118,6.947-.148-7.119.55-15.382-1.361-27.907a115.81,115.81,0,0,1-1.321-17.411A10.92,10.92,0,0,1,31.695,9.351ZM21.41,77.914A12.943,12.943,0,0,1,29.3,66.005v4.91a1.758,1.758,0,1,0,3.516,0V64.8a89.476,89.476,0,0,1,9.34-1.972l4.533,11.131h0l4.409,10.826H32.811V79.133a1.758,1.758,0,1,0-3.516,0v5.658H21.41ZM3.516,89.766a1.461,1.461,0,0,1,1.46-1.46H115.025a1.461,1.461,0,0,1,1.46,1.46v3.18a1.461,1.461,0,0,1-1.46,1.46H4.976a1.461,1.461,0,0,1-1.46-1.46Zm108.458,26.809H8.026a1.289,1.289,0,0,1-1.288-1.288V97.922H113.262v17.365A1.289,1.289,0,0,1,111.974,116.575Z" transform="translate(0 -0.17)"/>
    </g>
  </g>
</svg>
