<svg xmlns="http://www.w3.org/2000/svg" width="919" height="492.212" viewBox="0 0 919 492.212">
  <g id="t1-i30" transform="translate(-3985.428 797.746)">
    <rect id="Rectángulo_32776" data-name="Rectángulo 32776" width="919" height="492.211" transform="translate(3985.428 -797.746)" fill="#fff"/>
    <text id="Individuos_que_contribuyen_" data-name="Individuos que contribuyen " transform="translate(4445.893 -762.616)" fill="#12263f" font-size="18" font-family="Roboto-Bold, Roboto" font-weight="700"><tspan x="-111.59" y="0">Individuos que contribuyen </tspan></text>
    <text id="Estrategia_transaccional_metas_" data-name="Estrategia
transaccional
(metas)" transform="translate(4107.165 -537.313)" fill="#12263f" font-size="18" font-family="Roboto-Bold, Roboto" font-weight="700"><tspan x="-40.961" y="0">Estrategia</tspan><tspan x="-54.624" y="21.6">transaccional</tspan><tspan x="-31.482" y="43.2">(metas)</tspan></text>
    <text id="Necesidad_planificada_de_recursos_humanos._" data-name="Necesidad planificada
de recursos humanos. " transform="translate(4276.684 -639.972)" fill="#12263f" font-size="16" font-family="Roboto-Regular, Roboto"><tspan x="-78.758" y="0">Necesidad planificada</tspan><tspan x="-81.066" y="19.2">de recursos humanos. </tspan></text>
    <text id="Diferenciación_planificada_de_actividades_y_tareas." data-name="Diferenciación
planificada de
actividades y tareas." transform="translate(4297.961 -542.574)" fill="#12263f" font-size="16" font-family="Roboto-Regular, Roboto"><tspan x="-50.98" y="0">Diferenciación</tspan><tspan x="-49.699" y="19.2">planificada de</tspan><tspan x="-72.813" y="38.4">actividades y tareas.</tspan></text>
    <text id="Conjunto_de_expectativas." data-name="Conjunto de
expectativas." transform="translate(4466.48 -532.974)" fill="#12263f" font-size="16" font-family="Roboto-Regular, Roboto"><tspan x="-42.746" y="0">Conjunto de</tspan><tspan x="-47.035" y="19.2">expectativas.</tspan></text>
    <text id="Cambio" transform="translate(4628.553 -379.719)" fill="#12263f" font-size="18" font-family="Roboto-Bold, Roboto" font-weight="700"><tspan x="-31.047" y="0">Cambio</tspan></text>
    <text id="Conducta_actual." data-name="Conducta
actual." transform="translate(4613.635 -532.974)" fill="#12263f" font-size="16" font-family="Roboto-Regular, Roboto"><tspan x="-34.258" y="0">Conducta</tspan><tspan x="-23.961" y="19.2">actual.</tspan></text>
    <text id="Resultados_transaccionales." data-name="Resultados
transaccionales." transform="translate(4759.211 -532.974)" fill="#12263f" font-size="16" font-family="Roboto-Regular, Roboto"><tspan x="-39.805" y="0">Resultados</tspan><tspan x="-58.461" y="19.2">transaccionales.</tspan></text>
    <text id="Estructura_de_integración_planificada_para_la_comunicación_y_las_tomas_de_decisión." data-name="Estructura de integración
planificada para la
comunicación y
las tomas de decisión." transform="translate(4276.684 -425.319)" fill="#12263f" font-size="16" font-family="Roboto-Regular, Roboto"><tspan x="-88.93" y="0">Estructura de integración</tspan><tspan x="-64.965" y="19.2">planificada para la</tspan><tspan x="-55.938" y="38.4">comunicación y</tspan><tspan x="-79.723" y="57.6">las tomas de decisión.</tspan></text>
    <text id="Análisis_de_varianza_definición_de_problemas_y_solución." data-name="Análisis de varianza, definición
de problemas y solución." transform="translate(4633.938 -350.783)" fill="#12263f" font-size="16" font-family="Roboto-Regular, Roboto"><tspan x="-108.859" y="0">Análisis de varianza, definición</tspan><tspan x="-88.563" y="19.2">de problemas y solución.</tspan></text>
    <text id="Contribuciones_humanas_y_predisposiciones_no_planificadas._" data-name="Contribuciones humanas
y predisposiciones
no planificadas.  " transform="translate(4512.227 -649.572)" fill="#12263f" font-size="16" font-family="Roboto-Regular, Roboto"><tspan x="-88.863" y="0">Contribuciones humanas</tspan><tspan x="-66.289" y="19.2">y predisposiciones</tspan><tspan x="-60.117" y="38.4" xml:space="preserve">no planificadas.  </tspan></text>
    <text id="Ambiente_relevante" data-name="Ambiente
relevante" transform="translate(4040.249 -627.993)" fill="#12263f" font-size="16" font-family="Roboto-Regular, Roboto"><tspan x="-34.164" y="0">Ambiente</tspan><tspan x="-32.434" y="19.2">relevante</tspan></text>
    <text id="Ambiente_relevante-2" data-name="Ambiente
relevante" transform="translate(4851.535 -623.556)" fill="#12263f" font-size="16" font-family="Roboto-Regular, Roboto"><tspan x="-34.164" y="0">Ambiente</tspan><tspan x="-32.434" y="19.2">relevante</tspan></text>
    <g id="Group_96467" data-name="Group 96467">
      <text id="Contribuciones_" data-name="Contribuciones " transform="translate(4314.583 -702.01)" fill="#12263f" font-size="16" font-family="Roboto-Regular, Roboto"><tspan x="-55.793" y="0">Contribuciones </tspan></text>
      <text id="Instigaciones" transform="translate(4583.488 -701.83)" fill="#12263f" font-size="16" font-family="Roboto-Regular, Roboto"><tspan x="-47.578" y="0">Instigaciones</tspan></text>
    </g>
    <rect id="Rectangle_32777" data-name="Rectangle 32777" width="57.593" height="1.906" transform="translate(4137.658 -570.325) rotate(-52.536)" fill="#f1d54e"/>
    <path id="Path_140177" data-name="Path 140177" d="M4177.517-620.772l-13.926,8.114,9.713,7.443Z" fill="#f1d54e"/>
    <rect id="Rectangle_32778" data-name="Rectangle 32778" width="57.593" height="1.906" transform="translate(4132.943 -479.499) rotate(37.464)" fill="#f1d54e"/>
    <path id="Path_140178" data-name="Path 140178" d="M4183.39-439.64l-8.113-13.926-7.443,9.713Z" fill="#f1d54e"/>
    <rect id="Rectangle_32779" data-name="Rectangle 32779" width="57.593" height="1.906" transform="translate(4377.425 -434.926) rotate(-52.536)" fill="#f1d54e"/>
    <path id="Path_140179" data-name="Path 140179" d="M4417.284-485.373l-13.926,8.114,9.713,7.443Z" fill="#f1d54e"/>
    <g id="Group_96468" data-name="Group 96468">
      <path id="Path_140180" data-name="Path 140180" d="M4423.387-746.906,4417.269-732h5.166v34.244h1.906V-732h5.166Z" fill="#f1d54e"/>
      <path id="Path_140181" data-name="Path 140181" d="M4467.423-704.971v-36.895h-1.906v36.895h-5.165l6.118,14.911,6.118-14.911Z" fill="#f1d54e"/>
    </g>
    <path id="Path_140182" data-name="Path 140182" d="M4216.805-528.05l-14.911-6.118V-529h-24.237v1.906h24.237v5.166Z" fill="#f1d54e"/>
    <path id="Path_140183" data-name="Path 140183" d="M4407.888-528.05l-14.911-6.118V-529h-14.231v1.906h14.231v5.166Z" fill="#f1d54e"/>
    <path id="Path_140184" data-name="Path 140184" d="M4407.888-636.724l-14.911-6.118v5.166h-14.231v1.906h14.231v5.166Z" fill="#f1d54e"/>
    <path id="Path_140185" data-name="Path 140185" d="M4058.694-553.013l-1.823-16.014-4.526,2.489-16.5-30.007-1.67.918,16.5,30.007-4.526,2.489Z" fill="#f1d54e"/>
    <path id="Path_140186" data-name="Path 140186" d="M4561.746-528.05l-14.911-6.118V-529H4532.6v1.906h14.231v5.166Z" fill="#f1d54e"/>
    <path id="Path_140187" data-name="Path 140187" d="M4689.031-528.05l-14.911-6.118V-529H4659.89v1.906h14.231v5.166Z" fill="#f1d54e"/>
    <rect id="Rectangle_32780" data-name="Rectangle 32780" width="159.87" height="1.906" transform="translate(4097.897 -725.692) rotate(90)" fill="#f1d54e"/>
    <rect id="Rectangle_32781" data-name="Rectangle 32781" width="167.392" height="1.906" transform="translate(4097.897 -472.926) rotate(90)" fill="#f1d54e"/>
    <rect id="Rectangle_32782" data-name="Rectangle 32782" width="159.87" height="1.906" transform="translate(4793.866 -725.692) rotate(90)" fill="#f1d54e"/>
    <rect id="Rectangle_32783" data-name="Rectangle 32783" width="167.392" height="1.906" transform="translate(4793.866 -472.926) rotate(90)" fill="#f1d54e"/>
    <g id="Group_96469" data-name="Group 96469">
      <rect id="Rectangle_32784" data-name="Rectangle 32784" width="293.587" height="1.906" transform="translate(4095.991 -725.691)" fill="#f1d54e"/>
      <rect id="Rectangle_32785" data-name="Rectangle 32785" width="293.587" height="1.906" transform="translate(4500.28 -725.691)" fill="#f1d54e"/>
    </g>
    <path id="Path_140188" data-name="Path 140188" d="M4205.733-334.756l-87.517-141.331-1.621,1,86.9,140.328Z" fill="#f1d54e"/>
    <path id="Path_140189" data-name="Path 140189" d="M4658.088-398.668l60.265-97.965,1.621,1-59.644,96.962Z" fill="#f1d54e"/>
    <path id="Path_140190" data-name="Path 140190" d="M4202.312-336.662l1.18,1.906h300.385v-1.906Z" fill="#f1d54e"/>
    <path id="Path_140191" data-name="Path 140191" d="M4515.869-335.709l-14.911-6.118v12.236Z" fill="#f1d54e"/>
  </g>
</svg>
