<svg xmlns="http://www.w3.org/2000/svg" width="119.917" height="119.917" viewBox="0 0 119.917 119.917">
  <g id="t1-i35" transform="translate(0 -0.001)">
    <path id="Path_135269" data-name="Path 135269" d="M399.982,384.011a11.547,11.547,0,0,1,.386,11.729,11.742,11.742,0,0,1-18.629,2.745q-.341-.341-.646-.7l-9.956-11.439,15.036-15.036,11.427,9.968A12.408,12.408,0,0,1,399.982,384.011Z" transform="translate(-284.211 -284.342)" fill="#fb9e36"/>
    <path id="Path_135270" data-name="Path 135270" d="M366.01,351.13l-15.036,15.036-6.167-7.087.042-.037,14.076-14.076.007-.007Z" transform="translate(-264.048 -264.164)" fill="#17c878"/>
    <path id="Path_135271" data-name="Path 135271" d="M211.567,31.932a7.026,7.026,0,0,1-9.935,9.937L181.757,21.995a7.026,7.026,0,1,1,9.937-9.935Z" transform="translate(-137.612 -7.658)" fill="#fb9e36"/>
    <path id="Path_135272" data-name="Path 135272" d="M107.133,77.326,98.9,85.563c-.016.014-.03.028-.045.042L85.6,98.855c-.014.014-.028.028-.042.045l-8.237,8.237-1.656-1.656L55.793,85.605,54.137,83.95l29.81-29.81L85.6,55.8l19.875,19.875Z" transform="translate(-41.457 -41.459)" fill="#f1d54e"/>
    <g id="Group_92451" data-name="Group 92451" transform="translate(2.342 42.09)">
      <path id="Path_135273" data-name="Path 135273" d="M202.214,192.28l1.656-1.656a4.684,4.684,0,0,0-6.581-6.668l-13.336,13.336a4.684,4.684,0,0,0,6.668,6.581l1.656-1.656,28.332,32.55.042-.037,14.076-14.076.007-.007Z" transform="translate(-142.192 -181.943)" fill="#fb9e36"/>
      <path id="Path_135274" data-name="Path 135274" d="M70.893,461.352v2.342H10v-2.342a9.369,9.369,0,0,1,9.368-9.368H61.525A9.369,9.369,0,0,1,70.893,461.352Z" transform="translate(-10 -388.212)" fill="#fb9e36"/>
      <path id="Path_135275" data-name="Path 135275" d="M75.669,401.987a5.855,5.855,0,1,1,0,11.71H35.854a5.855,5.855,0,1,1,0-11.71Z" transform="translate(-25.315 -349.925)" fill="#fb9e36"/>
      <path id="Path_135276" data-name="Path 135276" d="M41.868,201.636a7.026,7.026,0,0,1-9.937,9.935L12.059,191.7a7.026,7.026,0,0,1,9.935-9.937Z" transform="translate(-10 -179.705)" fill="#fb9e36"/>
    </g>
    <path id="Path_135277" data-name="Path 135277" d="M101.39,172.105a2.342,2.342,0,1,0,3.312,0A2.339,2.339,0,0,0,101.39,172.105Z" transform="translate(-77.117 -131.27)"/>
    <path id="Path_135278" data-name="Path 135278" d="M59.3,405.04A8.2,8.2,0,0,0,52.7,391.987H12.881a8.192,8.192,0,0,0-6.6,13.05A11.72,11.72,0,0,0,0,415.408v2.342a2.342,2.342,0,0,0,2.342,2.342H63.235a2.342,2.342,0,0,0,2.342-2.342v-2.342A11.72,11.72,0,0,0,59.3,405.04ZM10.4,397.7a3.49,3.49,0,0,1,2.485-1.028H52.7a3.513,3.513,0,1,1,0,7.026H12.881a3.514,3.514,0,0,1-2.485-6ZM4.684,415.408a7.034,7.034,0,0,1,7.026-7.026H53.867a7.034,7.034,0,0,1,7.026,7.026Z" transform="translate(0 -300.177)"/>
    <path id="Path_135279" data-name="Path 135279" d="M117.754,98.4a14.749,14.749,0,0,0-2.821-3.24l-10.944-9.545a2.325,2.325,0,0,0-.932-.812L96.439,79.03,65.806,52.309a7.013,7.013,0,0,0-2.057-11.186l2.834-2.834a9.374,9.374,0,0,0,9.044-2.421,9.367,9.367,0,0,0,0-13.249L55.755,2.746a9.365,9.365,0,0,0-15.67,9.044L11.809,40.065a9.426,9.426,0,0,0-2.425-.317A9.367,9.367,0,0,0,2.761,55.74L22.633,75.612A9.365,9.365,0,0,0,38.3,66.568l2.828-2.828a7.028,7.028,0,0,0,11.19,2.053L84.949,103.28a2.353,2.353,0,0,0,.318.4c.042.042.086.08.131.118l9.722,11.171c.242.285.5.566.768.834a13.93,13.93,0,0,0,9.9,4.118,14.376,14.376,0,0,0,1.971-.136,14.173,14.173,0,0,0,10.456-7.239A13.859,13.859,0,0,0,117.754,98.4ZM83.978,95.029,95.01,84l3.538,3.086L87.061,98.571ZM55.644,62.476l6.845-6.845,28.982,25.28L80.9,91.487ZM45.818,6.058a4.683,4.683,0,0,1,6.625,0L72.315,25.93a4.684,4.684,0,0,1-6.623,6.625L45.819,12.682h0A4.688,4.688,0,0,1,45.818,6.058ZM32.57,72.3a4.69,4.69,0,0,1-6.625,0L6.073,52.428A4.684,4.684,0,0,1,12.694,45.8L32.57,65.677A4.687,4.687,0,0,1,32.57,72.3ZM16.008,42.491l26.5-26.5L62.38,35.867l-6.561,6.561-.065.062L42.512,55.733c-.027.027-.054.055-.081.083l-6.549,6.549Zm31.466,20.56a2.341,2.341,0,0,1-1.685-3.969l13.3-13.3a2.342,2.342,0,0,1,3.974,1.682,2.321,2.321,0,0,1-.687,1.656l-1.64,1.64-.033.033L50.794,60.7l-.014.014-1.649,1.649A2.328,2.328,0,0,1,47.474,63.051Zm66.655,47.2a9.527,9.527,0,0,1-7.011,4.888,9.306,9.306,0,0,1-7.918-2.654c-.18-.18-.352-.367-.513-.558l-.023-.026-8.521-9.791,11.943-11.943,9.778,8.529.022.019a10.083,10.083,0,0,1,1.933,2.224A9.247,9.247,0,0,1,114.129,110.254Z" transform="translate(-0.016)"/>
    <path id="Path_135280" data-name="Path 135280" d="M142.921,101.393a2.342,2.342,0,0,0-3.312,0l-9.937,9.937a2.342,2.342,0,0,0,3.312,3.312l9.937-9.937A2.342,2.342,0,0,0,142.921,101.393Z" transform="translate(-98.775 -77.119)"/>
  </g>
</svg>
