<svg xmlns="http://www.w3.org/2000/svg" xmlns:xlink="http://www.w3.org/1999/xlink" width="346.834" height="213" viewBox="0 0 346.834 213">
  <defs>
    <linearGradient id="linear-gradient" y1="0.5" x2="1" y2="0.5" gradientUnits="objectBoundingBox">
      <stop offset="0.188" stop-color="#ffd234"/>
      <stop offset="0.986" stop-color="#ffb000"/>
    </linearGradient>
  </defs>
  <g id="t1-i27" transform="translate(2335.169 -3169.021)">
    <path id="Path_135082" data-name="Path 135082" d="M-2109.941,3381.25s-39.988-33.884-21.766-78.1,51.206,23.273,74.2-39.142,28.141-110.2,89.344-90.486,36.115,71.435,68.147,76.629,57.341,23.927,42.662,64.432,21.766,67.1,21.766,67.1Z" transform="translate(-169.35)" fill="#fff"/>
    <path id="Path_135083" data-name="Path 135083" d="M-735.188,3346.45l-12.7,1.291,3.96,3.229-31.79,38.146-19.224-24.339-21.91,24.555-8.771-13.677-17.155,17.4,5.527,5.527,10.283-10.283,9.357,13.9,22.569-25.474,18.837,24.615,38.335-45.432,3.969,3.237Z" transform="translate(-1271.925 -151.218)" fill="#f1d54e"/>
    <g id="Group_92390" data-name="Group 92390" transform="translate(-2279.082 3204.299)">
      <path id="Path_135084" data-name="Path 135084" d="M-1326.047,3809.083l-9.3,110.572s-.974,6.7,4.011,6.714c8.2.02,40.8,0,40.8,0s-6.17-1.4-6.095-4.534c.088-3.7,10.869-113.8,10.869-113.8Z" transform="translate(1427.027 -3748.913)" fill="#0f8550"/>
      <path id="Path_135085" data-name="Path 135085" d="M-1272.428,3912.789c-1.612,0-32.753.1-40.736,0-3.479-.043-4.089-3.093-4.118-5.067a9.89,9.89,0,0,1,.106-1.646l.242-2.874.616-7.325.544-6.472.7-8.316.589-7.019,6.608-78.569,40.288-1.046s-4.541,46.076-7.752,79.615c-.359,3.737-.7,7.32-1.015,10.665q-.154,1.6-.3,3.129c-.3,3.173-.57,6.087-.807,8.66-.125,1.356-.24,2.616-.344,3.77-.41,4.523-.65,7.411-.653,7.961a4.666,4.666,0,0,0,.078.9C-1277.718,3912.673-1273.033,3912.789-1272.428,3912.789Z" transform="translate(1411.567 -3737.338)" fill="#d2f6e6"/>
      <path id="Path_135086" data-name="Path 135086" d="M-1740.829,3407.823H-1934.25l22.652,90.987,3.1,12.461,10.55,42.379h196Z" transform="translate(1937.389 -3407.823)" fill="#d2f6e6"/>
      <path id="Path_135087" data-name="Path 135087" d="M-1952.363,3407.822l-3.139,1.046,35.269,147.947,4.174-3.165Z" transform="translate(1955.502 -3407.822)" fill="#0a5936"/>
      <path id="Path_135088" data-name="Path 135088" d="M-1716.759,4398.122h194.8l5.379-3.165h-196Z" transform="translate(1752.028 -4249.129)" fill="#0f8550"/>
      <rect id="Rectangle_31924" data-name="Rectangle 31924" width="42.176" height="2.004" transform="translate(145.853 177.499) rotate(180)" fill="#0a5936"/>
      <path id="Path_135089" data-name="Path 135089" d="M-1270.867,4416.376l-.218,1.532-39.665,8.013.544-6.472.259-3.074Z" transform="translate(1405.998 -4267.384)" fill="#0a5936"/>
      <path id="Path_135090" data-name="Path 135090" d="M-1272.421,4523.388c-1.612,0-32.753.1-40.736,0-3.479-.043-4.089-3.093-4.118-5.067l39.478-7.428c-.41,4.523-.65,7.412-.653,7.96a4.663,4.663,0,0,0,.078.9C-1277.711,4523.272-1273.026,4523.388-1272.421,4523.388Z" transform="translate(1411.56 -4347.938)" fill="#17c878"/>
      <path id="Path_135091" data-name="Path 135091" d="M-1646.119,4200.931l-83.554,28.649-7.135-28.666Z" transform="translate(1769.115 -4083.751)" fill="#699dee" opacity="0.2"/>
      <path id="Path_135092" data-name="Path 135092" d="M-1740.831,3407.822h-193.421l29.151,117.163,195.522.037Z" transform="translate(1937.391 -3407.822)" fill="#17c878"/>
    </g>
    <path id="Path_135093" data-name="Path 135093" d="M-1050.561,4271.431a6.629,6.629,0,0,0-6.216-5.2,4.165,4.165,0,0,0-4.193,5.2,6.628,6.628,0,0,0,6.216,5.2A4.165,4.165,0,0,0-1050.561,4271.431Z" transform="translate(-1085.88 -935.116)" fill="#4a75cb"/>
    <path id="Path_135094" data-name="Path 135094" d="M-1672.347,3556.161h-181.1l-20.509-81.7-1.572-6.265-1.342-5.344-3.145-12.531h178.49l3.454,12.531,1.473,5.344,1.727,6.265Z" transform="translate(-387.914 -239.742)" fill="#fff"/>
    <path id="Path_135095" data-name="Path 135095" d="M-1701.526,3450.318h-178.49l3.145,12.531h178.8Z" transform="translate(-387.914 -239.742)" fill="#72e8b2"/>
    <g id="Group_92391" data-name="Group 92391" transform="translate(-2260.594 3214.673)">
      <path id="Path_135096" data-name="Path 135096" d="M-1829.136,3478.049a1.184,1.184,0,0,0-1.176,1.567,2.14,2.14,0,0,0,1.957,1.567,1.184,1.184,0,0,0,1.176-1.567A2.14,2.14,0,0,0-1829.136,3478.049Z" transform="translate(1830.36 -3478.049)" fill="#e9f3fe"/>
      <path id="Path_135097" data-name="Path 135097" d="M-1793.9,3478.049a1.184,1.184,0,0,0-1.176,1.567,2.14,2.14,0,0,0,1.957,1.567,1.184,1.184,0,0,0,1.176-1.567A2.14,2.14,0,0,0-1793.9,3478.049Z" transform="translate(1800.332 -3478.049)" fill="#e9f3fe"/>
      <path id="Path_135098" data-name="Path 135098" d="M-1754.007,3479.615a2.14,2.14,0,0,0-1.957-1.567,1.183,1.183,0,0,0-1.176,1.567,2.14,2.14,0,0,0,1.957,1.567A1.184,1.184,0,0,0-1754.007,3479.615Z" transform="translate(1767.998 -3478.049)" fill="#e9f3fe"/>
    </g>
    <g id="Group_92392" data-name="Group 92392" transform="translate(-2072.316 3262.362)">
      <path id="Path_135099" data-name="Path 135099" d="M-283.588,4513.094l-1.885,7.939-2.824-.016-.1-7.924Z" transform="translate(327.913 -4407.876)" fill="#e49963"/>
      <path id="Path_135100" data-name="Path 135100" d="M-459.608,4509.355l-5.364,7.6-2.091-2.685,3.228-5.962Z" transform="translate(480.182 -4403.8)" fill="#e49963"/>
      <path id="Path_135101" data-name="Path 135101" d="M-339.864,3801.745a5.469,5.469,0,0,1,2.96-.566,1.383,1.383,0,0,0-.624-.3,4.592,4.592,0,0,1,1.638.427c7.048-2.716,8.156,7.662,8.007,10.073s2.368,3.2,6.035,5.1c7,3.625,7.611,8.478,7.611,8.478-.055.032-.111.069-.172.11-.347-.588-1.062-1.692-1.664-1.859a24.988,24.988,0,0,1,.969,2.361c-2.064,1.57-5.925,5.049-8.616,7.516a3.955,3.955,0,0,0-.183-1.528l-.332,2c-1.44,1.324-2.433,2.255-2.433,2.255.178-1.948-8.811-12.229-13.5-15.309a13.554,13.554,0,0,1-1.578-4.884,12.813,12.813,0,0,0,.96,4.418C-344.759,3816.386-342.447,3803.213-339.864,3801.745Z" transform="translate(374.383 -3800.861)" fill="#0a5936"/>
      <path id="Path_135102" data-name="Path 135102" d="M-322.4,3894.823a6.5,6.5,0,0,0,3.985.728,5.171,5.171,0,0,0,2.654-2.545c-.685-.136-.883-1.078-.869-5.126l-.31.061-5.211,1.032s.119,1.64.122,3.185C-322.027,3893.454-322.106,3894.684-322.4,3894.823Z" transform="translate(356.893 -3875.024)" fill="#e49963"/>
      <path id="Path_135103" data-name="Path 135103" d="M-315.961,3811.089a4.165,4.165,0,0,0-5.8-.14A22.594,22.594,0,0,1-315.961,3811.089Z" transform="translate(356.344 -3808.505)" fill="#e37970"/>
      <path id="Path_135104" data-name="Path 135104" d="M-320.71,3889.324s.119,1.64.122,3.185c2.916-.082,4.457-2.742,5.089-4.217Z" transform="translate(355.45 -3875.376)" fill="#d68d5d"/>
      <path id="Path_135105" data-name="Path 135105" d="M-333.893,3822.682A15.329,15.329,0,0,0-332,3818.2c.262-1.474-.489-6.937-5.979-6.151a7.458,7.458,0,0,0-3.094,1.169c-1.192.8-2.912,2.543-.989,7.311l.5,1.611Z" transform="translate(374.382 -3810.333)" fill="#0a5936"/>
      <path id="Path_135106" data-name="Path 135106" d="M-461.3,4189.754l2.762.084,2.99.092a59.022,59.022,0,0,0,10.78-20.015q.135-.43.286-.87c2.12-6.182,6.515-13.941,8.831-20.964.369-1.119.7-2.172,1-3.168.1-.319.188-.633.276-.941a74.483,74.483,0,0,0,2.656-13.985l-16.725.134A311.751,311.751,0,0,1-461.3,4189.754Z" transform="translate(475.272 -4081.365)" fill="#0a5936"/>
      <path id="Path_135107" data-name="Path 135107" d="M-372.425,3940.8c.042,7.958-1.167,11.373-1.167,11.373a22.474,22.474,0,0,0,15.672.96c.1-.032,7.047-1.617,7.047-1.617-.142-.322-1.409-5.685-1.548-5.981-1.8-3.859-3.161-5.551-3.374-6.737a25.23,25.23,0,0,1-.207-6.667,53.5,53.5,0,0,1,2.064-10.471,54.38,54.38,0,0,1-6.9-2.36,5.4,5.4,0,0,1-3.725,1.382c-1.7-.038-2.245-.763-2.157-1.556-1.807,1.005-3.248,1.955-3.248,1.955-1.535,2.667-4.649,5.257-4.875,9.348C-374.9,3931.431-372.426,3940.573-372.425,3940.8Z" transform="translate(401.591 -3901.651)" fill="#e7f1fd"/>
      <path id="Path_135108" data-name="Path 135108" d="M-505.925,3928.973c2.455-2.868,8.816-9.088,15.38-9.851l-5.664,11.035a4.882,4.882,0,0,1-2,2.993,32.88,32.88,0,0,1-9.332,3.894,49.036,49.036,0,0,1-8.374-5.087c-1.518-1.112-4.185-5.354-4.185-5.354l.72-2.407s4.529,2.532,6.146,3.262c.922.416,3.044,1.41,4.54,2.112A2.334,2.334,0,0,0-505.925,3928.973Z" transform="translate(525.381 -3901.651)" fill="#a8d29f"/>
      <path id="Path_135109" data-name="Path 135109" d="M-340.558,3838.018s6.9.114,6.9-4.184.9-7.177-3.506-7.432-5.262,1.385-5.613,2.819S-342.352,3837.877-340.558,3838.018Z" transform="translate(374.324 -3822.607)" fill="#e49963"/>
      <path id="Path_135110" data-name="Path 135110" d="M-325.573,3820.8s1.889,5.042,4.788,5.787,4.156-.031,4.156-.031a8.21,8.21,0,0,1-2.685-4.85S-324.148,3818.4-325.573,3820.8Z" transform="translate(359.595 -3817.112)" fill="#0a5936"/>
      <path id="Path_135111" data-name="Path 135111" d="M-342.557,3823.869a6.092,6.092,0,0,0-1.755,2.22c-.344,1.094-.5,3.347-1.155,3.271,0,0-1.423-3.427.176-5.366C-343.594,3821.938-342.557,3823.869-342.557,3823.869Z" transform="translate(377.047 -3819.769)" fill="#0a5936"/>
      <path id="Path_135112" data-name="Path 135112" d="M-549.866,3935.819a4.306,4.306,0,0,0-4.826-3.01c-.442.138-1.734.654-.909,2.037.609,1.02.872.494,1.83,1.864a3.053,3.053,0,0,0,3.185,1.516Z" transform="translate(555.871 -3913.275)" fill="#e49963"/>
      <path id="Path_135113" data-name="Path 135113" d="M-289.016,4563.834a7.651,7.651,0,0,0,.359,3.255s.462,2.105-1.612,2.145-2.582-.157-2.348-1.448.681-3.524.681-3.524Z" transform="translate(331.551 -4451.121)" fill="#e49963"/>
      <path id="Path_135114" data-name="Path 135114" d="M-293.647,4588.6a1.457,1.457,0,0,0,.13.069h4.059a.919.919,0,0,0,.115-.069,10.182,10.182,0,0,0-.148-3.044c-2.349,2.152-3.818-.054-3.818-.054A11.014,11.014,0,0,0-293.647,4588.6Z" transform="translate(332.386 -4469.589)" fill="#82b378"/>
      <path id="Path_135115" data-name="Path 135115" d="M-500.9,4555.072a51.892,51.892,0,0,0,5-6.4l2.843,1.457-6.355,5.968-1.487-.2Z" transform="translate(509.023 -4438.196)" fill="#e49963"/>
      <path id="Path_135116" data-name="Path 135116" d="M-516.95,4565.68h5.232a7.434,7.434,0,0,0,1.559-2.418,2.563,2.563,0,0,1,1.731-1.157v3.534h1.085l1.028-3.757c.676-1.244.053-2.372-.423-3.355-.554,0-2.044.378-4.869,3.561a3.7,3.7,0,0,1-2.972,1.386.259.259,0,0,1-.042.022A3.789,3.789,0,0,0-516.95,4565.68Z" transform="translate(522.7 -4446.598)" fill="#82b378"/>
      <path id="Path_135117" data-name="Path 135117" d="M-380.133,3919.122s-3.992,9.861-4.109,11.857-.47,32.635-.47,32.635.235,1.409-2.465.822a9.057,9.057,0,0,1-3.4-1.174s2.582-18.9,1.878-25.474,5.4-17.3,5.4-17.3Z" transform="translate(414.999 -3901.651)" fill="#a8d29f"/>
      <path id="Path_135118" data-name="Path 135118" d="M-442.6,4259.737l2.99.091a59.016,59.016,0,0,0,10.78-20.015c.09-.287.185-.576.286-.87,2.12-6.182,6.515-13.941,8.831-20.965.369-1.119.7-2.171,1-3.168.1-.319.188-.633.276-.942l-2.463-1.869s-7.394,11.974-9.683,23.242C-432.578,4245.03-440.542,4256.808-442.6,4259.737Z" transform="translate(459.336 -4151.263)" fill="#0a5936"/>
      <path id="Path_135119" data-name="Path 135119" d="M-389.46,4018.568l.145.447,7.74-2.516a.3.3,0,0,0,.049-.275.22.22,0,0,0-.194-.171Z" transform="translate(414.044 -3984.262)" fill="#0a5936"/>
      <path id="Path_135120" data-name="Path 135120" d="M-306.953,4217.958c-.042,5.48.235,18.078.948,23.294h2.648c1.464,0,2.194-.021,2.194-.021,1.79-9.068,3.064-16.572,3.991-23.038.761-5.306,1.437-9.855,1.957-13.771.524-3.94.888-7.241,1.018-10.028q.03-.659.044-1.281t.007-1.215l-14.451-1.409C-308.415,4200.09-306.93,4214.773-306.953,4217.958Z" transform="translate(345.126 -4132.93)" fill="#0a5936"/>
      <path id="Path_135121" data-name="Path 135121" d="M-273.125,4263.777c1.464,0,2.194-.021,2.194-.021,1.79-9.068,3.064-16.572,3.991-23.038.761-5.306,1.437-9.855,1.957-13.771.524-3.941.888-7.241,1.018-10.029l-5.3,3.119s3.384,1.194,2.093,10.232S-271.328,4262.5-273.125,4263.777Z" transform="translate(314.895 -4155.455)" fill="#0a5936"/>
      <path id="Path_135122" data-name="Path 135122" d="M-306.233,3964.186s1.018,3.678,4.54,3.208a42.456,42.456,0,0,0,8.53-2.583s-1.505-4.756-3.376-11c-2.266-7.563-5.07-17.313-6.392-23.464a38.037,38.037,0,0,1-.718-4.193l-2.922-5.669s-4.356,9.777-4.591,12.243S-306.233,3964.186-306.233,3964.186Z" transform="translate(347.32 -3902.811)" fill="#a8d29f"/>
      <path id="Path_135123" data-name="Path 135123" d="M-332.47,3932.358l-3.856-11.875a59.513,59.513,0,0,1,7.315,2.681s1.528,1.97,2.474,6.515c0,0,1,10.912-1.232,14.9,0,0-7.043,1.409-18.313-2.465v-2.583s12.326.646,14.85.939Z" transform="translate(377.074 -3902.811)" fill="#e49963"/>
      <path id="Path_135124" data-name="Path 135124" d="M-276.705,3994.785c.157,3.991,1.1,11.739,9.47,15.886.022.011.045.022.067.032-2.266-7.563-5.07-17.314-6.392-23.464C-275.1,3989.538-276.791,3992.588-276.705,3994.785Z" transform="translate(317.949 -3959.706)" fill="#82b378"/>
      <path id="Path_135125" data-name="Path 135125" d="M-282.427,3920.483s7.148.5,8.87,4.338,2.27,16.591.078,20.348c0,0-3.017.859-8.353-.139l-.2-.038s-1.7-4.167-.176-4.989c0,0,4.5.235,4.031-1.252S-282.427,3920.483-282.427,3920.483Z" transform="translate(323.175 -3902.811)" fill="#a8d29f"/>
      <path id="Path_135126" data-name="Path 135126" d="M-373.093,4025.842a6.163,6.163,0,0,1-1.191-2.4,2.614,2.614,0,0,0-2.554-2.339c-1.695-.223-2.423-.247-2.419.231a12.649,12.649,0,0,0,3.817,5.8C-373.009,4029.126-373.093,4025.842-373.093,4025.842Z" transform="translate(405.349 -3988.433)" fill="#e49963"/>
      <path id="Path_135127" data-name="Path 135127" d="M-393.228,4033.514l.557-.431.145.447Z" transform="translate(417.255 -3998.777)" fill="#0a5936"/>
    </g>
    <path id="Path_135128" data-name="Path 135128" d="M-794.121,3795.011a.324.324,0,0,1-.169-.047l-45.207-27.489a.326.326,0,0,1-.109-.448.326.326,0,0,1,.448-.109l45.207,27.489a.325.325,0,0,1,.109.447A.326.326,0,0,1-794.121,3795.011Z" transform="translate(-1274.585 -509.53)" fill="#0a5936"/>
    <g id="Group_92395" data-name="Group 92395" transform="translate(-2240.244 3240.784)">
      <g id="Group_92393" data-name="Group 92393" transform="translate(0 2.981)">
        <path id="Path_135129" data-name="Path 135129" d="M-1642.82,3688.952c-.958.812-2.9,2.334-3.669,2.981l1.961,24.521-20.181-9.021-3.669,2.981a24.639,24.639,0,0,0-.748,6.04,24.6,24.6,0,0,0,24.6,24.6,24.6,24.6,0,0,0,24.6-24.6C-1619.93,3702.869-1629.235,3688.952-1642.82,3688.952Z" transform="translate(1672.595 -3686.888)" fill="#17c878"/>
        <path id="Path_135130" data-name="Path 135130" d="M-1670.712,3674.979a24.614,24.614,0,0,0-21.89,18.481l23.85,6.04,3.669-2.981Z" transform="translate(1692.602 -3674.979)" fill="#f98c3c"/>
      </g>
      <g id="Group_92394" data-name="Group 92394" transform="translate(3.669 0)">
        <path id="Path_135131" data-name="Path 135131" d="M-1619.69,3688.426q-.99,0-1.961.078l1.961,24.521-23.85-6.04a24.648,24.648,0,0,0-.748,6.04,24.6,24.6,0,0,0,24.6,24.6,24.6,24.6,0,0,0,24.6-24.6A24.6,24.6,0,0,0-1619.69,3688.426Z" transform="translate(1647.757 -3683.458)" fill="#72e8b2"/>
        <path id="Path_135132" data-name="Path 135132" d="M-1645.874,3654.8a24.614,24.614,0,0,0-21.89,18.481l23.85,6.04Z" transform="translate(1667.764 -3654.798)" fill="url(#linear-gradient)"/>
      </g>
    </g>
    <path id="Path_135133" data-name="Path 135133" d="M-1541.309,3630.429a.324.324,0,0,1-.23-.1.325.325,0,0,1,0-.46l14.687-14.687h94.458a.326.326,0,0,1,.326.326.326.326,0,0,1-.326.326h-94.188l-14.5,14.5A.324.324,0,0,1-1541.309,3630.429Z" transform="translate(-676.307 -380.254)" fill="#0a5936"/>
    <path id="Path_135134" data-name="Path 135134" d="M-1347.294,3809.171a.323.323,0,0,1-.23-.1.326.326,0,0,1,0-.46l15.811-15.811h69.623a.326.326,0,0,1,.326.326.326.326,0,0,1-.326.326h-69.353l-15.62,15.62A.323.323,0,0,1-1347.294,3809.171Z" transform="translate(-841.66 -531.632)" fill="#0a5936"/>
    <path id="Path_135135" data-name="Path 135135" d="M-1356.407,3581.584h-96.407l-1.954-3h96.407Z" transform="translate(-750.34 -349.063)" fill="#72e8b2"/>
    <path id="Path_135136" data-name="Path 135136" d="M-1182.045,3761.93h-69.7l-1.954-3h69.7Z" transform="translate(-921.706 -502.766)" fill="#72e8b2"/>
    <path id="Path_135137" data-name="Path 135137" d="M-1131.864,3892.215h-25.682l-12.373-44h25.682Z" transform="translate(-993.109 -578.856)" fill="#72e8b2"/>
    <path id="Path_135138" data-name="Path 135138" d="M-913.741,3892.215h-25.682l-12.373-44h25.682Z" transform="translate(-1179.009 -578.856)" fill="#72e8b2"/>
    <g id="Group_92396" data-name="Group 92396" transform="translate(-2131.972 3253.49)">
      <path id="Path_135139" data-name="Path 135139" d="M-824.42,3876.886s8.733,9.8,9.153,13.55-4.158,9.614-4.158,9.614Z" transform="translate(844.404 -3856.783)" fill="#f98c3c"/>
      <path id="Path_135140" data-name="Path 135140" d="M-916.928,4565.156a22.809,22.809,0,0,1-.724,4.724h-10.92a2.025,2.025,0,0,1,1.609-1.271c1.711-.33,4.573-1.653,5.608-4.144C-920.265,4561.844-916.928,4565.156-916.928,4565.156Z" transform="translate(933.169 -4441.926)" fill="#0a5936"/>
      <path id="Path_135141" data-name="Path 135141" d="M-828.717,4565.156a22.865,22.865,0,0,1-.722,4.724h-10.92a2.021,2.021,0,0,1,1.609-1.271c1.709-.33,4.573-1.653,5.608-4.144C-832.052,4561.844-828.717,4565.156-828.717,4565.156Z" transform="translate(857.988 -4441.926)" fill="#0a5936"/>
      <path id="Path_135142" data-name="Path 135142" d="M-893.617,4143.81s1.53,10.784,7.238,29.929,6.486,27.435,6.486,27.435l6.124-.189s.052-20.922-2.578-30.549-.568-34.707-.568-34.707Z" transform="translate(903.378 -4077.386)" fill="#0a5936"/>
      <path id="Path_135143" data-name="Path 135143" d="M-913.814,4139.726a288.115,288.115,0,0,0,2.335,36.206c2.551,19.954,1.686,28.424,1.686,28.424l6.111.224s3.652-19.961,2.605-29.949,5-34.272,5-34.272Z" transform="translate(920.596 -4080.794)" fill="#0a5936"/>
      <path id="Path_135144" data-name="Path 135144" d="M-879.638,3835.936l-3.256,2.353-4.706-.967c.065-.419.376-2.154.659-3.725.017-.093.034-.186.05-.276.242-1.337.452-2.486.452-2.486l4.4-2.137,1.638-.8c0,.028-.127,1.484-.144,1.7A13.431,13.431,0,0,0-879.638,3835.936Z" transform="translate(898.25 -3815.034)" fill="#ffb27d"/>
      <path id="Path_135145" data-name="Path 135145" d="M-899.76,3914.46c-.945,4.751-16.673,5.314-20.727,1-.461-.492-.484-2.779-.31-5.862.34-6.025,1.433-15.087,1.475-19.717a40.258,40.258,0,0,1,.671-6.6,57.841,57.841,0,0,1,1.995-7.9s7.682-2.737,9.119-2.271C-900.612,3875.355-898.815,3909.709-899.76,3914.46Z" transform="translate(926.629 -3853.521)" fill="url(#linear-gradient)"/>
      <path id="Path_135146" data-name="Path 135146" d="M-920.22,3963.4c.34-6.025,1.433-15.087,1.475-19.717a40.257,40.257,0,0,1,.671-6.6l4.621-.9S-908.935,3956.519-920.22,3963.4Z" transform="translate(926.051 -3907.319)" fill="#f98c3c"/>
      <path id="Path_135147" data-name="Path 135147" d="M-910.872,4059a1.284,1.284,0,0,1-.347,1.387,2.417,2.417,0,0,0-.939,2.119c.151.659,1.6,1.735,2.106,1.562s1.527-1.042,1.416-1.39.689-3.053-.538-4.095A.966.966,0,0,0-910.872,4059Z" transform="translate(919.206 -4011.315)" fill="#ffb27d"/>
      <path id="Path_135148" data-name="Path 135148" d="M-946.191,3880.544s-4.507.93-8.1,6.761-5.954,10.168-5.292,12.27,6.691,9.392,7.731,9.392a2.882,2.882,0,0,0,2.812-2.708s-4.245-7.012-3.409-8.062c.357-.449,5.512-5.06,6.248-2.977C-944.983,3898.667-946.191,3880.544-946.191,3880.544Z" transform="translate(959.692 -3859.9)" fill="url(#linear-gradient)"/>
      <path id="Path_135149" data-name="Path 135149" d="M-877.081,3834.257c-.965,1.8-4.561,3.36-6.061,3.932.017-.093.034-.186.05-.276.242-1.337.452-2.486.452-2.486l4.4-2.137C-877.274,3833.276-876.682,3833.516-877.081,3834.257Z" transform="translate(894.451 -3819.627)" fill="#fca56b"/>
      <path id="Path_135150" data-name="Path 135150" d="M-896.065,3771.687s7.08,2.434,8.387-2.448,3.1-7.855-1.363-9.616-5.846-.185-6.642,1.328S-897.873,3770.928-896.065,3771.687Z" transform="translate(906.219 -3756.181)" fill="#ffb27d"/>
      <path id="Path_135151" data-name="Path 135151" d="M-890.333,3745.1s.452,5.681,1.518,5.434,2.033-.43,1.877,1.283-1.635,3.69,1.651,3.993,8.009-9.034,7.106-10.8C-880.785,3739.909-894.1,3738.88-890.333,3745.1Z" transform="translate(901.147 -3740.803)" fill="#0a5936"/>
      <path id="Path_135152" data-name="Path 135152" d="M-890.3,3864.713c.091-.042,5.667-1.855,6.272-1.635s.964,1.512.964,1.512l-9.119,2.272A4.852,4.852,0,0,1-890.3,3864.713Z" transform="translate(902.159 -3844.999)" fill="#f98c3c"/>
    </g>
    <g id="Group_92397" data-name="Group 92397" transform="translate(-2335.169 3300.379)">
      <path id="Path_135153" data-name="Path 135153" d="M-2335.169,4139.27h94.583l19.789-81.064h-94.583Z" transform="translate(2335.169 -4058.205)" fill="#17c878"/>
      <path id="Path_135154" data-name="Path 135154" d="M-2086.6,4139.27h-94.583l-19.789-81.064h94.583Z" transform="translate(2220.8 -4058.205)" fill="#72e8b2"/>
      <path id="Path_135155" data-name="Path 135155" d="M-2055.689,4161.182h-83.862l-17.546-71.875h83.862Z" transform="translate(2183.403 -4084.712)" fill="#fff"/>
      <path id="Path_135156" data-name="Path 135156" d="M-2335.169,4584.706l20.089-3.855,19.524,3.855Z" transform="translate(2335.169 -4503.641)" fill="#0a5936"/>
    </g>
    <path id="Path_135157" data-name="Path 135157" d="M-2138.254,4000.844a8.762,8.762,0,0,0-8.747,8.5h3.5a5.258,5.258,0,0,1,5.246-5A5.258,5.258,0,0,1-2133,4009.6a5.258,5.258,0,0,1-5.252,5.252,1.751,1.751,0,0,0-1.751,1.75,1.751,1.751,0,0,0,1.751,1.751,8.763,8.763,0,0,0,8.753-8.753A8.763,8.763,0,0,0-2138.254,4000.844Z" transform="translate(-160.371 -708.939)" fill="#0a5936"/>
    <path id="Path_135158" data-name="Path 135158" d="M-1988.144,4000.844a8.762,8.762,0,0,0-8.747,8.5h3.5a5.259,5.259,0,0,1,5.246-5,5.258,5.258,0,0,1,5.252,5.252,5.258,5.258,0,0,1-5.252,5.252,1.751,1.751,0,0,0-1.751,1.75,1.751,1.751,0,0,0,1.751,1.751,8.763,8.763,0,0,0,8.753-8.753A8.763,8.763,0,0,0-1988.144,4000.844Z" transform="translate(-288.305 -708.939)" fill="#0a5936"/>
    <path id="Path_135159" data-name="Path 135159" d="M-1838.035,4000.844a8.762,8.762,0,0,0-8.747,8.5h3.5a5.258,5.258,0,0,1,5.246-5,5.258,5.258,0,0,1,5.252,5.252,5.258,5.258,0,0,1-5.252,5.252,1.751,1.751,0,0,0-1.751,1.75,1.751,1.751,0,0,0,1.751,1.751,8.763,8.763,0,0,0,8.754-8.753A8.763,8.763,0,0,0-1838.035,4000.844Z" transform="translate(-416.239 -708.939)" fill="#0a5936"/>
    <path id="Path_135160" data-name="Path 135160" d="M-1687.926,4000.844a8.762,8.762,0,0,0-8.747,8.5h3.5a5.258,5.258,0,0,1,5.246-5,5.258,5.258,0,0,1,5.252,5.252,5.258,5.258,0,0,1-5.252,5.252,1.751,1.751,0,0,0-1.751,1.75,1.751,1.751,0,0,0,1.751,1.751,8.763,8.763,0,0,0,8.753-8.753A8.763,8.763,0,0,0-1687.926,4000.844Z" transform="translate(-544.172 -708.939)" fill="#0a5936"/>
    <path id="Path_135161" data-name="Path 135161" d="M-2074.512,4187.942h-18.823l-3.409-12.71h18.823Z" transform="translate(-203.203 -857.565)" fill="#72e8b2"/>
    <path id="Path_135162" data-name="Path 135162" d="M-1893.074,4187.942H-1911.9l-3.409-12.71h18.823Z" transform="translate(-357.837 -857.565)" fill="#72e8b2"/>
    <path id="Path_135163" data-name="Path 135163" d="M-1719.428,4187.942h-18.823l-3.409-12.71h18.823Z" transform="translate(-505.831 -857.565)" fill="#72e8b2"/>
    <path id="Path_135164" data-name="Path 135164" d="M-2040.9,4307.265h-18.823l-3.409-12.709h18.823Z" transform="translate(-231.846 -959.261)" fill="#72e8b2"/>
    <path id="Path_135165" data-name="Path 135165" d="M-1859.466,4307.265h-18.823l-3.409-12.709h18.823Z" transform="translate(-386.481 -959.261)" fill="#72e8b2"/>
    <path id="Path_135166" data-name="Path 135166" d="M-1685.82,4307.265h-18.823l-3.409-12.709h18.823Z" transform="translate(-534.474 -959.261)" fill="#72e8b2"/>
    <path id="Path_135167" data-name="Path 135167" d="M-2006.3,4429.086h-18.823l-3.409-12.709h18.823Z" transform="translate(-261.334 -1063.085)" fill="#72e8b2"/>
    <path id="Path_135168" data-name="Path 135168" d="M-1824.866,4429.086h-18.823l-3.409-12.709h18.823Z" transform="translate(-415.969 -1063.085)" fill="#72e8b2"/>
    <path id="Path_135169" data-name="Path 135169" d="M-1651.221,4429.086h-18.823l-3.409-12.709h18.823Z" transform="translate(-563.962 -1063.085)" fill="#72e8b2"/>
    <path id="Path_135170" data-name="Path 135170" d="M-2315.345,4058.205l.265,77.21-20.089,3.854Z" transform="translate(0 -757.826)" fill="#0f8550"/>
    <path id="Path_135171" data-name="Path 135171" d="M-1930.687,4606.769h-336.189a.331.331,0,0,1-.3-.354h0a.331.331,0,0,1,.3-.354h336.189a.331.331,0,0,1,.3.354h0A.331.331,0,0,1-1930.687,4606.769Z" transform="translate(-57.949 -1224.748)" fill="#0a5936"/>
  </g>
</svg>
