<svg xmlns="http://www.w3.org/2000/svg" width="120" height="120" viewBox="0 0 120 120">
  <g id="t1-i34" transform="translate(-1 -1)">
    <g id="Group_92448" data-name="Group 92448" transform="translate(2.935 2.935)">
      <g id="Group_92435" data-name="Group 92435" transform="translate(3.871 79.355)">
        <path id="Path_135238" data-name="Path 135238" d="M45.458,79.774H4V63.729A20.772,20.772,0,0,1,24.729,43a21.089,21.089,0,0,1,2.5.155A20.749,20.749,0,0,1,45.245,60.806l1.335,9.29.058.155,9.31-4.239,3.832,8.632L51.3,78.516a14.174,14.174,0,0,1-5.845,1.258Z" transform="translate(-4 -43)" fill="#17c878"/>
      </g>
      <g id="Group_92436" data-name="Group 92436" transform="translate(60.619 94.839)">
        <path id="Path_135239" data-name="Path 135239" d="M41.255,62.594c1.065-2.226,1.123-2.613,1.123-3.019a4.708,4.708,0,0,0-4.7-4.7H37.6a4.563,4.563,0,0,0-1.955.426L33.32,56.342A11.157,11.157,0,0,1,42.843,51h3.406a7.721,7.721,0,0,1,3.871,1.045,8.178,8.178,0,0,1,1.606,1.219,7.79,7.79,0,0,1,2.265,5.477,3.882,3.882,0,0,1-3.871,3.871H41.275Z" transform="translate(-33.32 -51)" fill="#17c878"/>
      </g>
      <g id="Group_92437" data-name="Group 92437" transform="translate(58.065 87.097)">
        <path id="Path_135240" data-name="Path 135240" d="M34.555,60.084l-.019.019L32,61.245V47H51.355v8.787a7.721,7.721,0,0,0-3.871-1.045H44.077a11.157,11.157,0,0,0-9.523,5.342Z" transform="translate(-32 -47)" fill="#afafaf"/>
      </g>
      <g id="Group_92438" data-name="Group 92438" transform="translate(26.477 71.613)">
        <path id="Path_135241" data-name="Path 135241" d="M105.332,39v7.742a7.74,7.74,0,0,1-7.742,7.742H29.945A20.637,20.637,0,0,0,16.3,46.9V40.935H15.68a6.167,6.167,0,0,0,4.355-1.8L20.17,39Z" transform="translate(-15.68 -39)" fill="#e8e8e8"/>
      </g>
      <g id="Group_92439" data-name="Group 92439" transform="translate(28.142 21.29)">
        <path id="Path_135242" data-name="Path 135242" d="M96.785,13H26.992A19.275,19.275,0,0,1,16.54,28.31a7.768,7.768,0,0,1,2.826,5.981h5.806a3.87,3.87,0,0,1,3.871,3.871,3.9,3.9,0,0,1-3.871,3.871H19.366l1.645,16.452c.019.194.019.406.019.6a6.189,6.189,0,0,1-1.665,4.239h85.161V20.742A7.74,7.74,0,0,0,96.785,13Z" transform="translate(-16.54 -13)" fill="#f1d54e"/>
      </g>
      <g id="Group_92440" data-name="Group 92440" transform="translate(69.677 1.935)">
        <ellipse id="Ellipse_4189" data-name="Ellipse 4189" cx="19" cy="19.5" rx="19" ry="19.5" transform="translate(0.387 0.129)" fill="#d2f6e6"/>
      </g>
      <g id="Group_92441" data-name="Group 92441" transform="translate(48.387 52.258)">
        <path id="Path_135243" data-name="Path 135243" d="M27,29H42.484V40.613H27Z" transform="translate(-27 -29)" fill="#17c878"/>
      </g>
      <g id="Group_92442" data-name="Group 92442">
        <path id="Path_135244" data-name="Path 135244" d="M40.594,23.29A19.275,19.275,0,0,1,30.142,38.6a7.708,7.708,0,0,0-4.916-1.761H17.484a11.442,11.442,0,0,0-5.555,1.413,19.352,19.352,0,1,1,28.781-16.9A15.992,15.992,0,0,1,40.594,23.29Z" transform="translate(-2 -2)" fill="#d2f6e6"/>
      </g>
      <g id="Group_92443" data-name="Group 92443" transform="translate(3.871 50.323)">
        <path id="Path_135245" data-name="Path 135245" d="M15.613,41.548v9.677A16.991,16.991,0,0,1,4,35.1V28H15.613l-1.819,1.819a7.009,7.009,0,0,0,0,9.91Z" transform="translate(-4 -28)" fill="#636363"/>
      </g>
      <g id="Group_92444" data-name="Group 92444" transform="translate(3.871 34.839)">
        <path id="Path_135246" data-name="Path 135246" d="M31.1,27.742H25.755a3.888,3.888,0,0,0-3.465,2.129l-2.806,5.613H4V31.613a11.643,11.643,0,0,1,6.058-10.2A11.442,11.442,0,0,1,15.613,20h7.742A7.742,7.742,0,0,1,31.1,27.742Z" transform="translate(-4 -20)" fill="#fb9e36"/>
      </g>
      <g id="Group_92445" data-name="Group 92445" transform="translate(19.355 42.581)">
        <path id="Path_135247" data-name="Path 135247" d="M29.419,24a3.87,3.87,0,0,1,3.871,3.871,3.9,3.9,0,0,1-3.871,3.871H12l2.806-5.613A3.888,3.888,0,0,1,18.271,24H29.419Z" transform="translate(-12 -24)" fill="#fb9e36"/>
      </g>
      <g id="Group_92446" data-name="Group 92446" transform="translate(55.819 98.71)">
        <path id="Path_135248" data-name="Path 135248" d="M39.995,53a4.708,4.708,0,0,1,4.7,4.7c0,.406-.058.794-1.123,3.019A4.5,4.5,0,0,1,41.93,62l-7.258,3.29L30.84,56.658l2.245-1.026,2.535-1.142.019-.019,2.323-1.045A4.563,4.563,0,0,1,39.917,53Z" transform="translate(-30.84 -53)" fill="#f0d0b4"/>
      </g>
      <g id="Group_92447" data-name="Group 92447" transform="translate(11.613 50.323)">
        <path id="Path_135249" data-name="Path 135249" d="M11.871,51.226V41.548l-1.819-1.819a7.009,7.009,0,0,1,0-9.91L11.871,28H27.355L29,44.452c.019.194.019.406.019.6a6.189,6.189,0,0,1-1.665,4.239l-.135.135a6.167,6.167,0,0,1-4.355,1.8h.619v5.961a21.091,21.091,0,0,0-2.5-.155,20.542,20.542,0,0,0-9.039,2.09l-.077-.155Z" transform="translate(-8 -28)" fill="#f0d0b4"/>
      </g>
    </g>
    <g id="Group_92449" data-name="Group 92449" transform="translate(1 1)">
      <path id="Path_135250" data-name="Path 135250" d="M20.484,16.078l2.475,7.428H32.1V19.635H25.75l-5.266-15.8-6.166,18.5L12,17.7H5v3.871H9.61l5.427,10.85Z" transform="translate(2.742 1.655)"/>
      <path id="Path_135251" data-name="Path 135251" d="M111.323,91.968A9.688,9.688,0,0,0,121,82.29V31.968a9.688,9.688,0,0,0-7.831-9.492,21.275,21.275,0,0,0-42.393-.186h-27.2A21.29,21.29,0,1,0,9.446,39.265,13.5,13.5,0,0,0,4.871,49.387V60.371A18.886,18.886,0,0,0,16.484,77.817v5.435A22.674,22.674,0,0,0,4.871,103.021V121H49.108v-.045a15.914,15.914,0,0,0,5.795-1.394L70.65,112.4a6.6,6.6,0,0,0,1.657-1.082h8.048a5.8,5.8,0,0,0,5.45-3.871h29.388a5.806,5.806,0,0,0,0-11.613H103.581a1.936,1.936,0,0,1-1.935-1.935V91.968Zm0-3.871h-66.8A22.806,22.806,0,0,0,31.968,80.81V77.965a8.086,8.086,0,0,0,2.64-1.481h82.521V82.29A5.814,5.814,0,0,1,111.323,88.1ZM76.484,95.839H73.07a13.163,13.163,0,0,0-10.134,4.792V91.968H78.419v4.066A9.669,9.669,0,0,0,76.484,95.839ZM50.963,106.722l-.987-6.906A22.424,22.424,0,0,0,47.3,91.968H59.065v11.071Zm-25.541-55.4,1.4-2.8a1.924,1.924,0,0,1,1.732-1.07H39.71a1.935,1.935,0,1,1,0,3.871ZM91.968,6.806A17.419,17.419,0,1,1,74.548,24.226,17.439,17.439,0,0,1,91.968,6.806ZM70.776,26.161a21.283,21.283,0,0,0,42.36.319,5.794,5.794,0,0,1,3.993,5.487V72.613H37.147a8.024,8.024,0,0,0,.325-3.1L36.04,55.192h3.67a5.806,5.806,0,0,0,0-11.613H35.643A9.609,9.609,0,0,0,34.066,40a21.13,21.13,0,0,0,9.12-13.835ZM4.871,22.29a17.419,17.419,0,1,1,26.28,14.954,9.587,9.587,0,0,0-4.988-1.405H18.419a13.464,13.464,0,0,0-5.425,1.142A17.426,17.426,0,0,1,4.871,22.29Zm3.871,27.1a9.688,9.688,0,0,1,9.677-9.677h7.744a5.809,5.809,0,0,1,5.472,3.869H28.554a5.776,5.776,0,0,0-5.195,3.209l-2.266,4.533H8.742Zm0,10.984V55.192h5.305a8.871,8.871,0,0,0-1.434,4.841,9.006,9.006,0,0,0,2.621,6.325l1.25,1.25V73.5A15.011,15.011,0,0,1,8.742,60.371Zm9.228,3.25a5.111,5.111,0,0,1-1.486-3.588,5.039,5.039,0,0,1,1.486-3.588l1.252-1.252H32.152L33.623,69.9a4.209,4.209,0,0,1-1.217,3.41,4.262,4.262,0,0,1-2.99,1.239H24.226v3.871H28.1v1.961c-.188-.006-.372-.027-.559-.027a22.518,22.518,0,0,0-7.183,1.186V66.005ZM53.3,116.039a12.166,12.166,0,0,1-16.686-7.581l-2.791-9.3-3.708,1.111,2.791,9.3a15.957,15.957,0,0,0,4.953,7.56H8.742V103.021a18.794,18.794,0,0,1,37.4-2.657l1.148,8.026-2.574,1.171,1.6,3.523,11.46-5.21,2.266,5.1ZM69.05,108.88l-5.479,2.491-2.266-5.1,5.377-2.445a2.9,2.9,0,0,1,1.221-.246,2.774,2.774,0,0,1,1.148,5.3Zm11.305-1.428H74.448a6.442,6.442,0,0,0,.1-1.1,6.621,6.621,0,0,0-4.289-6.182,9.108,9.108,0,0,1,2.81-.465h3.414a5.814,5.814,0,0,1,5.806,5.806,1.936,1.936,0,0,1-1.935,1.935Zm23.226-7.742h11.613a1.935,1.935,0,1,1,0,3.871H85.966a9.654,9.654,0,0,0-3.675-5.756V91.968H97.774V93.9a5.814,5.814,0,0,0,5.806,5.806Z" transform="translate(-1 -1)"/>
      <path id="Path_135252" data-name="Path 135252" d="M57,42h3.871v3.871H57Z" transform="translate(51.387 37.355)"/>
      <path id="Path_135253" data-name="Path 135253" d="M53,42h3.871v3.871H53Z" transform="translate(47.645 37.355)"/>
      <path id="Path_135254" data-name="Path 135254" d="M49,42h3.871v3.871H49Z" transform="translate(43.903 37.355)"/>
      <path id="Path_135255" data-name="Path 135255" d="M42,8h3.871v3.871H42Z" transform="translate(37.355 5.548)"/>
      <path id="Path_135256" data-name="Path 135256" d="M46,8H61.484v3.871H46Z" transform="translate(41.097 5.548)"/>
      <path id="Path_135257" data-name="Path 135257" d="M42,12h3.871v3.871H42Z" transform="translate(37.355 9.29)"/>
      <path id="Path_135258" data-name="Path 135258" d="M46,12H61.484v3.871H46Z" transform="translate(41.097 9.29)"/>
      <path id="Path_135259" data-name="Path 135259" d="M42,16h3.871v3.871H42Z" transform="translate(37.355 13.032)"/>
      <path id="Path_135260" data-name="Path 135260" d="M46,16H61.484v3.871H46Z" transform="translate(41.097 13.032)"/>
      <path id="Path_135261" data-name="Path 135261" d="M45.355,28H26V43.484H45.355ZM41.484,39.613H29.871V31.871H41.484Z" transform="translate(22.387 24.258)"/>
      <path id="Path_135262" data-name="Path 135262" d="M26,24H45.355v3.871H26Z" transform="translate(22.387 20.516)"/>
      <path id="Path_135263" data-name="Path 135263" d="M26,20H45.355v3.871H26Z" transform="translate(22.387 16.774)"/>
      <path id="Path_135264" data-name="Path 135264" d="M26,16H45.355v3.871H26Z" transform="translate(22.387 13.032)"/>
      <path id="Path_135265" data-name="Path 135265" d="M38,34h3.871v3.871H38Z" transform="translate(33.613 29.871)"/>
      <path id="Path_135266" data-name="Path 135266" d="M42,34H74.9v3.871H42Z" transform="translate(37.355 29.871)"/>
      <path id="Path_135267" data-name="Path 135267" d="M38,30H78.645v3.871H38Z" transform="translate(33.613 26.129)"/>
      <path id="Path_135268" data-name="Path 135268" d="M38,26H78.645v3.871H38Z" transform="translate(33.613 22.387)"/>
    </g>
  </g>
</svg>
