<svg xmlns="http://www.w3.org/2000/svg" width="709" height="400.162" viewBox="0 0 709 400.162">
  <g id="t1-i31" transform="translate(-2998.5 537.711)">
    <rect id="Rectángulo_31455" data-name="Rectángulo 31455" width="709" height="400.162" transform="translate(2998.5 -537.711)" fill="#fff"/>
    <g id="Group_96471" data-name="Group 96471">
      <path id="Path_140192" data-name="Path 140192" d="M3512.3-244.757h-27.244c-73.9,0-108.8-40.944-134.852-98.631-14.156-31.349-17.506-60.262-11.351-80.661a26.563,26.563,0,0,1,25.5-18.708h5.014a16.072,16.072,0,0,0,16.072-16.072V-497.36a16.071,16.071,0,0,0-16.072-16.071H3243.8a16.071,16.071,0,0,0-16.071,16.071v38.531a16.072,16.072,0,0,0,16.071,16.072h5.014a26.562,26.562,0,0,1,25.5,18.708c6.155,20.4,2.805,49.312-11.35,80.661-26.049,57.687-60.954,98.631-134.853,98.631h-27.243a16.072,16.072,0,0,0-16.072,16.071V-177.9a16.071,16.071,0,0,0,16.071,16.071H3512.3A16.071,16.071,0,0,0,3528.37-177.9v-50.786A16.071,16.071,0,0,0,3512.3-244.757Z" fill="#f1d54e" opacity="0.4"/>
      <path id="Ellipse_4276" data-name="Ellipse 4276" d="M103.52-2.5a194.512,194.512,0,0,1,40.82,4.194A156.493,156.493,0,0,1,162.211,6.63,122.285,122.285,0,0,1,177.853,13.2a88.043,88.043,0,0,1,13.011,8.025,59.353,59.353,0,0,1,9.963,9.344,39.914,39.914,0,0,1,6.429,10.55,30.329,30.329,0,0,1,0,23.092,39.914,39.914,0,0,1-6.429,10.55,59.353,59.353,0,0,1-9.963,9.344,88.043,88.043,0,0,1-13.011,8.025,122.285,122.285,0,0,1-15.642,6.566,156.493,156.493,0,0,1-17.871,4.935,194.512,194.512,0,0,1-40.82,4.194,194.512,194.512,0,0,1-40.82-4.194,156.493,156.493,0,0,1-17.871-4.935,122.285,122.285,0,0,1-15.642-6.566A88.043,88.043,0,0,1,16.176,84.1a59.354,59.354,0,0,1-9.963-9.344A39.914,39.914,0,0,1-.216,64.208a30.329,30.329,0,0,1,0-23.092,39.914,39.914,0,0,1,6.429-10.55,59.353,59.353,0,0,1,9.963-9.344A88.043,88.043,0,0,1,29.187,13.2,122.285,122.285,0,0,1,44.828,6.63,156.493,156.493,0,0,1,62.7,1.694,194.512,194.512,0,0,1,103.52-2.5Zm0,105.323c27.265,0,52.858-5.381,72.066-15.153,18.671-9.5,28.954-21.931,28.954-35.009s-10.283-25.511-28.954-35.009C156.378,7.881,130.784,2.5,103.52,2.5S50.662,7.881,31.454,17.653C12.783,27.151,2.5,39.584,2.5,52.662S12.783,78.173,31.454,87.671C50.662,97.442,76.255,102.823,103.52,102.823Z" transform="matrix(0.558, -0.83, 0.83, 0.558, 3086.758, -289.916)" fill="#17c878"/>
      <path id="Ellipse_4277" data-name="Ellipse 4277" d="M52.662-2.5A30.836,30.836,0,0,1,64.208-.216a39.914,39.914,0,0,1,10.55,6.429A59.354,59.354,0,0,1,84.1,16.176a88.043,88.043,0,0,1,8.025,13.011,122.285,122.285,0,0,1,6.566,15.642A156.493,156.493,0,0,1,103.629,62.7a194.512,194.512,0,0,1,4.194,40.82,194.512,194.512,0,0,1-4.194,40.82,156.493,156.493,0,0,1-4.935,17.871,122.285,122.285,0,0,1-6.566,15.642A88.043,88.043,0,0,1,84.1,190.864a59.353,59.353,0,0,1-9.344,9.963,39.914,39.914,0,0,1-10.55,6.429,30.329,30.329,0,0,1-23.092,0,39.914,39.914,0,0,1-10.55-6.429,59.353,59.353,0,0,1-9.344-9.963A88.043,88.043,0,0,1,13.2,177.853,122.285,122.285,0,0,1,6.63,162.211,156.493,156.493,0,0,1,1.694,144.34,194.512,194.512,0,0,1-2.5,103.52,194.512,194.512,0,0,1,1.694,62.7,156.493,156.493,0,0,1,6.63,44.828,122.285,122.285,0,0,1,13.2,29.187a88.043,88.043,0,0,1,8.025-13.011,59.353,59.353,0,0,1,9.344-9.963A39.914,39.914,0,0,1,41.116-.216,30.836,30.836,0,0,1,52.662-2.5Zm0,207.04c13.078,0,25.511-10.283,35.009-28.954,9.771-19.208,15.153-44.8,15.153-72.066S97.442,50.662,87.671,31.454C78.173,12.783,65.74,2.5,52.662,2.5S27.151,12.783,17.653,31.454C7.881,50.662,2.5,76.255,2.5,103.52s5.381,52.858,15.153,72.066C27.151,194.257,39.584,204.54,52.662,204.54Z" transform="matrix(0.83, -0.558, 0.558, 0.83, 3323.454, -402.907)" fill="#17c878"/>
      <path id="Path_140193" data-name="Path 140193" d="M3512.3-159.329H3100.87a18.458,18.458,0,0,1-7.229-1.46,18.5,18.5,0,0,1-5.9-3.979,18.5,18.5,0,0,1-3.979-5.9,18.459,18.459,0,0,1-1.46-7.23v-50.786a18.455,18.455,0,0,1,1.461-7.23,18.509,18.509,0,0,1,3.979-5.9,18.509,18.509,0,0,1,5.9-3.979,18.46,18.46,0,0,1,7.23-1.46h27.243c77.955,0,109.788-46.7,132.574-97.16,13.35-29.566,17.445-58.328,11.235-78.91a24.185,24.185,0,0,0-23.111-16.93H3243.8a18.455,18.455,0,0,1-7.229-1.461,18.5,18.5,0,0,1-5.9-3.979,18.506,18.506,0,0,1-3.979-5.9,18.455,18.455,0,0,1-1.46-7.23V-497.36a18.454,18.454,0,0,1,1.46-7.23,18.5,18.5,0,0,1,3.979-5.9,18.507,18.507,0,0,1,5.9-3.979,18.457,18.457,0,0,1,7.229-1.46H3369.37a18.458,18.458,0,0,1,7.229,1.46,18.507,18.507,0,0,1,5.9,3.979,18.506,18.506,0,0,1,3.979,5.9,18.459,18.459,0,0,1,1.46,7.23v38.531a18.46,18.46,0,0,1-1.46,7.23,18.507,18.507,0,0,1-3.979,5.9,18.508,18.508,0,0,1-5.9,3.979,18.457,18.457,0,0,1-7.23,1.461h-5.014a24.185,24.185,0,0,0-23.11,16.93c-6.21,20.582-2.115,49.344,11.236,78.91,22.786,50.463,54.618,97.16,132.573,97.16H3512.3a18.457,18.457,0,0,1,7.229,1.46,18.507,18.507,0,0,1,5.9,3.979,18.509,18.509,0,0,1,3.979,5.9,18.459,18.459,0,0,1,1.46,7.23V-177.9a18.459,18.459,0,0,1-1.46,7.23,18.509,18.509,0,0,1-3.979,5.9,18.507,18.507,0,0,1-5.9,3.979A18.457,18.457,0,0,1,3512.3-159.329Zm-411.428-82.928a13.587,13.587,0,0,0-13.572,13.571V-177.9a13.586,13.586,0,0,0,13.571,13.571H3512.3A13.586,13.586,0,0,0,3525.87-177.9v-50.786a13.586,13.586,0,0,0-13.571-13.571h-27.244c-35.392,0-63.836-9.241-86.958-28.252a133.856,133.856,0,0,1-15.136-14.664,167.527,167.527,0,0,1-13.16-17.066,267.662,267.662,0,0,1-21.876-40.12,184.415,184.415,0,0,1-8.729-23.277,144.883,144.883,0,0,1-4.762-21.856,106.744,106.744,0,0,1-.891-19.892,74.336,74.336,0,0,1,2.917-17.387,28.346,28.346,0,0,1,4.129-8.375,28.815,28.815,0,0,1,6.429-6.468,29.31,29.31,0,0,1,8.121-4.166,29.427,29.427,0,0,1,9.218-1.477h5.014a13.587,13.587,0,0,0,13.572-13.572V-497.36a13.587,13.587,0,0,0-13.572-13.571H3243.8a13.586,13.586,0,0,0-13.571,13.571v38.531a13.587,13.587,0,0,0,13.571,13.572h5.014a29.427,29.427,0,0,1,9.218,1.477,29.31,29.31,0,0,1,8.121,4.166,28.817,28.817,0,0,1,6.429,6.468,28.357,28.357,0,0,1,4.129,8.375,74.346,74.346,0,0,1,2.917,17.387,106.722,106.722,0,0,1-.891,19.892,144.882,144.882,0,0,1-4.762,21.856,184.417,184.417,0,0,1-8.729,23.277,267.678,267.678,0,0,1-21.876,40.12,167.556,167.556,0,0,1-13.161,17.066,133.877,133.877,0,0,1-15.136,14.664c-23.122,19.011-51.566,28.252-86.958,28.252Z" fill="#f1d54e"/>
      <text id="Núcleo_operativo" data-name="Núcleo operativo" transform="translate(3306.585 -195.003)" fill="#12263f" font-size="20" font-family="Roboto-Bold, Roboto" font-weight="700"><tspan x="-76.289" y="0">Núcleo operativo</tspan></text>
      <text id="Ideología" transform="translate(3579.478 -260.282)" fill="#12263f" font-size="20" font-family="Roboto-Bold, Roboto" font-weight="700"><tspan x="-41.724" y="0">Ideología</tspan></text>
      <text id="Línea_media" data-name="Línea
media" transform="translate(3306.585 -328.534)" fill="#12263f" font-size="20" font-family="Roboto-Bold, Roboto" font-weight="700"><tspan x="-24.521" y="0">Línea</tspan><tspan x="-27.71" y="24">media</tspan></text>
      <text id="Tecnoestructura" transform="translate(3193.053 -343.12) rotate(-55.541)" fill="#12263f" font-size="20" font-family="Roboto-Bold, Roboto" font-weight="700"><tspan x="-73.848" y="0">Tecnoestructura</tspan></text>
      <text id="Personal_de_apoyo" data-name="Personal de apoyo" transform="translate(3420.083 -343.127) rotate(56.124)" fill="#12263f" font-size="20" font-family="Roboto-Bold, Roboto" font-weight="700"><tspan x="-83.042" y="0">Personal de apoyo</tspan></text>
      <text id="Ápice_estratégico" data-name="Ápice
estratégico" transform="translate(3306.585 -481.274)" fill="#12263f" font-size="20" font-family="Roboto-Bold, Roboto" font-weight="700"><tspan x="-25.396" y="0">Ápice</tspan><tspan x="-50.801" y="24">estratégico</tspan></text>
    </g>
  </g>
</svg>
