<svg xmlns="http://www.w3.org/2000/svg" width="152" height="153" viewBox="0 0 152 153">
  <g id="t1-i28" transform="translate(-468 -9753)">
    <ellipse id="Ellipse_4052" data-name="Ellipse 4052" cx="76" cy="76.5" rx="76" ry="76.5" transform="translate(468 9753)" fill="#fff"/>
    <g id="Group_92399" data-name="Group 92399" transform="translate(0 700)">
      <path id="Path_135191" data-name="Path 135191" d="M-7300.714-2549.143h18.143l1.143,3.143v17l-2.286,2.714h-27.429l-3-2.143.714-19.429,2.286-2Z" transform="translate(7869 11700)" fill="#f1d54e"/>
      <path id="Path_135192" data-name="Path 135192" d="M-7354.286-2607.714h25.857l3.143,3.286.714,15.286-3.857,5-19.857,6-15.286-.572-3.857-1.857-1.714-4.428,1-19.428,4.572-3.286Z" transform="translate(7869 11700)" fill="#f1d54e"/>
      <path id="Path_135193" data-name="Path 135193" d="M-7320.857-2590.143H-7325l-3.571,6.143,6.286,2.857,5.571,4.428,2.571,8.572s-.572,7.428,0,7.286,11.286-1,11.286-1l1,5.714,9.286-5.714h3.857l4.143-3.714v-21.714l-4.857-2.857h-31.428Z" transform="translate(7869 11700)" fill="#fb9e36"/>
      <path id="Path_135194" data-name="Path 135194" d="M-7345.429-2599l6,2.286a42.1,42.1,0,0,1,3.429,3.572c.143.428,2.429,5.857,2.429,5.857V-2585l-5.857.714h-20.428V-2588s3.857-6.714,4-7.143,4.571-3.857,4.571-3.857Z" transform="translate(7869 11700)" fill="#fff"/>
      <path id="Path_135195" data-name="Path 135195" d="M-7316.714-2576.428l3.714,9h20s.429-3.286,0-4.286-5.286-7.857-5.286-7.857l-4.571-1.714h-5.714l-5.429,1.714Z" transform="translate(7869 11700)" fill="#fff"/>
      <path id="Path_135196" data-name="Path 135196" d="M-7355-2549.857l6.714,7.429-12.143,12.571-3.286.572-3.286-1.429-1.571-4v-2.857l8.143-7.571Z" transform="translate(7869 11700)" fill="#17c878"/>
      <path id="Path_135197" data-name="Path 135197" d="M-7328.571-2584.286l6,2.857,5.428,5,4.143,9.571-1.286,9.286-2.857,6.143-9.428,7-9.857.714-6.857-2.286-5.714-4.286-2.857-4.572s-2.857-9-2.714-9.571,3-10,3.428-10.572,5.143-6.428,5.143-6.428l7.857-2.857,5.857-.572Z" transform="translate(7869 11700)" fill="#afafaf"/>
      <path id="Path_135198" data-name="Path 135198" d="M-7304.762-2596.286h-4.1l-2.714,2.428-1.572,3.286s-.714,3.857,0,4.286,4.286,3.857,4.286,3.857h4.1s3.047-1.286,3.619-1.572,2-4.428,2-4.428v-2.143c0-1.143-2-3.286-2-3.286Z" transform="translate(7869 11700)" fill="#ffb27d"/>
      <path id="Path_135199" data-name="Path 135199" d="M-7304.762-2596.286h-4.1l-2.714,2.428-1.572,3.286s-.714,3.857,0,4.286,4.286,3.857,4.286,3.857h4.1s3.047-1.286,3.619-1.572,2-4.428,2-4.428v-2.143c0-1.143-2-3.286-2-3.286Z" transform="translate(7828.588 11682.643)" fill="#ffb27d"/>
      <path id="Path_135200" data-name="Path 135200" d="M-7331.5-2578.143l6.5,1.643,4.75,6.25,1.75,8.25-4,8-6,3.75h-7.25l-7.5-2.25-4.5-5.5v-8.75l4.5-8.25,4.75-3.143Z" transform="translate(7869 11700)" fill="#d2f6e6"/>
      <g id="investigacion-cualitativa" transform="translate(498 9084)">
        <path id="Path_135183" data-name="Path 135183" d="M30.968,25A15.968,15.968,0,1,0,46.935,40.968,15.987,15.987,0,0,0,30.968,25Zm0,29.032A13.065,13.065,0,1,1,44.032,40.968,13.08,13.08,0,0,1,30.968,54.032Z" transform="translate(6.323 10.839)"/>
        <path id="Path_135184" data-name="Path 135184" d="M67.774,56.161v7.066l10.6-7.066h2.463A7.266,7.266,0,0,0,88.1,48.9V31.484a7.266,7.266,0,0,0-7.258-7.258H73.073a8.7,8.7,0,0,0-16.4,0H48.9a7.251,7.251,0,0,0-1.452.147V14.065a7.266,7.266,0,0,0-7.258-7.258H32.427a8.7,8.7,0,0,0-16.4,0H8.258A7.266,7.266,0,0,0,1,14.065V31.484a7.266,7.266,0,0,0,7.258,7.258H19.912a21.628,21.628,0,0,0-.87,24.905l-2.074,2.074L15.516,64.27,2.929,76.858a6.584,6.584,0,0,0,9.311,9.311L24.827,73.581l-1.452-1.452,2.074-2.074A21.741,21.741,0,0,0,58.626,56.161Zm5.806-29.032h7.258a4.36,4.36,0,0,1,4.355,4.355V48.9a4.36,4.36,0,0,1-4.355,4.355H77.5L70.677,57.8V53.258H58.99c.032-.482.074-.961.074-1.452s-.042-.97-.074-1.452h20.4v-2.9a14.531,14.531,0,0,0-9.151-13.475A8.693,8.693,0,0,0,73.581,27.129ZM69.115,47.452l-.887-11.114a11.631,11.631,0,0,1,8.255,11.114Zm-3.84-11.593L66.2,47.452H63.54l.925-11.588c.136,0,.27-.025.406-.025S65.141,35.855,65.276,35.859Zm-4.65,11.593h-2A21.6,21.6,0,0,0,55.743,40.3a11.575,11.575,0,0,1,5.769-3.948Zm4.245-26.129a5.806,5.806,0,1,1-5.806,5.806A5.812,5.812,0,0,1,64.871,21.323Zm-8.71,5.806a8.694,8.694,0,0,0,3.34,6.844,14.5,14.5,0,0,0-5.516,3.88,21.838,21.838,0,0,0-9.42-6.544A4.351,4.351,0,0,1,48.9,27.129ZM32.935,9.71h7.258a4.36,4.36,0,0,1,4.355,4.355V25.715a7.221,7.221,0,0,0-2.8,4.78,21.5,21.5,0,0,0-3-.388v-.075a14.531,14.531,0,0,0-9.151-13.475A8.693,8.693,0,0,0,32.935,9.71ZM12.613,30.032A11.631,11.631,0,0,1,20.87,18.919l-.888,11.114ZM23.821,18.44c.135,0,.269-.02.4-.02s.27.016.4.02l.926,11.593H22.895Zm3.761.479a11.631,11.631,0,0,1,8.257,11.114H28.47ZM24.226,3.9A5.806,5.806,0,1,1,18.419,9.71,5.812,5.812,0,0,1,24.226,3.9ZM3.9,31.484V14.065A4.36,4.36,0,0,1,8.258,9.71h7.258a8.693,8.693,0,0,0,3.345,6.847A14.531,14.531,0,0,0,9.71,30.032v2.9H26.474a21.858,21.858,0,0,0-3.937,2.9H8.258A4.36,4.36,0,0,1,3.9,31.484Zm6.284,52.633a3.681,3.681,0,1,1-5.205-5.205L15.516,68.375l5.205,5.205Zm11.135-14.04-2.3-2.3L20.8,65.99a22.1,22.1,0,0,0,2.3,2.3Zm15.968.6A18.871,18.871,0,1,1,56.161,51.806,18.893,18.893,0,0,1,37.29,70.677Z"/>
        <path id="Path_135185" data-name="Path 135185" d="M69.484,45H43.355A4.36,4.36,0,0,0,39,49.355V66.774a4.36,4.36,0,0,0,4.355,4.355H69.484a4.36,4.36,0,0,0,4.355-4.355V49.355A4.36,4.36,0,0,0,69.484,45Zm1.452,21.774a1.453,1.453,0,0,1-1.452,1.452H43.355A1.453,1.453,0,0,1,41.9,66.774V49.355A1.453,1.453,0,0,1,43.355,47.9H69.484a1.453,1.453,0,0,1,1.452,1.452Z" transform="translate(17.161 19.871)"/>
        <path id="Path_135186" data-name="Path 135186" d="M63.323,51.9h-2.9v8.71h-2.9V54.806h-2.9v5.806h-2.9v-2.9h-2.9v2.9H45.9V49H43V63.516H66.226v-2.9h-2.9Z" transform="translate(18.968 21.677)"/>
        <path id="Path_135187" data-name="Path 135187" d="M55,21h2.9v2.9H55Z" transform="translate(24.387 9.032)"/>
        <path id="Path_135188" data-name="Path 135188" d="M55,25h2.9v2.9H55Z" transform="translate(24.387 10.839)"/>
        <path id="Path_135189" data-name="Path 135189" d="M5,9H7.9v2.9H5Z" transform="translate(1.806 3.613)"/>
        <path id="Path_135190" data-name="Path 135190" d="M5,13H7.9v2.9H5Z" transform="translate(1.806 5.419)"/>
      </g>
    </g>
  </g>
</svg>
