<svg xmlns="http://www.w3.org/2000/svg" width="1134" height="430" viewBox="0 0 1134 430">
  <g id="t1-i15" transform="translate(1250.459 1063.211)">
    <rect id="Rectangle_32902" data-name="Rectangle 32902" width="1134" height="430" transform="translate(-1250.459 -1063.211)" fill="#fff"/>
    <g id="Group_96978" data-name="Group 96978">
      <g id="Group_96909" data-name="Group 96909">
        <path id="Path_140563" data-name="Path 140563" d="M-1190.514-903.289h147.908v44.6a23.766,23.766,0,0,1-23.767,23.766H-1214.28v-44.6a23.766,23.766,0,0,1,23.766-23.766" fill="#f1d54e"/>
        <g id="Group_96907" data-name="Group 96907">
          <g id="Group_96902" data-name="Group 96902">
            <path id="Path_140564" data-name="Path 140564" d="M-1038.372-885.744a.529.529,0,0,1-.529-.529v-2.117a.529.529,0,0,1,.529-.53.529.529,0,0,1,.529.53v2.117A.529.529,0,0,1-1038.372-885.744Z" fill="#f1d54e"/>
          </g>
          <g id="Group_96903" data-name="Group 96903">
            <path id="Path_140565" data-name="Path 140565" d="M-1038.372-891.264a.529.529,0,0,1-.529-.53v-3.4a.529.529,0,0,1,.529-.529.529.529,0,0,1,.529.529v3.4A.529.529,0,0,1-1038.372-891.264Zm0-6.807a.529.529,0,0,1-.529-.529V-902a.529.529,0,0,1,.529-.529.529.529,0,0,1,.529.529v3.4A.529.529,0,0,1-1038.372-898.071Z" fill="#f1d54e"/>
          </g>
          <g id="Group_96904" data-name="Group 96904">
            <path id="Path_140566" data-name="Path 140566" d="M-1038.372-904.877a.529.529,0,0,1-.529-.529v-1.588h-1.588a.529.529,0,0,1-.529-.529.529.529,0,0,1,.529-.53h2.117a.529.529,0,0,1,.529.53v2.117A.529.529,0,0,1-1038.372-904.877Z" fill="#f1d54e"/>
          </g>
          <g id="Group_96905" data-name="Group 96905">
            <path id="Path_140567" data-name="Path 140567" d="M-1044.436-906.994h-3.947a.529.529,0,0,1-.529-.529.529.529,0,0,1,.529-.53h3.947a.529.529,0,0,1,.529.53A.529.529,0,0,1-1044.436-906.994Zm-7.893,0h-3.947a.529.529,0,0,1-.53-.529.53.53,0,0,1,.53-.53h3.947a.529.529,0,0,1,.529.53A.529.529,0,0,1-1052.329-906.994Zm-7.894,0h-3.947a.529.529,0,0,1-.529-.529.529.529,0,0,1,.529-.53h3.947a.529.529,0,0,1,.529.53A.529.529,0,0,1-1060.223-906.994Zm-7.893,0h-3.947a.529.529,0,0,1-.53-.529.53.53,0,0,1,.53-.53h3.947a.529.529,0,0,1,.529.53A.529.529,0,0,1-1068.116-906.994Zm-7.894,0h-3.947a.529.529,0,0,1-.529-.529.529.529,0,0,1,.529-.53h3.947a.529.529,0,0,1,.529.53A.529.529,0,0,1-1076.01-906.994Zm-7.893,0h-3.947a.529.529,0,0,1-.529-.529.529.529,0,0,1,.529-.53h3.947a.529.529,0,0,1,.529.53A.529.529,0,0,1-1083.9-906.994Zm-7.894,0h-3.947a.529.529,0,0,1-.529-.529.529.529,0,0,1,.529-.53h3.947a.529.529,0,0,1,.529.53A.529.529,0,0,1-1091.8-906.994Z" fill="#f1d54e"/>
          </g>
          <g id="Group_96906" data-name="Group 96906">
            <path id="Path_140568" data-name="Path 140568" d="M-1099.69-906.994h-2.117a.529.529,0,0,1-.529-.529.529.529,0,0,1,.529-.53h2.117a.529.529,0,0,1,.529.53A.529.529,0,0,1-1099.69-906.994Z" fill="#f1d54e"/>
          </g>
        </g>
        <g id="Group_96908" data-name="Group 96908">
          <path id="Path_140569" data-name="Path 140569" d="M-1066.373-830.164h-152.141a.529.529,0,0,1-.53-.529v-48.83a28.563,28.563,0,0,1,28.53-28.53h83.49a.529.529,0,0,1,.529.53.529.529,0,0,1-.529.529h-83.49a27.5,27.5,0,0,0-27.471,27.471v48.3h151.612a27.5,27.5,0,0,0,27.472-27.471v-23.328a.529.529,0,0,1,.529-.529.529.529,0,0,1,.529.529v23.328A28.561,28.561,0,0,1-1066.373-830.164Z" fill="#f1d54e"/>
        </g>
      </g>
      <g id="Group_96917" data-name="Group 96917">
        <path id="Path_140570" data-name="Path 140570" d="M-968.022-903.289h147.908v44.6a23.766,23.766,0,0,1-23.767,23.766H-991.788v-44.6a23.766,23.766,0,0,1,23.766-23.766" fill="#f1d54e"/>
        <g id="Group_96915" data-name="Group 96915">
          <g id="Group_96910" data-name="Group 96910">
            <path id="Path_140571" data-name="Path 140571" d="M-815.88-885.744a.529.529,0,0,1-.529-.529v-2.117a.529.529,0,0,1,.529-.53.529.529,0,0,1,.529.53v2.117A.529.529,0,0,1-815.88-885.744Z" fill="#f1d54e"/>
          </g>
          <g id="Group_96911" data-name="Group 96911">
            <path id="Path_140572" data-name="Path 140572" d="M-815.88-891.264a.529.529,0,0,1-.529-.53v-3.4a.529.529,0,0,1,.529-.529.529.529,0,0,1,.529.529v3.4A.529.529,0,0,1-815.88-891.264Zm0-6.807a.529.529,0,0,1-.529-.529V-902a.529.529,0,0,1,.529-.529.529.529,0,0,1,.529.529v3.4A.529.529,0,0,1-815.88-898.071Z" fill="#f1d54e"/>
          </g>
          <g id="Group_96912" data-name="Group 96912">
            <path id="Path_140573" data-name="Path 140573" d="M-815.88-904.877a.529.529,0,0,1-.529-.529v-1.588H-818a.529.529,0,0,1-.53-.529.53.53,0,0,1,.53-.53h2.117a.529.529,0,0,1,.529.53v2.117A.529.529,0,0,1-815.88-904.877Z" fill="#f1d54e"/>
          </g>
          <g id="Group_96913" data-name="Group 96913">
            <path id="Path_140574" data-name="Path 140574" d="M-821.944-906.994h-3.947a.529.529,0,0,1-.529-.529.529.529,0,0,1,.529-.53h3.947a.529.529,0,0,1,.529.53A.529.529,0,0,1-821.944-906.994Zm-7.894,0h-3.946a.529.529,0,0,1-.53-.529.53.53,0,0,1,.53-.53h3.946a.53.53,0,0,1,.53.53A.529.529,0,0,1-829.838-906.994Zm-7.893,0h-3.947a.529.529,0,0,1-.529-.529.529.529,0,0,1,.529-.53h3.947a.529.529,0,0,1,.529.53A.529.529,0,0,1-837.731-906.994Zm-7.893,0h-3.947a.529.529,0,0,1-.53-.529.53.53,0,0,1,.53-.53h3.947a.529.529,0,0,1,.529.53A.529.529,0,0,1-845.624-906.994Zm-7.894,0h-3.947a.529.529,0,0,1-.529-.529.529.529,0,0,1,.529-.53h3.947a.529.529,0,0,1,.529.53A.529.529,0,0,1-853.518-906.994Zm-7.893,0h-3.947a.529.529,0,0,1-.529-.529.529.529,0,0,1,.529-.53h3.947a.529.529,0,0,1,.529.53A.529.529,0,0,1-861.411-906.994Zm-7.894,0h-3.947a.529.529,0,0,1-.529-.529.529.529,0,0,1,.529-.53h3.947a.529.529,0,0,1,.529.53A.529.529,0,0,1-869.3-906.994Z" fill="#f1d54e"/>
          </g>
          <g id="Group_96914" data-name="Group 96914">
            <path id="Path_140575" data-name="Path 140575" d="M-877.2-906.994h-2.117a.529.529,0,0,1-.529-.529.529.529,0,0,1,.529-.53h2.117a.529.529,0,0,1,.529.53A.529.529,0,0,1-877.2-906.994Z" fill="#f1d54e"/>
          </g>
        </g>
        <g id="Group_96916" data-name="Group 96916">
          <path id="Path_140576" data-name="Path 140576" d="M-843.881-830.164H-996.023a.529.529,0,0,1-.529-.529v-48.83a28.563,28.563,0,0,1,28.53-28.53h83.49a.529.529,0,0,1,.529.53.529.529,0,0,1-.529.529h-83.49a27.5,27.5,0,0,0-27.471,27.471v48.3h151.612a27.5,27.5,0,0,0,27.472-27.471v-23.328a.529.529,0,0,1,.529-.529.529.529,0,0,1,.529.529v23.328A28.561,28.561,0,0,1-843.881-830.164Z" fill="#f1d54e"/>
        </g>
      </g>
      <g id="Group_96925" data-name="Group 96925">
        <path id="Path_140577" data-name="Path 140577" d="M-739.17-903.289h147.908v44.6a23.766,23.766,0,0,1-23.767,23.766H-762.936v-44.6a23.765,23.765,0,0,1,23.766-23.766" fill="#f1d54e"/>
        <g id="Group_96923" data-name="Group 96923">
          <g id="Group_96918" data-name="Group 96918">
            <path id="Path_140578" data-name="Path 140578" d="M-587.028-885.744a.529.529,0,0,1-.529-.529v-2.117a.529.529,0,0,1,.529-.53.529.529,0,0,1,.529.53v2.117A.529.529,0,0,1-587.028-885.744Z" fill="#f1d54e"/>
          </g>
          <g id="Group_96919" data-name="Group 96919">
            <path id="Path_140579" data-name="Path 140579" d="M-587.028-891.264a.529.529,0,0,1-.529-.53v-3.4a.529.529,0,0,1,.529-.529.529.529,0,0,1,.529.529v3.4A.529.529,0,0,1-587.028-891.264Zm0-6.807a.529.529,0,0,1-.529-.529V-902a.529.529,0,0,1,.529-.529.529.529,0,0,1,.529.529v3.4A.529.529,0,0,1-587.028-898.071Z" fill="#f1d54e"/>
          </g>
          <g id="Group_96920" data-name="Group 96920">
            <path id="Path_140580" data-name="Path 140580" d="M-587.028-904.877a.529.529,0,0,1-.529-.529v-1.588h-1.588a.529.529,0,0,1-.529-.529.529.529,0,0,1,.529-.53h2.117a.529.529,0,0,1,.529.53v2.117A.529.529,0,0,1-587.028-904.877Z" fill="#f1d54e"/>
          </g>
          <g id="Group_96921" data-name="Group 96921">
            <path id="Path_140581" data-name="Path 140581" d="M-593.092-906.994h-3.947a.529.529,0,0,1-.529-.529.529.529,0,0,1,.529-.53h3.947a.529.529,0,0,1,.529.53A.529.529,0,0,1-593.092-906.994Zm-7.893,0h-3.947a.529.529,0,0,1-.53-.529.53.53,0,0,1,.53-.53h3.947a.529.529,0,0,1,.529.53A.529.529,0,0,1-600.985-906.994Zm-7.894,0h-3.947a.529.529,0,0,1-.529-.529.529.529,0,0,1,.529-.53h3.947a.529.529,0,0,1,.529.53A.529.529,0,0,1-608.879-906.994Zm-7.893,0h-3.947a.529.529,0,0,1-.53-.529.53.53,0,0,1,.53-.53h3.947a.529.529,0,0,1,.529.53A.529.529,0,0,1-616.772-906.994Zm-7.894,0h-3.947a.529.529,0,0,1-.529-.529.529.529,0,0,1,.529-.53h3.947a.529.529,0,0,1,.529.53A.529.529,0,0,1-624.666-906.994Zm-7.893,0h-3.947a.529.529,0,0,1-.529-.529.529.529,0,0,1,.529-.53h3.947a.529.529,0,0,1,.529.53A.529.529,0,0,1-632.559-906.994Zm-7.894,0H-644.4a.529.529,0,0,1-.529-.529.529.529,0,0,1,.529-.53h3.947a.529.529,0,0,1,.529.53A.529.529,0,0,1-640.453-906.994Z" fill="#f1d54e"/>
          </g>
          <g id="Group_96922" data-name="Group 96922">
            <path id="Path_140582" data-name="Path 140582" d="M-648.346-906.994h-2.117a.529.529,0,0,1-.529-.529.529.529,0,0,1,.529-.53h2.117a.529.529,0,0,1,.529.53A.529.529,0,0,1-648.346-906.994Z" fill="#f1d54e"/>
          </g>
        </g>
        <g id="Group_96924" data-name="Group 96924">
          <path id="Path_140583" data-name="Path 140583" d="M-615.029-830.164H-767.17a.529.529,0,0,1-.53-.529v-48.83a28.563,28.563,0,0,1,28.53-28.53h83.49a.529.529,0,0,1,.529.53.529.529,0,0,1-.529.529h-83.49a27.5,27.5,0,0,0-27.471,27.471v48.3h151.612a27.5,27.5,0,0,0,27.472-27.471v-23.328a.529.529,0,0,1,.529-.529.529.529,0,0,1,.529.529v23.328A28.561,28.561,0,0,1-615.029-830.164Z" fill="#f1d54e"/>
        </g>
      </g>
      <g id="Group_96933" data-name="Group 96933">
        <path id="Path_140584" data-name="Path 140584" d="M-523.038-903.289h147.907v44.6A23.765,23.765,0,0,1-398.9-834.927H-546.8v-44.6a23.766,23.766,0,0,1,23.767-23.766" fill="#f1d54e"/>
        <g id="Group_96931" data-name="Group 96931">
          <g id="Group_96926" data-name="Group 96926">
            <path id="Path_140585" data-name="Path 140585" d="M-370.9-885.744a.529.529,0,0,1-.53-.529v-2.117a.53.53,0,0,1,.53-.53.529.529,0,0,1,.529.53v2.117A.529.529,0,0,1-370.9-885.744Z" fill="#f1d54e"/>
          </g>
          <g id="Group_96927" data-name="Group 96927">
            <path id="Path_140586" data-name="Path 140586" d="M-370.9-891.264a.53.53,0,0,1-.53-.53v-3.4a.529.529,0,0,1,.53-.529.529.529,0,0,1,.529.529v3.4A.529.529,0,0,1-370.9-891.264Zm0-6.807a.529.529,0,0,1-.53-.529V-902a.529.529,0,0,1,.53-.529.529.529,0,0,1,.529.529v3.4A.529.529,0,0,1-370.9-898.071Z" fill="#f1d54e"/>
          </g>
          <g id="Group_96928" data-name="Group 96928">
            <path id="Path_140587" data-name="Path 140587" d="M-370.9-904.877a.529.529,0,0,1-.53-.529v-1.588h-1.587a.529.529,0,0,1-.53-.529.53.53,0,0,1,.53-.53h2.117a.529.529,0,0,1,.529.53v2.117A.529.529,0,0,1-370.9-904.877Z" fill="#f1d54e"/>
          </g>
          <g id="Group_96929" data-name="Group 96929">
            <path id="Path_140588" data-name="Path 140588" d="M-376.96-906.994h-3.947a.529.529,0,0,1-.529-.529.529.529,0,0,1,.529-.53h3.947a.529.529,0,0,1,.529.53A.529.529,0,0,1-376.96-906.994Zm-7.894,0H-388.8a.529.529,0,0,1-.529-.529.529.529,0,0,1,.529-.53h3.947a.529.529,0,0,1,.529.53A.529.529,0,0,1-384.854-906.994Zm-7.893,0h-3.947a.529.529,0,0,1-.529-.529.529.529,0,0,1,.529-.53h3.947a.529.529,0,0,1,.529.53A.529.529,0,0,1-392.747-906.994Zm-7.894,0h-3.947a.529.529,0,0,1-.529-.529.529.529,0,0,1,.529-.53h3.947a.53.53,0,0,1,.53.53A.529.529,0,0,1-400.641-906.994Zm-7.893,0h-3.947a.529.529,0,0,1-.529-.529.529.529,0,0,1,.529-.53h3.947a.529.529,0,0,1,.529.53A.529.529,0,0,1-408.534-906.994Zm-7.894,0h-3.946a.529.529,0,0,1-.53-.529.53.53,0,0,1,.53-.53h3.946a.53.53,0,0,1,.53.53A.529.529,0,0,1-416.428-906.994Zm-7.893,0h-3.947a.529.529,0,0,1-.529-.529.529.529,0,0,1,.529-.53h3.947a.529.529,0,0,1,.529.53A.529.529,0,0,1-424.321-906.994Z" fill="#f1d54e"/>
          </g>
          <g id="Group_96930" data-name="Group 96930">
            <path id="Path_140589" data-name="Path 140589" d="M-432.214-906.994h-2.117a.529.529,0,0,1-.53-.529.53.53,0,0,1,.53-.53h2.117a.529.529,0,0,1,.529.53A.529.529,0,0,1-432.214-906.994Z" fill="#f1d54e"/>
          </g>
        </g>
        <g id="Group_96932" data-name="Group 96932">
          <path id="Path_140590" data-name="Path 140590" d="M-398.9-830.164H-551.039a.529.529,0,0,1-.529-.529v-48.83a28.563,28.563,0,0,1,28.53-28.53h83.489a.53.53,0,0,1,.53.53.529.529,0,0,1-.53.529h-83.489a27.5,27.5,0,0,0-27.471,27.471v48.3H-398.9a27.5,27.5,0,0,0,27.471-27.471v-23.328a.529.529,0,0,1,.53-.529.529.529,0,0,1,.529.529v23.328A28.562,28.562,0,0,1-398.9-830.164Z" fill="#f1d54e"/>
        </g>
      </g>
      <g id="Group_96941" data-name="Group 96941">
        <path id="Path_140591" data-name="Path 140591" d="M-300.546-903.289h147.907v44.6A23.765,23.765,0,0,1-176.4-834.927H-324.313v-44.6a23.766,23.766,0,0,1,23.767-23.766" fill="#f1d54e"/>
        <g id="Group_96939" data-name="Group 96939">
          <g id="Group_96934" data-name="Group 96934">
            <path id="Path_140592" data-name="Path 140592" d="M-148.4-885.744a.529.529,0,0,1-.529-.529v-2.117a.529.529,0,0,1,.529-.53.53.53,0,0,1,.53.53v2.117A.529.529,0,0,1-148.4-885.744Z" fill="#f1d54e"/>
          </g>
          <g id="Group_96935" data-name="Group 96935">
            <path id="Path_140593" data-name="Path 140593" d="M-148.4-891.264a.529.529,0,0,1-.529-.53v-3.4a.529.529,0,0,1,.529-.529.529.529,0,0,1,.53.529v3.4A.53.53,0,0,1-148.4-891.264Zm0-6.807a.529.529,0,0,1-.529-.529V-902a.529.529,0,0,1,.529-.529.529.529,0,0,1,.53.529v3.4A.529.529,0,0,1-148.4-898.071Z" fill="#f1d54e"/>
          </g>
          <g id="Group_96936" data-name="Group 96936">
            <path id="Path_140594" data-name="Path 140594" d="M-148.4-904.877a.529.529,0,0,1-.529-.529v-1.588h-1.588a.529.529,0,0,1-.529-.529.529.529,0,0,1,.529-.53h2.117a.53.53,0,0,1,.53.53v2.117A.529.529,0,0,1-148.4-904.877Z" fill="#f1d54e"/>
          </g>
          <g id="Group_96937" data-name="Group 96937">
            <path id="Path_140595" data-name="Path 140595" d="M-154.469-906.994h-3.946a.529.529,0,0,1-.529-.529.529.529,0,0,1,.529-.53h3.946a.53.53,0,0,1,.53.53A.529.529,0,0,1-154.469-906.994Zm-7.893,0h-3.947a.529.529,0,0,1-.529-.529.529.529,0,0,1,.529-.53h3.947a.529.529,0,0,1,.529.53A.529.529,0,0,1-162.362-906.994Zm-7.894,0H-174.2a.529.529,0,0,1-.529-.529.529.529,0,0,1,.529-.53h3.946a.53.53,0,0,1,.53.53A.529.529,0,0,1-170.256-906.994Zm-7.893,0H-182.1a.529.529,0,0,1-.529-.529.529.529,0,0,1,.529-.53h3.947a.529.529,0,0,1,.529.53A.529.529,0,0,1-178.149-906.994Zm-7.893,0h-3.947a.529.529,0,0,1-.529-.529.529.529,0,0,1,.529-.53h3.947a.529.529,0,0,1,.529.53A.529.529,0,0,1-186.042-906.994Zm-7.894,0h-3.946a.529.529,0,0,1-.53-.529.53.53,0,0,1,.53-.53h3.946a.529.529,0,0,1,.529.53A.529.529,0,0,1-193.936-906.994Zm-7.893,0h-3.947a.529.529,0,0,1-.529-.529.529.529,0,0,1,.529-.53h3.947a.529.529,0,0,1,.529.53A.529.529,0,0,1-201.829-906.994Z" fill="#f1d54e"/>
          </g>
          <g id="Group_96938" data-name="Group 96938">
            <path id="Path_140596" data-name="Path 140596" d="M-209.723-906.994h-2.117a.529.529,0,0,1-.529-.529.529.529,0,0,1,.529-.53h2.117a.53.53,0,0,1,.53.53A.529.529,0,0,1-209.723-906.994Z" fill="#f1d54e"/>
          </g>
        </g>
        <g id="Group_96940" data-name="Group 96940">
          <path id="Path_140597" data-name="Path 140597" d="M-176.4-830.164H-328.547a.529.529,0,0,1-.529-.529v-48.83a28.562,28.562,0,0,1,28.53-28.53h83.489a.53.53,0,0,1,.53.53.529.529,0,0,1-.53.529h-83.489a27.5,27.5,0,0,0-27.472,27.471v48.3H-176.4a27.5,27.5,0,0,0,27.471-27.471v-23.328a.529.529,0,0,1,.529-.529.529.529,0,0,1,.53.529v23.328A28.562,28.562,0,0,1-176.4-830.164Z" fill="#f1d54e"/>
        </g>
      </g>
      <g id="Group_96949" data-name="Group 96949">
        <path id="Path_140598" data-name="Path 140598" d="M-759.181-1033.96h187.932v22.583a23.765,23.765,0,0,1-23.766,23.766H-782.948v-24.583c0-13.126,10.641-21.766,23.767-21.766" fill="#f1d54e"/>
        <g id="Group_96947" data-name="Group 96947">
          <g id="Group_96942" data-name="Group 96942">
            <path id="Path_140599" data-name="Path 140599" d="M-567.014-1016.414a.53.53,0,0,1-.53-.53v-2.117a.529.529,0,0,1,.53-.529.529.529,0,0,1,.529.529v2.117A.529.529,0,0,1-567.014-1016.414Z" fill="#f1d54e"/>
          </g>
          <g id="Group_96943" data-name="Group 96943">
            <path id="Path_140600" data-name="Path 140600" d="M-567.014-1021.935a.529.529,0,0,1-.53-.529v-3.4a.529.529,0,0,1,.53-.529.529.529,0,0,1,.529.529v3.4A.529.529,0,0,1-567.014-1021.935Zm0-6.806a.529.529,0,0,1-.53-.529v-3.4a.529.529,0,0,1,.53-.529.529.529,0,0,1,.529.529v3.4A.529.529,0,0,1-567.014-1028.741Z" fill="#f1d54e"/>
          </g>
          <g id="Group_96944" data-name="Group 96944">
            <path id="Path_140601" data-name="Path 140601" d="M-567.014-1035.548a.529.529,0,0,1-.53-.529v-1.588h-1.587a.529.529,0,0,1-.53-.529.529.529,0,0,1,.53-.529h2.117a.529.529,0,0,1,.529.529v2.117A.529.529,0,0,1-567.014-1035.548Z" fill="#f1d54e"/>
          </g>
          <g id="Group_96945" data-name="Group 96945">
            <path id="Path_140602" data-name="Path 140602" d="M-573.078-1037.665h-3.947a.529.529,0,0,1-.529-.529.529.529,0,0,1,.529-.529h3.947a.529.529,0,0,1,.529.529A.529.529,0,0,1-573.078-1037.665Zm-7.894,0h-3.947a.529.529,0,0,1-.529-.529.529.529,0,0,1,.529-.529h3.947a.529.529,0,0,1,.53.529A.529.529,0,0,1-580.972-1037.665Zm-7.893,0h-3.947a.529.529,0,0,1-.529-.529.529.529,0,0,1,.529-.529h3.947a.529.529,0,0,1,.529.529A.529.529,0,0,1-588.865-1037.665Zm-7.894,0h-3.947a.529.529,0,0,1-.529-.529.529.529,0,0,1,.529-.529h3.947a.529.529,0,0,1,.53.529A.529.529,0,0,1-596.759-1037.665Zm-7.893,0H-608.6a.529.529,0,0,1-.529-.529.529.529,0,0,1,.529-.529h3.947a.529.529,0,0,1,.529.529A.529.529,0,0,1-604.652-1037.665Zm-7.894,0h-3.946a.529.529,0,0,1-.53-.529.529.529,0,0,1,.53-.529h3.946a.529.529,0,0,1,.53.529A.529.529,0,0,1-612.546-1037.665Zm-7.893,0h-3.947a.529.529,0,0,1-.529-.529.529.529,0,0,1,.529-.529h3.947a.529.529,0,0,1,.529.529A.529.529,0,0,1-620.439-1037.665Z" fill="#f1d54e"/>
          </g>
          <g id="Group_96946" data-name="Group 96946">
            <path id="Path_140603" data-name="Path 140603" d="M-628.332-1037.665h-2.117a.529.529,0,0,1-.53-.529.529.529,0,0,1,.53-.529h2.117a.529.529,0,0,1,.529.529A.529.529,0,0,1-628.332-1037.665Z" fill="#f1d54e"/>
          </g>
        </g>
        <g id="Group_96948" data-name="Group 96948">
          <path id="Path_140604" data-name="Path 140604" d="M-595.015-982.848H-787.182a.529.529,0,0,1-.529-.529v-28.817c0-15.732,12.8-26.529,28.53-26.529h123.515a.529.529,0,0,1,.529.529.529.529,0,0,1-.529.529H-759.181c-15.148,0-27.472,10.323-27.472,25.471v28.288h191.638a27.5,27.5,0,0,0,27.471-27.471v-1.314a.529.529,0,0,1,.53-.529.529.529,0,0,1,.529.529v1.314A28.562,28.562,0,0,1-595.015-982.848Z" fill="#f1d54e"/>
        </g>
      </g>
      <text id="Tipos_de_empresa" data-name="Tipos de empresa" transform="translate(-677.098 -1004.941)" fill="#12263f" font-size="20" font-family="Roboto-Bold, Roboto" font-weight="700"><tspan x="-80.439" y="0">Tipos de empresa</tspan></text>
      <text id="Según" transform="translate(-677.099 -934.874)" fill="#12263f" font-size="18" font-family="Roboto-Regular, Roboto"><tspan x="-25.084" y="0">Según</tspan></text>
      <text id="Local" transform="translate(-704.15 -780.025)" fill="#12263f" font-size="17" font-family="Roboto-Regular, Roboto"><tspan x="-20.557" y="0">Local</tspan></text>
      <text id="Regional" transform="translate(-691.914 -740.786)" fill="#12263f" font-size="17" font-family="Roboto-Regular, Roboto"><tspan x="-32.792" y="0">Regional</tspan></text>
      <text id="Nacional" transform="translate(-691.287 -701.546)" fill="#12263f" font-size="17" font-family="Roboto-Regular, Roboto"><tspan x="-33.419" y="0">Nacional</tspan></text>
      <text id="Multinacional" transform="translate(-673.648 -662.306)" fill="#12263f" font-size="17" font-family="Roboto-Regular, Roboto"><tspan x="-51.058" y="0">Multinacional</tspan></text>
      <text id="Societarias" transform="translate(-466.324 -780.025)" fill="#12263f" font-size="17" font-family="Roboto-Regular, Roboto"><tspan x="-42.251" y="0">Societarias</tspan></text>
      <text id="Autónomas" transform="translate(-464.855 -740.786)" fill="#12263f" font-size="17" font-family="Roboto-Regular, Roboto"><tspan x="-43.72" y="0">Autónomas</tspan></text>
      <text id="Microempresa" transform="translate(-231.48 -780.025)" fill="#12263f" font-size="17" font-family="Roboto-Regular, Roboto"><tspan x="-54.603" y="0">Microempresa</tspan></text>
      <text id="Pequeña" transform="translate(-252.938 -740.786)" fill="#12263f" font-size="17" font-family="Roboto-Regular, Roboto"><tspan x="-33.145" y="0">Pequeña</tspan></text>
      <text id="Mediana" transform="translate(-253.365 -701.546)" fill="#12263f" font-size="17" font-family="Roboto-Regular, Roboto"><tspan x="-32.718" y="0">Mediana</tspan></text>
      <text id="Gran_empresa" data-name="Gran empresa" transform="translate(-233.136 -662.306)" fill="#12263f" font-size="17" font-family="Roboto-Regular, Roboto"><tspan x="-52.947" y="0">Gran empresa</tspan></text>
      <rect id="Rectangle_32903" data-name="Rectangle 32903" width="27.056" height="1.906" transform="translate(-676.146 -982.848) rotate(90)" fill="#f1d54e"/>
      <rect id="Rectangle_32904" data-name="Rectangle 32904" width="19.855" height="1.906" transform="translate(-676.147 -922.1) rotate(90)" fill="#f1d54e"/>
      <rect id="Rectangle_32905" data-name="Rectangle 32905" width="38.842" height="1.906" transform="translate(-904.998 -941.087) rotate(90)" fill="#f1d54e"/>
      <rect id="Rectangle_32906" data-name="Rectangle 32906" width="38.842" height="1.906" transform="translate(-460.015 -941.087) rotate(90)" fill="#f1d54e"/>
      <rect id="Rectangle_32907" data-name="Rectangle 32907" width="38.842" height="1.906" transform="translate(-237.523 -941.087) rotate(90)" fill="#f1d54e"/>
      <rect id="Rectangle_32908" data-name="Rectangle 32908" width="38.842" height="1.906" transform="translate(-1127.49 -941.086) rotate(90)" fill="#f1d54e"/>
      <rect id="Rectangle_32909" data-name="Rectangle 32909" width="415.794" height="1.906" transform="translate(-1129.396 -941.087)" fill="#f1d54e"/>
      <rect id="Rectangle_32910" data-name="Rectangle 32910" width="403.073" height="1.906" transform="translate(-640.596 -941.087)" fill="#f1d54e"/>
      <g id="Group_96950" data-name="Group 96950">
        <circle id="Ellipse_4523" data-name="Ellipse 4523" cx="5.789" cy="5.789" r="5.789" transform="translate(-682.887 -988.637)" fill="#f1d54e"/>
        <circle id="Ellipse_4524" data-name="Ellipse 4524" cx="4.688" cy="4.688" r="4.688" transform="translate(-681.786 -987.536)" fill="#fff"/>
        <circle id="Ellipse_4525" data-name="Ellipse 4525" cx="2.955" cy="2.955" r="2.955" transform="translate(-680.053 -985.802)" fill="#f1d54e"/>
      </g>
      <g id="Group_96951" data-name="Group 96951">
        <circle id="Ellipse_4526" data-name="Ellipse 4526" cx="5.789" cy="5.789" r="5.789" transform="translate(-682.887 -913.841)" fill="#f1d54e"/>
        <circle id="Ellipse_4527" data-name="Ellipse 4527" cx="4.688" cy="4.688" r="4.688" transform="translate(-681.786 -912.741)" fill="#fff"/>
        <circle id="Ellipse_4528" data-name="Ellipse 4528" cx="2.955" cy="2.955" r="2.955" transform="translate(-680.053 -911.007)" fill="#f1d54e"/>
      </g>
      <g id="Group_96952" data-name="Group 96952">
        <circle id="Ellipse_4529" data-name="Ellipse 4529" cx="5.789" cy="5.789" r="5.789" transform="translate(-466.756 -913.841)" fill="#f1d54e"/>
        <circle id="Ellipse_4530" data-name="Ellipse 4530" cx="4.688" cy="4.688" r="4.688" transform="translate(-465.656 -912.741)" fill="#fff"/>
        <circle id="Ellipse_4531" data-name="Ellipse 4531" cx="2.955" cy="2.955" r="2.955" transform="translate(-463.922 -911.007)" fill="#f1d54e"/>
      </g>
      <g id="Group_96953" data-name="Group 96953">
        <circle id="Ellipse_4532" data-name="Ellipse 4532" cx="5.789" cy="5.789" r="5.789" transform="translate(-244.265 -913.841)" fill="#f1d54e"/>
        <circle id="Ellipse_4533" data-name="Ellipse 4533" cx="4.688" cy="4.688" r="4.688" transform="translate(-243.164 -912.741)" fill="#fff"/>
        <circle id="Ellipse_4534" data-name="Ellipse 4534" cx="2.955" cy="2.955" r="2.955" transform="translate(-241.43 -911.007)" fill="#f1d54e"/>
      </g>
      <g id="Group_96954" data-name="Group 96954">
        <circle id="Ellipse_4535" data-name="Ellipse 4535" cx="5.789" cy="5.789" r="5.789" transform="translate(-911.74 -913.841)" fill="#f1d54e"/>
        <circle id="Ellipse_4536" data-name="Ellipse 4536" cx="4.688" cy="4.688" r="4.688" transform="translate(-910.639 -912.741)" fill="#fff"/>
        <circle id="Ellipse_4537" data-name="Ellipse 4537" cx="2.955" cy="2.955" r="2.955" transform="translate(-908.906 -911.007)" fill="#f1d54e"/>
      </g>
      <g id="Group_96955" data-name="Group 96955">
        <circle id="Ellipse_4538" data-name="Ellipse 4538" cx="5.789" cy="5.789" r="5.789" transform="translate(-1134.232 -913.841)" fill="#f1d54e"/>
        <circle id="Ellipse_4539" data-name="Ellipse 4539" cx="4.688" cy="4.688" r="4.688" transform="translate(-1133.131 -912.741)" fill="#fff"/>
        <circle id="Ellipse_4540" data-name="Ellipse 4540" cx="2.955" cy="2.955" r="2.955" transform="translate(-1131.398 -911.007)" fill="#f1d54e"/>
      </g>
      <text id="Sector_económico" data-name="Sector
económico" transform="translate(-1128.443 -875.31)" fill="#12263f" font-size="20.151" font-family="Roboto-Bold, Roboto" font-weight="700"><tspan x="-29.524" y="0">Sector</tspan><tspan x="-50.083" y="24.182">económico</tspan></text>
      <text id="Control_de_recursos" data-name="Control
de recursos" transform="translate(-905.952 -875.263)" fill="#12263f" font-size="20" font-family="Roboto-Bold, Roboto" font-weight="700"><tspan x="-32.954" y="0">Control</tspan><tspan x="-52.886" y="24">de recursos</tspan></text>
      <text id="Esfera_territorial" data-name="Esfera
territorial" transform="translate(-677.099 -875.263)" fill="#12263f" font-size="20" font-family="Roboto-Bold, Roboto" font-weight="700"><tspan x="-28.501" y="0">Esfera</tspan><tspan x="-41.929" y="24">territorial</tspan></text>
      <text id="Constitución_jurídica" data-name="Constitución
jurídica" transform="translate(-460.967 -875.263)" fill="#12263f" font-size="20" font-family="Roboto-Bold, Roboto" font-weight="700"><tspan x="-57.065" y="0">Constitución</tspan><tspan x="-33.442" y="24">jurídica</tspan></text>
      <text id="Tamaño" transform="translate(-238.476 -863.263)" fill="#12263f" font-size="20" font-family="Roboto-Bold, Roboto" font-weight="700"><tspan x="-36.001" y="0">Tamaño</tspan></text>
      <rect id="Rectangle_32911" data-name="Rectangle 32911" width="124.606" height="1.906" transform="translate(-967.772 -830.95) rotate(90)" fill="#f1d54e"/>
      <g id="Group_96956" data-name="Group 96956">
        <circle id="Ellipse_4541" data-name="Ellipse 4541" cx="5.789" cy="5.789" r="5.789" transform="translate(-974.514 -791.074)" fill="#f1d54e"/>
        <circle id="Ellipse_4542" data-name="Ellipse 4542" cx="4.688" cy="4.688" r="4.688" transform="translate(-973.413 -789.974)" fill="#fff"/>
        <circle id="Ellipse_4543" data-name="Ellipse 4543" cx="2.955" cy="2.955" r="2.955" transform="translate(-971.68 -788.24)" fill="#f1d54e"/>
      </g>
      <g id="Group_96957" data-name="Group 96957">
        <circle id="Ellipse_4544" data-name="Ellipse 4544" cx="5.789" cy="5.789" r="5.789" transform="translate(-974.514 -835.952)" fill="#f1d54e"/>
        <circle id="Ellipse_4545" data-name="Ellipse 4545" cx="4.688" cy="4.688" r="4.688" transform="translate(-973.413 -834.852)" fill="#fff"/>
        <circle id="Ellipse_4546" data-name="Ellipse 4546" cx="2.955" cy="2.955" r="2.955" transform="translate(-971.68 -833.118)" fill="#f1d54e"/>
      </g>
      <g id="Group_96958" data-name="Group 96958">
        <circle id="Ellipse_4547" data-name="Ellipse 4547" cx="5.789" cy="5.789" r="5.789" transform="translate(-974.514 -751.372)" fill="#f1d54e"/>
        <circle id="Ellipse_4548" data-name="Ellipse 4548" cx="4.688" cy="4.688" r="4.688" transform="translate(-973.413 -750.272)" fill="#fff"/>
        <circle id="Ellipse_4549" data-name="Ellipse 4549" cx="2.955" cy="2.955" r="2.955" transform="translate(-971.68 -748.538)" fill="#f1d54e"/>
      </g>
      <g id="Group_96959" data-name="Group 96959">
        <circle id="Ellipse_4550" data-name="Ellipse 4550" cx="5.789" cy="5.789" r="5.789" transform="translate(-974.514 -712.133)" fill="#f1d54e"/>
        <circle id="Ellipse_4551" data-name="Ellipse 4551" cx="4.688" cy="4.688" r="4.688" transform="translate(-973.413 -711.032)" fill="#fff"/>
        <circle id="Ellipse_4552" data-name="Ellipse 4552" cx="2.955" cy="2.955" r="2.955" transform="translate(-971.68 -709.299)" fill="#f1d54e"/>
      </g>
      <rect id="Rectangle_32912" data-name="Rectangle 32912" width="163.676" height="1.906" transform="translate(-300.295 -830.95) rotate(90)" fill="#f1d54e"/>
      <g id="Group_96960" data-name="Group 96960">
        <circle id="Ellipse_4553" data-name="Ellipse 4553" cx="5.789" cy="5.789" r="5.789" transform="translate(-307.038 -791.074)" fill="#f1d54e"/>
        <circle id="Ellipse_4554" data-name="Ellipse 4554" cx="4.688" cy="4.688" r="4.688" transform="translate(-305.937 -789.974)" fill="#fff"/>
        <circle id="Ellipse_4555" data-name="Ellipse 4555" cx="2.955" cy="2.955" r="2.955" transform="translate(-304.204 -788.24)" fill="#f1d54e"/>
      </g>
      <g id="Group_96961" data-name="Group 96961">
        <circle id="Ellipse_4556" data-name="Ellipse 4556" cx="5.789" cy="5.789" r="5.789" transform="translate(-307.038 -835.952)" fill="#f1d54e"/>
        <circle id="Ellipse_4557" data-name="Ellipse 4557" cx="4.688" cy="4.688" r="4.688" transform="translate(-305.937 -834.852)" fill="#fff"/>
        <circle id="Ellipse_4558" data-name="Ellipse 4558" cx="2.955" cy="2.955" r="2.955" transform="translate(-304.204 -833.118)" fill="#f1d54e"/>
      </g>
      <g id="Group_96962" data-name="Group 96962">
        <circle id="Ellipse_4559" data-name="Ellipse 4559" cx="5.789" cy="5.789" r="5.789" transform="translate(-307.038 -751.372)" fill="#f1d54e"/>
        <circle id="Ellipse_4560" data-name="Ellipse 4560" cx="4.688" cy="4.688" r="4.688" transform="translate(-305.937 -750.272)" fill="#fff"/>
        <circle id="Ellipse_4561" data-name="Ellipse 4561" cx="2.955" cy="2.955" r="2.955" transform="translate(-304.204 -748.538)" fill="#f1d54e"/>
      </g>
      <g id="Group_96963" data-name="Group 96963">
        <circle id="Ellipse_4562" data-name="Ellipse 4562" cx="5.789" cy="5.789" r="5.789" transform="translate(-307.038 -712.133)" fill="#f1d54e"/>
        <circle id="Ellipse_4563" data-name="Ellipse 4563" cx="4.688" cy="4.688" r="4.688" transform="translate(-305.937 -711.032)" fill="#fff"/>
        <circle id="Ellipse_4564" data-name="Ellipse 4564" cx="2.955" cy="2.955" r="2.955" transform="translate(-304.204 -709.299)" fill="#f1d54e"/>
      </g>
      <g id="Group_96964" data-name="Group 96964">
        <circle id="Ellipse_4565" data-name="Ellipse 4565" cx="5.789" cy="5.789" r="5.789" transform="translate(-307.038 -673.063)" fill="#f1d54e"/>
        <circle id="Ellipse_4566" data-name="Ellipse 4566" cx="4.688" cy="4.688" r="4.688" transform="translate(-305.937 -671.962)" fill="#fff"/>
        <circle id="Ellipse_4567" data-name="Ellipse 4567" cx="2.955" cy="2.955" r="2.955" transform="translate(-304.204 -670.229)" fill="#f1d54e"/>
      </g>
      <rect id="Rectangle_32913" data-name="Rectangle 32913" width="85.367" height="1.906" transform="translate(-522.789 -830.95) rotate(90)" fill="#f1d54e"/>
      <g id="Group_96965" data-name="Group 96965">
        <circle id="Ellipse_4568" data-name="Ellipse 4568" cx="5.789" cy="5.789" r="5.789" transform="translate(-529.53 -791.074)" fill="#f1d54e"/>
        <circle id="Ellipse_4569" data-name="Ellipse 4569" cx="4.688" cy="4.688" r="4.688" transform="translate(-528.429 -789.974)" fill="#fff"/>
        <circle id="Ellipse_4570" data-name="Ellipse 4570" cx="2.955" cy="2.955" r="2.955" transform="translate(-526.696 -788.24)" fill="#f1d54e"/>
      </g>
      <g id="Group_96966" data-name="Group 96966">
        <circle id="Ellipse_4571" data-name="Ellipse 4571" cx="5.789" cy="5.789" r="5.789" transform="translate(-529.53 -835.952)" fill="#f1d54e"/>
        <circle id="Ellipse_4572" data-name="Ellipse 4572" cx="4.688" cy="4.688" r="4.688" transform="translate(-528.429 -834.852)" fill="#fff"/>
        <circle id="Ellipse_4573" data-name="Ellipse 4573" cx="2.955" cy="2.955" r="2.955" transform="translate(-526.696 -833.118)" fill="#f1d54e"/>
      </g>
      <g id="Group_96967" data-name="Group 96967">
        <circle id="Ellipse_4574" data-name="Ellipse 4574" cx="5.789" cy="5.789" r="5.789" transform="translate(-529.53 -751.372)" fill="#f1d54e"/>
        <circle id="Ellipse_4575" data-name="Ellipse 4575" cx="4.688" cy="4.688" r="4.688" transform="translate(-528.429 -750.272)" fill="#fff"/>
        <circle id="Ellipse_4576" data-name="Ellipse 4576" cx="2.955" cy="2.955" r="2.955" transform="translate(-526.696 -748.538)" fill="#f1d54e"/>
      </g>
      <rect id="Rectangle_32914" data-name="Rectangle 32914" width="163.676" height="1.906" transform="translate(-738.919 -830.95) rotate(90)" fill="#f1d54e"/>
      <g id="Group_96968" data-name="Group 96968">
        <circle id="Ellipse_4577" data-name="Ellipse 4577" cx="5.789" cy="5.789" r="5.789" transform="translate(-745.662 -791.074)" fill="#f1d54e"/>
        <circle id="Ellipse_4578" data-name="Ellipse 4578" cx="4.688" cy="4.688" r="4.688" transform="translate(-744.561 -789.974)" fill="#fff"/>
        <circle id="Ellipse_4579" data-name="Ellipse 4579" cx="2.955" cy="2.955" r="2.955" transform="translate(-742.828 -788.24)" fill="#f1d54e"/>
      </g>
      <g id="Group_96969" data-name="Group 96969">
        <circle id="Ellipse_4580" data-name="Ellipse 4580" cx="5.789" cy="5.789" r="5.789" transform="translate(-745.662 -835.952)" fill="#f1d54e"/>
        <circle id="Ellipse_4581" data-name="Ellipse 4581" cx="4.688" cy="4.688" r="4.688" transform="translate(-744.561 -834.852)" fill="#fff"/>
        <circle id="Ellipse_4582" data-name="Ellipse 4582" cx="2.955" cy="2.955" r="2.955" transform="translate(-742.828 -833.118)" fill="#f1d54e"/>
      </g>
      <g id="Group_96970" data-name="Group 96970">
        <circle id="Ellipse_4583" data-name="Ellipse 4583" cx="5.789" cy="5.789" r="5.789" transform="translate(-745.662 -751.372)" fill="#f1d54e"/>
        <circle id="Ellipse_4584" data-name="Ellipse 4584" cx="4.688" cy="4.688" r="4.688" transform="translate(-744.561 -750.272)" fill="#fff"/>
        <circle id="Ellipse_4585" data-name="Ellipse 4585" cx="2.955" cy="2.955" r="2.955" transform="translate(-742.828 -748.538)" fill="#f1d54e"/>
      </g>
      <g id="Group_96971" data-name="Group 96971">
        <circle id="Ellipse_4586" data-name="Ellipse 4586" cx="5.789" cy="5.789" r="5.789" transform="translate(-745.662 -712.133)" fill="#f1d54e"/>
        <circle id="Ellipse_4587" data-name="Ellipse 4587" cx="4.688" cy="4.688" r="4.688" transform="translate(-744.561 -711.032)" fill="#fff"/>
        <circle id="Ellipse_4588" data-name="Ellipse 4588" cx="2.955" cy="2.955" r="2.955" transform="translate(-742.828 -709.299)" fill="#f1d54e"/>
      </g>
      <g id="Group_96972" data-name="Group 96972">
        <circle id="Ellipse_4589" data-name="Ellipse 4589" cx="5.789" cy="5.789" r="5.789" transform="translate(-745.662 -673.063)" fill="#f1d54e"/>
        <circle id="Ellipse_4590" data-name="Ellipse 4590" cx="4.688" cy="4.688" r="4.688" transform="translate(-744.561 -671.962)" fill="#fff"/>
        <circle id="Ellipse_4591" data-name="Ellipse 4591" cx="2.955" cy="2.955" r="2.955" transform="translate(-742.828 -670.229)" fill="#f1d54e"/>
      </g>
      <g id="Group_96977" data-name="Group 96977">
        <rect id="Rectangle_32915" data-name="Rectangle 32915" width="124.606" height="1.906" transform="translate(-1200.915 -830.95) rotate(90)" fill="#f1d54e"/>
        <g id="Group_96973" data-name="Group 96973">
          <circle id="Ellipse_4592" data-name="Ellipse 4592" cx="5.789" cy="5.789" r="5.789" transform="translate(-1207.657 -791.074)" fill="#f1d54e"/>
          <circle id="Ellipse_4593" data-name="Ellipse 4593" cx="4.688" cy="4.688" r="4.688" transform="translate(-1206.556 -789.974)" fill="#fff"/>
          <circle id="Ellipse_4594" data-name="Ellipse 4594" cx="2.955" cy="2.955" r="2.955" transform="translate(-1204.823 -788.24)" fill="#f1d54e"/>
        </g>
        <g id="Group_96974" data-name="Group 96974">
          <circle id="Ellipse_4595" data-name="Ellipse 4595" cx="5.789" cy="5.789" r="5.789" transform="translate(-1207.657 -835.952)" fill="#f1d54e"/>
          <circle id="Ellipse_4596" data-name="Ellipse 4596" cx="4.688" cy="4.688" r="4.688" transform="translate(-1206.556 -834.852)" fill="#fff"/>
          <circle id="Ellipse_4597" data-name="Ellipse 4597" cx="2.955" cy="2.955" r="2.955" transform="translate(-1204.823 -833.118)" fill="#f1d54e"/>
        </g>
        <g id="Group_96975" data-name="Group 96975">
          <circle id="Ellipse_4598" data-name="Ellipse 4598" cx="5.789" cy="5.789" r="5.789" transform="translate(-1207.657 -751.372)" fill="#f1d54e"/>
          <circle id="Ellipse_4599" data-name="Ellipse 4599" cx="4.688" cy="4.688" r="4.688" transform="translate(-1206.556 -750.272)" fill="#fff"/>
          <circle id="Ellipse_4600" data-name="Ellipse 4600" cx="2.955" cy="2.955" r="2.955" transform="translate(-1204.823 -748.538)" fill="#f1d54e"/>
        </g>
        <g id="Group_96976" data-name="Group 96976">
          <circle id="Ellipse_4601" data-name="Ellipse 4601" cx="5.789" cy="5.789" r="5.789" transform="translate(-1207.657 -712.133)" fill="#f1d54e"/>
          <circle id="Ellipse_4602" data-name="Ellipse 4602" cx="4.688" cy="4.688" r="4.688" transform="translate(-1206.556 -711.032)" fill="#fff"/>
          <circle id="Ellipse_4603" data-name="Ellipse 4603" cx="2.955" cy="2.955" r="2.955" transform="translate(-1204.823 -709.299)" fill="#f1d54e"/>
        </g>
        <text id="Sector_primario" data-name="Sector primario" transform="translate(-1128.617 -779.855)" fill="#12263f" font-size="17" font-family="Roboto-Regular, Roboto"><tspan x="-58.085" y="0">Sector primario</tspan></text>
        <text id="Sector_secundario" data-name="Sector secundario" transform="translate(-1117.661 -740.616)" fill="#12263f" font-size="17" font-family="Roboto-Regular, Roboto"><tspan x="-68.432" y="0">Sector secundario</tspan></text>
        <text id="Sector_terciario" data-name="Sector terciario" transform="translate(-1129.219 -701.376)" fill="#12263f" font-size="17" font-family="Roboto-Regular, Roboto"><tspan x="-57.516" y="0">Sector terciario</tspan></text>
      </g>
      <text id="Pública" transform="translate(-925.543 -779.855)" fill="#12263f" font-size="17" font-family="Roboto-Regular, Roboto"><tspan x="-28.015" y="0">Pública</tspan></text>
      <text id="Privada" transform="translate(-925.161 -740.323)" fill="#12263f" font-size="17" font-family="Roboto-Regular, Roboto"><tspan x="-28.397" y="0">Privada</tspan></text>
      <text id="Mixta" transform="translate(-932.462 -701.084)" fill="#12263f" font-size="17" font-family="Roboto-Regular, Roboto"><tspan x="-21.096" y="0">Mixta</tspan></text>
    </g>
  </g>
</svg>
