<svg xmlns="http://www.w3.org/2000/svg" width="80" height="79.999" viewBox="0 0 80 79.999">
  <g id="t1-i8" transform="translate(0 -0.003)">
    <path id="Path_105689" data-name="Path 105689" d="M230.44,115.062c.008.033.019.064.025.1C230.459,115.127,230.448,115.1,230.44,115.062Z" transform="translate(-192.033 -95.883)" fill="#d45b5b"/>
    <path id="Path_105690" data-name="Path 105690" d="M182.68,185.014l-6.68,10.5h5.333V187.13Z" transform="translate(-146.667 -154.176)" fill="#e4d9b3"/>
    <g id="Group_91657" data-name="Group 91657" transform="translate(38.137 18.258)">
      <path id="Path_105691" data-name="Path 105691" d="M231.48,120.774c.008.057.02.113.027.172C231.5,120.887,231.488,120.831,231.48,120.774Z" transform="translate(-231.037 -118.901)" fill="#d45b5b"/>
      <path id="Path_105692" data-name="Path 105692" d="M228.824,109.534l.007.019A.1.1,0,0,0,228.824,109.534Z" transform="translate(-228.824 -109.534)" fill="#d45b5b"/>
    </g>
    <path id="Path_105693" data-name="Path 105693" d="M26.779,384.962A5.729,5.729,0,0,0,23.6,384H18.667l2.667,6.667-2.667,2.667L16,390.665,18.667,384H13.737A5.738,5.738,0,0,0,8,389.735v8.929H29.333v-8.929A5.736,5.736,0,0,0,26.779,384.962Z" transform="translate(-6.667 -319.996)" fill="#d2f6e6"/>
    <path id="Path_105694" data-name="Path 105694" d="M40,316l-6.667-4C32,316,24,316,24,316c0,4.419,5.172,8,8,8S40,320.417,40,316Z" transform="translate(-20 -259.996)" fill="#fff"/>
    <path id="Path_105695" data-name="Path 105695" d="M33.333,285.331l6.667,4c0-4.419-1.333-9.333-8-9.333s-8,4.915-8,9.333C24,289.331,32,289.331,33.333,285.331Z" transform="translate(-20 -233.329)" fill="#d2f6e6"/>
    <path id="Path_105696" data-name="Path 105696" d="M58.667,393.331l2.667-2.667L58.667,384,56,390.665Z" transform="translate(-46.667 -319.996)" fill="#f1d54e"/>
    <path id="Path_105697" data-name="Path 105697" d="M194.779,384.962A5.729,5.729,0,0,0,191.6,384h-4.929l2.667,6.667-2.667,2.667L184,390.665,186.667,384h-4.929A5.738,5.738,0,0,0,176,389.735v8.929h21.333v-8.929A5.736,5.736,0,0,0,194.779,384.962Z" transform="translate(-146.667 -319.996)" fill="#d2f6e6"/>
    <path id="Path_105698" data-name="Path 105698" d="M208,316l-6.667-4C200,316,192,316,192,316c0,4.419,5.172,8,8,8S208,320.417,208,316Z" transform="translate(-160 -259.996)" fill="#fff"/>
    <path id="Path_105699" data-name="Path 105699" d="M201.333,285.331l6.667,4c0-4.419-1.333-9.333-8-9.333s-8,4.915-8,9.333C192,289.331,200,289.331,201.333,285.331Z" transform="translate(-160 -233.329)" fill="#d2f6e6"/>
    <path id="Path_105700" data-name="Path 105700" d="M226.667,393.331l2.667-2.667L226.667,384,224,390.665Z" transform="translate(-186.667 -319.996)" fill="#f1d54e"/>
    <g id="Group_91658" data-name="Group 91658" transform="translate(57.333 46.669)">
      <path id="Path_105701" data-name="Path 105701" d="M362.779,384.962A5.729,5.729,0,0,0,359.6,384h-4.929l2.667,6.667-2.667,2.667L352,390.665,354.667,384h-4.929A5.738,5.738,0,0,0,344,389.735v8.929h21.333v-8.929A5.736,5.736,0,0,0,362.779,384.962Z" transform="translate(-344 -366.665)" fill="#d2f6e6"/>
      <path id="Path_105702" data-name="Path 105702" d="M369.333,285.331l6.667,4c0-4.419-1.333-9.333-8-9.333s-8,4.915-8,9.333C360,289.331,368,289.331,369.333,285.331Z" transform="translate(-357.333 -279.998)" fill="#d2f6e6"/>
    </g>
    <path id="Path_105703" data-name="Path 105703" d="M376,316l-6.667-4C368,316,360,316,360,316c0,4.419,5.172,8,8,8S376,320.417,376,316Z" transform="translate(-300 -259.996)" fill="#fff"/>
    <path id="Path_105704" data-name="Path 105704" d="M394.667,393.331l2.667-2.667L394.667,384,392,390.665Z" transform="translate(-326.667 -319.996)" fill="#f1d54e"/>
    <g id="Group_91659" data-name="Group 91659" transform="translate(34.667 17.335)">
      <path id="Path_105705" data-name="Path 105705" d="M220,104h-8.909a9.318,9.318,0,0,1,.381.923l.007.019a9.355,9.355,0,0,1,.263.9c.008.033.017.064.025.1.063.28.111.565.148.855.008.057.02.113.027.172A9.753,9.753,0,0,1,212,108v.391a16.971,16.971,0,0,1-2.653,9.112L208,119.617V128h12V104Zm-9.333,20h0Zm0-4h0Zm4,4h0Zm0-4h0Zm0-4h0Zm0-4h0Zm0-4h0Z" transform="translate(-208 -103.998)" fill="#fff"/>
      <path id="Path_105706" data-name="Path 105706" d="M293.333,136H280v18.667h4V148h5.333v6.667h4Zm-12,8h0Zm0-4h0Zm4,4h0Zm0-4h0Zm4,4h0Zm0-4h0Z" transform="translate(-268 -130.665)" fill="#fff"/>
      <rect id="Rectangle_31711" data-name="Rectangle 31711" width="5.333" height="6.667" transform="translate(16 17.333)" fill="#fff"/>
    </g>
    <g id="Group_91660" data-name="Group 91660" transform="translate(20 12.002)">
      <path id="Path_105707" data-name="Path 105707" d="M138.667,81.721V81.33a9.089,9.089,0,0,0-.06-1.032c-.007-.059-.019-.115-.027-.172-.039-.288-.084-.575-.148-.855-.008-.033-.017-.064-.025-.1a9.351,9.351,0,0,0-.263-.9l-.007-.019a9.187,9.187,0,0,0-.381-.923h0A9.327,9.327,0,0,0,129.045,72,9.593,9.593,0,0,0,120,81.721a16.971,16.971,0,0,0,2.653,9.112l6.68,10.5,6.68-10.5A16.967,16.967,0,0,0,138.667,81.721Zm-9.333,3.609a4,4,0,1,1,4-4A4,4,0,0,1,129.333,85.33Z" transform="translate(-120 -71.996)" fill="#f1d54e"/>
      <path id="Path_105708" data-name="Path 105708" d="M228.864,109.646a9.35,9.35,0,0,1,.263.9A8.987,8.987,0,0,0,228.864,109.646Z" transform="translate(-210.72 -103.371)" fill="#f1d54e"/>
      <path id="Path_105709" data-name="Path 105709" d="M231.64,121.806a9.089,9.089,0,0,1,.06,1.032A9.407,9.407,0,0,0,231.64,121.806Z" transform="translate(-213.033 -113.504)" fill="#f1d54e"/>
      <path id="Path_105710" data-name="Path 105710" d="M226.917,104.921a9.187,9.187,0,0,0-.381-.923h0A9.452,9.452,0,0,1,226.917,104.921Z" transform="translate(-208.78 -98.664)" fill="#f1d54e"/>
      <path id="Path_105711" data-name="Path 105711" d="M230.592,115.646c.064.28.109.565.148.855C230.7,116.211,230.656,115.926,230.592,115.646Z" transform="translate(-212.16 -108.371)" fill="#f1d54e"/>
    </g>
    <circle id="Ellipse_4111" data-name="Ellipse 4111" cx="4" cy="4" r="4" transform="translate(25.333 17.335)" fill="#e4d9b3"/>
    <g id="Group_91661" data-name="Group 91661" transform="translate(0 0.003)">
      <path id="Path_105712" data-name="Path 105712" d="M20.852,290.519a7.016,7.016,0,0,0-3.033-1.123,9.258,9.258,0,0,0,3.515-6.732C21.333,273.849,16.257,272,12,272s-9.333,1.851-9.333,10.667A9.255,9.255,0,0,0,6.183,289.4,7.047,7.047,0,0,0,0,296.4v8.929a1.332,1.332,0,0,0,1.333,1.333H22.667A1.332,1.332,0,0,0,24,305.331V296.4A7.054,7.054,0,0,0,20.852,290.519ZM12,294.254l1.1,2.755-1.1,1.1-1.1-1.1ZM5.519,283.929c2.283-.188,6.4-.879,8.32-3.407l4.765,2.86c-.535,3.265-4.557,5.949-6.6,5.949C10.068,289.331,6.379,286.942,5.519,283.929ZM12,274.665c3.784,0,5.863,1.789,6.463,5.523l-4.443-2.665a1.334,1.334,0,0,0-1.951.721c-.675,2.024-4.317,2.789-6.661,3.012C5.764,276.785,7.872,274.665,12,274.665ZM21.333,304H2.667v-7.6a4.405,4.405,0,0,1,4.4-4.4h2.96l-1.936,4.839a1.334,1.334,0,0,0,.3,1.437l2.667,2.667a1.333,1.333,0,0,0,1.885,0l2.667-2.667a1.334,1.334,0,0,0,.3-1.437L13.969,292h2.96a4.405,4.405,0,0,1,4.4,4.4Z" transform="translate(0 -226.665)"/>
      <path id="Path_105713" data-name="Path 105713" d="M188.852,290.519a7.016,7.016,0,0,0-3.033-1.123,9.258,9.258,0,0,0,3.515-6.732c0-8.816-5.076-10.667-9.333-10.667s-9.333,1.851-9.333,10.667a9.255,9.255,0,0,0,3.516,6.732A7.047,7.047,0,0,0,168,296.4v8.929a1.332,1.332,0,0,0,1.333,1.333h21.333A1.332,1.332,0,0,0,192,305.331V296.4A7.054,7.054,0,0,0,188.852,290.519ZM180,294.254l1.1,2.755-1.1,1.1-1.1-1.1Zm-6.481-10.325c2.283-.188,6.4-.879,8.32-3.407l4.765,2.86c-.535,3.265-4.557,5.949-6.6,5.949C178.068,289.331,174.379,286.942,173.519,283.929ZM180,274.665c3.784,0,5.863,1.789,6.463,5.523l-4.443-2.665a1.334,1.334,0,0,0-1.951.721c-.675,2.024-4.317,2.789-6.661,3.012C173.764,276.785,175.872,274.665,180,274.665ZM189.333,304H170.667v-7.6a4.405,4.405,0,0,1,4.4-4.4h2.96l-1.936,4.839a1.331,1.331,0,0,0,.3,1.437l2.667,2.667a1.333,1.333,0,0,0,1.885,0l2.667-2.667a1.334,1.334,0,0,0,.3-1.437L181.969,292h2.96a4.405,4.405,0,0,1,4.4,4.4Z" transform="translate(-140 -226.665)"/>
      <path id="Path_105714" data-name="Path 105714" d="M356.852,290.519a7.016,7.016,0,0,0-3.033-1.123,9.258,9.258,0,0,0,3.515-6.732c0-8.816-5.076-10.667-9.333-10.667s-9.333,1.851-9.333,10.667a9.255,9.255,0,0,0,3.516,6.732A7.047,7.047,0,0,0,336,296.4v8.929a1.332,1.332,0,0,0,1.333,1.333h21.333A1.332,1.332,0,0,0,360,305.331V296.4A7.054,7.054,0,0,0,356.852,290.519ZM348,294.254l1.1,2.755-1.1,1.1-1.1-1.1Zm-6.481-10.325c2.283-.188,6.4-.879,8.32-3.407l4.765,2.86c-.535,3.265-4.557,5.949-6.6,5.949C346.068,289.331,342.379,286.942,341.519,283.929ZM348,274.665c3.784,0,5.863,1.789,6.463,5.523l-4.443-2.665a1.334,1.334,0,0,0-1.951.721c-.675,2.024-4.317,2.789-6.661,3.012C341.764,276.785,343.872,274.665,348,274.665ZM357.333,304H338.667v-7.6a4.405,4.405,0,0,1,4.4-4.4h2.96l-1.936,4.839a1.331,1.331,0,0,0,.3,1.437l2.667,2.667a1.333,1.333,0,0,0,1.885,0l2.667-2.667a1.334,1.334,0,0,0,.3-1.437L349.969,292h2.96a4.405,4.405,0,0,1,4.4,4.4Z" transform="translate(-280 -226.665)"/>
      <path id="Path_105715" data-name="Path 105715" d="M118.667,96H156V93.337h-1.333V76a1.332,1.332,0,0,0-1.333-1.333h-12v-4A1.332,1.332,0,0,0,140,69.337h-8.1a10.774,10.774,0,0,0-1.8-2.321,10.642,10.642,0,0,0-7.755-3.008A10.954,10.954,0,0,0,112,75.062a18.273,18.273,0,0,0,2.861,9.827l5.376,8.448h-1.571Zm26.667-2.667v-4H148v4Zm6.667-16V78.67h-2.667v2.667H152V82.67h-2.667v2.667H152v8h-1.333V88a1.332,1.332,0,0,0-1.333-1.333H144A1.332,1.332,0,0,0,142.667,88v5.333h-1.333v-8H144V82.67h-2.667V81.337H144V78.67h-2.667V77.337ZM132.992,72h5.675V93.337h-9.333v-6.66l1.139-1.788q.352-.552.66-1.124a18.262,18.262,0,0,0,2.2-8.7h0V74.67a10.9,10.9,0,0,0-.08-1.256c-.011-.092-.028-.183-.041-.275a10.508,10.508,0,0,0-.2-1.043C133,72.066,133,72.034,132.992,72Zm-18.325,3.059a8.266,8.266,0,0,1,7.753-8.388c.083,0,.164,0,.247,0a7.98,7.98,0,0,1,7.212,4.545c0,.009.005.019.009.027a7.965,7.965,0,0,1,.58,1.665l0,.016c.057.255.1.511.131.769,0,.037.013.075.017.112a8.487,8.487,0,0,1,.047.865v.391a15.6,15.6,0,0,1-1.881,7.436q-.264.488-.564.96l-1.347,2.116h0l-4.208,6.613-5.555-8.731A15.606,15.606,0,0,1,114.667,75.062Zm12,15.805v2.469H125.1Z" transform="translate(-93.333 -53.338)"/>
      <rect id="Rectangle_31712" data-name="Rectangle 31712" width="2.667" height="2.667" transform="translate(41.333 19.999)"/>
      <rect id="Rectangle_31713" data-name="Rectangle 31713" width="2.667" height="2.667" transform="translate(52 25.333)"/>
      <rect id="Rectangle_31714" data-name="Rectangle 31714" width="2.667" height="2.667" transform="translate(52 29.333)"/>
      <rect id="Rectangle_31715" data-name="Rectangle 31715" width="2.667" height="2.667" transform="translate(41.333 23.999)"/>
      <rect id="Rectangle_31716" data-name="Rectangle 31716" width="2.667" height="2.667" transform="translate(41.333 27.999)"/>
      <rect id="Rectangle_31717" data-name="Rectangle 31717" width="2.667" height="2.667" transform="translate(37.333 31.999)"/>
      <rect id="Rectangle_31718" data-name="Rectangle 31718" width="2.667" height="2.667" transform="translate(41.333 31.999)"/>
      <rect id="Rectangle_31719" data-name="Rectangle 31719" width="2.667" height="2.667" transform="translate(37.333 35.999)"/>
      <rect id="Rectangle_31720" data-name="Rectangle 31720" width="2.667" height="2.667" transform="translate(41.333 35.999)"/>
      <path id="Path_105716" data-name="Path 105716" d="M33.44,169.986l2.648.312c.1-.821.229-1.656.392-2.48l-2.617-.516C33.687,168.193,33.545,169.1,33.44,169.986Z" transform="translate(-27.867 -139.419)"/>
      <path id="Path_105717" data-name="Path 105717" d="M51.1,108.694l2.419,1.12c.353-.763.739-1.516,1.143-2.235l-2.323-1.309C51.9,107.05,51.485,107.866,51.1,108.694Z" transform="translate(-42.587 -88.559)"/>
      <path id="Path_105718" data-name="Path 105718" d="M91.02,57.2l-1.809-1.959c-.663.612-1.309,1.259-1.923,1.923l1.959,1.809C89.812,58.359,90.409,57.762,91.02,57.2Z" transform="translate(-72.74 -46.032)"/>
      <path id="Path_105719" data-name="Path 105719" d="M39.8,138.482l2.565.724c.225-.8.487-1.6.779-2.389l-2.5-.923C40.325,136.747,40.043,137.618,39.8,138.482Z" transform="translate(-33.167 -113.245)"/>
      <path id="Path_105720" data-name="Path 105720" d="M67.08,81.381,69.3,82.865c.463-.692.96-1.375,1.477-2.029l-2.091-1.653C68.121,79.891,67.583,80.631,67.08,81.381Z" transform="translate(-55.9 -65.985)"/>
      <path id="Path_105721" data-name="Path 105721" d="M390.576,80.59c.516.649,1.015,1.332,1.483,2.028l2.211-1.489c-.507-.752-1.045-1.491-1.6-2.195Z" transform="translate(-325.48 -65.779)"/>
      <path id="Path_105722" data-name="Path 105722" d="M347.927,34.862l-1.479,2.219c.688.459,1.371.955,2.032,1.475l1.648-2.1C349.412,35.9,348.672,35.358,347.927,34.862Z" transform="translate(-288.707 -29.052)"/>
      <path id="Path_105723" data-name="Path 105723" d="M321.275,18.942l-1.115,2.421c.753.348,1.508.732,2.24,1.139l1.3-2.328C322.908,19.734,322.093,19.318,321.275,18.942Z" transform="translate(-266.8 -15.785)"/>
      <path id="Path_105724" data-name="Path 105724" d="M407.376,107.3c.409.724.795,1.475,1.147,2.233l2.417-1.125c-.381-.82-.8-1.633-1.241-2.417Z" transform="translate(-339.48 -88.325)"/>
      <path id="Path_105725" data-name="Path 105725" d="M292.644,7.694l-.716,2.568c.8.224,1.6.483,2.387.771l.919-2.5C294.385,8.217,293.515,7.937,292.644,7.694Z" transform="translate(-243.273 -6.412)"/>
      <path id="Path_105726" data-name="Path 105726" d="M370.112,57.006c.617.571,1.216,1.167,1.777,1.772l1.956-1.812c-.608-.656-1.256-1.3-1.925-1.92Z" transform="translate(-308.427 -45.872)"/>
      <path id="Path_105727" data-name="Path 105727" d="M431.3,169.606c-.108-.9-.252-1.8-.429-2.688l-2.615.527c.164.815.3,1.648.4,2.476Z" transform="translate(-356.88 -139.099)"/>
      <path id="Path_105728" data-name="Path 105728" d="M420.048,136.493c.292.785.555,1.588.781,2.387l2.565-.729c-.247-.865-.531-1.736-.847-2.584Z" transform="translate(-350.04 -112.972)"/>
      <path id="Path_105729" data-name="Path 105729" d="M140.733,19.086c-.817.377-1.633.795-2.421,1.237l1.307,2.325c.728-.409,1.479-.795,2.235-1.143Z" transform="translate(-115.26 -15.905)"/>
      <path id="Path_105730" data-name="Path 105730" d="M262.7,1.4l-.307,2.648c.82.095,1.655.225,2.481.387l.511-2.617C264.491,1.641,263.587,1.5,262.7,1.4Z" transform="translate(-218.66 -1.165)"/>
      <path id="Path_105731" data-name="Path 105731" d="M114.915,37.267l-1.487-2.213c-.755.508-1.495,1.045-2.2,1.6l1.651,2.093C113.531,38.235,114.216,37.738,114.915,37.267Z" transform="translate(-92.693 -29.212)"/>
      <path id="Path_105732" data-name="Path 105732" d="M170.5,7.8c-.875.248-1.745.529-2.584.841l.924,2.5c.775-.285,1.579-.547,2.387-.776Z" transform="translate(-139.927 -6.499)"/>
      <path id="Path_105733" data-name="Path 105733" d="M234.4.029c-.9-.036-1.817-.033-2.72,0l.1,2.664c.832-.029,1.68-.032,2.512,0Z" transform="translate(-193.067 -0.003)"/>
      <path id="Path_105734" data-name="Path 105734" d="M201.989,1.446c-.891.105-1.795.248-2.685.423l.516,2.617c.824-.163,1.659-.3,2.481-.392Z" transform="translate(-166.087 -1.205)"/>
      <path id="Path_105735" data-name="Path 105735" d="M154.667,101.331a5.333,5.333,0,1,0-5.333,5.333A5.339,5.339,0,0,0,154.667,101.331Zm-8,0A2.667,2.667,0,1,1,149.333,104,2.669,2.669,0,0,1,146.667,101.331Z" transform="translate(-120 -79.999)"/>
    </g>
  </g>
</svg>
