<svg xmlns="http://www.w3.org/2000/svg" width="59.414" height="80" viewBox="0 0 59.414 80">
  <g id="t1-i11" transform="translate(-65.875)">
    <g id="XMLID_108_" transform="translate(67.438 1.562)">
      <path id="XMLID_1423_" d="M118.517,68.407V64.5h4.129l-3.453-4.955h8.183l3.078-2.1-1.727-3.6,2.265-1.8-1.483-4.655V39.579h-8.139l-3.153-5.105H107.931V29.219l-5.03-4.054,4.383-5.244,8.564-5.312L110.033,10l-7.057,6.156H96.145l-3.679,3.3v4.8l-10.66,8.784,1.727,3.078V47.837L85.458,52.5l-4.3,1.343-5.286,5.705,8.058,6.006h7.541L103.5,74.922v3.395h9.991l1.2-1.051L112.5,85.073h2.334l3.684,1.8,2.552-14.489Z" transform="translate(-75.875 -10)" fill="#ffea60"/>
      <path id="XMLID_1603_" d="M214.074,377.22V376H189.128l9.931,7.734v3.395h9.991l1.2-1.051-2.2,7.808h2.334l3.684,1.8,2.552-14.489Z" transform="translate(-171.432 -318.813)" fill="#ff5a58"/>
      <path id="XMLID_1605_" d="M83.533,250.337,85.458,255l-4.3,1.343-5.286,5.705,8.058,6.006h7.541l2.1,1.633h24.946V267h4.129l-3.453-4.955h8.183l3.078-2.1-1.727-3.6,2.265-1.8L129.545,250H83.533Z" transform="translate(-75.875 -212.5)" fill="#60a4ff"/>
    </g>
    <g id="XMLID_563_" transform="translate(65.875 0)">
      <path id="XMLID_1124_" d="M125.135,51.9l-1.71-3.569-1.189-2.481,1.291-1.027a1.563,1.563,0,0,0,.516-1.7l-1.41-4.423V31.141a1.562,1.562,0,0,0-1.562-1.562H113.8l-2.7-4.364a1.562,1.562,0,0,0-1.329-.741h-8.723V20.781a1.563,1.563,0,0,0-.582-1.217l-3.792-3.056,3.2-3.83,8.35-5.179a1.563,1.563,0,0,0,.147-2.552L102.567.338a1.563,1.563,0,0,0-2,.047L93.953,6.156H87.707a1.562,1.562,0,0,0-1.044.4l-3.679,3.3a1.563,1.563,0,0,0-.519,1.163v4.068l-8.649,7.127-.408-.727a1.563,1.563,0,1,0-2.725,1.529L73.533,28.1V39.4a1.561,1.561,0,0,0,.118.6l1.274,3.085-2.667.833a1.562,1.562,0,0,0-.68.43l-5.286,5.706a1.562,1.562,0,0,0,.212,2.315l8.058,6.006a1.563,1.563,0,0,0,.934.31h7l11,8.569v2.631a1.562,1.562,0,0,0,1.563,1.563H103.9l-1.341,4.771a1.562,1.562,0,0,0,1.5,1.985h1.972l3.359,1.643a1.563,1.563,0,0,0,2.225-1.132l2.553-14.489a1.562,1.562,0,0,0-.224-1.115l-2.305-3.593V57.628h2.567a1.563,1.563,0,0,0,1.282-2.456l-1.742-2.5h5.189a1.563,1.563,0,0,0,.881-.272l1.575-1.075.924,1.928a1.562,1.562,0,1,0,2.818-1.35ZM108.9,76.122l-1.819-.89a1.563,1.563,0,0,0-.687-.159h-.271l1.637-5.822a1.563,1.563,0,0,0-2.533-1.6l-.759.664H96.627V66.484a1.563,1.563,0,0,0-.6-1.233l-6.342-4.939h18.876a1.561,1.561,0,0,0,.205.5l2.223,3.465Zm-32.443-49.2-1.088-1.938,9.652-7.953a1.562,1.562,0,0,0,.569-1.206V11.719l2.715-2.438h6.233A1.563,1.563,0,0,0,95.567,8.9l6.077-5.3L104.7,6.016l-6.675,4.14a1.562,1.562,0,0,0-.375.326l-4.383,5.244a1.563,1.563,0,0,0,.218,2.219l4.448,3.585v4.508A1.562,1.562,0,0,0,99.494,27.6h9.414l2.7,4.364a1.562,1.562,0,0,0,1.329.741h6.576v4.8H105.914a1.563,1.563,0,0,0,0,3.125h14.051l.773,2.426-1.422,1.131a1.562,1.562,0,0,0-.436,1.9l1.147,2.394-1.572,1.074h-7.7A1.563,1.563,0,0,0,109.473,52l1.742,2.5h-1.135a1.562,1.562,0,0,0-1.562,1.563v1.122H85.67L84,55.884a1.562,1.562,0,0,0-.96-.33H76.014L69.766,50.9l3.821-4.125,3.9-1.219a1.563,1.563,0,0,0,.978-2.088l-1.173-2.841h14.56a1.563,1.563,0,0,0,0-3.125H76.658V27.688a1.466,1.466,0,0,0-.2-.765Z" transform="translate(-65.875 0)"/>
      <path id="XMLID_1181_" d="M268.681,240a1.56,1.56,0,1,0,1.106.458A1.574,1.574,0,0,0,268.681,240Z" transform="translate(-235.674 -202.5)"/>
    </g>
  </g>
</svg>
