<svg xmlns="http://www.w3.org/2000/svg" width="714" height="315" viewBox="0 0 714 315">
  <g id="t1-i17" transform="translate(-1046.205 57.494)">
    <rect id="Rectángulo_32776" data-name="Rectángulo 32776" width="714" height="315" transform="translate(1046.205 -57.494)" fill="#fff"/>
    <path id="Rectangle_32791" data-name="Rectangle 32791" d="M0-1.5H8v3H1.5V4.429h-3V0H0Zm16,0h8v3H16Zm16,0h8v3H32Zm16,0h8v3H48Zm16,0h8v3H64Zm16,0h8v3H80Zm16,0h8v3H96Zm16,0h8v3h-8Zm16,0h8v3h-8Zm16,0h8v3h-8Zm16,0h8v3h-8Zm16,0h8v3h-8Zm16,0h8v3h-8Zm16,0h8v3h-8Zm16,0h8v3h-8Zm16,0h8v3h-8Zm16,0h8v3h-8Zm16,0h8v3h-8Zm16,0h8v3h-8Zm16,0h8v3h-8Zm16,0h8v3h-8Zm16,0h5.714V3.786h-3V1.5H336Zm2.714,13.286h3v8h-3ZM-1.5,12.429h3v8h-3ZM338.714,27.786h3v8h-3ZM-1.5,28.429h3v8h-3ZM338.714,43.786h3v8h-3ZM-1.5,44.429h3v8h-3ZM338.714,59.786h3v8h-3ZM-1.5,60.429h3v8h-3ZM338.714,75.786h3v8h-3ZM-1.5,76.429h3v8h-3ZM338.714,91.786h3v8h-3ZM-1.5,92.429h3v8h-3Zm340.214,15.357h3v8h-3ZM-1.5,108.429h3v8h-3Zm340.214,15.357h3v8h-3ZM-1.5,124.429h3v8h-3Zm340.214,15.357h3v8h-3ZM-1.5,140.429h3v8h-3Zm340.214,15.357h3v8h-3ZM-1.5,156.429h3v8h-3Zm340.214,15.357h3v8h-3ZM-1.5,172.429h3v8h-3Zm340.214,15.357h3v8h-3ZM-1.5,188.429h3v8h-3Zm340.214,15.357h3v8h-3ZM-1.5,204.429h3v8h-3Zm340.214,15.357h3v8h-3ZM-1.5,220.429h3v8h-3Zm340.214,15.357h3v8h-3ZM-1.5,236.429h3v8h-3Zm340.214,15.357h3v8h-3ZM-1.5,252.429h3v8h-3Zm340.214,15.357h3V271.5h-7.286v-3h4.286ZM-1.5,268.429h3v.071H6.429v3H-1.5Zm15.929.071h8v3h-8Zm16,0h8v3h-8Zm16,0h8v3h-8Zm16,0h8v3h-8Zm16,0h8v3h-8Zm16,0h8v3h-8Zm16,0h8v3h-8Zm16,0h8v3h-8Zm16,0h8v3h-8Zm16,0h8v3h-8Zm16,0h8v3h-8Zm16,0h8v3h-8Zm16,0h8v3h-8Zm16,0h8v3h-8Zm16,0h8v3h-8Zm16,0h8v3h-8Zm16,0h8v3h-8Zm16,0h8v3h-8Zm16,0h8v3h-8Zm16,0h8v3h-8Z" transform="translate(1233.098 -34.994)" fill="#17c878"/>
    <g id="Group_96503" data-name="Group 96503">
      <rect id="Rectangle_32792" data-name="Rectangle 32792" width="74.926" height="1.906" transform="translate(1200.929 99.053)" fill="#0a5936"/>
      <path id="Path_140220" data-name="Path 140220" d="M1280.548,100.006l-14.911-6.118v12.236Z" fill="#0a5936"/>
    </g>
    <g id="Group_96504" data-name="Group 96504">
      <rect id="Rectangle_32793" data-name="Rectangle 32793" width="74.926" height="1.906" transform="translate(1526.154 99.053)" fill="#0a5936"/>
      <path id="Path_140221" data-name="Path 140221" d="M1605.772,100.006l-14.911-6.118v12.236Z" fill="#0a5936"/>
    </g>
    <g id="Group_96505" data-name="Group 96505">
      <rect id="Rectangle_32794" data-name="Rectangle 32794" width="150.591" height="1.906" transform="translate(1526.154 186.94)" fill="#0a5936"/>
    </g>
    <g id="Group_96513" data-name="Group 96513">
      <path id="Path_140222" data-name="Path 140222" d="M1343.983,78.66h139.43v21.707a20.984,20.984,0,0,1-20.984,20.984H1323V99.645a20.985,20.985,0,0,1,20.985-20.985" fill="#17c878"/>
      <g id="Group_96511" data-name="Group 96511">
        <g id="Group_96506" data-name="Group 96506">
          <path id="Path_140223" data-name="Path 140223" d="M1487.152,94.152a.468.468,0,0,1-.468-.467V91.816a.468.468,0,1,1,.935,0v1.869A.467.467,0,0,1,1487.152,94.152Z" fill="#17c878"/>
        </g>
        <g id="Group_96507" data-name="Group 96507">
          <path id="Path_140224" data-name="Path 140224" d="M1487.152,89.278a.468.468,0,0,1-.468-.467v-3a.468.468,0,0,1,.935,0v3A.467.467,0,0,1,1487.152,89.278Zm0-6.01a.468.468,0,0,1-.468-.467V79.8a.468.468,0,0,1,.935,0V82.8A.467.467,0,0,1,1487.152,83.268Z" fill="#17c878"/>
        </g>
        <g id="Group_96508" data-name="Group 96508">
          <path id="Path_140225" data-name="Path 140225" d="M1487.152,77.259a.469.469,0,0,1-.468-.468v-1.4h-1.4a.467.467,0,1,1,0-.934h1.869a.467.467,0,0,1,.467.467v1.869A.468.468,0,0,1,1487.152,77.259Z" fill="#17c878"/>
        </g>
        <g id="Group_96509" data-name="Group 96509">
          <path id="Path_140226" data-name="Path 140226" d="M1481.8,75.389h-3.485a.467.467,0,1,1,0-.934h3.485a.467.467,0,1,1,0,.934Zm-6.97,0h-3.485a.467.467,0,1,1,0-.934h3.485a.467.467,0,1,1,0,.934Zm-6.97,0h-3.484a.467.467,0,1,1,0-.934h3.484a.467.467,0,1,1,0,.934Zm-6.969,0H1457.4a.467.467,0,1,1,0-.934h3.485a.467.467,0,0,1,0,.934Zm-6.97,0h-3.484a.467.467,0,1,1,0-.934h3.484a.467.467,0,1,1,0,.934Zm-6.969,0h-3.485a.467.467,0,0,1,0-.934h3.485a.467.467,0,1,1,0,.934Zm-6.97,0h-3.485a.467.467,0,1,1,0-.934h3.485a.467.467,0,1,1,0,.934Z" fill="#17c878"/>
        </g>
        <g id="Group_96510" data-name="Group 96510">
          <path id="Path_140227" data-name="Path 140227" d="M1433.011,75.389h-1.869a.467.467,0,1,1,0-.934h1.869a.467.467,0,1,1,0,.934Z" fill="#17c878"/>
        </g>
      </g>
      <g id="Group_96512" data-name="Group 96512">
        <path id="Path_140228" data-name="Path 140228" d="M1462.428,125.557H1319.259a.467.467,0,0,1-.467-.467V99.645a25.219,25.219,0,0,1,25.191-25.19h82.552a.467.467,0,1,1,0,.934h-82.552a24.283,24.283,0,0,0-24.256,24.256v24.977h142.7a24.283,24.283,0,0,0,24.256-24.255V97.44a.468.468,0,0,1,.935,0v2.927A25.219,25.219,0,0,1,1462.428,125.557Z" fill="#17c878"/>
      </g>
      <path id="Path_140229" data-name="Path 140229" d="M1343.983,81.542h136.548v18.825a18.122,18.122,0,0,1-18.1,18.1H1325.88V99.645a18.124,18.124,0,0,1,18.1-18.1" fill="#fff"/>
    </g>
    <g id="Group_96521" data-name="Group 96521">
      <path id="Path_140230" data-name="Path 140230" d="M1091.408,78.66h99.406v21.707a20.984,20.984,0,0,1-20.985,20.984h-99.405V99.645a20.985,20.985,0,0,1,20.984-20.985" fill="#17c878"/>
      <g id="Group_96519" data-name="Group 96519">
        <g id="Group_96514" data-name="Group 96514">
          <path id="Path_140231" data-name="Path 140231" d="M1194.552,94.152a.467.467,0,0,1-.467-.467V91.816a.468.468,0,1,1,.935,0v1.869A.468.468,0,0,1,1194.552,94.152Z" fill="#17c878"/>
        </g>
        <g id="Group_96515" data-name="Group 96515">
          <path id="Path_140232" data-name="Path 140232" d="M1194.552,89.278a.467.467,0,0,1-.467-.467v-3a.468.468,0,0,1,.935,0v3A.468.468,0,0,1,1194.552,89.278Zm0-6.01a.467.467,0,0,1-.467-.467V79.8a.468.468,0,0,1,.935,0V82.8A.468.468,0,0,1,1194.552,83.268Z" fill="#17c878"/>
        </g>
        <g id="Group_96516" data-name="Group 96516">
          <path id="Path_140233" data-name="Path 140233" d="M1194.552,77.259a.468.468,0,0,1-.467-.468v-1.4h-1.4a.467.467,0,1,1,0-.934h1.869a.468.468,0,0,1,.468.467v1.869A.469.469,0,0,1,1194.552,77.259Z" fill="#17c878"/>
        </g>
        <g id="Group_96517" data-name="Group 96517">
          <path id="Path_140234" data-name="Path 140234" d="M1189.2,75.389h-3.485a.467.467,0,1,1,0-.934h3.485a.467.467,0,1,1,0,.934Zm-6.969,0h-3.485a.467.467,0,1,1,0-.934h3.485a.467.467,0,1,1,0,.934Zm-6.97,0h-3.485a.467.467,0,1,1,0-.934h3.485a.467.467,0,0,1,0,.934Zm-6.97,0H1164.8a.467.467,0,0,1,0-.934h3.485a.467.467,0,1,1,0,.934Zm-6.969,0h-3.485a.467.467,0,0,1,0-.934h3.485a.467.467,0,1,1,0,.934Zm-6.97,0h-3.484a.467.467,0,1,1,0-.934h3.484a.467.467,0,1,1,0,.934Zm-6.969,0H1143.9a.467.467,0,1,1,0-.934h3.485a.467.467,0,1,1,0,.934Z" fill="#17c878"/>
        </g>
        <g id="Group_96518" data-name="Group 96518">
          <path id="Path_140235" data-name="Path 140235" d="M1140.411,75.389h-1.869a.467.467,0,1,1,0-.934h1.869a.467.467,0,1,1,0,.934Z" fill="#17c878"/>
        </g>
      </g>
      <g id="Group_96520" data-name="Group 96520">
        <path id="Path_140236" data-name="Path 140236" d="M1169.829,125.557H1066.685a.467.467,0,0,1-.467-.467V99.645a25.218,25.218,0,0,1,25.19-25.19h42.528a.467.467,0,0,1,0,.934h-42.528a24.284,24.284,0,0,0-24.256,24.256v24.977h102.677a24.283,24.283,0,0,0,24.256-24.255V97.44a.468.468,0,0,1,.935,0v2.927A25.219,25.219,0,0,1,1169.829,125.557Z" fill="#17c878"/>
      </g>
      <path id="Path_140237" data-name="Path 140237" d="M1091.408,81.542h96.524v18.825a18.123,18.123,0,0,1-18.1,18.1h-96.524V99.645a18.124,18.124,0,0,1,18.1-18.1" fill="#fff"/>
    </g>
    <g id="Group_96529" data-name="Group 96529">
      <path id="Path_140238" data-name="Path 140238" d="M1636.581,78.66h99.406v21.707A20.984,20.984,0,0,1,1715,121.351h-99.4V99.645a20.985,20.985,0,0,1,20.984-20.985" fill="#17c878"/>
      <g id="Group_96527" data-name="Group 96527">
        <g id="Group_96522" data-name="Group 96522">
          <path id="Path_140239" data-name="Path 140239" d="M1739.725,94.152a.467.467,0,0,1-.467-.467V91.816a.467.467,0,1,1,.935,0v1.869A.468.468,0,0,1,1739.725,94.152Z" fill="#17c878"/>
        </g>
        <g id="Group_96523" data-name="Group 96523">
          <path id="Path_140240" data-name="Path 140240" d="M1739.725,89.278a.467.467,0,0,1-.467-.467v-3a.467.467,0,0,1,.935,0v3A.468.468,0,0,1,1739.725,89.278Zm0-6.01a.467.467,0,0,1-.467-.467V79.8a.467.467,0,0,1,.935,0V82.8A.468.468,0,0,1,1739.725,83.268Z" fill="#17c878"/>
        </g>
        <g id="Group_96524" data-name="Group 96524">
          <path id="Path_140241" data-name="Path 140241" d="M1739.725,77.259a.468.468,0,0,1-.467-.468v-1.4h-1.4a.467.467,0,0,1,0-.934h1.869a.468.468,0,0,1,.468.467v1.869A.469.469,0,0,1,1739.725,77.259Z" fill="#17c878"/>
        </g>
        <g id="Group_96525" data-name="Group 96525">
          <path id="Path_140242" data-name="Path 140242" d="M1734.371,75.389h-3.485a.467.467,0,1,1,0-.934h3.485a.467.467,0,1,1,0,.934Zm-6.969,0h-3.485a.467.467,0,1,1,0-.934h3.485a.467.467,0,1,1,0,.934Zm-6.97,0h-3.485a.467.467,0,1,1,0-.934h3.485a.467.467,0,1,1,0,.934Zm-6.97,0h-3.484a.467.467,0,1,1,0-.934h3.484a.467.467,0,1,1,0,.934Zm-6.969,0h-3.485a.467.467,0,1,1,0-.934h3.485a.467.467,0,0,1,0,.934Zm-6.97,0h-3.484a.467.467,0,1,1,0-.934h3.484a.467.467,0,1,1,0,.934Zm-6.969,0h-3.485a.467.467,0,0,1,0-.934h3.485a.467.467,0,1,1,0,.934Z" fill="#17c878"/>
        </g>
        <g id="Group_96526" data-name="Group 96526">
          <path id="Path_140243" data-name="Path 140243" d="M1685.584,75.389h-1.869a.467.467,0,0,1,0-.934h1.869a.467.467,0,1,1,0,.934Z" fill="#17c878"/>
        </g>
      </g>
      <g id="Group_96528" data-name="Group 96528">
        <path id="Path_140244" data-name="Path 140244" d="M1715,125.557H1611.858a.467.467,0,0,1-.467-.467V99.645a25.218,25.218,0,0,1,25.19-25.19h42.528a.467.467,0,1,1,0,.934h-42.528a24.284,24.284,0,0,0-24.256,24.256v24.977H1715a24.283,24.283,0,0,0,24.256-24.255V97.44a.467.467,0,0,1,.935,0v2.927A25.219,25.219,0,0,1,1715,125.557Z" fill="#17c878"/>
      </g>
      <path id="Path_140245" data-name="Path 140245" d="M1636.581,81.542H1733.1v18.825a18.123,18.123,0,0,1-18.1,18.1h-96.524V99.645a18.124,18.124,0,0,1,18.1-18.1" fill="#fff"/>
    </g>
    <g id="Group_96537" data-name="Group 96537">
      <path id="Path_140246" data-name="Path 140246" d="M1283.945-12.3h259.506V9.4a20.985,20.985,0,0,1-20.985,20.985H1262.96V8.684A20.985,20.985,0,0,1,1283.945-12.3" fill="#17c878"/>
      <g id="Group_96535" data-name="Group 96535">
        <g id="Group_96530" data-name="Group 96530">
          <path id="Path_140247" data-name="Path 140247" d="M1547.19,3.191a.468.468,0,0,1-.468-.468V.854a.467.467,0,0,1,.935,0V2.723A.468.468,0,0,1,1547.19,3.191Z" fill="#17c878"/>
        </g>
        <g id="Group_96531" data-name="Group 96531">
          <path id="Path_140248" data-name="Path 140248" d="M1547.19-1.683a.468.468,0,0,1-.468-.468V-5.156a.467.467,0,0,1,.468-.467.467.467,0,0,1,.467.467v3.005A.468.468,0,0,1,1547.19-1.683Zm0-6.01a.467.467,0,0,1-.468-.467v-3.005a.468.468,0,0,1,.468-.468.468.468,0,0,1,.467.468V-8.16A.467.467,0,0,1,1547.19-7.693Z" fill="#17c878"/>
        </g>
        <g id="Group_96532" data-name="Group 96532">
          <path id="Path_140249" data-name="Path 140249" d="M1547.19-13.7a.467.467,0,0,1-.468-.467v-1.4h-1.4a.467.467,0,0,1-.467-.467.467.467,0,0,1,.467-.468h1.87a.467.467,0,0,1,.467.468v1.869A.467.467,0,0,1,1547.19-13.7Z" fill="#17c878"/>
        </g>
        <g id="Group_96533" data-name="Group 96533">
          <path id="Path_140250" data-name="Path 140250" d="M1541.835-15.572h-3.484a.468.468,0,0,1-.468-.467.468.468,0,0,1,.468-.468h3.484a.468.468,0,0,1,.468.468A.468.468,0,0,1,1541.835-15.572Zm-6.969,0h-3.485a.467.467,0,0,1-.467-.467.467.467,0,0,1,.467-.468h3.485a.467.467,0,0,1,.467.468A.467.467,0,0,1,1534.866-15.572Zm-6.97,0h-3.485a.467.467,0,0,1-.467-.467.467.467,0,0,1,.467-.468h3.485a.468.468,0,0,1,.468.468A.468.468,0,0,1,1527.9-15.572Zm-6.969,0h-3.485a.468.468,0,0,1-.468-.467.468.468,0,0,1,.468-.468h3.485a.467.467,0,0,1,.467.468A.467.467,0,0,1,1520.927-15.572Zm-6.97,0h-3.485a.467.467,0,0,1-.467-.467.467.467,0,0,1,.467-.468h3.485a.467.467,0,0,1,.467.468A.467.467,0,0,1,1513.957-15.572Zm-6.969,0H1503.5a.467.467,0,0,1-.467-.467.467.467,0,0,1,.467-.468h3.485a.467.467,0,0,1,.467.468A.467.467,0,0,1,1506.988-15.572Zm-6.97,0h-3.485a.467.467,0,0,1-.467-.467.467.467,0,0,1,.467-.468h3.485a.467.467,0,0,1,.467.468A.467.467,0,0,1,1500.018-15.572Z" fill="#17c878"/>
        </g>
        <g id="Group_96534" data-name="Group 96534">
          <path id="Path_140251" data-name="Path 140251" d="M1493.049-15.572h-1.87a.467.467,0,0,1-.467-.467.467.467,0,0,1,.467-.468h1.87a.467.467,0,0,1,.467.468A.467.467,0,0,1,1493.049-15.572Z" fill="#17c878"/>
        </g>
      </g>
      <g id="Group_96536" data-name="Group 96536">
        <path id="Path_140252" data-name="Path 140252" d="M1522.466,34.6H1259.222a.469.469,0,0,1-.468-.468V8.684a25.22,25.22,0,0,1,25.191-25.191h202.628a.467.467,0,0,1,.467.468.467.467,0,0,1-.467.467H1283.945a24.283,24.283,0,0,0-24.256,24.256V33.661h262.777A24.283,24.283,0,0,0,1546.722,9.4V6.478a.467.467,0,0,1,.935,0V9.4A25.22,25.22,0,0,1,1522.466,34.6Z" fill="#17c878"/>
      </g>
      <path id="Path_140253" data-name="Path 140253" d="M1283.945-9.419h256.624V9.4a18.124,18.124,0,0,1-18.1,18.1H1265.842V8.684a18.124,18.124,0,0,1,18.1-18.1" fill="#fff"/>
    </g>
    <g id="Group_96545" data-name="Group 96545">
      <path id="Path_140254" data-name="Path 140254" d="M1283.945,166.547h259.506v21.707a20.984,20.984,0,0,1-20.985,20.984H1262.96V187.532a20.985,20.985,0,0,1,20.985-20.985" fill="#17c878"/>
      <g id="Group_96543" data-name="Group 96543">
        <g id="Group_96538" data-name="Group 96538">
          <path id="Path_140255" data-name="Path 140255" d="M1547.19,182.039a.467.467,0,0,1-.468-.467V179.7a.467.467,0,1,1,.935,0v1.869A.467.467,0,0,1,1547.19,182.039Z" fill="#17c878"/>
        </g>
        <g id="Group_96539" data-name="Group 96539">
          <path id="Path_140256" data-name="Path 140256" d="M1547.19,177.165a.467.467,0,0,1-.468-.467v-3.005a.467.467,0,1,1,.935,0V176.7A.467.467,0,0,1,1547.19,177.165Zm0-6.01a.467.467,0,0,1-.468-.467v-3.005a.467.467,0,0,1,.935,0v3.005A.467.467,0,0,1,1547.19,171.155Z" fill="#17c878"/>
        </g>
        <g id="Group_96540" data-name="Group 96540">
          <path id="Path_140257" data-name="Path 140257" d="M1547.19,165.145a.467.467,0,0,1-.468-.467v-1.4h-1.4a.467.467,0,0,1,0-.934h1.87a.467.467,0,0,1,.467.467v1.869A.467.467,0,0,1,1547.19,165.145Z" fill="#17c878"/>
        </g>
        <g id="Group_96541" data-name="Group 96541">
          <path id="Path_140258" data-name="Path 140258" d="M1541.835,163.276h-3.484a.467.467,0,1,1,0-.934h3.484a.467.467,0,1,1,0,.934Zm-6.969,0h-3.485a.467.467,0,1,1,0-.934h3.485a.467.467,0,1,1,0,.934Zm-6.97,0h-3.485a.467.467,0,1,1,0-.934h3.485a.467.467,0,1,1,0,.934Zm-6.969,0h-3.485a.467.467,0,1,1,0-.934h3.485a.467.467,0,1,1,0,.934Zm-6.97,0h-3.485a.467.467,0,1,1,0-.934h3.485a.467.467,0,0,1,0,.934Zm-6.969,0H1503.5a.467.467,0,1,1,0-.934h3.485a.467.467,0,0,1,0,.934Zm-6.97,0h-3.485a.467.467,0,0,1,0-.934h3.485a.467.467,0,1,1,0,.934Z" fill="#17c878"/>
        </g>
        <g id="Group_96542" data-name="Group 96542">
          <path id="Path_140259" data-name="Path 140259" d="M1493.049,163.276h-1.87a.467.467,0,0,1,0-.934h1.87a.467.467,0,1,1,0,.934Z" fill="#17c878"/>
        </g>
      </g>
      <g id="Group_96544" data-name="Group 96544">
        <path id="Path_140260" data-name="Path 140260" d="M1522.466,213.444H1259.222a.468.468,0,0,1-.468-.467V187.532a25.219,25.219,0,0,1,25.191-25.19h202.628a.467.467,0,1,1,0,.934H1283.945a24.283,24.283,0,0,0-24.256,24.256v24.977h262.777a24.283,24.283,0,0,0,24.256-24.255v-2.927a.467.467,0,0,1,.935,0v2.927A25.219,25.219,0,0,1,1522.466,213.444Z" fill="#17c878"/>
      </g>
      <path id="Path_140261" data-name="Path 140261" d="M1283.945,169.429h256.624v18.825a18.123,18.123,0,0,1-18.1,18.1H1265.842V187.532a18.124,18.124,0,0,1,18.1-18.1" fill="#fff"/>
    </g>
    <text id="Proceso_de_transformación" data-name="Proceso de transformación" transform="translate(1403.205 14.889)" fill="#12263f" font-size="20" font-family="Roboto-Bold, Roboto" font-weight="700"><tspan x="-122.021" y="0">Proceso de transformación</tspan></text>
    <text id="Empresa" transform="translate(1403.205 105.851)" fill="#12263f" font-size="20" font-family="Roboto-Bold, Roboto" font-weight="700"><tspan x="-39.375" y="0">Empresa</tspan></text>
    <text id="Exterior" transform="translate(1130.618 105.851)" fill="#12263f" font-size="20" font-family="Roboto-Bold, Roboto" font-weight="700"><tspan x="-35.098" y="0">Exterior</tspan></text>
    <text id="Exterior-2" data-name="Exterior" transform="translate(1675.792 105.85)" fill="#12263f" font-size="20" font-family="Roboto-Bold, Roboto" font-weight="700"><tspan x="-35.098" y="0">Exterior</tspan></text>
    <text id="Sistema_de_control" data-name="Sistema de control" transform="translate(1403.205 193.737)" fill="#12263f" font-size="20" font-family="Roboto-Bold, Roboto" font-weight="700"><tspan x="-84.39" y="0">Sistema de control</tspan></text>
    <g id="Group_96546" data-name="Group 96546">
      <rect id="Rectangle_32795" data-name="Rectangle 32795" width="61.621" height="1.906" transform="translate(1674.839 188.846) rotate(-90)" fill="#0a5936"/>
      <path id="Path_140262" data-name="Path 140262" d="M1675.792,122.533l-6.118,14.91h12.236Z" fill="#0a5936"/>
    </g>
  </g>
</svg>
