<svg xmlns="http://www.w3.org/2000/svg" width="81" height="80.998" viewBox="0 0 81 80.998">
  <g id="t1-i9" transform="translate(-4.056 -4.058)">
    <path id="Path_105736" data-name="Path 105736" d="M74.351,84.289H54.059a123.1,123.1,0,0,1-8.931,12.362A123.09,123.09,0,0,1,36.2,84.289H15.906l-9.6,25.17H83.951Z" transform="translate(-0.572 -26.08)" fill="#d2f6e6"/>
    <path id="Path_105737" data-name="Path 105737" d="M53.955,6.31A20.665,20.665,0,0,0,33.29,26.974c-.121,19.717,20.665,44.17,20.665,44.17S74.741,46.691,74.62,26.975A20.665,20.665,0,0,0,53.955,6.31Zm0,29.433a8.768,8.768,0,1,1,8.768-8.768,8.768,8.768,0,0,1-8.768,8.768Z" transform="translate(-9.398 -0.573)" fill="#fb9e36"/>
    <path id="Path_105738" data-name="Path 105738" d="M84.566,90.124,45.82,103.905,30.72,84.29H44.185a122.972,122.972,0,0,0,8.929,12.361A122.975,122.975,0,0,0,62.044,84.29H82.339Z" transform="translate(-8.558 -26.08)" fill="#17c878"/>
    <path id="Path_105739" data-name="Path 105739" d="M29.96,115.062,68.313,101.42l10.5,13.642Z" transform="translate(-8.309 -31.683)" fill="#f1d54e"/>
    <g id="Group_91662" data-name="Group 91662" transform="translate(4.556 4.557)">
      <path id="Path_105740" data-name="Path 105740" d="M87.694,19.758A1.178,1.178,0,1,0,89.7,18.53a21.977,21.977,0,0,0-2.086-2.864A1.178,1.178,0,1,0,85.832,17.2a19.693,19.693,0,0,1,1.862,2.556Z" transform="translate(-31.048 -8.057)"/>
      <path id="Path_105740_-_Outline" data-name="Path 105740 - Outline" d="M88.7,20.822h0a1.667,1.667,0,0,1-1.433-.8,19.25,19.25,0,0,0-1.815-2.491A1.678,1.678,0,1,1,88,15.341,22.548,22.548,0,0,1,90.13,18.27a1.678,1.678,0,0,1-1.43,2.552Zm-1.976-5.065a.678.678,0,0,0-.513,1.119A20.254,20.254,0,0,1,88.12,19.5a.674.674,0,0,0,.58.325h0a.678.678,0,0,0,.577-1.031,21.541,21.541,0,0,0-2.038-2.8A.677.677,0,0,0,86.724,15.756Z" transform="translate(-31.048 -8.057)"/>
      <path id="Path_105741" data-name="Path 105741" d="M49.223,32.187a9.944,9.944,0,1,0,9.944-9.945,9.943,9.943,0,0,0-9.944,9.945Zm17.532,0a7.588,7.588,0,1,1-7.589-7.59,7.588,7.588,0,0,1,7.589,7.59Z" transform="translate(-19.167 -10.342)"/>
      <path id="Path_105741_-_Outline" data-name="Path 105741 - Outline" d="M59.166,42.629h0A10.444,10.444,0,1,1,69.61,32.186,10.455,10.455,0,0,1,59.166,42.629Zm0-19.887a9.444,9.444,0,1,0,9.443,9.444A9.47,9.47,0,0,0,59.167,22.742Zm0,17.532a8.088,8.088,0,0,1,0-16.177h0a8.088,8.088,0,0,1,0,16.177Zm0-15.177a7.088,7.088,0,1,0,7.089,7.09,7.1,7.1,0,0,0-7.089-7.09Z" transform="translate(-19.167 -10.342)"/>
      <path id="Path_105742" data-name="Path 105742" d="M10.769,106.558a1.176,1.176,0,0,0,1.52-.68l1.077-2.826a1.178,1.178,0,0,0-2.2-.84l-1.077,2.826a1.176,1.176,0,0,0,.68,1.519Z" transform="translate(-6.341 -36.26)"/>
      <path id="Path_105742_-_Outline" data-name="Path 105742 - Outline" d="M11.19,107.136h0a1.677,1.677,0,0,1-1.568-2.276l1.081-2.836a1.678,1.678,0,0,1,3.134,1.2l0,.01-1.077,2.826a1.687,1.687,0,0,1-.882.934A1.665,1.665,0,0,1,11.19,107.136Zm.441-4.74-1.074,2.82a.678.678,0,0,0,.909.861.68.68,0,0,0,.356-.377l1.074-2.82a.682.682,0,0,0-.4-.856.677.677,0,0,0-.867.373Z" transform="translate(-6.341 -36.26)"/>
      <path id="Path_105743" data-name="Path 105743" d="M84.478,82.959l-9.6-25.167a1.178,1.178,0,0,0-1.1-.758H55.61c.111-.181.221-.357.332-.538C62.933,44.922,66.451,34.8,66.4,26.408a21.845,21.845,0,0,0-.923-6.3,1.178,1.178,0,0,0-2.256.678,19.5,19.5,0,0,1,.823,5.628c.1,16.722-15.537,37.352-19.489,42.3C40.6,63.769,24.965,43.143,25.066,26.4A19.493,19.493,0,0,1,55.755,10.448a1.178,1.178,0,0,0,1.355-1.927,21.849,21.849,0,0,0-34.4,17.874c-.05,8.4,3.467,18.523,10.458,30.1.111.184.221.359.332.538H15.333a1.178,1.178,0,0,0-1.1.758l-2.759,7.242a1.178,1.178,0,1,0,2.2.84l2.472-6.484h5.437L35.338,77.26,21.447,82.2h-14l1.089-2.856a1.177,1.177,0,1,0-2.2-.839l-1.7,4.454a1.176,1.176,0,0,0,1.1,1.6H83.378a1.176,1.176,0,0,0,1.1-1.6ZM24.554,59.386H34.978a124.973,124.973,0,0,0,8.681,11.95,1.178,1.178,0,0,0,1.794,0,124.965,124.965,0,0,0,8.681-11.95H72.965l1.507,3.953L37.672,76.43ZM37.631,78.942h.007l21.955-7.806L68.108,82.2H28.474ZM71.083,82.2,61.925,70.3,75.316,65.54,81.67,82.2Z" transform="translate(-4.556 -4.557)"/>
      <path id="Path_105743_-_Outline" data-name="Path 105743 - Outline" d="M5.734,85.056h0a1.676,1.676,0,0,1-1.565-2.276l1.7-4.453a1.676,1.676,0,0,1,2.165-.97A1.677,1.677,0,0,1,9,79.522L8.169,81.7H21.36l13.161-4.681L21.338,59.884H16.491l-2.35,6.162a1.678,1.678,0,1,1-3.135-1.2l2.759-7.242a1.688,1.688,0,0,1,1.567-1.08H32.609c-6.951-11.56-10.448-21.7-10.4-30.137A22.348,22.348,0,0,1,57.4,8.112a1.678,1.678,0,1,1-1.929,2.746A18.993,18.993,0,0,0,25.566,26.4c-.1,15.909,14.019,35.211,18.99,41.508,4.971-6.3,19.086-25.605,18.989-41.492a18.99,18.99,0,0,0-.8-5.487,1.678,1.678,0,1,1,3.213-.966,22.33,22.33,0,0,1,.944,6.444c.051,8.429-3.447,18.565-10.4,30.126H73.779a1.688,1.688,0,0,1,1.567,1.079l9.6,25.167a1.676,1.676,0,0,1-1.565,2.276Zm1.7-6.809a.682.682,0,0,0-.633.437L5.1,83.137a.676.676,0,0,0,.631.919v0H83.378a.676.676,0,0,0,.633-.918l-9.6-25.168a.682.682,0,0,0-.633-.436H54.717l.467-.761.156-.252.176-.286C62.456,44.745,65.951,34.71,65.9,26.411a21.337,21.337,0,0,0-.9-6.159.678.678,0,0,0-1.3.391,19.983,19.983,0,0,1,.844,5.773,39.908,39.908,0,0,1-2.474,13.131,80.491,80.491,0,0,1-5.814,12.677,129.328,129.328,0,0,1-11.311,16.8l-.391.489-.391-.489a129.135,129.135,0,0,1-11.311-16.8A80.456,80.456,0,0,1,27.04,39.545,39.956,39.956,0,0,1,24.566,26.4a19.993,19.993,0,0,1,31.476-16.36.678.678,0,1,0,.78-1.109A21.349,21.349,0,0,0,23.211,26.4C23.161,34.7,26.656,44.741,33.6,56.232c.083.137.165.269.248.4l.555.9H15.333a.682.682,0,0,0-.633.436l-2.759,7.241a.678.678,0,1,0,1.266.484L15.8,58.884H21.83L36.153,77.5l-14.62,5.2H6.718l1.347-3.535a.678.678,0,0,0-.633-.919ZM82.4,82.7l-11.56,0L61.109,70.062l14.5-5.157Zm-11.067-1,9.615,0L75.023,66.175,62.741,70.543Zm-2.205,1H28.474l-.168-.971,9.245-3.288,22.216-7.9Zm-37.754-1H67.092l-7.675-9.972ZM37.5,77.023,23.538,58.886H35.251l.147.231a124.94,124.94,0,0,0,8.643,11.9.678.678,0,0,0,1.027,0,124.941,124.941,0,0,0,8.642-11.9l.147-.231H73.309l1.812,4.753ZM25.57,59.886,37.846,75.837l35.976-12.8-1.2-3.154H54.406a125.954,125.954,0,0,1-8.567,11.767l-.006.007a1.678,1.678,0,0,1-2.556,0l-.006-.007A125.96,125.96,0,0,1,34.7,59.886Z" transform="translate(-4.556 -4.557)"/>
    </g>
  </g>
</svg>
