<svg xmlns="http://www.w3.org/2000/svg" width="1030" height="541" viewBox="0 0 1030 541">
  <g id="t1-m1" transform="translate(9002 7486)">
    <path id="Path_140512" data-name="Path 140512" d="M0,0H1030V80H0Z" transform="translate(-9002 -7446)" fill="#f1d54e"/>
    <path id="Path_140517" data-name="Path 140517" d="M0,0H1030V80H0Z" transform="translate(-9002 -7316)" fill="#fff"/>
    <path id="Path_140518" data-name="Path 140518" d="M0,0H1030V80H0Z" transform="translate(-9002 -7238)" fill="#f6f6f6"/>
    <path id="Path_140519" data-name="Path 140519" d="M0,0H1030V80H0Z" transform="translate(-9002 -7158)" fill="#fff"/>
    <path id="Path_140520" data-name="Path 140520" d="M0,0H1030V80H0Z" transform="translate(-9002 -7078)" fill="#f6f6f6"/>
    <path id="Path_140513" data-name="Path 140513" d="M0,0H1030V50H0Z" transform="translate(-9002 -7366)" fill="#e8e8e8"/>
    <text id="Menores_o_iguales_a_23.563" data-name="Menores o iguales a 23.563" transform="translate(-8981 -7287)" fill="#12263f" font-size="18" font-family="Roboto-Regular, Roboto"><tspan x="-110.355" y="17">Menores o iguales a 23.563</tspan></text>
    <text id="Menores_o_iguales_a_32.988" data-name="Menores o iguales a 32.988" transform="translate(-8638 -7287)" fill="#12263f" font-size="18" font-family="Roboto-Regular, Roboto"><tspan x="-110.355" y="17">Menores o iguales a 32.988</tspan></text>
    <text id="Menores_o_iguales_a_44.769" data-name="Menores o iguales a 44.769" transform="translate(-8294 -7287)" fill="#12263f" font-size="18" font-family="Roboto-Regular, Roboto"><tspan x="-110.355" y="17">Menores o iguales a 44.769</tspan></text>
    <text id="Mayores_a_32.988_y_menores_o_iguales_a_131.951" data-name="Mayores a 32.988 y menores o iguales a 131.951" transform="translate(-8638 -7221)" fill="#12263f" font-size="18" font-family="Roboto-Regular, Roboto"><tspan x="-122.572" y="17">Mayores a 32.988 y menores o </tspan><tspan x="-70.726" y="42">iguales a 131.951</tspan></text>
    <text id="Mayores_a_44.769_y_menores_o_iguales_a_431.196" data-name="Mayores a 44.769 y menores o iguales a 431.196" transform="translate(-8294 -7221)" fill="#12263f" font-size="18" font-family="Roboto-Regular, Roboto"><tspan x="-122.572" y="17">Mayores a 44.769 y menores o </tspan><tspan x="-70.726" y="42">iguales a 431.196</tspan></text>
    <text id="Mayores_a_131.951_y_menores_o_iguales_a_483.034" data-name="Mayores a 131.951 y menores o iguales a 483.034" transform="translate(-8638 -7141)" fill="#12263f" font-size="18" font-family="Roboto-Regular, Roboto"><tspan x="-127.626" y="17">Mayores a 131.951 y menores o </tspan><tspan x="-70.726" y="42">iguales a 483.034</tspan></text>
    <text id="Mayores_a_431.196_y_menores_o_iguales_a_2.160.692" data-name="Mayores a 431.196 y menores o iguales a 2.160.692" transform="translate(-8294 -7141)" fill="#12263f" font-size="18" font-family="Roboto-Regular, Roboto"><tspan x="-127.626" y="17">Mayores a 431.196 y menores o </tspan><tspan x="-78.148" y="42">iguales a 2.160.692</tspan></text>
    <text id="Mayores_a_23.563_y_menores_o_iguales_a_204.995" data-name="Mayores a 23.563 y menores o iguales a 204.995" transform="translate(-8981 -7221)" fill="#12263f" font-size="18" font-family="Roboto-Regular, Roboto"><tspan x="-122.572" y="17">Mayores a 23.563 y menores o </tspan><tspan x="-70.726" y="42">iguales a 204.995</tspan></text>
    <text id="Mayores_a_204.995_y_menores_o_iguales_a_1_736.565" data-name="Mayores a 204.995 y menores o iguales a 1&apos;736.565" transform="translate(-8981 -7141)" fill="#12263f" font-size="18" font-family="Roboto-Regular, Roboto"><tspan x="-127.626" y="17">Mayores a 204.995 y menores o </tspan><tspan x="-77.348" y="42">iguales a 1&apos;736.565</tspan></text>
    <text id="Mayores_a_1_736.565" data-name="Mayores a 1&apos;736.565" transform="translate(-8981 -7049)" fill="#12263f" font-size="18" font-family="Roboto-Regular, Roboto"><tspan x="-83.048" y="17">Mayores a 1&apos;736.565</tspan></text>
    <text id="Mayores_a_483.034" data-name="Mayores a 483.034" transform="translate(-8638 -7049)" fill="#12263f" font-size="18" font-family="Roboto-Regular, Roboto"><tspan x="-76.425" y="17">Mayores a 483.034</tspan></text>
    <text id="Mayores_a_2.160.692" data-name="Mayores a 2.160.692" transform="translate(-8294 -7049)" fill="#12263f" font-size="18" font-family="Roboto-Regular, Roboto"><tspan x="-83.848" y="17">Mayores a 2.160.692</tspan></text>
    <path id="Line_205" data-name="Line 205" d="M0,368.5a.5.5,0,0,1-.5-.5V0A.5.5,0,0,1,0-.5.5.5,0,0,1,.5,0V368A.5.5,0,0,1,0,368.5Z" transform="translate(-8659 -7366)" fill="#12263f"/>
    <path id="Line_206" data-name="Line 206" d="M0,368.5a.5.5,0,0,1-.5-.5V0A.5.5,0,0,1,0-.5.5.5,0,0,1,.5,0V368A.5.5,0,0,1,0,368.5Z" transform="translate(-8316 -7366)" fill="#12263f"/>
    <g id="Group_96820" data-name="Group 96820" transform="translate(-14 14)">
      <rect id="Rectangle_5109" data-name="Rectangle 5109" width="4" height="25" transform="translate(-8988 -7500)" fill="#f1d54e"/>
      <text id="Tabla_2" data-name="Tabla 2" transform="translate(-8973 -7483)" fill="#12263f" font-size="13" font-family="Roboto-Bold, Roboto" font-weight="700"><tspan x="0" y="0">Tabla 2</tspan></text>
      <text id="Clasificación_de_las_empresas_según_Decreto_957" data-name="Clasificación de las empresas según Decreto 957" transform="translate(-8922 -7482)" fill="#12263f" font-size="13" font-family="Roboto-Regular, Roboto"><tspan x="0" y="0">Clasificación de las empresas según Decreto 957</tspan></text>
    </g>
    <text id="Ingresos_en_UVT_unidades_de_valor_tributario_de_actividades_ordinarias_según_sector_económico" data-name="Ingresos en UVT (unidades de valor tributario) de actividades ordinarias según sector económico" transform="translate(-8881 -7417)" fill="#12263f" font-size="18" font-family="Roboto-Bold, Roboto" font-weight="700"><tspan x="0" y="17">Ingresos en UVT (unidades de valor tributario) de actividades ordinarias según sector económico</tspan></text>
    <text id="Manufactura" transform="translate(-8885 -7352)" fill="#12263f" font-size="18" font-family="Roboto-Bold, Roboto" font-weight="700"><tspan x="0" y="17">Manufactura</tspan></text>
    <text id="Servicios" transform="translate(-8526 -7352)" fill="#12263f" font-size="18" font-family="Roboto-Bold, Roboto" font-weight="700"><tspan x="0" y="17">Servicios</tspan></text>
    <text id="Comercio" transform="translate(-8199 -7352)" fill="#12263f" font-size="18" font-family="Roboto-Bold, Roboto" font-weight="700"><tspan x="0" y="17">Comercio</tspan></text>
    <rect id="Rectangle_32883" data-name="Rectangle 32883" width="1030" height="38" transform="translate(-9002 -6983)" fill="#dee4f0"/>
    <text id="Nota._Elaboración_propia_a_partir_del_decreto_957_del_Ministerio_de_Comercio_Industria_y_Turismo_2019_." data-name="Nota. Elaboración propia a partir del decreto 957 del Ministerio de Comercio, Industria y Turismo (2019)." transform="translate(-8979 -6960)" fill="#12263f" font-size="13" font-family="Roboto-Bold, Roboto" font-weight="700"><tspan x="0" y="0">Nota. </tspan><tspan y="0" font-family="Roboto-Regular, Roboto" font-weight="400">Elaboración propia a partir del decreto 957 del Ministerio de Comercio, Industria y Turismo (2019).</tspan></text>
  </g>
</svg>
