<svg xmlns="http://www.w3.org/2000/svg" width="152" height="153" viewBox="0 0 152 153">
  <g id="t2-i8" transform="translate(-982 -2665)">
    <ellipse id="Ellipse_4195" data-name="Ellipse 4195" cx="76" cy="76.5" rx="76" ry="76.5" transform="translate(982 2665)" fill="#fff"/>
    <g id="maquinaria" transform="translate(1012 2696)">
      <g id="Group_94617" data-name="Group 94617" transform="translate(22.201 1.815)">
        <path id="Path_136258" data-name="Path 136258" d="M397.516,192.281h9.23v9.393h-9.23Zm0,0" transform="translate(-347.584 -159.204)" fill="#17c878"/>
        <path id="Path_136259" data-name="Path 136259" d="M314.65,22.734,336.1,44.184a6.164,6.164,0,1,1-8.717,8.718L311.543,37.063Zm0,0" transform="translate(-277.211 -20.424)" fill="#17c878"/>
        <path id="Path_136260" data-name="Path 136260" d="M122.348,38.565,148.593,12.32a7.922,7.922,0,0,1,11.2,11.2L133.649,49.67Zm0,0" transform="translate(-122.348 -10)" fill="#17c878"/>
      </g>
      <path id="Path_136261" data-name="Path 136261" d="M270.261,17.867a7.894,7.894,0,1,1-7.894-7.894A7.894,7.894,0,0,1,270.261,17.867Zm0,0" transform="translate(-208.296 -8.163)" fill="#f1d54e"/>
      <path id="Path_136262" data-name="Path 136262" d="M59.835,226.938l6.509,28.133H32.813l6.509-28.133Zm0,0" transform="translate(-26.859 -185.757)" fill="#17c878"/>
      <path id="Path_136263" data-name="Path 136263" d="M51.788,400.845H10V386.51a4.537,4.537,0,0,1,4.537-4.537H47.251a4.537,4.537,0,0,1,4.537,4.537Zm0,0" transform="translate(-8.185 -312.659)" fill="#f1d54e"/>
      <path id="Path_136264" data-name="Path 136264" d="M89.194,180.671a10.257,10.257,0,1,1-10.257-10.257,10.256,10.256,0,0,1,10.257,10.257Zm0,0" transform="translate(-56.217 -139.491)" fill="#f1d54e"/>
      <path id="Path_136265" data-name="Path 136265" d="M92.38,52.8l-9.2-9.246V34.892a1.826,1.826,0,0,0-.017-.234,7.992,7.992,0,0,0-.788-10.366L60.923,2.843l-.011-.01a9.735,9.735,0,0,0-13.749.019L20.918,29.1a1.877,1.877,0,0,0-.15.172A12.088,12.088,0,0,0,10.654,40.948L4.444,67.793A6.362,6.362,0,0,0,0,73.85V88.186A1.813,1.813,0,0,0,1.725,90a.688.688,0,0,0,.089,0H75.306a1.815,1.815,0,0,0,0-3.629H45.417V73.85A6.363,6.363,0,0,0,41,67.8L35.127,42.426,56.533,21.02l13.79,13.79c0,.028,0,.055,0,.082v8.662l-9.2,9.246a1.814,1.814,0,0,0-.311,2.141L65.3,63.284a1.815,1.815,0,1,0,3.2-1.721l-3.856-7.157L72.906,46.1h7.685l8.266,8.306L85,61.563A1.814,1.814,0,1,0,88.2,63.284l4.5-8.343A1.817,1.817,0,0,0,92.38,52.8ZM73.949,37.415a8.014,8.014,0,0,0,5.6-.013V42.47h-5.6ZM25.673,29.476,44.422,10.726a9.7,9.7,0,0,0,8.639,8.634L34.376,38.045a12.115,12.115,0,0,0-8.7-8.569ZM58.366,5.419a6.105,6.105,0,0,1,.225,8.4A1.754,1.754,0,0,0,58.37,14a6.08,6.08,0,0,1-8.6-8.6,1.76,1.76,0,0,0,.145-.165,6.1,6.1,0,0,1,8.449.179ZM22.72,32.739a8.442,8.442,0,1,1-8.441,8.442,8.451,8.451,0,0,1,8.441-8.442ZM41.788,86.371H3.629V73.85a2.725,2.725,0,0,1,2.722-2.722H39.066a2.725,2.725,0,0,1,2.722,2.722ZM8.237,67.5l4.516-19.519a12.059,12.059,0,0,0,19.935,0L37.2,67.5Zm52.7-50.878a9.685,9.685,0,0,0,2.79-5.846L79.806,26.858a4.35,4.35,0,1,1-6.151,6.151L59.1,18.454Zm0,0"/>
      <path id="Path_136266" data-name="Path 136266" d="M117.014,220.563a1.815,1.815,0,1,0-1.283-.532A1.825,1.825,0,0,0,117.014,220.563Zm0,0" transform="translate(-94.295 -177.569)"/>
      <path id="Path_136267" data-name="Path 136267" d="M288.5,46.57a1.813,1.813,0,1,0-.532-1.283A1.82,1.82,0,0,0,288.5,46.57Zm0,0" transform="translate(-235.713 -35.584)"/>
      <path id="Path_136268" data-name="Path 136268" d="M102.837,423.973H94.792a1.815,1.815,0,1,0,0,3.629h8.045a1.815,1.815,0,1,0,0-3.629Zm0,0" transform="translate(-76.105 -347.038)"/>
      <path id="Path_136269" data-name="Path 136269" d="M47.975,423.973a1.816,1.816,0,1,0,1.283.532A1.832,1.832,0,0,0,47.975,423.973Zm0,0" transform="translate(-37.784 -347.038)"/>
      <path id="Path_136270" data-name="Path 136270" d="M185.944,423.973a1.816,1.816,0,1,0,1.283.532A1.828,1.828,0,0,0,185.944,423.973Zm0,0" transform="translate(-150.717 -347.038)"/>
      <path id="Path_136271" data-name="Path 136271" d="M414.616,158.633a1.815,1.815,0,1,0-1.283-.532A1.825,1.825,0,0,0,414.616,158.633Zm0,0" transform="translate(-337.894 -126.876)"/>
      <path id="Path_136272" data-name="Path 136272" d="M448.635,475.973a1.816,1.816,0,1,0,1.283.532A1.823,1.823,0,0,0,448.635,475.973Zm0,0" transform="translate(-365.739 -389.602)"/>
    </g>
  </g>
</svg>
