<svg xmlns="http://www.w3.org/2000/svg" xmlns:xlink="http://www.w3.org/1999/xlink" width="714" height="315" viewBox="0 0 714 315">
  <defs>
    <radialGradient id="radial-gradient" cx="0.5" cy="0.5" r="0.5" gradientUnits="objectBoundingBox">
      <stop offset="0.771" stop-color="#807f7d"/>
      <stop offset="1" stop-color="#fff" stop-opacity="0.4"/>
    </radialGradient>
    <linearGradient id="linear-gradient" x1="0.5" y1="1.165" x2="0.5" y2="0.307" gradientUnits="objectBoundingBox">
      <stop offset="0.014" stop-color="#cac8c8"/>
      <stop offset="0.812" stop-color="#fff"/>
    </linearGradient>
    <linearGradient id="linear-gradient-2" x1="0.5" y1="1.47" x2="0.5" y2="0.633" gradientUnits="objectBoundingBox">
      <stop offset="0" stop-color="#cac8c8"/>
      <stop offset="0.141" stop-color="#cac8c8"/>
      <stop offset="1" stop-color="#fff"/>
    </linearGradient>
  </defs>
  <g id="t2-i2" transform="translate(-443 -909)">
    <rect id="Rectangle_31461" data-name="Rectangle 31461" width="714" height="315" transform="translate(443 909)" fill="#fff"/>
    <g id="Group_96465" data-name="Group 96465" transform="translate(1049.808 4886.205)">
      <path id="Path_140141" data-name="Path 140141" d="M-174.224-3958.008H44.748v66.563a45.776,45.776,0,0,1-45.775,45.776H-220v-66.563a45.776,45.776,0,0,1,45.776-45.776" transform="translate(6.603 0.174)" fill="#f1d54e"/>
      <g id="Group_96442" data-name="Group 96442" transform="translate(-63.693 -3967.008)">
        <g id="Group_96437" data-name="Group 96437" transform="translate(122.18 36.852)">
          <path id="Path_140142" data-name="Path 140142" d="M47.733-3924.741a1.02,1.02,0,0,1-1.019-1.019v-4.078a1.02,1.02,0,0,1,1.019-1.019,1.019,1.019,0,0,1,1.019,1.019v4.078A1.019,1.019,0,0,1,47.733-3924.741Z" transform="translate(-46.714 3930.857)" fill="#f1d54e"/>
        </g>
        <g id="Group_96438" data-name="Group 96438" transform="translate(122.18 10.632)">
          <path id="Path_140143" data-name="Path 140143" d="M47.733-3934.875a1.02,1.02,0,0,1-1.019-1.019v-6.556a1.02,1.02,0,0,1,1.019-1.019,1.019,1.019,0,0,1,1.019,1.019v6.556A1.019,1.019,0,0,1,47.733-3934.875Zm0-13.11A1.019,1.019,0,0,1,46.714-3949v-6.555a1.02,1.02,0,0,1,1.019-1.019,1.019,1.019,0,0,1,1.019,1.019V-3949A1.018,1.018,0,0,1,47.733-3947.985Z" transform="translate(-46.714 3956.578)" fill="#f1d54e"/>
        </g>
        <g id="Group_96439" data-name="Group 96439" transform="translate(118.102)">
          <path id="Path_140144" data-name="Path 140144" d="M47.811-3960.892a1.02,1.02,0,0,1-1.019-1.019v-3.058H43.733a1.02,1.02,0,0,1-1.019-1.02,1.02,1.02,0,0,1,1.019-1.019h4.078a1.019,1.019,0,0,1,1.019,1.019v4.078A1.019,1.019,0,0,1,47.811-3960.892Z" transform="translate(-42.714 3967.008)" fill="#f1d54e"/>
        </g>
        <g id="Group_96440" data-name="Group 96440" transform="translate(11.679)">
          <path id="Path_140145" data-name="Path 140145" d="M38.155-3964.969h-7.6a1.02,1.02,0,0,1-1.019-1.02,1.02,1.02,0,0,1,1.019-1.019h7.6a1.02,1.02,0,0,1,1.019,1.019A1.02,1.02,0,0,1,38.155-3964.969Zm-15.2,0h-7.6a1.02,1.02,0,0,1-1.019-1.02,1.02,1.02,0,0,1,1.019-1.019h7.6a1.02,1.02,0,0,1,1.019,1.019A1.02,1.02,0,0,1,22.952-3964.969Zm-15.2,0H.147a1.02,1.02,0,0,1-1.019-1.02,1.02,1.02,0,0,1,1.019-1.019h7.6a1.02,1.02,0,0,1,1.019,1.019A1.02,1.02,0,0,1,7.748-3964.969Zm-15.2,0h-7.6a1.019,1.019,0,0,1-1.019-1.02,1.019,1.019,0,0,1,1.019-1.019h7.6a1.02,1.02,0,0,1,1.019,1.019A1.02,1.02,0,0,1-7.455-3964.969Zm-15.2,0h-7.6a1.019,1.019,0,0,1-1.019-1.02,1.019,1.019,0,0,1,1.019-1.019h7.6a1.02,1.02,0,0,1,1.019,1.019A1.02,1.02,0,0,1-22.658-3964.969Zm-15.2,0h-7.6a1.019,1.019,0,0,1-1.019-1.02,1.019,1.019,0,0,1,1.019-1.019h7.6a1.02,1.02,0,0,1,1.019,1.019A1.02,1.02,0,0,1-37.861-3964.969Zm-15.2,0h-7.6a1.02,1.02,0,0,1-1.019-1.02,1.02,1.02,0,0,1,1.019-1.019h7.6a1.02,1.02,0,0,1,1.019,1.019A1.02,1.02,0,0,1-53.065-3964.969Z" transform="translate(61.686 3967.008)" fill="#f1d54e"/>
        </g>
        <g id="Group_96441" data-name="Group 96441">
          <path id="Path_140146" data-name="Path 140146" d="M-68.046-3964.969h-4.078a1.02,1.02,0,0,1-1.019-1.02,1.02,1.02,0,0,1,1.019-1.019h4.078a1.019,1.019,0,0,1,1.019,1.019A1.019,1.019,0,0,1-68.046-3964.969Z" transform="translate(73.143 3967.008)" fill="#f1d54e"/>
        </g>
      </g>
      <g id="Group_96443" data-name="Group 96443" transform="translate(-222.571 -3967.008)">
        <path id="Path_140147" data-name="Path 140147" d="M-.853-3836.32H-227.981A1.02,1.02,0,0,1-229-3837.34v-74.718a55.013,55.013,0,0,1,54.951-54.951h94.9a1.02,1.02,0,0,1,1.019,1.019,1.02,1.02,0,0,1-1.019,1.02h-94.9a52.972,52.972,0,0,0-52.912,52.912v73.7H-.853a52.971,52.971,0,0,0,52.911-52.912v-25.6a1.02,1.02,0,0,1,1.019-1.02,1.019,1.019,0,0,1,1.019,1.02v25.6A55.013,55.013,0,0,1-.853-3836.32Z" transform="translate(229 3967.008)" fill="#f1d54e"/>
      </g>
      <path id="Path_140148" data-name="Path 140148" d="M-174.343-3951.841H38.341v60.276a39.534,39.534,0,0,1-39.489,39.49H-213.833v-60.276a39.534,39.534,0,0,1,39.49-39.49" transform="translate(6.723 0.294)" fill="#fff"/>
      <path id="Path_140149" data-name="Path 140149" d="M-332.743-3684.571H-551.714v-66.562a45.775,45.775,0,0,1,45.775-45.775h218.972v66.562a45.776,45.776,0,0,1-45.776,45.776" transform="translate(0.174 3.297)" fill="#f1d54e"/>
      <g id="Group_96449" data-name="Group 96449" transform="translate(-560.714 -3715.067)">
        <g id="Group_96444" data-name="Group 96444">
          <path id="Path_140150" data-name="Path 140150" d="M-559.695-3713.741a1.019,1.019,0,0,1-1.019-1.019v-4.078a1.019,1.019,0,0,1,1.019-1.019,1.02,1.02,0,0,1,1.019,1.019v4.078A1.02,1.02,0,0,1-559.695-3713.741Z" transform="translate(560.714 3719.857)" fill="#f1d54e"/>
        </g>
        <g id="Group_96445" data-name="Group 96445" transform="translate(0 10.632)">
          <path id="Path_140151" data-name="Path 140151" d="M-559.695-3687.724a1.019,1.019,0,0,1-1.019-1.019v-6.555a1.018,1.018,0,0,1,1.019-1.019,1.019,1.019,0,0,1,1.019,1.019v6.555A1.02,1.02,0,0,1-559.695-3687.724Zm0-13.109a1.019,1.019,0,0,1-1.019-1.019v-6.555a1.018,1.018,0,0,1,1.019-1.019,1.019,1.019,0,0,1,1.019,1.019v6.555A1.02,1.02,0,0,1-559.695-3700.834Z" transform="translate(560.714 3709.427)" fill="#f1d54e"/>
        </g>
        <g id="Group_96446" data-name="Group 96446" transform="translate(0 36.851)">
          <path id="Path_140152" data-name="Path 140152" d="M-555.617-3677.591h-4.078a1.019,1.019,0,0,1-1.019-1.019v-4.078a1.019,1.019,0,0,1,1.019-1.019,1.02,1.02,0,0,1,1.019,1.019v3.058h3.058a1.02,1.02,0,0,1,1.019,1.02A1.02,1.02,0,0,1-555.617-3677.591Z" transform="translate(560.714 3683.707)" fill="#f1d54e"/>
        </g>
        <g id="Group_96447" data-name="Group 96447" transform="translate(11.679 40.928)">
          <path id="Path_140153" data-name="Path 140153" d="M-449.416-3677.668h-7.6a1.02,1.02,0,0,1-1.019-1.019,1.02,1.02,0,0,1,1.019-1.02h7.6a1.02,1.02,0,0,1,1.019,1.02A1.02,1.02,0,0,1-449.416-3677.668Zm-15.2,0h-7.6a1.02,1.02,0,0,1-1.019-1.019,1.02,1.02,0,0,1,1.019-1.02h7.6a1.019,1.019,0,0,1,1.019,1.02A1.019,1.019,0,0,1-464.62-3677.668Zm-15.2,0h-7.6a1.02,1.02,0,0,1-1.019-1.019,1.02,1.02,0,0,1,1.019-1.02h7.6a1.019,1.019,0,0,1,1.019,1.02A1.019,1.019,0,0,1-479.823-3677.668Zm-15.2,0h-7.6a1.02,1.02,0,0,1-1.019-1.019,1.02,1.02,0,0,1,1.019-1.02h7.6a1.019,1.019,0,0,1,1.019,1.02A1.019,1.019,0,0,1-495.026-3677.668Zm-15.2,0h-7.6a1.02,1.02,0,0,1-1.019-1.019,1.02,1.02,0,0,1,1.019-1.02h7.6a1.02,1.02,0,0,1,1.019,1.02A1.02,1.02,0,0,1-510.229-3677.668Zm-15.2,0h-7.6a1.02,1.02,0,0,1-1.019-1.019,1.02,1.02,0,0,1,1.019-1.02h7.6a1.02,1.02,0,0,1,1.019,1.02A1.02,1.02,0,0,1-525.432-3677.668Zm-15.2,0h-7.6a1.02,1.02,0,0,1-1.019-1.019,1.02,1.02,0,0,1,1.019-1.02h7.6a1.02,1.02,0,0,1,1.019,1.02A1.02,1.02,0,0,1-540.636-3677.668Z" transform="translate(549.257 3679.707)" fill="#f1d54e"/>
        </g>
        <g id="Group_96448" data-name="Group 96448" transform="translate(118.102 40.928)">
          <path id="Path_140154" data-name="Path 140154" d="M-439.76-3677.668h-4.078a1.019,1.019,0,0,1-1.019-1.019,1.019,1.019,0,0,1,1.019-1.02h4.078a1.02,1.02,0,0,1,1.019,1.02A1.02,1.02,0,0,1-439.76-3677.668Z" transform="translate(444.857 3679.707)" fill="#f1d54e"/>
        </g>
      </g>
      <g id="Group_96450" data-name="Group 96450" transform="translate(-560.714 -3802.787)">
        <path id="Path_140155" data-name="Path 140155" d="M-332.568-3675.222h-94.9a1.02,1.02,0,0,1-1.019-1.019,1.02,1.02,0,0,1,1.019-1.02h94.9a52.972,52.972,0,0,0,52.912-52.912v-73.7H-505.764a52.97,52.97,0,0,0-52.911,52.911v25.6a1.02,1.02,0,0,1-1.019,1.02,1.019,1.019,0,0,1-1.019-1.02v-25.6a55.012,55.012,0,0,1,54.95-54.95h227.127a1.019,1.019,0,0,1,1.019,1.019v74.717A55.013,55.013,0,0,1-332.568-3675.222Z" transform="translate(560.714 3805.909)" fill="#f1d54e"/>
      </g>
      <path id="Path_140156" data-name="Path 140156" d="M-332.862-3690.977H-545.547v-60.276a39.534,39.534,0,0,1,39.489-39.49h212.686v60.276a39.534,39.534,0,0,1-39.49,39.49" transform="translate(0.294 3.416)" fill="#fff"/>
      <circle id="Ellipse_4273" data-name="Ellipse 4273" cx="107.035" cy="107.035" r="107.035" transform="translate(-357.129 -3926.589)" fill="url(#radial-gradient)" style="mix-blend-mode: multiply;isolation: isolate"/>
      <text id="Material" transform="translate(-122.755 -3895.518)" fill="#12263f" font-size="22" font-family="Roboto-Bold, Roboto" font-weight="700"><tspan x="0" y="0">Material</tspan></text>
      <text id="Financiero" transform="translate(-471.969 -3731.297)" fill="#12263f" font-size="22" font-family="Roboto-Bold, Roboto" font-weight="700"><tspan x="0" y="0">Financiero</tspan></text>
      <path id="Path_140157" data-name="Path 140157" d="M-174.224-3684.57A45.776,45.776,0,0,1-220-3730.346v-66.562H-1.028a45.775,45.775,0,0,1,45.775,45.775v66.563H-174.224" transform="translate(6.603 3.297)" fill="#17c878"/>
      <g id="Group_96456" data-name="Group 96456" transform="translate(-63.693 -3715.067)">
        <g id="Group_96451" data-name="Group 96451" transform="translate(0 40.928)">
          <path id="Path_140158" data-name="Path 140158" d="M-68.046-3677.668h-4.078a1.019,1.019,0,0,1-1.019-1.019,1.02,1.02,0,0,1,1.019-1.02h4.078a1.019,1.019,0,0,1,1.019,1.02A1.019,1.019,0,0,1-68.046-3677.668Z" transform="translate(73.143 3679.707)" fill="#17c878"/>
        </g>
        <g id="Group_96452" data-name="Group 96452" transform="translate(11.679 40.928)">
          <path id="Path_140159" data-name="Path 140159" d="M38.155-3677.668h-7.6a1.019,1.019,0,0,1-1.019-1.019,1.02,1.02,0,0,1,1.019-1.02h7.6a1.019,1.019,0,0,1,1.019,1.02A1.019,1.019,0,0,1,38.155-3677.668Zm-15.2,0h-7.6a1.019,1.019,0,0,1-1.019-1.019,1.019,1.019,0,0,1,1.019-1.02h7.6a1.02,1.02,0,0,1,1.019,1.02A1.019,1.019,0,0,1,22.952-3677.668Zm-15.2,0H.148a1.019,1.019,0,0,1-1.019-1.019,1.019,1.019,0,0,1,1.019-1.02h7.6a1.02,1.02,0,0,1,1.019,1.02A1.019,1.019,0,0,1,7.749-3677.668Zm-15.2,0h-7.6a1.019,1.019,0,0,1-1.019-1.019,1.02,1.02,0,0,1,1.019-1.02h7.6a1.02,1.02,0,0,1,1.019,1.02A1.019,1.019,0,0,1-7.454-3677.668Zm-15.2,0h-7.6a1.019,1.019,0,0,1-1.019-1.019,1.02,1.02,0,0,1,1.019-1.02h7.6a1.02,1.02,0,0,1,1.019,1.02A1.019,1.019,0,0,1-22.658-3677.668Zm-15.2,0h-7.6a1.019,1.019,0,0,1-1.019-1.019,1.019,1.019,0,0,1,1.019-1.02h7.6a1.02,1.02,0,0,1,1.019,1.02A1.019,1.019,0,0,1-37.861-3677.668Zm-15.2,0h-7.6a1.019,1.019,0,0,1-1.019-1.019,1.02,1.02,0,0,1,1.019-1.02h7.6a1.019,1.019,0,0,1,1.019,1.02A1.019,1.019,0,0,1-53.065-3677.668Z" transform="translate(61.686 3679.707)" fill="#17c878"/>
        </g>
        <g id="Group_96453" data-name="Group 96453" transform="translate(118.102 36.851)">
          <path id="Path_140160" data-name="Path 140160" d="M47.811-3677.591H43.733a1.019,1.019,0,0,1-1.019-1.019,1.02,1.02,0,0,1,1.019-1.02h3.058v-3.058a1.02,1.02,0,0,1,1.019-1.019,1.019,1.019,0,0,1,1.019,1.019v4.078A1.019,1.019,0,0,1,47.811-3677.591Z" transform="translate(-42.714 3683.707)" fill="#17c878"/>
        </g>
        <g id="Group_96454" data-name="Group 96454" transform="translate(122.18 10.632)">
          <path id="Path_140161" data-name="Path 140161" d="M47.733-3687.724a1.019,1.019,0,0,1-1.019-1.019v-6.555a1.02,1.02,0,0,1,1.019-1.019,1.019,1.019,0,0,1,1.019,1.019v6.555A1.019,1.019,0,0,1,47.733-3687.724Zm0-13.109a1.02,1.02,0,0,1-1.019-1.019v-6.555a1.02,1.02,0,0,1,1.019-1.019,1.019,1.019,0,0,1,1.019,1.019v6.555A1.019,1.019,0,0,1,47.733-3700.834Z" transform="translate(-46.714 3709.427)" fill="#17c878"/>
        </g>
        <g id="Group_96455" data-name="Group 96455" transform="translate(122.18)">
          <path id="Path_140162" data-name="Path 140162" d="M47.733-3713.741a1.02,1.02,0,0,1-1.019-1.019v-4.078a1.02,1.02,0,0,1,1.019-1.019,1.019,1.019,0,0,1,1.019,1.019v4.078A1.019,1.019,0,0,1,47.733-3713.741Z" transform="translate(-46.714 3719.857)" fill="#17c878"/>
        </g>
      </g>
      <g id="Group_96457" data-name="Group 96457" transform="translate(-222.571 -3802.787)">
        <path id="Path_140163" data-name="Path 140163" d="M-79.151-3675.222h-94.9A55.013,55.013,0,0,1-229-3730.172v-74.718a1.02,1.02,0,0,1,1.019-1.019H-.853a55.012,55.012,0,0,1,54.95,54.95v25.6a1.019,1.019,0,0,1-1.019,1.02,1.02,1.02,0,0,1-1.019-1.02v-25.6A52.97,52.97,0,0,0-.853-3803.87H-226.961v73.7a52.971,52.971,0,0,0,52.912,52.911h94.9a1.02,1.02,0,0,1,1.019,1.02A1.019,1.019,0,0,1-79.151-3675.222Z" transform="translate(229 3805.909)" fill="#17c878"/>
      </g>
      <path id="Path_140164" data-name="Path 140164" d="M-174.343-3690.976a39.534,39.534,0,0,1-39.49-39.49v-60.276H-1.147a39.534,39.534,0,0,1,39.489,39.489v60.277H-174.343" transform="translate(6.723 3.416)" fill="#fff"/>
      <path id="Path_140165" data-name="Path 140165" d="M-256-3822.357v97.314a97.315,97.315,0,0,0,97.314-97.314Z" transform="translate(5.906 2.803)" fill="#17c878"/>
      <path id="Path_140166" data-name="Path 140166" d="M-332.743-3958.008a45.776,45.776,0,0,1,45.776,45.776v66.563H-505.939a45.776,45.776,0,0,1-45.775-45.775v-66.564h218.971" transform="translate(0.174 0.174)" fill="#17c878"/>
      <g id="Group_96463" data-name="Group 96463" transform="translate(-560.714 -3967.008)">
        <g id="Group_96458" data-name="Group 96458" transform="translate(118.102)">
          <path id="Path_140167" data-name="Path 140167" d="M-439.76-3964.969h-4.078a1.019,1.019,0,0,1-1.019-1.02,1.019,1.019,0,0,1,1.019-1.019h4.078a1.02,1.02,0,0,1,1.019,1.019A1.02,1.02,0,0,1-439.76-3964.969Z" transform="translate(444.857 3967.008)" fill="#17c878"/>
        </g>
        <g id="Group_96459" data-name="Group 96459" transform="translate(11.679)">
          <path id="Path_140168" data-name="Path 140168" d="M-449.416-3964.969h-7.6a1.019,1.019,0,0,1-1.019-1.02,1.019,1.019,0,0,1,1.019-1.019h7.6a1.02,1.02,0,0,1,1.019,1.019A1.02,1.02,0,0,1-449.416-3964.969Zm-15.2,0h-7.6a1.02,1.02,0,0,1-1.019-1.02,1.02,1.02,0,0,1,1.019-1.019h7.6a1.019,1.019,0,0,1,1.019,1.019A1.019,1.019,0,0,1-464.62-3964.969Zm-15.2,0h-7.6a1.02,1.02,0,0,1-1.019-1.02,1.02,1.02,0,0,1,1.019-1.019h7.6a1.02,1.02,0,0,1,1.019,1.019A1.02,1.02,0,0,1-479.823-3964.969Zm-15.2,0h-7.6a1.02,1.02,0,0,1-1.019-1.02,1.02,1.02,0,0,1,1.019-1.019h7.6a1.02,1.02,0,0,1,1.019,1.019A1.02,1.02,0,0,1-495.026-3964.969Zm-15.2,0h-7.6a1.02,1.02,0,0,1-1.019-1.02,1.02,1.02,0,0,1,1.019-1.019h7.6a1.019,1.019,0,0,1,1.019,1.019A1.019,1.019,0,0,1-510.23-3964.969Zm-15.2,0h-7.6a1.02,1.02,0,0,1-1.019-1.02,1.02,1.02,0,0,1,1.019-1.019h7.6a1.019,1.019,0,0,1,1.019,1.019A1.019,1.019,0,0,1-525.433-3964.969Zm-15.2,0h-7.6a1.019,1.019,0,0,1-1.019-1.02,1.019,1.019,0,0,1,1.019-1.019h7.6a1.02,1.02,0,0,1,1.019,1.019A1.02,1.02,0,0,1-540.636-3964.969Z" transform="translate(549.257 3967.008)" fill="#17c878"/>
        </g>
        <g id="Group_96460" data-name="Group 96460">
          <path id="Path_140169" data-name="Path 140169" d="M-559.695-3960.892a1.019,1.019,0,0,1-1.019-1.019v-4.078a1.019,1.019,0,0,1,1.019-1.019h4.078a1.02,1.02,0,0,1,1.019,1.019,1.02,1.02,0,0,1-1.019,1.02h-3.058v3.058A1.02,1.02,0,0,1-559.695-3960.892Z" transform="translate(560.714 3967.008)" fill="#17c878"/>
        </g>
        <g id="Group_96461" data-name="Group 96461" transform="translate(0 10.632)">
          <path id="Path_140170" data-name="Path 140170" d="M-559.695-3934.875a1.019,1.019,0,0,1-1.019-1.019v-6.555a1.018,1.018,0,0,1,1.019-1.019,1.019,1.019,0,0,1,1.019,1.019v6.555A1.02,1.02,0,0,1-559.695-3934.875Zm0-13.109a1.019,1.019,0,0,1-1.019-1.019v-6.556a1.019,1.019,0,0,1,1.019-1.019,1.02,1.02,0,0,1,1.019,1.019V-3949A1.02,1.02,0,0,1-559.695-3947.984Z" transform="translate(560.714 3956.578)" fill="#17c878"/>
        </g>
        <g id="Group_96462" data-name="Group 96462" transform="translate(0 36.852)">
          <path id="Path_140171" data-name="Path 140171" d="M-559.695-3924.741a1.019,1.019,0,0,1-1.019-1.019v-4.078a1.019,1.019,0,0,1,1.019-1.019,1.02,1.02,0,0,1,1.019,1.019v4.078A1.02,1.02,0,0,1-559.695-3924.741Z" transform="translate(560.714 3930.857)" fill="#17c878"/>
        </g>
      </g>
      <g id="Group_96464" data-name="Group 96464" transform="translate(-560.714 -3967.008)">
        <path id="Path_140172" data-name="Path 140172" d="M-278.637-3836.32H-505.764a55.012,55.012,0,0,1-54.95-54.95v-25.6a1.019,1.019,0,0,1,1.019-1.02,1.02,1.02,0,0,1,1.019,1.02v25.6a52.971,52.971,0,0,0,52.911,52.911h226.108v-73.7a52.972,52.972,0,0,0-52.912-52.912h-94.9a1.02,1.02,0,0,1-1.019-1.02,1.02,1.02,0,0,1,1.019-1.019h94.9a55.013,55.013,0,0,1,54.951,54.951v74.718A1.02,1.02,0,0,1-278.637-3836.32Z" transform="translate(560.714 3967.008)" fill="#17c878"/>
      </g>
      <path id="Path_140173" data-name="Path 140173" d="M-332.862-3951.841a39.534,39.534,0,0,1,39.49,39.49v60.276H-506.058a39.534,39.534,0,0,1-39.489-39.489v-60.277h212.685" transform="translate(0.294 0.294)" fill="#fff"/>
      <text id="Humanos" transform="translate(-467.468 -3895.517)" fill="#12263f" font-size="22" font-family="Roboto-Bold, Roboto" font-weight="700"><tspan x="0" y="0">Humanos</tspan></text>
      <path id="Path_140174" data-name="Path 140174" d="M-254.15-3820.507v-97.314a97.314,97.314,0,0,0-97.314,97.314Z" transform="translate(4.055 0.953)" fill="#17c878"/>
      <path id="Path_140175" data-name="Path 140175" d="M-256-3820.508v-97.314a97.314,97.314,0,0,1,97.314,97.314Z" transform="translate(5.906 0.953)" fill="#f1d54e"/>
      <path id="Path_140176" data-name="Path 140176" d="M-254.15-3822.357v97.314a97.315,97.315,0,0,1-97.314-97.314Z" transform="translate(4.055 2.803)" fill="#f1d54e"/>
      <circle id="Ellipse_4274" data-name="Ellipse 4274" cx="90.106" cy="90.106" r="90.106" transform="translate(-340.2 -3909.66)" fill="url(#linear-gradient)"/>
      <text id="Técnico" transform="translate(-120.822 -3731.296)" fill="#12263f" font-size="22" font-family="Roboto-Bold, Roboto" font-weight="700"><tspan x="0" y="0">Técnico</tspan></text>
      <circle id="Ellipse_4275" data-name="Ellipse 4275" cx="83.202" cy="83.202" r="83.202" transform="translate(-166.892 -3736.351) rotate(180)" fill="url(#linear-gradient-2)"/>
      <text id="Empresa" transform="translate(-294.246 -3813.407)" fill="#12263f" font-size="22" font-family="Roboto-Bold, Roboto" font-weight="700"><tspan x="0" y="0">Empresa</tspan></text>
    </g>
  </g>
</svg>
