<svg xmlns="http://www.w3.org/2000/svg" width="266.333" height="202.472" viewBox="0 0 266.333 202.472">
  <g id="t2-i10" transform="translate(-243.058 -114.738)">
    <path id="Path_136515" data-name="Path 136515" d="M469.046,310.164l-229.484-.094s-38.781-63.384-18.1-105.786,50.892-12.471,53.411-43.105c.086-1.037.017-2.063.017-3.065,0-.238,0-.474.013-.709.774-17.593,10.454-28.963,23.228-35.5q.619-.318,1.246-.618c20.371-9.79,47.915-7.776,60.108.642,20.746,14.322,20.617,31.561,63.457,25.874s51.011,41.864,39.859,66.09C446.981,248.262,506.683,242.617,469.046,310.164Z" transform="translate(27.667)" fill="#fff"/>
    <g id="Group_94677" data-name="Group 94677" transform="translate(283.005 121.9)">
      <path id="Path_136516" data-name="Path 136516" d="M1825.584,763.253l-6.614-6.511-6.491-6.389a1.175,1.175,0,0,1-.274-1.134c.334-1.191,2.353-2.374,3.532-3.368l.119-.1a3.7,3.7,0,0,1,5.206.442L1829,755.6h0l2.353,2.79a3.7,3.7,0,0,1-.442,5.206l-.119.1A3.706,3.706,0,0,1,1825.584,763.253Z" transform="translate(-1701.12 -680.378)" fill="#ffb27d"/>
      <path id="Path_136517" data-name="Path 136517" d="M1260.531,387.17a3.023,3.023,0,0,1-2.7,2.365,28.1,28.1,0,0,1-14.048-1.667c-6.466.031-11.044-2.324-12.43-1.105-.051.044-.037.141.036.278,1.268,2.46,20.889,18.818,21.174,20.634.3,1.917-36.5,10.933-36.5,10.933s-5.437-3.389-11.525-7.838c-3.088-2.253-6.34-4.778-9.137-7.273a33.652,33.652,0,0,1-6.439-7.134l-.007-.014a8.712,8.712,0,0,1-.489-.939c-.022-.048-.042-.092-.058-.132a17.993,17.993,0,0,0-4.57-6.082,41.1,41.1,0,0,0-11.422-6.959l27.021-14.419s24.811,2.915,28.78,5.324c5.785,3.513,17.9,6.088,20.229,7.449,1.731,1.009,10.847,4.283,11.513,4.575A2.294,2.294,0,0,1,1260.531,387.17Z" transform="translate(-1134.142 -346.196)" fill="#ffb27d"/>
      <path id="Path_136518" data-name="Path 136518" d="M892.59,195.192s-.006.055-.022.159h0a67.563,67.563,0,0,1-1.923,8.979v0c-.047.16-.094.323-.143.485v0l-.066.218v0c-1.561,5.164-4.1,10.887-8.016,13.194h0q-.337.2-.687.362a7.247,7.247,0,0,1-1.7.554,6.972,6.972,0,0,1-1.354.13s-3.436-.413-8.576-1.038l-.86-.107c-9.293-1.134-23.5-2.891-33.4-4.215,0-.238,0-.474.016-.709.918-17.593,12.4-28.963,27.547-35.5,8.046,4.811,15.584,9.328,20.985,12.565a.006.006,0,0,1,0,0,.077.077,0,0,1,.013.008l1.009.6.02.013Z" transform="translate(-835.836 -177.706)" fill="#f99746"/>
      <path id="Path_136519" data-name="Path 136519" d="M1282.014,495.369a.316.316,0,0,1,.031.071c2.539,16.054,11.861,13.406,11.861,13.406l-.35,13.2c-3.088-2.253-6.34-4.778-9.137-7.273a33.649,33.649,0,0,1-6.439-7.134l-.007-.014c-.22-.4-.385-.715-.489-.939-.022-.048-.042-.092-.058-.132a18,18,0,0,0-4.57-6.082c.993-1.7,2.152-3.622,3.3-5.508A3.3,3.3,0,0,1,1282.014,495.369Z" transform="translate(-1223.153 -457.467)" fill="#efa26f"/>
      <path id="Path_136520" data-name="Path 136520" d="M1141.85,288.057s-8.718,7.541-12.309,12.839l2.6,4.513-4.426-.417s-2.254,8.181-1.03,10.944l12.07,1.136,13.914-22.264Z" transform="translate(-1093.286 -275.507)" fill="#ed7d2b"/>
      <path id="Path_136521" data-name="Path 136521" d="M1136.292,295.411c-.357-3.281,2.825-9.98,2.825-9.98l10.7,2.136-8.24-8.685c1.86-3.85,6.322-9.725,9.082-13.205,1.375-1.733,2.327-2.872,2.327-2.872,7.926,6.024,15.3,12.028,15.3,12.028-3.235,1.254-6.263,4.657-8.782,8.418a78.276,78.276,0,0,0-6.971,13.487C1146.117,296.131,1136.292,295.411,1136.292,295.411Z" transform="translate(-1102.096 -253.127)" fill="#dceaff"/>
      <path id="Path_136522" data-name="Path 136522" d="M1136.292,317.793c-.357-3.281,2.825-9.98,2.825-9.98l10.7,2.136-8.24-8.685c1.86-3.85,6.322-9.725,9.082-13.205.141,9.6,8.849,17.573,8.849,17.573a78.276,78.276,0,0,0-6.971,13.487C1146.117,318.513,1136.292,317.793,1136.292,317.793Z" transform="translate(-1102.096 -275.508)" fill="#cbe1fd"/>
      <path id="Path_136523" data-name="Path 136523" d="M1229.846,363.351a1.311,1.311,0,1,1-1.439,1.169A1.311,1.311,0,0,1,1229.846,363.351Z" transform="translate(-1183.753 -342.231)" fill="#f99746"/>
      <rect id="Rectangle_32112" data-name="Rectangle 32112" width="80.077" height="36.785" transform="matrix(0.962, -0.274, 0.274, 0.962, 61.592, 51.547)" fill="#82b378"/>
      <g id="Group_94671" data-name="Group 94671" transform="translate(65.775 34.823)">
        <rect id="Rectangle_32113" data-name="Rectangle 32113" width="80.077" height="36.785" transform="translate(0 14.523) rotate(-10.449)" fill="#a8d29f"/>
        <g id="Group_94669" data-name="Group 94669" transform="translate(3.603 3.421)">
          <path id="Path_136524" data-name="Path 136524" d="M1523.466,541.167l-3.36-18.219,0-.006-1.653-8.971-.86.158-14.747,2.72h0l-.168.031-11.047,2.036-1.413.26h0l-11.844,2.185-31.137,5.742-.006,0-.02,0-.529.1-.016,0-.013,0-.792.146,1.2,6.49,1.4,7.588,3.023,16.391,17.016-3.137.758-.14,2.822-.521.628-.116.828-.152.756-.14,1.443-.267,3.52-.649,1-.183,1.385-.256,1.209-.223,7.067-1.3h0l1.435-.265,1.131-.209,9.784-1.8,8.791-1.621,3.213-.593,9.807-1.809Zm-4.375,2.852-15.907,2.933h0l-1.9.35h0l-9.95,1.835-.924.171-7.02,1.294-2.221.409-1.426.264-1.02.188-3.321.612-1.374.253-.834.155-.792.146-.635.116-2.811.519-.8.147-12.178,2.245a3.5,3.5,0,0,1-4.08-2.81l-1.9-10.322-1.967-10.666a3.5,3.5,0,0,1,2.809-4.082l28.74-5.3L1493.032,520l3.831-.707h0l4.819-.888.157-.03h0l12.107-2.232a3.5,3.5,0,0,1,4.08,2.81l3.87,20.988a3.5,3.5,0,0,1-2.81,4.082Z" transform="translate(-1445.856 -513.97)" fill="#82b378"/>
        </g>
        <path id="Path_136525" data-name="Path 136525" d="M1719.132,642.828a9.221,9.221,0,1,1,7.591-10.6A9.221,9.221,0,0,1,1719.132,642.828Z" transform="translate(-1674.94 -608.515)" fill="#82b378"/>
        <g id="Group_94670" data-name="Group 94670" transform="translate(21.016 18.668)">
          <path id="Path_136526" data-name="Path 136526" d="M1602.922,714.17a3.4,3.4,0,1,1,2.8-3.915A3.4,3.4,0,0,1,1602.922,714.17Z" transform="translate(-1598.961 -700.654)" fill="#82b378"/>
          <path id="Path_136527" data-name="Path 136527" d="M1924.874,654.8a3.4,3.4,0,1,1,2.8-3.915A3.4,3.4,0,0,1,1924.874,654.8Z" transform="translate(-1884.297 -648.033)" fill="#82b378"/>
        </g>
      </g>
      <g id="Group_94675" data-name="Group 94675" transform="translate(91.509 72.586)">
        <g id="Group_94672" data-name="Group 94672" transform="translate(6.036 0.317)">
          <path id="Path_136528" data-name="Path 136528" d="M1695.984,829.644l-.29-.782-1.952-5.26a3.33,3.33,0,0,1-.115-.373,3.582,3.582,0,0,1,2.221-4.218l.2-.075a3.583,3.583,0,0,1,4.592,2.106l1.82,4.9.132.356.29.782a3.582,3.582,0,0,1-2.106,4.591l-.2.075A3.583,3.583,0,0,1,1695.984,829.644Z" transform="translate(-1693.52 -818.714)" fill="#ffb27d"/>
          <path id="Path_136529" data-name="Path 136529" d="M1706.464,836.495a20.93,20.93,0,0,1-1.016-3.315,1.4,1.4,0,0,1,.556-1.089,3.23,3.23,0,0,1,1.195-.65,3.775,3.775,0,0,1,.76-.173,3.209,3.209,0,0,1,.9.036.9.9,0,0,1,.64.505s0,0,0,0a20.684,20.684,0,0,1,1.222,3.19,1.381,1.381,0,0,1-.779,1.708l-.3.108-1.546.551A1.32,1.32,0,0,1,1706.464,836.495Z" transform="translate(-1704.087 -829.824)" fill="#ffd3b6"/>
          <path id="Path_136530" data-name="Path 136530" d="M1706.464,840.626a20.93,20.93,0,0,1-1.016-3.315,1.4,1.4,0,0,1,.556-1.089c.1-.043.211-.083.328-.12a3.776,3.776,0,0,1,.761-.173,3.2,3.2,0,0,1,.9.036.9.9,0,0,1,.64.505s0,0,0,0a20.69,20.69,0,0,1,1.222,3.19,1.508,1.508,0,0,1-.214,1.286l-1.546.551A1.32,1.32,0,0,1,1706.464,840.626Z" transform="translate(-1704.087 -833.955)" fill="#ffc197"/>
        </g>
        <g id="Group_94673" data-name="Group 94673" transform="translate(0 1.73)">
          <path id="Path_136531" data-name="Path 136531" d="M1641.59,838.218l-1.07-4.053a2.323,2.323,0,0,1,1.648-2.83l.459-.121a2.322,2.322,0,0,1,2.83,1.648l1.07,4.053a2.323,2.323,0,0,1-1.648,2.83l-.459.121A2.322,2.322,0,0,1,1641.59,838.218Z" transform="translate(-1640.444 -831.138)" fill="#ffb27d"/>
          <path id="Path_136532" data-name="Path 136532" d="M1648.008,841.612a18.278,18.278,0,0,1-.565-2.794,1.363,1.363,0,0,1,.884-1.1,3.064,3.064,0,0,1,1.167-.288,2.32,2.32,0,0,1,.691.1.717.717,0,0,1,.458.461l0,0a18.093,18.093,0,0,1,.732,2.707,1.145,1.145,0,0,1-.709,1.344l-.365.1-1.1.3A1.026,1.026,0,0,1,1648.008,841.612Z" transform="translate(-1646.647 -836.718)" fill="#ffd3b6"/>
          <path id="Path_136533" data-name="Path 136533" d="M1648.008,843.257a18.279,18.279,0,0,1-.565-2.794,1.363,1.363,0,0,1,.884-1.1,2.572,2.572,0,0,1,.559-.077,2.322,2.322,0,0,1,.691.1.719.719,0,0,1,.458.461l0,0a17.961,17.961,0,0,1,.731,2.707,1.221,1.221,0,0,1-.465,1.235l-1.1.3A1.026,1.026,0,0,1,1648.008,843.257Z" transform="translate(-1646.647 -838.362)" fill="#ffc197"/>
        </g>
        <g id="Group_94674" data-name="Group 94674" transform="translate(14.763)">
          <path id="Path_136534" data-name="Path 136534" d="M1771.742,827.108c-.01-.029-.02-.058-.029-.087l-1.32-5.313a4.383,4.383,0,0,1,2.845-5.336l1.1-.307a4.065,4.065,0,0,1,4.879,2.884l.436,1.754.884,3.559a4.383,4.383,0,0,1-2.845,5.336l-1.1.307A4.057,4.057,0,0,1,1771.742,827.108Z" transform="translate(-1770.253 -815.928)" fill="#ffb27d"/>
          <path id="Path_136535" data-name="Path 136535" d="M1787,854.46l-1.141-2.585,0-.016a2.74,2.74,0,0,1-.062-.312c-.006-.043-.011-.087-.015-.13a.341.341,0,0,1,0-.055.41.41,0,0,1,.582-.351,2.561,2.561,0,0,0,1.745.159l.225-.06.007,0,.733-.194a2.743,2.743,0,0,0,1.431-.923c.044-.052.084-.107.123-.162a.74.74,0,0,1,1.315.227c0,.006,0,.011,0,.016l.406,2.83a1.346,1.346,0,0,1-1.059,1.554l-.835.221-1.78.469C1787.97,855.333,1787.181,855.161,1787,854.46Z" transform="translate(-1784.008 -845.699)" fill="#ffd3b6"/>
          <path id="Path_136536" data-name="Path 136536" d="M1787,858.151l-1.141-2.585,0-.016c-.011-.06-.041-.25-.078-.5a.41.41,0,0,1,.582-.351,2.562,2.562,0,0,0,1.745.159l.225-.06.007,0,.733-.194a2.744,2.744,0,0,0,1.431-.923.719.719,0,0,1,.286.408s0,.01,0,.016l.406,2.83a1.286,1.286,0,0,1-.741,1.432l-1.78.469C1787.976,859.023,1787.187,858.851,1787,858.151Z" transform="translate(-1784.014 -849.389)" fill="#ffc197"/>
        </g>
      </g>
      <g id="Group_94676" data-name="Group 94676" transform="translate(91.209 26.577)">
        <path id="Path_136537" data-name="Path 136537" d="M1638.015,419.511s-1.3-10.163,2.668-7.753c5.785,3.513,17.9,6.087,20.229,7.447,1.73,1.009,10.847,4.283,11.512,4.577a2.035,2.035,0,0,1,.306,2.34,5.629,5.629,0,0,1-2.855,2.743c-5.665,2.2-13.382-2.385-13.629-2.383-6.467.031-12.75-.692-14.577-.43C1641.033,426.143,1638.015,419.511,1638.015,419.511Z" transform="translate(-1637.81 -411.388)" fill="#ffb27d"/>
        <path id="Path_136538" data-name="Path 136538" d="M1895.1,503.7l-6.4-2.328a3.3,3.3,0,0,0-.318,2.072C1888.685,504.244,1894.614,505.653,1895.1,503.7Z" transform="translate(-1859.806 -491.137)" fill="#ffc197"/>
      </g>
    </g>
    <g id="Group_94682" data-name="Group 94682" transform="translate(247.82 192.362)">
      <g id="Group_94678" data-name="Group 94678" transform="translate(7.413 23.343)">
        <path id="Path_136539" data-name="Path 136539" d="M914.369,1217.315l1.274,1.035s3.485-1.25,4.271,2.891c0,0,.209,1.765-.909,1.768a22.388,22.388,0,0,0-2.24-.147,2.864,2.864,0,0,1-3.127-2.073l-.757-1.088Z" transform="translate(-876.347 -1192.884)" fill="#ea8e50"/>
        <path id="Path_136540" data-name="Path 136540" d="M629.524,1029.154a2.605,2.605,0,0,0,.935-1.846s-11.769-9.635-12.962-10.42a145.2,145.2,0,0,1-13.531-12.9c-2.01-2.323-4.5-1.422-7.347-.6l-2.345.673a3.923,3.923,0,0,0-1.245,6.7c6.544,5.421,17.431,11.518,19.468,12.8,5.057,3.181,14.955,6.961,14.955,6.961A6.27,6.27,0,0,0,629.524,1029.154Z" transform="translate(-591.647 -1002.503)" fill="#1e3d70"/>
      </g>
      <path id="Path_136541" data-name="Path 136541" d="M1013.486,1757.333a8.871,8.871,0,0,0,7.232,1.009s3.528-.8,4.3.956c0,0-5.411,2.749-6.781,3.5a16.41,16.41,0,0,0-2.87,2.152,1.419,1.419,0,0,1-2.055-.158c-.238-.293-.51-.641-.809-1.046-.834-1.131-2.779-4.783-2.779-4.783Z" transform="translate(-954.766 -1648.143)" fill="#204272"/>
      <g id="Group_94681" data-name="Group 94681" transform="translate(16.123 2.775)">
        <circle id="Ellipse_4214" data-name="Ellipse 4214" cx="19.969" cy="19.969" r="19.969" transform="translate(1.742 28.24) rotate(-45)" fill="#e2810e"/>
        <circle id="Ellipse_4215" data-name="Ellipse 4215" cx="19.969" cy="19.969" r="19.969" transform="translate(0 28.24) rotate(-45)" fill="#ffc76c"/>
        <g id="Group_94679" data-name="Group 94679" transform="translate(10.046 10.282)">
          <path id="Path_136542" data-name="Path 136542" d="M774.759,948.455a18.194,18.194,0,1,1,12.865-5.329A18.074,18.074,0,0,1,774.759,948.455Zm0-35.3a17.108,17.108,0,1,0,17.108,17.108A17.128,17.128,0,0,0,774.759,913.153Z" transform="translate(-756.565 -912.068)" fill="#ffa412"/>
        </g>
        <g id="Group_94680" data-name="Group 94680" transform="translate(20.272 15.04)">
          <path id="Path_136543" data-name="Path 136543" d="M856.947,972.615a3,3,0,0,0-.043-1.057,2.195,2.195,0,0,0-.447-.877,4.147,4.147,0,0,0-.893-.788,10.93,10.93,0,0,0-1.384-.775,28.71,28.71,0,0,1-2.556-1.4,9.05,9.05,0,0,1-1.911-1.556,5.327,5.327,0,0,1-1.129-1.9,6.013,6.013,0,0,1,.486-4.547,5.057,5.057,0,0,1,1.41-1.566,6.316,6.316,0,0,1,2.019-.961,8.422,8.422,0,0,1,2.521-.29l.356-3,2.414.286-.361,3.041a7.55,7.55,0,0,1,2.272.966,5.706,5.706,0,0,1,2.543,3.648,7.6,7.6,0,0,1,.1,2.577l-4.359-.517a3.7,3.7,0,0,0-.448-2.6,2.569,2.569,0,0,0-1.9-1.071,3.262,3.262,0,0,0-1.191.051,2.214,2.214,0,0,0-.869.422,2.066,2.066,0,0,0-.56.722,3.035,3.035,0,0,0-.266.949,2.781,2.781,0,0,0,.039.956,2.058,2.058,0,0,0,.428.84,4.153,4.153,0,0,0,.9.789,14.036,14.036,0,0,0,1.439.832q1.4.72,2.53,1.437a9.164,9.164,0,0,1,1.9,1.568,5.144,5.144,0,0,1,1.324,4.314,5.5,5.5,0,0,1-.693,2.163,5,5,0,0,1-1.416,1.552,6.1,6.1,0,0,1-2.03.925,9.1,9.1,0,0,1-2.533.268l-.331,2.789-2.4-.285.329-2.775a10.187,10.187,0,0,1-2.356-.834,6.46,6.46,0,0,1-1.93-1.458,5.781,5.781,0,0,1-1.211-2.169,7.037,7.037,0,0,1-.2-2.951l4.36.517a4.337,4.337,0,0,0,.082,1.694,2.805,2.805,0,0,0,.62,1.154,2.722,2.722,0,0,0,1,.687,4.663,4.663,0,0,0,1.2.305,3.9,3.9,0,0,0,1.266-.034,2.6,2.6,0,0,0,.958-.4,2.07,2.07,0,0,0,.634-.7A2.52,2.52,0,0,0,856.947,972.615Z" transform="translate(-846.474 -953.898)" fill="#ffa412"/>
        </g>
      </g>
      <path id="Path_136544" data-name="Path 136544" d="M714.386,1350.124s-1.739,4.01-5.753,3.273a112.038,112.038,0,0,1-13.81-13.792,31.209,31.209,0,0,1-4.292-6.707c-3.726-8.627-13.783-21.494-20.177-28.015l16-5.787s5.124,10.308,11.942,22.969C703.206,1331.187,709,1341.532,714.386,1350.124Z" transform="translate(-653.989 -1242.021)" fill="#2b478b"/>
      <path id="Path_136545" data-name="Path 136545" d="M698.293,1322.064l-3.471,17.54a31.209,31.209,0,0,1-4.292-6.707c-3.726-8.627-13.783-21.494-20.177-28.015l16-5.787S691.475,1309.4,698.293,1322.064Z" transform="translate(-653.989 -1242.021)" fill="#233862"/>
      <path id="Path_136546" data-name="Path 136546" d="M756.194,1764.127s-.174,3.2,3.7,3.627c0,0,2.4.062,2.407,2.1l-11.682,0s-.1-.832-.183-2.591c-.061-1.351,1.31-4.883,1.31-4.883Z" transform="translate(-724.966 -1652.61)" fill="#204272"/>
      <path id="Path_136547" data-name="Path 136547" d="M643.774,1293.563s7.127,7.831,11.651,21.94c2.461,7.676-4.512,26.976-5.871,33.681,0,0-4.678.4-7.876-.839,0,0-.243-13.85,1.628-24.525,1.047-5.974-9.384-12.777-13.941-23.571-3.1-7.344.671-7.219,5.307-7.4Z" transform="translate(-616.66 -1236.489)" fill="#2b478b"/>
      <path id="Path_136548" data-name="Path 136548" d="M598.385,916.584c-3.965,2.239-12.083.174-12.083.174a11.308,11.308,0,0,0,1.8-9.838l3.113,1.581,3.344,1.7a27.72,27.72,0,0,1,.367,3c.038.5.073,1.05.1,1.655A10.4,10.4,0,0,1,598.385,916.584Z" transform="translate(-579.497 -894.448)" fill="#ffb07b"/>
      <path id="Path_136549" data-name="Path 136549" d="M589.644,1011.621c0,.7-.8,1.031-.973,1.064-1.6.292-6.065,2.029-10.087,2.428a32.26,32.26,0,0,1-9.987-.676c-.458-.092-1.531-.381-1.608-.82-.1-.479-13.326-26.973-3.041-38.354.242-.267,2.272.214,4.129.655a7.622,7.622,0,0,0,4.692-.383l1.741.916c2.138,1.192,6.184,5.425,6.658,8.747.24,1.689,1.206,2.94,1.486,4.426q.156.825.318,1.61.316,1.54.651,2.932c.6,2.512,1.244,4.675,1.871,6.544.667,1.984,1.322,3.634,1.906,5.014.758,1.79,1.4,3.128,1.8,4.152A5.115,5.115,0,0,1,589.644,1011.621Z" transform="translate(-556.217 -954.951)" fill="#aec3ff"/>
      <path id="Path_136550" data-name="Path 136550" d="M620.521,1079.945a51.986,51.986,0,0,1-25.146-25.7s15.175,5.6,18.918,7.055q.316,1.54.651,2.932c.6,2.512,1.244,4.675,1.871,6.544.667,1.984,1.322,3.634,1.906,5.014C619.48,1077.583,620.12,1078.921,620.521,1079.945Z" transform="translate(-587.538 -1025.021)" fill="#91b0f2"/>
      <path id="Path_136551" data-name="Path 136551" d="M905.994,1234.547l1.614.592a3.452,3.452,0,0,1,5.244,1.431s.728,1.624-.424,1.976-.733.021-2.353.56-3.215.151-3.827-1.006l-1.1-.8Z" transform="translate(-862.084 -1184.722)" fill="#ffb07b"/>
      <path id="Path_136552" data-name="Path 136552" d="M613.25,1037.776c.6-1.557.869-2.262.869-2.262s-12.2-9.941-13.438-10.793c-.847-.581-9.277-6.882-13.387-11.793a8.6,8.6,0,0,0-8.362-2.9l-2.56.537a3.807,3.807,0,0,0-1.7,6.617c6.753,5.79,18.145,12.505,20.268,13.9,5.272,3.467,16.934,8.326,16.934,8.326A3,3,0,0,0,613.25,1037.776Z" transform="translate(-568.011 -985.669)" fill="#aec3ff"/>
      <path id="Path_136553" data-name="Path 136553" d="M611.972,925.518a8.346,8.346,0,0,1-6.435-3,30.972,30.972,0,0,0,2.724-1.7l3.344,1.7A27.743,27.743,0,0,1,611.972,925.518Z" transform="translate(-596.544 -906.769)" fill="#ea8e50"/>
      <path id="Path_136554" data-name="Path 136554" d="M585.1,849.4s-5.908,4.24-8.492.52-5.086-5.678-1.423-8.542,5.39-1.959,6.554-.927S586.57,848.2,585.1,849.4Z" transform="translate(-568.011 -834.65)" fill="#ffb07b"/>
      <path id="Path_136555" data-name="Path 136555" d="M540.82,799.694a9.517,9.517,0,0,0-.688-2.436s-.371,1.536-3.178,1.324-7.255.276-8.738,3.474c-.094.2-.179.413-.253.628a7.4,7.4,0,0,1-.333-1.772,5.46,5.46,0,0,0,0,3.1h0c-.008.05-.015.1-.022.151a6.251,6.251,0,0,0-1.14,2.152,1.95,1.95,0,0,1,1.049-.933c-.013,2.489,1,4.922,2.768,5.646,2.59,1.059,2.57.251,5.175,1.979,0,0,.7-.867.222-1.45s-2.277-1.43-1.271-2.277,1.377.106,1.748-.477-1.483-2.277.9-3.866S541.032,801.124,540.82,799.694Z" transform="translate(-526.468 -797.258)" fill="#233862"/>
    </g>
    <g id="Group_94684" data-name="Group 94684" transform="translate(417.486 180.586)">
      <path id="Path_136556" data-name="Path 136556" d="M2577.189,1180.077a1.6,1.6,0,0,1,.563.9,6.9,6.9,0,0,1-.041,1.772c-.078,1.228,1.621,3.033,2.719,3.66s0-2.615,0-3.4a4.679,4.679,0,0,0-.575-3.137C2578.967,1178.09,2577.189,1180.077,2577.189,1180.077Z" transform="translate(-2513.625 -1123.922)" fill="#ffb27d"/>
      <path id="Path_136557" data-name="Path 136557" d="M2359.2,880.3a5.109,5.109,0,0,1,7.7-4.809q.109.066.216.135c5.3,3.41,15.474,17.28,16.981,20.04,1.57,2.876,3.646,15.155,3.646,15.155s-2.87,1.05-4.212-.039c0,0-4.49-10.649-6.139-12.475-1.738-1.925-17.82-10.815-17.973-14.586C2359.372,882.722,2359.292,881.523,2359.2,880.3Z" transform="translate(-2320.409 -854.164)" fill="#ed7d2b"/>
      <g id="Group_94683" data-name="Group 94683" transform="translate(32.013 57.493)">
        <path id="Path_136558" data-name="Path 136558" d="M2580.317,1735.321s2.136,1.949,1.719,3.335-2.344,2.309-2.6,4-1.3,2.617-2.24,2.617h-4.472s-.69-1.192.977-1.551,2.3-2.349,2.191-4.2a32.559,32.559,0,0,1,.157-4.31l3.543-.821Z" transform="translate(-2541.551 -1673.532)" fill="#224275"/>
        <path id="Path_136559" data-name="Path 136559" d="M2312.328,1773.473s.384,4.437-.554,4.9l-12-.025s0-1.385,1.928-1.693,5.315-1.437,5.888-3.95S2312.328,1773.473,2312.328,1773.473Z" transform="translate(-2299.771 -1706.642)" fill="#224275"/>
        <path id="Path_136560" data-name="Path 136560" d="M2321.08,1227.376s.633,7.777,1.377,17.126c1.011,12.7,2.227,28.3,2.348,31.254.208,5.131,1.042,13.34,1.042,13.34s1.979,1.95,5.94,1.128a132.468,132.468,0,0,0,4.538-24.115c.016-.2.031-.408.047-.613.938-12.621,2.4-39.2,2.4-39.2Z" transform="translate(-2318.656 -1223.221)" fill="#aec3ff"/>
        <path id="Path_136561" data-name="Path 136561" d="M2321.08,1227.376s.633,7.777,1.377,17.126l13.868,21.607c.016-.2.031-.408.047-.613.938-12.621,2.4-39.2,2.4-39.2Z" transform="translate(-2318.656 -1223.221)" fill="#91b0f2"/>
        <path id="Path_136562" data-name="Path 136562" d="M2346.5,1204.312s11.411,28.167,18.914,41.4,9.848,16.931,9.848,16.931,4.3-1.693,4.689-2.847c0,0-2.869-25.554-7.894-31.784-2.839-3.52-6.174-14.083-6.331-17.777s-1.016-11-1.016-11Z" transform="translate(-2341.186 -1199.233)" fill="#aec3ff"/>
      </g>
      <path id="Path_136563" data-name="Path 136563" d="M2338.543,800.1s-7.646,3.878-12.123,2.584a9.865,9.865,0,0,1,1.737-1.662,2.457,2.457,0,0,0,.952-2.34c-.044-.279-.083-.541-.114-.787a16.639,16.639,0,0,1-.186-2.6l2.882-2.176,2.78-2.3A11.384,11.384,0,0,0,2338.543,800.1Z" transform="translate(-2291.376 -779.778)" fill="#ffb27d"/>
      <path id="Path_136564" data-name="Path 136564" d="M2316.089,893.134a31.5,31.5,0,0,1-9.429,4.062c-4.034.956-8.992.674-10.651.927a.688.688,0,0,1-.484-.122c-.13-.067-.862-4.987-1.6-11.2-.032-.25-.067-.5-.081-.755l-.011-.084c-.285-2.428-.535-4.978-.752-7.535-.177-1.989-.323-3.956-.423-5.8-.127-2.312-.18-4.435-.127-6.183.023-.8.07-1.516.141-2.14a15.148,15.148,0,0,1,3.584-8.162l1.883-1.511a6.557,6.557,0,0,0,4.359-1.208c1.651-1.087,3.433-2.256,3.769-2.06,2.53,1.384,4.591,4.972,6.062,9.71a54.011,54.011,0,0,1,1.905,9.1c.134,1.017.247,2.06.333,3.1.017.192.031.384.046.574.2,2.84.522,5.5.882,7.879.484,3.206,1.034,5.891,1.423,7.783.2.963.344,1.707.433,2.24C2317.437,892.208,2316.5,892.875,2316.089,893.134Z" transform="translate(-2261.328 -833.412)" fill="#f99746"/>
      <path id="Path_136565" data-name="Path 136565" d="M2352.708,810.122a10.231,10.231,0,0,1-5.575,4.663,30.439,30.439,0,0,1-.235-4.9l2.932.13Z" transform="translate(-2309.512 -796.668)" fill="#ed985f"/>
      <path id="Path_136566" data-name="Path 136566" d="M2322.609,730.262s6.908,2.825,8.6-1.432,3.718-6.76-.621-8.745-5.845-.7-6.761.587S2320.856,729.417,2322.609,730.262Z" transform="translate(-2287.391 -716.178)" fill="#ffb27d"/>
      <path id="Path_136567" data-name="Path 136567" d="M2331.2,698.268c.083-.06.247-.085.585-.027a1.392,1.392,0,0,0-.584-.32,1.727,1.727,0,0,0-.776-1.745,1.03,1.03,0,0,1,.32.836c-.708-1.166-2.535-2.315-8.136-3.147-7.382-1.1-6.06,4.1-5.249,4.865s3.523-.2,5.24.337,1.468,3.144,1.982,3.628.421-.184,1.307-.362.656,1.169.226,1.981.41,2.206.41,2.206l1.39-.944c1.391-.944,3.611-5.786,3.353-6.986C2331.249,698.483,2331.227,698.376,2331.2,698.268Z" transform="translate(-2282.778 -693.714)" fill="#2c3a64"/>
      <path id="Path_136568" data-name="Path 136568" d="M2305.5,984.541s-6.229,4.739-12.832,5.778c-.127-2.312-.18-4.435-.127-6.183Z" transform="translate(-2261.328 -951.106)" fill="#ed7d2b"/>
      <path id="Path_136569" data-name="Path 136569" d="M2025.593,802.006c-.062-.13-.019-4.562-2.208-4.916-1.429-.231-5.131-1.219-5.1.768.014.782,4.646,5.6,4.646,5.6Z" transform="translate(-2018.289 -784.934)" fill="#ffb27d"/>
      <path id="Path_136570" data-name="Path 136570" d="M2097.032,846.322a5.109,5.109,0,0,1-3.193,8.5c-.084.009-.169.017-.253.024-6.281.51-24.149-4.608-26.622-5.975-4.105-2.271-11.143-9.452-11.143-9.452s1.642-2.577,3.37-2.527c0,0,9.421,6,12.793,6.718,2.276.484,20.386-2.772,22.8.131C2095.42,844.5,2096.212,845.408,2097.032,846.322Z" transform="translate(-2051.552 -820.603)" fill="#f99746"/>
      <path id="Path_136571" data-name="Path 136571" d="M2602.593,1197.414s.335.738.573,1.313.369,1.647.186,1.543a5.475,5.475,0,0,1-1.046-1.258C2602.1,1198.623,2602.593,1197.414,2602.593,1197.414Z" transform="translate(-2535.839 -1140.128)" fill="#ffb27d"/>
    </g>
    <g id="Group_94685" data-name="Group 94685" transform="translate(318.075 224.528)" opacity="0.5">
      <path id="Path_136572" data-name="Path 136572" d="M1267.44,1109.848s-2.172-18.2-11.5-29.053a2.035,2.035,0,0,0-3.571,1.377c0,.032,0,.064,0,.1C1252.5,1085.514,1262.937,1099.2,1267.44,1109.848Z" transform="translate(-1240.071 -1080.088)" fill="#afcdfb" opacity="0.5"/>
      <path id="Path_136573" data-name="Path 136573" d="M1172.7,1129.285s-9.291-22.742-25.16-32.8a2.158,2.158,0,0,0-2.927.553,3.425,3.425,0,0,0-.138,3.076C1145.741,1104.114,1163.44,1117.578,1172.7,1129.285Z" transform="translate(-1144.199 -1094.315)" fill="#afcdfb" opacity="0.5"/>
    </g>
    <path id="Path_136574" data-name="Path 136574" d="M960.662,1372.521c.913-9.479,16.687-9.248,16.687-9.248s13.08,14.093,16.165,13.957S984.683,1363,984.683,1363c5.756-1.562,21.891,3.076,21.891,3.076s2.2,18.662,5.159,17.771-2.793-16.425-2.793-16.425c5.953.736,12.362,6.445,12.362,6.445,8.438,9.638-4.373,19.975-4.373,19.975a30.55,30.55,0,0,0,6.119,13.14h0a22.162,22.162,0,0,1,2.428,3.363l-1.544.263q-.295-.589-.623-1.127a.009.009,0,0,0,0-.006l-.01-.016c-.146-.221-.356-.534-.616-.916h0v0c-.629-.843-1.063-1.471-1.349-1.929l0,0c-1.906-2.658-4.585-6.089-6.078-6.651a3.028,3.028,0,0,0,.21-.764l-.21.764c-1.68,6.113-14.735,9.3-22.354,9.046s-4.763-2.881-1.372-6.925,11.849-4.569,14.079-6.308-1.582-2.45-6.427-1.238-6.464,6.538-14.265,8.642-16.379-11.784-16.379-11.784c5.764.768,15.067-3.922,15.124-5.874s-14.448.709-16.81.528S959.748,1382,960.662,1372.521Z" transform="translate(-663.358 -1106.009)" fill="#afcdfb" opacity="0.5"/>
    <path id="Path_136575" data-name="Path 136575" d="M1909.345,1356.8c.152-7.006-11.394-8.2-11.394-8.2s-10.776,9.167-13.018,8.8,7.683-9.637,7.683-9.637c-4.071-1.639-16.261.356-16.261.356s-3.222,13.446-5.306,12.54,3.46-11.76,3.46-11.76c-4.413.023-9.59,3.641-9.59,3.641-7,6.313,1.469,14.974,1.469,14.974a22.481,22.481,0,0,1-5.607,9.073h0a16.3,16.3,0,0,0-2.065,2.247l1.105.326q.267-.405.553-.77a.007.007,0,0,1,0,0l.008-.01c.126-.148.306-.359.529-.616h0c.532-.562.9-.983,1.153-1.293l0,0c1.623-1.778,3.877-4.053,5.016-4.334a2.227,2.227,0,0,1-.087-.577l.087.577c.7,4.612,9.963,8.073,15.553,8.542s3.73-1.693,1.6-4.942-8.263-4.363-9.742-5.826,1.368-1.654,4.8-.349,4.158,5.336,9.677,7.548,12.986-7.2,12.986-7.2c-4.278.063-10.671-4.168-10.544-5.6s10.5,1.766,12.238,1.838S1909.193,1363.8,1909.345,1356.8Z" transform="translate(-1459.378 -1092.217)" fill="#afcdfb" opacity="0.5"/>
    <g id="Group_94687" data-name="Group 94687" transform="translate(323.106 221.915)">
      <g id="Group_94686" data-name="Group 94686" transform="translate(0)">
        <path id="Path_136576" data-name="Path 136576" d="M1201.532,1398.518v8.865a3.168,3.168,0,0,1-3.226,3.086h-6.642a3.168,3.168,0,0,1-3.226-3.086v-8.865a3.168,3.168,0,0,1,3.226-3.086h6.642A3.168,3.168,0,0,1,1201.532,1398.518Z" transform="translate(-1188.438 -1356.955)" fill="#ed7d2b"/>
        <path id="Path_136577" data-name="Path 136577" d="M1201.532,1398.518v4.939a3.169,3.169,0,0,1-3.226,3.086h-6.642a3.169,3.169,0,0,1-3.226-3.086v-4.939a3.168,3.168,0,0,1,3.226-3.086h6.642A3.168,3.168,0,0,1,1201.532,1398.518Z" transform="translate(-1188.438 -1356.955)" fill="#f99746"/>
        <path id="Path_136578" data-name="Path 136578" d="M1336.2,1204.442a31.45,31.45,0,0,1-2.722,12.81,34.672,34.672,0,0,1-31.771,20.183h-9.861q-.887,0-1.763-.042a35.243,35.243,0,0,1-19.28-6.855,33.876,33.876,0,0,1-8.639-9.342,31.552,31.552,0,0,1-2.088-29.564,34.669,34.669,0,0,1,31.77-20.182h9.861a34.849,34.849,0,0,1,30.173,17.055A31.609,31.609,0,0,1,1336.2,1204.442Z" transform="translate(-1249.521 -1158.446)" fill="#ed7d2b"/>
        <path id="Path_136579" data-name="Path 136579" d="M1672.917,1593.13l-3.218,19.983a2.466,2.466,0,0,0,2.467,3.063h8.455a4.872,4.872,0,0,0,4.3-2.509l13.141-25.072Z" transform="translate(-1614.889 -1528.148)" fill="#ed7d2b"/>
        <path id="Path_136580" data-name="Path 136580" d="M1325.89,1634.124h-8.455a4.87,4.87,0,0,1-4.3-2.51L1305,1617.89l-5.356-9.044,26.128,2.576.944,7.183.846,6.438.791,6.018A2.467,2.467,0,0,1,1325.89,1634.124Z" transform="translate(-1287.001 -1546.097)" fill="#ed7d2b"/>
        <path id="Path_136581" data-name="Path 136581" d="M1331.011,1200.628c-6.962,19.151-13.551,29.39-40.236,30.281q-.776.026-1.534.045a177.6,177.6,0,0,1-18.434-.417c-1.2-.094-2.295-.2-3.283-.3l-5.356-9.044a31.552,31.552,0,0,1-2.088-29.564,34.669,34.669,0,0,1,31.77-20.182h9.861a34.849,34.849,0,0,1,30.173,17.055A25.878,25.878,0,0,1,1331.011,1200.628Z" transform="translate(-1249.521 -1158.446)" fill="#f99746"/>
        <path id="Path_136582" data-name="Path 136582" d="M1399.855,1078.384h-13.566c-1.368,0-2.477-.794-2.477-1.775v-17.717a1.385,1.385,0,0,1,.271-.816,3.063,3.063,0,0,1,3.7-.6c5.151,2.793,13.589,8.862,14.539,19.011C1402.423,1077.514,1401.289,1078.384,1399.855,1078.384Z" transform="translate(-1361.592 -1057.114)" fill="#f99746"/>
        <path id="Path_136583" data-name="Path 136583" d="M1386.841,1085.873h-.552c-1.368,0-2.477-.795-2.477-1.775v-17.718a1.385,1.385,0,0,1,.271-.816,1.742,1.742,0,0,1,.167.156,21.632,21.632,0,0,1,6,17.938C1390.074,1084.916,1388.6,1085.873,1386.841,1085.873Z" transform="translate(-1361.592 -1064.604)" fill="#ed7d2b"/>
        <path id="Path_136584" data-name="Path 136584" d="M1347.571,1333.2a2.023,2.023,0,1,1,2.021,1.933A1.979,1.979,0,0,1,1347.571,1333.2Z" transform="translate(-1329.473 -1300.091)" fill="#2b478b"/>
      </g>
    </g>
    <path id="Path_136585" data-name="Path 136585" d="M1705.736,1797.092v2.066a.705.705,0,0,0,.162.445.941.941,0,0,0,.445.3,1.01,1.01,0,0,0,.174.041,1.073,1.073,0,0,0,.167.013h39.193a.9.9,0,0,0,.947-.756c0-.013,0-.027,0-.041v-2.066c0-.014,0-.027,0-.041a.9.9,0,0,0-.947-.755h-39.193a1.1,1.1,0,0,0-.167.013,1.01,1.01,0,0,0-.174.041.942.942,0,0,0-.445.3A.7.7,0,0,0,1705.736,1797.092Z" transform="translate(-1323.797 -1490.312)" fill="#ffc76c"/>
    <path id="Path_136586" data-name="Path 136586" d="M1874.957,1799.954h21a.829.829,0,0,0,.846-.756c0-.013,0-.027,0-.041v-2.066c0-.014,0-.027,0-.041a.829.829,0,0,0-.846-.755h-18.418A6.415,6.415,0,0,1,1874.957,1799.954Z" transform="translate(-1473.772 -1490.312)" fill="#ffae39"/>
    <g id="Group_94688" data-name="Group 94688" transform="translate(382.102 305.983)">
      <rect id="Rectangle_32114" data-name="Rectangle 32114" width="0.445" height="3.659" transform="translate(5.052 3.659) rotate(180)" fill="#ffa412"/>
      <rect id="Rectangle_32115" data-name="Rectangle 32115" width="0.445" height="3.659" transform="translate(6.56 3.659) rotate(180)" fill="#ffa412"/>
      <rect id="Rectangle_32116" data-name="Rectangle 32116" width="0.445" height="3.659" transform="translate(8.368 3.659) rotate(180)" fill="#ffa412"/>
      <rect id="Rectangle_32117" data-name="Rectangle 32117" width="0.445" height="3.659" transform="translate(11.14 3.659) rotate(180)" fill="#ffa412"/>
      <rect id="Rectangle_32118" data-name="Rectangle 32118" width="0.445" height="3.659" transform="translate(14.07 3.659) rotate(180)" fill="#ffa412"/>
      <rect id="Rectangle_32119" data-name="Rectangle 32119" width="0.445" height="3.659" transform="translate(18.563 3.659) rotate(180)" fill="#ffa412"/>
      <rect id="Rectangle_32120" data-name="Rectangle 32120" width="0.445" height="3.659" transform="translate(22.77 3.659) rotate(180)" fill="#ffa412"/>
      <rect id="Rectangle_32121" data-name="Rectangle 32121" width="0.445" height="3.659" transform="translate(26.527 3.659) rotate(180)" fill="#ffa412"/>
      <rect id="Rectangle_32122" data-name="Rectangle 32122" width="0.445" height="3.659" transform="translate(3.617 3.659) rotate(180)" fill="#ffa412"/>
      <rect id="Rectangle_32123" data-name="Rectangle 32123" width="0.445" height="3.659" transform="translate(2.669 3.659) rotate(180)" fill="#ffa412"/>
      <rect id="Rectangle_32124" data-name="Rectangle 32124" width="0.445" height="3.659" transform="translate(1.753 3.659) rotate(180)" fill="#ffa412"/>
      <path id="Path_136587" data-name="Path 136587" d="M1712.6,1796.308v3.633a1.075,1.075,0,0,0,.167.013h.278V1796.3h-.278A1.106,1.106,0,0,0,1712.6,1796.308Z" transform="translate(-1711.985 -1796.295)" fill="#ffa412"/>
      <path id="Path_136588" data-name="Path 136588" d="M1707.165,1797.066v2.956a.944.944,0,0,0,.445.3v-3.551A.945.945,0,0,0,1707.165,1797.066Z" transform="translate(-1707.165 -1796.714)" fill="#ffa412"/>
    </g>
    <path id="Path_136589" data-name="Path 136589" d="M1742.581,1764.919v2.066a.7.7,0,0,0,.162.445.943.943,0,0,0,.445.3,1.032,1.032,0,0,0,.173.041,1.107,1.107,0,0,0,.167.013h39.193a.9.9,0,0,0,.947-.755c0-.014,0-.027,0-.041v-2.066c0-.014,0-.027,0-.041a.9.9,0,0,0-.947-.755h-39.193c-.025,0-.05,0-.075,0l-.032,0-.035,0-.025,0a1.033,1.033,0,0,0-.173.041l-.025.008-.024.009-.048.02-.027.013-.024.012-.045.024-.049.03-.037.025,0,0-.024.018a.767.767,0,0,0-.069.059l-.019.019-.018.019c-.012.013-.024.027-.035.041A.7.7,0,0,0,1742.581,1764.919Z" transform="translate(-1356.452 -1461.799)" fill="#ffc76c"/>
    <path id="Path_136590" data-name="Path 136590" d="M1911.8,1767.782h21a.828.828,0,0,0,.845-.755c0-.014,0-.027,0-.041v-2.066c0-.014,0-.027,0-.041a.828.828,0,0,0-.845-.755h-18.418c-.008.03-.017.06-.026.09A6.4,6.4,0,0,1,1911.8,1767.782Z" transform="translate(-1506.428 -1461.799)" fill="#ffae39"/>
    <g id="Group_94689" data-name="Group 94689" transform="translate(386.292 302.324)">
      <rect id="Rectangle_32125" data-name="Rectangle 32125" width="0.445" height="3.659" transform="translate(5.052 3.659) rotate(180)" fill="#ffa412"/>
      <rect id="Rectangle_32126" data-name="Rectangle 32126" width="0.445" height="3.659" transform="translate(6.56 3.659) rotate(180)" fill="#ffa412"/>
      <rect id="Rectangle_32127" data-name="Rectangle 32127" width="0.445" height="3.659" transform="translate(8.368 3.659) rotate(180)" fill="#ffa412"/>
      <rect id="Rectangle_32128" data-name="Rectangle 32128" width="0.445" height="3.659" transform="translate(11.14 3.659) rotate(180)" fill="#ffa412"/>
      <rect id="Rectangle_32129" data-name="Rectangle 32129" width="0.445" height="3.659" transform="translate(14.07 3.659) rotate(180)" fill="#ffa412"/>
      <rect id="Rectangle_32130" data-name="Rectangle 32130" width="0.445" height="3.659" transform="translate(18.563 3.659) rotate(180)" fill="#ffa412"/>
      <rect id="Rectangle_32131" data-name="Rectangle 32131" width="0.445" height="3.659" transform="translate(22.77 3.659) rotate(180)" fill="#ffa412"/>
      <rect id="Rectangle_32132" data-name="Rectangle 32132" width="0.445" height="3.659" transform="translate(26.527 3.659) rotate(180)" fill="#ffa412"/>
      <rect id="Rectangle_32133" data-name="Rectangle 32133" width="0.445" height="3.659" transform="translate(3.617 3.659) rotate(180)" fill="#ffa412"/>
      <rect id="Rectangle_32134" data-name="Rectangle 32134" width="0.445" height="3.659" transform="translate(2.669 3.659) rotate(180)" fill="#ffa412"/>
      <rect id="Rectangle_32135" data-name="Rectangle 32135" width="0.445" height="3.659" transform="translate(1.753 3.659) rotate(180)" fill="#ffa412"/>
      <path id="Path_136591" data-name="Path 136591" d="M1749.449,1764.136v3.634a1.092,1.092,0,0,0,.167.013h.278v-3.659h-.278A1.124,1.124,0,0,0,1749.449,1764.136Z" transform="translate(-1748.83 -1764.123)" fill="#ffa412"/>
      <path id="Path_136592" data-name="Path 136592" d="M1744.01,1764.893v2.955a.945.945,0,0,0,.445.3V1764.6A.943.943,0,0,0,1744.01,1764.893Z" transform="translate(-1744.01 -1764.542)" fill="#ffa412"/>
    </g>
    <path id="Path_136593" data-name="Path 136593" d="M1724.776,1733.541v2.066a.7.7,0,0,0,.163.445.944.944,0,0,0,.445.3,1.025,1.025,0,0,0,.174.041,1.106,1.106,0,0,0,.167.013h39.193a1.085,1.085,0,0,0,.437-.09.813.813,0,0,0,.507-.629.354.354,0,0,0,0-.036c0-.014,0-.027,0-.041v-2.066c0-.014,0-.027,0-.041a.9.9,0,0,0-.947-.755h-39.193a1.106,1.106,0,0,0-.167.013,1.025,1.025,0,0,0-.174.041.944.944,0,0,0-.445.3A.7.7,0,0,0,1724.776,1733.541Z" transform="translate(-1340.671 -1433.99)" fill="#ffc76c"/>
    <path id="Path_136594" data-name="Path 136594" d="M1894,1736.4h21a.878.878,0,0,0,.39-.09.8.8,0,0,0,.452-.629.354.354,0,0,0,0-.036c0-.014,0-.027,0-.041v-2.066c0-.014,0-.027,0-.041a.829.829,0,0,0-.845-.755h-18.419a6.422,6.422,0,0,1-2.449,3.569Z" transform="translate(-1490.648 -1433.99)" fill="#ffae39"/>
    <g id="Group_94690" data-name="Group 94690" transform="translate(384.267 298.755)">
      <rect id="Rectangle_32136" data-name="Rectangle 32136" width="0.445" height="3.659" transform="translate(5.052 3.659) rotate(180)" fill="#ffa412"/>
      <rect id="Rectangle_32137" data-name="Rectangle 32137" width="0.445" height="3.659" transform="translate(6.56 3.659) rotate(180)" fill="#ffa412"/>
      <rect id="Rectangle_32138" data-name="Rectangle 32138" width="0.445" height="3.659" transform="translate(8.368 3.659) rotate(180)" fill="#ffa412"/>
      <rect id="Rectangle_32139" data-name="Rectangle 32139" width="0.445" height="3.659" transform="translate(11.14 3.659) rotate(180)" fill="#ffa412"/>
      <rect id="Rectangle_32140" data-name="Rectangle 32140" width="0.445" height="3.659" transform="translate(14.07 3.659) rotate(180)" fill="#ffa412"/>
      <rect id="Rectangle_32141" data-name="Rectangle 32141" width="0.445" height="3.659" transform="translate(18.563 3.659) rotate(180)" fill="#ffa412"/>
      <rect id="Rectangle_32142" data-name="Rectangle 32142" width="0.445" height="3.659" transform="translate(22.77 3.659) rotate(180)" fill="#ffa412"/>
      <rect id="Rectangle_32143" data-name="Rectangle 32143" width="0.445" height="3.659" transform="translate(26.527 3.659) rotate(180)" fill="#ffa412"/>
      <rect id="Rectangle_32144" data-name="Rectangle 32144" width="0.445" height="3.659" transform="translate(3.617 3.659) rotate(180)" fill="#ffa412"/>
      <rect id="Rectangle_32145" data-name="Rectangle 32145" width="0.445" height="3.659" transform="translate(2.668 3.659) rotate(180)" fill="#ffa412"/>
      <rect id="Rectangle_32146" data-name="Rectangle 32146" width="0.445" height="3.659" transform="translate(1.753 3.659) rotate(180)" fill="#ffa412"/>
      <path id="Path_136595" data-name="Path 136595" d="M1731.644,1732.758v3.633a1.105,1.105,0,0,0,.167.013h.278v-3.659h-.278A1.09,1.09,0,0,0,1731.644,1732.758Z" transform="translate(-1731.026 -1732.745)" fill="#ffa412"/>
      <path id="Path_136596" data-name="Path 136596" d="M1726.205,1733.515v2.956a.945.945,0,0,0,.445.3v-3.552A.945.945,0,0,0,1726.205,1733.515Z" transform="translate(-1726.205 -1733.163)" fill="#ffa412"/>
    </g>
    <path id="Path_136597" data-name="Path 136597" d="M1716.522,1701.37v2.066a.7.7,0,0,0,.162.445.943.943,0,0,0,.445.3.991.991,0,0,0,.174.041,1.075,1.075,0,0,0,.167.013h39.193a.9.9,0,0,0,.947-.755c0-.014,0-.027,0-.041v-2.066c0-.014,0-.027,0-.041a.874.874,0,0,0-.835-.75,1.024,1.024,0,0,0-.112-.006H1717.47a1.122,1.122,0,0,0-.167.013,1.048,1.048,0,0,0-.174.041.945.945,0,0,0-.445.3A.7.7,0,0,0,1716.522,1701.37Z" transform="translate(-1333.356 -1405.477)" fill="#ffc76c"/>
    <path id="Path_136598" data-name="Path 136598" d="M1885.743,1704.233h21a.829.829,0,0,0,.846-.755c0-.014,0-.027,0-.041v-2.066c0-.014,0-.027,0-.041a.822.822,0,0,0-.746-.75.811.811,0,0,0-.1-.006h-18.418v.006A6.417,6.417,0,0,1,1885.743,1704.233Z" transform="translate(-1483.332 -1405.477)" fill="#ffae39"/>
    <g id="Group_94691" data-name="Group 94691" transform="translate(383.328 295.096)">
      <rect id="Rectangle_32147" data-name="Rectangle 32147" width="0.445" height="3.659" transform="translate(5.052 3.659) rotate(180)" fill="#ffa412"/>
      <rect id="Rectangle_32148" data-name="Rectangle 32148" width="0.445" height="3.659" transform="translate(6.56 3.659) rotate(180)" fill="#ffa412"/>
      <rect id="Rectangle_32149" data-name="Rectangle 32149" width="0.445" height="3.659" transform="translate(8.368 3.659) rotate(180)" fill="#ffa412"/>
      <rect id="Rectangle_32150" data-name="Rectangle 32150" width="0.445" height="3.659" transform="translate(11.14 3.659) rotate(180)" fill="#ffa412"/>
      <rect id="Rectangle_32151" data-name="Rectangle 32151" width="0.445" height="3.659" transform="translate(14.07 3.659) rotate(180)" fill="#ffa412"/>
      <rect id="Rectangle_32152" data-name="Rectangle 32152" width="0.445" height="3.659" transform="translate(18.563 3.659) rotate(180)" fill="#ffa412"/>
      <rect id="Rectangle_32153" data-name="Rectangle 32153" width="0.445" height="3.659" transform="translate(22.77 3.659) rotate(180)" fill="#ffa412"/>
      <rect id="Rectangle_32154" data-name="Rectangle 32154" width="0.445" height="3.659" transform="translate(26.527 3.659) rotate(180)" fill="#ffa412"/>
      <rect id="Rectangle_32155" data-name="Rectangle 32155" width="0.445" height="3.659" transform="translate(3.617 3.659) rotate(180)" fill="#ffa412"/>
      <rect id="Rectangle_32156" data-name="Rectangle 32156" width="0.445" height="3.659" transform="translate(2.669 3.659) rotate(180)" fill="#ffa412"/>
      <rect id="Rectangle_32157" data-name="Rectangle 32157" width="0.445" height="3.659" transform="translate(1.753 3.659) rotate(180)" fill="#ffa412"/>
      <path id="Path_136599" data-name="Path 136599" d="M1723.389,1700.585v3.633a1.105,1.105,0,0,0,.167.013h.278v-3.659h-.278A1.075,1.075,0,0,0,1723.389,1700.585Z" transform="translate(-1722.771 -1700.572)" fill="#ffa412"/>
      <path id="Path_136600" data-name="Path 136600" d="M1717.95,1701.343v2.955a.943.943,0,0,0,.445.3v-3.552A.945.945,0,0,0,1717.95,1701.343Z" transform="translate(-1717.95 -1700.991)" fill="#ffa412"/>
    </g>
    <path id="Path_136601" data-name="Path 136601" d="M1741.857,1669.249v2.066a.7.7,0,0,0,.162.445.943.943,0,0,0,.445.3,1.016,1.016,0,0,0,.174.041l.055.007.031,0,.031,0H1782a.9.9,0,0,0,.947-.755c0-.014,0-.027,0-.041v-2.066c0-.014,0-.027,0-.041s0-.022,0-.033a.859.859,0,0,0-.711-.7l-.029-.006a1.118,1.118,0,0,0-.205-.019h-39.193c-.029,0-.057,0-.085,0l-.038,0h0l-.044.006a1.016,1.016,0,0,0-.174.041.943.943,0,0,0-.445.3A.7.7,0,0,0,1741.857,1669.249Z" transform="translate(-1355.81 -1377.01)" fill="#ffc76c"/>
    <path id="Path_136602" data-name="Path 136602" d="M1911.079,1672.112h21a.829.829,0,0,0,.846-.755c0-.014,0-.027,0-.041v-2.066c0-.014,0-.027,0-.041s0-.022,0-.033a.818.818,0,0,0-.657-.7l-.036-.007a.894.894,0,0,0-.15-.013h-18.418l-.007.026a6.411,6.411,0,0,1-2.563,3.627Z" transform="translate(-1505.786 -1377.01)" fill="#ffae39"/>
    <g id="Group_94692" data-name="Group 94692" transform="translate(386.21 291.443)">
      <rect id="Rectangle_32158" data-name="Rectangle 32158" width="0.445" height="3.659" transform="translate(5.052 3.659) rotate(180)" fill="#ffa412"/>
      <rect id="Rectangle_32159" data-name="Rectangle 32159" width="0.445" height="3.659" transform="translate(6.56 3.659) rotate(180)" fill="#ffa412"/>
      <rect id="Rectangle_32160" data-name="Rectangle 32160" width="0.445" height="3.659" transform="translate(8.368 3.659) rotate(180)" fill="#ffa412"/>
      <rect id="Rectangle_32161" data-name="Rectangle 32161" width="0.445" height="3.659" transform="translate(11.14 3.659) rotate(180)" fill="#ffa412"/>
      <rect id="Rectangle_32162" data-name="Rectangle 32162" width="0.445" height="3.659" transform="translate(14.07 3.659) rotate(180)" fill="#ffa412"/>
      <rect id="Rectangle_32163" data-name="Rectangle 32163" width="0.445" height="3.659" transform="translate(18.563 3.659) rotate(180)" fill="#ffa412"/>
      <rect id="Rectangle_32164" data-name="Rectangle 32164" width="0.445" height="3.659" transform="translate(22.77 3.659) rotate(180)" fill="#ffa412"/>
      <rect id="Rectangle_32165" data-name="Rectangle 32165" width="0.445" height="3.659" transform="translate(26.527 3.659) rotate(180)" fill="#ffa412"/>
      <rect id="Rectangle_32166" data-name="Rectangle 32166" width="0.445" height="3.659" transform="translate(3.617 3.659) rotate(180)" fill="#ffa412"/>
      <rect id="Rectangle_32167" data-name="Rectangle 32167" width="0.445" height="3.659" transform="translate(2.669 3.659) rotate(180)" fill="#ffa412"/>
      <rect id="Rectangle_32168" data-name="Rectangle 32168" width="0.445" height="3.659" transform="translate(1.753 3.659) rotate(180)" fill="#ffa412"/>
      <path id="Path_136603" data-name="Path 136603" d="M1748.725,1668.464v3.633a1.106,1.106,0,0,0,.167.013h.278v-3.659h-.278A1.075,1.075,0,0,0,1748.725,1668.464Z" transform="translate(-1748.107 -1668.451)" fill="#ffa412"/>
      <path id="Path_136604" data-name="Path 136604" d="M1743.286,1669.222v2.955a.942.942,0,0,0,.445.3v-3.551A.943.943,0,0,0,1743.286,1669.222Z" transform="translate(-1743.286 -1668.87)" fill="#ffa412"/>
    </g>
    <path id="Path_136605" data-name="Path 136605" d="M1742.581,1637.306v2.066a.7.7,0,0,0,.162.445.945.945,0,0,0,.445.3.969.969,0,0,0,.135.034h0l.037.007a1.091,1.091,0,0,0,.167.013h39.193a1.014,1.014,0,0,0,.123-.007l.047-.006a.862.862,0,0,0,.778-.742c0-.014,0-.027,0-.041v-2.066c0-.014,0-.027,0-.041a.9.9,0,0,0-.947-.755h-39.193l-.075,0-.032,0-.035,0-.025,0a1.02,1.02,0,0,0-.173.041l-.025.008-.024.009-.048.019c-.017.008-.034.016-.051.025l-.045.024-.049.03-.037.025,0,0-.024.018a.767.767,0,0,0-.069.059l-.019.018-.018.019c-.012.013-.024.027-.035.041A.7.7,0,0,0,1742.581,1637.306Z" transform="translate(-1356.452 -1348.7)" fill="#ffc76c"/>
    <path id="Path_136606" data-name="Path 136606" d="M1911.8,1640.169h21.047l.054,0a.82.82,0,0,0,.741-.749c0-.014,0-.027,0-.041v-2.066c0-.014,0-.027,0-.041a.828.828,0,0,0-.845-.755h-18.418c-.008.03-.017.06-.026.09a6.406,6.406,0,0,1-2.516,3.543Z" transform="translate(-1506.428 -1348.7)" fill="#ffae39"/>
    <g id="Group_94693" data-name="Group 94693" transform="translate(386.292 287.811)">
      <rect id="Rectangle_32169" data-name="Rectangle 32169" width="0.445" height="3.659" transform="translate(5.052 3.659) rotate(180)" fill="#ffa412"/>
      <rect id="Rectangle_32170" data-name="Rectangle 32170" width="0.445" height="3.659" transform="translate(6.56 3.659) rotate(180)" fill="#ffa412"/>
      <rect id="Rectangle_32171" data-name="Rectangle 32171" width="0.445" height="3.659" transform="translate(8.368 3.659) rotate(180)" fill="#ffa412"/>
      <rect id="Rectangle_32172" data-name="Rectangle 32172" width="0.445" height="3.659" transform="translate(11.14 3.659) rotate(180)" fill="#ffa412"/>
      <rect id="Rectangle_32173" data-name="Rectangle 32173" width="0.445" height="3.659" transform="translate(14.07 3.659) rotate(180)" fill="#ffa412"/>
      <rect id="Rectangle_32174" data-name="Rectangle 32174" width="0.445" height="3.659" transform="translate(18.563 3.659) rotate(180)" fill="#ffa412"/>
      <rect id="Rectangle_32175" data-name="Rectangle 32175" width="0.445" height="3.659" transform="translate(22.77 3.659) rotate(180)" fill="#ffa412"/>
      <rect id="Rectangle_32176" data-name="Rectangle 32176" width="0.445" height="3.659" transform="translate(26.527 3.659) rotate(180)" fill="#ffa412"/>
      <rect id="Rectangle_32177" data-name="Rectangle 32177" width="0.445" height="3.659" transform="translate(3.617 3.659) rotate(180)" fill="#ffa412"/>
      <rect id="Rectangle_32178" data-name="Rectangle 32178" width="0.445" height="3.659" transform="translate(2.669 3.659) rotate(180)" fill="#ffa412"/>
      <rect id="Rectangle_32179" data-name="Rectangle 32179" width="0.445" height="3.659" transform="translate(1.753 3.659) rotate(180)" fill="#ffa412"/>
      <path id="Path_136607" data-name="Path 136607" d="M1749.449,1636.523v3.633a1.092,1.092,0,0,0,.167.013h.278v-3.659h-.278A1.077,1.077,0,0,0,1749.449,1636.523Z" transform="translate(-1748.83 -1636.51)" fill="#ffa412"/>
      <path id="Path_136608" data-name="Path 136608" d="M1744.01,1637.28v2.955a.945.945,0,0,0,.445.3v-3.552A.945.945,0,0,0,1744.01,1637.28Z" transform="translate(-1744.01 -1636.928)" fill="#ffa412"/>
    </g>
    <path id="Path_136609" data-name="Path 136609" d="M1724.776,1605.928v2.066a.7.7,0,0,0,.163.445.942.942,0,0,0,.445.3,1.025,1.025,0,0,0,.174.041,1.09,1.09,0,0,0,.167.013h39.193a1.087,1.087,0,0,0,.437-.09.813.813,0,0,0,.507-.63.348.348,0,0,0,0-.036c0-.014,0-.027,0-.041v-2.066c0-.014,0-.027,0-.041a.9.9,0,0,0-.947-.755h-39.193a1.106,1.106,0,0,0-.167.013,1.025,1.025,0,0,0-.174.041.944.944,0,0,0-.445.3A.7.7,0,0,0,1724.776,1605.928Z" transform="translate(-1340.671 -1320.89)" fill="#ffc76c"/>
    <path id="Path_136610" data-name="Path 136610" d="M1894,1608.791h21a.88.88,0,0,0,.39-.09.8.8,0,0,0,.452-.63.348.348,0,0,0,0-.036c0-.014,0-.027,0-.041v-2.066c0-.014,0-.027,0-.041a.829.829,0,0,0-.845-.755h-18.419a6.423,6.423,0,0,1-2.449,3.569Z" transform="translate(-1490.648 -1320.89)" fill="#ffae39"/>
    <g id="Group_94694" data-name="Group 94694" transform="translate(384.267 284.242)">
      <rect id="Rectangle_32180" data-name="Rectangle 32180" width="0.445" height="3.659" transform="translate(5.052 3.659) rotate(180)" fill="#ffa412"/>
      <rect id="Rectangle_32181" data-name="Rectangle 32181" width="0.445" height="3.659" transform="translate(6.56 3.659) rotate(180)" fill="#ffa412"/>
      <rect id="Rectangle_32182" data-name="Rectangle 32182" width="0.445" height="3.659" transform="translate(8.368 3.659) rotate(180)" fill="#ffa412"/>
      <rect id="Rectangle_32183" data-name="Rectangle 32183" width="0.445" height="3.659" transform="translate(11.14 3.659) rotate(180)" fill="#ffa412"/>
      <rect id="Rectangle_32184" data-name="Rectangle 32184" width="0.445" height="3.659" transform="translate(14.07 3.659) rotate(180)" fill="#ffa412"/>
      <rect id="Rectangle_32185" data-name="Rectangle 32185" width="0.445" height="3.659" transform="translate(18.563 3.659) rotate(180)" fill="#ffa412"/>
      <rect id="Rectangle_32186" data-name="Rectangle 32186" width="0.445" height="3.659" transform="translate(22.77 3.659) rotate(180)" fill="#ffa412"/>
      <rect id="Rectangle_32187" data-name="Rectangle 32187" width="0.445" height="3.659" transform="translate(26.527 3.659) rotate(180)" fill="#ffa412"/>
      <rect id="Rectangle_32188" data-name="Rectangle 32188" width="0.445" height="3.659" transform="translate(3.617 3.659) rotate(180)" fill="#ffa412"/>
      <rect id="Rectangle_32189" data-name="Rectangle 32189" width="0.445" height="3.659" transform="translate(2.668 3.659) rotate(180)" fill="#ffa412"/>
      <rect id="Rectangle_32190" data-name="Rectangle 32190" width="0.445" height="3.659" transform="translate(1.753 3.659) rotate(180)" fill="#ffa412"/>
      <path id="Path_136611" data-name="Path 136611" d="M1731.644,1605.146v3.633a1.074,1.074,0,0,0,.167.013h.278v-3.659h-.278A1.09,1.09,0,0,0,1731.644,1605.146Z" transform="translate(-1731.026 -1605.133)" fill="#ffa412"/>
      <path id="Path_136612" data-name="Path 136612" d="M1726.205,1605.9v2.955a.943.943,0,0,0,.445.3V1605.6A.946.946,0,0,0,1726.205,1605.9Z" transform="translate(-1726.205 -1605.551)" fill="#ffa412"/>
    </g>
    <path id="Path_136613" data-name="Path 136613" d="M1696.615,1573.757v2.066a.7.7,0,0,0,.163.445.943.943,0,0,0,.445.3,1.026,1.026,0,0,0,.173.041,1.093,1.093,0,0,0,.167.013h39.193a.9.9,0,0,0,.947-.755c0-.014,0-.027,0-.041v-2.066c0-.014,0-.027,0-.041a.874.874,0,0,0-.835-.75,1.064,1.064,0,0,0-.112-.006h-39.193a1.125,1.125,0,0,0-.167.013,1.038,1.038,0,0,0-.173.041.942.942,0,0,0-.445.3A.7.7,0,0,0,1696.615,1573.757Z" transform="translate(-1315.713 -1292.378)" fill="#ffc76c"/>
    <path id="Path_136614" data-name="Path 136614" d="M1865.836,1576.62h21a.829.829,0,0,0,.845-.755c0-.014,0-.027,0-.041v-2.066c0-.014,0-.027,0-.041a.822.822,0,0,0-.745-.75.842.842,0,0,0-.1-.006h-18.419v.006A6.415,6.415,0,0,1,1865.836,1576.62Z" transform="translate(-1465.689 -1292.378)" fill="#ffae39"/>
    <g id="Group_94695" data-name="Group 94695" transform="translate(381.064 280.583)">
      <rect id="Rectangle_32191" data-name="Rectangle 32191" width="0.445" height="3.659" transform="translate(5.052 3.659) rotate(180)" fill="#ffa412"/>
      <rect id="Rectangle_32192" data-name="Rectangle 32192" width="0.445" height="3.659" transform="translate(6.56 3.659) rotate(180)" fill="#ffa412"/>
      <rect id="Rectangle_32193" data-name="Rectangle 32193" width="0.445" height="3.659" transform="translate(8.368 3.659) rotate(180)" fill="#ffa412"/>
      <rect id="Rectangle_32194" data-name="Rectangle 32194" width="0.445" height="3.659" transform="translate(11.14 3.659) rotate(180)" fill="#ffa412"/>
      <rect id="Rectangle_32195" data-name="Rectangle 32195" width="0.445" height="3.659" transform="translate(14.07 3.659) rotate(180)" fill="#ffa412"/>
      <rect id="Rectangle_32196" data-name="Rectangle 32196" width="0.445" height="3.659" transform="translate(18.563 3.659) rotate(180)" fill="#ffa412"/>
      <rect id="Rectangle_32197" data-name="Rectangle 32197" width="0.445" height="3.659" transform="translate(22.77 3.659) rotate(180)" fill="#ffa412"/>
      <rect id="Rectangle_32198" data-name="Rectangle 32198" width="0.445" height="3.659" transform="translate(26.527 3.659) rotate(180)" fill="#ffa412"/>
      <rect id="Rectangle_32199" data-name="Rectangle 32199" width="0.445" height="3.659" transform="translate(3.617 3.659) rotate(180)" fill="#ffa412"/>
      <rect id="Rectangle_32200" data-name="Rectangle 32200" width="0.445" height="3.659" transform="translate(2.669 3.659) rotate(180)" fill="#ffa412"/>
      <rect id="Rectangle_32201" data-name="Rectangle 32201" width="0.445" height="3.659" transform="translate(1.753 3.659) rotate(180)" fill="#ffa412"/>
      <path id="Path_136615" data-name="Path 136615" d="M1703.48,1572.973v3.633a1.1,1.1,0,0,0,.167.013h.278v-3.659h-.278A1.113,1.113,0,0,0,1703.48,1572.973Z" transform="translate(-1702.862 -1572.96)" fill="#ffa412"/>
      <path id="Path_136616" data-name="Path 136616" d="M1698.042,1573.731v2.956a.943.943,0,0,0,.445.3v-3.551A.943.943,0,0,0,1698.042,1573.731Z" transform="translate(-1698.042 -1573.379)" fill="#ffa412"/>
    </g>
    <path id="Path_136617" data-name="Path 136617" d="M1741.857,1541.636v2.066a.7.7,0,0,0,.162.445.945.945,0,0,0,.445.3,1.039,1.039,0,0,0,.174.041l.055.007.044,0H1782a.9.9,0,0,0,.947-.755c0-.014,0-.027,0-.041v-2.066c0-.014,0-.027,0-.041a.9.9,0,0,0-.947-.755h-39.243a1.091,1.091,0,0,0-.291.052c-.028.009-.056.019-.082.031l-.049.022-.005,0-.048.025-.008,0c-.015.008-.029.017-.042.026a.79.79,0,0,0-.094.069l-.027.023,0,0-.016.015,0,0-.028.029c-.013.014-.026.028-.038.043A.7.7,0,0,0,1741.857,1541.636Z" transform="translate(-1355.81 -1263.91)" fill="#ffc76c"/>
    <path id="Path_136618" data-name="Path 136618" d="M1911.079,1544.5h21a.829.829,0,0,0,.846-.755c0-.014,0-.027,0-.041v-2.066c0-.014,0-.027,0-.041a.829.829,0,0,0-.846-.755h-18.418c-.007.027-.015.056-.024.084a6.4,6.4,0,0,1-2.546,3.569Z" transform="translate(-1505.786 -1263.91)" fill="#ffae39"/>
    <g id="Group_94696" data-name="Group 94696" transform="translate(386.21 276.93)">
      <rect id="Rectangle_32202" data-name="Rectangle 32202" width="0.445" height="3.659" transform="translate(5.052 3.659) rotate(180)" fill="#ffa412"/>
      <rect id="Rectangle_32203" data-name="Rectangle 32203" width="0.445" height="3.659" transform="translate(6.56 3.659) rotate(180)" fill="#ffa412"/>
      <rect id="Rectangle_32204" data-name="Rectangle 32204" width="0.445" height="3.659" transform="translate(8.368 3.659) rotate(180)" fill="#ffa412"/>
      <rect id="Rectangle_32205" data-name="Rectangle 32205" width="0.445" height="3.659" transform="translate(11.14 3.659) rotate(180)" fill="#ffa412"/>
      <rect id="Rectangle_32206" data-name="Rectangle 32206" width="0.445" height="3.659" transform="translate(14.07 3.659) rotate(180)" fill="#ffa412"/>
      <rect id="Rectangle_32207" data-name="Rectangle 32207" width="0.445" height="3.659" transform="translate(18.563 3.659) rotate(180)" fill="#ffa412"/>
      <rect id="Rectangle_32208" data-name="Rectangle 32208" width="0.445" height="3.659" transform="translate(22.77 3.659) rotate(180)" fill="#ffa412"/>
      <rect id="Rectangle_32209" data-name="Rectangle 32209" width="0.445" height="3.659" transform="translate(26.527 3.659) rotate(180)" fill="#ffa412"/>
      <rect id="Rectangle_32210" data-name="Rectangle 32210" width="0.445" height="3.659" transform="translate(3.617 3.659) rotate(180)" fill="#ffa412"/>
      <rect id="Rectangle_32211" data-name="Rectangle 32211" width="0.445" height="3.659" transform="translate(2.669 3.659) rotate(180)" fill="#ffa412"/>
      <rect id="Rectangle_32212" data-name="Rectangle 32212" width="0.445" height="3.659" transform="translate(1.753 3.659) rotate(180)" fill="#ffa412"/>
      <path id="Path_136619" data-name="Path 136619" d="M1748.725,1540.853v3.633a1.09,1.09,0,0,0,.167.013h.278v-3.659h-.278A1.106,1.106,0,0,0,1748.725,1540.853Z" transform="translate(-1748.107 -1540.84)" fill="#ffa412"/>
      <path id="Path_136620" data-name="Path 136620" d="M1743.286,1541.609v2.955a.946.946,0,0,0,.445.3v-3.552A.946.946,0,0,0,1743.286,1541.609Z" transform="translate(-1743.286 -1541.257)" fill="#ffa412"/>
    </g>
    <path id="Path_136621" data-name="Path 136621" d="M1716.522,1510.207v2.066a.7.7,0,0,0,.162.445.943.943,0,0,0,.445.3,1.025,1.025,0,0,0,.174.041,1.122,1.122,0,0,0,.167.013h39.193a1.086,1.086,0,0,0,.424-.084.815.815,0,0,0,.521-.638c0-.01,0-.022,0-.033s0-.027,0-.041v-2.066c0-.014,0-.027,0-.041a.874.874,0,0,0-.835-.75,1.055,1.055,0,0,0-.112-.006H1717.47a1.105,1.105,0,0,0-.167.013,1.025,1.025,0,0,0-.174.041.945.945,0,0,0-.445.3A.7.7,0,0,0,1716.522,1510.207Z" transform="translate(-1333.356 -1236.055)" fill="#ffc76c"/>
    <path id="Path_136622" data-name="Path 136622" d="M1885.743,1513.07h21a.88.88,0,0,0,.378-.084.8.8,0,0,0,.465-.638c0-.01,0-.022,0-.033s0-.027,0-.041v-2.066c0-.014,0-.027,0-.041a.822.822,0,0,0-.746-.75.836.836,0,0,0-.1-.006h-18.418v.006a6.421,6.421,0,0,1-2.456,3.569Z" transform="translate(-1483.332 -1236.055)" fill="#ffae39"/>
    <g id="Group_94697" data-name="Group 94697" transform="translate(383.328 273.355)">
      <rect id="Rectangle_32213" data-name="Rectangle 32213" width="0.445" height="3.659" transform="translate(5.052 3.659) rotate(180)" fill="#ffa412"/>
      <rect id="Rectangle_32214" data-name="Rectangle 32214" width="0.445" height="3.659" transform="translate(6.56 3.659) rotate(180)" fill="#ffa412"/>
      <rect id="Rectangle_32215" data-name="Rectangle 32215" width="0.445" height="3.659" transform="translate(8.368 3.659) rotate(180)" fill="#ffa412"/>
      <rect id="Rectangle_32216" data-name="Rectangle 32216" width="0.445" height="3.659" transform="translate(11.14 3.659) rotate(180)" fill="#ffa412"/>
      <rect id="Rectangle_32217" data-name="Rectangle 32217" width="0.445" height="3.659" transform="translate(14.07 3.659) rotate(180)" fill="#ffa412"/>
      <rect id="Rectangle_32218" data-name="Rectangle 32218" width="0.445" height="3.659" transform="translate(18.563 3.659) rotate(180)" fill="#ffa412"/>
      <rect id="Rectangle_32219" data-name="Rectangle 32219" width="0.445" height="3.659" transform="translate(22.77 3.659) rotate(180)" fill="#ffa412"/>
      <rect id="Rectangle_32220" data-name="Rectangle 32220" width="0.445" height="3.659" transform="translate(26.527 3.659) rotate(180)" fill="#ffa412"/>
      <rect id="Rectangle_32221" data-name="Rectangle 32221" width="0.445" height="3.659" transform="translate(3.617 3.659) rotate(180)" fill="#ffa412"/>
      <rect id="Rectangle_32222" data-name="Rectangle 32222" width="0.445" height="3.659" transform="translate(2.669 3.659) rotate(180)" fill="#ffa412"/>
      <rect id="Rectangle_32223" data-name="Rectangle 32223" width="0.445" height="3.659" transform="translate(1.753 3.659) rotate(180)" fill="#ffa412"/>
      <path id="Path_136623" data-name="Path 136623" d="M1723.389,1509.423v3.634a1.122,1.122,0,0,0,.167.013h.278v-3.659h-.278A1.122,1.122,0,0,0,1723.389,1509.423Z" transform="translate(-1722.771 -1509.41)" fill="#ffa412"/>
      <path id="Path_136624" data-name="Path 136624" d="M1717.95,1510.181v2.955a.943.943,0,0,0,.445.3v-3.551A.943.943,0,0,0,1717.95,1510.181Z" transform="translate(-1717.95 -1509.829)" fill="#ffa412"/>
    </g>
    <path id="Path_136625" data-name="Path 136625" d="M1705.736,1478.086v2.066a.705.705,0,0,0,.162.445.943.943,0,0,0,.445.3,1.011,1.011,0,0,0,.174.041l.055.007.031,0,.031,0h39.243a.9.9,0,0,0,.947-.755c0-.014,0-.027,0-.041v-2.066c0-.014,0-.027,0-.041a.9.9,0,0,0-.947-.755h-39.193a1.12,1.12,0,0,0-.167.013,1.022,1.022,0,0,0-.174.041.943.943,0,0,0-.445.3A.7.7,0,0,0,1705.736,1478.086Z" transform="translate(-1323.797 -1207.588)" fill="#ffc76c"/>
    <path id="Path_136626" data-name="Path 136626" d="M1874.957,1480.949h21a.829.829,0,0,0,.846-.755c0-.014,0-.027,0-.041v-2.066c0-.014,0-.027,0-.041a.829.829,0,0,0-.846-.755h-18.418a6.414,6.414,0,0,1-2.57,3.653Z" transform="translate(-1473.772 -1207.588)" fill="#ffae39"/>
    <g id="Group_94698" data-name="Group 94698" transform="translate(382.102 269.702)">
      <rect id="Rectangle_32224" data-name="Rectangle 32224" width="0.445" height="3.659" transform="translate(5.052 3.659) rotate(180)" fill="#ffa412"/>
      <rect id="Rectangle_32225" data-name="Rectangle 32225" width="0.445" height="3.659" transform="translate(6.56 3.659) rotate(180)" fill="#ffa412"/>
      <rect id="Rectangle_32226" data-name="Rectangle 32226" width="0.445" height="3.659" transform="translate(8.368 3.659) rotate(180)" fill="#ffa412"/>
      <rect id="Rectangle_32227" data-name="Rectangle 32227" width="0.445" height="3.659" transform="translate(11.139 3.659) rotate(180)" fill="#ffa412"/>
      <rect id="Rectangle_32228" data-name="Rectangle 32228" width="0.445" height="3.659" transform="translate(14.07 3.659) rotate(180)" fill="#ffa412"/>
      <rect id="Rectangle_32229" data-name="Rectangle 32229" width="0.445" height="3.659" transform="translate(18.563 3.659) rotate(180)" fill="#ffa412"/>
      <rect id="Rectangle_32230" data-name="Rectangle 32230" width="0.445" height="3.659" transform="translate(22.77 3.659) rotate(180)" fill="#ffa412"/>
      <rect id="Rectangle_32231" data-name="Rectangle 32231" width="0.446" height="3.659" transform="translate(26.081 0)" fill="#ffa412"/>
      <rect id="Rectangle_32232" data-name="Rectangle 32232" width="0.445" height="3.659" transform="translate(3.617 3.659) rotate(180)" fill="#ffa412"/>
      <rect id="Rectangle_32233" data-name="Rectangle 32233" width="0.445" height="3.659" transform="translate(2.668 3.659) rotate(180)" fill="#ffa412"/>
      <rect id="Rectangle_32234" data-name="Rectangle 32234" width="0.445" height="3.659" transform="translate(1.753 3.659) rotate(180)" fill="#ffa412"/>
      <path id="Path_136627" data-name="Path 136627" d="M1712.6,1477.3v3.633a1.09,1.09,0,0,0,.167.013h.278v-3.659h-.278A1.09,1.09,0,0,0,1712.6,1477.3Z" transform="translate(-1711.985 -1477.289)" fill="#ffa412"/>
      <path id="Path_136628" data-name="Path 136628" d="M1707.165,1478.06v2.955a.944.944,0,0,0,.445.3v-3.551A.943.943,0,0,0,1707.165,1478.06Z" transform="translate(-1707.165 -1477.708)" fill="#ffa412"/>
    </g>
    <g id="Group_94701" data-name="Group 94701" transform="translate(402.775 264.525)">
      <circle id="Ellipse_4216" data-name="Ellipse 4216" cx="18.627" cy="18.627" r="18.627" transform="translate(0 26.342) rotate(-45)" fill="#e2810e"/>
      <circle id="Ellipse_4217" data-name="Ellipse 4217" cx="18.627" cy="18.627" r="18.627" transform="translate(1.625 26.342) rotate(-45)" fill="#ffc76c"/>
      <g id="Group_94699" data-name="Group 94699" transform="translate(10.996 9.591)">
        <path id="Path_136629" data-name="Path 136629" d="M1990.6,1545.074a16.971,16.971,0,1,1,12,4.971A16.86,16.86,0,0,1,1990.6,1545.074Zm-3.958-12a15.958,15.958,0,1,0,15.958-15.959A15.977,15.977,0,0,0,1986.641,1533.074Z" transform="translate(-1985.628 -1516.103)" fill="#ffa412"/>
      </g>
      <g id="Group_94700" data-name="Group 94700" transform="translate(20.54 14.029)">
        <path id="Path_136630" data-name="Path 136630" d="M2079.313,1572.58a2.8,2.8,0,0,0-.04-.985,2.045,2.045,0,0,0-.417-.818,3.868,3.868,0,0,0-.833-.735,10.2,10.2,0,0,0-1.291-.723,26.732,26.732,0,0,1-2.385-1.31,8.449,8.449,0,0,1-1.783-1.451,4.97,4.97,0,0,1-1.053-1.768,5.6,5.6,0,0,1,.453-4.241,4.714,4.714,0,0,1,1.315-1.461,5.89,5.89,0,0,1,1.883-.9,7.85,7.85,0,0,1,2.351-.271l.332-2.8,2.252.267-.337,2.836a7.042,7.042,0,0,1,2.119.9,5.322,5.322,0,0,1,2.372,3.4,7.078,7.078,0,0,1,.093,2.4l-4.067-.482a3.45,3.45,0,0,0-.418-2.429,2.4,2.4,0,0,0-1.772-1,3.044,3.044,0,0,0-1.111.047,2.063,2.063,0,0,0-.81.394,1.921,1.921,0,0,0-.522.674,2.819,2.819,0,0,0-.248.885,2.6,2.6,0,0,0,.037.892,1.921,1.921,0,0,0,.4.783,3.877,3.877,0,0,0,.84.736,13.1,13.1,0,0,0,1.342.776q1.3.672,2.36,1.34a8.539,8.539,0,0,1,1.774,1.463,4.8,4.8,0,0,1,1.235,4.024,5.12,5.12,0,0,1-.646,2.018,4.659,4.659,0,0,1-1.32,1.447,5.691,5.691,0,0,1-1.893.862,8.478,8.478,0,0,1-2.363.25l-.309,2.6-2.237-.266.307-2.588a9.512,9.512,0,0,1-2.2-.778,6.025,6.025,0,0,1-1.8-1.36,5.393,5.393,0,0,1-1.13-2.023,6.566,6.566,0,0,1-.187-2.753l4.067.483a4.046,4.046,0,0,0,.076,1.58,2.616,2.616,0,0,0,.579,1.076,2.538,2.538,0,0,0,.93.64,4.348,4.348,0,0,0,1.115.285,3.638,3.638,0,0,0,1.181-.032,2.421,2.421,0,0,0,.893-.371,1.929,1.929,0,0,0,.591-.652A2.348,2.348,0,0,0,2079.313,1572.58Z" transform="translate(-2069.543 -1555.121)" fill="#ffa412"/>
      </g>
    </g>
    <g id="Group_94702" data-name="Group 94702" transform="translate(318.993 281.24)">
      <path id="Path_136631" data-name="Path 136631" d="M1335.677,1583.221s-2.351,3.309-4.506,3.355-5.434-1.534-5.434-1.534-1.979-4.41-.637-6.136a2.882,2.882,0,0,1,2.753.453,4.223,4.223,0,0,1,.729.7,2.312,2.312,0,0,0,1.131.767c1.538.468,3.363-.633,4.046.429a7.218,7.218,0,0,0,1.189,1.407A5.434,5.434,0,0,0,1335.677,1583.221Z" transform="translate(-1305.031 -1578.74)" fill="#ffeddc"/>
      <path id="Path_136632" data-name="Path 136632" d="M1152.271,1668.156s8.308-20.132,23.264-20.516c0,0,13.8,1.534,14.572,20.516Z" transform="translate(-1152.271 -1639.804)" fill="#ffeddc"/>
      <path id="Path_136633" data-name="Path 136633" d="M1320.573,1632.741s5.995,1.333,7.844.55a1.852,1.852,0,0,0-2.245-2.155,5.3,5.3,0,0,1-3.515-.927C1321.72,1629.732,1320.324,1631.692,1320.573,1632.741Z" transform="translate(-1301.406 -1624.29)" fill="#2b478b"/>
      <path id="Path_136634" data-name="Path 136634" d="M1354.509,1588.236c-.383.288-1.561-4.053-1.561-4.053a4.228,4.228,0,0,1,.729.7,2.311,2.311,0,0,0,1.131.767C1354.812,1585.775,1354.881,1587.956,1354.509,1588.236Z" transform="translate(-1330.125 -1583.564)" fill="#e5c1a1"/>
      <path id="Path_136635" data-name="Path 136635" d="M1389.815,1602.247a24.707,24.707,0,0,1-3.233,1.71c-.384,0,2.044-3.118,2.044-3.118A7.211,7.211,0,0,0,1389.815,1602.247Z" transform="translate(-1359.897 -1598.327)" fill="#e5c1a1"/>
      <path id="Path_136636" data-name="Path 136636" d="M1223.619,1708.838c-.154-.131,5.88-8.884,7.542-8.948s5.4,1.918,8.1,2.173,5.323-.511,5.835,1.087,1.917,7.262,1.055,8.169S1226.936,1711.672,1223.619,1708.838Z" transform="translate(-1215.502 -1686.11)" fill="#f9ddbf"/>
    </g>
    <g id="Group_94703" data-name="Group 94703" transform="translate(383.95 178.191)">
      <path id="Path_136637" data-name="Path 136637" d="M1723.983,689.686l-.567-3.194,1.23-.218.562,3.162c.162.91.7,1.3,1.451,1.167a1.174,1.174,0,0,0,.968-1.556l-.569-3.2,1.23-.218.56,3.154a2.285,2.285,0,0,1-2,2.959A2.253,2.253,0,0,1,1723.983,689.686Z" transform="translate(-1723.416 -684.152)" fill="#a8d29f"/>
      <path id="Path_136638" data-name="Path 136638" d="M1777.269,679.7l2.6-.461a2.049,2.049,0,0,1,1.549.236,1.4,1.4,0,0,1,.034,2.234,1.393,1.393,0,0,1,1.293,1.2c.182,1.022-.558,1.681-1.82,1.9l-2.659.472Zm2.733,1.846c.543-.1.855-.333.779-.764-.065-.367-.39-.524-.909-.432l-1.214.216.21,1.182Zm.727,2.194c.543-.1.836-.346.76-.777-.067-.375-.387-.557-1.018-.445l-1.422.252.219,1.23Z" transform="translate(-1771.144 -678.445)" fill="#a8d29f"/>
      <path id="Path_136639" data-name="Path 136639" d="M1828.452,672.878l1.23-.219.993,5.59-1.23.218Z" transform="translate(-1816.506 -672.659)" fill="#a8d29f"/>
    </g>
    <g id="Group_94709" data-name="Group 94709" transform="translate(358.775 212.608)">
      <g id="Group_94708" data-name="Group 94708" transform="translate(0 0)">
        <g id="Group_94707" data-name="Group 94707">
          <path id="Path_136640" data-name="Path 136640" d="M1790.643,1611.112a1.022,1.022,0,0,1,.182,1.093.009.009,0,0,1,0,.005,6.793,6.793,0,0,1-2.147,2.355c-.129.1-.244.2-.345.287-.026.023-.053.046-.077.069l-.06.054c-.944.87-.589,1.069-2.284,2.835-1.933,2.011-3.264,2.047-3.643,1.864-.32-.156.33-1.223,1.052-2.422.035-.058.069-.116.105-.175.1-.159.191-.321.287-.481.845-1.443.628-2.12.428-4.268-.163-1.745-2.715-9.75-2.715-9.75l3.7-.638s1.116,6.374,2.345,7.356c.657.523,1.393.53,2.025.918q.067.04.131.083A4.865,4.865,0,0,1,1790.643,1611.112Z" transform="translate(-1749.651 -1530.67)" fill="#ffb27d"/>
          <path id="Path_136641" data-name="Path 136641" d="M1796.564,1675.583a1.023,1.023,0,0,1,.182,1.093.009.009,0,0,1,0,.005,7.862,7.862,0,0,1-2.151,2.348c-.128.106-.241.2-.341.295-.026.023-.053.046-.078.069l-.06.054c-.944.87-.588,1.069-2.284,2.834-1.933,2.011-3.264,2.048-3.643,1.864-.32-.156.331-1.223,1.052-2.422a8.241,8.241,0,0,0,3.446-2.539c1.164-1.485,1.94-3.394,2.733-4.5.045.027.089.055.131.083A4.862,4.862,0,0,1,1796.564,1675.583Z" transform="translate(-1755.573 -1595.141)" fill="#233862"/>
          <path id="Path_136642" data-name="Path 136642" d="M1513.181,1600.012c-.229,1.144-1.859.953-3.68.508s-1.388.084-3.98-.2-3.377-1.253-3.456-1.639c-.071-.342,1.21-.463,2.584-.621.173-.019.346-.041.52-.062,1.551-.195,2.687-1.2,4.1-2.017,1.334-.779,3.326-3.95,3.326-3.95l3.555.281s-1.865,2.833-2.587,4.065a4.294,4.294,0,0,0-.349,2.422A4.566,4.566,0,0,1,1513.181,1600.012Z" transform="translate(-1502.062 -1521.884)" fill="#ffb27d"/>
          <path id="Path_136643" data-name="Path 136643" d="M1509.5,1647.509c-1.821-.445-1.388.084-3.98-.2s-3.377-1.253-3.456-1.639c-.071-.342,1.21-.463,2.584-.621l.013.026a7.305,7.305,0,0,0,3.712,1.154c1.759.043,3.621-.461,4.835-.442a4.566,4.566,0,0,1-.027,1.216C1512.952,1648.145,1511.323,1647.954,1509.5,1647.509Z" transform="translate(-1502.062 -1568.874)" fill="#233862"/>
          <path id="Path_136644" data-name="Path 136644" d="M1719.6,1417.987l3.323,8.941,4.338,11.675a7.031,7.031,0,0,0,2.3-.21,9.993,9.993,0,0,0,2.229-1.085s-1.2-12.536-3.452-19.731a12.817,12.817,0,0,0-1.933-4.182C1722.928,1409.277,1719.6,1417.987,1719.6,1417.987Z" transform="translate(-1694.861 -1362.588)" fill="#233862"/>
          <path id="Path_136645" data-name="Path 136645" d="M1596.186,1323.618c2.177-.7,8.386.2,14.623,1.421l1.306-2.154,13.472-1.052s4.445,9.858,2.012,16.14a2.278,2.278,0,0,1-2.28,1.535h-.2s-8.018,0-10.622,0c-6.7,0-14.179-4.605-15.146-4.8-1.584-.317-2.217,2.85-3.8,6.176s-14.886,14.728-14.886,14.728a11.708,11.708,0,0,1-2.889-.3,2.844,2.844,0,0,1-1.24-.783S1591.277,1325.2,1596.186,1323.618Z" transform="translate(-1568.067 -1282.419)" fill="#2b478b"/>
          <path id="Path_136646" data-name="Path 136646" d="M1835.316,997.017c4.249,3.455,14.485,9.443,14.541,9.417,0,0,3.279,1.964,5.516,1,3.729-1.607,6.592-7.231,1.435-13.454-2.573-3.1-4.706-4.126-4.2-8.252.543-4.471-1.476-10.091-6.621-10.327a14.2,14.2,0,0,0-4.9.216C1836.348,977.105,1828.422,994.727,1835.316,997.017Z" transform="translate(-1795.022 -975.281)" fill="#233862"/>
          <path id="Path_136647" data-name="Path 136647" d="M1891.887,1144.737c-.277.766-7.561,1.448-11.705,1.173a5.679,5.679,0,0,1-2.674-.578c-1.478-1.284-1.331,1.54-1.534-11.972-.1-6.59,5.592-12.46,5.592-12.46s.454,2.815,6.1-.535c.2-.117,2.423,3.174,4.562,7.226C1894.583,1132.068,1892.171,1143.95,1891.887,1144.737Z" transform="translate(-1833.448 -1103.862)" fill="#aec3ff"/>
          <path id="Path_136648" data-name="Path 136648" d="M1748.818,1468.13l4.338,11.675a7.03,7.03,0,0,0,2.3-.21,9.993,9.993,0,0,0,2.229-1.085s-1.2-12.536-3.452-19.731Z" transform="translate(-1720.754 -1403.789)" fill="#2b478b"/>
          <path id="Path_136649" data-name="Path 136649" d="M1798.665,1125.086s-5.152,1.264-6.489,3.485c-1.627,2.7-9.743,14.9-9.743,14.9s8,2.83,9.364,1.466,4.745-12.652,4.745-12.652Z" transform="translate(-1750.546 -1108.049)" fill="#aec3ff"/>
          <path id="Path_136650" data-name="Path 136650" d="M1926.372,1084.185a14,14,0,0,1-3.618,2.5c-.6.22-1.6.461-1.6.461l-.815-.824c-.715-.667,0-.859-.1-2.12-.006-.06-.01-.121-.017-.182a22.766,22.766,0,0,0-.578-3.056.011.011,0,0,1,0,0l4.986-1.426-.161.275C1924.765,1082.393,1925.695,1084.11,1926.372,1084.185Z" transform="translate(-1872.142 -1067.674)" fill="#ffb27d"/>
          <path id="Path_136651" data-name="Path 136651" d="M1924.619,1079.53a5.57,5.57,0,0,1-4.492,3.813,23.834,23.834,0,0,0-.492-2.383.011.011,0,0,1,0,0Z" transform="translate(-1872.142 -1067.674)" fill="#ed975d"/>
          <path id="Path_136652" data-name="Path 136652" d="M1889.814,1015.055s6.72-.447,6.378-4.628.294-7.054-4.011-6.946-5.007,1.772-5.232,3.2S1888.057,1015.064,1889.814,1015.055Z" transform="translate(-1843.152 -1000.272)" fill="#ffb27d"/>
          <path id="Path_136653" data-name="Path 136653" d="M1901.718,995.816s1.67,4.9,5.635,5.469c2.892.415,4.041-.366,4.041-.366a11.348,11.348,0,0,1-2.489-3.894,2.044,2.044,0,0,0-1.6-1.315C1905.245,995.392,1902.588,994.029,1901.718,995.816Z" transform="translate(-1856.265 -992.681)" fill="#233862"/>
          <path id="Path_136654" data-name="Path 136654" d="M1886.312,1003.43a4.433,4.433,0,0,0-2.037,2.276,8.55,8.55,0,0,0-.506,4.271s-1.932-4.47-.533-6.485C1884.719,1001.355,1886.312,1003.43,1886.312,1003.43Z" transform="translate(-1839.434 -999.427)" fill="#233862"/>
          <path id="Path_136655" data-name="Path 136655" d="M1917.241,1120.577s.411,2.481.92,2.944a3.607,3.607,0,0,1-1.9-2.142S1916.711,1120.634,1917.241,1120.577Z" transform="translate(-1869.153 -1104.052)" fill="#91b0f2"/>
          <path id="Path_136656" data-name="Path 136656" d="M1856.776,1194.7s-3.753,4.5-3.291,6.133,3.061,1.63,3.061,1.63a18.008,18.008,0,0,1,0-5.281C1857.032,1195.372,1857.336,1194.591,1856.776,1194.7Z" transform="translate(-1813.483 -1169.735)" fill="#91b0f2"/>
          <path id="Path_136657" data-name="Path 136657" d="M1948.181,1229.424s5.406-3.3,5.335-5.209,0-5.427.509-4.935,2.11,4.438,1.956,5.555-5.613,8.918-6.289,8.9C1944.874,1233.6,1948.181,1229.424,1948.181,1229.424Z" transform="translate(-1896.462 -1191.488)" fill="#91b0f2"/>
          <path id="Path_136658" data-name="Path 136658" d="M1937.143,1110.352s-2.952,3.713-4.174,4.107a8.4,8.4,0,0,0,5.918-2.9S1938.069,1110.364,1937.143,1110.352Z" transform="translate(-1883.962 -1094.99)" fill="#91b0f2"/>
          <g id="Group_94706" data-name="Group 94706" transform="translate(22.064 17.65)">
            <circle id="Ellipse_4218" data-name="Ellipse 4218" cx="13.7" cy="13.7" r="13.7" transform="translate(1.29 26.936) rotate(-78.401)" fill="#e2810e"/>
            <circle id="Ellipse_4219" data-name="Ellipse 4219" cx="13.7" cy="13.7" r="13.7" transform="matrix(0.21, -0.978, 0.978, 0.21, 0, 26.791)" fill="#ffc76c"/>
            <g id="Group_94704" data-name="Group 94704" transform="translate(3.788 3.95)">
              <path id="Path_136659" data-name="Path 136659" d="M1741.851,1190.169a12.483,12.483,0,1,1,8.826-3.656A12.4,12.4,0,0,1,1741.851,1190.169Zm0-24.22a11.738,11.738,0,1,0,11.738,11.738A11.751,11.751,0,0,0,1741.851,1165.949Z" transform="translate(-1729.368 -1165.204)" fill="#ffa412"/>
            </g>
            <g id="Group_94705" data-name="Group 94705" transform="translate(10.803 7.214)">
              <path id="Path_136660" data-name="Path 136660" d="M1798.239,1206.745a2.062,2.062,0,0,0-.03-.725,1.5,1.5,0,0,0-.307-.6,2.838,2.838,0,0,0-.613-.54,7.493,7.493,0,0,0-.95-.532,19.694,19.694,0,0,1-1.754-.964,6.218,6.218,0,0,1-1.311-1.067,3.656,3.656,0,0,1-.774-1.3,4.124,4.124,0,0,1,.333-3.12,3.472,3.472,0,0,1,.967-1.074,4.335,4.335,0,0,1,1.385-.66,5.78,5.78,0,0,1,1.729-.2l.244-2.057,1.656.2-.248,2.086a5.177,5.177,0,0,1,1.559.663,3.915,3.915,0,0,1,1.744,2.5,5.212,5.212,0,0,1,.068,1.768l-2.991-.355a2.538,2.538,0,0,0-.307-1.787,1.763,1.763,0,0,0-1.3-.735,2.238,2.238,0,0,0-.818.035,1.521,1.521,0,0,0-.6.29,1.416,1.416,0,0,0-.384.5,2.089,2.089,0,0,0-.182.651,1.908,1.908,0,0,0,.027.656,1.409,1.409,0,0,0,.294.576,2.846,2.846,0,0,0,.618.541,9.639,9.639,0,0,0,.987.571q.959.494,1.735.986a6.279,6.279,0,0,1,1.3,1.076,3.529,3.529,0,0,1,.908,2.96,3.775,3.775,0,0,1-.475,1.484,3.428,3.428,0,0,1-.971,1.065,4.188,4.188,0,0,1-1.393.634,6.241,6.241,0,0,1-1.738.184l-.227,1.913-1.646-.2.226-1.9a6.983,6.983,0,0,1-1.617-.572,4.428,4.428,0,0,1-1.324-1,3.963,3.963,0,0,1-.831-1.488,4.83,4.83,0,0,1-.138-2.025l2.991.355a2.97,2.97,0,0,0,.056,1.162,1.923,1.923,0,0,0,.426.792,1.866,1.866,0,0,0,.684.471,3.192,3.192,0,0,0,.82.209,2.666,2.666,0,0,0,.869-.024,1.779,1.779,0,0,0,.657-.273,1.418,1.418,0,0,0,.435-.48A1.731,1.731,0,0,0,1798.239,1206.745Z" transform="translate(-1791.054 -1193.903)" fill="#ffa412"/>
            </g>
          </g>
          <path id="Path_136661" data-name="Path 136661" d="M1710.2,1277.21s-.153-2.251.7-2.162c1.044.109,2.153,2.585,1.643,3.063S1710.21,1277.765,1710.2,1277.21Z" transform="translate(-1686.519 -1240.953)" fill="#ffb27d"/>
          <path id="Path_136662" data-name="Path 136662" d="M1917.274,1331.809l-1.27-.76a3.285,3.285,0,0,0-1.25-.248c-.464.066-1.565-.128-1.6.052s1.058.984,1.058.984c-.657,1.008-3.039,1.194-3.22,1.573-.22.46.856.893,1.44,1.143a3.4,3.4,0,0,0,2.938-.176c.63-.479,1.665-1.109,1.665-1.109Z" transform="translate(-1864.459 -1290.343)" fill="#ffb27d"/>
          <path id="Path_136663" data-name="Path 136663" d="M1960.479,1120.4s5.332.349,6.665,2.428,5.614,13.925,4.921,17.551-13.373,7.978-13.373,7.978a2.38,2.38,0,0,1-.561-1.786,3.716,3.716,0,0,1,.406-1.533s7.78-6.5,7.245-7.8C1963.8,1132.457,1960.479,1120.4,1960.479,1120.4Z" transform="translate(-1906.262 -1103.893)" fill="#aec3ff"/>
        </g>
      </g>
    </g>
    <path id="Path_136664" data-name="Path 136664" d="M537.744,1828.456l-256.83-.108a.367.367,0,0,1-.325-.4v-.241a.367.367,0,0,1,.325-.4l256.83.108a.366.366,0,0,1,.325.4v.241A.367.367,0,0,1,537.744,1828.456Z" transform="translate(-37.531 -1517.805)" fill="#2e3552"/>
  </g>
</svg>
