<svg xmlns="http://www.w3.org/2000/svg" width="152" height="153" viewBox="0 0 152 153">
  <g id="t2-i7" transform="translate(-468 -2665)">
    <ellipse id="Ellipse_4194" data-name="Ellipse 4194" cx="76" cy="76.5" rx="76" ry="76.5" transform="translate(468 2665)" fill="#fff"/>
    <g id="trade" transform="translate(499 2695.995)">
      <path id="Path_136273" data-name="Path 136273" d="M273.529,8.538l-9,12,9,12h33v-24Zm1.5,15a3,3,0,1,1,3-3A3,3,0,0,1,275.029,23.538Z" transform="translate(-218.03 -7.033)" fill="#17c878"/>
      <path id="Path_136274" data-name="Path 136274" d="M377.979,39.274l-26.761,18.6h26.761Z" transform="translate(-289.481 -32.366)" fill="#15b56d"/>
      <rect id="Rectangle_32108" data-name="Rectangle 32108" width="41.999" height="37.499" transform="translate(24 37.504)" fill="#f1d54e"/>
      <rect id="Rectangle_32109" data-name="Rectangle 32109" width="9" height="9" transform="translate(40.499 37.504)" fill="#fb9e36"/>
      <path id="Path_136275" data-name="Path 136275" d="M412.935,38.638h5.646v-3h-3v-1.5h-3v1.536a3.342,3.342,0,0,0-1.146,6.318l3.948,1.974a.354.354,0,0,1-.15.672h-5.652v3h3v1.5h3V47.6a3.342,3.342,0,0,0,1.146-6.318L412.78,39.31a.354.354,0,0,1,.15-.672Z" transform="translate(-337.583 -28.133)" fill="#87ced9"/>
      <path id="Path_136276" data-name="Path 136276" d="M213.413,102.77h-6.75v-3h6.75a5.25,5.25,0,0,0,0-10.5H181.164a10.5,10.5,0,1,1,0-21h13.5v3h-13.5a7.5,7.5,0,1,0,0,15h32.249a8.25,8.25,0,1,1,0,16.5Z" transform="translate(-140.665 -56.266)" fill="#4398d1"/>
      <path id="Path_136277" data-name="Path 136277" d="M136.531,274.7v.75h42V243.2Z" transform="translate(-112.531 -200.447)" fill="#fb9e36"/>
      <path id="Path_136278" data-name="Path 136278" d="M149.93,355.822h-3a5.25,5.25,0,0,0,5.25-5.25h0a5.25,5.25,0,0,0-5.25-5.25h-15a21.16,21.16,0,0,0-21,0h0v25.5h39L177.14,354.5a5.745,5.745,0,0,0,2.79-4.927h0a5.747,5.747,0,0,0-5.746-5.746h-.316a5.749,5.749,0,0,0-2.7.676Z" transform="translate(-91.431 -282.319)" fill="#fec9a3"/>
      <rect id="Rectangle_32110" data-name="Rectangle 32110" width="19.5" height="25.499" transform="translate(0 63.004)" fill="#17c878"/>
      <path id="Path_136279" data-name="Path 136279" d="M248.4,412.6H231.9a1.5,1.5,0,1,1,0-3h16.5a1.5,1.5,0,1,1,0,3Z" transform="translate(-189.897 -337.594)" fill="#f5b789"/>
      <rect id="Rectangle_32111" data-name="Rectangle 32111" width="19.5" height="15" transform="translate(0 73.504)" fill="#15b56d"/>
      <circle id="Ellipse_4212" data-name="Ellipse 4212" cx="3" cy="3" r="3" transform="translate(7.5 76.504)" fill="#17c878"/>
      <path id="Path_136280" data-name="Path 136280" d="M43.132,431.164a4.5,4.5,0,1,0-4.5,4.5,4.5,4.5,0,0,0,4.5-4.5Zm-6,0a1.5,1.5,0,1,1,1.5,1.5A1.5,1.5,0,0,1,37.132,431.164Z" transform="translate(-28.132 -351.66)"/>
      <path id="Path_136281" data-name="Path 136281" d="M88.5,0h-33a1.5,1.5,0,0,0-1.2.6L45.749,12H40.5a10.5,10.5,0,0,0,0,21H72.749a5.25,5.25,0,1,1,0,10.5H67.5v-6A1.5,1.5,0,0,0,66,36H24a1.5,1.5,0,0,0-1.5,1.5V60a22.356,22.356,0,0,0-3.37,1.5H0v3H18V87H0v3H56.837A7.508,7.508,0,0,0,60.7,88.934L86.479,73.465A7.246,7.246,0,0,0,82.752,60h-.316a7.266,7.266,0,0,0-3.409.852L67.5,67V46.5h5.25a8.25,8.25,0,1,0,0-16.5H40.5a7.5,7.5,0,1,1,0-15h5.25L54.3,26.4a1.5,1.5,0,0,0,1.2.6h33A1.5,1.5,0,0,0,90,25.5V1.5A1.5,1.5,0,0,0,88.5,0ZM42,39h6v6H42V39ZM25.5,39H39v7.5A1.5,1.5,0,0,0,40.5,48h9A1.5,1.5,0,0,0,51,46.5V39H64.5V68.6l-2.457,1.309A6.75,6.75,0,0,0,55.5,61.5H40.891A22.762,22.762,0,0,0,25.5,59.176V39ZM80.438,63.5a4.256,4.256,0,0,1,2-.5h.316a4.247,4.247,0,0,1,2.184,7.888L59.153,86.361A4.5,4.5,0,0,1,56.837,87H21V63.9a19.753,19.753,0,0,1,18.75.41,1.493,1.493,0,0,0,.75.191h15a3.75,3.75,0,1,1,0,7.5H42a1.5,1.5,0,1,0,0,3H58.5a1.507,1.507,0,0,0,.706-.175ZM87,24H56.249L49.5,15h3.276a4.5,4.5,0,1,0,0-3H49.5l6.75-9H87ZM55.5,13.5A1.5,1.5,0,1,1,57,15,1.5,1.5,0,0,1,55.5,13.5Z"/>
      <path id="Path_136282" data-name="Path 136282" d="M412.582,49.138h3V47.6a3.342,3.342,0,0,0,1.146-6.318L412.78,39.31a.354.354,0,0,1,.15-.672h5.652v-3h-3v-1.5h-3v1.536a3.342,3.342,0,0,0-1.146,6.318l3.948,1.974a.354.354,0,0,1-.15.672h-5.652v3h3Z" transform="translate(-337.583 -28.133)"/>
    </g>
  </g>
</svg>
