<svg xmlns="http://www.w3.org/2000/svg" width="56.22" height="65" viewBox="0 0 56.22 65">
  <g id="t2-ic2" transform="translate(-48.837 -16)">
    <path id="Path_136312" data-name="Path 136312" d="M79.961,100.078a18.535,18.535,0,0,0,0,10.178,18.532,18.532,0,0,1,.712,5.089v2.822a3.251,3.251,0,0,1-3.25,3.25H60.09a3.251,3.251,0,0,1-3.25-3.25v-2.822a18.525,18.525,0,0,1,.713-5.091,18.535,18.535,0,0,0,0-10.179q-.2-.695-.342-1.408a18.208,18.208,0,0,1-.325-2.4q-.045-.636-.045-1.274V90.251A18.644,18.644,0,0,1,57.954,83.9q.072-.2.151-.4a18.63,18.63,0,0,1,3.058-5.186A5.412,5.412,0,0,0,62.4,75.3l.724-8.7L63.34,64H74.173l.217,2.6.724,8.7a5.423,5.423,0,0,0,1.236,3.017,18.64,18.64,0,0,1,4.322,11.937v4.738a18.5,18.5,0,0,1-.179,2.573c-.051.367-.114.736-.19,1.1q-.142.711-.343,1.411Z" transform="translate(-6.919 -41.5)" fill="#f1d54e"/>
    <path id="Path_136313" data-name="Path 136313" d="M79.961,207.018a18.535,18.535,0,0,0,0,10.178,18.532,18.532,0,0,1,.712,5.089v2.822a3.251,3.251,0,0,1-3.25,3.25H60.09a3.251,3.251,0,0,1-3.25-3.25v-2.822a18.525,18.525,0,0,1,.713-5.091,18.535,18.535,0,0,0,0-10.179q-.2-.695-.342-1.408a18.208,18.208,0,0,1-.325-2.4A55.408,55.408,0,0,0,78.071,187.69a18.631,18.631,0,0,1,2.6,9.5v4.738a18.5,18.5,0,0,1-.179,2.573c-.051.367-.114.736-.19,1.1Q80.161,206.318,79.961,207.018Z" transform="translate(-6.919 -148.44)" fill="#fb9e36"/>
    <path id="Path_136314" data-name="Path 136314" d="M114.507,66.6l-1.3.65-2.167-1.083-2.167,1.083-2.167-1.083L104.54,67.25l-1.3-.65.217-2.6H114.29Z" transform="translate(-47.036 -41.5)" fill="#fb9e36"/>
    <path id="Path_136315" data-name="Path 136315" d="M80.673,214.751v4.738a18.5,18.5,0,0,1-.179,2.573c-.051.367-.114.736-.19,1.1H57.21a18.208,18.208,0,0,1-.325-2.4q-.045-.636-.045-1.274v-4.738a18.644,18.644,0,0,1,1.114-6.349q.072-.2.151-.4h21.3A18.639,18.639,0,0,1,80.673,214.751Z" transform="translate(-6.919 -166)" fill="#fff"/>
    <path id="Path_136316" data-name="Path 136316" d="M297.644,175.793q0,.437-.008.873a47.581,47.581,0,0,1-2.1,13.119,47.576,47.576,0,0,0-2,10.828l-.715,10.72H277.659l-.715-10.72a47.605,47.605,0,0,0-.685-5.472q-.317-1.714-.758-3.4-.256-.983-.555-1.954a47.545,47.545,0,0,1-1.939-17.945l.32-3.84h23.833l.32,3.84Q297.644,173.817,297.644,175.793Z" transform="translate(-193.67 -131.417)" fill="#f6f6f6"/>
    <path id="Path_136317" data-name="Path 136317" d="M314.623,175.793q0,.437-.008.873a47.581,47.581,0,0,1-2.1,13.119,47.574,47.574,0,0,0-2,10.828l-.715,10.72H294.639l-.715-10.72a47.605,47.605,0,0,0-.685-5.472q-.317-1.714-.758-3.4c6.408-5.411,12.319-13.121,17.23-23.74h4.428l.32,3.84Q314.623,173.817,314.623,175.793Z" transform="translate(-210.65 -131.417)" fill="#e8e8e8"/>
    <path id="Path_136318" data-name="Path 136318" d="M297.687,232a47.581,47.581,0,0,1-2.1,13.119,47.575,47.575,0,0,0-2,10.828l-.715,10.72H277.71l-.715-10.72a47.606,47.606,0,0,0-.685-5.472q-.317-1.714-.758-3.4-.256-.983-.555-1.954A47.581,47.581,0,0,1,272.9,232Z" transform="translate(-193.721 -186.75)" fill="#f1d54e"/>
    <path id="Path_136319" data-name="Path 136319" d="M314.615,232a47.581,47.581,0,0,1-2.1,13.119,47.575,47.575,0,0,0-2,10.828l-.715,10.72H294.639l-.715-10.72a47.606,47.606,0,0,0-.685-5.472q-.317-1.714-.758-3.4A61.128,61.128,0,0,0,305.108,232Z" transform="translate(-210.65 -186.75)" fill="#fb9e36"/>
    <path id="Path_136320" data-name="Path 136320" d="M316.42,272h6.5v6.5h-6.5Z" transform="translate(-231.348 -221.333)" fill="#ffe775"/>
    <path id="Path_136321" data-name="Path 136321" d="M0,0H6.128V6.128H0Z" transform="translate(87.229 65.833) rotate(-45)" fill="#ffe775"/>
    <path id="Path_136322" data-name="Path 136322" d="M80.959,214.751v4.738a18.5,18.5,0,0,1-.179,2.573c-.051.367-.114.736-.19,1.1H57.495a18.207,18.207,0,0,1-.325-2.4A55.531,55.531,0,0,0,75.881,208h3.813A18.639,18.639,0,0,1,80.959,214.751Z" transform="translate(-7.205 -166)" fill="#e8e8e8"/>
    <path id="Path_136323" data-name="Path 136323" d="M109.84,29.417,107.673,30.5l-2.167-1.083L103.34,30.5l-2.167-1.083L99.007,30.5,96.84,29.417v-3.25A2.167,2.167,0,0,1,99.007,24h8.667a2.167,2.167,0,0,1,2.167,2.167Z" transform="translate(-41.503 -6.917)" fill="#e8e8e8"/>
    <path id="Path_136324" data-name="Path 136324" d="M70.264,36.121a4.339,4.339,0,0,1-.989-2.414l-.837-10.046.384-.192a1.083,1.083,0,0,0,.6-.969V19.25A3.254,3.254,0,0,0,66.171,16H57.5a3.254,3.254,0,0,0-3.25,3.25V22.5a1.083,1.083,0,0,0,.6.969l2.167,1.083a1.083,1.083,0,0,0,.969,0l1.682-.841,1.682.841a1.083,1.083,0,0,0,.969,0L64,23.711l1.682.841a1.049,1.049,0,0,0,.66.1l.769,9.235A6.506,6.506,0,0,0,68.6,37.507a17.509,17.509,0,0,1,2.224,3.409H52.851a17.521,17.521,0,0,1,2.225-3.41,6.461,6.461,0,0,0,1.484-3.621l.62-7.437-2.159-.18-.62,7.438a4.306,4.306,0,0,1-.989,2.413A19.673,19.673,0,0,0,50.178,41.6q-.085.216-.163.432a19.678,19.678,0,0,0-1.178,6.716v4.738a19.525,19.525,0,0,0,.392,3.894c.1.487.219.99.362,1.492a17.445,17.445,0,0,1,0,9.586,19.6,19.6,0,0,0-.753,5.383v2.822A4.338,4.338,0,0,0,53.171,81H70.5a4.338,4.338,0,0,0,4.333-4.333V73.845a19.61,19.61,0,0,0-.754-5.388,17.452,17.452,0,0,1,0-9.582c.143-.5.265-1,.362-1.49.08-.39.149-.786.2-1.177a19.612,19.612,0,0,0,.19-2.72V48.751A19.725,19.725,0,0,0,70.264,36.12Zm-5.776-14.59a1.083,1.083,0,0,0-.969,0l-1.682.841-1.682-.841a1.083,1.083,0,0,0-.969,0l-1.682.841-1.083-.542V19.25A1.085,1.085,0,0,1,57.5,18.167h8.667a1.085,1.085,0,0,1,1.083,1.083V21.83l-1.083.542ZM51,48.751a17.511,17.511,0,0,1,.94-5.667H71.731a17.484,17.484,0,0,1,.94,5.667v4.738a17.46,17.46,0,0,1-.169,2.421c-.008.057-.018.116-.027.174H51.2A17.429,17.429,0,0,1,51,53.489ZM72.671,76.667A2.169,2.169,0,0,1,70.5,78.833H53.171A2.169,2.169,0,0,1,51,76.667V73.845a17.451,17.451,0,0,1,.671-4.792,19.617,19.617,0,0,0,0-10.775l-.008-.028H72.008L72,58.28a19.618,19.618,0,0,0,0,10.773,17.444,17.444,0,0,1,.671,4.791Z"/>
    <path id="Path_136325" data-name="Path 136325" d="M85.754,230.913l-2.129-.4a18.414,18.414,0,0,0-.288,2.3l2.163.132a16.2,16.2,0,0,1,.254-2.03Z" transform="translate(-29.829 -185.461)"/>
    <path id="Path_136326" data-name="Path 136326" d="M83.086,264h2.167v4.333H83.086Z" transform="translate(-29.611 -214.417)"/>
    <path id="Path_136327" data-name="Path 136327" d="M110.335,114.594V112h-2.167v2.594a11.78,11.78,0,0,1-1.985,6.555l1.8,1.2A13.939,13.939,0,0,0,110.335,114.594Z" transform="translate(-49.581 -83)"/>
    <path id="Path_136328" data-name="Path 136328" d="M152.84,112v2.594a13.94,13.94,0,0,0,2.349,7.757l1.8-1.2a11.78,11.78,0,0,1-1.985-6.555V112Z" transform="translate(-89.919 -83)"/>
    <path id="Path_136329" data-name="Path 136329" d="M136.84,352h2.167v10.833H136.84Z" transform="translate(-76.086 -290.5)"/>
    <path id="Path_136330" data-name="Path 136330" d="M96.84,352h2.167v10.833H96.84Z" transform="translate(-41.503 -290.5)"/>
    <path id="Path_136331" data-name="Path 136331" d="M176.84,352h2.167v10.833H176.84Z" transform="translate(-110.669 -290.5)"/>
    <path id="Path_136332" data-name="Path 136332" d="M291.642,164.834l-.319-3.84a1.083,1.083,0,0,0-1.08-.994H266.409a1.083,1.083,0,0,0-1.08.994l-.319,3.841a48.623,48.623,0,0,0,1.983,18.354,46.481,46.481,0,0,1,1.953,10.581l.715,10.72a1.083,1.083,0,0,0,1.081,1.011h15.167a1.083,1.083,0,0,0,1.081-1.011l.715-10.72a46.545,46.545,0,0,1,1.953-10.581,48.652,48.652,0,0,0,2.144-13.417q.008-.447.008-.894C291.811,167.541,291.754,166.18,291.642,164.834Zm-24.472.18.237-2.847h21.839l.237,2.847c.1,1.217.154,2.444.159,3.653H267.01c.006-1.214.058-2.438.16-3.653Zm20.418,17.536a48.71,48.71,0,0,0-2.044,11.075l-.648,9.708h-13.14l-.648-9.708a48.677,48.677,0,0,0-2.044-11.075,46.491,46.491,0,0,1-2.013-11.717H289.6A46.489,46.489,0,0,1,287.587,182.55Z" transform="translate(-186.754 -124.5)"/>
    <path id="Path_136333" data-name="Path 136333" d="M317.087,271.583v-6.5A1.083,1.083,0,0,0,316,264h-6.5a1.083,1.083,0,0,0-1.083,1.083v6.5a1.083,1.083,0,0,0,1.083,1.083H316A1.083,1.083,0,0,0,317.087,271.583ZM314.92,270.5h-4.333v-4.333h4.333Z" transform="translate(-224.431 -214.417)"/>
    <path id="Path_136334" data-name="Path 136334" d="M330.6,344.317a1.083,1.083,0,0,0-1.532,0l-4.333,4.333a1.083,1.083,0,0,0,0,1.532l4.333,4.333a1.083,1.083,0,0,0,1.532,0l4.333-4.333a1.083,1.083,0,0,0,0-1.532Zm-.766,7.9-2.8-2.8,2.8-2.8,2.8,2.8Z" transform="translate(-238.264 -283.583)"/>
    <path id="Path_136335" data-name="Path 136335" d="M388.42,320h2.167v2.167H388.42Z" transform="translate(-293.598 -262.833)"/>
    <path id="Path_136336" data-name="Path 136336" d="M412.42,264h2.167v2.167H412.42Z" transform="translate(-314.348 -214.417)"/>
    <path id="Path_136337" data-name="Path 136337" d="M332.42,440h2.167v2.167H332.42Z" transform="translate(-245.181 -366.583)"/>
    <path id="Path_136338" data-name="Path 136338" d="M380.42,432h2.167v2.167H380.42Z" transform="translate(-286.681 -359.667)"/>
  </g>
</svg>
