<svg xmlns="http://www.w3.org/2000/svg" width="65" height="69.773" viewBox="0 0 65 69.773">
  <g id="t2-ic1" transform="translate(-17.512 0)">
    <g id="Group_94618" data-name="Group 94618" transform="translate(19.637 12.947)">
      <path id="Path_136283" data-name="Path 136283" d="M152.38,136.815v30.461h22.664V136.815a.72.72,0,0,0-.72-.72H153.1A.72.72,0,0,0,152.38,136.815Z" transform="translate(-136.126 -130.496)" fill="#f6f6f6"/>
      <path id="Path_136284" data-name="Path 136284" d="M290.085,136.095h-3.679a.72.72,0,0,1,.72.72v30.461H290.8V136.815A.719.719,0,0,0,290.085,136.095Z" transform="translate(-251.888 -130.496)" fill="#e8e8e8"/>
      <path id="Path_136285" data-name="Path 136285" d="M179.24,100.606v-4.88a.72.72,0,0,1,.72-.72h13.9a.72.72,0,0,1,.72.72v4.88Z" transform="translate(-159.326 -95.007)" fill="#f1d54e"/>
      <path id="Path_136286" data-name="Path 136286" d="M263.225,95.006h-3.679a.72.72,0,0,1,.72.72v4.88h3.679v-4.88A.72.72,0,0,0,263.225,95.006Z" transform="translate(-228.688 -95.006)" fill="#fb9e36"/>
      <path id="Path_136287" data-name="Path 136287" d="M82.373,196.322V219.3H71.328v-22.11a.863.863,0,0,1,.863-.863Z" transform="translate(-66.12 -182.515)" fill="#f1d54e"/>
      <path id="Path_136288" data-name="Path 136288" d="M329.732,197.185V219.3H318.687V196.322h10.182A.864.864,0,0,1,329.732,197.185Z" transform="translate(-279.77 -182.515)" fill="#f1d54e"/>
      <path id="Path_136289" data-name="Path 136289" d="M370.945,196.322H367.4a.863.863,0,0,1,.863.863V219.3h3.543v-22.11A.863.863,0,0,0,370.945,196.322Z" transform="translate(-321.846 -182.515)" fill="#fb9e36"/>
      <path id="Path_136290" data-name="Path 136290" d="M126.38,196.322h3.543V219.3H126.38Z" transform="translate(-113.669 -182.515)" fill="#fb9e36"/>
      <path id="Path_136291" data-name="Path 136291" d="M357.025,150.938a8.6,8.6,0,0,0,6.574.538c10.231-3.277,8.889-18.046,2.033-23.224-1.141-.862-11.6,5.62-12.774,13.691C352.335,145.535,353.583,149.157,357.025,150.938Z" transform="translate(-309.185 -123.655)" fill="#17c878"/>
      <path id="Path_136292" data-name="Path 136292" d="M391.307,128.253c-.192-.145-.65-.081-1.283.163,5.637,6.168,5.36,19.871-4.659,22.217a8.675,8.675,0,0,1-2.9.18c.076.042.152.085.23.125a8.6,8.6,0,0,0,6.574.538C399.5,148.2,398.162,133.431,391.307,128.253Z" transform="translate(-334.86 -123.656)" fill="#129e5f"/>
      <path id="Path_136293" data-name="Path 136293" d="M313.425,210.034a1.914,1.914,0,0,1-.5-3.734,19.162,19.162,0,0,0,8.095-4.782,23.307,23.307,0,0,0,5.254-9.209,1.913,1.913,0,0,1,3.631,1.207,27.007,27.007,0,0,1-6.153,10.681,22.882,22.882,0,0,1-9.662,5.749A1.909,1.909,0,0,1,313.425,210.034Z" transform="translate(-273.644 -177.917)" fill="#ffcdbe"/>
      <path id="Path_136294" data-name="Path 136294" d="M86.58,364.9a1.692,1.692,0,0,1,1.5,2.472,30.94,30.94,0,0,1-54.782,0,1.692,1.692,0,0,1,1.5-2.472Z" transform="translate(-33.108 -328.124)" fill="#45ffab"/>
      <path id="Path_136295" data-name="Path 136295" d="M247.6,364.9h-4.361a1.692,1.692,0,0,1,1.5,2.472,30.934,30.934,0,0,1-25.21,16.476q1.081.075,2.18.076a30.924,30.924,0,0,0,27.391-16.551A1.692,1.692,0,0,0,247.6,364.9Z" transform="translate(-194.129 -328.124)" fill="#17c878"/>
    </g>
    <g id="Group_94619" data-name="Group 94619" transform="translate(17.512 0)">
      <path id="Path_136296" data-name="Path 136296" d="M190.387,182.2h10.535a1.022,1.022,0,0,0,0-2.045H190.387a1.022,1.022,0,0,0,0,2.045Z" transform="translate(-165.946 -155.602)"/>
      <path id="Path_136297" data-name="Path 136297" d="M190.387,244.956h10.535a1.022,1.022,0,0,0,0-2.045H190.387a1.022,1.022,0,0,0,0,2.045Z" transform="translate(-165.946 -209.808)"/>
      <path id="Path_136298" data-name="Path 136298" d="M201.945,306.692a1.022,1.022,0,0,0-1.022-1.022H190.388a1.022,1.022,0,0,0,0,2.045h10.535A1.022,1.022,0,0,0,201.945,306.692Z" transform="translate(-165.946 -264.015)"/>
      <path id="Path_136299" data-name="Path 136299" d="M83.625,69.961a2.51,2.51,0,0,0-2.425.087,24.449,24.449,0,0,0-9.944,8.919H66.5V72.5a1.744,1.744,0,0,0-1.742-1.742h-1.92V66.9a1.744,1.744,0,0,0-1.742-1.742H55.161V62.673a1.022,1.022,0,0,0-2.045,0v2.482H47.184A1.744,1.744,0,0,0,45.442,66.9v3.858H43.522A1.744,1.744,0,0,0,41.78,72.5v6.469H32.617a1.888,1.888,0,0,0-1.886,1.886v2.5a1.022,1.022,0,1,0,2.045,0V81.012h9v20.936h-9V88.125a1.022,1.022,0,0,0-2.045,0v13.823H28.242a2.715,2.715,0,0,0-2.409,3.971,31.974,31.974,0,0,0,46.755,11.243,1.022,1.022,0,1,0-1.182-1.669,29.722,29.722,0,0,1-9.021,4.334,24.609,24.609,0,0,0,6.2-8.21h7.285q-.446.471-.913.925a1.022,1.022,0,1,0,1.423,1.468,32,32,0,0,0,6.06-8.092,2.715,2.715,0,0,0-2.409-3.971H77.545V95.409c.261.021.523.034.785.034a9.712,9.712,0,0,0,2.956-.461A11.414,11.414,0,0,0,89.2,85.51c.99-5.821-1.356-12.36-5.578-15.549ZM70.187,81.011a12.986,12.986,0,0,0-.968,3.314,10.169,10.169,0,0,0,1.307,6.942,19.508,19.508,0,0,1-4.03,2V81.011ZM72.609,92.3A23.315,23.315,0,0,0,80.162,80.9a.892.892,0,0,1,1.692.562A26.027,26.027,0,0,1,75.939,91.75a21.894,21.894,0,0,1-9.247,5.492.891.891,0,0,1-.543-1.7A21.657,21.657,0,0,0,72.609,92.3ZM53.115,120.921c-2.943-.32-5.787-2.036-8.269-5a25.193,25.193,0,0,1-2.862-4.3H53.115ZM40.988,109.573a38.584,38.584,0,0,1-1.966-5.58H53.115v5.58Zm14.172-5.58H69.254a38.591,38.591,0,0,1-1.966,5.58H55.16ZM47.487,67.2h13.3v3.556h-13.3Zm-3.662,5.6H64.452V94.218a2.928,2.928,0,0,0,0,4.35v3.381H43.825ZM27.664,104.32a.666.666,0,0,1,.578-.327h8.662a41.679,41.679,0,0,0,1.857,5.58H30.629a30.161,30.161,0,0,1-2.986-4.606A.649.649,0,0,1,27.664,104.32Zm4.726,7.3h7.3a24.613,24.613,0,0,0,6.2,8.207A29.812,29.812,0,0,1,32.39,111.618Zm22.77,9.3v-9.3H66.292C63.933,116.035,60.141,120.38,55.16,120.921Zm25.452-16.6a.65.65,0,0,1,.021.647,29.914,29.914,0,0,1-2.992,4.606H69.514a41.673,41.673,0,0,0,1.857-5.58h8.662a.666.666,0,0,1,.578.327ZM75.5,101.948h-9V99.327a2.925,2.925,0,0,0,.818-.137A24.923,24.923,0,0,0,75.4,94.984l.1.031ZM87.188,85.167a9.55,9.55,0,0,1-6.524,7.867,7.656,7.656,0,0,1-3.4.287c.047-.047.095-.092.141-.139A28.006,28.006,0,0,0,83.794,82.1a2.936,2.936,0,1,0-5.573-1.852,22.33,22.33,0,0,1-5.016,8.819q-.5.505-1.036.964a8.212,8.212,0,0,1-.928-5.415c.589-4.052,3.736-7.459,5.56-9.129a16.432,16.432,0,0,1,5.776-3.754C86.052,74.505,88.028,80.226,87.188,85.167Z" transform="translate(-24.429 -53.25)"/>
      <path id="Path_136300" data-name="Path 136300" d="M25.466,264.989a1.022,1.022,0,0,0,.7-1.263c-.071-.25-.14-.506-.2-.761a1.022,1.022,0,0,0-1.982.5c.069.274.143.549.22.818A1.022,1.022,0,0,0,25.466,264.989Z" transform="translate(-23.074 -226.463)"/>
      <path id="Path_136301" data-name="Path 136301" d="M261.412,4.362c1.209.188,1.588.319,1.813.319a1.022,1.022,0,0,0,.215-2.022c-.565-.122-1.142-.229-1.714-.318a1.022,1.022,0,0,0-.314,2.021Z" transform="translate(-227.426 -2.012)"/>
      <path id="Path_136302" data-name="Path 136302" d="M208.21,2.16c.157,0,.641-.074,1.72-.116A1.022,1.022,0,1,0,209.849,0c-.578.023-1.163.063-1.738.12a1.022,1.022,0,0,0,.1,2.04Z" transform="translate(-181.34 0)"/>
      <path id="Path_136303" data-name="Path 136303" d="M358.069,46.32c.424.332.844.681,1.248,1.038a1.022,1.022,0,1,0,1.352-1.534c-.434-.383-.885-.757-1.34-1.114a1.022,1.022,0,1,0-1.261,1.61Z" transform="translate(-311.321 -38.43)"/>
      <path id="Path_136304" data-name="Path 136304" d="M312.433,19.133c.494.214.988.447,1.469.69A1.022,1.022,0,1,0,314.826,18c-.517-.262-1.048-.511-1.578-.741a1.022,1.022,0,1,0-.815,1.875Z" transform="translate(-271.711 -14.833)"/>
      <path id="Path_136305" data-name="Path 136305" d="M156.2,11.422a10.523,10.523,0,0,0,1.891-.579,1.022,1.022,0,1,0-.593-1.957c-.553.168-1.109.354-1.652.555a1.023,1.023,0,0,0,.354,1.982Z" transform="translate(-136.418 -7.637)"/>
      <path id="Path_136306" data-name="Path 136306" d="M22.526,159.964a1.022,1.022,0,0,0,1.205-.8c.107-.528.231-1.059.369-1.58a1.022,1.022,0,0,0-1.977-.523c-.148.559-.281,1.13-.4,1.7a1.023,1.023,0,0,0,.8,1.2Z" transform="translate(-21.135 -135.001)"/>
      <path id="Path_136307" data-name="Path 136307" d="M19.6,211.85c-.046-.866-.038-1.538-.038-1.624a1.025,1.025,0,0,0-1.017-1.028h-.005a1.02,1.02,0,0,0-1.022,1.017c0,.021-.01.76.041,1.741a1.022,1.022,0,0,0,2.042-.107Z" transform="translate(-17.512 -180.69)"/>
      <path id="Path_136308" data-name="Path 136308" d="M39.461,110.3a1.022,1.022,0,0,0,1.368-.468c.237-.484.492-.967.757-1.437a1.022,1.022,0,0,0-1.78-1.007c-.285.5-.559,1.024-.814,1.543A1.022,1.022,0,0,0,39.461,110.3Z" transform="translate(-35.975 -92.305)"/>
      <path id="Path_136309" data-name="Path 136309" d="M108.9,33.671c.48,0,.5-.185,1.941-1.071a1.022,1.022,0,1,0-1.068-1.744c-.493.3-.983.623-1.457.953a1.022,1.022,0,0,0,.585,1.862Z" transform="translate(-95.564 -26.521)"/>
      <path id="Path_136310" data-name="Path 136310" d="M68.632,67.151a1.022,1.022,0,0,0,1.442-.109c.351-.409.719-.813,1.093-1.2A1.022,1.022,0,1,0,69.7,64.421c-.4.416-.8.849-1.173,1.288A1.022,1.022,0,0,0,68.632,67.151Z" transform="translate(-61.358 -55.373)"/>
      <path id="Path_136311" data-name="Path 136311" d="M395.989,84.824a1.022,1.022,0,0,0,1.659-1.2c-.166-.23-.336-.459-.505-.68a1.022,1.022,0,1,0-1.624,1.243C395.676,84.4,395.834,84.61,395.989,84.824Z" transform="translate(-343.824 -71.298)"/>
    </g>
  </g>
</svg>
