<svg xmlns="http://www.w3.org/2000/svg" width="295" height="233" viewBox="0 0 295 233">
  <g id="t3-i2" transform="translate(-180 -929)">
    <path id="Rectangle_31103" data-name="Rectangle 31103" d="M75,0h57a0,0,0,0,1,0,0V158a75,75,0,0,1-75,75H0a0,0,0,0,1,0,0V75A75,75,0,0,1,75,0Z" transform="translate(343 929)" fill="#f1d54e" opacity="0.15"/>
    <path id="Rectangle_31395" data-name="Rectangle 31395" d="M0,0H57a75,75,0,0,1,75,75V189a0,0,0,0,1,0,0H75A75,75,0,0,1,0,114V0A0,0,0,0,1,0,0Z" transform="translate(180 973)" fill="#17c878" opacity="0.15"/>
    <g id="Fill_Outline" data-name="Fill Outline" transform="translate(245 964)">
      <g id="Color" transform="translate(4.533 4.533)">
        <ellipse id="Ellipse_4221" data-name="Ellipse 4221" cx="45" cy="45" rx="45" ry="45" transform="translate(32.467 32.466)" fill="#f1d54e"/>
        <path id="Path_137235" data-name="Path 137235" d="M92.654,72.257A40.533,40.533,0,1,1,38.137,17.74,40.533,40.533,0,0,0,92.654,72.257Z" transform="translate(20.688 23.852)" fill="#fb9e36"/>
        <path id="Path_137236" data-name="Path 137236" d="M50.4,20A30.4,30.4,0,1,0,80.8,50.4,30.4,30.4,0,0,0,50.4,20ZM70.033,73.149c-.633.025-1.267.051-1.9.051A40.533,40.533,0,0,1,27.6,32.667c0-.633.025-1.267.051-1.9A30.37,30.37,0,0,1,70.033,73.149Z" transform="translate(27.067 27.067)" fill="#f1d54e"/>
        <path id="Path_137237" data-name="Path 137237" d="M3,41H33.4V91.667H3Z" transform="translate(-3 63.267)" fill="#e9f1f2"/>
        <path id="Path_137238" data-name="Path 137238" d="M13.133,71.4v5.067A10.133,10.133,0,0,0,23.267,86.6H33.4v5.067H3V41H33.4V71.4Z" transform="translate(-3 63.267)" fill="#d0d8da"/>
        <path id="Path_137239" data-name="Path 137239" d="M15,53H35.267V73.267H15Z" transform="translate(17.32 81.667)" fill="#d2f6e6"/>
        <path id="Path_137240" data-name="Path 137240" d="M35.267,67.133H15V57h7.6Z" transform="translate(17.32 87.8)" fill="#17c878"/>
        <path id="Path_137241" data-name="Path 137241" d="M35.267,63.133H15V53h7.6Z" transform="translate(17.32 81.667)" fill="#17c878"/>
        <g id="Group_95056" data-name="Group 95056" transform="translate(0 104.267)">
          <path id="Path_137242" data-name="Path 137242" d="M7,57H17.133V67.133H7Z" transform="translate(3.133 -16.467)" fill="#d2f6e6"/>
          <path id="Path_137243" data-name="Path 137243" d="M3,45H33.4V55.133H3Z" transform="translate(-3 -34.867)" fill="#d2f6e6"/>
          <path id="Path_137244" data-name="Path 137244" d="M3,41H33.4V51.133H3Z" transform="translate(-3 -41)" fill="#d2f6e6"/>
          <path id="Path_137245" data-name="Path 137245" d="M3,49H33.4V59.133H3Z" transform="translate(-3 -28.733)" fill="#d2f6e6"/>
        </g>
        <path id="Path_137246" data-name="Path 137246" d="M3,37H13.133V47.133H3Z" transform="translate(-3 54.17)" fill="#e9f1f2"/>
        <path id="Path_137247" data-name="Path 137247" d="M33.4,51.133H3V41H18.2Z" transform="translate(-3 60.896)" fill="#17c878"/>
        <path id="Path_137248" data-name="Path 137248" d="M33.4,55.133H3V45H18.2Z" transform="translate(-3 67.622)" fill="#17c878"/>
        <path id="Path_137249" data-name="Path 137249" d="M33.4,59.133H3V49H18.2Z" transform="translate(-3 75.533)" fill="#17c878"/>
        <path id="Path_137250" data-name="Path 137250" d="M13.133,44.6v2.533H3V37H5.533v2.533A5.082,5.082,0,0,0,10.6,44.6Z" transform="translate(-3 54.17)" fill="#d0d8da"/>
        <path id="Path_137251" data-name="Path 137251" d="M3,41H13.133V51.133H3Z" transform="translate(-3 60.896)" fill="#15b56d"/>
        <path id="Path_137252" data-name="Path 137252" d="M3,45H13.133V55.133H3Z" transform="translate(-3 67.622)" fill="#15b56d"/>
        <path id="Path_137253" data-name="Path 137253" d="M3,49H13.133V59.133H3Z" transform="translate(-3 75.533)" fill="#15b56d"/>
        <path id="Path_137254" data-name="Path 137254" d="M17.133,62.067v5.067H7V57H8.368a10.083,10.083,0,0,0,8.765,5.067Z" transform="translate(3.133 87.8)" fill="#afafaf"/>
        <circle id="Ellipse_4223" data-name="Ellipse 4223" cx="20" cy="20" r="20" transform="translate(114.467 0.466)" fill="#e8e8e8"/>
        <path id="Path_137255" data-name="Path 137255" d="M84.468,27.544A20.267,20.267,0,1,1,53.663,4.44a20.267,20.267,0,0,0,30.805,23.1Z" transform="translate(69.401 -0.792)" fill="#afafaf"/>
        <circle id="Ellipse_4224" data-name="Ellipse 4224" cx="7.5" cy="7.5" r="7.5" transform="translate(127.467 10.466)" fill="#ffea00"/>
        <path id="Path_137256" data-name="Path 137256" d="M73.333,23.133v.608a20.221,20.221,0,0,1-25.333,0v-.608A10.133,10.133,0,0,1,58.133,13H63.2A10.133,10.133,0,0,1,73.333,23.133Z" transform="translate(74 13.872)" fill="#ffea00"/>
        <path id="Path_137257" data-name="Path 137257" d="M73.333,22.888V23.5A20.221,20.221,0,0,1,48,23.5v-.608a10.078,10.078,0,0,1,7.347-9.728,20.3,20.3,0,0,0,16.441,4.357,10,10,0,0,1,1.545,5.371Z" transform="translate(74 14.137)" fill="#ffd000"/>
        <path id="Path_137258" data-name="Path 137258" d="M64.873,16.6A7.6,7.6,0,1,1,55.4,7.13a7.853,7.853,0,0,0-.329,2.2,7.6,7.6,0,0,0,7.6,7.6,7.853,7.853,0,0,0,2.2-.329Z" transform="translate(77.064 3.333)" fill="#ffd000"/>
        <path id="Path_137259" data-name="Path 137259" d="M73.333,22.091V22.7A20.221,20.221,0,0,1,48,22.7v-.608a10.014,10.014,0,0,1,4.509-8.411A12.7,12.7,0,0,0,63.2,19.557H73a9.264,9.264,0,0,1,.329,2.533Z" transform="translate(74 14.998)" fill="#ffb700"/>
        <path id="Path_137260" data-name="Path 137260" d="M14.532,27.2a4.813,4.813,0,0,1-4.56-3.293L6,12H16.133l2.959,8.867a4.813,4.813,0,0,1-4.56,6.333Z" transform="translate(1.6 12.185)" fill="#93999a"/>
        <path id="Path_137261" data-name="Path 137261" d="M14.537,27.2a4.791,4.791,0,0,1-4.56-3.293L6,12H16.133l1.216,3.673L13.6,14.533H11.067l1.444,4.307a4.791,4.791,0,0,0,4.56,3.293,4.689,4.689,0,0,0,2.229-.557A4.844,4.844,0,0,1,14.537,27.2Z" transform="translate(1.6 12.185)" fill="#656b76"/>
        <path id="Path_137262" data-name="Path 137262" d="M10.6,6h7.6V21.2H10.6A7.6,7.6,0,1,1,10.6,6Z" transform="translate(-3 1.6)" fill="#f1d54e"/>
        <path id="Path_137263" data-name="Path 137263" d="M34.333,33.4,9,25.8V10.6L34.333,3Z" transform="translate(6.2 -3)" fill="#e9f1f2"/>
        <path id="Path_137264" data-name="Path 137264" d="M34.333,22.864v7.347L9,22.611V7.411L16.8,5.08a20.183,20.183,0,0,0,14.237,16.8Z" transform="translate(6.2 0.189)" fill="#d0d8da"/>
        <path id="Path_137265" data-name="Path 137265" d="M15.663,6V16.133H13.129a7.6,7.6,0,0,1-7.6-7.6,2.467,2.467,0,0,1,.051-.608,2.042,2.042,0,0,0-.355.3A7.6,7.6,0,0,0,10.6,21.2h7.6V6Z" transform="translate(-2.996 1.6)" fill="#fb9e36"/>
        <path id="Path_137266" data-name="Path 137266" d="M47,47H82.467V82.467H47Z" transform="translate(72.467 72.467)" fill="#f1d54e"/>
        <path id="Path_137267" data-name="Path 137267" d="M52,47H62.133V57.133H52Z" transform="translate(80.133 70.985)" fill="#fb9e36"/>
        <path id="Path_137268" data-name="Path 137268" d="M82.467,74.867v7.6H47V47h7.6v7.6A20.267,20.267,0,0,0,74.867,74.867Z" transform="translate(72.467 72.467)" fill="#fb9e36"/>
      </g>
      <g id="Outline_copy" data-name="Outline copy" transform="translate(2 2)">
        <path id="Path_137269" data-name="Path 137269" d="M99.216,33.234a2.768,2.768,0,1,0-4.372,3.4A41.109,41.109,0,0,1,103.6,62.067,41.529,41.529,0,1,1,62.067,20.537,41.109,41.109,0,0,1,87.5,29.289a2.768,2.768,0,1,0,3.4-4.372,47.173,47.173,0,1,0,8.317,8.317Z" transform="translate(17.933 17.933)"/>
        <path id="Path_137270" data-name="Path 137270" d="M38.133,58.467A5.067,5.067,0,0,1,33.067,53.4,2.533,2.533,0,1,0,28,53.4a10.133,10.133,0,0,0,7.6,9.774v2.893a2.533,2.533,0,1,0,5.067,0V63.174a10.113,10.113,0,0,0-2.533-19.907A5.067,5.067,0,1,1,43.2,38.2a2.533,2.533,0,1,0,5.067,0,10.133,10.133,0,0,0-7.6-9.774V25.533a2.533,2.533,0,1,0-5.067,0v2.893a10.113,10.113,0,0,0,2.533,19.907,5.067,5.067,0,0,1,0,10.133Z" transform="translate(41.867 34.2)"/>
        <path id="Path_137271" data-name="Path 137271" d="M32.275,75.3a2.533,2.533,0,0,0,.6,3.531,33,33,0,1,0-7.76-7.76,2.533,2.533,0,1,0,4.127-2.939,27.933,27.933,0,1,1,6.571,6.572,2.533,2.533,0,0,0-3.534.6Z" transform="translate(28.072 27.981)"/>
        <path id="Path_137272" data-name="Path 137272" d="M55.2,79.6H37.467V51.733A2.533,2.533,0,0,0,34.933,49.2H17.2V36.533a2.533,2.533,0,0,0-5.067,0v2.533h-7.6A2.533,2.533,0,0,0,2,41.6v60.8a2.533,2.533,0,1,0,5.067,0V84.667H32.4v15.2H27.333v-7.6A2.533,2.533,0,0,0,24.8,89.733H14.667a2.533,2.533,0,0,0-2.533,2.533V102.4a2.533,2.533,0,0,0,2.533,2.533H55.2a2.533,2.533,0,0,0,2.533-2.533V82.133A2.533,2.533,0,0,0,55.2,79.6ZM7.067,44.133h5.067V49.2H7.067Zm0,30.4H24.8a2.533,2.533,0,1,0,0-5.067H7.067v-15.2H32.4v5.067H14.667a2.533,2.533,0,1,0,0,5.067H32.4V79.6H7.067ZM17.2,94.8h5.067v5.067H17.2Zm20.267,5.067v-15.2h15.2v5.067H47.6a2.533,2.533,0,1,0,0,5.067h5.067v5.067Z" transform="translate(-2 55.067)"/>
        <path id="Path_137273" data-name="Path 137273" d="M66.821,47.6A22.775,22.775,0,0,0,86.449,13.233a2.534,2.534,0,1,0-4.365,2.576,17.6,17.6,0,0,1-1,19.476A12.7,12.7,0,0,0,74.7,28.56a10.134,10.134,0,1,0-15.757,0,12.7,12.7,0,0,0-6.389,6.726A17.7,17.7,0,0,1,75.812,9.537a2.534,2.534,0,1,0,2.576-4.365A22.8,22.8,0,1,0,66.821,47.6Zm0-30.4a5.067,5.067,0,1,1-5.067,5.067A5.067,5.067,0,0,1,66.821,17.2ZM64.288,32.4h5.067a7.585,7.585,0,0,1,7.537,6.979,17.652,17.652,0,0,1-20.14,0A7.585,7.585,0,0,1,64.288,32.4Z" transform="translate(70.379 -2)"/>
        <path id="Path_137274" data-name="Path 137274" d="M10.206,29.677l3.458,10.371A7.347,7.347,0,1,0,27.6,35.4l-1.132-3.4L44.31,37.36a2.533,2.533,0,0,0,3.253-2.427v-7.6a2.533,2.533,0,1,0-5.067,0v4.2l-20.267-6.08V14.018L42.5,7.938V17.2a2.533,2.533,0,0,0,5.067,0V4.533A2.533,2.533,0,0,0,44.3,2.107L19.324,9.6H12.1a10.133,10.133,0,0,0-1.89,20.077Zm12.578,7.331a2.252,2.252,0,0,1-.312,2.047,2.359,2.359,0,0,1-4-.611l-2.858-8.578h3.711l1.2.36ZM12.1,14.667h5.067V24.8H12.1a5.067,5.067,0,1,1,0-10.133Z" transform="translate(-1.963 -2)"/>
        <path id="Path_137275" data-name="Path 137275" d="M84,46H48.533A2.533,2.533,0,0,0,46,48.533V84a2.533,2.533,0,0,0,2.533,2.533H84A2.533,2.533,0,0,0,86.533,84V66.267a2.533,2.533,0,1,0-5.067,0v15.2h-30.4v-30.4h7.6v7.6A2.533,2.533,0,0,0,61.2,61.2H71.333a2.533,2.533,0,0,0,2.533-2.533v-7.6h7.6v5.067a2.533,2.533,0,1,0,5.067,0v-7.6A2.533,2.533,0,0,0,84,46ZM68.8,56.133H63.733V51.067H68.8Z" transform="translate(73.467 73.467)"/>
        <path id="Path_137276" data-name="Path 137276" d="M57.167,78.683a2.533,2.533,0,0,0,3.347-1.267,70.9,70.9,0,0,0,1.343-54.563,2.533,2.533,0,1,0-4.723,1.834,65.841,65.841,0,0,1-1.266,50.649,2.533,2.533,0,0,0,1.3,3.347Z" transform="translate(88.264 31.63)"/>
        <path id="Path_137277" data-name="Path 137277" d="M68.033,55.878A65.494,65.494,0,0,1,29,60.438a2.534,2.534,0,0,0-.932,4.981A71.508,71.508,0,0,0,41.2,66.66,70.427,70.427,0,0,0,70.1,60.5a2.533,2.533,0,0,0-2.067-4.626Z" transform="translate(39.371 88.274)"/>
        <path id="Path_137278" data-name="Path 137278" d="M9.533,22.082A70.511,70.511,0,0,0,4,49.586a2.533,2.533,0,1,0,5.067,0A65.472,65.472,0,0,1,14.2,24.048a2.533,2.533,0,1,0-4.669-1.966Z" transform="translate(1.067 29.533)"/>
        <path id="Path_137279" data-name="Path 137279" d="M25.418,12.813a66.176,66.176,0,0,1,45.77.7A2.533,2.533,0,0,0,73.024,8.8a71.25,71.25,0,0,0-49.294-.76,2.533,2.533,0,1,0,1.687,4.775Z" transform="translate(32.695 1.082)"/>
      </g>
    </g>
  </g>
</svg>
