<svg xmlns="http://www.w3.org/2000/svg" width="1134" height="430" viewBox="0 0 1134 430">
  <g id="t3-i11" transform="translate(1218.357 1063.211)">
    <rect id="Rectangle_32806" data-name="Rectangle 32806" width="1134" height="430" transform="translate(-1218.357 -1063.211)" fill="#fff"/>
    <g id="Group_96609" data-name="Group 96609">
      <g id="Group_96608" data-name="Group 96608">
        <path id="Path_140312" data-name="Path 140312" d="M-941.763-928.406h117.888v54.6a23.766,23.766,0,0,1-23.766,23.767H-965.53v-54.6a23.766,23.766,0,0,1,23.767-23.766" fill="#17c878"/>
        <g id="Group_96606" data-name="Group 96606">
          <g id="Group_96601" data-name="Group 96601">
            <path id="Path_140313" data-name="Path 140313" d="M-819.64-910.861a.529.529,0,0,1-.53-.529v-2.117a.529.529,0,0,1,.53-.529.529.529,0,0,1,.529.529v2.117A.529.529,0,0,1-819.64-910.861Z" fill="#17c878"/>
          </g>
          <g id="Group_96602" data-name="Group 96602">
            <path id="Path_140314" data-name="Path 140314" d="M-819.64-916.381a.529.529,0,0,1-.53-.529v-3.4a.529.529,0,0,1,.53-.529.529.529,0,0,1,.529.529v3.4A.529.529,0,0,1-819.64-916.381Zm0-6.807a.529.529,0,0,1-.53-.529v-3.4a.529.529,0,0,1,.53-.529.529.529,0,0,1,.529.529v3.4A.529.529,0,0,1-819.64-923.188Z" fill="#17c878"/>
          </g>
          <g id="Group_96603" data-name="Group 96603">
            <path id="Path_140315" data-name="Path 140315" d="M-819.64-929.994a.529.529,0,0,1-.53-.529v-1.588h-1.587a.529.529,0,0,1-.53-.529.53.53,0,0,1,.53-.53h2.117a.529.529,0,0,1,.529.53v2.117A.529.529,0,0,1-819.64-929.994Z" fill="#17c878"/>
          </g>
          <g id="Group_96604" data-name="Group 96604">
            <path id="Path_140316" data-name="Path 140316" d="M-825.7-932.111h-3.947a.529.529,0,0,1-.529-.529.529.529,0,0,1,.529-.53h3.947a.529.529,0,0,1,.529.53A.529.529,0,0,1-825.7-932.111Zm-7.894,0h-3.947a.529.529,0,0,1-.529-.529.529.529,0,0,1,.529-.53h3.947a.53.53,0,0,1,.53.53A.529.529,0,0,1-833.6-932.111Zm-7.893,0h-3.947a.529.529,0,0,1-.529-.529.529.529,0,0,1,.529-.53h3.947a.529.529,0,0,1,.529.53A.529.529,0,0,1-841.491-932.111Zm-7.894,0h-3.947a.529.529,0,0,1-.529-.529.529.529,0,0,1,.529-.53h3.947a.53.53,0,0,1,.53.53A.529.529,0,0,1-849.385-932.111Zm-7.893,0h-3.947a.529.529,0,0,1-.529-.529.529.529,0,0,1,.529-.53h3.947a.529.529,0,0,1,.529.53A.529.529,0,0,1-857.278-932.111Zm-7.894,0h-3.946a.529.529,0,0,1-.53-.529.53.53,0,0,1,.53-.53h3.946a.53.53,0,0,1,.53.53A.529.529,0,0,1-865.172-932.111Zm-7.893,0h-3.947a.529.529,0,0,1-.529-.529.529.529,0,0,1,.529-.53h3.947a.529.529,0,0,1,.529.53A.529.529,0,0,1-873.065-932.111Z" fill="#17c878"/>
          </g>
          <g id="Group_96605" data-name="Group 96605">
            <path id="Path_140317" data-name="Path 140317" d="M-880.958-932.111h-2.117a.529.529,0,0,1-.53-.529.53.53,0,0,1,.53-.53h2.117a.529.529,0,0,1,.529.53A.529.529,0,0,1-880.958-932.111Z" fill="#17c878"/>
          </g>
        </g>
        <g id="Group_96607" data-name="Group 96607">
          <path id="Path_140318" data-name="Path 140318" d="M-847.641-845.274H-969.764a.529.529,0,0,1-.529-.529V-904.64a28.562,28.562,0,0,1,28.53-28.53h53.471a.529.529,0,0,1,.529.53.529.529,0,0,1-.529.529h-53.471a27.5,27.5,0,0,0-27.472,27.471v58.307h121.594A27.5,27.5,0,0,0-820.17-873.8v-33.333a.53.53,0,0,1,.53-.53.529.529,0,0,1,.529.53V-873.8A28.562,28.562,0,0,1-847.641-845.274Z" fill="#17c878"/>
        </g>
        <path id="Path_140319" data-name="Path 140319" d="M-941.763-925.142h114.625V-873.8a20.527,20.527,0,0,1-20.5,20.5H-962.266V-904.64a20.526,20.526,0,0,1,20.5-20.5" fill="#fff"/>
      </g>
      <text id="Estudio_del_entorno" data-name="Estudio del
entorno" transform="translate(-894.702 -895.377)" fill="#12263f" font-size="20" font-family="Roboto-Bold, Roboto" font-weight="700"><tspan x="-49.863" y="0">Estudio del</tspan><tspan x="-34.795" y="24">entorno</tspan></text>
    </g>
    <g id="Group_96618" data-name="Group 96618">
      <g id="Group_96617" data-name="Group 96617">
        <path id="Path_140320" data-name="Path 140320" d="M-738.585-928.406H-620.7v54.6a23.766,23.766,0,0,1-23.766,23.767H-762.352v-54.6a23.766,23.766,0,0,1,23.767-23.766" fill="#17c878"/>
        <g id="Group_96615" data-name="Group 96615">
          <g id="Group_96610" data-name="Group 96610">
            <path id="Path_140321" data-name="Path 140321" d="M-616.463-910.861a.529.529,0,0,1-.529-.529v-2.117a.529.529,0,0,1,.529-.529.529.529,0,0,1,.53.529v2.117A.529.529,0,0,1-616.463-910.861Z" fill="#17c878"/>
          </g>
          <g id="Group_96611" data-name="Group 96611">
            <path id="Path_140322" data-name="Path 140322" d="M-616.463-916.381a.529.529,0,0,1-.529-.529v-3.4a.529.529,0,0,1,.529-.529.529.529,0,0,1,.53.529v3.4A.529.529,0,0,1-616.463-916.381Zm0-6.807a.529.529,0,0,1-.529-.529v-3.4a.529.529,0,0,1,.529-.529.529.529,0,0,1,.53.529v3.4A.529.529,0,0,1-616.463-923.188Z" fill="#17c878"/>
          </g>
          <g id="Group_96612" data-name="Group 96612">
            <path id="Path_140323" data-name="Path 140323" d="M-616.463-929.994a.529.529,0,0,1-.529-.529v-1.588h-1.588a.529.529,0,0,1-.529-.529.529.529,0,0,1,.529-.53h2.117a.53.53,0,0,1,.53.53v2.117A.529.529,0,0,1-616.463-929.994Z" fill="#17c878"/>
          </g>
          <g id="Group_96613" data-name="Group 96613">
            <path id="Path_140324" data-name="Path 140324" d="M-622.527-932.111h-3.946a.529.529,0,0,1-.53-.529.53.53,0,0,1,.53-.53h3.946a.53.53,0,0,1,.53.53A.529.529,0,0,1-622.527-932.111Zm-7.893,0h-3.947a.529.529,0,0,1-.529-.529.529.529,0,0,1,.529-.53h3.947a.529.529,0,0,1,.529.53A.529.529,0,0,1-630.42-932.111Zm-7.894,0h-3.946a.529.529,0,0,1-.53-.529.53.53,0,0,1,.53-.53h3.946a.53.53,0,0,1,.53.53A.529.529,0,0,1-638.314-932.111Zm-7.893,0h-3.947a.529.529,0,0,1-.529-.529.529.529,0,0,1,.529-.53h3.947a.529.529,0,0,1,.529.53A.529.529,0,0,1-646.207-932.111Zm-7.894,0h-3.946a.529.529,0,0,1-.529-.529.529.529,0,0,1,.529-.53h3.946a.53.53,0,0,1,.53.53A.529.529,0,0,1-654.1-932.111Zm-7.893,0h-3.947a.529.529,0,0,1-.529-.529.529.529,0,0,1,.529-.53h3.947a.529.529,0,0,1,.529.53A.529.529,0,0,1-661.994-932.111Zm-7.893,0h-3.947a.529.529,0,0,1-.529-.529.529.529,0,0,1,.529-.53h3.947a.529.529,0,0,1,.529.53A.529.529,0,0,1-669.887-932.111Z" fill="#17c878"/>
          </g>
          <g id="Group_96614" data-name="Group 96614">
            <path id="Path_140325" data-name="Path 140325" d="M-677.781-932.111H-679.9a.529.529,0,0,1-.529-.529.529.529,0,0,1,.529-.53h2.117a.53.53,0,0,1,.53.53A.529.529,0,0,1-677.781-932.111Z" fill="#17c878"/>
          </g>
        </g>
        <g id="Group_96616" data-name="Group 96616">
          <path id="Path_140326" data-name="Path 140326" d="M-644.463-845.274H-766.586a.529.529,0,0,1-.529-.529V-904.64a28.562,28.562,0,0,1,28.53-28.53h53.47a.53.53,0,0,1,.53.53.529.529,0,0,1-.53.529h-53.47a27.5,27.5,0,0,0-27.472,27.471v58.307h121.594A27.5,27.5,0,0,0-616.992-873.8v-33.333a.529.529,0,0,1,.529-.53.53.53,0,0,1,.53.53V-873.8A28.562,28.562,0,0,1-644.463-845.274Z" fill="#17c878"/>
        </g>
        <path id="Path_140327" data-name="Path 140327" d="M-738.585-925.142h114.624V-873.8a20.526,20.526,0,0,1-20.5,20.5H-759.088V-904.64a20.525,20.525,0,0,1,20.5-20.5" fill="#fff"/>
      </g>
      <text id="Empresa_en_su_medio" data-name="Empresa en
su medio" transform="translate(-691.525 -895.377)" fill="#12263f" font-size="20" font-family="Roboto-Bold, Roboto" font-weight="700"><tspan x="-52.871" y="0">Empresa en</tspan><tspan x="-41.23" y="24">su medio</tspan></text>
    </g>
    <g id="Group_96627" data-name="Group 96627">
      <g id="Group_96626" data-name="Group 96626">
        <path id="Path_140328" data-name="Path 140328" d="M-535.408-928.406h117.889v54.6a23.767,23.767,0,0,1-23.767,23.767H-559.174v-54.6a23.766,23.766,0,0,1,23.766-23.766" fill="#17c878"/>
        <g id="Group_96624" data-name="Group 96624">
          <g id="Group_96619" data-name="Group 96619">
            <path id="Path_140329" data-name="Path 140329" d="M-413.285-910.861a.529.529,0,0,1-.529-.529v-2.117a.529.529,0,0,1,.529-.529.529.529,0,0,1,.529.529v2.117A.529.529,0,0,1-413.285-910.861Z" fill="#17c878"/>
          </g>
          <g id="Group_96620" data-name="Group 96620">
            <path id="Path_140330" data-name="Path 140330" d="M-413.285-916.381a.529.529,0,0,1-.529-.529v-3.4a.529.529,0,0,1,.529-.529.529.529,0,0,1,.529.529v3.4A.529.529,0,0,1-413.285-916.381Zm0-6.807a.529.529,0,0,1-.529-.529v-3.4a.529.529,0,0,1,.529-.529.529.529,0,0,1,.529.529v3.4A.529.529,0,0,1-413.285-923.188Z" fill="#17c878"/>
          </g>
          <g id="Group_96621" data-name="Group 96621">
            <path id="Path_140331" data-name="Path 140331" d="M-413.285-929.994a.529.529,0,0,1-.529-.529v-1.588H-415.4a.529.529,0,0,1-.529-.529.529.529,0,0,1,.529-.53h2.117a.529.529,0,0,1,.529.53v2.117A.529.529,0,0,1-413.285-929.994Z" fill="#17c878"/>
          </g>
          <g id="Group_96622" data-name="Group 96622">
            <path id="Path_140332" data-name="Path 140332" d="M-419.349-932.111H-423.3a.529.529,0,0,1-.529-.529.529.529,0,0,1,.529-.53h3.947a.529.529,0,0,1,.529.53A.529.529,0,0,1-419.349-932.111Zm-7.893,0h-3.947a.529.529,0,0,1-.529-.529.529.529,0,0,1,.529-.53h3.947a.529.529,0,0,1,.529.53A.529.529,0,0,1-427.242-932.111Zm-7.894,0h-3.946a.529.529,0,0,1-.53-.529.53.53,0,0,1,.53-.53h3.946a.529.529,0,0,1,.529.53A.529.529,0,0,1-435.136-932.111Zm-7.893,0h-3.947a.529.529,0,0,1-.529-.529.529.529,0,0,1,.529-.53h3.947a.529.529,0,0,1,.529.53A.529.529,0,0,1-443.029-932.111Zm-7.894,0h-3.946a.529.529,0,0,1-.53-.529.53.53,0,0,1,.53-.53h3.946a.529.529,0,0,1,.529.53A.529.529,0,0,1-450.923-932.111Zm-7.893,0h-3.947a.529.529,0,0,1-.529-.529.529.529,0,0,1,.529-.53h3.947a.529.529,0,0,1,.529.53A.529.529,0,0,1-458.816-932.111Zm-7.894,0h-3.946a.529.529,0,0,1-.53-.529.53.53,0,0,1,.53-.53h3.946a.53.53,0,0,1,.53.53A.529.529,0,0,1-466.71-932.111Z" fill="#17c878"/>
          </g>
          <g id="Group_96623" data-name="Group 96623">
            <path id="Path_140333" data-name="Path 140333" d="M-474.6-932.111h-2.117a.529.529,0,0,1-.529-.529.529.529,0,0,1,.529-.53h2.117a.529.529,0,0,1,.529.53A.529.529,0,0,1-474.6-932.111Z" fill="#17c878"/>
          </g>
        </g>
        <g id="Group_96625" data-name="Group 96625">
          <path id="Path_140334" data-name="Path 140334" d="M-441.286-845.274H-563.408a.529.529,0,0,1-.53-.529V-904.64a28.563,28.563,0,0,1,28.53-28.53h53.471a.529.529,0,0,1,.529.53.529.529,0,0,1-.529.529h-53.471a27.5,27.5,0,0,0-27.471,27.471v58.307h121.593A27.5,27.5,0,0,0-413.814-873.8v-33.333a.529.529,0,0,1,.529-.53.529.529,0,0,1,.529.53V-873.8A28.562,28.562,0,0,1-441.286-845.274Z" fill="#17c878"/>
        </g>
        <path id="Path_140335" data-name="Path 140335" d="M-535.408-925.142h114.625V-873.8a20.526,20.526,0,0,1-20.5,20.5H-555.91V-904.64a20.525,20.525,0,0,1,20.5-20.5" fill="#fff"/>
      </g>
      <text id="Alternativas_estratégicas" data-name="Alternativas
estratégicas" transform="translate(-488.347 -895.377)" fill="#12263f" font-size="20" font-family="Roboto-Bold, Roboto" font-weight="700"><tspan x="-54.287" y="0">Alternativas</tspan><tspan x="-55.649" y="24">estratégicas</tspan></text>
    </g>
    <g id="Group_96636" data-name="Group 96636">
      <g id="Group_96635" data-name="Group 96635">
        <path id="Path_140336" data-name="Path 140336" d="M-332.23-928.406h117.889v54.6a23.767,23.767,0,0,1-23.767,23.767H-356v-54.6a23.766,23.766,0,0,1,23.766-23.766" fill="#17c878"/>
        <g id="Group_96633" data-name="Group 96633">
          <g id="Group_96628" data-name="Group 96628">
            <path id="Path_140337" data-name="Path 140337" d="M-210.107-910.861a.529.529,0,0,1-.529-.529v-2.117a.529.529,0,0,1,.529-.529.529.529,0,0,1,.529.529v2.117A.529.529,0,0,1-210.107-910.861Z" fill="#17c878"/>
          </g>
          <g id="Group_96629" data-name="Group 96629">
            <path id="Path_140338" data-name="Path 140338" d="M-210.107-916.381a.529.529,0,0,1-.529-.529v-3.4a.529.529,0,0,1,.529-.529.529.529,0,0,1,.529.529v3.4A.529.529,0,0,1-210.107-916.381Zm0-6.807a.529.529,0,0,1-.529-.529v-3.4a.529.529,0,0,1,.529-.529.529.529,0,0,1,.529.529v3.4A.529.529,0,0,1-210.107-923.188Z" fill="#17c878"/>
          </g>
          <g id="Group_96630" data-name="Group 96630">
            <path id="Path_140339" data-name="Path 140339" d="M-210.107-929.994a.529.529,0,0,1-.529-.529v-1.588h-1.588a.529.529,0,0,1-.529-.529.529.529,0,0,1,.529-.53h2.117a.529.529,0,0,1,.529.53v2.117A.529.529,0,0,1-210.107-929.994Z" fill="#17c878"/>
          </g>
          <g id="Group_96631" data-name="Group 96631">
            <path id="Path_140340" data-name="Path 140340" d="M-216.171-932.111h-3.947a.529.529,0,0,1-.529-.529.529.529,0,0,1,.529-.53h3.947a.529.529,0,0,1,.529.53A.529.529,0,0,1-216.171-932.111Zm-7.893,0h-3.947a.529.529,0,0,1-.53-.529.53.53,0,0,1,.53-.53h3.947a.529.529,0,0,1,.529.53A.529.529,0,0,1-224.064-932.111Zm-7.894,0H-235.9a.529.529,0,0,1-.529-.529.529.529,0,0,1,.529-.53h3.947a.529.529,0,0,1,.529.53A.529.529,0,0,1-231.958-932.111Zm-7.893,0H-243.8a.529.529,0,0,1-.53-.529.53.53,0,0,1,.53-.53h3.947a.529.529,0,0,1,.529.53A.529.529,0,0,1-239.851-932.111Zm-7.894,0h-3.947a.529.529,0,0,1-.529-.529.529.529,0,0,1,.529-.53h3.947a.529.529,0,0,1,.529.53A.529.529,0,0,1-247.745-932.111Zm-7.893,0h-3.947a.529.529,0,0,1-.529-.529.529.529,0,0,1,.529-.53h3.947a.529.529,0,0,1,.529.53A.529.529,0,0,1-255.638-932.111Zm-7.894,0h-3.947a.529.529,0,0,1-.529-.529.529.529,0,0,1,.529-.53h3.947a.529.529,0,0,1,.529.53A.529.529,0,0,1-263.532-932.111Z" fill="#17c878"/>
          </g>
          <g id="Group_96632" data-name="Group 96632">
            <path id="Path_140341" data-name="Path 140341" d="M-271.425-932.111h-2.117a.529.529,0,0,1-.529-.529.529.529,0,0,1,.529-.53h2.117a.529.529,0,0,1,.529.53A.529.529,0,0,1-271.425-932.111Z" fill="#17c878"/>
          </g>
        </g>
        <g id="Group_96634" data-name="Group 96634">
          <path id="Path_140342" data-name="Path 140342" d="M-238.108-845.274H-360.231a.529.529,0,0,1-.529-.529V-904.64a28.563,28.563,0,0,1,28.53-28.53h53.471a.529.529,0,0,1,.529.53.529.529,0,0,1-.529.529H-332.23A27.5,27.5,0,0,0-359.7-904.64v58.307h121.593A27.5,27.5,0,0,0-210.636-873.8v-33.333a.529.529,0,0,1,.529-.53.529.529,0,0,1,.529.53V-873.8A28.562,28.562,0,0,1-238.108-845.274Z" fill="#17c878"/>
        </g>
        <path id="Path_140343" data-name="Path 140343" d="M-332.23-925.142H-217.6V-873.8a20.527,20.527,0,0,1-20.5,20.5H-352.733V-904.64a20.526,20.526,0,0,1,20.5-20.5" fill="#fff"/>
      </g>
      <text id="Definición" transform="translate(-285.17 -883.377)" fill="#12263f" font-size="20" font-family="Roboto-Bold, Roboto" font-weight="700"><tspan x="-45.361" y="0">Definición</tspan></text>
    </g>
    <g id="Group_96645" data-name="Group 96645">
      <g id="Group_96644" data-name="Group 96644">
        <path id="Path_140344" data-name="Path 140344" d="M-1164.954-968.431h137.9v134.652a23.767,23.767,0,0,1-23.767,23.767h-137.9V-944.665a23.766,23.766,0,0,1,23.766-23.766" fill="#17c878"/>
        <g id="Group_96642" data-name="Group 96642">
          <g id="Group_96637" data-name="Group 96637">
            <path id="Path_140345" data-name="Path 140345" d="M-1022.818-950.886a.529.529,0,0,1-.529-.529v-2.117a.529.529,0,0,1,.529-.53.529.529,0,0,1,.529.53v2.117A.529.529,0,0,1-1022.818-950.886Z" fill="#17c878"/>
          </g>
          <g id="Group_96638" data-name="Group 96638">
            <path id="Path_140346" data-name="Path 140346" d="M-1022.818-956.406a.529.529,0,0,1-.529-.53v-3.4a.529.529,0,0,1,.529-.529.529.529,0,0,1,.529.529v3.4A.529.529,0,0,1-1022.818-956.406Zm0-6.807a.529.529,0,0,1-.529-.529v-3.4a.529.529,0,0,1,.529-.529.529.529,0,0,1,.529.529v3.4A.529.529,0,0,1-1022.818-963.213Z" fill="#17c878"/>
          </g>
          <g id="Group_96639" data-name="Group 96639">
            <path id="Path_140347" data-name="Path 140347" d="M-1022.818-970.019a.529.529,0,0,1-.529-.529v-1.588h-1.588a.529.529,0,0,1-.529-.529.529.529,0,0,1,.529-.53h2.117a.529.529,0,0,1,.529.53v2.117A.529.529,0,0,1-1022.818-970.019Z" fill="#17c878"/>
          </g>
          <g id="Group_96640" data-name="Group 96640">
            <path id="Path_140348" data-name="Path 140348" d="M-1028.882-972.136h-3.947a.529.529,0,0,1-.529-.529.529.529,0,0,1,.529-.53h3.947a.529.529,0,0,1,.529.53A.529.529,0,0,1-1028.882-972.136Zm-7.893,0h-3.947a.529.529,0,0,1-.53-.529.53.53,0,0,1,.53-.53h3.947a.529.529,0,0,1,.529.53A.529.529,0,0,1-1036.775-972.136Zm-7.894,0h-3.947a.529.529,0,0,1-.529-.529.529.529,0,0,1,.529-.53h3.947a.529.529,0,0,1,.529.53A.529.529,0,0,1-1044.669-972.136Zm-7.893,0h-3.947a.529.529,0,0,1-.53-.529.53.53,0,0,1,.53-.53h3.947a.529.529,0,0,1,.529.53A.529.529,0,0,1-1052.562-972.136Zm-7.894,0h-3.947a.529.529,0,0,1-.529-.529.529.529,0,0,1,.529-.53h3.947a.529.529,0,0,1,.529.53A.529.529,0,0,1-1060.456-972.136Zm-7.893,0h-3.947a.529.529,0,0,1-.529-.529.529.529,0,0,1,.529-.53h3.947a.529.529,0,0,1,.529.53A.529.529,0,0,1-1068.349-972.136Zm-7.894,0h-3.947a.529.529,0,0,1-.529-.529.529.529,0,0,1,.529-.53h3.947a.529.529,0,0,1,.529.53A.529.529,0,0,1-1076.243-972.136Z" fill="#17c878"/>
          </g>
          <g id="Group_96641" data-name="Group 96641">
            <path id="Path_140349" data-name="Path 140349" d="M-1084.136-972.136h-2.117a.529.529,0,0,1-.529-.529.529.529,0,0,1,.529-.53h2.117a.529.529,0,0,1,.529.53A.529.529,0,0,1-1084.136-972.136Z" fill="#17c878"/>
          </g>
        </g>
        <g id="Group_96643" data-name="Group 96643">
          <path id="Path_140350" data-name="Path 140350" d="M-1050.819-805.249h-142.135a.529.529,0,0,1-.529-.529V-944.665a28.562,28.562,0,0,1,28.53-28.53h73.483a.529.529,0,0,1,.529.53.529.529,0,0,1-.529.529h-73.483a27.5,27.5,0,0,0-27.472,27.471v138.358h141.606a27.5,27.5,0,0,0,27.472-27.472V-947.163a.529.529,0,0,1,.529-.529.529.529,0,0,1,.529.529v113.384A28.562,28.562,0,0,1-1050.819-805.249Z" fill="#17c878"/>
        </g>
        <path id="Path_140351" data-name="Path 140351" d="M-1164.954-965.168h134.638v131.389a20.527,20.527,0,0,1-20.5,20.5h-134.637V-944.665a20.526,20.526,0,0,1,20.5-20.5" fill="#fff"/>
      </g>
      <text id="Político_Económico_Social_Tecnológico" data-name="Político
Económico
Social
Tecnológico" transform="translate(-1107.886 -935.877)" fill="#12263f" font-size="20" font-family="Roboto-Bold, Roboto" font-weight="700"><tspan x="-34.331" y="0">Político</tspan><tspan x="-49.834" y="35">Económico</tspan><tspan x="-27.681" y="70">Social</tspan><tspan x="-55.161" y="105">Tecnológico</tspan></text>
    </g>
    <g id="Group_96653" data-name="Group 96653">
      <path id="Path_140352" data-name="Path 140352" d="M-811.809-1041.1H-653.9v24.583a23.766,23.766,0,0,1-23.766,23.767H-835.575v-24.584a23.766,23.766,0,0,1,23.766-23.766" fill="#17c878"/>
      <g id="Group_96651" data-name="Group 96651">
        <g id="Group_96646" data-name="Group 96646">
          <path id="Path_140353" data-name="Path 140353" d="M-649.661-1023.558a.529.529,0,0,1-.529-.529v-2.117a.529.529,0,0,1,.529-.529.529.529,0,0,1,.53.529v2.117A.529.529,0,0,1-649.661-1023.558Z" fill="#17c878"/>
        </g>
        <g id="Group_96647" data-name="Group 96647">
          <path id="Path_140354" data-name="Path 140354" d="M-649.661-1029.078a.529.529,0,0,1-.529-.529v-3.4a.529.529,0,0,1,.529-.529.529.529,0,0,1,.53.529v3.4A.529.529,0,0,1-649.661-1029.078Zm0-6.807a.529.529,0,0,1-.529-.529v-3.4a.529.529,0,0,1,.529-.529.529.529,0,0,1,.53.529v3.4A.529.529,0,0,1-649.661-1035.885Z" fill="#17c878"/>
        </g>
        <g id="Group_96648" data-name="Group 96648">
          <path id="Path_140355" data-name="Path 140355" d="M-649.661-1042.691a.529.529,0,0,1-.529-.529v-1.588h-1.588a.529.529,0,0,1-.529-.529.529.529,0,0,1,.529-.53h2.117a.53.53,0,0,1,.53.53v2.117A.529.529,0,0,1-649.661-1042.691Z" fill="#17c878"/>
        </g>
        <g id="Group_96649" data-name="Group 96649">
          <path id="Path_140356" data-name="Path 140356" d="M-655.725-1044.808h-3.946a.529.529,0,0,1-.53-.529.53.53,0,0,1,.53-.53h3.946a.53.53,0,0,1,.53.53A.529.529,0,0,1-655.725-1044.808Zm-7.893,0h-3.947a.529.529,0,0,1-.529-.529.529.529,0,0,1,.529-.53h3.947a.529.529,0,0,1,.529.53A.529.529,0,0,1-663.618-1044.808Zm-7.894,0h-3.946a.529.529,0,0,1-.529-.529.529.529,0,0,1,.529-.53h3.946a.53.53,0,0,1,.53.53A.529.529,0,0,1-671.512-1044.808Zm-7.893,0h-3.947a.529.529,0,0,1-.529-.529.529.529,0,0,1,.529-.53h3.947a.529.529,0,0,1,.529.53A.529.529,0,0,1-679.405-1044.808Zm-7.894,0h-3.946a.529.529,0,0,1-.529-.529.529.529,0,0,1,.529-.53h3.946a.53.53,0,0,1,.53.53A.529.529,0,0,1-687.3-1044.808Zm-7.893,0h-3.947a.529.529,0,0,1-.529-.529.529.529,0,0,1,.529-.53h3.947a.529.529,0,0,1,.529.53A.529.529,0,0,1-695.192-1044.808Zm-7.893,0h-3.947a.529.529,0,0,1-.529-.529.529.529,0,0,1,.529-.53h3.947a.529.529,0,0,1,.529.53A.529.529,0,0,1-703.085-1044.808Z" fill="#17c878"/>
        </g>
        <g id="Group_96650" data-name="Group 96650">
          <path id="Path_140357" data-name="Path 140357" d="M-710.979-1044.808H-713.1a.529.529,0,0,1-.529-.529.529.529,0,0,1,.529-.53h2.117a.53.53,0,0,1,.53.53A.529.529,0,0,1-710.979-1044.808Z" fill="#17c878"/>
        </g>
      </g>
      <g id="Group_96652" data-name="Group 96652">
        <path id="Path_140358" data-name="Path 140358" d="M-677.661-987.99H-839.809a.529.529,0,0,1-.529-.529v-28.818a28.562,28.562,0,0,1,28.529-28.53h93.5a.53.53,0,0,1,.53.53.529.529,0,0,1-.53.529h-93.5a27.5,27.5,0,0,0-27.471,27.471v28.289h161.619a27.5,27.5,0,0,0,27.471-27.472v-3.314a.529.529,0,0,1,.529-.53.53.53,0,0,1,.53.53v3.314A28.562,28.562,0,0,1-677.661-987.99Z" fill="#17c878"/>
      </g>
      <path id="Path_140359" data-name="Path 140359" d="M-811.809-1037.839h154.65v21.319a20.526,20.526,0,0,1-20.5,20.5h-154.65v-21.32a20.525,20.525,0,0,1,20.5-20.5" fill="#fff"/>
    </g>
    <text id="Situación_actua" data-name="Situación actua" transform="translate(-744.735 -1011.083)" fill="#12263f" font-size="20" font-family="Roboto-Bold, Roboto" font-weight="700"><tspan x="-69.658" y="0">Situación actua</tspan></text>
    <text id="Definición_empresa" data-name="Definición empresa" transform="translate(-744.735 -967.196)" fill="#12263f" font-size="17" font-family="Roboto-Regular, Roboto"><tspan x="-72.719" y="0">Definición empresa</tspan></text>
    <g id="Group_96661" data-name="Group 96661">
      <path id="Path_140360" data-name="Path 140360" d="M-811.809-757.439H-653.9v24.584a23.765,23.765,0,0,1-23.766,23.766H-835.575v-24.583a23.767,23.767,0,0,1,23.766-23.767" fill="#17c878"/>
      <g id="Group_96659" data-name="Group 96659">
        <g id="Group_96654" data-name="Group 96654">
          <path id="Path_140361" data-name="Path 140361" d="M-649.661-739.893a.529.529,0,0,1-.529-.53v-2.117a.529.529,0,0,1,.529-.529.529.529,0,0,1,.53.529v2.117A.53.53,0,0,1-649.661-739.893Z" fill="#17c878"/>
        </g>
        <g id="Group_96655" data-name="Group 96655">
          <path id="Path_140362" data-name="Path 140362" d="M-649.661-745.414a.529.529,0,0,1-.529-.529v-3.4a.529.529,0,0,1,.529-.529.529.529,0,0,1,.53.529v3.4A.529.529,0,0,1-649.661-745.414Zm0-6.806a.529.529,0,0,1-.529-.529v-3.4a.529.529,0,0,1,.529-.53.53.53,0,0,1,.53.53v3.4A.529.529,0,0,1-649.661-752.22Z" fill="#17c878"/>
        </g>
        <g id="Group_96656" data-name="Group 96656">
          <path id="Path_140363" data-name="Path 140363" d="M-649.661-759.026a.529.529,0,0,1-.529-.53v-1.588h-1.588a.529.529,0,0,1-.529-.529.529.529,0,0,1,.529-.529h2.117a.529.529,0,0,1,.53.529v2.117A.53.53,0,0,1-649.661-759.026Z" fill="#17c878"/>
        </g>
        <g id="Group_96657" data-name="Group 96657">
          <path id="Path_140364" data-name="Path 140364" d="M-655.725-761.144h-3.946a.529.529,0,0,1-.53-.529.529.529,0,0,1,.53-.529h3.946a.529.529,0,0,1,.53.529A.529.529,0,0,1-655.725-761.144Zm-7.893,0h-3.947a.529.529,0,0,1-.529-.529.529.529,0,0,1,.529-.529h3.947a.529.529,0,0,1,.529.529A.529.529,0,0,1-663.618-761.144Zm-7.894,0h-3.946a.528.528,0,0,1-.529-.529.529.529,0,0,1,.529-.529h3.946a.529.529,0,0,1,.53.529A.529.529,0,0,1-671.512-761.144Zm-7.893,0h-3.947a.529.529,0,0,1-.529-.529.529.529,0,0,1,.529-.529h3.947a.529.529,0,0,1,.529.529A.529.529,0,0,1-679.405-761.144Zm-7.894,0h-3.946a.529.529,0,0,1-.529-.529.529.529,0,0,1,.529-.529h3.946a.529.529,0,0,1,.53.529A.529.529,0,0,1-687.3-761.144Zm-7.893,0h-3.947a.529.529,0,0,1-.529-.529.529.529,0,0,1,.529-.529h3.947a.529.529,0,0,1,.529.529A.529.529,0,0,1-695.192-761.144Zm-7.893,0h-3.947a.529.529,0,0,1-.529-.529.529.529,0,0,1,.529-.529h3.947a.529.529,0,0,1,.529.529A.529.529,0,0,1-703.085-761.144Z" fill="#17c878"/>
        </g>
        <g id="Group_96658" data-name="Group 96658">
          <path id="Path_140365" data-name="Path 140365" d="M-710.979-761.144H-713.1a.529.529,0,0,1-.529-.529.529.529,0,0,1,.529-.529h2.117a.529.529,0,0,1,.53.529A.529.529,0,0,1-710.979-761.144Z" fill="#17c878"/>
        </g>
      </g>
      <g id="Group_96660" data-name="Group 96660">
        <path id="Path_140366" data-name="Path 140366" d="M-677.661-704.325H-839.809a.529.529,0,0,1-.529-.53v-28.817a28.562,28.562,0,0,1,28.529-28.53h93.5a.529.529,0,0,1,.53.529.529.529,0,0,1-.53.529h-93.5a27.5,27.5,0,0,0-27.471,27.472v28.288h161.619a27.5,27.5,0,0,0,27.471-27.471v-3.315a.529.529,0,0,1,.529-.529.529.529,0,0,1,.53.529v3.315A28.563,28.563,0,0,1-677.661-704.325Z" fill="#17c878"/>
      </g>
      <path id="Path_140367" data-name="Path 140367" d="M-811.809-754.175h154.65v21.32a20.525,20.525,0,0,1-20.5,20.5h-154.65v-21.319a20.526,20.526,0,0,1,20.5-20.5" fill="#fff"/>
    </g>
    <text id="Análisis_interno" data-name="Análisis interno" transform="translate(-743.107 -727.545)" fill="#12263f" font-size="20.464" font-family="Roboto-Bold, Roboto" font-weight="700"><tspan x="-71.75" y="0">Análisis interno</tspan></text>
    <text id="Riesgos" transform="translate(-894.702 -819.567)" fill="#12263f" font-size="17" font-family="Roboto-Regular, Roboto"><tspan x="-30.182" y="0">Riesgos</tspan></text>
    <text id="Factores_críticos" data-name="Factores críticos" transform="translate(-579.891 -819.567)" fill="#12263f" font-size="17" font-family="Roboto-Regular, Roboto"><tspan x="-62.903" y="0">Factores críticos</tspan></text>
    <text id="Estratos_de_evolución_futura" data-name="Estratos de
evolución futura" transform="translate(-388.431 -819.567)" fill="#12263f" font-size="17" font-family="Roboto-Regular, Roboto"><tspan x="-42.649" y="0">Estratos de</tspan><tspan x="-60.687" y="20.4">evolución futura</tspan></text>
    <text id="Objetivos" transform="translate(-188.993 -819.567)" fill="#12263f" font-size="17" font-family="Roboto-Regular, Roboto"><tspan x="-35.27" y="0">Objetivos</tspan></text>
    <text id="Fortalezas" transform="translate(-603.066 -706.725)" fill="#12263f" font-size="17" font-family="Roboto-Regular, Roboto"><tspan x="-39.728" y="0">Fortalezas</tspan></text>
    <text id="Oportunidades" transform="translate(-894.702 -793.902)" fill="#12263f" font-size="17" font-family="Roboto-Regular, Roboto"><tspan x="-55.856" y="0">Oportunidades</tspan></text>
    <text id="Evolución_futura" data-name="Evolución futura" transform="translate(-581.833 -793.902)" fill="#12263f" font-size="17" font-family="Roboto-Regular, Roboto"><tspan x="-60.961" y="0">Evolución futura</tspan></text>
    <text id="Factores_críticos-2" data-name="Factores críticos" transform="translate(-188.994 -793.902)" fill="#12263f" font-size="17" font-family="Roboto-Regular, Roboto"><tspan x="-62.903" y="0">Factores críticos</tspan></text>
    <text id="Oportunidades-2" data-name="Oportunidades" transform="translate(-586.938 -682.337)" fill="#12263f" font-size="17" font-family="Roboto-Regular, Roboto"><tspan x="-55.856" y="0">Oportunidades</tspan></text>
    <text id="Definición_empresa-2" data-name="Definición empresa" transform="translate(-569.768 -657.949)" fill="#12263f" font-size="17" font-family="Roboto-Regular, Roboto"><tspan x="-72.719" y="0">Definición empresa</tspan></text>
    <text id="_habilidades_distintivas_" data-name="(habilidades distintivas)" transform="translate(-400.487 -657.949)" fill="#12263f" font-size="17" font-family="Roboto-Regular, Roboto"><tspan x="-89.993" y="0">(habilidades distintivas)</tspan></text>
    <rect id="Rectangle_32807" data-name="Rectangle 32807" width="54.113" height="1.906" transform="translate(-1023.347 -890.175)" fill="#17c878"/>
    <rect id="Rectangle_32808" data-name="Rectangle 32808" width="54.113" height="1.906" transform="translate(-820.17 -890.175)" fill="#17c878"/>
    <rect id="Rectangle_32809" data-name="Rectangle 32809" width="161.662" height="1.906" transform="translate(-649.054 -1017.881)" fill="#17c878"/>
    <rect id="Rectangle_32810" data-name="Rectangle 32810" width="85.77" height="1.906" transform="translate(-487.392 -1017.881) rotate(90)" fill="#17c878"/>
    <rect id="Rectangle_32811" data-name="Rectangle 32811" width="161.662" height="1.906" transform="translate(-649.054 -734.217)" fill="#17c878"/>
    <rect id="Rectangle_32812" data-name="Rectangle 32812" width="114.022" height="1.906" transform="translate(-489.299 -732.311) rotate(-90)" fill="#17c878"/>
    <rect id="Rectangle_32813" data-name="Rectangle 32813" width="54.113" height="1.906" transform="translate(-616.992 -890.175)" fill="#17c878"/>
    <rect id="Rectangle_32814" data-name="Rectangle 32814" width="54.113" height="1.906" transform="translate(-413.814 -890.175)" fill="#17c878"/>
    <g id="Group_96662" data-name="Group 96662">
      <circle id="Ellipse_4305" data-name="Ellipse 4305" cx="5.789" cy="5.789" r="5.789" transform="translate(-1028.078 -895.011)" fill="#17c878"/>
      <circle id="Ellipse_4306" data-name="Ellipse 4306" cx="4.688" cy="4.688" r="4.688" transform="translate(-1026.977 -893.91)" fill="#fff"/>
      <circle id="Ellipse_4307" data-name="Ellipse 4307" cx="2.955" cy="2.955" r="2.955" transform="translate(-1025.244 -892.177)" fill="#17c878"/>
    </g>
    <g id="Group_96663" data-name="Group 96663">
      <circle id="Ellipse_4308" data-name="Ellipse 4308" cx="5.789" cy="5.789" r="5.789" transform="translate(-824.9 -895.011)" fill="#17c878"/>
      <circle id="Ellipse_4309" data-name="Ellipse 4309" cx="4.688" cy="4.688" r="4.688" transform="translate(-823.799 -893.91)" fill="#fff"/>
      <circle id="Ellipse_4310" data-name="Ellipse 4310" cx="2.955" cy="2.955" r="2.955" transform="translate(-822.066 -892.177)" fill="#17c878"/>
    </g>
    <g id="Group_96664" data-name="Group 96664">
      <circle id="Ellipse_4311" data-name="Ellipse 4311" cx="5.789" cy="5.789" r="5.789" transform="translate(-772.904 -895.011)" fill="#17c878"/>
      <circle id="Ellipse_4312" data-name="Ellipse 4312" cx="4.688" cy="4.688" r="4.688" transform="translate(-771.803 -893.91)" fill="#fff"/>
      <circle id="Ellipse_4313" data-name="Ellipse 4313" cx="2.955" cy="2.955" r="2.955" transform="translate(-770.07 -892.177)" fill="#17c878"/>
    </g>
    <g id="Group_96665" data-name="Group 96665">
      <circle id="Ellipse_4314" data-name="Ellipse 4314" cx="5.789" cy="5.789" r="5.789" transform="translate(-621.722 -895.011)" fill="#17c878"/>
      <circle id="Ellipse_4315" data-name="Ellipse 4315" cx="4.688" cy="4.688" r="4.688" transform="translate(-620.621 -893.91)" fill="#fff"/>
      <circle id="Ellipse_4316" data-name="Ellipse 4316" cx="2.955" cy="2.955" r="2.955" transform="translate(-618.888 -892.177)" fill="#17c878"/>
    </g>
    <g id="Group_96666" data-name="Group 96666">
      <circle id="Ellipse_4317" data-name="Ellipse 4317" cx="5.789" cy="5.789" r="5.789" transform="translate(-569.726 -895.011)" fill="#17c878"/>
      <circle id="Ellipse_4318" data-name="Ellipse 4318" cx="4.688" cy="4.688" r="4.688" transform="translate(-568.625 -893.91)" fill="#fff"/>
      <circle id="Ellipse_4319" data-name="Ellipse 4319" cx="2.955" cy="2.955" r="2.955" transform="translate(-566.892 -892.177)" fill="#17c878"/>
    </g>
    <g id="Group_96667" data-name="Group 96667">
      <circle id="Ellipse_4320" data-name="Ellipse 4320" cx="5.789" cy="5.789" r="5.789" transform="translate(-494.134 -939.984)" fill="#17c878"/>
      <circle id="Ellipse_4321" data-name="Ellipse 4321" cx="4.688" cy="4.688" r="4.688" transform="translate(-493.033 -938.883)" fill="#fff"/>
      <circle id="Ellipse_4322" data-name="Ellipse 4322" cx="2.955" cy="2.955" r="2.955" transform="translate(-491.3 -937.15)" fill="#17c878"/>
    </g>
    <g id="Group_96668" data-name="Group 96668">
      <circle id="Ellipse_4323" data-name="Ellipse 4323" cx="5.789" cy="5.789" r="5.789" transform="translate(-654.92 -1022.308)" fill="#17c878"/>
      <circle id="Ellipse_4324" data-name="Ellipse 4324" cx="4.688" cy="4.688" r="4.688" transform="translate(-653.819 -1021.208)" fill="#fff"/>
      <circle id="Ellipse_4325" data-name="Ellipse 4325" cx="2.955" cy="2.955" r="2.955" transform="translate(-652.086 -1019.474)" fill="#17c878"/>
    </g>
    <g id="Group_96669" data-name="Group 96669">
      <circle id="Ellipse_4326" data-name="Ellipse 4326" cx="5.789" cy="5.789" r="5.789" transform="translate(-654.504 -738.945)" fill="#17c878"/>
      <circle id="Ellipse_4327" data-name="Ellipse 4327" cx="4.688" cy="4.688" r="4.688" transform="translate(-653.404 -737.844)" fill="#fff"/>
      <circle id="Ellipse_4328" data-name="Ellipse 4328" cx="2.955" cy="2.955" r="2.955" transform="translate(-651.67 -736.111)" fill="#17c878"/>
    </g>
    <g id="Group_96670" data-name="Group 96670">
      <circle id="Ellipse_4329" data-name="Ellipse 4329" cx="5.789" cy="5.789" r="5.789" transform="translate(-494.134 -852.121)" fill="#17c878"/>
      <circle id="Ellipse_4330" data-name="Ellipse 4330" cx="4.688" cy="4.688" r="4.688" transform="translate(-493.033 -851.021)" fill="#fff"/>
      <circle id="Ellipse_4331" data-name="Ellipse 4331" cx="2.955" cy="2.955" r="2.955" transform="translate(-491.3 -849.287)" fill="#17c878"/>
    </g>
    <g id="Group_96671" data-name="Group 96671">
      <circle id="Ellipse_4332" data-name="Ellipse 4332" cx="5.789" cy="5.789" r="5.789" transform="translate(-494.135 -851.063)" fill="#17c878"/>
      <circle id="Ellipse_4333" data-name="Ellipse 4333" cx="4.688" cy="4.688" r="4.688" transform="translate(-493.035 -849.962)" fill="#fff"/>
      <circle id="Ellipse_4334" data-name="Ellipse 4334" cx="2.955" cy="2.955" r="2.955" transform="translate(-491.301 -848.229)" fill="#17c878"/>
    </g>
    <g id="Group_96672" data-name="Group 96672">
      <circle id="Ellipse_4335" data-name="Ellipse 4335" cx="5.789" cy="5.789" r="5.789" transform="translate(-418.544 -895.011)" fill="#17c878"/>
      <circle id="Ellipse_4336" data-name="Ellipse 4336" cx="4.688" cy="4.688" r="4.688" transform="translate(-417.444 -893.91)" fill="#fff"/>
      <circle id="Ellipse_4337" data-name="Ellipse 4337" cx="2.955" cy="2.955" r="2.955" transform="translate(-415.71 -892.177)" fill="#17c878"/>
    </g>
    <g id="Group_96673" data-name="Group 96673">
      <circle id="Ellipse_4338" data-name="Ellipse 4338" cx="5.789" cy="5.789" r="5.789" transform="translate(-366.549 -895.011)" fill="#17c878"/>
      <circle id="Ellipse_4339" data-name="Ellipse 4339" cx="4.688" cy="4.688" r="4.688" transform="translate(-365.448 -893.91)" fill="#fff"/>
      <circle id="Ellipse_4340" data-name="Ellipse 4340" cx="2.955" cy="2.955" r="2.955" transform="translate(-363.715 -892.177)" fill="#17c878"/>
    </g>
    <g id="Group_96674" data-name="Group 96674">
      <circle id="Ellipse_4341" data-name="Ellipse 4341" cx="5.789" cy="5.789" r="5.789" transform="translate(-976.082 -895.011)" fill="#17c878"/>
      <circle id="Ellipse_4342" data-name="Ellipse 4342" cx="4.688" cy="4.688" r="4.688" transform="translate(-974.981 -893.91)" fill="#fff"/>
      <circle id="Ellipse_4343" data-name="Ellipse 4343" cx="2.955" cy="2.955" r="2.955" transform="translate(-973.248 -892.177)" fill="#17c878"/>
    </g>
  </g>
</svg>
