<svg id="t3-i3" xmlns="http://www.w3.org/2000/svg" width="919" height="348" viewBox="0 0 919 348">
  <rect id="Rectángulo_32775" data-name="Rectángulo 32775" width="919" height="348" fill="#fff"/>
  <g id="Group_96554" data-name="Group 96554">
    <path id="Path_140263" data-name="Path 140263" d="M54.355,27.067H220.349v41.6a28.608,28.608,0,0,1-28.608,28.608H25.746v-41.6A28.609,28.609,0,0,1,54.355,27.067" fill="#f1d54e"/>
    <g id="Group_96552" data-name="Group 96552">
      <g id="Group_96547" data-name="Group 96547">
        <path id="Path_140264" data-name="Path 140264" d="M225.445,48.186a.637.637,0,0,1-.637-.637V45a.637.637,0,0,1,1.275,0v2.548A.638.638,0,0,1,225.445,48.186Z" fill="#f1d54e"/>
      </g>
      <g id="Group_96548" data-name="Group 96548">
        <path id="Path_140265" data-name="Path 140265" d="M225.445,41.542a.638.638,0,0,1-.637-.637v-4.1a.637.637,0,0,1,1.275,0v4.1A.638.638,0,0,1,225.445,41.542Zm0-8.193a.638.638,0,0,1-.637-.637v-4.1a.637.637,0,0,1,1.275,0v4.1A.638.638,0,0,1,225.445,33.349Z" fill="#f1d54e"/>
      </g>
      <g id="Group_96549" data-name="Group 96549">
        <path id="Path_140266" data-name="Path 140266" d="M225.445,25.156a.638.638,0,0,1-.637-.637V22.607H222.9a.637.637,0,1,1,0-1.274h2.548a.638.638,0,0,1,.638.637v2.549A.638.638,0,0,1,225.445,25.156Z" fill="#f1d54e"/>
      </g>
      <g id="Group_96550" data-name="Group 96550">
        <path id="Path_140267" data-name="Path 140267" d="M218.146,22.607H213.4a.637.637,0,1,1,0-1.274h4.75a.637.637,0,1,1,0,1.274Zm-9.5,0h-4.751a.637.637,0,0,1,0-1.274h4.751a.637.637,0,0,1,0,1.274Zm-9.5,0h-4.751a.637.637,0,0,1,0-1.274h4.751a.637.637,0,0,1,0,1.274Zm-9.5,0h-4.751a.637.637,0,1,1,0-1.274h4.751a.637.637,0,1,1,0,1.274Zm-9.5,0h-4.751a.637.637,0,1,1,0-1.274h4.751a.637.637,0,0,1,0,1.274Zm-9.5,0h-4.751a.637.637,0,0,1,0-1.274h4.751a.637.637,0,0,1,0,1.274Zm-9.5,0h-4.751a.637.637,0,1,1,0-1.274h4.751a.637.637,0,1,1,0,1.274Z" fill="#f1d54e"/>
      </g>
      <g id="Group_96551" data-name="Group 96551">
        <path id="Path_140268" data-name="Path 140268" d="M151.636,22.607h-2.548a.637.637,0,0,1,0-1.274h2.548a.637.637,0,0,1,0,1.274Z" fill="#f1d54e"/>
      </g>
    </g>
    <g id="Group_96553" data-name="Group 96553">
      <path id="Path_140269" data-name="Path 140269" d="M191.741,103.008H20.65a.637.637,0,0,1-.637-.637v-46.7A34.381,34.381,0,0,1,54.355,21.333h88.453a.637.637,0,1,1,0,1.274H54.355A33.1,33.1,0,0,0,21.287,55.675v46.059H191.741a33.1,33.1,0,0,0,33.067-33.068v-16a.637.637,0,0,1,1.275,0v16A34.381,34.381,0,0,1,191.741,103.008Z" fill="#f1d54e"/>
    </g>
    <path id="Path_140270" data-name="Path 140270" d="M54.355,31H216.42v37.67a24.707,24.707,0,0,1-24.679,24.679H29.675V55.675A24.707,24.707,0,0,1,54.355,31" fill="#fff"/>
  </g>
  <g id="Group_96562" data-name="Group 96562">
    <path id="Path_140271" data-name="Path 140271" d="M390.807,24.065H556.8v41.6a28.608,28.608,0,0,1-28.608,28.608H362.2v-41.6a28.608,28.608,0,0,1,28.608-28.608" fill="#f1d54e"/>
    <g id="Group_96560" data-name="Group 96560">
      <g id="Group_96555" data-name="Group 96555">
        <path id="Path_140272" data-name="Path 140272" d="M561.9,45.185a.638.638,0,0,1-.637-.638V42a.637.637,0,1,1,1.274,0v2.548A.638.638,0,0,1,561.9,45.185Z" fill="#f1d54e"/>
      </g>
      <g id="Group_96556" data-name="Group 96556">
        <path id="Path_140273" data-name="Path 140273" d="M561.9,38.54a.637.637,0,0,1-.637-.637v-4.1a.637.637,0,1,1,1.274,0v4.1A.637.637,0,0,1,561.9,38.54Zm0-8.193a.637.637,0,0,1-.637-.637v-4.1a.637.637,0,1,1,1.274,0v4.1A.637.637,0,0,1,561.9,30.347Z" fill="#f1d54e"/>
      </g>
      <g id="Group_96557" data-name="Group 96557">
        <path id="Path_140274" data-name="Path 140274" d="M561.9,22.154a.637.637,0,0,1-.637-.637V19.6H559.35a.637.637,0,0,1,0-1.274H561.9a.637.637,0,0,1,.637.637v2.549A.637.637,0,0,1,561.9,22.154Z" fill="#f1d54e"/>
      </g>
      <g id="Group_96558" data-name="Group 96558">
        <path id="Path_140275" data-name="Path 140275" d="M554.6,19.6h-4.751a.637.637,0,1,1,0-1.274H554.6a.637.637,0,1,1,0,1.274Zm-9.5,0h-4.751a.637.637,0,1,1,0-1.274H545.1a.637.637,0,1,1,0,1.274Zm-9.5,0h-4.751a.637.637,0,0,1,0-1.274H535.6a.637.637,0,0,1,0,1.274Zm-9.5,0h-4.751a.637.637,0,1,1,0-1.274h4.751a.637.637,0,1,1,0,1.274Zm-9.5,0h-4.751a.637.637,0,1,1,0-1.274h4.751a.637.637,0,0,1,0,1.274Zm-9.5,0H502.34a.637.637,0,0,1,0-1.274h4.751a.637.637,0,0,1,0,1.274Zm-9.5,0h-4.75a.637.637,0,0,1,0-1.274h4.75a.637.637,0,1,1,0,1.274Z" fill="#f1d54e"/>
      </g>
      <g id="Group_96559" data-name="Group 96559">
        <path id="Path_140276" data-name="Path 140276" d="M488.088,19.6H485.54a.637.637,0,0,1,0-1.274h2.548a.637.637,0,0,1,0,1.274Z" fill="#f1d54e"/>
      </g>
    </g>
    <g id="Group_96561" data-name="Group 96561">
      <path id="Path_140277" data-name="Path 140277" d="M528.193,100.006H357.1a.637.637,0,0,1-.637-.637v-46.7a34.381,34.381,0,0,1,34.342-34.342H479.26a.637.637,0,0,1,0,1.274H390.807a33.106,33.106,0,0,0-33.068,33.068V98.732H528.193a33.1,33.1,0,0,0,33.068-33.068v-16a.637.637,0,1,1,1.274,0v16A34.381,34.381,0,0,1,528.193,100.006Z" fill="#f1d54e"/>
    </g>
    <path id="Path_140278" data-name="Path 140278" d="M390.807,27.994H552.872v37.67a24.708,24.708,0,0,1-24.679,24.68H366.127V52.673a24.708,24.708,0,0,1,24.68-24.679" fill="#fff"/>
  </g>
  <g id="Group_96570" data-name="Group 96570">
    <path id="Path_140279" data-name="Path 140279" d="M692.564,262.216H835.341v24.669a20.406,20.406,0,0,1-20.406,20.4H672.159V282.622a20.406,20.406,0,0,1,20.405-20.406" fill="#f1d54e"/>
    <g id="Group_96568" data-name="Group 96568">
      <g id="Group_96563" data-name="Group 96563">
        <path id="Path_140280" data-name="Path 140280" d="M838.976,277.28a.454.454,0,0,1-.454-.454v-1.818a.455.455,0,0,1,.909,0v1.818A.455.455,0,0,1,838.976,277.28Z" fill="#f1d54e"/>
      </g>
      <g id="Group_96564" data-name="Group 96564">
        <path id="Path_140281" data-name="Path 140281" d="M838.976,272.541a.455.455,0,0,1-.454-.455v-2.922a.455.455,0,0,1,.909,0v2.922A.455.455,0,0,1,838.976,272.541Zm0-5.844a.455.455,0,0,1-.454-.455V263.32a.455.455,0,0,1,.909,0v2.922A.455.455,0,0,1,838.976,266.7Z" fill="#f1d54e"/>
      </g>
      <g id="Group_96565" data-name="Group 96565">
        <path id="Path_140282" data-name="Path 140282" d="M838.976,260.853a.455.455,0,0,1-.454-.455v-1.363h-1.364a.454.454,0,0,1,0-.909h1.818a.455.455,0,0,1,.455.455V260.4A.455.455,0,0,1,838.976,260.853Z" fill="#f1d54e"/>
      </g>
      <g id="Group_96566" data-name="Group 96566">
        <path id="Path_140283" data-name="Path 140283" d="M833.77,259.035h-3.389a.454.454,0,0,1,0-.909h3.389a.454.454,0,0,1,0,.909Zm-6.777,0H823.6a.454.454,0,1,1,0-.909h3.389a.454.454,0,0,1,0,.909Zm-6.778,0h-3.388a.454.454,0,1,1,0-.909h3.388a.454.454,0,1,1,0,.909Zm-6.777,0h-3.389a.454.454,0,0,1,0-.909h3.389a.454.454,0,1,1,0,.909Zm-6.777,0h-3.389a.454.454,0,0,1,0-.909h3.389a.454.454,0,0,1,0,.909Zm-6.777,0h-3.389a.454.454,0,0,1,0-.909h3.389a.454.454,0,0,1,0,.909Zm-6.778,0h-3.388a.454.454,0,1,1,0-.909h3.388a.454.454,0,1,1,0,.909Z" fill="#f1d54e"/>
      </g>
      <g id="Group_96567" data-name="Group 96567">
        <path id="Path_140284" data-name="Path 140284" d="M786.33,259.035h-1.818a.454.454,0,1,1,0-.909h1.818a.454.454,0,0,1,0,.909Z" fill="#f1d54e"/>
      </g>
    </g>
    <g id="Group_96569" data-name="Group 96569">
      <path id="Path_140285" data-name="Path 140285" d="M814.935,311.38H668.524a.455.455,0,0,1-.455-.455v-28.3a24.524,24.524,0,0,1,24.5-24.5h87.468a.454.454,0,0,1,0,.909H692.565a23.614,23.614,0,0,0-23.587,23.587v27.849H814.935a23.613,23.613,0,0,0,23.587-23.586v-6.408a.455.455,0,0,1,.909,0v6.408A24.524,24.524,0,0,1,814.935,311.38Z" fill="#f1d54e"/>
    </g>
  </g>
  <g id="Group_96578" data-name="Group 96578">
    <path id="Path_140286" data-name="Path 140286" d="M398.315,262.216H541.091v24.669a20.406,20.406,0,0,1-20.406,20.4H377.909V282.622a20.406,20.406,0,0,1,20.406-20.406" fill="#f1d54e"/>
    <g id="Group_96576" data-name="Group 96576">
      <g id="Group_96571" data-name="Group 96571">
        <path id="Path_140287" data-name="Path 140287" d="M544.726,277.28a.454.454,0,0,1-.454-.454v-1.818a.455.455,0,0,1,.909,0v1.818A.455.455,0,0,1,544.726,277.28Z" fill="#f1d54e"/>
      </g>
      <g id="Group_96572" data-name="Group 96572">
        <path id="Path_140288" data-name="Path 140288" d="M544.726,272.541a.455.455,0,0,1-.454-.455v-2.922a.455.455,0,0,1,.909,0v2.922A.455.455,0,0,1,544.726,272.541Zm0-5.844a.455.455,0,0,1-.454-.455V263.32a.455.455,0,0,1,.909,0v2.922A.455.455,0,0,1,544.726,266.7Z" fill="#f1d54e"/>
      </g>
      <g id="Group_96573" data-name="Group 96573">
        <path id="Path_140289" data-name="Path 140289" d="M544.726,260.853a.455.455,0,0,1-.454-.455v-1.363h-1.363a.454.454,0,1,1,0-.909h1.817a.455.455,0,0,1,.455.455V260.4A.455.455,0,0,1,544.726,260.853Z" fill="#f1d54e"/>
      </g>
      <g id="Group_96574" data-name="Group 96574">
        <path id="Path_140290" data-name="Path 140290" d="M539.52,259.035h-3.389a.454.454,0,0,1,0-.909h3.389a.454.454,0,0,1,0,.909Zm-6.777,0h-3.389a.454.454,0,0,1,0-.909h3.389a.454.454,0,0,1,0,.909Zm-6.778,0h-3.388a.454.454,0,1,1,0-.909h3.388a.454.454,0,1,1,0,.909Zm-6.777,0H515.8a.454.454,0,1,1,0-.909h3.388a.454.454,0,1,1,0,.909Zm-6.777,0h-3.389a.454.454,0,0,1,0-.909h3.389a.454.454,0,0,1,0,.909Zm-6.777,0h-3.389a.454.454,0,0,1,0-.909h3.389a.454.454,0,0,1,0,.909Zm-6.777,0h-3.389a.454.454,0,0,1,0-.909h3.389a.454.454,0,0,1,0,.909Z" fill="#f1d54e"/>
      </g>
      <g id="Group_96575" data-name="Group 96575">
        <path id="Path_140291" data-name="Path 140291" d="M492.08,259.035h-1.818a.454.454,0,0,1,0-.909h1.818a.454.454,0,0,1,0,.909Z" fill="#f1d54e"/>
      </g>
    </g>
    <g id="Group_96577" data-name="Group 96577">
      <path id="Path_140292" data-name="Path 140292" d="M520.685,311.38H374.274a.455.455,0,0,1-.455-.455v-28.3a24.524,24.524,0,0,1,24.5-24.5h87.468a.454.454,0,0,1,0,.909H398.315a23.614,23.614,0,0,0-23.587,23.587v27.849H520.685a23.613,23.613,0,0,0,23.587-23.586v-6.408a.455.455,0,0,1,.909,0v6.408A24.524,24.524,0,0,1,520.685,311.38Z" fill="#f1d54e"/>
    </g>
  </g>
  <g id="Group_96586" data-name="Group 96586">
    <path id="Path_140293" data-name="Path 140293" d="M104.065,262.216H246.841v24.669a20.405,20.405,0,0,1-20.4,20.4H83.659V282.622a20.406,20.406,0,0,1,20.406-20.406" fill="#f1d54e"/>
    <g id="Group_96584" data-name="Group 96584">
      <g id="Group_96579" data-name="Group 96579">
        <path id="Path_140294" data-name="Path 140294" d="M250.476,277.28a.454.454,0,0,1-.454-.454v-1.818a.454.454,0,0,1,.909,0v1.818A.455.455,0,0,1,250.476,277.28Z" fill="#f1d54e"/>
      </g>
      <g id="Group_96580" data-name="Group 96580">
        <path id="Path_140295" data-name="Path 140295" d="M250.476,272.541a.455.455,0,0,1-.454-.455v-2.922a.454.454,0,0,1,.909,0v2.922A.455.455,0,0,1,250.476,272.541Zm0-5.844a.455.455,0,0,1-.454-.455V263.32a.454.454,0,0,1,.909,0v2.922A.455.455,0,0,1,250.476,266.7Z" fill="#f1d54e"/>
      </g>
      <g id="Group_96581" data-name="Group 96581">
        <path id="Path_140296" data-name="Path 140296" d="M250.476,260.853a.455.455,0,0,1-.454-.455v-1.363h-1.363a.454.454,0,1,1,0-.909h1.817a.455.455,0,0,1,.455.455V260.4A.455.455,0,0,1,250.476,260.853Z" fill="#f1d54e"/>
      </g>
      <g id="Group_96582" data-name="Group 96582">
        <path id="Path_140297" data-name="Path 140297" d="M245.27,259.035h-3.389a.454.454,0,0,1,0-.909h3.389a.454.454,0,0,1,0,.909Zm-6.777,0H235.1a.454.454,0,0,1,0-.909h3.389a.454.454,0,0,1,0,.909Zm-6.777,0h-3.389a.454.454,0,0,1,0-.909h3.389a.454.454,0,0,1,0,.909Zm-6.778,0H221.55a.454.454,0,1,1,0-.909h3.388a.454.454,0,1,1,0,.909Zm-6.777,0h-3.388a.454.454,0,1,1,0-.909h3.388a.454.454,0,1,1,0,.909Zm-6.777,0h-3.389a.454.454,0,0,1,0-.909h3.389a.454.454,0,0,1,0,.909Zm-6.777,0h-3.389a.454.454,0,0,1,0-.909h3.389a.454.454,0,0,1,0,.909Z" fill="#f1d54e"/>
      </g>
      <g id="Group_96583" data-name="Group 96583">
        <path id="Path_140298" data-name="Path 140298" d="M197.83,259.035h-1.818a.454.454,0,0,1,0-.909h1.818a.454.454,0,0,1,0,.909Z" fill="#f1d54e"/>
      </g>
    </g>
    <g id="Group_96585" data-name="Group 96585">
      <path id="Path_140299" data-name="Path 140299" d="M226.435,311.38H80.024a.455.455,0,0,1-.455-.455v-28.3a24.524,24.524,0,0,1,24.5-24.5h87.468a.454.454,0,0,1,0,.909H104.065a23.614,23.614,0,0,0-23.587,23.587v27.849H226.435a23.613,23.613,0,0,0,23.587-23.586v-6.408a.454.454,0,0,1,.909,0v6.408A24.524,24.524,0,0,1,226.435,311.38Z" fill="#f1d54e"/>
    </g>
  </g>
  <g id="Group_96594" data-name="Group 96594">
    <path id="Path_140300" data-name="Path 140300" d="M727.259,24.065h166v41.6a28.609,28.609,0,0,1-28.609,28.608H698.651v-41.6a28.608,28.608,0,0,1,28.608-28.608" fill="#f1d54e"/>
    <g id="Group_96592" data-name="Group 96592">
      <g id="Group_96587" data-name="Group 96587">
        <path id="Path_140301" data-name="Path 140301" d="M898.35,45.185a.638.638,0,0,1-.637-.638V42a.637.637,0,1,1,1.274,0v2.548A.638.638,0,0,1,898.35,45.185Z" fill="#f1d54e"/>
      </g>
      <g id="Group_96588" data-name="Group 96588">
        <path id="Path_140302" data-name="Path 140302" d="M898.35,38.54a.638.638,0,0,1-.637-.637v-4.1a.637.637,0,1,1,1.274,0v4.1A.637.637,0,0,1,898.35,38.54Zm0-8.193a.637.637,0,0,1-.637-.637v-4.1a.637.637,0,1,1,1.274,0v4.1A.637.637,0,0,1,898.35,30.347Z" fill="#f1d54e"/>
      </g>
      <g id="Group_96589" data-name="Group 96589">
        <path id="Path_140303" data-name="Path 140303" d="M898.35,22.154a.638.638,0,0,1-.637-.637V19.6H895.8a.637.637,0,1,1,0-1.274h2.548a.637.637,0,0,1,.637.637v2.549A.637.637,0,0,1,898.35,22.154Z" fill="#f1d54e"/>
      </g>
      <g id="Group_96590" data-name="Group 96590">
        <path id="Path_140304" data-name="Path 140304" d="M891.051,19.6H886.3a.637.637,0,0,1,0-1.274h4.751a.637.637,0,0,1,0,1.274Zm-9.5,0H876.8a.637.637,0,1,1,0-1.274h4.751a.637.637,0,1,1,0,1.274Zm-9.5,0H867.3a.637.637,0,1,1,0-1.274h4.751a.637.637,0,1,1,0,1.274Zm-9.5,0H857.8a.637.637,0,1,1,0-1.274h4.751a.637.637,0,1,1,0,1.274Zm-9.5,0h-4.751a.637.637,0,1,1,0-1.274h4.751a.637.637,0,1,1,0,1.274Zm-9.5,0h-4.751a.637.637,0,1,1,0-1.274h4.751a.637.637,0,1,1,0,1.274Zm-9.5,0h-4.751a.637.637,0,1,1,0-1.274h4.751a.637.637,0,1,1,0,1.274Z" fill="#f1d54e"/>
      </g>
      <g id="Group_96591" data-name="Group 96591">
        <path id="Path_140305" data-name="Path 140305" d="M824.541,19.6h-2.548a.637.637,0,1,1,0-1.274h2.548a.637.637,0,0,1,0,1.274Z" fill="#f1d54e"/>
      </g>
    </g>
    <g id="Group_96593" data-name="Group 96593">
      <path id="Path_140306" data-name="Path 140306" d="M864.645,100.006H693.555a.638.638,0,0,1-.638-.637v-46.7a34.381,34.381,0,0,1,34.342-34.342h88.454a.637.637,0,0,1,0,1.274H727.259a33.106,33.106,0,0,0-33.067,33.068V98.732H864.645a33.1,33.1,0,0,0,33.068-33.068v-16a.637.637,0,1,1,1.274,0v16A34.381,34.381,0,0,1,864.645,100.006Z" fill="#f1d54e"/>
    </g>
    <path id="Path_140307" data-name="Path 140307" d="M727.259,27.994H889.325v37.67a24.708,24.708,0,0,1-24.68,24.68H702.58V52.673a24.707,24.707,0,0,1,24.679-24.679" fill="#fff"/>
  </g>
  <text id="Balance_histórico" data-name="Balance
histórico" transform="translate(123.047 56.015)" fill="#12263f" font-size="20" font-family="Roboto-Bold, Roboto" font-weight="700"><tspan x="-35.977" y="0">Balance</tspan><tspan x="-39.443" y="24">histórico</tspan></text>
  <text id="Balance_histórico-2" data-name="Balance
histórico" transform="translate(459.499 53.013)" fill="#12263f" font-size="20" font-family="Roboto-Bold, Roboto" font-weight="700"><tspan x="-35.977" y="0">Balance</tspan><tspan x="-39.443" y="24">histórico</tspan></text>
  <text id="Balance_proyectado" data-name="Balance
proyectado" transform="translate(795.952 53.013)" fill="#12263f" font-size="20" font-family="Roboto-Bold, Roboto" font-weight="700"><tspan x="-35.977" y="0">Balance</tspan><tspan x="-50.288" y="24">proyectado</tspan></text>
  <rect id="Rectangle_32796" data-name="Rectangle 32796" width="131.281" height="1.906" transform="translate(225.445 61.217)" fill="#f1d54e"/>
  <rect id="Rectangle_32797" data-name="Rectangle 32797" width="590.406" height="1.906" transform="translate(164.297 333.704)" fill="#f1d54e"/>
  <rect id="Rectangle_32798" data-name="Rectangle 32798" width="23.571" height="1.906" transform="translate(762.122 333.704)" fill="#f1d54e"/>
  <rect id="Rectangle_32799" data-name="Rectangle 32799" width="23.571" height="1.906" transform="translate(793.113 333.704)" fill="#f1d54e"/>
  <rect id="Rectangle_32800" data-name="Rectangle 32800" width="23.571" height="1.906" transform="translate(824.104 333.704)" fill="#f1d54e"/>
  <rect id="Rectangle_32801" data-name="Rectangle 32801" width="23.571" height="1.906" transform="translate(855.095 333.704)" fill="#f1d54e"/>
  <rect id="Rectangle_32802" data-name="Rectangle 32802" width="25.139" height="1.906" transform="translate(166.203 310.471) rotate(90)" fill="#f1d54e"/>
  <rect id="Rectangle_32803" data-name="Rectangle 32803" width="25.139" height="1.906" transform="translate(460.453 310.471) rotate(90)" fill="#f1d54e"/>
  <rect id="Rectangle_32804" data-name="Rectangle 32804" width="25.139" height="1.906" transform="translate(754.703 310.471) rotate(90)" fill="#f1d54e"/>
  <g id="Group_96595" data-name="Group 96595">
    <circle id="Ellipse_4287" data-name="Ellipse 4287" cx="4.745" cy="4.745" r="4.745" transform="translate(557.153 57.425)" fill="#f1d54e"/>
    <circle id="Ellipse_4288" data-name="Ellipse 4288" cx="3.843" cy="3.843" r="3.843" transform="translate(558.055 58.328)" fill="#fff"/>
    <circle id="Ellipse_4289" data-name="Ellipse 4289" cx="2.422" cy="2.422" r="2.422" transform="translate(559.476 59.748)" fill="#f1d54e"/>
  </g>
  <g id="Group_96596" data-name="Group 96596">
    <circle id="Ellipse_4290" data-name="Ellipse 4290" cx="4.745" cy="4.745" r="4.745" transform="translate(220.7 57.425)" fill="#f1d54e"/>
    <circle id="Ellipse_4291" data-name="Ellipse 4291" cx="3.843" cy="3.843" r="3.843" transform="translate(221.603 58.328)" fill="#fff"/>
    <circle id="Ellipse_4292" data-name="Ellipse 4292" cx="2.422" cy="2.422" r="2.422" transform="translate(223.023 59.748)" fill="#f1d54e"/>
  </g>
  <g id="Group_96597" data-name="Group 96597">
    <circle id="Ellipse_4293" data-name="Ellipse 4293" cx="4.745" cy="4.745" r="4.745" transform="translate(351.72 57.425)" fill="#f1d54e"/>
    <circle id="Ellipse_4294" data-name="Ellipse 4294" cx="3.843" cy="3.843" r="3.843" transform="translate(352.622 58.328)" fill="#fff"/>
    <circle id="Ellipse_4295" data-name="Ellipse 4295" cx="2.422" cy="2.422" r="2.422" transform="translate(354.043 59.748)" fill="#f1d54e"/>
  </g>
  <g id="Group_96598" data-name="Group 96598">
    <circle id="Ellipse_4296" data-name="Ellipse 4296" cx="4.745" cy="4.745" r="4.745" transform="translate(160.505 305.726)" fill="#f1d54e"/>
    <circle id="Ellipse_4297" data-name="Ellipse 4297" cx="3.843" cy="3.843" r="3.843" transform="translate(161.407 306.628)" fill="#fff"/>
    <circle id="Ellipse_4298" data-name="Ellipse 4298" cx="2.422" cy="2.422" r="2.422" transform="translate(162.828 308.049)" fill="#f1d54e"/>
  </g>
  <g id="Group_96599" data-name="Group 96599">
    <circle id="Ellipse_4299" data-name="Ellipse 4299" cx="4.745" cy="4.745" r="4.745" transform="translate(454.756 305.726)" fill="#f1d54e"/>
    <circle id="Ellipse_4300" data-name="Ellipse 4300" cx="3.843" cy="3.843" r="3.843" transform="translate(455.658 306.628)" fill="#fff"/>
    <circle id="Ellipse_4301" data-name="Ellipse 4301" cx="2.422" cy="2.422" r="2.422" transform="translate(457.079 308.049)" fill="#f1d54e"/>
  </g>
  <g id="Group_96600" data-name="Group 96600">
    <circle id="Ellipse_4302" data-name="Ellipse 4302" cx="4.745" cy="4.745" r="4.745" transform="translate(749.005 305.726)" fill="#f1d54e"/>
    <circle id="Ellipse_4303" data-name="Ellipse 4303" cx="3.843" cy="3.843" r="3.843" transform="translate(749.907 306.628)" fill="#fff"/>
    <circle id="Ellipse_4304" data-name="Ellipse 4304" cx="2.422" cy="2.422" r="2.422" transform="translate(751.328 308.049)" fill="#f1d54e"/>
  </g>
  <path id="Path_140308" data-name="Path 140308" d="M487.995,201.542V109.693H431.005v91.849H407.426L459.5,253.464l52.074-51.922Z" fill="#f1d54e"/>
  <text id="Hoy" transform="translate(459.499 177.315)" fill="#12263f" font-size="20" font-family="Roboto-Bold, Roboto" font-weight="700"><tspan x="-17.666" y="0">Hoy</tspan></text>
  <text id="Presente" transform="translate(459.499 290.598)" fill="#12263f" font-size="20" font-family="Roboto-Bold, Roboto" font-weight="700"><tspan x="-40.342" y="0">Presente</tspan></text>
  <text id="Futuro" transform="translate(753.749 290.598)" fill="#12263f" font-size="20" font-family="Roboto-Bold, Roboto" font-weight="700"><tspan x="-29.067" y="0">Futuro</tspan></text>
  <path id="Path_140309" data-name="Path 140309" d="M723.726,204.13H621.016v-45.1h102.71V140.366l41.093,41.213-41.093,41.213Z" fill="#f1d54e"/>
  <path id="Path_140310" data-name="Path 140310" d="M194.637,159.028h102.71v45.1H194.637v18.661l-41.093-41.213,41.093-41.213Z" fill="#f1d54e"/>
  <text id="Mañana" transform="translate(692.916 187.421)" fill="#12263f" font-size="20" font-family="Roboto-Bold, Roboto" font-weight="700"><tspan x="-36.045" y="0">Mañana</tspan></text>
  <text id="Ayer" transform="translate(225.445 187.424)" fill="#12263f" font-size="20" font-family="Roboto-Bold, Roboto" font-weight="700"><tspan x="-20.493" y="0">Ayer</tspan></text>
  <text id="Historia" transform="translate(165.249 290.598)" fill="#12263f" font-size="20" font-family="Roboto-Bold, Roboto" font-weight="700"><tspan x="-35.405" y="0">Historia</tspan></text>
  <path id="Path_140311" data-name="Path 140311" d="M883.359,334.657l-14.911-6.118v12.236Z" fill="#f1d54e"/>
</svg>
