<svg xmlns="http://www.w3.org/2000/svg" xmlns:xlink="http://www.w3.org/1999/xlink" width="239.516" height="236.68" viewBox="0 0 239.516 236.68">
  <defs>
    <linearGradient id="linear-gradient" x1="7.031" y1="0.498" x2="8.222" y2="0.498" gradientUnits="objectBoundingBox">
      <stop offset="0.188" stop-color="#ffd234"/>
      <stop offset="0.986" stop-color="#ffb000"/>
    </linearGradient>
    <clipPath id="clip-path">
      <path id="Path_137375" data-name="Path 137375" d="M-1442.973-2595.064c.228-5.768-2.645-46.35,7.362-55.846,11.4-10.819,21.4-6.26,22.863-20.784,2.289-22.7,20.225-43.3,47.28-24.555,26.7,18.5.177,98.372-23.427,114.666-18.051,20.249-31.536,22.316-32.267,53.741C-1421.674-2505.83-1443.831-2573.38-1442.973-2595.064Z" transform="translate(1443.188 2703.562)" fill="none"/>
    </clipPath>
    <clipPath id="clip-path-2">
      <path id="Path_137381" data-name="Path 137381" d="M-1497.5-2245.426c12.169,9.915,25.864,21.189,39.222,4.638,11.12-13.778,17.868-23.507,38.289-23s38.6-11.072,36.129-31.306c-2.6-21.292,20.312-43.969,6.754-61.858-23.624-31.171-51.9,14.554-62.981,40.958s-25.833,10.405-43.243,5.594C-1507.1-2316.972-1507.332-2253.437-1497.5-2245.426Z" transform="translate(1503.612 2367.443)" fill="none"/>
    </clipPath>
    <linearGradient id="linear-gradient-2" x1="1.476" y1="-0.239" x2="-5.298" y2="4.038" gradientUnits="objectBoundingBox">
      <stop offset="0" stop-color="#e1473d"/>
      <stop offset="1" stop-color="#e9605a"/>
    </linearGradient>
    <linearGradient id="linear-gradient-3" x1="2.163" y1="0.18" x2="-17.941" y2="3.504" xlink:href="#linear-gradient-2"/>
    <linearGradient id="linear-gradient-4" x1="-0.129" y1="0.629" x2="2.791" y2="-0.003" xlink:href="#linear-gradient-2"/>
    <linearGradient id="linear-gradient-5" x1="-0.108" y1="0.553" x2="8.523" y2="0.026" xlink:href="#linear-gradient-2"/>
    <linearGradient id="linear-gradient-6" x1="118.877" y1="0.5" x2="119.877" y2="0.5" gradientUnits="objectBoundingBox">
      <stop offset="0" stop-color="#febbba"/>
      <stop offset="1" stop-color="#ff928e"/>
    </linearGradient>
    <linearGradient id="linear-gradient-7" x1="129.688" y1="0.5" x2="130.688" y2="0.5" xlink:href="#linear-gradient-6"/>
    <linearGradient id="linear-gradient-8" x1="26.591" y1="-2.541" x2="25.067" y2="4.745" xlink:href="#linear-gradient"/>
    <linearGradient id="linear-gradient-9" x1="39.227" y1="0.5" x2="40.227" y2="0.5" xlink:href="#linear-gradient-6"/>
    <linearGradient id="linear-gradient-10" x1="1.416" y1="-2.107" x2="0.975" y2="-0.759" xlink:href="#linear-gradient"/>
    <linearGradient id="linear-gradient-11" x1="38.269" y1="-1.665" x2="36.06" y2="1.59" xlink:href="#linear-gradient-6"/>
    <linearGradient id="linear-gradient-12" x1="38.188" y1="-0.671" x2="36.954" y2="2.857" xlink:href="#linear-gradient-6"/>
    <linearGradient id="linear-gradient-13" x1="47.284" y1="-1.142" x2="44.634" y2="2.815" xlink:href="#linear-gradient-6"/>
    <linearGradient id="linear-gradient-14" x1="87.852" y1="50.043" x2="86.634" y2="51.338" xlink:href="#linear-gradient-6"/>
    <linearGradient id="linear-gradient-15" x1="235.83" y1="158.988" x2="238.532" y2="156.45" xlink:href="#linear-gradient-6"/>
    <linearGradient id="linear-gradient-16" x1="2.194" y1="0.554" x2="1.611" y2="0.738" gradientUnits="objectBoundingBox">
      <stop offset="0" stop-color="#fcb148"/>
      <stop offset="0.052" stop-color="#fdb946"/>
      <stop offset="0.142" stop-color="#fec144"/>
      <stop offset="0.318" stop-color="#ffc444"/>
      <stop offset="0.485" stop-color="#fdb946"/>
      <stop offset="0.775" stop-color="#f99c4c"/>
      <stop offset="0.866" stop-color="#f8924f"/>
      <stop offset="1" stop-color="#f8924f"/>
    </linearGradient>
    <linearGradient id="linear-gradient-17" x1="2.593" y1="0.007" x2="2.072" y2="1.135" gradientUnits="objectBoundingBox">
      <stop offset="0" stop-color="#ffdb44"/>
      <stop offset="1" stop-color="#feef06"/>
    </linearGradient>
    <linearGradient id="linear-gradient-18" x1="2.591" y1="1.231" x2="2.486" y2="0.666" xlink:href="#linear-gradient-16"/>
    <linearGradient id="linear-gradient-19" x1="2.433" y1="0.31" x2="2.882" y2="1.247" xlink:href="#linear-gradient-16"/>
    <linearGradient id="linear-gradient-20" x1="4.356" y1="0.019" x2="4.813" y2="1.039" xlink:href="#linear-gradient-17"/>
    <linearGradient id="linear-gradient-21" x1="3.857" y1="0.369" x2="4.608" y2="1.306" xlink:href="#linear-gradient-16"/>
    <linearGradient id="linear-gradient-22" x1="3.875" y1="0.554" x2="3.292" y2="0.738" xlink:href="#linear-gradient-16"/>
    <linearGradient id="linear-gradient-23" x1="4.274" y1="0.007" x2="3.753" y2="1.135" xlink:href="#linear-gradient-17"/>
    <linearGradient id="linear-gradient-24" x1="4.352" y1="1.231" x2="4.247" y2="0.666" xlink:href="#linear-gradient-16"/>
    <linearGradient id="linear-gradient-25" x1="4.256" y1="0.31" x2="4.705" y2="1.247" xlink:href="#linear-gradient-16"/>
    <linearGradient id="linear-gradient-26" x1="8.052" y1="0.019" x2="8.51" y2="1.039" xlink:href="#linear-gradient-17"/>
    <linearGradient id="linear-gradient-27" x1="6.914" y1="0.369" x2="7.665" y2="1.306" xlink:href="#linear-gradient-16"/>
    <linearGradient id="linear-gradient-31" x1="4.256" y1="0.31" x2="4.705" y2="1.247" xlink:href="#linear-gradient-16"/>
    <linearGradient id="linear-gradient-32" x1="8.052" y1="0.019" x2="8.51" y2="1.039" xlink:href="#linear-gradient-17"/>
    <linearGradient id="linear-gradient-33" x1="6.914" y1="0.369" x2="7.665" y2="1.306" xlink:href="#linear-gradient-16"/>
    <linearGradient id="linear-gradient-34" x1="5.082" y1="0.554" x2="4.498" y2="0.738" xlink:href="#linear-gradient-16"/>
    <linearGradient id="linear-gradient-35" x1="5.48" y1="0.007" x2="4.96" y2="1.135" xlink:href="#linear-gradient-17"/>
    <linearGradient id="linear-gradient-36" x1="5.616" y1="1.231" x2="5.511" y2="0.666" xlink:href="#linear-gradient-16"/>
    <linearGradient id="linear-gradient-37" x1="5.565" y1="0.31" x2="6.014" y2="1.247" xlink:href="#linear-gradient-16"/>
    <linearGradient id="linear-gradient-38" x1="10.706" y1="0.019" x2="11.164" y2="1.039" xlink:href="#linear-gradient-17"/>
    <linearGradient id="linear-gradient-39" x1="9.108" y1="0.369" x2="9.86" y2="1.306" xlink:href="#linear-gradient-16"/>
    <linearGradient id="linear-gradient-44" x1="10.706" y1="0.019" x2="11.164" y2="1.039" xlink:href="#linear-gradient-17"/>
  </defs>
  <g id="t3-i9" transform="translate(2035.657 2738.628)">
    <path id="Path_137369" data-name="Path 137369" d="M-1827.293-2536.222a90.569,90.569,0,0,1-15.906,12.911c-41.192,27.5-88.279,19.577-102.837,16.867-23.488-4.372-43.315-7.456-60.35-22.846-38.708-34.972-36.826-107.925-7.248-153.117,3.507-5.358,33.04-49.136,80.229-55.3,1.154-.151,2.015-.237,2.77-.317,7.3-.773,52.537-4.852,89.423,26.051a110.05,110.05,0,0,1,21.657,24.572C-1790.743-2642.906-1790.651-2573.99-1827.293-2536.222Z" transform="translate(0)" fill="#fff"/>
    <g id="Group_95101" data-name="Group 95101" transform="translate(-1952.635 -2731.465)">
      <g id="Group_95100" data-name="Group 95100">
        <g id="Group_95099" data-name="Group 95099">
          <g id="Group_95094" data-name="Group 95094">
            <path id="Path_137370" data-name="Path 137370" d="M-1568.832-2529.307c.109,5.128.775,9.332,1.115,14.336-20.179-7.73-41.049-11.482-61.521-19.282,20.735-19.177,36.625-25.451,38.038-58.169.663-15.354-2.529-45.809,7.522-57.8,11.452-13.661,21.431-6.111,22.888-21.134,2.278-23.48,20.242-43.383,47.274-24.762,26.68,18.378.251,98.213-23.483,114.772C-1554.371-2563.209-1569.4-2556.084-1568.832-2529.307Z" transform="translate(1629.238 2703.487)" fill="url(#linear-gradient)"/>
            <g id="Group_95093" data-name="Group 95093" transform="translate(38.005)">
              <g id="Group_95092" data-name="Group 95092" clip-path="url(#clip-path)">
                <g id="Group_95091" data-name="Group 95091" transform="translate(-7.899 -14.874)">
                  <path id="Path_137371" data-name="Path 137371" d="M-1481.518-2585.4c3.89-6.96,8.373-13.7,12.709-20.213l1.642-2.469c3.479-5.241,6.5-9.992,9.16-14.183,1.5-2.358,2.912-4.585,4.3-6.732,4.246-6.563,7.23-11.149,8.715-13.431.5-.771.832-1.279.983-1.511,11.639-18.006,20.833-46.759,25.772-62.205.535-1.675,1.014-3.171,1.432-4.455a328.181,328.181,0,0,1,30.065-65.577l-.335-.2a328.605,328.605,0,0,0-30.1,65.656c-.419,1.284-.9,2.781-1.433,4.457-4.934,15.43-14.117,44.151-25.729,62.112-.15.233-.481.741-.982,1.511-1.485,2.282-4.47,6.869-8.715,13.432-1.39,2.149-2.806,4.377-4.3,6.735-2.662,4.19-5.679,8.938-9.156,14.177l-1.641,2.469c-4.34,6.522-8.828,13.266-12.725,20.239Z" transform="translate(1481.858 2776.378)" fill="#fcfdfe"/>
                  <path id="Path_137372" data-name="Path 137372" d="M-1374.848-2397.425c7.125-12.263,10.553-29.539,9.915-49.96a178.466,178.466,0,0,0-9.352-51.137l-.368.128a178.061,178.061,0,0,1,9.33,51.021c.636,20.349-2.774,37.553-9.862,49.752Z" transform="translate(1396.976 2555.281)" fill="#fcfdfe"/>
                  <path id="Path_137373" data-name="Path 137373" d="M-1184.071-2660.851c.7-12.244-.134-24.651-.945-36.648-.555-8.213-1.13-16.705-1.2-25.077l-.39,0c.075,8.384.65,16.882,1.205,25.1.811,11.986,1.649,24.379.945,36.6Z" transform="translate(1246.923 2733.566)" fill="#fcfdfe"/>
                  <path id="Path_137374" data-name="Path 137374" d="M-1241.654-2342.61c11.019-13.028,31.683-25.472,44.218-26.638l-.036-.388c-12.621,1.166-33.406,13.681-44.48,26.774Z" transform="translate(1290.959 2452.723)" fill="#fcfdfe"/>
                </g>
              </g>
            </g>
          </g>
          <g id="Group_95098" data-name="Group 95098" transform="translate(25.662 68.557)">
            <path id="Path_137376" data-name="Path 137376" d="M-1383.635-2316.8c-10.587,24.091-23.955,15.505-41.5,5.29-1.915,24.435-4.68,48.156-7.568,72.219,11.844,6.663,20.452,11.215,30.722-1.7,11.616-14.6,17.835-23.416,38.383-23.163s38.6-10.962,36.152-31.36c-2.578-21.465,20.327-43.691,6.769-61.865C-1344.3-2389.041-1372.61-2341.884-1383.635-2316.8Z" transform="translate(1447.189 2367.95)" fill="#bbf0d7"/>
            <g id="Group_95097" data-name="Group 95097" transform="translate(0 0.103)">
              <g id="Group_95096" data-name="Group 95096" clip-path="url(#clip-path-2)">
                <g id="Group_95095" data-name="Group 95095" transform="translate(20.774 -13.686)">
                  <path id="Path_137377" data-name="Path 137377" d="M-1392.553-2267.594c21.558-5.235,39.377-10.2,56.076-22.236,15.982-11.523,25.624-25.581,32.24-47.005,3.429-11.106,7.143-18.677,12.417-28.961l-.347-.178c-5.283,10.3-9,17.888-12.443,29.024-6.589,21.337-16.187,35.335-32.095,46.8-16.642,12-34.423,16.949-55.94,22.173Z" transform="translate(1394.538 2379.961)" fill="#98d8c9"/>
                  <path id="Path_137378" data-name="Path 137378" d="M-1382.01-1797.066l.348-.177a70.509,70.509,0,0,0-11.883-16.957,45.562,45.562,0,0,0-8.154-6.52l-.216.325a45.185,45.185,0,0,1,8.087,6.464A70.114,70.114,0,0,1-1382.01-1797.066Z" transform="translate(1401.914 1946.088)" fill="#98d8c9"/>
                  <path id="Path_137379" data-name="Path 137379" d="M-1117.31-1963.012l.162-.355c-17.7-8.073-36.457-10.313-52.825-6.306l.092.379C-1153.6-1973.281-1134.929-1971.049-1117.31-1963.012Z" transform="translate(1217.353 2066.159)" fill="#98d8c9"/>
                  <path id="Path_137380" data-name="Path 137380" d="M-1007.642-2368.99c.643-1.87,1.579-18.446,2.239-33.334.663-14.949,1.181-31.051.9-32.119l-.377.1c.24.91-.169,15.266-.911,32-.659,14.862-1.588,31.393-2.218,33.225Z" transform="translate(1088.475 2434.443)" fill="#98d8c9"/>
                </g>
              </g>
            </g>
          </g>
        </g>
      </g>
    </g>
    <g id="Group_95103" data-name="Group 95103" transform="translate(-2032.282 -2738.314)">
      <path id="Path_137382" data-name="Path 137382" d="M-2019.136-2586.267a14.873,14.873,0,0,1,14.873-14.873h126.478A13.1,13.1,0,0,1-1864.7-2588.7l9.336,183.369a9.662,9.662,0,0,1-9.474,10.152l-144.96,2.635a9.172,9.172,0,0,1-9.338-9.17Z" transform="translate(2019.136 2628.912)" fill="#0a5936"/>
      <path id="Path_137383" data-name="Path 137383" d="M-1971.222-1731.638h0l-16.22-.21a10,10,0,0,1-9.836-9.964V-1766.3a.346.346,0,0,1,.346-.346.346.346,0,0,1,.346.346v24.489a9.308,9.308,0,0,0,9.152,9.271l16.22.21a.347.347,0,0,1,.342.351A.346.346,0,0,1-1971.222-1731.638Z" transform="translate(2001.747 1964.885)" fill="#bbf0d7"/>
      <path id="Path_137384" data-name="Path 137384" d="M-1996.937-1818.539a.346.346,0,0,1-.346-.346v-3.966a.346.346,0,0,1,.346-.346.346.346,0,0,1,.346.346v3.966A.346.346,0,0,1-1996.937-1818.539Z" transform="translate(2001.747 2009.883)" fill="#bbf0d7"/>
      <g id="Group_95102" data-name="Group 95102" transform="translate(10.362 26.245)">
        <path id="Path_137385" data-name="Path 137385" d="M-1968.411-2604.263a4.32,4.32,0,0,1,4.9-4.309c17.272,2.342,76.664,9.586,125.77,5.817a4,4,0,0,1,4.3,3.768l9.789,184.186a4.6,4.6,0,0,1-4.319,4.834c-20.653,1.222-105.707,5.947-136.045,2.77a3.642,3.642,0,0,1-3.259-3.6Z" transform="translate(1968.411 2608.612)" fill="#17c878"/>
        <path id="Path_137386" data-name="Path 137386" d="M-1958.452-2581.03a4.157,4.157,0,0,1,4.715-4.146c16.621,2.254,73.778,9.225,121.034,5.6a3.844,3.844,0,0,1,4.14,3.626l9.42,177.251a4.424,4.424,0,0,1-4.156,4.653c-19.875,1.176-101.727,5.723-130.922,2.665a3.505,3.505,0,0,1-3.136-3.469Z" transform="translate(1960.487 2589.994)" fill="#d2f6e6"/>
        <path id="Rectangle_32275" data-name="Rectangle 32275" d="M7.6,0H105.29a7.6,7.6,0,0,1,7.6,7.6v0a7.6,7.6,0,0,1-7.6,7.6H7.6A7.6,7.6,0,0,1,0,7.6v0A7.6,7.6,0,0,1,7.6,0Z" transform="translate(13.089 20.201)" fill="#cac8c8" style="mix-blend-mode: multiply;isolation: isolate"/>
        <rect id="Rectangle_32276" data-name="Rectangle 32276" width="114.992" height="7.598" rx="3.799" transform="translate(12.839 98.933)" fill="#cac8c8" style="mix-blend-mode: multiply;isolation: isolate"/>
        <rect id="Rectangle_32277" data-name="Rectangle 32277" width="114.992" height="7.598" rx="3.799" transform="translate(12.839 110.656)" fill="#cac8c8" style="mix-blend-mode: multiply;isolation: isolate"/>
        <rect id="Rectangle_32278" data-name="Rectangle 32278" width="117.395" height="7.598" rx="3.799" transform="translate(12.934 177.594)" fill="#cac8c8" style="mix-blend-mode: multiply;isolation: isolate"/>
        <path id="Path_137387" data-name="Path 137387" d="M-1793.452-2344.235H-1902.8a2.757,2.757,0,0,1-2.757-2.757v-40.945a2.757,2.757,0,0,1,2.757-2.757h107.5a2.757,2.757,0,0,1,2.754,2.632l1.854,40.944A2.757,2.757,0,0,1-1793.452-2344.235Z" transform="translate(1918.399 2435.208)" fill="#fff" opacity="0.25"/>
        <path id="Path_137388" data-name="Path 137388" d="M-1794.808-2345.477H-1904.16a3.188,3.188,0,0,1-3.185-3.185v-40.944a3.189,3.189,0,0,1,3.185-3.186h107.5a3.18,3.18,0,0,1,3.182,3.042l1.854,40.945a3.154,3.154,0,0,1-.879,2.344A3.155,3.155,0,0,1-1794.808-2345.477Zm-109.352-46.458a2.331,2.331,0,0,0-2.328,2.328v40.944a2.33,2.33,0,0,0,2.328,2.328h109.352a2.307,2.307,0,0,0,1.683-.719,2.307,2.307,0,0,0,.643-1.714l-1.854-40.945a2.325,2.325,0,0,0-2.326-2.223Z" transform="translate(1919.819 2436.879)" fill="#cac8c8" style="mix-blend-mode: multiply;isolation: isolate"/>
        <path id="Path_137389" data-name="Path 137389" d="M-1791.332-1942.885H-1901.6a3.5,3.5,0,0,1-3.5-3.5v-39.465a3.5,3.5,0,0,1,3.5-3.5h108.734a3.5,3.5,0,0,1,3.494,3.361l1.53,39.465A3.5,3.5,0,0,1-1791.332-1942.885Z" transform="translate(1918.027 2115.844)" fill="#fff" opacity="0.25"/>
        <path id="Path_137390" data-name="Path 137390" d="M-1793-1944.126h-110.264a3.93,3.93,0,0,1-3.925-3.925v-39.465a3.93,3.93,0,0,1,3.925-3.925h108.734a3.914,3.914,0,0,1,3.922,3.773l1.53,39.465a3.893,3.893,0,0,1-1.094,2.873A3.892,3.892,0,0,1-1793-1944.126Zm-110.264-46.458a3.072,3.072,0,0,0-3.068,3.068v39.465a3.072,3.072,0,0,0,3.068,3.068H-1793a3.044,3.044,0,0,0,2.211-.941,3.042,3.042,0,0,0,.855-2.246l-1.53-39.464a3.059,3.059,0,0,0-3.066-2.949Z" transform="translate(1919.697 2117.514)" fill="#cac8c8" style="mix-blend-mode: multiply;isolation: isolate"/>
        <rect id="Rectangle_32279" data-name="Rectangle 32279" width="0.857" height="46.464" transform="matrix(1, -0.017, 0.017, 1, 46.469, 44.522)" fill="#cac8c8" style="mix-blend-mode: multiply;isolation: isolate"/>
        <rect id="Rectangle_32280" data-name="Rectangle 32280" width="0.857" height="46.475" transform="translate(88.539 44.527) rotate(-1.547)" fill="#cac8c8" style="mix-blend-mode: multiply;isolation: isolate"/>
        <rect id="Rectangle_32281" data-name="Rectangle 32281" width="79.129" height="0.857" transform="translate(47.277 58.757) rotate(-0.82)" fill="#cac8c8" style="mix-blend-mode: multiply;isolation: isolate"/>
        <rect id="Rectangle_32282" data-name="Rectangle 32282" width="79.712" height="0.857" transform="translate(47.447 76.305)" fill="#cac8c8" style="mix-blend-mode: multiply;isolation: isolate"/>
        <rect id="Rectangle_32283" data-name="Rectangle 32283" width="46.462" height="0.857" transform="matrix(0.012, -1, 1, 0.012, 46.471, 172.954)" fill="#cac8c8" style="mix-blend-mode: multiply;isolation: isolate"/>
        <rect id="Rectangle_32284" data-name="Rectangle 32284" width="81.426" height="0.857" transform="translate(47.733 137.16)" fill="#cac8c8" style="mix-blend-mode: multiply;isolation: isolate"/>
        <rect id="Rectangle_32285" data-name="Rectangle 32285" width="82.283" height="0.857" transform="translate(47.161 148.303)" fill="#cac8c8" style="mix-blend-mode: multiply;isolation: isolate"/>
        <rect id="Rectangle_32286" data-name="Rectangle 32286" width="0.857" height="82.607" transform="translate(47.278 160.869) rotate(-89.285)" fill="#cac8c8" style="mix-blend-mode: multiply;isolation: isolate"/>
      </g>
      <path id="Path_137391" data-name="Path 137391" d="M-1658.038-2734.322c-4.569-3.178-8.541-3.115-11.337-2.29a5.577,5.577,0,0,0-3.962,5.864l1.206,13.163,14.351,1.273S-1649.078-2728.089-1658.038-2734.322Zm-6.311,10.619a3.578,3.578,0,0,1-3.578-3.578,3.578,3.578,0,0,1,3.578-3.578,3.578,3.578,0,0,1,3.578,3.578A3.578,3.578,0,0,1-1664.349-2723.7Z" transform="translate(1743.994 2737.092)" fill="#0a5936"/>
      <path id="Path_137392" data-name="Path 137392" d="M-1663.787-2715.614a.346.346,0,0,1-.344-.315l-.192-2.1a.346.346,0,0,1,.313-.376.344.344,0,0,1,.377.313l.192,2.1a.346.346,0,0,1-.313.376Zm-.377-4.108a.346.346,0,0,1-.344-.315l-.146-1.592a5.324,5.324,0,0,1,3.775-5.586,10.73,10.73,0,0,1,5.245-.215.346.346,0,0,1,.27.409.346.346,0,0,1-.409.269,10.056,10.056,0,0,0-4.91.2,4.631,4.631,0,0,0-3.281,4.859l.146,1.591a.346.346,0,0,1-.313.376Z" transform="translate(1737.084 2729.584)" fill="#91b3fa"/>
      <path id="Path_137393" data-name="Path 137393" d="M-1763.221-2641.464v-6.618a4.038,4.038,0,0,1,4.177-4.036l45.628,1.563a3.928,3.928,0,0,1,3.786,3.69l.382,6.359Z" transform="translate(1815.498 2669.478)" fill="#0a5936"/>
      <path id="Path_137394" data-name="Path 137394" d="M-1688.927-2642.6h-1.962a.346.346,0,0,1-.346-.346.346.346,0,0,1,.346-.346h1.962a.346.346,0,0,1,.346.346A.346.346,0,0,1-1688.927-2642.6Z" transform="translate(1758.217 2662.453)" fill="#91b3fa"/>
      <path id="Path_137395" data-name="Path 137395" d="M-1752.48-2636.517a.346.346,0,0,1-.346-.346v-2.677a3.755,3.755,0,0,1,3.751-3.751h7.214a.346.346,0,0,1,.346.346.346.346,0,0,1-.346.346h-7.214a3.062,3.062,0,0,0-3.059,3.059v2.677A.346.346,0,0,1-1752.48-2636.517Z" transform="translate(1807.226 2662.453)" fill="#91b3fa"/>
      <path id="Path_137396" data-name="Path 137396" d="M-1854.934-2607.727a4.3,4.3,0,0,1,4.294-4.093l79.789,0a5.9,5.9,0,0,1,5.811,4.892l.068.39a5.065,5.065,0,0,1-4.99,5.929h-81.859a3.293,3.293,0,0,1-3.289-3.451Z" transform="translate(1888.62 2637.412)" fill="#17c878"/>
    </g>
    <g id="Group_95104" data-name="Group 95104" transform="translate(-1955.372 -2595.642)">
      <path id="Path_137397" data-name="Path 137397" d="M-1595.294-2020.441c-16.472,9.369-30.223,8.784-45.773.613a2.923,2.923,0,0,1-1.564-2.726l.031-.658a2.918,2.918,0,0,1,4.015-2.563c13.5,5.5,23.657,8.52,40.564.176a2.917,2.917,0,0,1,4.2,2.424h0A2.921,2.921,0,0,1-1595.294-2020.441Z" transform="translate(1642.634 2028.581)" fill="url(#linear-gradient-2)"/>
      <path id="Path_137398" data-name="Path 137398" d="M-1454.362-2022.928l9.093-12.887a.635.635,0,0,0-.442-1l-15.062-1.843a.737.737,0,0,0-.769,1.014,32.486,32.486,0,0,1,6.078,14.591A.633.633,0,0,0-1454.362-2022.928Z" transform="translate(1498.581 2038.661)" fill="url(#linear-gradient-3)"/>
    </g>
    <g id="Group_95105" data-name="Group 95105" transform="translate(-1965.438 -2698.871)">
      <path id="Path_137399" data-name="Path 137399" d="M-1667.859-2534.817c16.583-10.243,30.739-10.155,47.027-2.334a3.008,3.008,0,0,1,1.709,2.744l-.008.677a3,3,0,0,1-4.032,2.785c-14.084-5.153-24.634-7.876-41.7,1.329a3,3,0,0,1-4.4-2.335h0A3.006,3.006,0,0,1-1667.859-2534.817Z" transform="translate(1673.908 2543.033)" fill="url(#linear-gradient-4)"/>
      <path id="Path_137400" data-name="Path 137400" d="M-1682.937-2543.706l-8.867,13.585a.654.654,0,0,0,.491,1.008l15.551,1.333a.758.758,0,0,0,.753-1.071,33.416,33.416,0,0,1-6.791-14.772A.651.651,0,0,0-1682.937-2543.706Z" transform="translate(1691.911 2544.001)" fill="url(#linear-gradient-5)"/>
    </g>
    <g id="Group_95109" data-name="Group 95109" transform="translate(-1896.362 -2642.995)">
      <g id="Group_95108" data-name="Group 95108" transform="translate(0 0)">
        <g id="Group_95107" data-name="Group 95107">
          <path id="Path_137401" data-name="Path 137401" d="M-986.987-1623.141s1.065,1.679,1.333,6.38a.766.766,0,0,1-.761.811h-8.331a.491.491,0,0,1-.467-.646,13.333,13.333,0,0,1,5.258-6.98Z" transform="translate(1068.475 1755.721)" fill="#0a5936"/>
          <path id="Path_137402" data-name="Path 137402" d="M-968.216-1638.743l-.471,3.951a.743.743,0,0,1-.649.653,6.574,6.574,0,0,1-1.761-.017,1.22,1.22,0,0,1-1.006-1.211v-3.814Z" transform="translate(1050.067 1768.138)" fill="url(#linear-gradient-6)"/>
          <path id="Path_137403" data-name="Path 137403" d="M-1108.251-1623.577a11.632,11.632,0,0,1,1.561,5.88,1.472,1.472,0,0,1-1.48,1.44h-12.938a.619.619,0,0,1-.356-1.127c2.448-1.719,7.26-4.931,10.741-6.193Z" transform="translate(1169.128 1755.721)" fill="#0a5936"/>
          <path id="Path_137404" data-name="Path 137404" d="M-1064.282-1651.846l-1.005,4.879a1.006,1.006,0,0,1-1.19.791,3.635,3.635,0,0,1-1.137-.476,1.155,1.155,0,0,1-.516-1.179l1.04-5.911Z" transform="translate(1126.492 1779.724)" fill="url(#linear-gradient-7)"/>
          <path id="Path_137405" data-name="Path 137405" d="M-1048.179-1976.567s3.494,3.081,4.152,6.787-1.863,63.95-1.863,63.95-3.494.581-5.3-.51c0,0-2.136-39.1-3.76-48.132,0,0-8.516,40.5-10.876,47.818,0,0-3.366.41-4.452-.231,0,0,2.231-52.5,5.034-61.833Z" transform="translate(1128.183 2036.604)" fill="#0a5936"/>
          <path id="Path_137406" data-name="Path 137406" d="M-996.107-1907.69a.349.349,0,0,1-.089-.011.35.35,0,0,1-.251-.427l1.484-5.694a.352.352,0,0,1,.15-.207l3.207-2.057a.35.35,0,0,1,.484.106.35.35,0,0,1-.105.484l-3.092,1.983-1.45,5.561A.351.351,0,0,1-996.107-1907.69Z" transform="translate(1069.446 1988.523)" fill="#44b658"/>
          <path id="Path_137407" data-name="Path 137407" d="M-1182.83-2152.724c14.71-1.221,18.555,1.823,18.555,1.823l-7.069,11.16s-14.454-.285-24.812-8.268a25.288,25.288,0,0,0,4.148-6.191A19.47,19.47,0,0,0-1182.83-2152.724Z" transform="translate(1228.351 2177.951)" fill="url(#linear-gradient-8)"/>
          <path id="Path_137408" data-name="Path 137408" d="M-1245.679-2254.364a.451.451,0,0,1,.859-.172l1.877,4.005a4.173,4.173,0,0,1,.333,2.483l-.658,2.331a4.025,4.025,0,0,0,.821,3.2,28,28,0,0,0,10.627,8.267,25.281,25.281,0,0,1-4.148,6.191,25.372,25.372,0,0,1-8.83-12.261,1.969,1.969,0,0,1-1.389-1.957Z" transform="translate(1268.163 2257.999)" fill="url(#linear-gradient-9)"/>
          <path id="Path_137409" data-name="Path 137409" d="M-1208.092-2151.224c5.179-5.58,15.043-8.1,20.754-9.137a5.239,5.239,0,0,1,5.855,3.322c2.57,6.909,9.56,24.883,10.915,27.972,1.111,2.534,2.272,5.009,3.01,6.557a1.858,1.858,0,0,1-.867,2.475c-4.8,2.316-13.451,4.936-16.956,5.958a1.2,1.2,0,0,1-1.539-1.157,3.756,3.756,0,0,0-.536-1.933l-13.275-22.122c-8.274,9.174-15.52,10.013-21.086,8a41.9,41.9,0,0,0,1.842-8.694C-1211.753-2141.385-1208.092-2151.224-1208.092-2151.224Z" transform="translate(1248.771 2182.921)" fill="url(#linear-gradient-10)"/>
          <path id="Path_137410" data-name="Path 137410" d="M-1290.671-2081.846l2.688-1.571c4.8,3.3,9.931,5.3,13.219,4.734a41.9,41.9,0,0,1-1.842,8.694C-1283.939-2072.635-1290.671-2081.846-1290.671-2081.846Z" transform="translate(1303.559 2121.627)" fill="url(#linear-gradient-11)"/>
          <path id="Path_137411" data-name="Path 137411" d="M-1353.64-2095.457c1.672-.91,6.632-1.692,6.632-1.692s5.7-3.336,7.344-3.993c1.363-.545,1.95,1.494,2.11,2.2.032.144.047.233.047.233l-.211,1.356-5.761,2.56a7.336,7.336,0,0,1-3.931.57l-6.151-.8a.23.23,0,0,1-.2-.186A.23.23,0,0,1-1353.64-2095.457Z" transform="translate(1353.76 2135.804)" fill="url(#linear-gradient-12)"/>
          <path id="Path_137412" data-name="Path 137412" d="M-1118.505-2210.2l4.411,10.764s-5.069,3.508-9.146,3.175l-2.2-9.679Z" transform="translate(1172.082 2222.509)" fill="url(#linear-gradient-13)"/>
          <g id="Group_95106" data-name="Group 95106" transform="translate(41.89)">
            <path id="Path_137413" data-name="Path 137413" d="M-1140.394-2248.584c-.1.143-3.191,11.307-3.191,11.307l6.412,1.629,4.5-10.146S-1138.7-2250.981-1140.394-2248.584Z" transform="translate(1144.629 2253.558)" fill="url(#linear-gradient-14)"/>
            <path id="Path_137414" data-name="Path 137414" d="M-1139.152-2261.165l-1.951,5.527a.8.8,0,0,1-.1.2c-.265.376-1.271,1.6-2.464.5a7.366,7.366,0,0,0-3.012-2.066.818.818,0,0,0-.931.588,35.361,35.361,0,0,0-1.078,5.386.816.816,0,0,0,.664.88,26.385,26.385,0,0,0,6.124.509.818.818,0,0,0,.69-.475c.611-1.335,2.483-5.385,3.179-6.433.653-.983,2.255-.956,2.927-.9a.8.8,0,0,0,.6-.2,2.122,2.122,0,0,0,.133-3.405.82.82,0,0,1,.019-1.18,2.126,2.126,0,0,0,.272-3.159,3,3,0,0,0-3.58-.857.819.819,0,0,1-.986-.364.648.648,0,0,0-.668-.312.806.806,0,0,1-.86-.827,2.445,2.445,0,0,0-1.888-2.551c-2.8-.872-4.548,1.834-4.721,3.854s2.917,2.792,4.735,2.656c1.382-.1,2.408,1.266,2.82,1.928A.812.812,0,0,1-1139.152-2261.165Z" transform="translate(1148.694 2270.47)" fill="#0a5936"/>
            <path id="Path_137415" data-name="Path 137415" d="M-1100.08-2206.914s.452-3.505,1.911-3.677,2.877,1.027,1.428,2.994C-1098.545-2205.15-1100.08-2206.914-1100.08-2206.914Z" transform="translate(1110.01 2222.836)" fill="url(#linear-gradient-15)"/>
          </g>
        </g>
      </g>
    </g>
    <g id="Group_95111" data-name="Group 95111" transform="translate(-1966.559 -2673.772)">
      <path id="Path_137416" data-name="Path 137416" d="M-1635.284-2380.329c0,16.805-13.141,30.025-29.936,29.509-17.479-.537-32.179-15.632-32.179-33.7s14.7-31.178,32.179-29.358C-1648.424-2412.125-1635.284-2397.134-1635.284-2380.329Z" transform="translate(1697.399 2415.492)" fill="url(#linear-gradient-16)"/>
      <path id="Path_137417" data-name="Path 137417" d="M-1613.067-2387.422c0,16.805-13.141,30.025-29.936,29.509-17.479-.537-32.179-15.632-32.179-33.7s14.7-31.178,32.179-29.358C-1626.207-2419.219-1613.067-2404.228-1613.067-2387.422Z" transform="translate(1679.72 2421.137)" fill="url(#linear-gradient-17)"/>
      <path id="Path_137418" data-name="Path 137418" d="M-1608.471-2381.866c0,16.065-12.573,28.681-28.618,28.162-16.667-.54-30.661-14.946-30.661-32.158s13.994-29.732,30.661-28.024C-1621.044-2412.243-1608.471-2397.932-1608.471-2381.866Z" transform="translate(1673.807 2415.492)" fill="url(#linear-gradient-18)"/>
      <path id="Path_137419" data-name="Path 137419" d="M-1605.2-2377.9c0,15.535-12.166,27.72-27.674,27.2-16.088-.54-29.58-14.454-29.58-31.06s13.492-28.7,29.58-27.071C-1617.37-2407.26-1605.2-2393.435-1605.2-2377.9Z" transform="translate(1669.595 2411.461)" fill="url(#linear-gradient-19)"/>
      <g id="Group_95110" data-name="Group 95110" transform="translate(22.363 7.909)">
        <path id="Path_137420" data-name="Path 137420" d="M-1573.727-2382.413h0a1.692,1.692,0,0,1,1.493,1.66v2.86a42.013,42.013,0,0,1,4.957.86q1.83.43,3.636,1.024a1.672,1.672,0,0,1,1.139,1.716l-.351,3.587a1.345,1.345,0,0,1-1.92,1.115,20.717,20.717,0,0,0-2.439-.908,22.1,22.1,0,0,0-4.6-.86l-.422-.035v8.191c4.3,1.2,7.466,2.825,9.509,4.863a10.279,10.279,0,0,1,3.046,7.59,9.992,9.992,0,0,1-3.369,7.891q-3.391,2.989-9.53,3.356v3.157a1.436,1.436,0,0,1-1.494,1.458h-.027a1.587,1.587,0,0,1-1.5-1.583v-3.115l-.665-.03a43.749,43.749,0,0,1-5.521-.589,35.939,35.939,0,0,1-3.815-.877,1.644,1.644,0,0,1-1.2-1.7l.413-4.611a1.458,1.458,0,0,1,2.038-1.2,29.893,29.893,0,0,0,3.355,1.1,29.4,29.4,0,0,0,5.365.9l.026-9.112q-6.2-1.534-9.258-4.543a10.4,10.4,0,0,1-3.067-7.73,9.038,9.038,0,0,1,3.325-7.509c2.2-1.749,5.333-2.619,9.373-2.617v-2.924A1.351,1.351,0,0,1-1573.727-2382.413Zm-1.5,10.935a5.048,5.048,0,0,0-2.986,1.053,3.07,3.07,0,0,0-1.071,2.459,3.3,3.3,0,0,0,.991,2.444,7.024,7.024,0,0,0,3.066,1.564Zm2.648,16.5v8.356a4.625,4.625,0,0,0,3.2-.994,3.576,3.576,0,0,0,1.112-2.813,3.843,3.843,0,0,0-1.034-2.75A7.59,7.59,0,0,0-1572.576-2354.978Z" transform="translate(1587.922 2382.419)" fill="url(#linear-gradient-20)"/>
      </g>
      <path id="Path_137421" data-name="Path 137421" d="M-1637.885-2373.5c.935-9.235,9.422-13.144,8.314-21.639-.683-5.235-4.651-9.647-9.077-13.093-13.427,1.408-23.809,12.526-23.809,27.067,0,16.605,13.492,30.52,29.58,31.06a27.958,27.958,0,0,0,4.571-.223C-1634.7-2356.691-1638.688-2365.571-1637.885-2373.5Z" transform="translate(1669.595 2410.871)" opacity="0.3" fill="url(#linear-gradient-21)" style="mix-blend-mode: multiply;isolation: isolate"/>
    </g>
    <g id="Group_95113" data-name="Group 95113" transform="translate(-1992.981 -2626.35)">
      <path id="Path_137422" data-name="Path 137422" d="M-1794.073-2167.52A15.221,15.221,0,0,1-1809.819-2152a17.822,17.822,0,0,1-16.927-17.725,15.179,15.179,0,0,1,16.927-15.443A17.938,17.938,0,0,1-1794.073-2167.52Z" transform="translate(1826.746 2186.016)" fill="url(#linear-gradient-22)"/>
      <path id="Path_137423" data-name="Path 137423" d="M-1782.386-2171.251a15.221,15.221,0,0,1-15.747,15.522,17.822,17.822,0,0,1-16.927-17.725,15.178,15.178,0,0,1,16.927-15.443A17.938,17.938,0,0,1-1782.386-2171.251Z" transform="translate(1817.446 2188.985)" fill="url(#linear-gradient-23)"/>
      <path id="Path_137424" data-name="Path 137424" d="M-1779.969-2168.329a14.525,14.525,0,0,1-15.053,14.813,17.011,17.011,0,0,1-16.128-16.916,14.487,14.487,0,0,1,16.128-14.741A17.117,17.117,0,0,1-1779.969-2168.329Z" transform="translate(1814.336 2186.017)" fill="url(#linear-gradient-24)"/>
      <path id="Path_137425" data-name="Path 137425" d="M-1778.25-2166.242a14.029,14.029,0,0,1-14.557,14.308,16.432,16.432,0,0,1-15.559-16.338,13.992,13.992,0,0,1,15.559-14.24A16.531,16.531,0,0,1-1778.25-2166.242Z" transform="translate(1812.12 2183.896)" fill="url(#linear-gradient-25)"/>
      <g id="Group_95112" data-name="Group 95112" transform="translate(11.763 4.16)">
        <path id="Path_137426" data-name="Path 137426" d="M-1761.693-2168.616h0a.89.89,0,0,1,.785.873v1.5a22.168,22.168,0,0,1,2.608.452q.962.226,1.912.539a.88.88,0,0,1,.6.9l-.185,1.887a.707.707,0,0,1-1.01.587,10.924,10.924,0,0,0-1.283-.478,11.637,11.637,0,0,0-2.42-.452l-.222-.018v4.309a11.319,11.319,0,0,1,5,2.558,5.409,5.409,0,0,1,1.6,3.993,5.256,5.256,0,0,1-1.772,4.151,8.083,8.083,0,0,1-5.013,1.765v1.661a.755.755,0,0,1-.786.767h-.014a.835.835,0,0,1-.789-.833v-1.638l-.35-.016a22.961,22.961,0,0,1-2.9-.309,18.963,18.963,0,0,1-2.007-.462.865.865,0,0,1-.63-.894l.217-2.425a.767.767,0,0,1,1.072-.633,15.729,15.729,0,0,0,1.765.58,15.464,15.464,0,0,0,2.822.471l.014-4.793a10.378,10.378,0,0,1-4.87-2.39,5.471,5.471,0,0,1-1.613-4.066,4.753,4.753,0,0,1,1.749-3.949,7.756,7.756,0,0,1,4.93-1.377v-1.538A.71.71,0,0,1-1761.693-2168.616Zm-.788,5.751a2.656,2.656,0,0,0-1.571.554,1.615,1.615,0,0,0-.563,1.293,1.737,1.737,0,0,0,.521,1.286,3.7,3.7,0,0,0,1.613.823Zm1.393,8.679v4.4a2.432,2.432,0,0,0,1.681-.523,1.881,1.881,0,0,0,.585-1.479,2.02,2.02,0,0,0-.544-1.446A3.986,3.986,0,0,0-1761.088-2154.185Z" transform="translate(1769.16 2168.619)" fill="url(#linear-gradient-26)"/>
      </g>
      <path id="Path_137427" data-name="Path 137427" d="M-1795.441-2163.93c.492-4.857,4.956-6.914,4.374-11.382-.359-2.754-2.446-5.075-4.775-6.887a13.994,13.994,0,0,0-12.524,14.237,16.432,16.432,0,0,0,15.559,16.338,14.711,14.711,0,0,0,2.4-.117C-1793.763-2155.085-1795.863-2159.757-1795.441-2163.93Z" transform="translate(1812.12 2183.585)" opacity="0.3" fill="url(#linear-gradient-27)" style="mix-blend-mode: multiply;isolation: isolate"/>
    </g>
    <g id="Group_95115" data-name="Group 95115" transform="translate(-1906.216 -2690.486)">
      <path id="Path_137428" data-name="Path 137428" d="M-1369.324-2481.491a15.221,15.221,0,0,1-15.746,15.522A17.822,17.822,0,0,1-1402-2483.694a15.179,15.179,0,0,1,16.927-15.443A17.938,17.938,0,0,1-1369.324-2481.491Z" transform="translate(1401.997 2499.988)" fill="url(#linear-gradient-22)"/>
      <path id="Path_137429" data-name="Path 137429" d="M-1357.637-2485.222a15.221,15.221,0,0,1-15.747,15.522,17.822,17.822,0,0,1-16.927-17.725,15.178,15.178,0,0,1,16.927-15.442A17.938,17.938,0,0,1-1357.637-2485.222Z" transform="translate(1392.697 2502.957)" fill="url(#linear-gradient-23)"/>
      <path id="Path_137430" data-name="Path 137430" d="M-1355.22-2482.3a14.525,14.525,0,0,1-15.053,14.813A17.011,17.011,0,0,1-1386.4-2484.4a14.487,14.487,0,0,1,16.128-14.741A17.117,17.117,0,0,1-1355.22-2482.3Z" transform="translate(1389.587 2499.988)" fill="url(#linear-gradient-24)"/>
      <path id="Path_137431" data-name="Path 137431" d="M-1353.5-2480.213a14.028,14.028,0,0,1-14.557,14.307,16.432,16.432,0,0,1-15.559-16.337,13.992,13.992,0,0,1,15.559-14.24A16.531,16.531,0,0,1-1353.5-2480.213Z" transform="translate(1387.371 2497.867)" fill="url(#linear-gradient-31)"/>
      <g id="Group_95114" data-name="Group 95114" transform="translate(11.764 4.16)">
        <path id="Path_137432" data-name="Path 137432" d="M-1336.943-2482.587h0a.89.89,0,0,1,.785.873v1.5a22.115,22.115,0,0,1,2.608.453q.963.226,1.912.538a.88.88,0,0,1,.6.9l-.185,1.887a.707.707,0,0,1-1.01.587,10.879,10.879,0,0,0-1.283-.478,11.623,11.623,0,0,0-2.42-.452l-.222-.018v4.309a11.318,11.318,0,0,1,5,2.558,5.405,5.405,0,0,1,1.6,3.992,5.256,5.256,0,0,1-1.772,4.151,8.086,8.086,0,0,1-5.013,1.765v1.661a.755.755,0,0,1-.786.767h-.014a.835.835,0,0,1-.789-.833v-1.638l-.35-.016a23,23,0,0,1-2.9-.31,18.864,18.864,0,0,1-2.007-.461.865.865,0,0,1-.63-.894l.217-2.425a.767.767,0,0,1,1.072-.633,15.8,15.8,0,0,0,1.765.579,15.469,15.469,0,0,0,2.822.471l.014-4.793a10.385,10.385,0,0,1-4.87-2.389,5.472,5.472,0,0,1-1.613-4.067,4.753,4.753,0,0,1,1.749-3.949,7.755,7.755,0,0,1,4.93-1.377v-1.538A.71.71,0,0,1-1336.943-2482.587Zm-.788,5.752a2.651,2.651,0,0,0-1.571.554,1.614,1.614,0,0,0-.563,1.293,1.737,1.737,0,0,0,.521,1.286,3.7,3.7,0,0,0,1.613.823Zm1.393,8.679v4.4a2.432,2.432,0,0,0,1.681-.523,1.882,1.882,0,0,0,.585-1.479,2.021,2.021,0,0,0-.544-1.447A3.992,3.992,0,0,0-1336.338-2468.156Z" transform="translate(1344.41 2482.59)" fill="url(#linear-gradient-32)"/>
      </g>
      <path id="Path_137433" data-name="Path 137433" d="M-1370.692-2477.9c.492-4.858,4.956-6.914,4.373-11.382-.359-2.754-2.446-5.075-4.775-6.887a13.994,13.994,0,0,0-12.524,14.237,16.432,16.432,0,0,0,15.559,16.338,14.66,14.66,0,0,0,2.4-.118C-1369.014-2469.057-1371.114-2473.728-1370.692-2477.9Z" transform="translate(1387.371 2497.556)" opacity="0.3" fill="url(#linear-gradient-33)" style="mix-blend-mode: multiply;isolation: isolate"/>
    </g>
    <g id="Group_95117" data-name="Group 95117" transform="translate(-1990.961 -2672.463)">
      <path id="Path_137434" data-name="Path 137434" d="M-1792.479-2398.709a11.357,11.357,0,0,1-11.749,11.582,13.3,13.3,0,0,1-12.63-13.225,11.325,11.325,0,0,1,12.63-11.523A13.384,13.384,0,0,1-1792.479-2398.709Z" transform="translate(1816.858 2412.51)" fill="url(#linear-gradient-34)"/>
      <path id="Path_137435" data-name="Path 137435" d="M-1783.759-2401.493a11.357,11.357,0,0,1-11.749,11.582,13.3,13.3,0,0,1-12.63-13.225,11.325,11.325,0,0,1,12.63-11.522A13.384,13.384,0,0,1-1783.759-2401.493Z" transform="translate(1809.919 2414.725)" fill="url(#linear-gradient-35)"/>
      <path id="Path_137436" data-name="Path 137436" d="M-1781.955-2399.312a10.838,10.838,0,0,1-11.232,11.053,12.693,12.693,0,0,1-12.034-12.622,10.809,10.809,0,0,1,12.034-11A12.772,12.772,0,0,1-1781.955-2399.312Z" transform="translate(1807.598 2412.51)" fill="url(#linear-gradient-36)"/>
      <path id="Path_137437" data-name="Path 137437" d="M-1780.673-2397.755a10.467,10.467,0,0,1-10.861,10.675,12.261,12.261,0,0,1-11.609-12.19,10.44,10.44,0,0,1,11.609-10.625A12.334,12.334,0,0,1-1780.673-2397.755Z" transform="translate(1805.945 2410.927)" fill="url(#linear-gradient-37)"/>
      <g id="Group_95116" data-name="Group 95116" transform="translate(8.777 3.104)">
        <path id="Path_137438" data-name="Path 137438" d="M-1768.319-2399.526h0a.664.664,0,0,1,.586.651v1.123a16.5,16.5,0,0,1,1.946.337q.718.169,1.427.4a.657.657,0,0,1,.447.674l-.138,1.408a.528.528,0,0,1-.753.438,8.1,8.1,0,0,0-.957-.357,8.7,8.7,0,0,0-1.806-.337l-.166-.014v3.215a8.447,8.447,0,0,1,3.732,1.908,4.034,4.034,0,0,1,1.2,2.979,3.922,3.922,0,0,1-1.322,3.1,6.033,6.033,0,0,1-3.74,1.317v1.239a.564.564,0,0,1-.586.573h-.01a.623.623,0,0,1-.589-.621v-1.223l-.261-.011a17.175,17.175,0,0,1-2.167-.231,14.157,14.157,0,0,1-1.5-.344.645.645,0,0,1-.47-.667l.162-1.81a.572.572,0,0,1,.8-.472,11.712,11.712,0,0,0,1.317.432,11.558,11.558,0,0,0,2.105.352l.01-3.576a7.749,7.749,0,0,1-3.634-1.783,4.082,4.082,0,0,1-1.2-3.034,3.547,3.547,0,0,1,1.3-2.947,5.785,5.785,0,0,1,3.679-1.027v-1.148A.53.53,0,0,1-1768.319-2399.526Zm-.588,4.292a1.982,1.982,0,0,0-1.172.413,1.2,1.2,0,0,0-.42.965,1.3,1.3,0,0,0,.389.959,2.753,2.753,0,0,0,1.2.614Zm1.039,6.476v3.28a1.816,1.816,0,0,0,1.255-.39,1.4,1.4,0,0,0,.437-1.1,1.509,1.509,0,0,0-.406-1.079A2.977,2.977,0,0,0-1767.868-2388.759Z" transform="translate(1773.891 2399.529)" fill="url(#linear-gradient-38)"/>
      </g>
      <path id="Path_137439" data-name="Path 137439" d="M-1793.5-2396.03c.367-3.625,3.7-5.159,3.263-8.493-.268-2.055-1.825-3.786-3.563-5.138a10.441,10.441,0,0,0-9.344,10.623,12.261,12.261,0,0,0,11.609,12.19,10.954,10.954,0,0,0,1.794-.088C-1792.248-2389.431-1793.815-2392.916-1793.5-2396.03Z" transform="translate(1805.945 2410.695)" opacity="0.3" fill="url(#linear-gradient-39)" style="mix-blend-mode: multiply;isolation: isolate"/>
    </g>
    <g id="Group_95119" data-name="Group 95119" transform="translate(-1900.853 -2634.884)">
      <path id="Path_137440" data-name="Path 137440" d="M-1351.368-2214.746a11.357,11.357,0,0,1-11.749,11.582,13.3,13.3,0,0,1-12.63-13.225,11.325,11.325,0,0,1,12.63-11.523A13.385,13.385,0,0,1-1351.368-2214.746Z" transform="translate(1375.747 2228.547)" fill="url(#linear-gradient-34)"/>
      <path id="Path_137441" data-name="Path 137441" d="M-1342.648-2217.53a11.357,11.357,0,0,1-11.749,11.582,13.3,13.3,0,0,1-12.63-13.225,11.326,11.326,0,0,1,12.63-11.523A13.385,13.385,0,0,1-1342.648-2217.53Z" transform="translate(1368.808 2230.762)" fill="url(#linear-gradient-35)"/>
      <path id="Path_137442" data-name="Path 137442" d="M-1340.844-2215.349a10.838,10.838,0,0,1-11.232,11.053,12.693,12.693,0,0,1-12.034-12.622,10.809,10.809,0,0,1,12.034-11A12.772,12.772,0,0,1-1340.844-2215.349Z" transform="translate(1366.487 2228.546)" fill="url(#linear-gradient-36)"/>
      <path id="Path_137443" data-name="Path 137443" d="M-1339.562-2213.792a10.467,10.467,0,0,1-10.861,10.675,12.261,12.261,0,0,1-11.61-12.19,10.44,10.44,0,0,1,11.61-10.625A12.334,12.334,0,0,1-1339.562-2213.792Z" transform="translate(1364.834 2226.965)" fill="url(#linear-gradient-37)"/>
      <g id="Group_95118" data-name="Group 95118" transform="translate(8.777 3.104)">
        <path id="Path_137444" data-name="Path 137444" d="M-1327.208-2215.563h0a.664.664,0,0,1,.586.651v1.123a16.444,16.444,0,0,1,1.946.338q.718.168,1.427.4a.656.656,0,0,1,.447.674l-.138,1.408a.528.528,0,0,1-.753.438,8.033,8.033,0,0,0-.957-.356,8.669,8.669,0,0,0-1.806-.338l-.166-.014v3.215a8.448,8.448,0,0,1,3.732,1.908,4.035,4.035,0,0,1,1.2,2.979,3.922,3.922,0,0,1-1.322,3.1,6.03,6.03,0,0,1-3.74,1.317v1.239a.563.563,0,0,1-.587.572h-.01a.623.623,0,0,1-.589-.621v-1.222l-.261-.012a17.225,17.225,0,0,1-2.167-.231,14.1,14.1,0,0,1-1.5-.344.645.645,0,0,1-.47-.667l.162-1.81a.572.572,0,0,1,.8-.472,11.682,11.682,0,0,0,1.317.433,11.538,11.538,0,0,0,2.105.352l.01-3.576a7.747,7.747,0,0,1-3.634-1.783,4.081,4.081,0,0,1-1.2-3.034,3.548,3.548,0,0,1,1.3-2.947,5.787,5.787,0,0,1,3.679-1.027v-1.148A.53.53,0,0,1-1327.208-2215.563Zm-.588,4.291a1.981,1.981,0,0,0-1.172.414,1.205,1.205,0,0,0-.42.965,1.3,1.3,0,0,0,.389.959,2.756,2.756,0,0,0,1.2.614Zm1.039,6.476v3.279a1.814,1.814,0,0,0,1.254-.39,1.4,1.4,0,0,0,.437-1.1,1.509,1.509,0,0,0-.406-1.079A2.982,2.982,0,0,0-1326.756-2204.8Z" transform="translate(1332.779 2215.566)" fill="url(#linear-gradient-44)"/>
      </g>
      <path id="Path_137445" data-name="Path 137445" d="M-1352.389-2212.067c.367-3.625,3.7-5.159,3.263-8.492-.268-2.055-1.825-3.787-3.563-5.139a10.441,10.441,0,0,0-9.345,10.623,12.261,12.261,0,0,0,11.61,12.19,10.955,10.955,0,0,0,1.794-.088C-1351.137-2205.468-1352.7-2208.953-1352.389-2212.067Z" transform="translate(1364.834 2226.732)" opacity="0.3" fill="url(#linear-gradient-39)" style="mix-blend-mode: multiply;isolation: isolate"/>
    </g>
  </g>
</svg>
