<svg xmlns="http://www.w3.org/2000/svg" xmlns:xlink="http://www.w3.org/1999/xlink" width="230.455" height="212" viewBox="0 0 230.455 212">
  <defs>
    <linearGradient id="linear-gradient" x1="0.181" y1="0.5" x2="1.181" y2="0.5" gradientUnits="objectBoundingBox">
      <stop offset="0.188" stop-color="#ffd234"/>
      <stop offset="0.986" stop-color="#ffb000"/>
    </linearGradient>
    <clipPath id="clip-path">
      <path id="Path_137300" data-name="Path 137300" d="M-579.588-1293.422c3.368,8.887,6.429,18.068,9.771,27.036,5.42.177,11.8.253,12.674-6.442,1.216-9.309,17.065-13.638,24.621-14.187,9.352-.679,29.431-4.025,24.534-16.915-4.077-10.73-10.844-15.725,1.022-23.2s16.275-17.167,10.015-28.376c-6.588-11.8,4.47-28.742-7.576-35.9-20.99-12.468-34.578,23.407-32.307,42.579s-8.449,15.52-20.641,19.9c-16.645,5.983-1.507,20.886-7.359,28.7C-569.422-1294.089-573.314-1294.98-579.588-1293.422Z" transform="translate(579.588 1393.979)" fill="none"/>
    </clipPath>
    <clipPath id="clip-path-2">
      <path id="Path_137309" data-name="Path 137309" d="M-526.649-1423.143q-10.542.295-21.14.113c-.093.12-4.956-14.377.745-23.429,11.329-17.588-.479-29.51-4.581-37.083-6.3-10.589-6.514-24.766,6.436-24.38,12.565.085,10.007-25.3,4.512-44.241-3.445-9.082,3.418-22.042,11.808-26.2,8.525-4.474,18.578-.149,24.632,18.1,7.993,20.953-5.536,36.813-9.486,48.717-3.891,11.688,11.042,17.967,1.907,29.322-7.606,10-17.991,18.053-11.948,27.873C-517.628-1444.677-517.158-1435.963-526.649-1423.143Z" transform="translate(555.817 1579.996)" fill="none"/>
    </clipPath>
    <linearGradient id="linear-gradient-2" x1="0.188" y1="0.5" x2="1.188" y2="0.5" gradientUnits="objectBoundingBox">
      <stop offset="0" stop-color="#40447e"/>
      <stop offset="0.996" stop-color="#3c3b6b"/>
    </linearGradient>
    <linearGradient id="linear-gradient-3" x1="0.437" y1="-2.198" x2="0.606" y2="3.531" gradientUnits="objectBoundingBox">
      <stop offset="0.004" stop-color="#d2f6e6"/>
      <stop offset="1" stop-color="#17c878"/>
    </linearGradient>
    <linearGradient id="linear-gradient-4" x1="1.13" y1="1.028" x2="1.623" y2="0.051" xlink:href="#linear-gradient"/>
    <linearGradient id="linear-gradient-5" x1="2.805" y1="0.935" x2="3.133" y2="0.104" gradientUnits="objectBoundingBox">
      <stop offset="0" stop-color="#311944"/>
      <stop offset="1" stop-color="#893976"/>
    </linearGradient>
    <linearGradient id="linear-gradient-6" x1="32.309" y1="0.03" x2="35.624" y2="1.813" gradientUnits="objectBoundingBox">
      <stop offset="0" stop-color="#ffc444"/>
      <stop offset="0.996" stop-color="#f36f56"/>
    </linearGradient>
    <linearGradient id="linear-gradient-7" x1="19.299" y1="-0.747" x2="19.288" y2="-7.554" gradientUnits="objectBoundingBox">
      <stop offset="0" stop-color="#aa80f9"/>
      <stop offset="0.996" stop-color="#6165d7"/>
    </linearGradient>
    <linearGradient id="linear-gradient-8" x1="-147.158" y1="16.255" x2="-147.096" y2="11.958" xlink:href="#linear-gradient-6"/>
    <linearGradient id="linear-gradient-9" x1="22.808" y1="-1.686" x2="22.797" y2="-8.493" xlink:href="#linear-gradient-7"/>
    <linearGradient id="linear-gradient-10" x1="-135.238" y1="15.19" x2="-135.176" y2="10.893" xlink:href="#linear-gradient-6"/>
    <linearGradient id="linear-gradient-11" x1="11.883" y1="0.162" x2="12.504" y2="0.831" gradientUnits="objectBoundingBox">
      <stop offset="0" stop-color="#444b8c"/>
      <stop offset="0.996" stop-color="#3e4177"/>
    </linearGradient>
    <linearGradient id="linear-gradient-12" x1="-27.18" y1="1.091" x2="-26.151" y2="1.091" xlink:href="#linear-gradient-5"/>
    <linearGradient id="linear-gradient-13" x1="-19.904" y1="1.062" x2="-18.695" y2="1.062" xlink:href="#linear-gradient-11"/>
    <linearGradient id="linear-gradient-14" x1="4.81" y1="0.282" x2="5.296" y2="3.745" xlink:href="#linear-gradient"/>
    <linearGradient id="linear-gradient-15" x1="-8.631" y1="0.744" x2="-8.411" y2="1.751" xlink:href="#linear-gradient"/>
    <linearGradient id="linear-gradient-16" x1="-8.368" y1="2.467" x2="-9.696" y2="1.006" xlink:href="#linear-gradient-6"/>
    <linearGradient id="linear-gradient-17" x1="29.329" y1="-2.638" x2="28.174" y2="1.127" xlink:href="#linear-gradient-6"/>
    <linearGradient id="linear-gradient-18" x1="-14.396" y1="0.868" x2="-14.07" y2="1.864" xlink:href="#linear-gradient"/>
    <linearGradient id="linear-gradient-19" x1="-56.296" y1="73.577" x2="-56.296" y2="72.181" xlink:href="#linear-gradient-6"/>
    <linearGradient id="linear-gradient-20" x1="-45.257" y1="6.327" x2="-45.974" y2="4.741" xlink:href="#linear-gradient-11"/>
    <linearGradient id="linear-gradient-21" x1="-144.166" y1="137.359" x2="-143.038" y2="134.983" xlink:href="#linear-gradient-6"/>
    <linearGradient id="linear-gradient-22" x1="0.743" y1="0.554" x2="0.16" y2="0.738" gradientUnits="objectBoundingBox">
      <stop offset="0" stop-color="#fcb148"/>
      <stop offset="0.052" stop-color="#fdb946"/>
      <stop offset="0.142" stop-color="#fec144"/>
      <stop offset="0.318" stop-color="#ffc444"/>
      <stop offset="0.485" stop-color="#fdb946"/>
      <stop offset="0.775" stop-color="#f99c4c"/>
      <stop offset="0.866" stop-color="#f8924f"/>
      <stop offset="1" stop-color="#f8924f"/>
    </linearGradient>
    <linearGradient id="linear-gradient-23" x1="1.142" y1="0.007" x2="0.621" y2="1.135" gradientUnits="objectBoundingBox">
      <stop offset="0" stop-color="#ffdb44"/>
      <stop offset="1" stop-color="#feef06"/>
    </linearGradient>
    <linearGradient id="linear-gradient-24" x1="1.071" y1="1.231" x2="0.966" y2="0.666" xlink:href="#linear-gradient-22"/>
    <linearGradient id="linear-gradient-25" x1="0.859" y1="0.31" x2="1.308" y2="1.247" xlink:href="#linear-gradient-22"/>
    <linearGradient id="linear-gradient-26" x1="1.165" y1="0.019" x2="1.623" y2="1.039" xlink:href="#linear-gradient-23"/>
    <linearGradient id="linear-gradient-27" x1="1.218" y1="0.369" x2="1.97" y2="1.306" xlink:href="#linear-gradient-22"/>
    <linearGradient id="linear-gradient-28" x1="1.936" y1="0.554" x2="1.353" y2="0.738" xlink:href="#linear-gradient-22"/>
    <linearGradient id="linear-gradient-29" x1="2.335" y1="0.007" x2="1.814" y2="1.135" xlink:href="#linear-gradient-23"/>
    <linearGradient id="linear-gradient-30" x1="2.32" y1="1.231" x2="2.215" y2="0.666" xlink:href="#linear-gradient-22"/>
    <linearGradient id="linear-gradient-31" x1="2.153" y1="0.31" x2="2.602" y2="1.247" xlink:href="#linear-gradient-22"/>
    <linearGradient id="linear-gradient-32" x1="3.788" y1="0.019" x2="4.246" y2="1.039" xlink:href="#linear-gradient-23"/>
    <linearGradient id="linear-gradient-33" x1="3.387" y1="0.369" x2="4.139" y2="1.306" xlink:href="#linear-gradient-22"/>
  </defs>
  <g id="t3-i8" transform="translate(1586.658 1579.995)">
    <path id="Path_137293" data-name="Path 137293" d="M-1570.537-1471.76c4.127-27.018,7.441-45.689,22.346-55.92,25.141-17.258,53.219,10.758,88.833-8.041,17.535-9.256,18.192-19.987,33.043-21.412,26.274-2.521,47.791,28.835,49.655,31.524a68.367,68.367,0,0,1,10.521,55.253c-2.983,12.336-5,25.1-4.445,37.78.963,22.062.409,42.654-21,55.811-19.117,11.748-43.176,22.109-66.129,23.924-15.6,1.233-33.091-.762-48.125-4.824C-1582.455-1378.36-1576.213-1434.612-1570.537-1471.76Z" transform="translate(-11.164 -19.449)" fill="#fff"/>
    <g id="Group_95061" data-name="Group 95061" transform="translate(-1441.683 -1553.217)">
      <g id="Group_95060" data-name="Group 95060" transform="translate(0)">
        <path id="Path_137294" data-name="Path 137294" d="M-540.66-1270.472a11.393,11.393,0,0,1-4.878-2.259c-3.99-4.6-12.019-12.729-11.951-19.166.012-1.1,4.862-2.354,5.5-3.393,2.9-1.55,4-1.908,6.031-4.735,6-8.346-9.293-22.738,7.393-28.861,12.222-4.485,22.91-.716,20.646-19.917s11.318-55.044,32.309-42.587c12.047,7.149.986,24.1,7.576,35.9,6.263,11.208,1.851,20.9-10.015,28.376s-5.094,12.463-1.022,23.2c4.891,12.9-15.161,16.2-24.548,16.93C-521.178-1286.391-540.03-1279.79-540.66-1270.472Z" transform="translate(560.67 1393.962)" fill="url(#linear-gradient)"/>
        <g id="Group_95059" data-name="Group 95059">
          <g id="Group_95058" data-name="Group 95058" clip-path="url(#clip-path)">
            <g id="Group_95057" data-name="Group 95057" transform="translate(9.212 -3.027)">
              <path id="Path_137295" data-name="Path 137295" d="M-515.45-1299.783l-.144-.263a112.452,112.452,0,0,0,46.44-48.461c9.927-19.754,14.662-42.746,13.693-66.488l.3-.012c.971,23.793-3.775,46.835-13.725,66.635A112.751,112.751,0,0,1-515.45-1299.783Z" transform="translate(515.594 1415.006)" fill="#fff"/>
              <path id="Path_137296" data-name="Path 137296" d="M-368.936-744.6l-.1-.282c12.28-4.343,32.026-5.19,44.016-1.887l-.079.289C-337.04-749.772-356.705-748.928-368.936-744.6Z" transform="translate(390.134 844.693)" fill="#fff"/>
              <path id="Path_137297" data-name="Path 137297" d="M-462.047-903.688l-.211-.212c4.782-4.754,6.977-11.744,6.523-20.774a76.74,76.74,0,0,0-5.119-22.424l.281-.1a77.04,77.04,0,0,1,5.138,22.513C-454.978-915.57-457.2-908.5-462.047-903.688Z" transform="translate(469.936 1014.546)" fill="#fff"/>
              <path id="Path_137298" data-name="Path 137298" d="M-183.409-1052.659l-.222-.2c8.555-9.427,21.591-12.468,31.021-13.358l.028.3C-161.959-1065.035-174.919-1062.015-183.409-1052.659Z" transform="translate(231.42 1116.429)" fill="#fff"/>
              <path id="Path_137299" data-name="Path 137299" d="M-200.374-1358.186l-.3-.007c.149-6.153-1.443-18.56-13.773-32.518l.224-.2C-201.824-1376.874-200.224-1364.383-200.374-1358.186Z" transform="translate(257.799 1394.378)" fill="#fff"/>
            </g>
          </g>
        </g>
      </g>
    </g>
    <g id="Group_95065" data-name="Group 95065" transform="translate(-1438.26 -1579.996)">
      <g id="Group_95064" data-name="Group 95064" transform="translate(0)">
        <g id="Group_95063" data-name="Group 95063" clip-path="url(#clip-path-2)">
          <path id="Path_137301" data-name="Path 137301" d="M-526.389-1423.143q-10.542.295-21.14.113c-.093.12-4.956-14.377.745-23.429,11.329-17.588-.479-29.51-4.581-37.083-6.25-10.589-6.168-23.259,5.338-25.468,12.718-2.7,11.316-24.291,5.61-43.152-3.445-9.082,3.418-22.042,11.808-26.2,8.525-4.474,18.578-.149,24.632,18.1,7.993,20.953-5.536,36.813-9.486,48.717-3.891,11.688,11.042,17.967,1.907,29.322-7.606,10-17.991,18.053-11.948,27.873C-517.367-1444.677-516.9-1435.963-526.389-1423.143Z" transform="translate(555.556 1579.996)" fill="#bbf0d7"/>
          <g id="Group_95062" data-name="Group 95062" transform="translate(-1.346 -3.274)">
            <path id="Path_137302" data-name="Path 137302" d="M-417.835-1440.068a493.194,493.194,0,0,1,6.946-65.092c.691-5.21,1.51-10.487,2.3-15.59,2.12-13.664,4.312-27.794,4.132-41.447-.2-15.259-3.406-28.471-9.8-40.39l.281-.151c6.419,11.965,9.638,25.225,9.839,40.536.18,13.679-2.014,27.822-4.136,41.5-.791,5.1-1.61,10.377-2.3,15.591a493.474,493.474,0,0,0-6.946,64.993Z" transform="translate(439.045 1602.737)" fill="#98d8c9"/>
            <path id="Path_137303" data-name="Path 137303" d="M-328.494-1435.941l-.271-.169c6.145-9.827,13.241-23.505,17.052-30.853,3.072-5.921,3.1-5.922,3.276-5.925l.006.319,0-.16.092.127c-.181.183-1.463,2.656-3.087,5.786C-315.243-1459.464-322.342-1445.778-328.494-1435.941Z" transform="translate(362.797 1491.581)" fill="#98d8c9"/>
            <path id="Path_137304" data-name="Path 137304" d="M-445.13-1437.811a40.924,40.924,0,0,0-12.12-18.232c-4.062-3.4-7.52-4.637-7.882-4.637h0l0-.119-.142-.149c.074-.07.185-.061.362-.018,2.782.67,14.346,6.544,20.093,23.05Z" transform="translate(479.662 1481.403)" fill="#98d8c9"/>
            <path id="Path_137305" data-name="Path 137305" d="M-540.229-1028.569c-.513-9.234-4.331-18.593-11.348-27.817a85.466,85.466,0,0,0-13.055-13.587c-.363-.305-.491-.414-.536-.466l.244-.206c.033.037.248.218.5.427a85.774,85.774,0,0,1,13.1,13.638c7.056,9.276,10.9,18.694,11.413,27.993Z" transform="translate(565.168 1147.244)" fill="#98d8c9"/>
            <path id="Path_137306" data-name="Path 137306" d="M-381.673-960.114l-.3-.119c5.877-14.7,23-18.672,23.212-18.672h0l.143.127-.081.173-.076-.139.014.156a37.532,37.532,0,0,0-9.44,3.837C-372.692-972.205-378.68-967.6-381.673-960.114Zm22.826-18.771.076.14Z" transform="translate(408.343 1068.71)" fill="#98d8c9"/>
            <path id="Path_137307" data-name="Path 137307" d="M-492.611-624.773c-.547-3.961-3.134-10.425-12.351-18.717-.506-.456-.506-.456-.509-.544l.16-.005.133-.086c.03.036.215.2.431.4,9.289,8.357,11.9,14.9,12.454,18.911Z" transform="translate(514.066 782.125)" fill="#98d8c9"/>
            <path id="Path_137308" data-name="Path 137308" d="M-412.8-669.721l-.317-.034c.342-3.152,2.729-9.629,14.874-17.6.168-.11.276-.18.313-.209l.193.255c-.04.03-.154.105-.331.222C-410.1-679.19-412.465-672.817-412.8-669.721Z" transform="translate(435.007 819.307)" fill="#98d8c9"/>
          </g>
        </g>
      </g>
    </g>
    <g id="Group_95067" data-name="Group 95067" transform="translate(-1586.658 -1490.429)">
      <path id="Path_137310" data-name="Path 137310" d="M-1586.658-235.7l203.72-1.791v5.3a2.807,2.807,0,0,1-2.092,2.879l-57.606,10.433a7.85,7.85,0,0,1-2.067.1l-139.741-11.9a2.669,2.669,0,0,1-2.214-2.81Z" transform="translate(1586.658 341.184)" fill="#0a5936"/>
      <g id="Group_95066" data-name="Group 95066" transform="translate(68.489 0)">
        <path id="Path_137311" data-name="Path 137311" d="M-1093.355-860.92l127.684,9.692a3.925,3.925,0,0,0,4.143-4.117v-98.044a4.3,4.3,0,0,0-4.143-4.431h-127.684c-1.882,0-3.4,1.793-3.4,4.006v88.63C-1096.759-862.972-1095.237-861.063-1093.355-860.92Z" transform="translate(1098.795 957.82)" fill="#0a5936"/>
        <path id="Path_137312" data-name="Path 137312" d="M-1107.5-860.92l127.684,9.692a3.926,3.926,0,0,0,4.143-4.117v-98.044a4.3,4.3,0,0,0-4.143-4.431H-1107.5c-1.882,0-3.4,1.793-3.4,4.006v88.63C-1110.9-862.972-1109.379-861.063-1107.5-860.92Z" transform="translate(1110.901 957.82)" fill="#97a6b7"/>
        <path id="Path_137313" data-name="Path 137313" d="M-1076.325-833.318-957.4-824.9a3.219,3.219,0,0,0,3.37-3.379v-85.838a3.521,3.521,0,0,0-3.37-3.632l-118.924-.529a3.064,3.064,0,0,0-2.809,3.282v78.183A3.356,3.356,0,0,0-1076.325-833.318Z" transform="translate(1083.707 923.97)" fill="#d8dee8"/>
        <path id="Path_137314" data-name="Path 137314" d="M-675.1-948.994a1.573,1.573,0,0,0,1.469,1.654,1.564,1.564,0,0,0,1.472-1.648,1.572,1.572,0,0,0-1.472-1.654A1.565,1.565,0,0,0-675.1-948.994Z" transform="translate(737.837 951.675)" fill="#fff"/>
        <path id="Path_137315" data-name="Path 137315" d="M-1070.146-887.81c9.843-5.689,17.583,1.52,25.052-5.592,4.528-4.312,2.305-7.527,7.878-13.971,6.171-7.137,10.189-4.738,16.392-11.161,7.842-8.122,3.92-14.44,10.675-20.271,8.2-7.074,17.033-.527,24.834-7.311,3.365-2.926,5.211-7.18,6.175-11.7h7.633a2.518,2.518,0,0,1,2.424,2.6v101.631a2.3,2.3,0,0,1-2.424,2.416l-130.131-9.922a2.08,2.08,0,0,1-1.568-1.03c9.526-.373,15.378-3.8,19.119-7.349C-1076.769-876.409-1078.038-883.249-1070.146-887.81Z" transform="translate(1104.314 957.82)" fill="#fff" opacity="0.48" style="mix-blend-mode: soft-light;isolation: isolate"/>
      </g>
      <path id="Path_137316" data-name="Path 137316" d="M-1519.854-287.929l136.916,10.2-59.7,10.812a7.848,7.848,0,0,1-2.067.1L-1586.658-278.9l64.626-8.958A10.277,10.277,0,0,1-1519.854-287.929Z" transform="translate(1586.658 384.389)" fill="#97a6b7"/>
      <path id="Path_137317" data-name="Path 137317" d="M-1197.9-266.369l-113.986-8.62-35.278,4.851,113,9.214Z" transform="translate(1381.639 373.288)" opacity="0.3" fill="url(#linear-gradient-2)" style="mix-blend-mode: multiply;isolation: isolate"/>
    </g>
    <g id="Group_95080" data-name="Group 95080" transform="translate(-1526.988 -1529.128)">
      <g id="Group_95077" data-name="Group 95077" transform="translate(0 0)">
        <g id="Group_95069" data-name="Group 95069">
          <path id="Path_137318" data-name="Path 137318" d="M-1166.331-1222.975l111.463-3.663a6.537,6.537,0,0,1,6.781,6.586v108.637a6.461,6.461,0,0,1-6.781,6.52l-111.463-4.76a6.389,6.389,0,0,1-5.827-6.535V-1216.5A6.313,6.313,0,0,1-1166.331-1222.975Z" transform="translate(1172.158 1226.642)" fill="#0a5936"/>
          <path id="Path_137319" data-name="Path 137319" d="M-1043.832-1094.177a4.4,4.4,0,0,0,4.609-4.438v-108.491a4.45,4.45,0,0,0-4.609-4.484l-111.463,3.513a4.3,4.3,0,0,0-3.972,4.41v100.431a4.348,4.348,0,0,0,3.972,4.449Z" transform="translate(1161.123 1213.759)" fill="#d8dee8"/>
          <path id="Path_137320" data-name="Path 137320" d="M-1166.331-1222.975l111.463-3.663a6.537,6.537,0,0,1,6.781,6.586v4.885l-124.071,3.18v-4.51A6.313,6.313,0,0,1-1166.331-1222.975Z" transform="translate(1172.158 1226.642)" fill="url(#linear-gradient-3)"/>
          <path id="Path_137321" data-name="Path 137321" d="M-394.045-1196.571a2.133,2.133,0,0,0,2.2,2.151,2.287,2.287,0,0,0,2.2-2.279,2.132,2.132,0,0,0-2.2-2.151A2.287,2.287,0,0,0-394.045-1196.571Z" transform="translate(506.06 1202.851)" fill="#fff"/>
          <path id="Path_137322" data-name="Path 137322" d="M-447.351-1194.955a2.117,2.117,0,0,0,2.177,2.141,2.271,2.271,0,0,0,2.183-2.268,2.117,2.117,0,0,0-2.183-2.141A2.271,2.271,0,0,0-447.351-1194.955Z" transform="translate(551.693 1201.458)" fill="#fff"/>
          <path id="Path_137323" data-name="Path 137323" d="M-500.151-1193.354a2.1,2.1,0,0,0,2.157,2.131,2.255,2.255,0,0,0,2.163-2.257,2.1,2.1,0,0,0-2.163-2.131A2.255,2.255,0,0,0-500.151-1193.354Z" transform="translate(596.892 1200.079)" fill="#fff"/>
          <g id="Group_95068" data-name="Group 95068" transform="translate(9.91)" opacity="0.5" style="mix-blend-mode: soft-light;isolation: isolate">
            <path id="Path_137324" data-name="Path 137324" d="M-1064.077-1181.212c13.019-18.944,35.553-12.917,49.808-33.847a45.819,45.819,0,0,0,5.512-11.158l12.818-.421a6.537,6.537,0,0,1,6.78,6.586v108.637a6.461,6.461,0,0,1-6.78,6.52l-107.381-4.585c2.46-3.548,23.885-16.689,29.42-36.865C-1068.84-1164.8-1071.931-1169.782-1064.077-1181.212Z" transform="translate(1103.321 1226.642)" fill="#fff"/>
          </g>
        </g>
        <g id="Group_95076" data-name="Group 95076" transform="translate(6.058 25.928)">
          <path id="Path_137325" data-name="Path 137325" d="M-1130.078-945.317l109.7-.131v-3.585l-109.7.445Z" transform="translate(1130.078 963.07)" fill="#97a6b7"/>
          <path id="Path_137326" data-name="Path 137326" d="M-1130.078-1036.409l109.7-.933v-9.191l-109.7,1.736Z" transform="translate(1130.078 1046.532)" fill="#97a6b7"/>
          <g id="Group_95071" data-name="Group 95071" transform="translate(2.402 23.321)">
            <g id="Group_95070" data-name="Group 95070" transform="translate(90.322)">
              <path id="Path_137327" data-name="Path 137327" d="M-485.97-884.517l14.551-.018v13.9l-14.551-.086Zm12.853,1.878-10.671,0v10.045l10.671.052Z" transform="translate(485.97 884.535)" fill="#97a6b7"/>
            </g>
            <path id="Path_137328" data-name="Path 137328" d="M-1113.389-880.665l84.259.049v-3.751l-84.259.089Z" transform="translate(1113.389 884.391)" fill="#97a6b7"/>
            <path id="Path_137329" data-name="Path 137329" d="M-1113.389-838.5l84.259.271v-3.543l-84.259-.141Z" transform="translate(1113.389 848.05)" fill="#97a6b7"/>
          </g>
          <g id="Group_95073" data-name="Group 95073" transform="translate(2.402 43.108)">
            <g id="Group_95072" data-name="Group 95072" transform="translate(90.322 0.718)">
              <path id="Path_137330" data-name="Path 137330" d="M-485.97-742.1l14.551.136v13.9l-14.551-.239Zm12.853,2.013-10.671-.11v10.045l10.671.166Z" transform="translate(485.97 742.097)" fill="#97a6b7"/>
            </g>
            <path id="Path_137331" data-name="Path 137331" d="M-1113.389-743.47l84.259.8v-3.751l-84.259-.661Z" transform="translate(1113.389 747.084)" fill="#97a6b7"/>
            <path id="Path_137332" data-name="Path 137332" d="M-1113.389-701.834l84.259,1.02v-3.543l-84.259-.89Z" transform="translate(1113.389 711.27)" fill="#97a6b7"/>
          </g>
          <g id="Group_95075" data-name="Group 95075" transform="translate(2.402 62.782)">
            <g id="Group_95074" data-name="Group 95074" transform="translate(90.322 1.531)">
              <path id="Path_137333" data-name="Path 137333" d="M-485.97-599.781l14.551.289v13.9l-14.551-.393Zm12.853,2.148-10.671-.224V-587.6l10.671.281Z" transform="translate(485.97 599.781)" fill="#97a6b7"/>
            </g>
            <path id="Path_137334" data-name="Path 137334" d="M-1113.389-606.8l84.259,1.547v-3.751l-84.259-1.41Z" transform="translate(1113.389 610.417)" fill="#97a6b7"/>
            <path id="Path_137335" data-name="Path 137335" d="M-1113.389-565.167l84.259,1.769v-3.543l-84.259-1.639Z" transform="translate(1113.389 574.602)" fill="#97a6b7"/>
          </g>
        </g>
      </g>
      <g id="Group_95078" data-name="Group 95078" transform="translate(98.66 48.333)">
        <path id="Path_137336" data-name="Path 137336" d="M-480.872-876.809a1.6,1.6,0,0,1-1.109-.431l-4.371-4.135a1.445,1.445,0,0,1,0-2.118,1.634,1.634,0,0,1,2.228-.005l3.034,2.878,7-9.638a1.6,1.6,0,0,1,2.162-.37,1.447,1.447,0,0,1,.39,2.068l-8.051,11.1a1.594,1.594,0,0,1-1.147.642C-480.779-876.812-480.826-876.81-480.872-876.809Z" transform="translate(486.814 890.897)" fill="#fb9e36"/>
      </g>
      <g id="Group_95079" data-name="Group 95079" transform="translate(98.66 68.015)">
        <path id="Path_137337" data-name="Path 137337" d="M-480.872-740.089a1.6,1.6,0,0,1-1.109-.431l-4.371-4.135a1.445,1.445,0,0,1,0-2.118,1.634,1.634,0,0,1,2.228-.005l3.034,2.878,7-9.638a1.6,1.6,0,0,1,2.162-.37,1.447,1.447,0,0,1,.39,2.068l-8.051,11.1a1.6,1.6,0,0,1-1.147.642C-480.779-740.092-480.826-740.089-480.872-740.089Z" transform="translate(486.814 754.177)" fill="#fb9e36"/>
      </g>
    </g>
    <g id="Group_95081" data-name="Group 95081" transform="translate(-1529.287 -1569.56)">
      <path id="Path_137338" data-name="Path 137338" d="M-1188.13-1479.368v.107a45.861,45.861,0,0,1,3.628-4.094c.019-.046.05-.091.069-.137a24.175,24.175,0,0,1,2.31-4.263,23.525,23.525,0,0,1,3.689-4.222c.174-.172.376-.323.562-.485.1-.079.191-.161.288-.24l.141-.121c.05-.04.1-.076.151-.115l.6-.459.15-.115.158-.107.314-.216c.413-.3.858-.558,1.293-.832.221-.133.454-.255.679-.381.111-.063.225-.127.339-.189l.35-.174a21.9,21.9,0,0,1,5.974-1.994l.783-.129c.261-.036.527-.059.787-.09l.394-.044.4-.021.4-.024c.131-.007.261-.02.394-.017l.79-.006c.064,0,.134,0,.194,0l.175.01.352.019.349.017c.031,0,.052,0,.092,0l.358.027.479.033.358.027.06,0h.022s.125,0-.085,0l.774.114c.127.02.256.032.384.06l.38.076.38.075.189.037c.063.012.125.031.186.046.248.063.5.125.743.189.125.027.245.07.366.106l.362.114.362.109.354.13c.236.088.472.166.7.26s.457.193.684.291a19.661,19.661,0,0,1,4.805,3.023l.26.217.247.232c.163.153.332.3.488.456.007.005.012.013.019.019.3.314.61.609.882.933.073.079.144.16.213.24l.107.118.1.126c.133.164.264.329.4.491.032.04.067.079.1.121l.09.126c.062.085.122.169.182.251.118.169.247.324.353.5a18.653,18.653,0,0,1,2.043,3.962,18.09,18.09,0,0,1,.905,3.532c.017.133.035.263.052.392s.04.252.045.377c.02.249.041.487.06.714s.013.452.023.66c0,.1.011.207.012.3s-.007.2-.008.293c0,.189-.005.367-.008.533a.67.67,0,0,1-.009.1c0,.031-.008.062-.012.091-.005.059-.014.051-.019.1s-.009.067-.014.067h-8.828l5.364,5.948,12.471,13.639,17.837-19.587h-9.378a1.422,1.422,0,0,1-.043-.287c-.036-.272-.075-.538-.118-.861-.024-.161-.046-.311-.071-.484-.013-.085-.025-.165-.039-.254s-.024-.181-.042-.257c-.066-.325-.134-.667-.206-1.031-.039-.181-.077-.366-.117-.557s-.094-.383-.145-.582c-.1-.4-.2-.811-.325-1.239s-.268-.866-.409-1.325c-.068-.231-.158-.457-.241-.692l-.26-.709a33.882,33.882,0,0,0-3.051-6.085,33.41,33.41,0,0,0-5.01-6.113c-.243-.248-.511-.475-.77-.712-.132-.117-.262-.235-.393-.353l-.2-.177-.2-.169-.829-.677-.209-.169-.217-.161-.437-.323c-.573-.438-1.188-.834-1.8-1.242-.308-.2-.628-.384-.945-.575-.157-.094-.317-.188-.476-.284l-.491-.266a31.769,31.769,0,0,0-8.486-3.164l-1.127-.222c-.375-.07-.758-.118-1.136-.176l-.568-.08-.573-.056-.571-.055c-.191-.017-.38-.039-.571-.046-.381-.017-.763-.063-1.145-.08-.094,0-.191-.04-.286-.04h-.287l-.57.032-.57.019c-.19,0-.381.026-.57.035l-1.133.068c-.257,0-.089.007-.154.008l-.03,0-.06.007-.118.016-.239.03-.475.059-.239.029-.118.015-.146.02-.6.088-.6.091-.3.047c-.1.016-.185.038-.279.056-.366.078-.732.157-1.1.233-.182.036-.362.089-.542.135l-.541.143-.536.144-.53.168c-.351.114-.7.221-1.049.345l-1.029.386a29.455,29.455,0,0,0-7.317,4.192c-.134.1-.267.208-.4.311s-.258.216-.385.326c-.255.217-.511.427-.757.649-.484.455-.967.89-1.408,1.363-.113.115-.223.232-.335.346l-.165.172-.158.178q-.316.358-.624.711l-.154.177-.147.182c-.1.122-.193.243-.288.363-.19.243-.39.474-.562.724a29.564,29.564,0,0,0-2.477,3.955c-.332.637-.629,1.271-.891,1.9a27.976,27.976,0,0,0-1.655,5.354c-.036.2-.075.4-.111.6s-.076.388-.1.579c-.051.382-.1.748-.149,1.1s-.062.695-.091,1.018c-.012.161-.028.318-.038.473s-.038.3-.044.45C-1188.083-1479.907-1188.13-1479.627-1188.13-1479.368Z" transform="translate(1188.13 1507.503)" fill="url(#linear-gradient-4)"/>
      <path id="Path_137339" data-name="Path 137339" d="M-1188.13-1435.531v.107a45.9,45.9,0,0,1,3.628-4.094c.019-.046.05-.091.069-.137a24.176,24.176,0,0,1,2.31-4.263,23.521,23.521,0,0,1,3.689-4.222c.174-.172.376-.323.562-.486.1-.079.191-.161.288-.24l.141-.121c.05-.04.1-.076.151-.115l.6-.459.15-.115.158-.107.314-.216c.413-.3.858-.558,1.293-.832.221-.133.454-.255.679-.381.111-.063.225-.127.339-.189l.35-.174a21.909,21.909,0,0,1,5.974-1.994l.783-.129c.261-.036.527-.059.787-.09l.394-.044.4-.021.4-.024c.131-.007.261-.02.394-.017l.79-.006c.064,0,.134,0,.194,0l.175.01.352.019.349.017.092,0,.358.027.479.034.358.027.06,0h.022s.125,0-.085,0l.774.114c.127.02.256.032.384.06l.38.077.38.075.189.037c.063.012.125.031.186.046.248.063.5.125.743.189.125.027.245.07.366.106l.362.114.362.109.354.13c.236.089.472.166.7.26s.457.193.684.291a19.657,19.657,0,0,1,4.805,3.023l.26.217.247.232c.163.153.332.3.488.456.007.005.012.013.019.019a22.584,22.584,0,0,0-17.627-8.095,22.527,22.527,0,0,0-17.914,8.457c-.332.637-.629,1.271-.891,1.9a27.98,27.98,0,0,0-1.655,5.354c-.036.2-.075.4-.111.6s-.076.388-.1.579c-.051.382-.1.749-.149,1.1s-.062.695-.091,1.018c-.012.161-.028.318-.038.474s-.038.3-.044.45C-1188.083-1436.07-1188.13-1435.79-1188.13-1435.531Z" transform="translate(1188.13 1463.666)" opacity="0.4" fill="url(#linear-gradient-5)" style="mix-blend-mode: multiply;isolation: isolate"/>
    </g>
    <g id="Group_95083" data-name="Group 95083" transform="translate(-1576.38 -1505.763)">
      <path id="Path_137340" data-name="Path 137340" d="M-1090.453-956.149s-.593-2.222-.173-2.79,2.987-2.839,2.74-2.1a4.773,4.773,0,0,1-.617,1.234s1.382.642.494,1.6-1.186,1.185-1.235,2.049S-1089.861-954.989-1090.453-956.149Z" transform="translate(1151.884 976.034)" fill="url(#linear-gradient-6)"/>
      <path id="Path_137341" data-name="Path 137341" d="M-1261.494-260.027a19.808,19.808,0,0,0-.274,2.605c.04.684,7.629,1.033,7.705.521s-1.254-1.327-2.191-1.614-3.679-1.055-3.679-1.055Z" transform="translate(1298.263 375.814)" fill="url(#linear-gradient-7)"/>
      <path id="Path_137342" data-name="Path 137342" d="M-1260.66-273.8l-.242,2.389a1.725,1.725,0,0,1-1.658.133l-.389-2.6Z" transform="translate(1299.271 387.672)" fill="url(#linear-gradient-8)"/>
      <path id="Path_137343" data-name="Path 137343" d="M-1355.549-238.389a19.819,19.819,0,0,0-.274,2.605c.04.684,7.629,1.033,7.705.521s-1.255-1.327-2.191-1.615-3.679-1.055-3.679-1.055Z" transform="translate(1378.778 357.291)" fill="url(#linear-gradient-9)"/>
      <path id="Path_137344" data-name="Path 137344" d="M-1354.713-252.163l-.242,2.389a1.725,1.725,0,0,1-1.658.133l-.388-2.6Z" transform="translate(1379.784 369.149)" fill="url(#linear-gradient-10)"/>
      <path id="Path_137345" data-name="Path 137345" d="M-1316.082-712.671l2.632,5.335c.705,10.149,1.056,21.185.831,32.987-.168,8.781-.637,17.1-1.311,24.906l-3.568-.164a35.591,35.591,0,0,1-3.937-14.968c-.195-6.658,1.824-7.542,1.7-13.918-.166-8.263-3.631-10.468-5.477-20.407a53.222,53.222,0,0,1-.616-14.789Z" transform="translate(1353.316 764.167)" fill="url(#linear-gradient-11)"/>
      <path id="Path_137346" data-name="Path 137346" d="M-1325.833-713.688l5.266.549c3.16,5.5,4.042,11.222,3.488,13.753-.785,3.582-2.86,4.729-2.746,8.325.113,3.558,2.209,4.481,3.539,8.675.921,2.9.678,5.573.154,10.794-1.055,10.517-3.594,13.733-1.467,17.181a7.762,7.762,0,0,0,3.827,3.037c-.052.645-.1,1.292-.159,1.93l-3.568-.164a35.593,35.593,0,0,1-3.937-14.968c-.195-6.658,1.824-7.543,1.7-13.918-.166-8.263-3.631-10.467-5.477-20.407A53.223,53.223,0,0,1-1325.833-713.688Z" transform="translate(1353.316 764.167)" opacity="0.3" fill="url(#linear-gradient-12)" style="mix-blend-mode: multiply;isolation: isolate"/>
      <path id="Path_137347" data-name="Path 137347" d="M-1384.05-699.337c-1.647,8.979-3.1,18.589-4.236,28.78-1.37,12.306-2.1,23.906-2.389,34.677l-3.916.111c-5.144-10.176-5.458-17.076-4.717-21.567a64.924,64.924,0,0,0,1.239-10.2,71.717,71.717,0,0,0-.384-9.462c-.618-7.092-1.368-8.641-1.475-14.066-.1-5.091-.122-7.667,1.331-9.171C-1394.767-704.193-1384.806-699.688-1384.05-699.337Z" transform="translate(1416.565 754.035)" fill="url(#linear-gradient-13)"/>
      <path id="Path_137348" data-name="Path 137348" d="M-1246.276-964.088l2.6-.182c2.048,8.276.579,16.3-4.043,19.257-7.222,4.613-20.643-4.078-23.552-13.541-1.277-4.154-.986-10.148,1.566-11.313.708-.323,1.807-.373,4.188.963,7.111,3.992,7.3,11.538,10.913,12.177C-1252.993-956.442-1250.4-957.467-1246.276-964.088Z" transform="translate(1307.024 983.63)" fill="url(#linear-gradient-14)"/>
      <path id="Path_137349" data-name="Path 137349" d="M-1420.849-930.18c1.251-2.075-.32-4.077-.678-8.009-.405-4.456,1.311-5.2,3.009-12.583,1.129-4.912,2.213-9.627.919-15.146-.62-2.645-1.672-7.132-5.385-9.3-1.917-1.118-4.533-1.006-9.687-.737-6.374.333-9.561.5-11.937,1.751-.348.183-7.578,4.116-8.076,10.527-.507,6.525,6.6,7.4,7.547,16.1.426,3.906-.333,9.913-.824,13.81-.472,3.741-.8,4.7-.059,5.832,1.78,2.73,7.228,1.952,18.124.4C-1423.622-928.145-1421.782-928.631-1420.849-930.18Z" transform="translate(1461.713 988.832)" fill="url(#linear-gradient-15)"/>
      <path id="Path_137350" data-name="Path 137350" d="M-1437.427-902.535c-.461,1.7-2.118,2.962-3.271,7.087-.249.891-2.023,7.233.278,8.794,1.329.9,2.522-.807,5.747-1.03,5.589-.387,8.252,4.311,11.9,3.028a5,5,0,0,0,2.3-1.788,3.689,3.689,0,0,1-.383,2.7c-.934,1.549-2.773,2.035-7.047,2.646-10.9,1.556-16.344,2.334-18.124-.4-.738-1.133-.413-2.091.059-5.832.492-3.9,1.25-9.9.824-13.81-.947-8.7-8.053-9.578-7.547-16.1a10.118,10.118,0,0,1,1.635-4.649C-1442.034-918.239-1435.979-907.864-1437.427-902.535Z" transform="translate(1461.713 942.394)" opacity="0.3" fill="url(#linear-gradient-16)" style="mix-blend-mode: multiply;isolation: isolate"/>
      <path id="Path_137351" data-name="Path 137351" d="M-1425.645-700.267l1.8,1.152a4.223,4.223,0,0,1,2.244-1.386c1.319-.29,2.833.126,2.868.547.028.337-.894.677-1.036.73-1.151.425-2,.072-2.47.535a3.524,3.524,0,0,1-.841.75,2.6,2.6,0,0,1-.322.166c-.768.3-2.085-1.038-2.2-1.155Z" transform="translate(1438.546 752.961)" fill="url(#linear-gradient-17)"/>
      <path id="Path_137352" data-name="Path 137352" d="M-1497.031-951.888c1.3-3.125,2.208-7.909.148-15.013-13.578,5.35-20.5,18.033-17.8,28.088,2.229,8.289,10.338,12.326,12.147,13.175l1.263-2.874c-2.1-2.334-4.458-5.786-4.124-9.725C-1504.934-943.7-1499.672-945.562-1497.031-951.888Z" transform="translate(1515.26 980.928)" fill="url(#linear-gradient-18)"/>
      <path id="Path_137353" data-name="Path 137353" d="M-1350.729-1019.534a14.54,14.54,0,0,1-.845,4.154c-.666,1.608-4.171,2.618-4.881,2.977s1.331,1.408,3.381,1.614,7.9-.259,8.959-1.037-.848-.719-2.311-1.256-2.309-3.4-2.051-4.7S-1350.729-1019.534-1350.729-1019.534Z" transform="translate(1379.44 1025.984)" fill="url(#linear-gradient-19)"/>
      <path id="Path_137354" data-name="Path 137354" d="M-1327.34-1058.75c1.064-1.045,1.212-1.167,1.328-1.528a3.48,3.48,0,0,0-2.135-3.924c-.077-.025-1.066-.342-1.443.087-.321.364.151.868-.073,1.57-.21.657-.78.707-1.837,1.569-.87.71-1.411,1.152-1.536,1.773a3.028,3.028,0,0,0,2.665,3.085C-1329.878-1056.137-1329.744-1056.389-1327.34-1058.75Z" transform="translate(1359.292 1064.339)" fill="url(#linear-gradient-20)"/>
      <g id="Group_95082" data-name="Group 95082" transform="translate(27.836 4.664)">
        <path id="Path_137355" data-name="Path 137355" d="M-1320.679-1028.189a3.021,3.021,0,0,0,2.853.857c1.542-.379,1.149-3.918.02-4.484a2,2,0,0,0-1.575.075c-.3.146-.388.3-.89.528-.462.212-.609.182-.733.332-.156.186-.223.588.265,1.556a.863.863,0,0,0-.961-.136.543.543,0,0,0-.172.24C-1322.018-1028.782-1321.562-1028.337-1320.679-1028.189Z" transform="translate(1321.898 1031.943)" fill="url(#linear-gradient-21)"/>
      </g>
    </g>
    <g id="Group_95085" data-name="Group 95085" transform="translate(-1505.99 -1502.306)">
      <path id="Path_137356" data-name="Path 137356" d="M-990.28-1014.936a16.779,16.779,0,0,1-17.358,17.111,19.646,19.646,0,0,1-18.659-19.539,16.732,16.732,0,0,1,18.659-17.023A19.775,19.775,0,0,1-990.28-1014.936Z" transform="translate(1026.297 1035.326)" fill="url(#linear-gradient-22)"/>
      <path id="Path_137357" data-name="Path 137357" d="M-972-1020.772a16.779,16.779,0,0,1-17.358,17.111,19.646,19.646,0,0,1-18.659-19.539,16.732,16.732,0,0,1,18.659-17.023A19.774,19.774,0,0,1-972-1020.772Z" transform="translate(1010.648 1040.321)" fill="url(#linear-gradient-23)"/>
      <path id="Path_137358" data-name="Path 137358" d="M-967.529-1015.828a16.012,16.012,0,0,1-16.594,16.33,18.752,18.752,0,0,1-17.779-18.647,15.969,15.969,0,0,1,17.779-16.25A18.869,18.869,0,0,1-967.529-1015.828Z" transform="translate(1005.414 1035.326)" fill="url(#linear-gradient-24)"/>
      <path id="Path_137359" data-name="Path 137359" d="M-964.349-1012.3A15.464,15.464,0,0,1-980.4-996.526a18.114,18.114,0,0,1-17.152-18.01,15.425,15.425,0,0,1,17.152-15.7A18.223,18.223,0,0,1-964.349-1012.3Z" transform="translate(1001.686 1031.758)" fill="url(#linear-gradient-25)"/>
      <g id="Group_95084" data-name="Group 95084" transform="translate(12.967 4.586)">
        <path id="Path_137360" data-name="Path 137360" d="M-927.989-1008.461h0a.981.981,0,0,1,.866.962v1.659a24.382,24.382,0,0,1,2.874.5q1.061.249,2.108.594a.969.969,0,0,1,.661,1l-.2,2.08a.78.78,0,0,1-1.113.647,11.986,11.986,0,0,0-1.414-.527,12.821,12.821,0,0,0-2.668-.5l-.245-.02v4.75a12.477,12.477,0,0,1,5.514,2.82,5.961,5.961,0,0,1,1.766,4.4,5.8,5.8,0,0,1-1.953,4.576,8.912,8.912,0,0,1-5.526,1.946v1.831a.833.833,0,0,1-.866.846h-.015a.92.92,0,0,1-.87-.918v-1.806l-.386-.017a25.373,25.373,0,0,1-3.2-.341,20.836,20.836,0,0,1-2.212-.509.954.954,0,0,1-.694-.986l.24-2.673a.845.845,0,0,1,1.182-.7,17.367,17.367,0,0,0,1.946.639,17.053,17.053,0,0,0,3.111.52l.015-5.284a11.443,11.443,0,0,1-5.368-2.634,6.031,6.031,0,0,1-1.778-4.483,5.241,5.241,0,0,1,1.928-4.354,8.55,8.55,0,0,1,5.435-1.518v-1.7A.783.783,0,0,1-927.989-1008.461Zm-.869,6.34a2.926,2.926,0,0,0-1.731.61,1.78,1.78,0,0,0-.621,1.426,1.914,1.914,0,0,0,.575,1.417,4.069,4.069,0,0,0,1.778.907Zm1.536,9.567v4.845a2.68,2.68,0,0,0,1.853-.576,2.074,2.074,0,0,0,.645-1.631,2.228,2.228,0,0,0-.6-1.595A4.4,4.4,0,0,0-927.322-992.554Z" transform="translate(936.22 1008.465)" fill="url(#linear-gradient-26)"/>
      </g>
      <path id="Path_137361" data-name="Path 137361" d="M-983.3-1009.569c.542-5.355,5.463-7.621,4.821-12.547-.4-3.036-2.7-5.594-5.263-7.592a15.427,15.427,0,0,0-13.806,15.695A18.114,18.114,0,0,0-980.4-996a16.161,16.161,0,0,0,2.651-.13C-981.45-999.819-983.765-1004.968-983.3-1009.569Z" transform="translate(1001.686 1031.235)" opacity="0.3" fill="url(#linear-gradient-27)" style="mix-blend-mode: multiply;isolation: isolate"/>
    </g>
    <g id="Group_95087" data-name="Group 95087" transform="translate(-1549.112 -1551.593)">
      <path id="Path_137362" data-name="Path 137362" d="M-1275.046-1346.893c0,13.745-10.747,24.557-24.483,24.135-14.3-.439-26.318-12.785-26.318-27.559s12.023-25.5,26.318-24.011C-1285.794-1372.9-1275.046-1360.637-1275.046-1346.893Z" transform="translate(1325.848 1375.651)" fill="url(#linear-gradient-28)"/>
      <path id="Path_137363" data-name="Path 137363" d="M-1249.262-1355.125c0,13.744-10.747,24.556-24.483,24.135-14.3-.439-26.318-12.785-26.318-27.56s12.023-25.5,26.318-24.011C-1260.01-1381.13-1249.262-1368.869-1249.262-1355.125Z" transform="translate(1303.776 1382.698)" fill="url(#linear-gradient-29)"/>
      <path id="Path_137364" data-name="Path 137364" d="M-1242.956-1348.151c0,13.139-10.283,23.458-23.406,23.033-13.631-.441-25.076-12.224-25.076-26.3s11.445-24.317,25.076-22.92C-1253.239-1372.995-1242.956-1361.29-1242.956-1348.151Z" transform="translate(1296.392 1375.651)" fill="url(#linear-gradient-30)"/>
      <path id="Path_137365" data-name="Path 137365" d="M-1238.47-1343.171c0,12.705-9.95,22.672-22.633,22.246-13.158-.442-24.192-11.822-24.192-25.4s11.034-23.473,24.192-22.141C-1248.421-1367.184-1238.47-1355.876-1238.47-1343.171Z" transform="translate(1291.134 1370.62)" fill="url(#linear-gradient-31)"/>
      <g id="Group_95086" data-name="Group 95086" transform="translate(18.29 6.468)">
        <path id="Path_137366" data-name="Path 137366" d="M-1187.185-1337.76h0a1.383,1.383,0,0,1,1.221,1.357v2.339a34.428,34.428,0,0,1,4.054.7q1.5.352,2.973.837a1.368,1.368,0,0,1,.932,1.4l-.287,2.933a1.1,1.1,0,0,1-1.57.912,16.955,16.955,0,0,0-1.995-.743,18.082,18.082,0,0,0-3.763-.7l-.345-.029v6.7c3.521.985,6.106,2.31,7.777,3.977a8.408,8.408,0,0,1,2.492,6.208,8.173,8.173,0,0,1-2.755,6.454,12.571,12.571,0,0,1-7.794,2.744v2.582a1.175,1.175,0,0,1-1.222,1.193h-.021a1.3,1.3,0,0,1-1.227-1.295v-2.547l-.544-.024a35.785,35.785,0,0,1-4.515-.481,29.367,29.367,0,0,1-3.12-.718,1.344,1.344,0,0,1-.979-1.39l.338-3.771a1.192,1.192,0,0,1,1.667-.984,24.52,24.52,0,0,0,2.744.9,24.058,24.058,0,0,0,4.388.733l.022-7.452a16.141,16.141,0,0,1-7.572-3.716,8.506,8.506,0,0,1-2.508-6.322,7.391,7.391,0,0,1,2.719-6.141c1.8-1.431,4.362-2.142,7.666-2.141v-2.392A1.1,1.1,0,0,1-1187.185-1337.76Zm-1.225,8.943a4.128,4.128,0,0,0-2.442.861,2.51,2.51,0,0,0-.876,2.011,2.7,2.7,0,0,0,.811,2,5.741,5.741,0,0,0,2.508,1.279Zm2.166,13.495v6.834a3.782,3.782,0,0,0,2.614-.812,2.926,2.926,0,0,0,.91-2.3,3.142,3.142,0,0,0-.845-2.249A6.2,6.2,0,0,0-1186.245-1315.323Z" transform="translate(1198.795 1337.765)" fill="url(#linear-gradient-32)"/>
      </g>
      <path id="Path_137367" data-name="Path 137367" d="M-1265.2-1339.321c.765-7.553,7.706-10.75,6.8-17.7-.558-4.282-3.8-7.891-7.424-10.708-10.981,1.151-19.473,10.244-19.473,22.137,0,13.581,11.034,24.961,24.192,25.4a22.81,22.81,0,0,0,3.739-.182C-1262.591-1325.569-1265.856-1332.832-1265.2-1339.321Z" transform="translate(1291.134 1369.881)" opacity="0.3" fill="url(#linear-gradient-33)" style="mix-blend-mode: multiply;isolation: isolate"/>
    </g>
  </g>
</svg>
