<svg xmlns="http://www.w3.org/2000/svg" width="100" height="112.258" viewBox="0 0 100 112.258">
  <g id="t3-i6" transform="translate(-27.955)">
    <path id="Path_137281" data-name="Path 137281" d="M127.222,353.031h17.143l19.236,5.054a6.264,6.264,0,0,1,4.454,7.7l-.042.154a6.445,6.445,0,0,1-7.706,4.611c-5.439-1.288-12.571-2.97-12.571-2.97l18.363,4.329a20.015,20.015,0,0,0,11.654-.753l17.318-6.531a6.055,6.055,0,0,1,4.407,11.278l-20.591,8.33a20.013,20.013,0,0,1-12.229.9l-29-7.043H127.222V353.031Z" transform="translate(-77.503 -275.632)" fill="#ffd0c6"/>
    <path id="Path_137282" data-name="Path 137282" d="M37.955,324.183H57.526V361.7H37.955Z" transform="translate(-7.808 -253.108)" fill="#17c878"/>
    <path id="Path_137283" data-name="Path 137283" d="M165.648,10V98.836l-11.914,4.493a20.007,20.007,0,0,1-11.654.755l-5.54-1.3A6.447,6.447,0,0,0,144,98.114l.042-.156a6.263,6.263,0,0,0-4.453-7.7l-19.237-5.054H103.2V78.884H96.46V23.834L110.389,10Z" transform="translate(-53.486 -7.808)" fill="#d2f6e6"/>
    <path id="Path_137284" data-name="Path 137284" d="M110.389,10V23.834H96.46Z" transform="translate(-53.486 -7.808)" fill="#17c878"/>
    <path id="Path_137285" data-name="Path 137285" d="M127.477,91.9a8.246,8.246,0,0,0-10.683-4.962l-2.439.92V59.1a2.192,2.192,0,1,0-4.385,0V89.512l-10.5,3.958a17.749,17.749,0,0,1-8.782.972,8.689,8.689,0,0,0,1.813-3.167,8.561,8.561,0,0,0-5.851-10.943L67.418,75.279a2.191,2.191,0,0,0-.557-.072H51.911V71.075a2.193,2.193,0,0,0-2.192-2.192H45.167V18.219H56.9A2.193,2.193,0,0,0,59.1,16.026V4.385H109.97V39.509a2.192,2.192,0,0,0,4.385,0V2.192A2.193,2.193,0,0,0,112.162,0H56.9a2.216,2.216,0,0,0-1.545.637L41.429,14.47a2.217,2.217,0,0,0-.647,1.556V68.882H30.147a2.193,2.193,0,0,0-2.192,2.192V108.6a2.193,2.193,0,0,0,2.192,2.192H49.719a2.193,2.193,0,0,0,2.192-2.192v-3.952h7.981l28.745,6.981a22.087,22.087,0,0,0,13.568-.993L122.8,102.3a8.231,8.231,0,0,0,4.681-10.4ZM54.711,13.834H48.293L54.711,7.46ZM47.526,106.4H32.34V73.267H47.526Zm73.626-8.167-20.591,8.33a17.716,17.716,0,0,1-10.889.8l-29-7.043a2.189,2.189,0,0,0-.517-.062H51.911V79.591H66.577l18.964,4.983a4.047,4.047,0,0,1,1.74.955,4.247,4.247,0,0,1,.671,5.243,4.293,4.293,0,0,1-4.435,2.054L70.735,89.813a2.192,2.192,0,0,0-1.006,4.268l.011,0h.008c.406.1,7.274,1.715,12.549,2.964a65.272,65.272,0,0,0,8.874,1.86,23.037,23.037,0,0,0,10.288-1.5l16.881-6.366a3.9,3.9,0,0,1,5,2.324,3.854,3.854,0,0,1-2.192,4.87Z" transform="translate(0 0)"/>
    <path id="Path_137286" data-name="Path 137286" d="M172.342,100.3h-6.332a2.192,2.192,0,0,0,0,4.385h3.026V106a2.192,2.192,0,1,0,4.385,0v-1.408a6.306,6.306,0,0,0,5.218-6.2v-.264a6.3,6.3,0,0,0-6.3-6.3h-2.228a1.912,1.912,0,1,1,0-3.824h6.332a2.192,2.192,0,0,0,0-4.385H173.42V82.3a2.192,2.192,0,1,0-4.385,0V83.71a6.3,6.3,0,0,0,1.078,12.5h2.228a1.914,1.914,0,0,1,1.912,1.912v.264a1.914,1.914,0,0,1-1.912,1.912Z" transform="translate(-106.075 -62.547)"/>
    <path id="Path_137287" data-name="Path 137287" d="M280.541,79.835H265.412a2.192,2.192,0,0,0,0,4.385h15.129a2.192,2.192,0,1,0,0-4.385Z" transform="translate(-183.685 -62.332)"/>
    <path id="Path_137288" data-name="Path 137288" d="M280.541,132.632H265.412a2.192,2.192,0,0,0,0,4.385h15.129a2.192,2.192,0,1,0,0-4.385Z" transform="translate(-183.685 -103.553)"/>
    <path id="Path_137289" data-name="Path 137289" d="M280.541,185.429H265.412a2.192,2.192,0,0,0,0,4.385h15.129a2.192,2.192,0,1,0,0-4.385Z" transform="translate(-183.685 -144.775)"/>
    <path id="Path_137290" data-name="Path 137290" d="M202.931,238.226H166.009a2.192,2.192,0,1,0,0,4.385h36.922a2.192,2.192,0,0,0,0-4.385Z" transform="translate(-106.075 -185.997)"/>
    <path id="Path_137291" data-name="Path 137291" d="M202.931,291.022H166.009a2.192,2.192,0,0,0,0,4.385h36.922a2.192,2.192,0,0,0,0-4.385Z" transform="translate(-106.075 -227.218)"/>
    <path id="Path_137292" data-name="Path 137292" d="M406.087,215.769a2.192,2.192,0,1,0-.607,3.039,2.215,2.215,0,0,0,.607-3.039Z" transform="translate(-292.101 -167.707)"/>
  </g>
</svg>
