<svg xmlns="http://www.w3.org/2000/svg" width="56" height="32.467" viewBox="0 0 56 32.467">
  <g id="t4-ic3" transform="translate(0 -107.58)">
    <path id="Path_140483" data-name="Path 140483" d="M54.075,126.032H52.021c0-.021,0-.042,0-.063,0-7.021-3.737-15.183-8.554-15.183a4.672,4.672,0,0,0-2.3.632c-1.565-2.482-3.475-3.837-5.439-3.837s-3.874,1.355-5.439,3.837a4.483,4.483,0,0,0-4.59,0c-1.565-2.482-3.475-3.837-5.439-3.837s-3.874,1.355-5.439,3.837a4.674,4.674,0,0,0-2.3-.632c-1.847,0-3.628,1.174-5.15,3.394a.82.82,0,1,0,1.353.927c.838-1.223,2.178-2.681,3.8-2.681,1.637,0,3.363,1.562,4.736,4.286a21.552,21.552,0,0,1,2.177,9.257c0,.021,0,.042,0,.063H5.62c0-.021,0-.042,0-.063a21.686,21.686,0,0,1,1.455-7.624.82.82,0,1,0-1.53-.592,23.367,23.367,0,0,0-1.566,8.216c0,.021,0,.042,0,.063H1.925A1.927,1.927,0,0,0,0,127.957v1.326a1.927,1.927,0,0,0,1.925,1.925H4.074l.893,7.153a1.929,1.929,0,0,0,1.911,1.687H18.3a1.922,1.922,0,0,0,1.868-1.458l.1-.4.1.4a1.922,1.922,0,0,0,1.868,1.458H26.08a.82.82,0,0,0,0-1.641H22.234a.284.284,0,0,1-.276-.215l-.253-1.011a1.483,1.483,0,0,0-2.878,0l-.253,1.011a.284.284,0,0,1-.276.215H6.879a.285.285,0,0,1-.283-.249l-.868-6.95H50.273l-.868,6.95a.285.285,0,0,1-.283.249H37.7a.284.284,0,0,1-.276-.215l-.253-1.011a1.483,1.483,0,0,0-2.878,0l-.253,1.011a.284.284,0,0,1-.276.215H29.92a.82.82,0,0,0,0,1.641h3.847a1.922,1.922,0,0,0,1.868-1.458l.1-.4.1.4a1.922,1.922,0,0,0,1.868,1.458h11.42a1.929,1.929,0,0,0,1.911-1.687l.893-7.153h2.149A1.927,1.927,0,0,0,56,129.282v-1.326a1.927,1.927,0,0,0-1.925-1.925ZM35.734,109.221c1.405,0,2.852,1.121,4.115,3.172a16.476,16.476,0,0,0-4.115,7.615,16.476,16.476,0,0,0-4.115-7.615C32.882,110.342,34.329,109.221,35.734,109.221Zm-3,7.491a21.552,21.552,0,0,1,2.177,9.257c0,.021,0,.042,0,.063H21.088c0-.021,0-.042,0-.063a21.552,21.552,0,0,1,2.177-9.257c1.373-2.724,3.1-4.286,4.736-4.286S31.363,113.988,32.736,116.711Zm-16.585-4.318c1.263-2.051,2.71-3.172,4.115-3.172s2.852,1.121,4.115,3.172a16.476,16.476,0,0,0-4.115,7.615A16.476,16.476,0,0,0,16.151,112.393Zm38.208,16.889a.285.285,0,0,1-.284.284H1.925a.285.285,0,0,1-.284-.284v-1.326a.285.285,0,0,1,.284-.284H44.181a.82.82,0,0,0,0-1.641H36.556c0-.021,0-.042,0-.063a21.552,21.552,0,0,1,2.177-9.257c1.373-2.724,3.1-4.286,4.736-4.286s3.363,1.562,4.737,4.286a21.555,21.555,0,0,1,2.177,9.257c0,.021,0,.042,0,.063H48.02a.82.82,0,1,0,0,1.641h6.055a.285.285,0,0,1,.284.284Z" transform="translate(0)" fill="#fb9e36"/>
  </g>
</svg>
