<svg xmlns="http://www.w3.org/2000/svg" width="919" height="380" viewBox="0 0 919 380">
  <g id="t4-ix1" transform="translate(-1813.19 996.206)">
    <rect id="Rectángulo_32775" data-name="Rectángulo 32775" width="919" height="380" transform="translate(1813.19 -996.206)" fill="#fff"/>
    <g id="Group_96818" data-name="Group 96818">
      <text id="Mano_de_Obra_Directa_MOD_" data-name="Mano de Obra
Directa (MOD)" transform="translate(1964.913 -819.286)" fill="#12263f" font-size="20" font-family="Roboto-Bold, Roboto" font-weight="700"><tspan x="-62.793" y="0">Mano de Obra</tspan><tspan x="-63.755" y="24">Directa (MOD)</tspan></text>
      <g id="Group_96777" data-name="Group 96777">
        <path id="Path_140437" data-name="Path 140437" d="M1905.853-846.032h155.988v51.606a28.608,28.608,0,0,1-28.608,28.608H1877.245v-51.6a28.609,28.609,0,0,1,28.608-28.609" fill="#f1d54e"/>
        <g id="Group_96775" data-name="Group 96775">
          <g id="Group_96770" data-name="Group 96770">
            <path id="Path_140438" data-name="Path 140438" d="M2066.938-824.912a.637.637,0,0,1-.637-.637V-828.1a.637.637,0,0,1,.637-.637.637.637,0,0,1,.637.637v2.548A.637.637,0,0,1,2066.938-824.912Z" fill="#f1d54e"/>
          </g>
          <g id="Group_96771" data-name="Group 96771">
            <path id="Path_140439" data-name="Path 140439" d="M2066.938-831.557a.637.637,0,0,1-.637-.637v-4.1a.637.637,0,0,1,.637-.637.637.637,0,0,1,.637.637v4.1A.637.637,0,0,1,2066.938-831.557Zm0-8.193a.637.637,0,0,1-.637-.637v-4.1a.637.637,0,0,1,.637-.637.637.637,0,0,1,.637.637v4.1A.637.637,0,0,1,2066.938-839.75Z" fill="#f1d54e"/>
          </g>
          <g id="Group_96772" data-name="Group 96772">
            <path id="Path_140440" data-name="Path 140440" d="M2066.938-847.943a.637.637,0,0,1-.637-.637v-1.911h-1.911a.637.637,0,0,1-.637-.637.637.637,0,0,1,.637-.637h2.548a.637.637,0,0,1,.637.637v2.548A.637.637,0,0,1,2066.938-847.943Z" fill="#f1d54e"/>
          </g>
          <g id="Group_96773" data-name="Group 96773">
            <path id="Path_140441" data-name="Path 140441" d="M2059.639-850.491h-4.751a.637.637,0,0,1-.637-.637.637.637,0,0,1,.637-.637h4.751a.637.637,0,0,1,.637.637A.637.637,0,0,1,2059.639-850.491Zm-9.5,0h-4.751a.637.637,0,0,1-.637-.637.637.637,0,0,1,.637-.637h4.751a.637.637,0,0,1,.637.637A.637.637,0,0,1,2050.137-850.491Zm-9.5,0h-4.751a.637.637,0,0,1-.637-.637.637.637,0,0,1,.637-.637h4.751a.637.637,0,0,1,.637.637A.637.637,0,0,1,2040.636-850.491Zm-9.5,0h-4.751a.637.637,0,0,1-.637-.637.637.637,0,0,1,.637-.637h4.751a.637.637,0,0,1,.637.637A.637.637,0,0,1,2031.134-850.491Zm-9.5,0h-4.751a.637.637,0,0,1-.637-.637.637.637,0,0,1,.637-.637h4.751a.637.637,0,0,1,.637.637A.637.637,0,0,1,2021.633-850.491Zm-9.5,0h-4.751a.637.637,0,0,1-.637-.637.637.637,0,0,1,.637-.637h4.751a.637.637,0,0,1,.637.637A.637.637,0,0,1,2012.131-850.491Zm-9.5,0h-4.75a.637.637,0,0,1-.637-.637.637.637,0,0,1,.637-.637h4.75a.638.638,0,0,1,.638.637A.638.638,0,0,1,2002.629-850.491Z" fill="#f1d54e"/>
          </g>
          <g id="Group_96774" data-name="Group 96774">
            <path id="Path_140442" data-name="Path 140442" d="M1993.128-850.491h-2.548a.637.637,0,0,1-.637-.637.637.637,0,0,1,.637-.637h2.548a.637.637,0,0,1,.637.637A.637.637,0,0,1,1993.128-850.491Z" fill="#f1d54e"/>
          </g>
        </g>
        <g id="Group_96776" data-name="Group 96776">
          <path id="Path_140443" data-name="Path 140443" d="M2033.233-760.084H1872.148a.638.638,0,0,1-.637-.637v-56.7a34.381,34.381,0,0,1,34.342-34.342H1984.3a.637.637,0,0,1,.637.637.637.637,0,0,1-.637.637h-78.447a33.106,33.106,0,0,0-33.068,33.068v56.065h160.448a33.1,33.1,0,0,0,33.068-33.068v-26a.637.637,0,0,1,.637-.637.637.637,0,0,1,.637.637v26A34.381,34.381,0,0,1,2033.233-760.084Z" fill="#f1d54e"/>
        </g>
        <path id="Path_140444" data-name="Path 140444" d="M1905.853-842.1h152.059v47.677a24.707,24.707,0,0,1-24.679,24.679H1881.174v-47.676a24.707,24.707,0,0,1,24.679-24.68" fill="#fff"/>
      </g>
      <g id="Group_96785" data-name="Group 96785">
        <path id="Path_140445" data-name="Path 140445" d="M2248.184-960.172H2464.21v51.6a28.608,28.608,0,0,1-28.608,28.608H2219.576v-51.605a28.608,28.608,0,0,1,28.608-28.608" fill="#f1d54e"/>
        <g id="Group_96783" data-name="Group 96783">
          <g id="Group_96778" data-name="Group 96778">
            <path id="Path_140446" data-name="Path 140446" d="M2469.307-939.053a.637.637,0,0,1-.637-.637v-2.548a.637.637,0,0,1,.637-.637.638.638,0,0,1,.637.637v2.548A.638.638,0,0,1,2469.307-939.053Z" fill="#f1d54e"/>
          </g>
          <g id="Group_96779" data-name="Group 96779">
            <path id="Path_140447" data-name="Path 140447" d="M2469.307-945.7a.637.637,0,0,1-.637-.637v-4.1a.637.637,0,0,1,.637-.637.637.637,0,0,1,.637.637v4.1A.638.638,0,0,1,2469.307-945.7Zm0-8.193a.637.637,0,0,1-.637-.637v-4.1a.637.637,0,0,1,.637-.637.637.637,0,0,1,.637.637v4.1A.638.638,0,0,1,2469.307-953.89Z" fill="#f1d54e"/>
          </g>
          <g id="Group_96780" data-name="Group 96780">
            <path id="Path_140448" data-name="Path 140448" d="M2469.307-962.083a.637.637,0,0,1-.637-.637v-1.912h-1.912a.637.637,0,0,1-.637-.637.637.637,0,0,1,.637-.637h2.549a.638.638,0,0,1,.637.637v2.549A.638.638,0,0,1,2469.307-962.083Z" fill="#f1d54e"/>
          </g>
          <g id="Group_96781" data-name="Group 96781">
            <path id="Path_140449" data-name="Path 140449" d="M2462.007-964.632h-4.75a.637.637,0,0,1-.637-.637.637.637,0,0,1,.637-.637h4.75a.637.637,0,0,1,.637.637A.637.637,0,0,1,2462.007-964.632Zm-9.5,0h-4.751a.637.637,0,0,1-.637-.637.637.637,0,0,1,.637-.637h4.751a.637.637,0,0,1,.637.637A.637.637,0,0,1,2452.506-964.632Zm-9.5,0h-4.75a.638.638,0,0,1-.638-.637.638.638,0,0,1,.638-.637H2443a.637.637,0,0,1,.637.637A.637.637,0,0,1,2443-964.632Zm-9.5,0h-4.751a.637.637,0,0,1-.637-.637.637.637,0,0,1,.637-.637h4.751a.637.637,0,0,1,.637.637A.637.637,0,0,1,2433.5-964.632Zm-9.5,0h-4.75a.637.637,0,0,1-.638-.637.638.638,0,0,1,.638-.637H2424a.637.637,0,0,1,.637.637A.637.637,0,0,1,2424-964.632Zm-9.5,0h-4.751a.637.637,0,0,1-.637-.637.637.637,0,0,1,.637-.637h4.751a.637.637,0,0,1,.637.637A.637.637,0,0,1,2414.5-964.632Zm-9.5,0h-4.751a.637.637,0,0,1-.637-.637.637.637,0,0,1,.637-.637H2405a.637.637,0,0,1,.637.637A.637.637,0,0,1,2405-964.632Z" fill="#f1d54e"/>
          </g>
          <g id="Group_96782" data-name="Group 96782">
            <path id="Path_140450" data-name="Path 140450" d="M2395.5-964.632h-2.548a.637.637,0,0,1-.637-.637.637.637,0,0,1,.637-.637h2.548a.637.637,0,0,1,.637.637A.637.637,0,0,1,2395.5-964.632Z" fill="#f1d54e"/>
          </g>
        </g>
        <g id="Group_96784" data-name="Group 96784">
          <path id="Path_140451" data-name="Path 140451" d="M2435.6-874.225H2214.479a.637.637,0,0,1-.637-.637v-56.7a34.381,34.381,0,0,1,34.342-34.342h138.485a.637.637,0,0,1,.637.637.637.637,0,0,1-.637.637H2248.184a33.1,33.1,0,0,0-33.068,33.068V-875.5H2435.6a33.106,33.106,0,0,0,33.068-33.068v-26a.638.638,0,0,1,.637-.638.638.638,0,0,1,.637.638v26A34.381,34.381,0,0,1,2435.6-874.225Z" fill="#f1d54e"/>
        </g>
        <path id="Path_140452" data-name="Path 140452" d="M2248.184-956.244h212.1v47.677a24.708,24.708,0,0,1-24.679,24.68H2223.5v-47.677a24.708,24.708,0,0,1,24.679-24.68" fill="#fff"/>
      </g>
      <g id="Group_96793" data-name="Group 96793">
        <path id="Path_140453" data-name="Path 140453" d="M2248.184-846.032H2464.21v51.606a28.608,28.608,0,0,1-28.608,28.608H2219.576v-51.6a28.609,28.609,0,0,1,28.608-28.609" fill="#f1d54e"/>
        <g id="Group_96791" data-name="Group 96791">
          <g id="Group_96786" data-name="Group 96786">
            <path id="Path_140454" data-name="Path 140454" d="M2469.307-824.912a.637.637,0,0,1-.637-.637V-828.1a.637.637,0,0,1,.637-.637.638.638,0,0,1,.637.637v2.548A.638.638,0,0,1,2469.307-824.912Z" fill="#f1d54e"/>
          </g>
          <g id="Group_96787" data-name="Group 96787">
            <path id="Path_140455" data-name="Path 140455" d="M2469.307-831.557a.637.637,0,0,1-.637-.637v-4.1a.637.637,0,0,1,.637-.637.638.638,0,0,1,.637.637v4.1A.637.637,0,0,1,2469.307-831.557Zm0-8.193a.637.637,0,0,1-.637-.637v-4.1a.637.637,0,0,1,.637-.637.638.638,0,0,1,.637.637v4.1A.638.638,0,0,1,2469.307-839.75Z" fill="#f1d54e"/>
          </g>
          <g id="Group_96788" data-name="Group 96788">
            <path id="Path_140456" data-name="Path 140456" d="M2469.307-847.943a.637.637,0,0,1-.637-.637v-1.911h-1.912a.637.637,0,0,1-.637-.637.637.637,0,0,1,.637-.637h2.549a.638.638,0,0,1,.637.637v2.548A.638.638,0,0,1,2469.307-847.943Z" fill="#f1d54e"/>
          </g>
          <g id="Group_96789" data-name="Group 96789">
            <path id="Path_140457" data-name="Path 140457" d="M2462.007-850.491h-4.75a.637.637,0,0,1-.637-.637.637.637,0,0,1,.637-.637h4.75a.637.637,0,0,1,.637.637A.637.637,0,0,1,2462.007-850.491Zm-9.5,0h-4.751a.637.637,0,0,1-.637-.637.637.637,0,0,1,.637-.637h4.751a.637.637,0,0,1,.637.637A.637.637,0,0,1,2452.506-850.491Zm-9.5,0h-4.75a.638.638,0,0,1-.638-.637.638.638,0,0,1,.638-.637H2443a.637.637,0,0,1,.637.637A.637.637,0,0,1,2443-850.491Zm-9.5,0h-4.751a.637.637,0,0,1-.637-.637.637.637,0,0,1,.637-.637h4.751a.637.637,0,0,1,.637.637A.637.637,0,0,1,2433.5-850.491Zm-9.5,0h-4.75a.637.637,0,0,1-.638-.637.638.638,0,0,1,.638-.637H2424a.637.637,0,0,1,.637.637A.637.637,0,0,1,2424-850.491Zm-9.5,0h-4.751a.637.637,0,0,1-.637-.637.637.637,0,0,1,.637-.637h4.751a.637.637,0,0,1,.637.637A.637.637,0,0,1,2414.5-850.491Zm-9.5,0h-4.751a.637.637,0,0,1-.637-.637.637.637,0,0,1,.637-.637H2405a.637.637,0,0,1,.637.637A.637.637,0,0,1,2405-850.491Z" fill="#f1d54e"/>
          </g>
          <g id="Group_96790" data-name="Group 96790">
            <path id="Path_140458" data-name="Path 140458" d="M2395.5-850.491h-2.548a.637.637,0,0,1-.637-.637.637.637,0,0,1,.637-.637h2.548a.637.637,0,0,1,.637.637A.637.637,0,0,1,2395.5-850.491Z" fill="#f1d54e"/>
          </g>
        </g>
        <g id="Group_96792" data-name="Group 96792">
          <path id="Path_140459" data-name="Path 140459" d="M2435.6-760.084H2214.479a.637.637,0,0,1-.637-.637v-56.7a34.381,34.381,0,0,1,34.342-34.342h138.485a.637.637,0,0,1,.637.637.637.637,0,0,1-.637.637H2248.184a33.1,33.1,0,0,0-33.068,33.068v56.065H2435.6a33.106,33.106,0,0,0,33.068-33.068v-26a.637.637,0,0,1,.637-.637.638.638,0,0,1,.637.637v26A34.381,34.381,0,0,1,2435.6-760.084Z" fill="#f1d54e"/>
        </g>
        <path id="Path_140460" data-name="Path 140460" d="M2248.184-842.1h212.1v47.677a24.707,24.707,0,0,1-24.679,24.679H2223.5v-47.676a24.707,24.707,0,0,1,24.679-24.68" fill="#fff"/>
      </g>
      <g id="Group_96801" data-name="Group 96801">
        <path id="Path_140461" data-name="Path 140461" d="M2248.184-732.454H2464.21v51.606A28.608,28.608,0,0,1,2435.6-652.24H2219.576v-51.6a28.609,28.609,0,0,1,28.608-28.609" fill="#f1d54e"/>
        <g id="Group_96799" data-name="Group 96799">
          <g id="Group_96794" data-name="Group 96794">
            <path id="Path_140462" data-name="Path 140462" d="M2469.307-711.334a.637.637,0,0,1-.637-.637v-2.549a.637.637,0,0,1,.637-.637.638.638,0,0,1,.637.637v2.549A.638.638,0,0,1,2469.307-711.334Z" fill="#f1d54e"/>
          </g>
          <g id="Group_96795" data-name="Group 96795">
            <path id="Path_140463" data-name="Path 140463" d="M2469.307-717.979a.637.637,0,0,1-.637-.637v-4.1a.637.637,0,0,1,.637-.637.638.638,0,0,1,.637.637v4.1A.638.638,0,0,1,2469.307-717.979Zm0-8.193a.637.637,0,0,1-.637-.637v-4.1a.637.637,0,0,1,.637-.637.638.638,0,0,1,.637.637v4.1A.638.638,0,0,1,2469.307-726.172Z" fill="#f1d54e"/>
          </g>
          <g id="Group_96796" data-name="Group 96796">
            <path id="Path_140464" data-name="Path 140464" d="M2469.307-734.365a.637.637,0,0,1-.637-.637v-1.911h-1.912a.637.637,0,0,1-.637-.637.637.637,0,0,1,.637-.637h2.549a.638.638,0,0,1,.637.637V-735A.638.638,0,0,1,2469.307-734.365Z" fill="#f1d54e"/>
          </g>
          <g id="Group_96797" data-name="Group 96797">
            <path id="Path_140465" data-name="Path 140465" d="M2462.007-736.913h-4.75a.637.637,0,0,1-.637-.637.637.637,0,0,1,.637-.637h4.75a.637.637,0,0,1,.637.637A.637.637,0,0,1,2462.007-736.913Zm-9.5,0h-4.751a.637.637,0,0,1-.637-.637.637.637,0,0,1,.637-.637h4.751a.637.637,0,0,1,.637.637A.637.637,0,0,1,2452.506-736.913Zm-9.5,0h-4.75a.638.638,0,0,1-.638-.637.638.638,0,0,1,.638-.637H2443a.637.637,0,0,1,.637.637A.637.637,0,0,1,2443-736.913Zm-9.5,0h-4.751a.637.637,0,0,1-.637-.637.637.637,0,0,1,.637-.637h4.751a.637.637,0,0,1,.637.637A.637.637,0,0,1,2433.5-736.913Zm-9.5,0h-4.75a.638.638,0,0,1-.638-.637.638.638,0,0,1,.638-.637H2424a.637.637,0,0,1,.637.637A.637.637,0,0,1,2424-736.913Zm-9.5,0h-4.751a.637.637,0,0,1-.637-.637.637.637,0,0,1,.637-.637h4.751a.637.637,0,0,1,.637.637A.637.637,0,0,1,2414.5-736.913Zm-9.5,0h-4.751a.638.638,0,0,1-.637-.637.637.637,0,0,1,.637-.637H2405a.637.637,0,0,1,.637.637A.637.637,0,0,1,2405-736.913Z" fill="#f1d54e"/>
          </g>
          <g id="Group_96798" data-name="Group 96798">
            <path id="Path_140466" data-name="Path 140466" d="M2395.5-736.913h-2.548a.637.637,0,0,1-.637-.637.637.637,0,0,1,.637-.637h2.548a.637.637,0,0,1,.637.637A.637.637,0,0,1,2395.5-736.913Z" fill="#f1d54e"/>
          </g>
        </g>
        <g id="Group_96800" data-name="Group 96800">
          <path id="Path_140467" data-name="Path 140467" d="M2435.6-646.507H2214.479a.637.637,0,0,1-.637-.637v-56.7a34.381,34.381,0,0,1,34.342-34.342h138.485a.637.637,0,0,1,.637.637.637.637,0,0,1-.637.637H2248.184a33.1,33.1,0,0,0-33.068,33.068v56.064H2435.6a33.106,33.106,0,0,0,33.068-33.067v-26a.637.637,0,0,1,.637-.637.638.638,0,0,1,.637.637v26A34.38,34.38,0,0,1,2435.6-646.507Z" fill="#f1d54e"/>
        </g>
        <path id="Path_140468" data-name="Path 140468" d="M2248.184-728.525h212.1v47.677a24.707,24.707,0,0,1-24.679,24.679H2223.5v-47.677a24.707,24.707,0,0,1,24.679-24.679" fill="#fff"/>
      </g>
      <g id="Group_96805" data-name="Group 96805">
        <rect id="Rectangle_32871" data-name="Rectangle 32871" width="43.616" height="1.906" transform="translate(2578.658 -941.874) rotate(90)" fill="#f1d54e"/>
        <rect id="Rectangle_32872" data-name="Rectangle 32872" width="110.404" height="1.906" transform="translate(2578.655 -919.113) rotate(180)" fill="#f1d54e"/>
        <g id="Group_96802" data-name="Group 96802">
          <circle id="Ellipse_4395" data-name="Ellipse 4395" cx="4.588" cy="4.588" r="4.588" transform="translate(2464.719 -924.654)" fill="#f1d54e"/>
          <circle id="Ellipse_4396" data-name="Ellipse 4396" cx="3.715" cy="3.715" r="3.715" transform="translate(2465.591 -923.781)" fill="#fff"/>
          <circle id="Ellipse_4397" data-name="Ellipse 4397" cx="2.342" cy="2.342" r="2.342" transform="translate(2466.965 -922.408)" fill="#f1d54e"/>
        </g>
        <g id="Group_96803" data-name="Group 96803">
          <circle id="Ellipse_4398" data-name="Ellipse 4398" cx="4.588" cy="4.588" r="4.588" transform="translate(2573.117 -946.461)" fill="#f1d54e"/>
          <circle id="Ellipse_4399" data-name="Ellipse 4399" cx="3.715" cy="3.715" r="3.715" transform="translate(2573.99 -945.589)" fill="#fff"/>
          <circle id="Ellipse_4400" data-name="Ellipse 4400" cx="2.342" cy="2.342" r="2.342" transform="translate(2575.363 -944.215)" fill="#f1d54e"/>
        </g>
        <g id="Group_96804" data-name="Group 96804">
          <circle id="Ellipse_4401" data-name="Ellipse 4401" cx="4.588" cy="4.588" r="4.588" transform="translate(2573.117 -902.845)" fill="#f1d54e"/>
          <circle id="Ellipse_4402" data-name="Ellipse 4402" cx="3.715" cy="3.715" r="3.715" transform="translate(2573.99 -901.973)" fill="#fff"/>
          <circle id="Ellipse_4403" data-name="Ellipse 4403" cx="2.342" cy="2.342" r="2.342" transform="translate(2575.363 -900.599)" fill="#f1d54e"/>
        </g>
        <text id="Variables" transform="translate(2588.842 -936.613)" fill="#12263f" font-size="18" font-family="Roboto-Regular, Roboto"><tspan x="0" y="0">Variables</tspan></text>
        <text id="Fijos" transform="translate(2588.842 -892.997)" fill="#12263f" font-size="18" font-family="Roboto-Regular, Roboto"><tspan x="0" y="0">Fijos</tspan></text>
      </g>
      <g id="Group_96809" data-name="Group 96809">
        <rect id="Rectangle_32873" data-name="Rectangle 32873" width="43.616" height="1.906" transform="translate(2578.658 -827.734) rotate(90)" fill="#f1d54e"/>
        <rect id="Rectangle_32874" data-name="Rectangle 32874" width="110.404" height="1.906" transform="translate(2578.655 -804.972) rotate(180)" fill="#f1d54e"/>
        <g id="Group_96806" data-name="Group 96806">
          <circle id="Ellipse_4404" data-name="Ellipse 4404" cx="4.588" cy="4.588" r="4.588" transform="translate(2464.719 -810.513)" fill="#f1d54e"/>
          <circle id="Ellipse_4405" data-name="Ellipse 4405" cx="3.715" cy="3.715" r="3.715" transform="translate(2465.591 -809.641)" fill="#fff"/>
          <circle id="Ellipse_4406" data-name="Ellipse 4406" cx="2.342" cy="2.342" r="2.342" transform="translate(2466.965 -808.267)" fill="#f1d54e"/>
        </g>
        <g id="Group_96807" data-name="Group 96807">
          <circle id="Ellipse_4407" data-name="Ellipse 4407" cx="4.588" cy="4.588" r="4.588" transform="translate(2573.117 -832.32)" fill="#f1d54e"/>
          <circle id="Ellipse_4408" data-name="Ellipse 4408" cx="3.715" cy="3.715" r="3.715" transform="translate(2573.99 -831.448)" fill="#fff"/>
          <circle id="Ellipse_4409" data-name="Ellipse 4409" cx="2.342" cy="2.342" r="2.342" transform="translate(2575.363 -830.074)" fill="#f1d54e"/>
        </g>
        <g id="Group_96808" data-name="Group 96808">
          <circle id="Ellipse_4410" data-name="Ellipse 4410" cx="4.588" cy="4.588" r="4.588" transform="translate(2573.117 -788.704)" fill="#f1d54e"/>
          <circle id="Ellipse_4411" data-name="Ellipse 4411" cx="3.715" cy="3.715" r="3.715" transform="translate(2573.99 -787.832)" fill="#fff"/>
          <circle id="Ellipse_4412" data-name="Ellipse 4412" cx="2.342" cy="2.342" r="2.342" transform="translate(2575.363 -786.458)" fill="#f1d54e"/>
        </g>
        <text id="Directos" transform="translate(2588.842 -822.473)" fill="#12263f" font-size="18" font-family="Roboto-Regular, Roboto"><tspan x="0" y="0">Directos</tspan></text>
        <text id="Indirectos" transform="translate(2588.842 -778.856)" fill="#12263f" font-size="18" font-family="Roboto-Regular, Roboto"><tspan x="0" y="0">Indirectos</tspan></text>
      </g>
      <rect id="Rectangle_32875" data-name="Rectangle 32875" width="92.626" height="1.906" transform="translate(2141.296 -784.02) rotate(90)" fill="#f1d54e"/>
      <rect id="Rectangle_32876" data-name="Rectangle 32876" width="92.626" height="1.906" transform="translate(2141.302 -921.019) rotate(90)" fill="#f1d54e"/>
      <rect id="Rectangle_32877" data-name="Rectangle 32877" width="39.618" height="1.906" transform="translate(2106.028 -804.971) rotate(180)" fill="#f1d54e"/>
      <g id="Group_96810" data-name="Group 96810">
        <circle id="Ellipse_4413" data-name="Ellipse 4413" cx="4.588" cy="4.588" r="4.588" transform="translate(2062.452 -810.512)" fill="#f1d54e"/>
        <circle id="Ellipse_4414" data-name="Ellipse 4414" cx="3.715" cy="3.715" r="3.715" transform="translate(2063.324 -809.64)" fill="#fff"/>
        <circle id="Ellipse_4415" data-name="Ellipse 4415" cx="2.342" cy="2.342" r="2.342" transform="translate(2064.698 -808.266)" fill="#f1d54e"/>
      </g>
      <rect id="Rectangle_32878" data-name="Rectangle 32878" width="39.618" height="1.906" transform="translate(2175.223 -806.878)" fill="#f1d54e"/>
      <g id="Group_96811" data-name="Group 96811">
        <circle id="Ellipse_4416" data-name="Ellipse 4416" cx="4.588" cy="4.588" r="4.588" transform="translate(2209.624 -810.512)" fill="#f1d54e"/>
        <circle id="Ellipse_4417" data-name="Ellipse 4417" cx="3.715" cy="3.715" r="3.715" transform="translate(2210.497 -809.64)" fill="#fff"/>
        <circle id="Ellipse_4418" data-name="Ellipse 4418" cx="2.342" cy="2.342" r="2.342" transform="translate(2211.87 -808.266)" fill="#f1d54e"/>
      </g>
      <rect id="Rectangle_32879" data-name="Rectangle 32879" width="75.446" height="1.906" transform="translate(2139.396 -693.3)" fill="#f1d54e"/>
      <g id="Group_96812" data-name="Group 96812">
        <circle id="Ellipse_4419" data-name="Ellipse 4419" cx="4.588" cy="4.588" r="4.588" transform="translate(2209.624 -696.935)" fill="#f1d54e"/>
        <circle id="Ellipse_4420" data-name="Ellipse 4420" cx="3.715" cy="3.715" r="3.715" transform="translate(2210.497 -696.062)" fill="#fff"/>
        <circle id="Ellipse_4421" data-name="Ellipse 4421" cx="2.342" cy="2.342" r="2.342" transform="translate(2211.87 -694.689)" fill="#f1d54e"/>
      </g>
      <rect id="Rectangle_32880" data-name="Rectangle 32880" width="75.446" height="1.906" transform="translate(2139.396 -921.018)" fill="#f1d54e"/>
      <g id="Group_96813" data-name="Group 96813">
        <circle id="Ellipse_4422" data-name="Ellipse 4422" cx="4.588" cy="4.588" r="4.588" transform="translate(2209.624 -924.653)" fill="#f1d54e"/>
        <circle id="Ellipse_4423" data-name="Ellipse 4423" cx="3.715" cy="3.715" r="3.715" transform="translate(2210.497 -923.781)" fill="#fff"/>
        <circle id="Ellipse_4424" data-name="Ellipse 4424" cx="2.342" cy="2.342" r="2.342" transform="translate(2211.87 -922.407)" fill="#f1d54e"/>
      </g>
      <g id="Group_96817" data-name="Group 96817">
        <rect id="Rectangle_32881" data-name="Rectangle 32881" width="43.616" height="1.906" transform="translate(2578.658 -713.593) rotate(90)" fill="#f1d54e"/>
        <rect id="Rectangle_32882" data-name="Rectangle 32882" width="110.404" height="1.906" transform="translate(2578.655 -690.832) rotate(180)" fill="#f1d54e"/>
        <g id="Group_96814" data-name="Group 96814">
          <circle id="Ellipse_4425" data-name="Ellipse 4425" cx="4.588" cy="4.588" r="4.588" transform="translate(2464.719 -696.372)" fill="#f1d54e"/>
          <circle id="Ellipse_4426" data-name="Ellipse 4426" cx="3.715" cy="3.715" r="3.715" transform="translate(2465.591 -695.5)" fill="#fff"/>
          <circle id="Ellipse_4427" data-name="Ellipse 4427" cx="2.342" cy="2.342" r="2.342" transform="translate(2466.965 -694.126)" fill="#f1d54e"/>
        </g>
        <g id="Group_96815" data-name="Group 96815">
          <circle id="Ellipse_4428" data-name="Ellipse 4428" cx="4.588" cy="4.588" r="4.588" transform="translate(2573.117 -718.18)" fill="#f1d54e"/>
          <circle id="Ellipse_4429" data-name="Ellipse 4429" cx="3.715" cy="3.715" r="3.715" transform="translate(2573.99 -717.307)" fill="#fff"/>
          <circle id="Ellipse_4430" data-name="Ellipse 4430" cx="2.342" cy="2.342" r="2.342" transform="translate(2575.363 -715.934)" fill="#f1d54e"/>
        </g>
        <g id="Group_96816" data-name="Group 96816">
          <circle id="Ellipse_4431" data-name="Ellipse 4431" cx="4.588" cy="4.588" r="4.588" transform="translate(2573.117 -674.564)" fill="#f1d54e"/>
          <circle id="Ellipse_4432" data-name="Ellipse 4432" cx="3.715" cy="3.715" r="3.715" transform="translate(2573.99 -673.691)" fill="#fff"/>
          <circle id="Ellipse_4433" data-name="Ellipse 4433" cx="2.342" cy="2.342" r="2.342" transform="translate(2575.363 -672.318)" fill="#f1d54e"/>
        </g>
        <text id="Estimados" transform="translate(2588.842 -708.332)" fill="#12263f" font-size="18" font-family="Roboto-Regular, Roboto"><tspan x="0" y="0">Estimados</tspan></text>
        <text id="Estándar" transform="translate(2588.842 -664.716)" fill="#12263f" font-size="18" font-family="Roboto-Regular, Roboto"><tspan x="0" y="0">Estándar</tspan></text>
      </g>
      <text id="Clasificación_de_costos" data-name="Clasificación
de costos" transform="translate(1969.544 -812.08)" fill="#12263f" font-size="20" font-family="Roboto-Bold, Roboto" font-weight="700"><tspan x="-58.13" y="0">Clasificación</tspan><tspan x="-43.569" y="24">de costos</tspan></text>
      <text id="Variabilidad_respecto_a_producción" data-name="Variabilidad respecto
a producción" transform="translate(2341.893 -926.221)" fill="#12263f" font-size="20" font-family="Roboto-Bold, Roboto" font-weight="700"><tspan x="-95.278" y="0">Variabilidad respecto</tspan><tspan x="-58.174" y="24">a producción</tspan></text>
      <text id="Relación_con_el_producto" data-name="Relación con
el producto" transform="translate(2341.893 -812.08)" fill="#12263f" font-size="20" font-family="Roboto-Bold, Roboto" font-weight="700"><tspan x="-57.881" y="0">Relación con</tspan><tspan x="-50.635" y="24">el producto</tspan></text>
      <text id="Uso_en_planeación" data-name="Uso en planeación" transform="translate(2341.893 -686.502)" fill="#12263f" font-size="20" font-family="Roboto-Bold, Roboto" font-weight="700"><tspan x="-82.495" y="0">Uso en planeación</tspan></text>
      <text id="Según" transform="translate(2141.031 -800.957)" fill="#12263f" font-size="17" font-family="Roboto-Regular, Roboto"><tspan x="-23.69" y="0">Según</tspan></text>
    </g>
  </g>
</svg>
