<svg xmlns="http://www.w3.org/2000/svg" width="56" height="55.494" viewBox="0 0 56 55.494">
  <g id="t4-ic2" transform="translate(0 -2.315)">
    <path id="Path_140511" data-name="Path 140511" d="M56,55.076l-.5-7.868a8.906,8.906,0,0,0-5.925-7.845l-1.711-.6h0l-6.212-2.2h0l-3.609-1.276c-.035-.012-.071-.023-.107-.033l-.046-.011-.061-.013-.06-.01-.045-.006-.07-.006H37.62l-.062,0a1.455,1.455,0,0,0-.214.017l-.01,0a1.42,1.42,0,0,0-.378.114h0a1.441,1.441,0,0,0-.171.093l-.006,0-.052.036-.057.042-.037.03c-.03.025-.06.052-.088.08l-2.937-.9V32.479c.05-.033.1-.068.148-.1l.017-.011a11.885,11.885,0,0,0,4.61-6.575l.009-.035q.04-.163.073-.325l.013-.065q.07-.353.108-.7c0-.035.007-.071.01-.106q.011-.117.018-.234c0-.041.005-.082.007-.124,0-.02,0-.04,0-.059h.1A2.178,2.178,0,0,0,40.9,21.964v-2.7c0-.071,0-.141-.012-.211a1.689,1.689,0,0,0,.77-1.419V16.484a1.679,1.679,0,0,0-1.374-1.659v-.347q0-.145,0-.288a10.87,10.87,0,0,0-.348-2.471.8.8,0,0,0-1.542.4,9.271,9.271,0,0,1,.3,2.109q0,.123,0,.247V15.6a.8.8,0,0,0,.8.8H40c.03,0,.064.037.064.09v1.151c0,.053-.034.09-.064.09H16c-.03,0-.064-.037-.064-.09V16.484c0-.053.034-.09.064-.09h.512a.8.8,0,0,0,.8-.8v-1.12q0-.124,0-.248a9.157,9.157,0,0,1,7.47-8.761V8.521a2.734,2.734,0,0,0,2.731,2.731h.972a2.734,2.734,0,0,0,2.731-2.731V5.469A9.054,9.054,0,0,1,37.2,9.432a.8.8,0,0,0,1.334-.872,10.636,10.636,0,0,0-7.606-4.742,2.733,2.733,0,0,0-2.438-1.5h-.972a2.733,2.733,0,0,0-2.437,1.5,10.5,10.5,0,0,0-6.384,3.2,10.755,10.755,0,0,0-2.973,7.172c0,.1,0,.192,0,.288v.347a1.679,1.679,0,0,0-1.374,1.659v1.151a1.688,1.688,0,0,0,.768,1.418c-.007.07-.012.141-.012.212v2.7a2.178,2.178,0,0,0,2.175,2.175h.1c0,.047.005.095.008.142V24.3q.021.37.078.746c.005.036.012.071.018.107q.019.112.041.224.017.086.035.171c.009.043.02.086.03.129a11.848,11.848,0,0,0,4.807,6.83V34.72l-2.934.9c-.028-.028-.057-.054-.087-.079l-.037-.03-.056-.042-.052-.036,0,0a1.438,1.438,0,0,0-.173-.094h0a1.426,1.426,0,0,0-.379-.114h-.01a1.457,1.457,0,0,0-.214-.018l-.062,0h-.029l-.07.006-.045.006-.06.01-.06.013-.046.011c-.036.01-.072.02-.107.033l-2.226.787h0l-1.382.488h0l-6.212,2.2h0l-1.711.6A8.9,8.9,0,0,0,.506,47.208l-.06.943a.8.8,0,1,0,1.591.1l.06-.943a7.313,7.313,0,0,1,4.865-6.443l.649-.229V56.215H2.567a.974.974,0,0,1-.97-1.037l.237-3.721a.8.8,0,0,0-1.591-.1L.005,55.076a2.568,2.568,0,0,0,2.561,2.732H53.434A2.568,2.568,0,0,0,56,55.076ZM27.514,3.909h.972a1.138,1.138,0,0,1,1.1.843l0,.01a1.257,1.257,0,0,1,.028.144h0a1.05,1.05,0,0,1,.009.139V8.521a1.138,1.138,0,0,1-1.137,1.137h-.972a1.138,1.138,0,0,1-1.137-1.137V5.046a1.047,1.047,0,0,1,.009-.139h0a1.223,1.223,0,0,1,.028-.144s0-.007,0-.01A1.137,1.137,0,0,1,27.514,3.909ZM15.787,37.747l1.59,1.634.01.01a15.095,15.095,0,0,0,21.226,0l.01-.01,1.59-1.634.372.131V56.215H15.416V37.879Zm2.615-.924.727.728a12.567,12.567,0,0,0,17.742,0l.727-.728.96.339-1.073,1.1a13.5,13.5,0,0,1-18.97,0l-1.073-1.1ZM18.965,23.9V19.323h18.07v4.013s0,0,0,.006v.537c0,.017,0,.035,0,.052,0,.076,0,.153-.007.23,0,.037-.005.075-.008.113,0,.062-.01.124-.016.186,0,.036-.008.073-.012.109q-.013.111-.031.223c0,.022-.006.044-.01.066-.528,3.137-3.438,6.562-6.4,7.3l-.108.027a10.549,10.549,0,0,1-2.5.414h0a10.4,10.4,0,0,1-2.523-.425C22.164,31.35,18.965,27.253,18.965,23.9ZM39.3,21.964a.582.582,0,0,1-.581.581h-.094V19.318H39.3v2.646Zm-22.611,0V19.318h.677v3.227h-.1A.582.582,0,0,1,16.694,21.964ZM23,36.2a1.39,1.39,0,0,0,.985-1.334v-1.5a7.61,7.61,0,0,0,1.05.352,11.832,11.832,0,0,0,2.913.473h0a11.837,11.837,0,0,0,2.881-.461l.108-.027a7.46,7.46,0,0,0,1.076-.359v1.522A1.39,1.39,0,0,0,33,36.2l2.248.692-.026.023q-.164.144-.332.281l-.051.041c-.115.092-.232.182-.35.27l-.039.028c-.124.091-.249.179-.377.264l-.008.005q-.192.128-.389.247l-.03.018c-.127.077-.256.15-.386.221l-.052.029q-.19.1-.384.2l-.062.03q-.193.093-.389.178l-.063.027q-.2.085-.4.162l-.053.02q-.209.078-.422.148l-.028.009q-.217.07-.437.132l-.019.006c-.145.04-.292.077-.439.111l-.052.012q-.213.048-.428.088l-.067.012q-.212.038-.427.068l-.072.01q-.215.028-.433.049l-.066.006c-.149.013-.3.023-.447.03l-.045,0c-.158.007-.316.011-.474.011s-.317,0-.474-.011l-.045,0c-.15-.007-.3-.017-.447-.03l-.066-.006q-.218-.02-.433-.049l-.072-.01q-.215-.03-.427-.068l-.067-.012c-.144-.027-.287-.056-.429-.088l-.052-.012c-.147-.034-.294-.071-.439-.111l-.019-.005q-.221-.061-.438-.132l-.027-.008c-.142-.046-.282-.1-.422-.149l-.053-.019q-.2-.077-.4-.162l-.063-.027q-.2-.085-.389-.178l-.062-.03q-.193-.095-.383-.2l-.053-.029q-.194-.106-.385-.22l-.031-.019q-.2-.119-.387-.246l-.009-.006c-.127-.085-.251-.173-.375-.263l-.041-.029q-.176-.13-.348-.268l-.054-.043q-.168-.136-.33-.279l-.028-.024ZM9.2,56.215V40.074l4.618-1.632V56.215H9.2Zm32.974,0V38.442L46.8,40.074V56.215Zm11.963-.307a.962.962,0,0,1-.708.307H48.39V40.637l.649.229A7.313,7.313,0,0,1,53.9,47.309l.5,7.868A.967.967,0,0,1,54.142,55.908Z" fill="#fb9e36"/>
  </g>
</svg>
