<svg xmlns="http://www.w3.org/2000/svg" width="295" height="250" viewBox="0 0 295 250">
  <g id="t4-i9" transform="translate(-285 -3935)">
    <path id="Rectangle_31557" data-name="Rectangle 31557" d="M75,0h57a0,0,0,0,1,0,0V175a75,75,0,0,1-75,75H0a0,0,0,0,1,0,0V75A75,75,0,0,1,75,0Z" transform="translate(448 3935)" fill="#f1d54e" opacity="0.15"/>
    <path id="Rectangle_31556" data-name="Rectangle 31556" d="M0,0H57a75,75,0,0,1,75,75V190a0,0,0,0,1,0,0H75A75,75,0,0,1,0,115V0A0,0,0,0,1,0,0Z" transform="translate(285 3995)" fill="#17c878" opacity="0.15"/>
    <g id="plan" transform="translate(354 3944.296)">
      <g id="Group_95838" data-name="Group 95838" transform="translate(2.274 55.979)">
        <path id="Path_139007" data-name="Path 139007" d="M7.511,156.773H152.978a6.181,6.181,0,0,1,4.995,4.994v79.027a6.191,6.191,0,0,1-4.995,4.994H21.971A14.463,14.463,0,0,1,7.511,231.32V156.773Z" transform="translate(-7.511 -127.845)" fill="#e6fff4" fill-rule="evenodd"/>
        <path id="Path_139008" data-name="Path 139008" d="M21.971,61.218a14.456,14.456,0,0,0-14.46,14.46v89.015a14.456,14.456,0,0,1,14.46-14.46,13.51,13.51,0,0,1,7.174,1.9,1,1,0,0,0,1.545-.944V65.981a3.518,3.518,0,0,0-1.759-2.986,14.308,14.308,0,0,0-6.96-1.776Z" transform="translate(-7.511 -61.218)" fill="#e6fff4" fill-rule="evenodd"/>
        <path id="Path_139009" data-name="Path 139009" d="M126.214,195.041h21.608a2.216,2.216,0,0,1,2.205,2.205v21.6a2.21,2.21,0,0,1-2.205,2.205H126.214a2.2,2.2,0,0,1-2.2-2.205v-21.6A2.208,2.208,0,0,1,126.214,195.041Z" transform="translate(-88.747 -154.528)" fill="#f1d54e" fill-rule="evenodd"/>
        <path id="Path_139010" data-name="Path 139010" d="M419.774,108.916l-10.135-3.081-9.268,3.081V181.24l9.757,2.54,9.646-2.54Z" transform="translate(-281.439 -92.328)" fill="#fb9e36" fill-rule="evenodd"/>
        <path id="Path_139011" data-name="Path 139011" d="M411.3,371.606l3.63-7.14,4.849-9.551h-19.4l4.849,9.551,3.63,7.14a1.332,1.332,0,0,0,2.445,0Z" transform="translate(-281.439 -266.003)" fill="#17c878" fill-rule="evenodd"/>
        <path id="Path_139012" data-name="Path 139012" d="M419.774,77.806V67.148a5.948,5.948,0,0,0-5.93-5.93h-7.534a5.949,5.949,0,0,0-5.938,5.93V77.806Z" transform="translate(-281.439 -61.218)" fill="#fb9e36" fill-rule="evenodd"/>
        <path id="Path_139013" data-name="Path 139013" d="M119.428,385.125h14.795l2.429-8.032-2.429-6.248H119.428a4.6,4.6,0,0,0-3.716,3.725v6.839A4.6,4.6,0,0,0,119.428,385.125Z" transform="translate(-82.956 -277.111)" fill="#fb9e36" fill-rule="evenodd"/>
        <path id="Path_139014" data-name="Path 139014" d="M176.856,350.1h18.519l2.532-9.131-2.532-14.048v-2.583a4.6,4.6,0,0,0-3.724-3.725h-11.07a4.6,4.6,0,0,0-3.724,3.725V350.1Z" transform="translate(-125.589 -242.087)" fill="#f1d54e" fill-rule="evenodd"/>
        <path id="Path_139015" data-name="Path 139015" d="M238.028,364.629h18.51l1.871-6.153-1.871-8.127v-5.183a4.6,4.6,0,0,0-3.724-3.716H238.028Z" transform="translate(-168.242 -256.615)" fill="#fb9e36" fill-rule="evenodd"/>
        <path id="Path_139016" data-name="Path 139016" d="M299.172,385.125h14.8a4.6,4.6,0,0,0,3.716-3.715v-6.839a4.6,4.6,0,0,0-3.716-3.725h-14.8Z" transform="translate(-210.876 -277.111)" fill="#f1d54e" fill-rule="evenodd"/>
        <path id="Path_139017" data-name="Path 139017" d="M148.5,238.443H17.492a14.4,14.4,0,0,1-5.87-1.244,14.453,14.453,0,0,0,13.216,8.59H155.844a6.191,6.191,0,0,0,4.995-4.994V161.767a6.181,6.181,0,0,0-4.995-4.994h-2.351v76.675a6.191,6.191,0,0,1-4.994,4.995Z" transform="translate(-10.377 -127.845)" fill="#d2f6e6" fill-rule="evenodd"/>
        <path id="Path_139018" data-name="Path 139018" d="M48.209,90.146v60.139a13.087,13.087,0,0,1,5.8,1.845,1,1,0,0,0,1.545-.944V65.98A3.518,3.518,0,0,0,53.8,62.994a14.311,14.311,0,0,0-6.96-1.776,14.733,14.733,0,0,0-3.664.463,14.719,14.719,0,0,1,3.278,1.313A3.518,3.518,0,0,1,48.21,65.98V90.146Z" transform="translate(-32.376 -61.218)" fill="#d2f6e6" fill-rule="evenodd"/>
        <path id="Path_139019" data-name="Path 139019" d="M440.2,116.011v72.325h7.346V116.011Z" transform="translate(-309.209 -99.423)" fill="#f1d54e" fill-rule="evenodd"/>
        <path id="Path_139020" data-name="Path 139020" d="M426.52,67.148V77.806h7.346V67.148a5.948,5.948,0,0,0-5.93-5.93h-7.355A5.95,5.95,0,0,1,426.52,67.148Z" transform="translate(-295.53 -61.218)" fill="#f1d54e" fill-rule="evenodd"/>
      </g>
      <path id="Path_139021" data-name="Path 139021" d="M138.343,70.3V61.908a3.692,3.692,0,0,0-3.664-3.664h-7.535a3.677,3.677,0,0,0-3.665,3.664V70.3h14.863Zm-94.912,40.8a2.27,2.27,0,0,1,3.21-3.21l2.068,2.068,5.741-5.75a2.273,2.273,0,1,1,3.21,3.218l-7.346,7.346a2.274,2.274,0,0,1-3.21,0Zm85.207-26.2a2.27,2.27,0,1,1,4.54,0v47.653a2.27,2.27,0,1,1-4.54,0ZM92.844,161.728h13.971v-9.74H92.844Zm16.236,4.539H35.03a2.278,2.278,0,0,1-2.274-2.274V149.714a2.27,2.27,0,0,1,2.274-2.265H51.275V134.507a2.263,2.263,0,0,1,2.265-2.265H72.059a2.263,2.263,0,0,1,2.266,2.265v4.033H90.569a2.278,2.278,0,0,1,2.274,2.274v6.633H109.08a2.271,2.271,0,0,1,2.274,2.265v14.279a2.278,2.278,0,0,1-2.274,2.274Zm-34.755-4.539H88.3V143.089H74.325Zm-18.51,0H69.785V136.782H55.815Zm-18.519,0h13.98v-9.74H37.3Zm-9.577-79.1h91.214V61.908a8.233,8.233,0,0,1,8.213-8.2h7.535a8.233,8.233,0,0,1,8.2,8.2V82.633h9.852A2.27,2.27,0,0,1,155,84.907v89.015a2.263,2.263,0,0,1-2.265,2.266H89.875a2.27,2.27,0,0,1,0-4.54H150.46V87.172h-7.577v16.416a2.27,2.27,0,1,1-4.54,0V74.841H123.48v67.785h14.863V113.878a2.27,2.27,0,1,1,4.54,0v31.013a2.409,2.409,0,0,1-.386,1.287l-9.56,18.828a2.308,2.308,0,0,1-1.013,1.013,2.26,2.26,0,0,1-3.038-1l-9.594-18.879a2.415,2.415,0,0,1-.36-1.244V87.172H27.718v17.18a2.27,2.27,0,1,1-4.54,0V60.081a12.042,12.042,0,0,0-6.445-1.836A12.189,12.189,0,0,0,4.539,70.439V148c.12-.129.24-.258.36-.378a16.688,16.688,0,0,1,11.834-4.9,16.945,16.945,0,0,1,5.321.867c.378.129.755.275,1.124.429V114.642a2.27,2.27,0,1,1,4.54,0v33.27a2.271,2.271,0,0,1-3.639,1.8,11.889,11.889,0,0,0-3.467-1.828,12.2,12.2,0,1,0-3.879,23.762h62.86a2.27,2.27,0,0,1,0,4.54H16.734A16.729,16.729,0,0,1,0,159.454V70.438A16.734,16.734,0,0,1,26.705,57a2.287,2.287,0,0,1,1.013,1.9V82.633Zm109.2,64.532H124.9L130.912,159ZM106.574,96.389a2.27,2.27,0,0,1,0,4.54H75.844a2.27,2.27,0,0,1,0-4.54ZM93.8,118.065a2.27,2.27,0,1,1,0,4.54H75.844a2.27,2.27,0,0,1,0-4.54Zm12.778-10.839a2.27,2.27,0,0,1,0,4.54H75.844a2.27,2.27,0,0,1,0-4.54ZM37.544,94.218H63.555a2.27,2.27,0,0,1,2.265,2.274V122.5a2.271,2.271,0,0,1-2.265,2.274H37.544A2.272,2.272,0,0,1,35.27,122.5V96.492a2.272,2.272,0,0,1,2.274-2.274Zm23.737,4.548H39.81v21.471H61.281Z" transform="translate(0)"/>
    </g>
  </g>
</svg>
