<svg xmlns="http://www.w3.org/2000/svg" width="181" height="182" viewBox="0 0 181 182">
  <g id="t5-ic3" transform="translate(-1123 -867)">
    <ellipse id="Ellipse_4435" data-name="Ellipse 4435" cx="90.5" cy="91" rx="90.5" ry="91" transform="translate(1123 867)" fill="#fff"/>
    <g id="presupuesto_2_" data-name="presupuesto (2)" transform="translate(1158 902)">
      <g id="Group_96481" data-name="Group 96481" transform="translate(2.774 2.774)">
        <g id="Group_96467" data-name="Group 96467" transform="translate(17.742 0)">
          <path id="Path_140177" data-name="Path 140177" d="M90.065,5.548V32.161l-.071.071L77.645,44.581H68.774a8.888,8.888,0,0,0-7.1,3.548H36.839V90.71H75.871v7.1H29.742V44.581A17.748,17.748,0,0,0,12,26.839V21.215a3.491,3.491,0,0,1,.319-1.473H26.194a3.559,3.559,0,0,0,3.548-3.548V2.319A3.491,3.491,0,0,1,31.215,2h55.3a3.559,3.559,0,0,1,3.548,3.548Z" transform="translate(-12 -2)" fill="#d2f6e6"/>
        </g>
        <g id="Group_96468" data-name="Group 96468" transform="translate(42.581 46.129)">
          <path id="Path_140178" data-name="Path 140178" d="M60.153,57.806a9.669,9.669,0,0,1-2.147-2.36,10,10,0,0,1-1.419-3.016h-.018l-7.5,7.5-1.774.71-6.565,2.626A2.983,2.983,0,0,1,36.7,59.935a3.034,3.034,0,0,1,.16-.532l3.335-8.339,1.774-1.774L52.613,38.645A3.559,3.559,0,0,1,49.065,35.1V33.323A8.767,8.767,0,0,1,50.839,28H26V70.581H65.032V61.71Z" transform="translate(-26 -28)" fill="#f6f6f6"/>
        </g>
        <g id="Group_96469" data-name="Group 96469" transform="translate(42.581 7.097)">
          <path id="Path_140179" data-name="Path 140179" d="M26,6H72.129v7.1H26Z" transform="translate(-26 -6)" fill="#fb9e36"/>
        </g>
        <g id="Group_96470" data-name="Group 96470" transform="translate(18.061 0.319)">
          <path id="Path_140180" data-name="Path 140180" d="M29.6,2.18V16.054A3.559,3.559,0,0,1,26.054,19.6H12.18a3.578,3.578,0,0,1,.727-1.047L28.556,2.907A3.578,3.578,0,0,1,29.6,2.18Z" transform="translate(-12.18 -2.18)" fill="#17c878"/>
        </g>
        <g id="Group_96471" data-name="Group 96471" transform="translate(56.774 53.226)">
          <path id="Path_140181" data-name="Path 140181" d="M49.968,32V46.406a10.074,10.074,0,0,0,.426,2.927h-.018l-7.5,7.5L34,47.968l1.774-1.774L46.419,35.548A3.574,3.574,0,0,0,49.968,32Z" transform="translate(-34 -32)" fill="#fb9e36"/>
        </g>
        <g id="Group_96472" data-name="Group 96472" transform="translate(76.06 28.387)">
          <path id="Path_140182" data-name="Path 140182" d="M64.617,19.774a6.273,6.273,0,0,1,8.8,8.942L63.055,39.077,48.649,53.484V44.613a5.31,5.31,0,0,0-1.561-3.761,5.426,5.426,0,0,0-2.218-1.331L52.2,32.194,64.546,19.845Z" transform="translate(-44.87 -18)" fill="#fb9e36"/>
        </g>
        <g id="Group_96473" data-name="Group 96473" transform="translate(53.226 69.194)">
          <path id="Path_140183" data-name="Path 140183" d="M44.419,49.871l-1.774.71-6.565,2.626a2.983,2.983,0,0,1-4.027-3.335,3.034,3.034,0,0,1,.16-.532L35.548,41Z" transform="translate(-32 -41)" fill="#aab2bd"/>
        </g>
        <g id="Group_96474" data-name="Group 96474" transform="translate(81.613 74.516)">
          <path id="Path_140184" data-name="Path 140184" d="M67.516,44l3.548,21.29H48V49.323Z" transform="translate(-48 -44)" fill="#17c878"/>
        </g>
        <g id="Group_96475" data-name="Group 96475" transform="translate(65.645 42.581)">
          <path id="Path_140185" data-name="Path 140185" d="M45.05,39.147a3.469,3.469,0,0,1-2.5,1.047A3.559,3.559,0,0,1,39,36.645V34.871a8.767,8.767,0,0,1,1.774-5.323A8.888,8.888,0,0,1,47.871,26h8.871l-7.327,7.327a5.5,5.5,0,0,0-1.544-.231A1.779,1.779,0,0,0,46.1,34.871v1.774A3.469,3.469,0,0,1,45.05,39.147Z" transform="translate(-39 -26)" fill="#f0d0b4"/>
        </g>
        <g id="Group_96476" data-name="Group 96476" transform="translate(72.742 49.465)">
          <path id="Path_140186" data-name="Path 140186" d="M65.444,31.6a48.778,48.778,0,0,1,5.944,23.331L51.871,60.254l-4.879-3.9a9.669,9.669,0,0,1-2.147-2.36A10.689,10.689,0,0,1,43,48.048V31.867a1.779,1.779,0,0,1,1.774-1.774,5.5,5.5,0,0,1,1.544.231,5.426,5.426,0,0,1,2.218,1.331A5.31,5.31,0,0,1,50.1,35.415v8.871L64.5,29.88Z" transform="translate(-43 -29.88)" fill="#f0d0b4"/>
        </g>
        <g id="Group_96477" data-name="Group 96477" transform="translate(0 42.581)">
          <path id="Path_140187" data-name="Path 140187" d="M37.484,26V82.774a7.1,7.1,0,0,1-7.1,7.1H9.1a7.1,7.1,0,0,1-7.1-7.1V26A17.725,17.725,0,0,0,9.1,40.194V52.613a1.779,1.779,0,0,0,1.774,1.774H28.613a1.779,1.779,0,0,0,1.774-1.774V40.194A17.725,17.725,0,0,0,37.484,26Z" transform="translate(-2 -26)" fill="#969faa"/>
        </g>
        <g id="Group_96478" data-name="Group 96478" transform="translate(7.141 78.075)">
          <path id="Path_140188" data-name="Path 140188" d="M25.635,67.225H7.8a1.775,1.775,0,0,1-1.774-1.774V47.78A1.775,1.775,0,0,1,7.8,46.006H25.633a1.775,1.775,0,0,1,1.774,1.774V65.451A1.771,1.771,0,0,1,25.635,67.225Z" transform="translate(-6.025 -46.006)" fill="#fb9e36"/>
        </g>
        <g id="Group_96479" data-name="Group 96479" transform="translate(7.097 56.774)">
          <path id="Path_140189" data-name="Path 140189" d="M27.29,34V46.419a1.779,1.779,0,0,1-1.774,1.774H7.774A1.779,1.779,0,0,1,6,46.419V34a17.742,17.742,0,0,0,21.29,0Z" transform="translate(-6 -34)" fill="#d2f6e6"/>
        </g>
        <g id="Group_96480" data-name="Group 96480" transform="translate(0 24.839)">
          <path id="Path_140190" data-name="Path 140190" d="M37.484,33.742A17.742,17.742,0,1,1,19.742,16,17.725,17.725,0,0,1,37.484,33.742Z" transform="translate(-2 -16)" fill="#f1d54e"/>
        </g>
      </g>
      <g id="Group_96482" data-name="Group 96482" transform="translate(1 1)">
        <path id="Path_140191" data-name="Path 140191" d="M99.514,53.119l-.305-.561,9.435-9.435a8.013,8.013,0,0,0-8.289-13.275V6.323A5.329,5.329,0,0,0,95.032,1h-55.3a5.29,5.29,0,0,0-3.765,1.56L20.3,18.222a5.284,5.284,0,0,0-1.56,3.765v3.942A19.535,19.535,0,0,0,1,45.355v56.774A8.881,8.881,0,0,0,9.871,111h21.29a8.881,8.881,0,0,0,8.871-8.871v-1.774h69.515l-3.875-23.249A50.636,50.636,0,0,0,99.514,53.119Zm2.573,22.829-17.3,4.718-4.171-3.337A8.835,8.835,0,0,1,77.29,70.4V54.226a3.552,3.552,0,0,1,3.548,3.548V70.194h3.548V67.38l12.2-12.2A47.042,47.042,0,0,1,102.086,75.947Zm-24.8-25.27a3.552,3.552,0,0,0-3.548,3.548V56a1.774,1.774,0,0,1-3.548,0V54.226a7.1,7.1,0,0,1,7.1-7.1h4.588l-3.644,3.644a6.915,6.915,0,0,0-.944-.1ZM57.861,80.966,60.2,75.126l5.065,5.065-5.842,2.337a1.229,1.229,0,0,1-1.645-1.116A1.158,1.158,0,0,1,57.861,80.966ZM68.419,78.33l-6.362-6.362L72.786,61.239a5.177,5.177,0,0,0,.956-.245v9.4a12.48,12.48,0,0,0,.241,2.367ZM66.972,57.774H47.129v-7.1H67.266a10.6,10.6,0,0,0-.621,3.548V56A5.263,5.263,0,0,0,66.972,57.774ZM47.129,61.323H67.685l-7.1,7.1H47.129Zm0,10.645H57.638l-2.839,7.1h-7.67Zm0,10.645H54.4a4.733,4.733,0,0,0,6.341,3.21l4.13-1.654V89.71H47.129Zm21.29.137,1-.4,5.908-5.908c.064.115.122.232.192.346V89.71h-7.1Zm10.645-2.124,3.548,2.839V89.71H79.065Zm28.387-43.191a4.471,4.471,0,0,1-1.318,3.181L84.387,62.362V57.774a7.054,7.054,0,0,0-2.651-5.486L99.771,34.254a4.5,4.5,0,0,1,7.68,3.181ZM36.484,7.057v9.911a1.777,1.777,0,0,1-1.774,1.774H24.8ZM20.516,29.387A15.968,15.968,0,1,1,4.548,45.355,15.987,15.987,0,0,1,20.516,29.387Zm-8.871,33.33a19.345,19.345,0,0,0,17.742,0v9.251H11.645Zm19.516,44.735H9.871a5.329,5.329,0,0,1-5.323-5.323V56.541A19.7,19.7,0,0,0,8.1,60.4v11.57a3.552,3.552,0,0,0,3.548,3.548H29.387a3.552,3.552,0,0,0,3.548-3.548V60.4a19.7,19.7,0,0,0,3.548-3.857v45.588A5.329,5.329,0,0,1,31.161,107.452Zm8.871-10.645V45.355A19.535,19.535,0,0,0,22.29,25.929V22.29H34.71a5.329,5.329,0,0,0,5.323-5.323V4.548h55a1.777,1.777,0,0,1,1.774,1.774V32.2l-11.38,11.38H77.29a10.615,10.615,0,0,0-7.913,3.548h-25.8V93.258H82.613v3.548Zm46.129,0V83.968l16.314-4.45,2.881,17.288Z" transform="translate(-1 -1)"/>
        <path id="Path_140192" data-name="Path 140192" d="M12.548,40.033v3.806H16.1V40.033a5.045,5.045,0,0,0,.749-9.336l-3.46-1.728a1.516,1.516,0,0,1,.678-2.872h.518A1.517,1.517,0,0,1,16.1,27.612v2.033h3.548V27.612A5.054,5.054,0,0,0,16.1,22.806V19H12.548v3.806a5.045,5.045,0,0,0-.749,9.336l3.46,1.728a1.516,1.516,0,0,1-.678,2.872h-.518a1.517,1.517,0,0,1-1.515-1.515V33.194H9v2.033A5.054,5.054,0,0,0,12.548,40.033Z" transform="translate(5.194 12.935)"/>
        <path id="Path_140193" data-name="Path 140193" d="M26.29,45H8.548A3.552,3.552,0,0,0,5,48.548V66.29a3.552,3.552,0,0,0,3.548,3.548H26.29a3.552,3.552,0,0,0,3.548-3.548V48.548A3.552,3.552,0,0,0,26.29,45Zm0,7.1H22.742V48.548H26.29Zm-7.1,14.194H15.645V62.742h3.548Zm0-7.1H15.645V55.645h3.548Zm-7.1,0H8.548V55.645H12.1Zm3.548-7.1V48.548h3.548V52.1ZM12.1,48.548V52.1H8.548V48.548ZM8.548,62.742H12.1V66.29H8.548ZM22.742,66.29V55.645h3.55l0,10.645Z" transform="translate(2.097 33.065)"/>
        <path id="Path_140194" data-name="Path 140194" d="M74.677,5H25V15.645H74.677Zm-3.548,7.1H28.548V8.548H71.129Z" transform="translate(17.581 2.097)"/>
        <path id="Path_140195" data-name="Path 140195" d="M25,13H74.677v3.548H25Z" transform="translate(17.581 8.29)"/>
        <path id="Path_140196" data-name="Path 140196" d="M25,17H74.677v3.548H25Z" transform="translate(17.581 11.387)"/>
        <path id="Path_140197" data-name="Path 140197" d="M25,21H53.387v3.548H25Z" transform="translate(17.581 14.484)"/>
      </g>
    </g>
  </g>
</svg>
