<svg xmlns="http://www.w3.org/2000/svg" width="181" height="182" viewBox="0 0 181 182">
  <g id="t5-ic1" transform="translate(-290 -867)">
    <ellipse id="Ellipse_4438" data-name="Ellipse 4438" cx="90.5" cy="91" rx="90.5" ry="91" transform="translate(290 867)" fill="#fff"/>
    <g id="worker" transform="translate(328 903)">
      <path id="Path_140240" data-name="Path 140240" d="M70.66,34.839h-3.6a2.092,2.092,0,0,1-2.012-1.561,25.723,25.723,0,0,0-2.506-6.032,2.05,2.05,0,0,1,.311-2.477L65.426,22.2a2.032,2.032,0,0,0,0-2.874l-4.561-4.561a2.032,2.032,0,0,0-2.874,0l-2.567,2.567a2.049,2.049,0,0,1-2.477.311,25.71,25.71,0,0,0-6.032-2.506,2.092,2.092,0,0,1-1.56-2.012v-3.6A2.033,2.033,0,0,0,43.321,7.5h-6.45a2.032,2.032,0,0,0-2.033,2.033v3.6a2.092,2.092,0,0,1-1.56,2.012,25.694,25.694,0,0,0-6.032,2.506,2.05,2.05,0,0,1-2.477-.311L22.2,14.767a2.032,2.032,0,0,0-2.874,0l-4.56,4.561a2.032,2.032,0,0,0,0,2.874l2.567,2.567a2.051,2.051,0,0,1,.311,2.477,25.674,25.674,0,0,0-2.506,6.032,2.092,2.092,0,0,1-2.012,1.56h-3.6A2.033,2.033,0,0,0,7.5,36.871v6.45a2.032,2.032,0,0,0,2.033,2.033h3.6a2.092,2.092,0,0,1,2.012,1.561,25.7,25.7,0,0,0,2.506,6.031,2.051,2.051,0,0,1-.311,2.477l-2.567,2.567a2.032,2.032,0,0,0,0,2.874l4.56,4.561a2.032,2.032,0,0,0,2.874,0l2.568-2.567a2.05,2.05,0,0,1,2.477-.311,25.725,25.725,0,0,0,6.032,2.506,2.094,2.094,0,0,1,1.561,2.012v3.594a2.032,2.032,0,0,0,2.032,2.033h6.451a2.032,2.032,0,0,0,2.032-2.033V67.066a2.1,2.1,0,0,1,1.561-2.012,25.724,25.724,0,0,0,6.032-2.506,2.05,2.05,0,0,1,2.477.311l2.567,2.567a2.032,2.032,0,0,0,2.874,0l4.561-4.561a2.032,2.032,0,0,0,0-2.874l-2.567-2.567a2.051,2.051,0,0,1-.311-2.477,25.71,25.71,0,0,0,2.506-6.032,2.092,2.092,0,0,1,2.012-1.56h3.6a2.032,2.032,0,0,0,2.033-2.033v-6.45a2.031,2.031,0,0,0-2.032-2.033ZM40.1,53.672A13.575,13.575,0,1,1,53.671,40.1,13.575,13.575,0,0,1,40.1,53.672Zm0,0" transform="translate(-5.888 -5.889)" fill="#d2f6e6"/>
      <path id="Path_140241" data-name="Path 140241" d="M250.72,289.967l-5.8-11.495V265.891h-17.9v12.582l-5.8,11.495Zm0,0" transform="translate(-173.686 -208.766)" fill="#f0d0b4"/>
      <path id="Path_140242" data-name="Path 140242" d="M301.547,265.891v24.077H313.8l-5.8-11.495V265.891Zm0,0" transform="translate(-236.762 -208.766)" fill="#d9bca3"/>
      <path id="Path_140243" data-name="Path 140243" d="M231.609,114.456h-1.135v-4.523a15.535,15.535,0,0,0-5.261-11.8,17.065,17.065,0,0,0-22.808,0,15.535,15.535,0,0,0-5.261,11.8v4.523h-1.135a3.016,3.016,0,0,0-3.016,3.016v3.342a3.016,3.016,0,0,0,3.016,3.016h1.141a15.507,15.507,0,0,0,5.256,11.452,17.065,17.065,0,0,0,22.808,0,15.5,15.5,0,0,0,5.256-11.452h1.141a3.016,3.016,0,0,0,3.016-3.016v-3.342a3.017,3.017,0,0,0-3.017-3.016Zm0,0" transform="translate(-151.529 -73.615)" fill="#f0d0b4"/>
      <path id="Path_140244" data-name="Path 140244" d="M318.271,126.418h-1.135v-4.523a15.535,15.535,0,0,0-5.261-11.8c-.437-.377-.906-.744-1.4-1.1l0,29.5a15.507,15.507,0,0,1-5.256,11.452,19.2,19.2,0,0,1-1.847,1.4,17.649,17.649,0,0,0,8.507-4.1,15.507,15.507,0,0,0,5.256-11.452h1.141a3.017,3.017,0,0,0,3.016-3.016v-3.342a3.017,3.017,0,0,0-3.017-3.016Zm0,0" transform="translate(-238.191 -85.576)" fill="#d9bca3"/>
      <path id="Path_140245" data-name="Path 140245" d="M217.417,70.328h-1.745a19.2,19.2,0,0,0-19.2,19.2v5.527h40.136V89.524a19.2,19.2,0,0,0-19.2-19.2Zm0,0" transform="translate(-154.265 -55.219)" fill="#fb9e36"/>
      <path id="Path_140246" data-name="Path 140246" d="M278.757,70.328h-1.745a19.371,19.371,0,0,0-2.411.153,19.2,19.2,0,0,1,16.763,19.043V95.05h6.589V89.524a19.2,19.2,0,0,0-19.2-19.2Zm0,0" transform="translate(-215.605 -55.219)" fill="#ff8709"/>
      <path id="Path_140247" data-name="Path 140247" d="M224.822,178.154H183.454a2.778,2.778,0,1,1,0-5.557h41.368a2.778,2.778,0,0,1,0,5.557Zm0,0" transform="translate(-141.859 -135.516)" fill="#fb9e36"/>
      <path id="Path_140248" data-name="Path 140248" d="M169.778,328.214l-19.338-3.761c0,4.944-8.951,8.951-8.951,8.951s-8.951-4.007-8.951-8.951L113.2,328.214c-7.3,2.15-12.316,5.964-12.316,13.577V358.18a4.954,4.954,0,0,0,4.955,4.955h71.3a4.954,4.954,0,0,0,4.955-4.955V341.791c0-7.613-5.014-11.427-12.316-13.577Zm0,0" transform="translate(-79.209 -254.747)" fill="#f6f6f6"/>
      <path id="Path_140249" data-name="Path 140249" d="M438.008,347.836a12.223,12.223,0,0,1,2.336,7.587v26.071h1.491a4.954,4.954,0,0,0,4.954-4.955V360.15c0-6.309-3.446-10.008-8.782-12.314Zm0,0" transform="translate(-343.905 -273.106)" fill="#afafaf"/>
      <path id="Path_140250" data-name="Path 140250" d="M221.739,324.453l-7.247,1.409c.431,4.016,3.995,7.648,7.67,10.378a3.173,3.173,0,0,0,3.521.166l5.006-3s-8.95-4.007-8.95-8.951Zm0,0" transform="translate(-168.41 -254.746)" fill="#afafaf"/>
      <path id="Path_140251" data-name="Path 140251" d="M298.834,324.453c0,4.944-8.951,8.951-8.951,8.951l5.006,3a3.171,3.171,0,0,0,3.521-.165c3.676-2.731,7.239-6.362,7.671-10.378Zm0,0" transform="translate(-227.604 -254.747)" fill="#afafaf"/>
      <path id="Path_140252" data-name="Path 140252" d="M145.773,334.278l1.078,3.606a66.91,66.91,0,0,1,2.653,18.654v11.748h27.23v-9.729a13.264,13.264,0,0,0-2.417-7.635c-4.515-6.418-13.78-19.907-13.78-19.907l-10.368,2.016a26.131,26.131,0,0,0-4.4,1.247Zm0,0" transform="translate(-114.455 -259.899)" fill="#fb9e36"/>
      <path id="Path_140253" data-name="Path 140253" d="M320.845,334.278l-1.078,3.606a66.909,66.909,0,0,0-2.654,18.654v11.748h-27.23v-9.729a13.264,13.264,0,0,1,2.417-7.635c4.516-6.418,13.781-19.907,13.781-19.907l10.368,2.016a26.153,26.153,0,0,1,4.4,1.247Zm0,0" transform="translate(-227.604 -259.899)" fill="#fb9e36"/>
      <path id="Path_140254" data-name="Path 140254" d="M336.066,446.8h-9.477a1.144,1.144,0,0,1-1.144-1.144v-3.229a1.144,1.144,0,0,1,1.144-1.144h9.477a1.144,1.144,0,0,1,1.144,1.144v3.229A1.144,1.144,0,0,1,336.066,446.8Zm0,0" transform="translate(-255.526 -346.475)" fill="#f1d54e"/>
      <path id="Path_140255" data-name="Path 140255" d="M330.177,442.52H320.7a2.759,2.759,0,0,1-2.755-2.755v-3.229a2.759,2.759,0,0,1,2.755-2.755h9.477a2.759,2.759,0,0,1,2.755,2.755v3.229A2.759,2.759,0,0,1,330.177,442.52Zm-9.009-3.223h8.542V437h-8.542Zm0,0" transform="translate(-249.637 -340.586)"/>
      <path id="Path_140256" data-name="Path 140256" d="M37.433,68.416h-6.45a3.648,3.648,0,0,1-3.644-3.644v-3.6a.483.483,0,0,0-.373-.457,27.311,27.311,0,0,1-6.41-2.663.439.439,0,0,0-.535.053l-2.568,2.568a3.645,3.645,0,0,1-5.153,0L7.738,56.116a3.643,3.643,0,0,1,0-5.153l2.567-2.568a.437.437,0,0,0,.053-.535A27.343,27.343,0,0,1,7.7,41.449a.483.483,0,0,0-.457-.373h-3.6A3.648,3.648,0,0,1,0,37.433v-6.45a3.648,3.648,0,0,1,3.644-3.644h3.6a.482.482,0,0,0,.457-.373,27.34,27.34,0,0,1,2.663-6.41.439.439,0,0,0-.053-.535L7.738,17.453a3.643,3.643,0,0,1,0-5.153L12.3,7.738a3.645,3.645,0,0,1,5.154,0l2.567,2.567a.439.439,0,0,0,.535.053A27.34,27.34,0,0,1,26.965,7.7a.482.482,0,0,0,.373-.457v-3.6A3.648,3.648,0,0,1,30.982,0h6.45a3.648,3.648,0,0,1,3.644,3.644v3.6a.48.48,0,0,0,.373.457,27.358,27.358,0,0,1,6.409,2.664.441.441,0,0,0,.536-.053l2.567-2.568a3.642,3.642,0,0,1,5.154,0l.483.483A1.611,1.611,0,0,1,54.32,10.5c-.3-.257-.678-.884-1.078-.483l-2.568,2.567a3.672,3.672,0,0,1-4.419.569A24.149,24.149,0,0,0,40.6,10.8a3.717,3.717,0,0,1-2.748-3.567V3.644a.422.422,0,0,0-.421-.421h-6.45a.421.421,0,0,0-.42.421v3.6a3.717,3.717,0,0,1-2.748,3.567,24.138,24.138,0,0,0-5.654,2.348,3.671,3.671,0,0,1-4.418-.569l-2.567-2.567a.42.42,0,0,0-.6,0l-4.562,4.561a.42.42,0,0,0,0,.6l2.568,2.568a3.671,3.671,0,0,1,.569,4.418A24.155,24.155,0,0,0,10.8,27.814a3.716,3.716,0,0,1-3.566,2.748h-3.6a.422.422,0,0,0-.421.421v6.45a.422.422,0,0,0,.421.421h3.6A3.717,3.717,0,0,1,10.806,40.6a24.087,24.087,0,0,0,2.348,5.654,3.671,3.671,0,0,1-.569,4.418l-2.567,2.568a.411.411,0,0,0-.123.3.417.417,0,0,0,.123.3l4.561,4.56a.421.421,0,0,0,.6,0l2.567-2.567a3.672,3.672,0,0,1,4.419-.569,24.134,24.134,0,0,0,5.653,2.349,3.717,3.717,0,0,1,2.748,3.567v3.594a.421.421,0,0,0,.42.421h6.45a.422.422,0,0,0,.421-.421V61.177A3.717,3.717,0,0,1,40.6,57.611a1.611,1.611,0,0,1,.848,3.109.483.483,0,0,0-.373.458v3.594a3.648,3.648,0,0,1-3.644,3.644Zm0,0"/>
      <path id="Path_140257" data-name="Path 140257" d="M88.535,103.681a15.206,15.206,0,0,1,20.586-14.2,1.612,1.612,0,0,1-1.148,3.012,11.965,11.965,0,1,0-3.537,23.128,1.612,1.612,0,0,1,.19,3.218,15.2,15.2,0,0,1-16.091-15.161Zm0,0" transform="translate(-69.514 -69.473)"/>
      <path id="Path_140258" data-name="Path 140258" d="M162.492,120.884l-16.326-3.175v-4.034a17.043,17.043,0,0,0,7.608-12.532,4.633,4.633,0,0,0,4.258-4.612V93.219a4.394,4.394,0,0,0-.749-8.3V83.636a20.808,20.808,0,0,0-20.807-20.808h-1.745a20.807,20.807,0,0,0-20.807,20.807v1.279a4.394,4.394,0,0,0-.749,8.3V96.53a4.633,4.633,0,0,0,4.258,4.612,17,17,0,0,0,5.715,11.076,21.18,21.18,0,0,0,1.892,1.456v4.034l-16.326,3.175c-8.614,1.675-15.328,6.531-15.328,15.491v16.389a6.566,6.566,0,0,0,6.566,6.566h71.3a6.566,6.566,0,0,0,6.566-6.566V136.375c0-8.93-6.673-13.808-15.328-15.491Zm-13.412.675c-1.17,1.7-2.958,4.3-4.89,7.094a2.345,2.345,0,0,1-2.752.955l-2.545-1.527c2.482-1.466,5.917-3.984,6.96-7.15ZM135.6,126.2c-2.447-1.232-7.326-4.276-7.339-7.153v-3.6a18.5,18.5,0,0,0,14.679,0v3.583c0,2.882-4.89,5.933-7.34,7.165ZM117.146,83.635a17.6,17.6,0,0,1,9.071-15.382v2.02a1.611,1.611,0,0,0,3.223,0V66.864a17.471,17.471,0,0,1,4.551-.8v7.968a1.611,1.611,0,0,0,3.223,0V66.067a17.477,17.477,0,0,1,4.552.8v3.409a1.611,1.611,0,0,0,3.223,0v-2.02a17.6,17.6,0,0,1,9.071,15.382V84.8H117.146Zm-2.227,4.388h41.368a1.167,1.167,0,0,1,0,2.334H114.919A1.167,1.167,0,0,1,114.919,88.023Zm5.635,11.488a1.611,1.611,0,0,0-1.611-1.577c-.269-.066-2.545.419-2.545-1.4V93.58h38.412v2.95c0,1.819-2.337,1.353-2.545,1.4a1.612,1.612,0,0,0-1.611,1.577,13.9,13.9,0,0,1-4.7,10.266,15.47,15.47,0,0,1-20.7,0,13.893,13.893,0,0,1-4.7-10.266Zm4.8,21.42c1.043,3.166,4.477,5.684,6.961,7.15-2.551,1.366-2.371,1.775-3.53,1.638A2.541,2.541,0,0,1,127,128.634c-1.927-2.79-3.709-5.379-4.878-7.076Zm-18.592,35.176h-6.81a3.344,3.344,0,0,1-3.343-3.344V136.374c0-4.829,2.194-8.167,7.006-10.474a66.275,66.275,0,0,1,3.147,20.069Zm27.23,0H109.984V145.97A67.615,67.615,0,0,0,106.62,124.7c1.882-.625.484-.144,12.056-2.473,3.326,4.833,9.533,13.851,13.192,19.051a11.6,11.6,0,0,1,2.123,6.709ZM135.6,141.25a15.169,15.169,0,0,0-1.1-1.824c-1.237-1.757-2.842-4.064-4.518-6.481a4.83,4.83,0,0,0,1.439-.574l4.177-2.505,4.178,2.505a4.821,4.821,0,0,0,1.439.574c-1.675,2.416-3.281,4.722-4.518,6.481a15.065,15.065,0,0,0-1.1,1.824ZM174.6,152.764a3.343,3.343,0,0,1-3.344,3.344h-6.81v-6.079a1.611,1.611,0,0,0-3.223,0v6.079H137.214v-8.118a11.6,11.6,0,0,1,2.123-6.708c2.081-2.958,10.651-15.324,13.193-19.052,11.566,2.329,10.172,1.847,12.056,2.473a70.271,70.271,0,0,0-3.32,18.814,1.611,1.611,0,0,0,3.22.116,64.442,64.442,0,0,1,3.105-17.731c4.812,2.306,7.006,5.645,7.006,10.473Zm0,0" transform="translate(-73.323 -49.33)"/>
    </g>
  </g>
</svg>
