<svg xmlns="http://www.w3.org/2000/svg" width="610" height="326" viewBox="0 0 610 326">
  <g id="t5-i4" transform="translate(-6180 8723)">
    <g id="Spreadsheets-amico" transform="translate(6306.59 -8745.146)">
      <g id="freepik--Floor--inject-39" transform="translate(8.41 151.838)">
        <ellipse id="freepik--floor--inject-39-2" data-name="freepik--floor--inject-39" cx="170" cy="98.154" rx="170" ry="98.154" fill="#fff"/>
      </g>
      <g id="freepik--Shadows--inject-39" transform="translate(21.018 170.803)">
        <ellipse id="freepik--Shadow--inject-39" cx="34.058" cy="19.66" rx="34.058" ry="19.66" transform="translate(216.458 103.025)" fill="#e0e0e0"/>
        <path id="freepik--shadow--inject-39-2" data-name="freepik--shadow--inject-39" d="M55.365,343,27.439,326.88c-1.575-.911-1.575-2.381,0-3.292L189.88,229.8a6.358,6.358,0,0,1,5.7,0l27.933,16.128c1.575.9,1.575,2.381,0,3.292L61.073,343a6.3,6.3,0,0,1-5.708,0Z" transform="translate(-26.258 -229.125)" fill="#e0e0e0"/>
      </g>
      <g id="freepik--Clouds--inject-39" transform="translate(31.836 42.732)">
        <path id="freepik--Cloud--inject-39" d="M78.609,51.3l-6.294,3.645c0-.283.049-.558.049-.834v-1.83c0-3.257-2.282-4.578-5.108-2.946a9.891,9.891,0,0,0-3.038,2.925c-.466-4.1-3.674-5.652-7.58-3.37A16.829,16.829,0,0,0,49,62.123v2.734a7.156,7.156,0,0,0,.643,3.172L44.4,71.06a6.273,6.273,0,0,0-2.826,4.9c0,1.809,1.272,2.543,2.826,1.639L78.609,57.842a6.266,6.266,0,0,0,2.826-4.9C81.435,51.131,80.192,50.4,78.609,51.3Z" transform="translate(-41.57 -47.837)" fill="#ebebeb"/>
        <path id="freepik--cloud--inject-39-2" data-name="freepik--cloud--inject-39" d="M128.707,73.063l-4.769,2.755a4.89,4.89,0,0,0,.042-.636V73.77c0-2.458-1.724-3.455-3.85-2.225a7.382,7.382,0,0,0-2.3,2.2c-.353-3.087-2.776-4.239-5.722-2.536a12.752,12.752,0,0,0-5.765,9.982v2.07a5.439,5.439,0,0,0,.487,2.388l-3.956,2.289a4.726,4.726,0,0,0-2.119,3.7c0,1.363.961,1.914,2.119,1.236l25.828-14.913a4.733,4.733,0,0,0,2.119-3.7C130.848,72.95,129.894,72.385,128.707,73.063Z" transform="translate(-58.945 -54.467)" fill="#ebebeb"/>
      </g>
      <g id="freepik--Device--inject-39" transform="translate(41.74 30.446)">
        <g id="freepik--Monitor--inject-39">
          <path id="Path_139023" data-name="Path 139023" d="M192.317,320.486,216.336,306.6c2.48-1.413,3.716-3.306,3.716-5.178v-3.334L195.143,284.04a5.284,5.284,0,0,1-2.388-4.14V250.3L150.82,274.531v29.6a5.3,5.3,0,0,0,2.388,4.14L174.4,320.486C179.339,323.34,187.365,323.34,192.317,320.486Z" transform="translate(-83.545 -94.984)" fill="#263238"/>
          <path id="Path_139024" data-name="Path 139024" d="M160.877,317.528v3.327l-7.686-4.429a5.284,5.284,0,0,1-2.381-4.14V282.693l7.983-4.613c.17,2.027.346,4.126.516,6.167l-5.6,3.243v23.129a5.249,5.249,0,0,0,2.388,4.14Z" transform="translate(-83.542 -103.139)"/>
          <path id="Path_139025" data-name="Path 139025" d="M154.91,304.47a5.284,5.284,0,0,0,2.388,4.14l18.29,10.533c4.945,2.861,12.977,2.861,17.93,0l24.019-13.875c4.945-2.826,4.945-7.488,0-10.349l-18.3-10.547a5.263,5.263,0,0,1-2.388-4.14V257.11l-41.928,24.231Z" transform="translate(-84.745 -96.983)" fill="#37474f"/>
          <path id="Path_139026" data-name="Path 139026" d="M204.1,287.191h0l-4.867-2.826a5.263,5.263,0,0,1-2.388-4.14V257.11L154.91,281.341V304.47a5.284,5.284,0,0,0,2.388,4.14l4.783,2.755Z" transform="translate(-84.745 -96.983)" fill="#263238"/>
          <path id="Path_139027" data-name="Path 139027" d="M233.73,318v3.342c0,1.872-1.243,3.737-3.716,5.171L206,340.387a18.007,18.007,0,0,1-8.555,2.119v-3.327A17.922,17.922,0,0,0,206,337.06l24.019-13.889C232.487,321.716,233.73,319.844,233.73,318Z" transform="translate(-97.23 -114.858)" fill="#455a64"/>
          <path id="Path_139028" data-name="Path 139028" d="M58.435,266.679a6.408,6.408,0,0,0,5.786-.106L226.393,172.94a6.577,6.577,0,0,0,2.988-5.171V36.15a6.422,6.422,0,0,0-2.826-5.065,6.408,6.408,0,0,0-5.786.106L58.618,124.8a6.6,6.6,0,0,0-2.988,5.171V261.613a6.422,6.422,0,0,0,2.8,5.065Z" transform="translate(-55.602 -30.446)" fill="#455a64"/>
          <path id="Path_139029" data-name="Path 139029" d="M66.551,268.049l162.173-93.626a6.6,6.6,0,0,0,2.988-5.171V37.634c0-1.907-1.335-2.677-2.988-1.724L66.558,129.536a6.6,6.6,0,0,0-2.988,5.171V266.326C63.57,268.233,64.905,268.982,66.551,268.049Z" transform="translate(-57.933 -31.93)" fill="#17c878"/>
          <path id="Path_139030" data-name="Path 139030" d="M66.551,268.049l162.173-93.626a6.6,6.6,0,0,0,2.988-5.171V37.634c0-1.907-1.335-2.677-2.988-1.724L66.558,129.536a6.6,6.6,0,0,0-2.988,5.171V266.326C63.57,268.233,64.905,268.982,66.551,268.049Z" transform="translate(-57.933 -31.93)" fill="#37474f"/>
          <path id="Path_139031" data-name="Path 139031" d="M63.771,362.391a6.45,6.45,0,0,1-5.355-.113,6.422,6.422,0,0,1-2.826-5.072V345.26l5.6,3.243v11.946C61.22,362.187,62.322,362.971,63.771,362.391Z" transform="translate(-55.59 -122.86)" fill="#263238"/>
          <path id="Path_139032" data-name="Path 139032" d="M63.56,309.5v11.939c0,1.907,1.335,2.677,2.981,1.724l162.18-93.626a6.6,6.6,0,0,0,2.988-5.178V212.4Z" transform="translate(-57.93 -83.859)" fill="#37474f"/>
          <path id="Path_139033" data-name="Path 139033" d="M63.57,309.473v11.967c0,1.907,1.335,2.677,2.981,1.724l162.173-93.626a6.6,6.6,0,0,0,2.988-5.178V212.4Z" transform="translate(-57.933 -83.859)" opacity="0.2"/>
          <path id="Path_139034" data-name="Path 139034" d="M71.5,246.4V140.389a3.97,3.97,0,0,1,1.794-3.108L226.636,48.748c1-.572,1.794-.106,1.794,1.031V155.8a3.97,3.97,0,0,1-1.794,3.108L73.266,247.437C72.3,248.01,71.5,247.543,71.5,246.4Z" transform="translate(-60.26 -35.747)" fill="#17c878"/>
          <path id="Path_139035" data-name="Path 139035" d="M71.5,246.4V140.389a3.97,3.97,0,0,1,1.794-3.108L226.636,48.748c1-.572,1.794-.106,1.794,1.031V155.8a3.97,3.97,0,0,1-1.794,3.108L73.266,247.437C72.3,248.01,71.5,247.543,71.5,246.4Z" transform="translate(-60.26 -35.747)" opacity="0.3"/>
          <path id="Path_139036" data-name="Path 139036" d="M181.4,286.34a6.2,6.2,0,0,0-2.826,4.853c0,1.787,1.257,2.515,2.826,1.618a6.188,6.188,0,0,0,2.826-4.853C184.2,286.171,182.943,285.443,181.4,286.34Z" transform="translate(-91.691 -105.451)" fill="#455a64"/>
          <path id="Path_139037" data-name="Path 139037" d="M62.115,170.408a6.358,6.358,0,0,0-.883,2.953V296.227l-5.6-3.243V170.133a6.2,6.2,0,0,1,.883-2.953Z" transform="translate(-55.602 -70.584)" fill="#263238"/>
        </g>
      </g>
      <g id="freepik--Spreadsheets--inject-39" transform="translate(72.826 35.37)">
        <g id="freepik--Window--inject-39" transform="translate(0 0)">
          <g id="freepik--window--inject-39-2" data-name="freepik--window--inject-39">
            <path id="Path_139038" data-name="Path 139038" d="M264.872,37.574a1.476,1.476,0,0,0-1.526.12L101.717,131.038a4.627,4.627,0,0,0-2.119,3.624v108.97a2.02,2.02,0,0,0,.883,1.816c.339.184,2.119,1.229,2.67,1.519a1.2,1.2,0,0,0,1.215-.071l161.65-93.379a4.62,4.62,0,0,0,2.119-3.624V40.393a1.462,1.462,0,0,0-.65-1.413A26.129,26.129,0,0,1,264.872,37.574Z" transform="translate(-99.593 -37.416)" fill="#17c878"/>
            <path id="Path_139039" data-name="Path 139039" d="M105.509,133.2,267.131,39.882c1.159-.664,2.119-.12,2.119,1.215V150.6a4.62,4.62,0,0,1-2.119,3.624L105.509,247.536c-1.159.664-2.119-.417-2.119-1.752V136.821a4.62,4.62,0,0,1,2.119-3.624Z" transform="translate(-100.708 -38.057)" fill="#fafafa"/>
            <path id="Path_139040" data-name="Path 139040" d="M268.071,40.245h0c.389,0,.452.495.452.791v109.5a3.9,3.9,0,0,1-1.745,3.009L105.156,246.9a.643.643,0,0,1-.339.113c-.367,0-.706-.586-.706-1.25V136.8a3.914,3.914,0,0,1,1.745-3.017L267.484,40.435a1.243,1.243,0,0,1,.586-.191m0-.706a1.95,1.95,0,0,0-.94.283l-161.622,93.35a4.62,4.62,0,0,0-2.119,3.624V245.758c0,1.06.586,1.957,1.413,1.957a1.364,1.364,0,0,0,.706-.2l161.622-93.378a4.62,4.62,0,0,0,2.119-3.624V41.008c0-.954-.473-1.5-1.159-1.5Z" transform="translate(-100.708 -38.03)" fill="#e0e0e0"/>
            <path id="Path_139041" data-name="Path 139041" d="M100.511,288.679c.226.12,1.858,1.053,2.571,1.455a2.119,2.119,0,0,1-.77-1.759V186.258l-2.685-1.568V286.864A2.049,2.049,0,0,0,100.511,288.679Z" transform="translate(-99.602 -80.648)" fill="#f0f0f0"/>
            <path id="Path_139042" data-name="Path 139042" d="M269.229,41.026c0-1.321-.947-1.858-2.119-1.194l-161.6,93.35a4.62,4.62,0,0,0-2.119,3.624v6.846L269.229,47.9Z" transform="translate(-100.708 -38.041)" fill="#17c878"/>
            <g id="Group_95842" data-name="Group 95842" transform="translate(0.669)" opacity="0.4">
              <path id="Path_139043" data-name="Path 139043" d="M266.294,39.241,104.673,132.556a4.239,4.239,0,0,0-1.476,1.554l-2.656-1.54A4.175,4.175,0,0,1,102,131.037L263.624,37.694a1.483,1.483,0,0,1,1.519-.127c.374.233,2.119,1.222,2.557,1.455a1.54,1.54,0,0,0-1.406.219Z" transform="translate(-100.54 -37.415)" fill="#fff"/>
            </g>
            <path id="Path_139044" data-name="Path 139044" d="M99.63,180.992v-6.8a4.317,4.317,0,0,1,.643-2.119l2.663,1.533a4.239,4.239,0,0,0-.622,2.077v6.845Z" transform="translate(-99.604 -76.943)" opacity="0.15"/>
            <path id="Path_139045" data-name="Path 139045" d="M103.427,147.122l-.007,12.335L269.231,63.719V51.37Z" transform="translate(-100.716 -41.512)" fill="#ebebeb"/>
            <path id="Path_139046" data-name="Path 139046" d="M113.2,183.06l10.724-6.16v6.139l-10.731,6.2Z" transform="translate(-103.584 -78.361)" fill="#e0e0e0"/>
            <path id="Path_139047" data-name="Path 139047" d="M132.13,173.407v2.43l5.348-3.094V170.32Z" transform="translate(-109.144 -76.43)" fill="#e0e0e0"/>
            <path id="Path_139048" data-name="Path 139048" d="M132.13,178.717v2.43l5.348-3.094V175.63Z" transform="translate(-109.144 -77.988)" fill="#e0e0e0"/>
            <path id="Path_139049" data-name="Path 139049" d="M143.49,166.847v2.43l5.348-3.087v-2.43Z" transform="translate(-112.479 -74.504)" fill="#e0e0e0"/>
            <path id="Path_139050" data-name="Path 139050" d="M143.49,172.157v2.43l5.348-3.087v-2.43Z" transform="translate(-112.479 -76.063)" fill="#e0e0e0"/>
            <path id="Path_139051" data-name="Path 139051" d="M154.84,160.287v2.43l5.348-3.087V157.2Z" transform="translate(-115.811 -72.578)" fill="#e0e0e0"/>
            <path id="Path_139052" data-name="Path 139052" d="M154.84,165.6v2.43l5.348-3.087v-2.43Z" transform="translate(-115.811 -74.137)" fill="#e0e0e0"/>
            <path id="Path_139053" data-name="Path 139053" d="M188.91,140.617v2.43l5.348-3.087v-2.43Z" transform="translate(-125.812 -66.804)" fill="#e0e0e0"/>
            <path id="Path_139054" data-name="Path 139054" d="M188.91,145.934v2.423l5.348-3.087v-2.43Z" transform="translate(-125.812 -68.363)" fill="#e0e0e0"/>
            <path id="Path_139055" data-name="Path 139055" d="M200.27,134.064v2.423l5.348-3.087v-2.43Z" transform="translate(-129.147 -64.878)" fill="#e0e0e0"/>
            <path id="Path_139056" data-name="Path 139056" d="M200.27,139.374V141.8l5.348-3.087v-2.43Z" transform="translate(-129.147 -66.437)" fill="#e0e0e0"/>
            <path id="Path_139057" data-name="Path 139057" d="M211.62,127.507l.007,2.43,5.348-3.087v-2.43Z" transform="translate(-132.478 -62.956)" fill="#e0e0e0"/>
            <path id="Path_139058" data-name="Path 139058" d="M211.62,132.817l.007,2.43,5.348-3.094V129.73Z" transform="translate(-132.478 -64.514)" fill="#e0e0e0"/>
            <path id="Path_139059" data-name="Path 139059" d="M166.2,151.811l13.373-7.721v6.174L166.2,157.986Z" transform="translate(-119.145 -68.73)" fill="#e0e0e0"/>
            <path id="Path_139060" data-name="Path 139060" d="M222.987,119.67l10.724-6.16v6.146l-10.731,6.2Z" transform="translate(-135.813 -59.753)" fill="#e0e0e0"/>
            <path id="Path_139061" data-name="Path 139061" d="M241.91,110.017l.007,2.43,5.348-3.087v-2.43Z" transform="translate(-141.37 -57.821)" fill="#e0e0e0"/>
            <path id="Path_139062" data-name="Path 139062" d="M241.91,115.327l.007,2.43,5.348-3.087v-2.43Z" transform="translate(-141.37 -59.38)" fill="#e0e0e0"/>
            <path id="Path_139063" data-name="Path 139063" d="M253.27,103.464v2.43l5.348-3.094v-2.43Z" transform="translate(-144.705 -55.896)" fill="#e0e0e0"/>
            <path id="Path_139064" data-name="Path 139064" d="M253.27,108.774v2.43l5.348-3.094v-2.43Z" transform="translate(-144.705 -57.455)" fill="#e0e0e0"/>
            <path id="Path_139065" data-name="Path 139065" d="M264.63,96.9v2.43l5.348-3.094V93.81Z" transform="translate(-148.04 -53.97)" fill="#e0e0e0"/>
            <path id="Path_139066" data-name="Path 139066" d="M264.63,102.217v2.43l5.348-3.094V99.13Z" transform="translate(-148.04 -55.532)" fill="#e0e0e0"/>
            <path id="Path_139067" data-name="Path 139067" d="M298.7,77.234v2.43l5.348-3.094V74.14Z" transform="translate(-158.041 -48.196)" fill="#e0e0e0"/>
            <path id="Path_139068" data-name="Path 139068" d="M298.7,82.547v2.43l5.348-3.094V79.46Z" transform="translate(-158.041 -49.758)" fill="#e0e0e0"/>
            <path id="Path_139069" data-name="Path 139069" d="M310.06,70.677v2.43l5.348-3.087V67.59Z" transform="translate(-161.376 -46.273)" fill="#e0e0e0"/>
            <path id="Path_139070" data-name="Path 139070" d="M310.06,75.987v2.43l5.348-3.087V72.9Z" transform="translate(-161.376 -47.832)" fill="#e0e0e0"/>
            <path id="Path_139071" data-name="Path 139071" d="M321.41,64.117v2.43l5.355-3.087V61.03Z" transform="translate(-164.707 -44.348)" fill="#e0e0e0"/>
            <path id="Path_139072" data-name="Path 139072" d="M321.41,69.427v2.43l5.355-3.087V66.34Z" transform="translate(-164.707 -45.906)" fill="#e0e0e0"/>
            <path id="Path_139073" data-name="Path 139073" d="M275.99,88.421,289.363,80.7v6.181L275.99,94.6Z" transform="translate(-151.374 -50.122)" fill="#e0e0e0"/>
            <path id="Path_139074" data-name="Path 139074" d="M102.315,186.258,99.63,184.69v12.356l2.677,1.547Z" transform="translate(-99.604 -80.648)" fill="#e0e0e0"/>
            <path id="Path_139075" data-name="Path 139075" d="M277.57,70.783v.459c0,.706.509,1.017,1.137.657l32.5-18.756a2.529,2.529,0,0,0,1.137-1.978v-.452c0-.706-.509-1.024-1.137-.657l-32.5,18.756a2.508,2.508,0,0,0-1.137,1.971Z" transform="translate(-151.838 -41.081)" fill="#f5f5f5"/>
            <path id="Path_139076" data-name="Path 139076" d="M324.546,51.165v-.452c0-.706-.509-1.024-1.137-.657l-4.239,2.43h0v3.087h0l4.239-2.43a2.529,2.529,0,0,0,1.137-1.978Z" transform="translate(-164.05 -41.081)" fill="#455a64"/>
          </g>
          <g id="freepik--spreadsheets--inject-39-2" data-name="freepik--spreadsheets--inject-39" transform="translate(5.07 26.269)">
            <path id="Path_139077" data-name="Path 139077" d="M107.21,168.05,267.68,75.42v6.16l-147.1,84.936V246.8l-13.366,7.714Z" transform="translate(-106.899 -74.841)" fill="#f0f0f0"/>
            <path id="Path_139078" data-name="Path 139078" d="M126.13,201.164,139.5,193.45v6.16l-13.366,7.729Z" transform="translate(-112.453 -109.488)" fill="#17c878"/>
            <path id="Path_139079" data-name="Path 139079" d="M126.13,271.094,139.5,263.38v6.16l-13.366,7.729Z" transform="translate(-112.453 -130.016)" fill="#17c878"/>
            <path id="Path_139080" data-name="Path 139080" d="M126.13,279.834,139.5,272.12v6.16l-13.366,7.729Z" transform="translate(-112.453 -132.582)" fill="#17c878"/>
            <path id="Path_139081" data-name="Path 139081" d="M126.13,279.834,139.5,272.12v6.16l-13.366,7.729Z" transform="translate(-112.453 -132.582)" fill="#fff" opacity="0.8"/>
            <path id="Path_139082" data-name="Path 139082" d="M239.69,205.524l13.366-7.714v6.16L239.69,211.7Z" transform="translate(-145.789 -110.768)" fill="#17c878"/>
            <path id="Path_139083" data-name="Path 139083" d="M239.69,205.524l13.366-7.714v6.16L239.69,211.7Z" transform="translate(-145.789 -110.768)" opacity="0.3"/>
            <path id="Path_139084" data-name="Path 139084" d="M239.69,214.264l13.366-7.714v6.16l-13.366,7.729Z" transform="translate(-145.789 -113.334)" fill="#17c878"/>
            <path id="Path_139085" data-name="Path 139085" d="M239.69,214.264l13.366-7.714v6.16l-13.366,7.729Z" transform="translate(-145.789 -113.334)" opacity="0.4"/>
            <path id="Path_139086" data-name="Path 139086" d="M239.69,223.014l13.366-7.714v6.16l-13.366,7.729Z" transform="translate(-145.789 -115.903)" fill="#17c878"/>
            <path id="Path_139087" data-name="Path 139087" d="M239.69,223.014l13.366-7.714v6.16l-13.366,7.729Z" transform="translate(-145.789 -115.903)" opacity="0.5"/>
            <path id="Path_139088" data-name="Path 139088" d="M239.69,231.754l13.366-7.714v6.16l-13.366,7.729Z" transform="translate(-145.789 -118.468)" fill="#17c878"/>
            <path id="Path_139089" data-name="Path 139089" d="M239.69,231.754l13.366-7.714v6.16l-13.366,7.729Z" transform="translate(-145.789 -118.468)" opacity="0.3"/>
            <path id="Path_139090" data-name="Path 139090" d="M220.78,146.514l13.359-7.714v30.879l-13.359,7.729Z" transform="translate(-140.238 -93.446)" fill="#17c878"/>
            <path id="Path_139091" data-name="Path 139091" d="M220.78,198.974l13.359-7.714v43.228l-13.359,7.729Z" transform="translate(-140.238 -108.846)" fill="#17c878"/>
            <path id="Path_139092" data-name="Path 139092" d="M145.05,242.684l13.359-7.714v6.16l-13.359,7.729Z" transform="translate(-118.007 -121.677)" fill="#17c878"/>
            <path id="Path_139093" data-name="Path 139093" d="M145.05,242.684l13.359-7.714v6.16l-13.359,7.729Z" transform="translate(-118.007 -121.677)" opacity="0.3"/>
            <path id="Path_139094" data-name="Path 139094" d="M182.92,177.114l13.366-7.714v6.16l-13.366,7.729Z" transform="translate(-129.124 -102.429)" fill="#17c878"/>
            <path id="Path_139095" data-name="Path 139095" d="M182.92,177.114l13.366-7.714v6.16l-13.366,7.729Z" transform="translate(-129.124 -102.429)" fill="#fff" opacity="0.6"/>
            <path id="Path_139096" data-name="Path 139096" d="M277.57,174.924l13.359-7.714v6.16L277.57,181.1Z" transform="translate(-156.908 -101.786)" fill="#17c878"/>
            <path id="Path_139097" data-name="Path 139097" d="M277.57,174.924l13.359-7.714v6.16L277.57,181.1Z" transform="translate(-156.908 -101.786)" fill="#fff" opacity="0.8"/>
            <path id="Path_139098" data-name="Path 139098" d="M277.57,192.414l13.359-7.714v6.16l-13.359,7.729Z" transform="translate(-156.908 -106.92)" fill="#17c878"/>
            <path id="Path_139099" data-name="Path 139099" d="M106.932,167.533l-.162.092v87.232l160.936-92.933.17-.092V74.6Zm160.3-12.243-12.716,7.34v-5.418l12.716-7.333Zm-159.82,18.89,12.716-7.34v5.418l-12.716,7.34Zm79.575-8.873v5.418l-12.716,7.34v-5.418Zm-12.716,6.577v-5.418l12.716-7.34v5.418Zm13.373-6.959,12.716-7.34v5.418l-12.716,7.34Zm0-.763v-5.411l12.716-7.347v5.426Zm0-6.174v-5.4l12.716-7.34v5.418Zm0-6.181V146.4l12.716-7.347v5.418Zm-.657.382-12.716,7.34v-5.419l12.716-7.34Zm0,.763v5.418l-12.716,7.34v-5.418Zm-13.373,13.14-12.716,7.34v-5.418l12.716-7.34Zm0,.756v5.418l-12.716,7.34v-5.418Zm0,6.181v5.418l-12.716,7.34V180.37Zm0,6.174v5.418l-12.716,7.34v-5.418Zm.657-.381,12.716-7.34V176.9l-12.716,7.34Zm12.716-1.159v5.418l-12.716,7.34V185Zm.657-.381,12.716-7.34v5.418l-12.716,7.34Zm0-.763V171.1l12.716-7.34v5.418Zm13.373-13.133,12.716-7.34v5.418l-12.716,7.34Zm0-.763v-5.418l12.716-7.34v5.418Zm0-6.174v-5.418l12.716-7.34v5.418Zm0-6.181v-5.447l12.716-7.34V142.9Zm0-6.174v-5.418l12.716-7.34v5.411Zm0-6.181v-5.418l12.716-7.34v5.418Zm-.657.381-12.716,7.34v-5.418l12.716-7.34Zm-13.373,7.721-12.716,7.34v-5.418l12.716-7.34Zm-13.373,7.721-12.716,7.34v-5.418l12.716-7.34Zm0,.756v5.418l-12.716,7.34v-5.418Zm-13.373,13.14-12.716,7.34v-5.426l12.716-7.34Zm0,.763v5.39l-12.716,7.347v-5.418Zm0,6.174v5.418l-12.716,7.34V181.91Zm0,6.181v5.411l-12.716,7.347v-5.418Zm0,6.174v5.418l-12.716,7.34v-5.411Zm0,6.181v5.4l-12.716,7.347V200.44Zm.657-.381,12.716-7.34V190.8l-12.716,7.34Zm12.716-1.166v5.418l-12.716,7.34V198.9Zm.657-.381,12.716-7.34v5.418l-12.716,7.34Zm13.373-7.722,12.716-7.34v5.44l-12.716,7.34Zm13.373-7.714,12.716-7.34v5.418l-12.716,7.34Zm0-.763v-5.433l12.716-7.34v5.418Zm13.373-13.14,12.716-7.34v5.418l-12.716,7.34Zm0-.756v-5.418l12.716-7.34v5.418Zm0-6.181v-5.418l12.716-7.34v5.418Zm0-6.174v-5.418l12.716-7.34v5.418Zm0-6.181v-5.418l12.716-7.34v5.418Zm0-6.174v-5.418l12.716-7.34v5.418Zm0-6.181v-5.418l12.716-7.34v5.418Zm0-6.174V118.6l12.716-7.34v5.418Zm-.657.374-12.716,7.347v-5.418l12.716-7.34ZM200.36,132.1l-12.716,7.34v-5.411l12.716-7.347Zm-13.373,7.722-12.716,7.34v-5.418l12.716-7.34Zm-13.373,7.721-12.716,7.34V149.47l12.716-7.34Zm-13.373,7.729-12.716,7.34V157.2l12.716-7.34Zm0,.763v5.411L147.525,168.8V163.38Zm-13.373,13.133-12.716,7.34V171.1l12.716-7.347Zm0,.763v5.418l-12.716,7.34v-5.418Zm0,6.174v5.447l-12.716,7.34v-5.418Zm0,6.181v5.418l-12.716,7.34v-5.418Zm0,6.174v5.418l-12.716,7.34v-5.411Zm0,6.181v5.418l-12.716,7.34v-5.418Zm0,6.174v5.418l-12.716,7.34v-5.411Zm0,6.181v5.418l-12.716,7.34v-5.418Zm.657-.381,12.716-7.34V204.7l-12.716,7.34Zm12.716-1.159v5.418l-12.716,7.34V212.8Zm.657-.382,12.716-7.34v5.418L160.9,210.5Zm13.373-7.721,12.716-7.34v5.418l-12.716,7.34Zm13.373-7.721,12.716-7.34v5.418l-12.716,7.34Zm13.373-7.721,12.716-7.34V180l-12.716,7.34Zm13.373-7.721,12.716-7.34v5.418l-12.716,7.34Zm0-.756v-5.418l12.716-7.34V166.1Zm13.345-13.14,12.716-7.34v5.418l-12.716,7.34Zm0-.763v-5.418l12.716-7.34V152.2Zm0-6.174v-5.419l12.716-7.361V146Zm0-6.181v-5.418l12.716-7.34v5.454Zm0-6.174v-5.418l12.716-7.34v5.418Zm0-6.181v-5.418l12.716-7.34v5.418Zm0-6.174v-5.418l12.716-7.34v5.418Zm0-6.181v-5.418l12.716-7.34v5.44Zm0-6.174v-5.383l12.716-7.34v5.418Zm0-6.181v-5.418l12.716-7.34v5.418Zm-.657.381-12.716,7.34v-5.418l12.716-7.34Zm-13.373,7.722-12.716,7.34v-5.418l12.716-7.34Zm-13.373,7.721-12.716,7.34v-5.411l12.716-7.34Zm-13.345,7.722L174.271,141v-5.418l12.716-7.34Zm-13.373,7.721-12.716,7.34V143.3l12.716-7.34ZM160.241,149.1l-12.716,7.347v-5.418l12.716-7.34Zm-13.373,7.736-12.716,7.34v-5.411l12.716-7.347Zm0,.763v5.418l-12.716,7.34v-5.418ZM133.5,170.734l-12.716,7.34v-5.418l12.716-7.34Zm0,.756v5.418l-12.716,7.34V178.83Zm0,6.181v5.418l-12.716,7.34v-5.418Zm0,6.174v5.418l-12.716,7.34v-5.418Zm0,6.181v5.418l-12.716,7.3v-5.418Zm0,6.174v5.418l-12.716,7.34v-5.433Zm0,6.181V207.8l-12.716,7.34v-5.418Zm0,6.174v5.418l-12.716,7.34V215.9Zm0,6.181v5.418l-12.716,7.319v-5.418Zm0,6.174v5.419l-12.716,7.34v-5.418Zm.657-.374,12.716-7.347v5.418l-12.716,7.34Zm12.716-1.166v5.418l-12.716,7.34V226.7Zm.657-.382,12.716-7.34v5.418l-12.716,7.34Zm13.373-7.764,12.716-7.34v5.418l-12.716,7.34Zm13.373-7.721,12.716-7.34v5.418l-12.716,7.34Zm13.373-7.714,12.716-7.347v5.418l-12.716,7.34Zm13.373-7.721,12.716-7.34v5.418l-12.716,7.34Zm13.373-7.721,12.716-7.34v5.418l-12.716,7.34Zm13.345-7.693,12.716-7.347v5.418l-12.716,7.34Zm0-.763v-5.418l12.716-7.34v5.418Zm13.423-13.133,12.716-7.347v5.418l-12.716,7.34Zm0-.763v-5.4l12.716-7.34v5.418Zm0-6.181V146.4l12.716-7.347v5.418Zm0-6.174v-5.418l12.716-7.34V138.3Zm0-6.181v-5.411l12.716-7.347v5.4Zm0-6.174v-5.418l12.716-7.34v5.418Zm0-6.181v-5.411l12.716-7.347v5.418Zm0-6.174v-5.418l12.716-7.34v5.418Zm0-6.181v-5.411l12.716-7.347v5.39Zm0-6.174v-5.433l12.716-7.34v5.418Zm0-6.181V96.98l12.716-7.347v5.418Zm0-6.174V90.8l12.716-7.34v5.418Zm-.664.381-12.716,7.34V98.52l12.716-7.34Zm-13.366,7.721-12.716,7.34v-5.418l12.716-7.34Zm-13.373,7.714-12.716,7.347v-5.418l12.716-7.34Zm-13.373,7.722-12.716,7.34v-5.411l12.716-7.34Zm-13.373,7.721-12.716,7.34v-5.411l12.716-7.34ZM173.635,135.2l-12.716,7.34v-5.411l12.716-7.34Zm-13.373,7.721-12.716,7.34v-5.44l12.716-7.34Zm-13.373,7.721-12.716,7.34v-5.39l12.716-7.347ZM133.5,158.364l-12.716,7.34v-5.418l12.716-7.34Zm0,.756v5.418l-12.716,7.34V166.46Zm-26.082,21.243,12.716-7.34v5.418l-12.716,7.34Zm0,6.174,12.716-7.34v5.418l-12.716,7.34Zm0,6.181,12.716-7.34V190.8l-12.716,7.34Zm0,6.174,12.716-7.34v5.418l-12.716,7.34Zm0,6.181,12.716-7.34v5.418l-12.716,7.34Zm0,6.174,12.716-7.34v5.418l-12.716,7.34Zm0,6.181,12.716-7.34v5.418l-12.716,7.34Zm0,6.174,12.716-7.34v5.419l-12.716,7.34Zm0,6.181,12.716-7.34v5.418l-12.716,7.34Zm0,6.174,12.716-7.34v5.418l-12.716,7.34Zm0,6.181,12.716-7.34v5.39l-12.716,7.34Zm13.366-7.721,12.716-7.34V232.5l-12.716,7.34Zm12.716-1.166v5.4L120.779,246v-5.4Zm.657-.381,12.716-7.34v5.4l-12.716,7.34Zm13.373-7.714,12.716-7.34v5.419l-12.716,7.34Zm13.373-7.721,12.716-7.34v5.369l-12.716,7.34Zm13.373-7.721,12.716-7.34v5.4l-12.716,7.34Zm13.373-7.721,12.716-7.34v5.4l-12.716,7.34Zm13.373-7.721,12.716-7.34v5.4l-12.716,7.34Zm13.373-7.721,12.716-7.34v5.4l-12.716,7.34Zm13.345-7.721,12.716-7.34v5.4l-12.716,7.34Zm13.423-7.714,12.716-7.347v5.4l-12.716,7.34Zm0-.763v-5.418l12.716-7.34v5.418Zm26.082-21.236-12.716,7.34v-5.418l12.716-7.34Zm0-6.181-12.716,7.34v-5.418l12.716-7.333Zm0-6.174-12.73,7.354V138.7l12.716-7.34Zm0-6.181-12.716,7.34V132.5l12.716-7.34Zm0-6.174-12.716,7.34v-5.418l12.716-7.34Zm0-6.181-12.716,7.34v-5.418l12.716-7.34Zm0-6.174-12.73,7.34V113.97l12.716-7.34Zm0-6.181-12.716,7.34v-5.418l12.716-7.34Zm0-6.174-12.716,7.34v-5.418l12.716-7.34Zm0-6.181-12.716,7.34V95.433l12.716-7.34Zm0-6.174-12.73,7.326v-5.4l12.716-7.34Zm0-6.181L254.524,88.5V83.084l12.716-7.34ZM120.122,160.667v5.418l-12.716,7.333v-5.411Zm-12.716,87.649,12.716-7.34v5.4l-12.716,7.34Zm147.1-79.525v-5.4l12.716-7.34v5.4Z" transform="translate(-106.77 -74.6)" fill="#e0e0e0"/>
            <path id="Path_139100" data-name="Path 139100" d="M258.61,115.022,312.124,84.15v30.893L258.61,145.9Z" transform="translate(-151.343 -77.403)" fill="#fafafa"/>
            <path id="Path_139101" data-name="Path 139101" d="M258.1,146.263v-31.7l.177-.1L312.32,83.29V115Zm.706-31.289v30.067l52.807-30.455V84.5Z" transform="translate(-151.193 -77.151)" fill="#e0e0e0"/>
            <path id="Path_139102" data-name="Path 139102" d="M262.321,145.178h-.085a.275.275,0,0,1-.162-.346l7.234-19.781a.268.268,0,0,1,.382-.134l7.82,4.719L285.4,121.6a.268.268,0,0,1,.339,0l7.771,5.108,7.891-19.442a.268.268,0,0,1,.367-.134l8.018,4.112a.262.262,0,1,1-.24.466l-7.771-3.977-7.912,19.477a.254.254,0,0,1-.169.148.24.24,0,0,1-.219,0l-7.842-5.164-7.884,8.032a.268.268,0,0,1-.325.042l-7.721-4.62-7.121,19.449A.276.276,0,0,1,262.321,145.178Z" transform="translate(-152.355 -84.14)" fill="#455a64"/>
            <path id="Path_139103" data-name="Path 139103" d="M272.335,131.332a1.78,1.78,0,0,0-.805,1.413c0,.516.36.706.805.466a1.787,1.787,0,0,0,.805-1.413C273.141,131.283,272.78,131.064,272.335,131.332Z" transform="translate(-155.135 -91.22)" fill="#17c878"/>
            <path id="Path_139104" data-name="Path 139104" d="M283.665,138.1a1.8,1.8,0,0,0-.805,1.413c0,.516.36.706.805.466a1.8,1.8,0,0,0,.805-1.413C284.485,138.053,284.125,137.841,283.665,138.1Z" transform="translate(-158.461 -93.207)" fill="#17c878"/>
            <path id="Path_139105" data-name="Path 139105" d="M295.035,126.505a1.8,1.8,0,0,0-.805,1.413c0,.516.36.706.805.466a1.787,1.787,0,0,0,.805-1.413C295.841,126.463,295.48,126.251,295.035,126.505Z" transform="translate(-161.799 -89.805)" fill="#17c878"/>
            <path id="Path_139106" data-name="Path 139106" d="M306.385,133.962a1.78,1.78,0,0,0-.805,1.413c0,.516.36.706.805.466a1.78,1.78,0,0,0,.805-1.413A.5.5,0,0,0,306.385,133.962Z" transform="translate(-165.131 -91.999)" fill="#17c878"/>
            <path id="Path_139107" data-name="Path 139107" d="M317.735,106.042a1.78,1.78,0,0,0-.805,1.413c0,.516.36.706.805.466a1.787,1.787,0,0,0,.805-1.413C318.541,105.979,318.18,105.781,317.735,106.042Z" transform="translate(-168.462 -83.796)" fill="#17c878"/>
            <path id="Path_139108" data-name="Path 139108" d="M329.085,111.863a1.78,1.78,0,0,0-.805,1.413c0,.516.36.706.805.466a1.78,1.78,0,0,0,.805-1.413C329.891,111.814,329.53,111.6,329.085,111.863Z" transform="translate(-171.794 -85.506)" fill="#17c878"/>
          </g>
        </g>
      </g>
      <g id="freepik--Charts--inject-39" transform="translate(99.017 182.152)">
        <g id="freepik--charts--inject-39-2" data-name="freepik--charts--inject-39" transform="translate(91.53)">
          <path id="Path_139109" data-name="Path 139109" d="M359.958,245.19l-14.228,8.216,14.228,8.216,14.228-8.216Z" transform="translate(-289.567 -245.19)" fill="#455a64"/>
          <path id="Path_139110" data-name="Path 139110" d="M380.1,256.8v32.673l-14.228,8.216V265.037Z" transform="translate(-295.479 -248.598)" fill="#37474f"/>
          <path id="Path_139111" data-name="Path 139111" d="M359.958,265.037v32.652l-14.228-8.216V256.8Z" transform="translate(-289.567 -248.598)" fill="#263238"/>
          <path id="Path_139112" data-name="Path 139112" d="M333.458,280.55l-14.228,8.216,14.228,8.216,14.228-8.216Z" transform="translate(-281.788 -255.57)" fill="#17c878"/>
          <path id="Path_139113" data-name="Path 139113" d="M333.458,280.55l-14.228,8.216,14.228,8.216,14.228-8.216Z" transform="translate(-281.788 -255.57)" fill="#fff" opacity="0.3"/>
          <path id="Path_139114" data-name="Path 139114" d="M353.6,292.15v18.509l-14.228,8.216V300.387Z" transform="translate(-287.7 -258.975)" fill="#17c878"/>
          <path id="Path_139115" data-name="Path 139115" d="M333.458,300.39v18.488l-14.228-8.216v-18.5Z" transform="translate(-281.788 -258.978)" fill="#17c878"/>
          <path id="Path_139116" data-name="Path 139116" d="M333.458,300.39v18.488l-14.228-8.216v-18.5Z" transform="translate(-281.788 -258.978)" opacity="0.1"/>
          <path id="Path_139117" data-name="Path 139117" d="M306.958,284.97l-14.228,8.216,14.228,8.216,14.228-8.216Z" transform="translate(-274.009 -256.867)" fill="#17c878"/>
          <path id="Path_139118" data-name="Path 139118" d="M306.958,284.97l-14.228,8.216,14.228,8.216,14.228-8.216Z" transform="translate(-274.009 -256.867)" fill="#fff" opacity="0.88"/>
          <path id="Path_139119" data-name="Path 139119" d="M327.1,296.58v26.188l-14.228,8.216V304.81Z" transform="translate(-279.921 -260.276)" fill="#17c878"/>
          <path id="Path_139120" data-name="Path 139120" d="M327.1,296.58v26.188l-14.228,8.216V304.81Z" transform="translate(-279.921 -260.276)" fill="#fff" opacity="0.75"/>
          <path id="Path_139121" data-name="Path 139121" d="M306.958,304.81v26.174l-14.228-8.216V296.58Z" transform="translate(-274.009 -260.276)" fill="#17c878"/>
          <path id="Path_139122" data-name="Path 139122" d="M306.958,304.81v26.174l-14.228-8.216V296.58Z" transform="translate(-274.009 -260.276)" fill="#fff" opacity="0.6"/>
          <path id="Path_139123" data-name="Path 139123" d="M280.458,324.25l-14.228,8.216,14.228,8.216,14.228-8.216Z" transform="translate(-266.23 -268.398)" fill="#17c878"/>
          <path id="Path_139124" data-name="Path 139124" d="M280.458,324.25l-14.228,8.216,14.228,8.216,14.228-8.216Z" transform="translate(-266.23 -268.398)" opacity="0.3"/>
          <path id="Path_139125" data-name="Path 139125" d="M300.6,335.85V345.1L286.37,353.32v-9.233Z" transform="translate(-272.142 -271.803)" fill="#17c878"/>
          <path id="Path_139126" data-name="Path 139126" d="M300.6,335.85V345.1L286.37,353.32v-9.233Z" transform="translate(-272.142 -271.803)" opacity="0.4"/>
          <path id="Path_139127" data-name="Path 139127" d="M280.458,344.087v9.233L266.23,345.1V335.85Z" transform="translate(-266.23 -271.803)" fill="#17c878"/>
          <path id="Path_139128" data-name="Path 139128" d="M280.458,344.087v9.233L266.23,345.1V335.85Z" transform="translate(-266.23 -271.803)" opacity="0.55"/>
        </g>
        <g id="freepik--charts--inject-39-3" data-name="freepik--charts--inject-39" transform="translate(0 81.225)">
          <path id="Path_139129" data-name="Path 139129" d="M174.44,399.6v5.39l-5.32-14.461V385.15h0Z" transform="translate(-146.193 -367.5)" fill="#263238"/>
          <path id="Path_139130" data-name="Path 139130" d="M176.66,402.445v5.383l21.942-7.616V394.83Z" transform="translate(-148.406 -370.342)" fill="#37474f"/>
          <path id="Path_139131" data-name="Path 139131" d="M169.12,385.047l5.327,14.461,21.942-7.616C190.363,386.637,179.886,384.009,169.12,385.047Z" transform="translate(-146.193 -367.405)" fill="#455a64"/>
          <path id="Path_139132" data-name="Path 139132" d="M136.669,407a1.249,1.249,0,0,0,0,.162Z" transform="translate(-136.666 -373.915)" fill="#17c878"/>
          <path id="Path_139133" data-name="Path 139133" d="M162.745,412.88l-3.221,15.33c-13.3-1.3-22.917-8.025-22.8-15.719V407.25c0,7.63,9.587,14.291,22.811,15.577l2.232-10.533Z" transform="translate(-136.682 -373.988)" fill="#17c878"/>
          <path id="Path_139134" data-name="Path 139134" d="M162.745,412.88l-3.221,15.33c-13.3-1.3-22.917-8.025-22.8-15.719V407.25c0,7.63,9.587,14.291,22.811,15.577l2.232-10.533Z" transform="translate(-136.682 -373.988)" opacity="0.4"/>
          <path id="Path_139135" data-name="Path 139135" d="M172.48,422.1v5.383a42.464,42.464,0,0,0,16.192-2.239c6.273-2.176,10.7-5.652,12.476-9.728a9.749,9.749,0,0,0,.819-3.758v-5.567a5.727,5.727,0,0,1-3.3-2.013l-4.112,1.413-18.813,6.528Z" transform="translate(-147.179 -373.087)" fill="#17c878"/>
          <path id="Path_139136" data-name="Path 139136" d="M172.48,422.1v5.383a42.464,42.464,0,0,0,16.192-2.239c6.273-2.176,10.7-5.652,12.476-9.728a9.749,9.749,0,0,0,.819-3.758v-5.567a5.727,5.727,0,0,1-3.3-2.013l-4.112,1.413-18.813,6.528Z" transform="translate(-147.179 -373.087)" fill="#fff" opacity="0.6"/>
          <path id="Path_139137" data-name="Path 139137" d="M149.3,396.073l16.347,9.438v-5.383L149.3,390.69Z" transform="translate(-140.375 -369.127)" fill="#17c878"/>
          <path id="Path_139138" data-name="Path 139138" d="M149.3,396.073l16.347,9.438v-5.383L149.3,390.69Z" transform="translate(-140.375 -369.127)" opacity="0.1"/>
          <path id="Path_139139" data-name="Path 139139" d="M136.915,400.872c-1.787,8.414,8.273,16.121,22.606,17.52l3.257-15.33L143.859,392.14C139.875,394.62,137.621,397.481,136.915,400.872Z" transform="translate(-136.679 -369.552)" fill="#17c878"/>
          <path id="Path_139140" data-name="Path 139140" d="M136.915,400.872c-1.787,8.414,8.273,16.121,22.606,17.52l3.257-15.33L143.859,392.14C139.875,394.62,137.621,397.481,136.915,400.872Z" transform="translate(-136.679 -369.552)" opacity="0.3"/>
          <path id="Path_139141" data-name="Path 139141" d="M172.572,419.447l-.092.445a42.465,42.465,0,0,0,16.192-2.211c6.273-2.176,10.7-5.652,12.476-9.728,1.667-3.864.784-7.863-2.48-11.3l-4.112,1.413-18.813,6.528Z" transform="translate(-147.179 -370.876)" fill="#17c878"/>
          <path id="Path_139142" data-name="Path 139142" d="M172.572,419.447l-.092.445a42.465,42.465,0,0,0,16.192-2.211c6.273-2.176,10.7-5.652,12.476-9.728,1.667-3.864.784-7.863-2.48-11.3l-4.112,1.413-18.813,6.528Z" transform="translate(-147.179 -370.876)" fill="#fff" opacity="0.75"/>
          <path id="Path_139143" data-name="Path 139143" d="M149.3,389.187l16.347,9.438-4.8-13.055a33.481,33.481,0,0,0-11.543,3.617Z" transform="translate(-140.375 -367.624)" fill="#17c878"/>
          <path id="Path_139144" data-name="Path 139144" d="M172.2,412.983V407.6l-3.264,15.33v5.383Z" transform="translate(-146.14 -374.091)" fill="#17c878"/>
          <path id="Path_139145" data-name="Path 139145" d="M172.2,412.983V407.6l-3.264,15.33v5.383Z" transform="translate(-146.14 -374.091)" opacity="0.55"/>
          <path id="Path_139146" data-name="Path 139146" d="M201.6,373.71l-3.56,2.056,3.56,2.056,3.561-2.056Z" transform="translate(-154.683 -364.142)" fill="#17c878"/>
          <path id="Path_139147" data-name="Path 139147" d="M201.6,373.71l-3.56,2.056,3.56,2.056,3.561-2.056Z" transform="translate(-154.683 -364.142)" opacity="0.3"/>
          <path id="Path_139148" data-name="Path 139148" d="M206.641,376.62v2.063l-3.561,2.056v-2.063Z" transform="translate(-156.162 -364.996)" fill="#17c878"/>
          <path id="Path_139149" data-name="Path 139149" d="M206.641,376.62v2.063l-3.561,2.056v-2.063Z" transform="translate(-156.162 -364.996)" opacity="0.4"/>
          <path id="Path_139150" data-name="Path 139150" d="M201.6,378.676v2.063l-3.56-2.056V376.62Z" transform="translate(-154.683 -364.996)" fill="#17c878"/>
          <path id="Path_139151" data-name="Path 139151" d="M201.6,378.676v2.063l-3.56-2.056V376.62Z" transform="translate(-154.683 -364.996)" opacity="0.55"/>
          <path id="Path_139152" data-name="Path 139152" d="M210.523,368.138l13.2-7.616a3.052,3.052,0,0,1,2.762-.049c.706.424.706,1.137-.092,1.6l-13.2,7.616a3.073,3.073,0,0,1-2.762.049C209.7,369.31,209.731,368.6,210.523,368.138Z" transform="translate(-158.165 -360.167)" fill="#e0e0e0"/>
          <path id="Path_139153" data-name="Path 139153" d="M212.961,380.27l-3.561,2.056,3.561,2.056,3.561-2.056Z" transform="translate(-158.017 -366.068)" fill="#17c878"/>
          <path id="Path_139154" data-name="Path 139154" d="M212.961,380.27l-3.561,2.056,3.561,2.056,3.561-2.056Z" transform="translate(-158.017 -366.068)" fill="#fff" opacity="0.88"/>
          <path id="Path_139155" data-name="Path 139155" d="M218,383.17v2.063l-3.561,2.056v-2.056Z" transform="translate(-159.497 -366.919)" fill="#17c878"/>
          <path id="Path_139156" data-name="Path 139156" d="M218,383.17v2.063l-3.561,2.056v-2.056Z" transform="translate(-159.497 -366.919)" fill="#fff" opacity="0.75"/>
          <path id="Path_139157" data-name="Path 139157" d="M212.961,385.233v2.056l-3.561-2.056V383.17Z" transform="translate(-158.017 -366.919)" fill="#17c878"/>
          <path id="Path_139158" data-name="Path 139158" d="M212.961,385.233v2.056l-3.561-2.056V383.17Z" transform="translate(-158.017 -366.919)" fill="#fff" opacity="0.6"/>
          <path id="Path_139159" data-name="Path 139159" d="M221.884,374.686l13.189-7.616a3.052,3.052,0,0,1,2.762-.057c.742.431.706,1.144-.085,1.6l-13.2,7.63a3.073,3.073,0,0,1-2.762.049C221.079,375.859,221.079,375.145,221.884,374.686Z" transform="translate(-161.501 -362.088)" fill="#e0e0e0"/>
          <path id="Path_139160" data-name="Path 139160" d="M224.311,386.83l-3.561,2.056,3.568,2.056,3.561-2.056Z" transform="translate(-161.349 -367.994)" fill="#17c878"/>
          <path id="Path_139161" data-name="Path 139161" d="M224.311,386.83l-3.561,2.056,3.568,2.056,3.561-2.056Z" transform="translate(-161.349 -367.994)" fill="#fff" opacity="0.3"/>
          <path id="Path_139162" data-name="Path 139162" d="M229.361,389.73v2.063l-3.561,2.056v-2.056Z" transform="translate(-162.831 -368.845)" fill="#17c878"/>
          <path id="Path_139163" data-name="Path 139163" d="M224.318,391.793v2.056l-3.568-2.056V389.73Z" transform="translate(-161.349 -368.845)" fill="#17c878"/>
          <path id="Path_139164" data-name="Path 139164" d="M224.318,391.793v2.056l-3.568-2.056V389.73Z" transform="translate(-161.349 -368.845)" opacity="0.1"/>
          <path id="Path_139165" data-name="Path 139165" d="M233.234,381.256l13.2-7.623a3.073,3.073,0,0,1,2.762-.049c.742.431.706,1.144-.085,1.6l-13.2,7.615a3.052,3.052,0,0,1-2.762.057C232.408,382.421,232.45,381.708,233.234,381.256Z" transform="translate(-164.833 -364.016)" fill="#e0e0e0"/>
          <path id="Path_139166" data-name="Path 139166" d="M235.671,393.38l-3.561,2.056,3.561,2.056,3.561-2.056Z" transform="translate(-164.684 -369.916)" fill="#455a64"/>
          <path id="Path_139167" data-name="Path 139167" d="M240.711,396.29v2.063l-3.561,2.056v-2.063Z" transform="translate(-166.163 -370.771)" fill="#37474f"/>
          <path id="Path_139168" data-name="Path 139168" d="M235.671,398.346v2.063l-3.561-2.056V396.29Z" transform="translate(-164.684 -370.771)" fill="#263238"/>
          <path id="Path_139169" data-name="Path 139169" d="M244.594,387.816l13.2-7.623a3.073,3.073,0,0,1,2.762-.049c.742.424.706,1.137-.092,1.6l-13.189,7.616a3.052,3.052,0,0,1-2.762.049C243.768,388.982,243.81,388.268,244.594,387.816Z" transform="translate(-168.168 -365.942)" fill="#e0e0e0"/>
        </g>
      </g>
      <g id="freepik--Character--inject-39" transform="translate(229.829 149.8)">
        <g id="freepik--character--inject-39-2" data-name="freepik--character--inject-39">
          <path id="Path_139170" data-name="Path 139170" d="M395.23,235.48c4.9,0,7.22,1.413,8.986,6.061s6.436,15.436,6.528,18.629c.1,3.313-10.6,13.359-10.187,13.189.113-.056-3.257-6.09-3.257-6.09l6-7.354-3.44-9.982Z" transform="translate(-343.38 -209.987)" fill="#ffa8a7"/>
          <path id="Path_139171" data-name="Path 139171" d="M398.341,387.99c.3.29.36.565.346,1.611s.431,2.211-.106,3.186c-.4.706-2.444,1.229-3.483.706a10.689,10.689,0,0,1-2.4-2.155,16.734,16.734,0,0,0-2.119-2.027c-.883-.657-1.907-1.095-2.826-1.7a5.652,5.652,0,0,1-2.557-4.239,2.734,2.734,0,0,1,.325-1.611,1.837,1.837,0,0,1,1.844-.608,25.655,25.655,0,0,1,5.15,2.586C393.53,384.408,398.03,387.693,398.341,387.99Z" transform="translate(-340.429 -252.736)" fill="#263238"/>
          <path id="Path_139172" data-name="Path 139172" d="M394.683,384.379c-.035.749-3.193-1-4.486-.834h-.035c-1.208.579-.2,2.268.911,3.13s4.776,3.532,4.776,3.532l.749-4.331Z" transform="translate(-341.731 -253.449)" fill="#ffa8a7"/>
          <path id="Path_139173" data-name="Path 139173" d="M369.52,402c.586,0,.848,1.922.961,3.4.078,1.144.516,3.017.106,3.857s-1.943,1.363-4.323,1.314a14.426,14.426,0,0,0-5.616,1.879,8.477,8.477,0,0,1-5.355.671c-2.119-.276-4.3-1.533-4.627-2.409s.12-1.3,5.136-3.363c.049,0,5.3-2.31,7.771-4.945Z" transform="translate(-330.273 -258.869)" fill="#263238"/>
          <path id="Path_139174" data-name="Path 139174" d="M357.229,407.5c-.706.283-1.293.537-1.823.763-.134.473.049,1.229,2.268,1.6,3.377.565,13.31-6.916,13.31-6.916s-1.413.4-1.688-.417h-4.316C362.506,405.193,357.229,407.482,357.229,407.5Z" transform="translate(-331.68 -259.025)" fill="#ffa8a7"/>
          <path id="Path_139175" data-name="Path 139175" d="M395.305,333.084a42.891,42.891,0,0,0-.975-9.8s.593-12.617.657-20.544c.134-15.683-.163-17.986-3.631-24.726,0,0-20.254-2.367-21.109,7.5-1.06,12.292-2.3,32.857-2.268,38.713,0,4.359.523,9.085.763,18.968.155,6.358.819,15.273-.085,22.762,1.145,1.921,4.239,1.886,6,.389.509-7.333,4.154-21.377,4.719-26.273a41.629,41.629,0,0,0-.438-10.6s2.685-20.939,3.158-24.125a59.228,59.228,0,0,1,1.173,10.229c0,1.413.48,6.054,1.279,13.9.487,4.776,3.864,23.44,4.6,29.438,1.7,1.639,3.885.509,3.984-.2C393.7,351.4,395.305,337.655,395.305,333.084Z" transform="translate(-335.38 -222.401)" fill="#ffa8a7"/>
          <path id="Path_139176" data-name="Path 139176" d="M388,310.828l1.787-10.166a13.91,13.91,0,0,0,7.976-4.182s-1.074,4.062-6.358,5.447l-2.119,9.184-.353,8.386Z" transform="translate(-341.258 -227.894)" opacity="0.15"/>
          <path id="Path_139177" data-name="Path 139177" d="M380.78,230.028l.841,9.212,8.1-.487-.622-10.222Z" transform="translate(-339.138 -207.947)" fill="#ffa8a7"/>
          <path id="Path_139178" data-name="Path 139178" d="M393.449,268.055a37.288,37.288,0,0,0-3.532-7c3.462-11.148,4.571-14.9,3.9-19.668-.431-3.031-2.826-6.061-5.765-5.9h-2.218c-.127,2.119-6,2.211-8.223.756l-2.056.057c-1.448.516-6.358,7.771-6.923,12.539-.445,3.893,2.614,7.269,2.614,7.269a38,38,0,0,1-.29,4.945v14.129s1.137,3.617,13.02,2.487c10.6-1,10.823-4.613,10.823-4.613A22.229,22.229,0,0,0,393.449,268.055Z" transform="translate(-335.559 -209.988)" fill="#17c878"/>
          <g id="Group_95843" data-name="Group 95843" transform="translate(33.028 25.493)" opacity="0.3">
            <path id="Path_139179" data-name="Path 139179" d="M393.449,268.055a37.288,37.288,0,0,0-3.532-7c3.462-11.148,4.571-14.9,3.9-19.668-.431-3.031-2.826-6.061-5.765-5.9h-2.218c-.127,2.119-6,2.211-8.223.756l-2.056.057c-1.448.516-6.358,7.771-6.923,12.539-.445,3.893,2.614,7.269,2.614,7.269a38,38,0,0,1-.29,4.945v14.129s1.137,3.617,13.02,2.487c10.6-1,10.823-4.613,10.823-4.613A22.229,22.229,0,0,0,393.449,268.055Z" transform="translate(-368.587 -235.481)"/>
          </g>
          <path id="Path_139180" data-name="Path 139180" d="M379.083,200.1a7.517,7.517,0,0,0-6.506,2.36c-4.14,4.663.4,8.1.4,8.1l6.1-10.455" transform="translate(-336.219 -199.584)" fill="#263238"/>
          <path id="Path_139181" data-name="Path 139181" d="M371.66,216.31s-1.8,2.706-1.568,3a4.239,4.239,0,0,0,1.371.593Z" transform="translate(-335.994 -204.36)" fill="#f28f8f"/>
          <path id="Path_139182" data-name="Path 139182" d="M377.694,203.89c-1.745.9-4.761,2.55-5.553,8.965-.812,6.591.65,8.88,1.547,9.749.6.586,3.73.805,5.362.3,2.049-.629,6.478-2.826,8.555-6.2,2.451-3.991,2.974-9.325.162-11.423A10.587,10.587,0,0,0,377.694,203.89Z" transform="translate(-336.533 -200.51)" fill="#ffa8a7"/>
          <path id="Path_139183" data-name="Path 139183" d="M377.7,210.355c-3.652-1.858-2.72-6.7-2.72-6.7s5.214-7.453,14.835-2.635c3.327,1.667,5.327,5.454,5.249,9.89h0a10.441,10.441,0,0,1-10.441,10.441h0a6.09,6.09,0,0,1-6.09-6.09v-.4l.311.1a3.087,3.087,0,0,0,2.826-.756c1.6-1.413,1.794-4.09-.233-4.769s-3.08,1.7-3.08,1.7h0l-.784,2.119a1.533,1.533,0,0,1-.918-1.964A1.491,1.491,0,0,1,377.7,210.355Z" transform="translate(-337.403 -199.395)" fill="#263238"/>
          <path id="Path_139184" data-name="Path 139184" d="M340.4,217.01l-17.365,8.7,8.167,23.532,16.22-8.732Z" transform="translate(-322.188 -204.566)" fill="#17c878"/>
          <path id="Path_139185" data-name="Path 139185" d="M340.4,220.23l-14.567,7.3,7.234,20.24,13.606-7.326Z" transform="translate(-323.008 -205.511)" fill="#f5f5f5"/>
          <path id="Path_139186" data-name="Path 139186" d="M338.89,222.855l-.268-.706c-.148-.4-1.356-.177-2.7.487l-2.564,1.265c-1.335.664-2.3,1.526-2.155,1.929l.268.706Z" transform="translate(-324.581 -206.016)" opacity="0.15"/>
          <path id="Path_139187" data-name="Path 139187" d="M338.059,219.06c-.092-.254-.615-.219-1.173.071l-1,.516s-.586-1.554-2.9-.523-1.816,2.826-1.816,2.826l-1.067.565c-.586.311-1.01.77-.947,1.017l.12.459,8.951-4.472Z" transform="translate(-323.982 -205.082)" fill="#37474f"/>
          <path id="Path_139188" data-name="Path 139188" d="M337.838,220.479c-.834.4-1.159.586-.933,1.2s.5,1.2.5,1.2l-3.956,1.985s-.311-.89-.452-1.229-.417-.516-1.046-.2l-.233-.254,6.245-3.045Z" transform="translate(-324.737 -205.484)" fill="#263238"/>
          <path id="Path_139189" data-name="Path 139189" d="M339.123,222.914l-.261-.706c-.148-.4-1.356-.184-2.7.48l-2.564,1.272c-1.342.664-2.3,1.526-2.155,1.922l.261.706Z" transform="translate(-324.651 -206.033)" fill="#37474f"/>
          <path id="Path_139190" data-name="Path 139190" d="M369.855,236.639c-2.734-.042-4.387.2-8.117,5.736s-10.653,15.711-11.459,17.061a6.951,6.951,0,0,0-.466,6.358c.855,1.6,2.367,2.162,6.669-2.409,3.179-3.384,9.89-12.37,9.89-12.37S371.564,241.329,369.855,236.639Z" transform="translate(-329.88 -210.326)" fill="#ffa8a7"/>
          <path id="Path_139191" data-name="Path 139191" d="M343.463,267.651c-2.254.706-10.526-9.141-12.822-12.1a34.221,34.221,0,0,0-6.457-6.556c-3.186-2.437-2.656-6.09-1.194-9.417.509-1.159,2.119-.374,2.119-.374l.558,1.6.961,2.776c.671.643,1.06.855,1.1.664.092-.353-.466-1.844-.431-3.391.049-1.858,1.335-.615,1.71.042a23.158,23.158,0,0,1,1.321,3.1c.622,1.674.325,3.349,1.1,4.5s12.01,10.477,12.01,10.477Z" transform="translate(-321.835 -211.004)" fill="#ffa8a7"/>
          <path id="Path_139192" data-name="Path 139192" d="M389.558,271.68s-7.919,4.677-19.011,0a162.893,162.893,0,0,0-2.013,17.576c-.4,7.5-1.265,23.6-1.265,23.6s3.271,3.822,14.956,3.045c11.233-.706,13.211-3.674,13.211-3.674s0-14.461.085-20.784C395.6,283.365,394.468,278.971,389.558,271.68Z" transform="translate(-335.172 -220.614)" fill="#17c878"/>
          <path id="Path_139193" data-name="Path 139193" d="M389.558,271.68s-7.919,4.677-19.011,0a162.893,162.893,0,0,0-2.013,17.576c-.4,7.5-1.265,23.6-1.265,23.6s3.271,3.822,14.956,3.045c11.233-.706,13.211-3.674,13.211-3.674s0-14.461.085-20.784C395.6,283.365,394.468,278.971,389.558,271.68Z" transform="translate(-335.172 -220.614)" opacity="0.5"/>
          <path id="Path_139194" data-name="Path 139194" d="M403.337,210.37l1.858-1.7a1.625,1.625,0,0,0-2.748,1.568c-.226,0-.459-.035-.706-.035V225.1a7.771,7.771,0,0,0,7.736,7.771V217.936A7.771,7.771,0,0,0,403.337,210.37Z" transform="translate(-345.291 -201.966)" fill="#263238"/>
        </g>
      </g>
    </g>
    <rect id="Rectangle_32628" data-name="Rectangle 32628" width="610" height="326" transform="translate(6180 -8723)" fill="none"/>
  </g>
</svg>
