<svg xmlns="http://www.w3.org/2000/svg" xmlns:xlink="http://www.w3.org/1999/xlink" width="469.113" height="393" viewBox="0 0 469.113 393">
  <defs>
    <linearGradient id="linear-gradient" x1="0.533" y1="1.11" x2="0.477" y2="0.077" gradientUnits="objectBoundingBox">
      <stop offset="0.014" stop-color="#ffb000"/>
      <stop offset="0.812" stop-color="#ffd234"/>
    </linearGradient>
    <linearGradient id="linear-gradient-2" x1="0.483" y1="0.5" x2="0.804" y2="0.5" xlink:href="#linear-gradient"/>
    <linearGradient id="linear-gradient-3" x1="0" y1="0.5" x2="1" y2="0.5" xlink:href="#linear-gradient"/>
    <linearGradient id="linear-gradient-8" x1="0.032" y1="0.519" x2="0.601" y2="0.496" xlink:href="#linear-gradient"/>
    <linearGradient id="linear-gradient-9" x1="0.492" y1="1.002" x2="0.51" y2="-0.083" xlink:href="#linear-gradient"/>
  </defs>
  <g id="banner-princiapal" transform="translate(-2472.74 1401.803)">
    <path id="Path_139998" data-name="Path 139998" d="M2709.284-1048.917l8.279,11.2,8.28,11.2,11.6-5.432a65.208,65.208,0,0,0,15.6,9.374l.638,12.805,13.774,2.065,13.774,2.065,4.366-12.055a65.146,65.146,0,0,0,17.664-4.386l9.5,8.6,11.2-8.279,11.2-8.28-5.433-11.6a65.185,65.185,0,0,0,9.375-15.6l12.805-.637,2.065-13.775,2.065-13.774-12.055-4.366a65.23,65.23,0,0,0-4.387-17.664l8.6-9.5-8.28-11.2-8.28-11.2-11.6,5.433a65.227,65.227,0,0,0-15.6-9.374l-.639-12.8-13.774-2.065-13.774-2.066-4.365,12.055a65.218,65.218,0,0,0-17.665,4.386l-9.5-8.6-11.2,8.28-11.2,8.279,5.433,11.6a65.187,65.187,0,0,0-9.374,15.6l-12.806.637-2.065,13.775-2.065,13.774,12.055,4.365a65.181,65.181,0,0,0,4.386,17.665Zm41.992-13.722a34.15,34.15,0,0,1,7.161-47.762,34.15,34.15,0,0,1,47.761,7.161,34.151,34.151,0,0,1-7.16,47.762A34.151,34.151,0,0,1,2751.276-1062.639Z" transform="translate(-117.279 -123.877)" fill="#d2f6e6"/>
    <g id="Group_96216" data-name="Group 96216" transform="translate(2690.594 -1100.669)">
      <path id="Path_139999" data-name="Path 139999" d="M2927.478-781.766s-.3-1.449-2.42-1.444c-2.937.01-3.174,4.184-2.677,6.78.658,3.443,1.9,4.848-.472,13.775,0,0,5.256-11.035,4.431-14.317C2925.734-779.379,2927.478-781.766,2927.478-781.766Z" transform="translate(-2920.934 783.447)" fill="#3a3f47"/>
      <path id="Path_140000" data-name="Path 140000" d="M2967.249-728.151s1.251-.631,1.238-1.315a5.88,5.88,0,0,1,.414-1.895c.152-.382.206-1.747.665-1.539s.013,2.258,0,2.708,1.48-.769,1.921-.761,2.247,2.786,1.13,3.5a8.226,8.226,0,0,1-2.937.843c-.233.084-1.075.4-1.075.4Z" transform="translate(-2944.185 757.658)" fill="#eea886"/>
      <path id="Path_140001" data-name="Path 140001" d="M2975.337-730.621a27.813,27.813,0,0,1,3.9-1.845c.342.084.433.3.107.493s-3.388,1.971-3.388,1.971,4.587-1.523,4.88-1.52c.172,0,.369.4.2.527s-4.625,1.912-4.625,1.912,4.285-1.416,4.531-1.334a.338.338,0,0,1,0,.616c-.311.128-4.215,1.681-4.215,1.681s3.184-.819,3.355-.621c.105.121.291.461-.537.645s-2.736.838-2.736.838Z" transform="translate(-2948.332 757.426)" fill="#ffb490"/>
      <path id="Path_140002" data-name="Path 140002" d="M2943.482-720.437s5.827-1.292,6.951-1.634c1.291-.392,3.817-1.058,3.817-1.058l1.356,1.938s-7.521,3.856-8.907,4.4c-1.292.512-4.8,1.776-4.8,1.776Z" transform="translate(-2931.186 752.636)" fill="#eea886"/>
      <path id="Path_140003" data-name="Path 140003" d="M2990.688-668.006s1.7,7.255,1.758,8.677,4.969,20.332,5.327,21.272-1.843,1.74-2.469,1.12-5.492-11.167-6.606-13.126-3.838-6.509-3.991-11.059S2990.688-668.006,2990.688-668.006Z" transform="translate(-2953.136 724.369)" fill="#ffb490"/>
      <path id="Path_140004" data-name="Path 140004" d="M2985.256-664.073s-2.648,6.966-3.4,8.175-7.254,19.633-7.485,20.612-2.486.326-2.66-.537,1.681-12.244,1.855-14.49.544-8.084,2.962-11.942S2985.256-664.073,2985.256-664.073Z" transform="translate(-2946.469 722.628)" fill="#ffb490"/>
      <g id="Group_96210" data-name="Group 96210" transform="translate(24.66 85.922)">
        <path id="Path_140005" data-name="Path 140005" d="M2971-606.423s2.953-.683,3.043-.76.119-.252.513-.071.528.8.913,1.009,2.752,1.035,4.036,1.749c.463.257,2.438,1.126,2.7,1.782s.12,1.614-3.327,1.213-7.255-.1-7.993-.52S2970.747-605.432,2971-606.423Z" transform="translate(-2970.524 607.332)" fill="#fb9e36"/>
      </g>
      <g id="Group_96211" data-name="Group 96211" transform="translate(42.011 85.905)">
        <path id="Path_140006" data-name="Path 140006" d="M3006.144-605.768s2.737-1.3,2.81-1.395.062-.272.484-.179.688.665,1.109.791,2.91.419,4.317.841c.509.153,2.623.577,3.016,1.162s.463,1.552-2.989,1.9-7.108,1.457-7.918,1.209S3006.114-604.747,3006.144-605.768Z" transform="translate(-3006.138 607.368)" fill="#fb9e36"/>
      </g>
      <path id="Path_140007" data-name="Path 140007" d="M2933.794-690.433s22.844,5.019,24.9,12.338a11.813,11.813,0,0,0-8.172,1.1s-10.7.071-21.265.046c-1.33,0-10.643-2.648-9.2-10.487C2921.522-695.378,2933.794-690.433,2933.794-690.433Z" transform="translate(-2919.907 736.649)" fill="#fb9e36"/>
      <g id="Group_96212" data-name="Group 96212" transform="translate(3.559 9.744)">
        <path id="Path_140008" data-name="Path 140008" d="M2933.661-758.981a5.145,5.145,0,0,0-.9,1.244,12.307,12.307,0,0,0-.649,1.412,17.96,17.96,0,0,0-.611,1.86s-5.4-2.854-4.085-3.933,1.894-5.3,1.894-5.3S2934.756-760.027,2933.661-758.981Z" transform="translate(-2927.212 763.695)" fill="#ffb490"/>
      </g>
      <g id="Group_96213" data-name="Group 96213" transform="translate(5.209 1.341)">
        <path id="Path_140009" data-name="Path 140009" d="M2941.719-778s1.116,1.689-.568,5.189c0,0-.491,3.024-.185,3.661s-1.4.364-1.677.684a7.584,7.584,0,0,1-2.53,2.671c-1.443.719-6.283-4.006-6.068-5.854s-1.63-10.537,4.732-9.14S2941.719-778,2941.719-778Z" transform="translate(-2930.6 780.943)" fill="#ffb490"/>
      </g>
      <g id="Group_96214" data-name="Group 96214" transform="translate(4.993 0)">
        <path id="Path_140010" data-name="Path 140010" d="M2941.45-775.506s2.834-7.453-4.961-8.153-6.3,8.724-6.062,11.728c0,0,1.058-4.266,4.667-3.409A10.128,10.128,0,0,0,2941.45-775.506Z" transform="translate(-2930.156 783.696)" fill="#3a3f47"/>
      </g>
      <g id="Group_96215" data-name="Group 96215" transform="translate(7.6 6.476)">
        <path id="Path_140011" data-name="Path 140011" d="M2937.556-769.76a1.061,1.061,0,0,0-2.031.319c-.154,1.232.744,2.754,1.31,2.294A2.38,2.38,0,0,0,2937.556-769.76Z" transform="translate(-2935.507 770.404)" fill="#eea886"/>
      </g>
      <path id="Path_140012" data-name="Path 140012" d="M2935.446-754.674a12.4,12.4,0,0,0-.649,1.412c-1.668-1.4-2.355-4.461-2.355-4.461a15.283,15.283,0,0,0,3,3.047Z" transform="translate(-2926.335 770.376)" fill="#a77860"/>
      <path id="Path_140013" data-name="Path 140013" d="M2928.712-749.749s4.762,5.449,5.367,5.881,2.418,4.317,0,6.649a15.693,15.693,0,0,1-.651,3.432c-.432.95-.125,10.731.565,11.853s-9.11,4.849-13.774,3.338c0,0,1.322-6.273,1.755-9.468s-1.5-12.505-1.539-15.01,1.693-8.863,3.395-9.557S2928.712-749.749,2928.712-749.749Z" transform="translate(-2920.066 767.811)" fill="#f0fff8"/>
      <rect id="Rectangle_32761" data-name="Rectangle 32761" width="18.214" height="1.123" transform="matrix(-0.949, -0.316, 0.316, -0.949, 33.15, 52.629)" fill="#6e6760"/>
      <rect id="Rectangle_32762" data-name="Rectangle 32762" width="18.214" height="1.123" transform="translate(47.714 41.671) rotate(143.046)" fill="#6e6760"/>
      <path id="Path_140014" data-name="Path 140014" d="M2970.292-686.384c.145-.375.173-.979-.949-1.814s-3.571-3.138-4.491-3.31a7.883,7.883,0,0,0-1.986.173c-.375-.059-.863,2.188-.863,2.188Z" transform="translate(-2941.494 736.443)" fill="#eea886"/>
      <path id="Path_140015" data-name="Path 140015" d="M2943.284-716.236s-4.9-2.016-5.735-2.418-4.865-1.813-5.21-1.986-2.16-9.616-2.3-12.062-.288-7.629-3.052-7.4-3.426,2.044-3.081,5.614,2.389,16.351,3.254,16.783,11.092,2.47,15.986,3.91S2943.284-716.236,2943.284-716.236Z" transform="translate(-2921.913 761.344)" fill="#ffb490"/>
      <path id="Path_140016" data-name="Path 140016" d="M2931.363-779.456a8.294,8.294,0,0,0-1.05,3.688A2.932,2.932,0,0,1,2931.363-779.456Z" transform="translate(-2925.104 781.522)" fill="#5f8cc9"/>
    </g>
    <g id="Group_96219" data-name="Group 96219" transform="translate(2486.205 -1192.947)">
      <g id="Group_96218" data-name="Group 96218" transform="translate(0 0)">
        <g id="Group_96217" data-name="Group 96217">
          <path id="Rectangle_32763" data-name="Rectangle 32763" d="M12.164,0H90.725a12.162,12.162,0,0,1,12.162,12.162V122.493a12.164,12.164,0,0,1-12.164,12.164H12.164A12.164,12.164,0,0,1,0,122.493V12.164A12.164,12.164,0,0,1,12.164,0Z" fill="#f0fff8"/>
        </g>
      </g>
    </g>
    <rect id="Rectangle_32764" data-name="Rectangle 32764" width="66.73" height="42.178" rx="5.204" transform="translate(2589.182 -1141.297) rotate(-180)" fill="#8affc9"/>
    <g id="Group_96222" data-name="Group 96222" transform="translate(2830.199 -1267.6)">
      <g id="Group_96221" data-name="Group 96221">
        <g id="Group_96220" data-name="Group 96220">
          <path id="Path_140017" data-name="Path 140017" d="M3310.323-1117.595s-73.8-27.771-97.753,15.673c-19.168,34.762,12.889,38.185,12.889,38.185s3.072,18.988,37.059-27.985C3278.538-1113.862,3310.323-1117.595,3310.323-1117.595Z" transform="translate(-3206.46 1126.338)" fill="#d2f6e6"/>
        </g>
      </g>
    </g>
    <g id="Group_96225" data-name="Group 96225" transform="translate(2764.772 -1378.534)">
      <g id="Group_96224" data-name="Group 96224" transform="translate(0)">
        <g id="Group_96223" data-name="Group 96223">
          <path id="Path_140018" data-name="Path 140018" d="M3248.016-1352.7s-63.9-16.417-101.4,65.46-74.446,90.025-74.446,90.025S3215.781-1178.687,3248.016-1352.7Z" transform="translate(-3072.166 1354.041)" fill="#3be397"/>
        </g>
      </g>
    </g>
    <g id="Group_96228" data-name="Group 96228" transform="translate(2784.447 -1401.803)">
      <g id="Group_96227" data-name="Group 96227">
        <g id="Group_96226" data-name="Group 96226">
          <path id="Path_140019" data-name="Path 140019" d="M3119.276-1218.387c6.82,26.271,65.05-27.907,68.769-74.1s-9.854-79.281.771-109.318C3188.816-1401.8,3085.69-1347.749,3119.276-1218.387Z" transform="translate(-3112.551 1401.803)" fill="#238558"/>
        </g>
      </g>
    </g>
    <path id="Path_140020" data-name="Path 140020" d="M2950.466-1291.655l.134,11.994.135,11.993,10.839,2.056a56.138,56.138,0,0,0,6.167,14.41l-6.01,9.262,8.577,8.386,8.575,8.385,9.125-6.216a56.147,56.147,0,0,0,14.545,5.842l2.3,10.79,11.994-.135,11.994-.135,2.055-10.839a56.145,56.145,0,0,0,14.41-6.168l9.263,6.01,8.385-8.577,8.386-8.576-6.216-9.125a56.142,56.142,0,0,0,5.843-14.545l10.79-2.3-.135-11.994-.134-11.994-10.839-2.055a56.151,56.151,0,0,0-6.168-14.41l6.01-9.263-8.576-8.385-8.575-8.386-9.125,6.216a56.161,56.161,0,0,0-14.545-5.842l-2.3-10.79-11.994.135-11.994.135-2.055,10.838a56.137,56.137,0,0,0-14.411,6.168l-9.262-6.01-8.386,8.576-8.385,8.576,6.217,9.125a56.105,56.105,0,0,0-5.843,14.545Zm36.236,11.589a29.41,29.41,0,0,1,29.078-29.738,29.41,29.41,0,0,1,29.738,29.077,29.41,29.41,0,0,1-29.078,29.738A29.41,29.41,0,0,1,2986.7-1280.066Z" transform="translate(-244.984 -28.595)" fill="#d2f6e6"/>
    <g id="Group_96234" data-name="Group 96234" transform="translate(2673.164 -1354.806)">
      <g id="Group_96229" data-name="Group 96229" transform="translate(64.46 77.143)">
        <path id="Path_140021" data-name="Path 140021" d="M3019.46-1054.52c1.155,5.015.955,16.659.955,16.659.315,11.048-.917,22.392-1.231,28.727-.009.2-.022.391-.03.591-.081,1.5-.179,3.08-.289,4.686h82.64c-.029-1.521-.06-3.088-.085-4.686-.166-9.352-.314-19.6-.327-26.908,18.886-4.988,39.281-11.5,38.9-16.256-.391-4.9-15.1-77.027-19.218-79.972-2.8-2.014-20.416-9.071-29.551-12.538a64.741,64.741,0,0,0-8.1-2.771c-2.091-.131-27.852,2.338-27.852,2.338s-3.7,1.266-7.469,3c-6.446,2.957-16.49,7.58-23.7,11.013-2.328,1.1-5.239,2.6-7.66,3.887q.439,13.129,1.555,28.174S3019.333-1076.656,3019.46-1054.52Zm81.88,8.345c1.015-13.732,5.158-37.322,5.617-38.991.013,0,1.942,1.84,1.954,1.84s.637.09.646.081a4.9,4.9,0,0,1,.586.221s12.505,17.467,12.64,26.857C3122.851-1051.69,3113.083-1048.482,3101.34-1046.175Z" transform="translate(-3016.44 1146.992)" fill="#f0fff8"/>
      </g>
      <g id="Group_96230" data-name="Group 96230" transform="translate(63.818 81.057)">
        <path id="Path_140022" data-name="Path 140022" d="M3015.123-999.736h10.826q.37-2.287.795-4.686c1.835-10.338,4.248-22.017,5.536-33.485v0c2.379-21.249,5.655-42.068,7.422-54.436,4.6-32.2,10.737-46.61,10.737-46.61-2.932.875-35.279,16.162-35.279,16.162.289,8.9.723,18.453,1.479,28.671,0,0,.714,24.966,2.15,48.646a47.266,47.266,0,0,1,.463,10.4c-.361,4.632-.862,9.688-1.466,14.96-.008.073-.012.14-.021.2-.145,1.254-.3,2.511-.447,3.786,0,.021-.008.034-.008.055-.464,3.828-.978,7.737-1.521,11.651Q3015.464-1002.078,3015.123-999.736Z" transform="translate(-3015.123 1138.958)" fill="#0a5936"/>
      </g>
      <g id="Group_96231" data-name="Group 96231" transform="translate(94.768 78.483)">
        <path id="Path_140023" data-name="Path 140023" d="M3078.662-1038.068c2.46,5.8,10.936,20.134,10.936,20.134s6.136-1.5,15.161-3.84c.594,5.119,1.194,9.938,1.767,14.641q.287,2.358.566,4.686h32.193q-.574-2.364-1.092-4.686c-1.967-8.719-3.348-16.83-3.548-22.749,21.588-6.165,42.747-13.073,42.42-16.379-.49-4.891-16.7-80.508-20.815-83.452-2.371-1.7-19.969-7.941-28.6-11.345-1.577-.625-6.964-2.647-8.378-3.187-1.832,2.04-14.455,15.971-18.916,68.606-.552,6.548.594,18.5,1.869,30.468C3089.151-1041.68,3078.24-1039.059,3078.662-1038.068Zm58.867-18.784c1.3-10.486,2.774-21.036,3.842-24.729a41.8,41.8,0,0,1,3.356,18.121C3144.672-1061.284,3141.9-1059.053,3137.529-1056.852Z" transform="translate(-3078.65 1144.243)" fill="#0a5936"/>
      </g>
      <g id="Group_96232" data-name="Group 96232" transform="translate(103.512 53.302)">
        <path id="Path_140024" data-name="Path 140024" d="M3125.579-1171.258s-3.276-6.191-2.371-23.768c.25-4.869-25.578,11.548-25.578,11.548s.088,1.679.144,3.943c.03.943.047,1.976.047,3.038,0,.293,0,.587,0,.88,0,.48-.008.956-.017,1.431-.012.591-.034,1.169-.064,1.726-.029.633-.072,1.232-.131,1.78a16.21,16.21,0,0,1-.956,3.45C3095.462-1164.5,3115.908-1164.341,3125.579-1171.258Z" transform="translate(-3096.599 1195.929)" fill="#ffb490"/>
      </g>
      <path id="Path_140025" data-name="Path 140025" d="M3106.626-1122.342l-4.76,6.395s2.788,3.735,7.741.978Z" transform="translate(-2995.788 1211.494)" fill="#fb9e36"/>
      <path id="Path_140026" data-name="Path 140026" d="M3089.491-1108.861s-17.44,42.594-13.719,96.7l5.5,9.982,6.2-8.5s1-71.857,5.95-98.351Z" transform="translate(-2982.14 1204.669)" fill="#fb9e36"/>
      <path id="Path_140027" data-name="Path 140027" d="M3101.174-1136.5l5.1,5.963s8.18-1.585,10.581-5.857S3101.174-1136.5,3101.174-1136.5Z" transform="translate(-2995.433 1219.688)" fill="#ffb490"/>
      <path id="Path_140028" data-name="Path 140028" d="M3095.323-1145.292s.592,4.545,6.266,11.181l-6.192,8.321-3.353-17.261Z" transform="translate(-2990.751 1223.263)" fill="#d2f6e6"/>
      <path id="Path_140029" data-name="Path 140029" d="M3131.734-1156.515s-11.827,13.379-20.1,16.649l3.847,9.513,18.875-20.822Z" transform="translate(-3000.798 1229.019)" fill="#d2f6e6"/>
      <g id="Group_96233" data-name="Group 96233" transform="translate(0 95.167)">
        <path id="Path_140030" data-name="Path 140030" d="M2893.478-1011.628s15.7-15.226,26-17.758c4.76-1.172,11.029-7.742,16.987-15.467,1.964-2.544,3.889-5.214,5.722-7.856a.018.018,0,0,0,.005-.011c7.31-10.553,13.038-20.669,13.038-20.669s21.6-25.319,4.268-36.606c0,0-7.432-.16-11.507,2.052-4.19,2.276-13.129,20.931-14.645,24.235s-17.933,33.984-19.033,34.674-2.932,3.213-9.5,6.75c-8.043,4.33-20.678,17-20.678,17Z" transform="translate(-2884.13 1109.997)" fill="#0a5936"/>
      </g>
      <path id="Path_140031" data-name="Path 140031" d="M3047.693-899.806a9.99,9.99,0,0,0,3.134-.6s1.64-1.052,2.851-1.729a9.162,9.162,0,0,1,.958-.483,18.274,18.274,0,0,0,5.273-2.514c2.064-1.572,8.794-7.868,8.794-7.868l-4.349-6.688-2.008-6.62s-15.69,1.56-17.784,2.8a6.012,6.012,0,0,0-.576.387c-1.671,1.225-2.4,2.838-3.2,3.581-.293.274-3.026,3.2-2.874,4.386a3.908,3.908,0,0,0,2.046,3.2s.553,3.208,2.211,4.64a5.81,5.81,0,0,0,2.985,4.171S3045.912-900.162,3047.693-899.806Z" transform="translate(-2962.987 1110.964)" fill="#efaa88"/>
      <path id="Path_140032" data-name="Path 140032" d="M3084.846-1287.706s-28.361-6.836-22.387,29.07,12.776,38.821,30.052,31.662,16.075-30.125,17.105-41.363S3093.917-1287.182,3084.846-1287.706Z" transform="translate(-2975.155 1296.562)" fill="#ffb490"/>
      <path id="Path_140033" data-name="Path 140033" d="M3139.512-1238.963c.421-3.154,6.683-4.22,7.115.524s-3.03,13.008-5.387,12.156S3138.931-1234.614,3139.512-1238.963Z" transform="translate(-3014.922 1272.685)" fill="#ffb490"/>
      <path id="Path_140034" data-name="Path 140034" d="M3106.306-1258.756s-.569-11.294-4.684-11.707-4.817,4.122-4.817,4.122l-4.173.724s1.46-9.87-2.63-11.658-26.741,5.053-30,2.1-1.412-22.989,4.6-25.646,22.6-8.567,34.571-.208c0,0,9.438-.936,10.724,6.689S3108.95-1264.373,3106.306-1258.756Z" transform="translate(-2973.501 1305.336)" fill="#16202e"/>
      <path id="Path_140035" data-name="Path 140035" d="M3077.087-936.406l11.709,20.132s31.022-7.992,38.26-10.034L3110.51-946S3086.115-940.429,3077.087-936.406Z" transform="translate(-2983.081 1121.065)" fill="#0a5936"/>
      <path id="Path_140036" data-name="Path 140036" d="M3098.932-1161.715h0a27.127,27.127,0,0,0,21.108-13.261,31.448,31.448,0,0,1-21.028,9.224c0,.293,0,.587,0,.88,0,.48-.008.956-.016,1.431C3098.984-1162.85,3098.962-1162.272,3098.932-1161.715Z" transform="translate(-2994.283 1238.486)" fill="#a77860"/>
    </g>
    <g id="Group_96250" data-name="Group 96250" transform="translate(2501.444 -1100.339)">
      <g id="Group_96237" data-name="Group 96237" transform="translate(0.001 0)">
        <g id="Group_96236" data-name="Group 96236">
          <g id="Group_96235" data-name="Group 96235">
            <path id="Path_140037" data-name="Path 140037" d="M2565.384-766.37a16.831,16.831,0,0,0-6.718-13.254,16.785,16.785,0,0,0-10.362-3.391,16.867,16.867,0,0,0-15.635,11.1,16.813,16.813,0,0,0-.987,4.847c-.018.372-.026.75-.021,1.129a16.768,16.768,0,0,0,3.527,10.11,16.839,16.839,0,0,0,13.551,6.535,16.815,16.815,0,0,0,5.191-.885A16.872,16.872,0,0,0,2565.384-766.37Zm-12.806,12.195a12.631,12.631,0,0,1-3.894.665,12.616,12.616,0,0,1-10.158-4.9,12.59,12.59,0,0,1-2.646-7.578c0-.284,0-.567.017-.847a12.6,12.6,0,0,1,.737-3.627l0-.006a12.645,12.645,0,0,1,11.722-8.325,12.593,12.593,0,0,1,7.833,2.593,12.616,12.616,0,0,1,4.974,9.887A12.65,12.65,0,0,1,2552.578-754.176Z" transform="translate(-2531.66 783.017)" fill="#8affc9"/>
          </g>
        </g>
      </g>
      <g id="Group_96240" data-name="Group 96240" transform="translate(3.529 24.605)">
        <g id="Group_96239" data-name="Group 96239">
          <g id="Group_96238" data-name="Group 96238">
            <path id="Path_140038" data-name="Path 140038" d="M2542.24-732.513l-3.337,2.585a16.841,16.841,0,0,0,13.551,6.535,16.813,16.813,0,0,0,5.191-.885l-1.353-4a12.633,12.633,0,0,1-3.893.663A12.617,12.617,0,0,1,2542.24-732.513Z" transform="translate(-2538.903 732.513)" fill="#f1d54e"/>
          </g>
        </g>
      </g>
      <g id="Group_96243" data-name="Group 96243" transform="translate(0 15.95)">
        <g id="Group_96242" data-name="Group 96242">
          <g id="Group_96241" data-name="Group 96241">
            <path id="Path_140039" data-name="Path 140039" d="M2535.9-750.049l-4.214-.228c-.02.373-.028.75-.023,1.13a16.793,16.793,0,0,0,3.528,10.11l3.337-2.585a12.588,12.588,0,0,1-2.645-7.579Q2535.874-749.627,2535.9-750.049Z" transform="translate(-2531.658 750.277)" fill="#fb9e36"/>
          </g>
        </g>
      </g>
      <g id="Group_96246" data-name="Group 96246" transform="translate(0.023 11.104)">
        <g id="Group_96245" data-name="Group 96245">
          <g id="Group_96244" data-name="Group 96244">
            <path id="Path_140040" data-name="Path 140040" d="M2535.921-755.149a12.594,12.594,0,0,1,.737-3.627l0-.006-3.967-1.442a16.8,16.8,0,0,0-.987,4.847Z" transform="translate(-2531.706 760.225)" fill="#8affc9"/>
          </g>
        </g>
      </g>
      <g id="Group_96249" data-name="Group 96249" transform="translate(1.01 0)">
        <g id="Group_96248" data-name="Group 96248">
          <g id="Group_96247" data-name="Group 96247">
            <path id="Path_140041" data-name="Path 140041" d="M2559.729-779.625a16.786,16.786,0,0,0-10.362-3.391,16.866,16.866,0,0,0-15.635,11.1l3.964,1.448,0-.006a12.645,12.645,0,0,1,11.722-8.325,12.592,12.592,0,0,1,7.833,2.593Z" transform="translate(-2533.732 783.017)" fill="#17c878"/>
          </g>
        </g>
      </g>
    </g>
    <g id="Group_96266" data-name="Group 96266" transform="translate(2863.8 -1297.531)">
      <g id="Group_96253" data-name="Group 96253" transform="translate(0 0)">
        <g id="Group_96252" data-name="Group 96252">
          <g id="Group_96251" data-name="Group 96251">
            <path id="Path_140042" data-name="Path 140042" d="M3282.257-1148.977a22.564,22.564,0,0,0,18.933,6.2,22.508,22.508,0,0,0,13.038-6.609,22.612,22.612,0,0,0,4.3-25.346,22.524,22.524,0,0,0-3.66-5.531c-.335-.37-.687-.736-1.05-1.09a22.481,22.481,0,0,0-12.927-6.24,22.572,22.572,0,0,0-19.041,6.651,22.561,22.561,0,0,0-4.083,5.76A22.618,22.618,0,0,0,3282.257-1148.977Zm.579-23.7A16.939,16.939,0,0,1,3285.9-1177a16.915,16.915,0,0,1,14.276-4.983,16.887,16.887,0,0,1,9.692,4.675c.271.267.535.54.786.819a16.893,16.893,0,0,1,2.74,4.137l0,.009a16.954,16.954,0,0,1-3.222,19,16.884,16.884,0,0,1-9.883,4.967,16.914,16.914,0,0,1-14.088-4.657A16.96,16.96,0,0,1,3282.836-1172.677Z" transform="translate(-3275.43 1187.775)" fill="#8affc9"/>
          </g>
        </g>
      </g>
      <g id="Group_96256" data-name="Group 96256" transform="translate(2.334 0.001)">
        <g id="Group_96255" data-name="Group 96255">
          <g id="Group_96254" data-name="Group 96254">
            <path id="Path_140043" data-name="Path 140043" d="M3302.631-1181.981l.713-5.614a22.578,22.578,0,0,0-19.041,6.651,22.557,22.557,0,0,0-4.082,5.76l5.073,2.507a16.915,16.915,0,0,1,3.063-4.318A16.914,16.914,0,0,1,3302.631-1181.981Z" transform="translate(-3280.221 1187.774)" fill="#f1d54e"/>
          </g>
        </g>
      </g>
      <g id="Group_96259" data-name="Group 96259" transform="translate(24.744 0.179)">
        <g id="Group_96258" data-name="Group 96258">
          <g id="Group_96257" data-name="Group 96257">
            <path id="Path_140044" data-name="Path 140044" d="M3336.7-1176.3l4.212-3.779q-.5-.559-1.05-1.093a22.512,22.512,0,0,0-12.928-6.239l-.713,5.614a16.874,16.874,0,0,1,9.692,4.677C3336.185-1176.851,3336.448-1176.577,3336.7-1176.3Z" transform="translate(-3326.22 1187.407)" fill="#fb9e36"/>
          </g>
        </g>
      </g>
      <g id="Group_96262" data-name="Group 96262" transform="translate(35.223 7.509)">
        <g id="Group_96261" data-name="Group 96261">
          <g id="Group_96260" data-name="Group 96260">
            <path id="Path_140045" data-name="Path 140045" d="M3347.729-1168.583a16.9,16.9,0,0,1,2.74,4.137l0,.009,5.128-2.393a22.521,22.521,0,0,0-3.66-5.531Z" transform="translate(-3347.729 1172.362)" fill="#8affc9"/>
          </g>
        </g>
      </g>
      <g id="Group_96265" data-name="Group 96265" transform="translate(24.863 13.04)">
        <g id="Group_96264" data-name="Group 96264">
          <g id="Group_96263" data-name="Group 96263">
            <path id="Path_140046" data-name="Path 140046" d="M3327.361-1129.054a22.509,22.509,0,0,0,13.038-6.609,22.613,22.613,0,0,0,4.3-25.346l-5.131,2.385,0,.009a16.954,16.954,0,0,1-3.221,19,16.887,16.887,0,0,1-9.883,4.967Z" transform="translate(-3326.463 1161.009)" fill="#17c878"/>
          </g>
        </g>
      </g>
    </g>
    <path id="Path_140047" data-name="Path 140047" d="M2669.923-787.828a4.631,4.631,0,0,0,3.047,4.292,4.6,4.6,0,0,0,1.33.27h.082c.076,0,.152.007.229.006.123,0,.245-.009.365-.02a4.6,4.6,0,0,0,2.41-.949,4.637,4.637,0,0,0,1.512-2.066,4.618,4.618,0,0,0,.282-1.652,4.6,4.6,0,0,0-.244-1.424h0a4.629,4.629,0,0,0-4.444-3.143,4.618,4.618,0,0,0-3.637,1.843A4.611,4.611,0,0,0,2669.923-787.828Zm1.158-.016a3.458,3.458,0,0,1,.712-2.15,3.459,3.459,0,0,1,2.713-1.364,3.471,3.471,0,0,1,3.333,2.357c.037.11.067.224.093.337a3.488,3.488,0,0,1,.09.731,3.463,3.463,0,0,1-1,2.481,3.444,3.444,0,0,1-.346.307,3.439,3.439,0,0,1-1.132.58,3.446,3.446,0,0,1-.947.146c-.078,0-.156,0-.232,0h0a3.46,3.46,0,0,1-1-.2h0A3.471,3.471,0,0,1,2671.081-787.844Z" transform="translate(-101.117 -312.45)" fill="#4da8f2"/>
    <g id="Group_96268" data-name="Group 96268" transform="translate(2501.498 -1179.992)">
      <g id="Group_96267" data-name="Group 96267" transform="translate(0 0)">
        <path id="Path_140048" data-name="Path 140048" d="M2531.768-938.948v-5.417a2.152,2.152,0,0,1,2.15-2.149h5.416a2.152,2.152,0,0,1,2.15,2.149v5.417a2.152,2.152,0,0,1-2.15,2.149h-5.416A2.153,2.153,0,0,1,2531.768-938.948Zm2.15-7.165a1.749,1.749,0,0,0-1.748,1.748v5.417a1.75,1.75,0,0,0,1.748,1.748h5.416a1.751,1.751,0,0,0,1.748-1.748v-5.417a1.75,1.75,0,0,0-1.748-1.748Z" transform="translate(-2531.768 946.514)" fill="#8affc9"/>
      </g>
    </g>
    <g id="Group_96270" data-name="Group 96270" transform="translate(2501.498 -1167.097)">
      <g id="Group_96269" data-name="Group 96269" transform="translate(0 0)">
        <path id="Path_140049" data-name="Path 140049" d="M2531.768-912.481V-917.9a2.153,2.153,0,0,1,2.15-2.15h5.416a2.153,2.153,0,0,1,2.15,2.15v5.416a2.153,2.153,0,0,1-2.15,2.151h-5.416A2.153,2.153,0,0,1,2531.768-912.481Zm2.15-7.164a1.75,1.75,0,0,0-1.748,1.748v5.416a1.75,1.75,0,0,0,1.748,1.75h5.416a1.751,1.751,0,0,0,1.748-1.75V-917.9a1.75,1.75,0,0,0-1.748-1.748Z" transform="translate(-2531.768 920.046)" fill="#8affc9"/>
      </g>
    </g>
    <g id="Group_96272" data-name="Group 96272" transform="translate(2501.698 -1154)">
      <g id="Group_96271" data-name="Group 96271" transform="translate(0 0)">
        <path id="Rectangle_32765" data-name="Rectangle 32765" d="M2.077,0h5.16A2.077,2.077,0,0,1,9.314,2.077V7.236A2.078,2.078,0,0,1,7.236,9.314H2.078A2.078,2.078,0,0,1,0,7.236V2.077A2.077,2.077,0,0,1,2.077,0Z" transform="translate(9.314 9.314) rotate(-180)" fill="#8affc9"/>
      </g>
    </g>
    <g id="Group_96276" data-name="Group 96276" transform="translate(2503.547 -1151.395)">
      <g id="Group_96275" data-name="Group 96275" transform="translate(0 0)">
        <g id="Group_96274" data-name="Group 96274">
          <g id="Group_96273" data-name="Group 96273">
            <path id="Path_140050" data-name="Path 140050" d="M2538.489-883.712l-2.355-2.053a.464.464,0,0,1-.045-.654.463.463,0,0,1,.654-.045l1.666,1.451,2.374-2.648a.462.462,0,0,1,.655-.037.463.463,0,0,1,.036.655Z" transform="translate(-2535.974 887.815)" fill="#0a5936"/>
          </g>
        </g>
      </g>
    </g>
    <g id="Group_96279" data-name="Group 96279" transform="translate(2501.699 -1133.153)">
      <g id="Group_96278" data-name="Group 96278" transform="translate(0 0)">
        <g id="Group_96277" data-name="Group 96277">
          <path id="Rectangle_32766" data-name="Rectangle 32766" d="M2.623,0H41.967A2.623,2.623,0,0,1,44.59,2.623v0a2.622,2.622,0,0,1-2.622,2.622H2.623A2.623,2.623,0,0,1,0,2.623v0A2.623,2.623,0,0,1,2.623,0Z" fill="#8affc9"/>
        </g>
      </g>
    </g>
    <g id="Group_96282" data-name="Group 96282" transform="translate(2501.699 -1123.792)">
      <g id="Group_96281" data-name="Group 96281" transform="translate(0 0)">
        <g id="Group_96280" data-name="Group 96280">
          <rect id="Rectangle_32767" data-name="Rectangle 32767" width="44.59" height="5.246" rx="2.623" fill="#8affc9"/>
        </g>
      </g>
    </g>
    <g id="Group_96285" data-name="Group 96285" transform="translate(2501.445 -1114.431)">
      <g id="Group_96284" data-name="Group 96284" transform="translate(0 0)">
        <g id="Group_96283" data-name="Group 96283">
          <path id="Path_140051" data-name="Path 140051" d="M2531.659-808.264v-1.6a2.078,2.078,0,0,1,2.075-2.075h40.947a2.078,2.078,0,0,1,2.076,2.075v1.6a2.078,2.078,0,0,1-2.076,2.075h-40.947A2.078,2.078,0,0,1,2531.659-808.264Zm2.075-3.171a1.568,1.568,0,0,0-1.567,1.567v1.6a1.569,1.569,0,0,0,1.567,1.567h40.947a1.57,1.57,0,0,0,1.568-1.567v-1.6a1.569,1.569,0,0,0-1.568-1.567Z" transform="translate(-2531.659 811.944)" fill="#8affc9"/>
        </g>
      </g>
    </g>
    <path id="Path_140052" data-name="Path 140052" d="M2979.242-977.848c-17.631,18.149-40.925,41-40.925,41l-9.1-17.285s20.689-24.256,34.715-40.44C2968.227-992.461,2976.12-987.431,2979.242-977.848Z" transform="translate(-234.085 -208.835)" fill="#eea886"/>
    <g id="Group_96286" data-name="Group 96286" transform="translate(2742.327 -1162.28)">
      <path id="Path_140053" data-name="Path 140053" d="M3039.814-910.158a51.608,51.608,0,0,0-5.985,3.315c-1.24,1.023-6.261,4.782-7.479,5.667s1.835,3.4,10.815-.489S3039.814-910.158,3039.814-910.158Z" transform="translate(-3026.095 910.158)" fill="#eea886"/>
    </g>
    <path id="Path_140054" data-name="Path 140054" d="M2938.786-1016.781l8.273,76.915h-108.89l-8.272-76.915Z" transform="translate(-183.154 -197.444)" fill="url(#linear-gradient)"/>
    <rect id="Rectangle_32768" data-name="Rectangle 32768" width="18.187" height="6.919" transform="translate(2754.384 -1144.229)" fill="url(#linear-gradient-2)"/>
    <g id="Group_96293" data-name="Group 96293" transform="translate(2548.349 -1244.479)">
      <g id="Group_96288" data-name="Group 96288" transform="translate(0)">
        <g id="Group_96287" data-name="Group 96287">
          <path id="Path_140055" data-name="Path 140055" d="M2643.06-1054.558l-15.125-24.323,7.8,3.657Z" transform="translate(-2627.935 1078.88)" fill="#d6d6d6"/>
        </g>
      </g>
      <g id="Group_96290" data-name="Group 96290" transform="translate(8.805 6.502)">
        <g id="Group_96289" data-name="Group 96289">
          <path id="Path_140056" data-name="Path 140056" d="M2652.327-1047.714l-.753-14.55-5.567-3.27Z" transform="translate(-2646.008 1065.535)" fill="#e8e8e8"/>
        </g>
      </g>
      <g id="Group_96292" data-name="Group 96292" transform="translate(1.517 5.593)">
        <g id="Group_96291" data-name="Group 96291">
          <path id="Path_140057" data-name="Path 140057" d="M2633.01-1067.4l-1.961,2.516,13.608,16.214Z" transform="translate(-2631.049 1067.4)" fill="#c2c2c2"/>
        </g>
      </g>
    </g>
    <rect id="Rectangle_32769" data-name="Rectangle 32769" width="295.956" height="4.686" transform="translate(2645.896 -1137.469)" fill="#d2f6e6"/>
    <g id="Group_96296" data-name="Group 96296" transform="translate(2627.863 -1148.497)">
      <g id="Group_96295" data-name="Group 96295" transform="translate(0 0)">
        <g id="Group_96294" data-name="Group 96294">
          <path id="Path_140058" data-name="Path 140058" d="M2795.513-881.868s25.349,20.743,15.152,39.137-16.734,3.442-16.734,3.442-7.608,2.933,2.326-19.548C2800.939-869.434,2795.513-881.868,2795.513-881.868Z" transform="translate(-2791.146 881.868)" fill="#bbd070"/>
        </g>
      </g>
    </g>
    <g id="Group_96299" data-name="Group 96299" transform="translate(2639.785 -1182.851)">
      <g id="Group_96298" data-name="Group 96298">
        <g id="Group_96297" data-name="Group 96297">
          <path id="Path_140059" data-name="Path 140059" d="M2847.085-952.382s19.666,19.888-2.3,51.114-17.05,46.494-17.05,46.494S2790.268-903.393,2847.085-952.382Z" transform="translate(-2815.617 952.382)" fill="#3be397"/>
        </g>
      </g>
    </g>
    <g id="Group_96302" data-name="Group 96302" transform="translate(2639.771 -1158.856)">
      <g id="Group_96301" data-name="Group 96301" transform="translate(0 0)">
        <g id="Group_96300" data-name="Group 96300">
          <path id="Path_140060" data-name="Path 140060" d="M2820.869-838.473c-11.076,3.118-3.685-29.779,12.432-41.011s31.131-13.335,39.857-23.645C2873.157-903.129,2875.406-853.821,2820.869-838.473Z" transform="translate(-2815.586 903.129)" fill="#238558"/>
        </g>
      </g>
    </g>
    <rect id="Rectangle_32770" data-name="Rectangle 32770" width="241.296" height="4.686" transform="translate(2714.036 -1036.327) rotate(-180)" fill="#d2f6e6"/>
    <path id="Path_140061" data-name="Path 140061" d="M2949.605-947.344c.876,4.282-1.123,8.307-4.462,8.99s-6.755-2.237-7.631-6.519,1.122-8.307,4.462-8.99S2948.73-951.627,2949.605-947.344Z" transform="translate(-238.236 -229.659)" fill="#fff"/>
    <g id="Group_96330" data-name="Group 96330" transform="translate(2476.206 -1130.52)">
      <g id="Group_96306" data-name="Group 96306" transform="translate(1.039 43.376)">
        <g id="Group_96305" data-name="Group 96305">
          <g id="Group_96304" data-name="Group 96304">
            <g id="Group_96303" data-name="Group 96303">
              <path id="Path_140062" data-name="Path 140062" d="M2483.675-755.934s.18.973.726,1.117a3.171,3.171,0,0,1,1.133.767c.212.2,1.092.584.838.852s-1.481-.558-1.773-.68.126,1.23.009,1.538-2.4.873-2.577-.088a8.838,8.838,0,0,1,.2-2.269,5.766,5.766,0,0,1-.159-.693Z" transform="translate(-2481.988 755.934)" fill="#eea886"/>
            </g>
          </g>
        </g>
      </g>
      <g id="Group_96310" data-name="Group 96310" transform="translate(0.925 46.735)">
        <g id="Group_96309" data-name="Group 96309">
          <g id="Group_96308" data-name="Group 96308">
            <g id="Group_96307" data-name="Group 96307">
              <path id="Path_140063" data-name="Path 140063" d="M2484.5-749.04a21.783,21.783,0,0,1,.212,3.2c-.142.218-.305.227-.349-.05s-.426-2.868-.426-2.868-.173,3.595-.251,3.8c-.044.12-.358.156-.4.011s-.07-3.721-.07-3.721-.168,3.358-.284,3.509a.231.231,0,0,1-.4-.155c0-.25-.026-3.374-.026-3.374a13.648,13.648,0,0,1-.449,2.506c-.106.043-.375.088-.285-.539s.149-2.127.149-2.127Z" transform="translate(-2481.753 749.04)" fill="#eea886"/>
            </g>
          </g>
        </g>
      </g>
      <g id="Group_96311" data-name="Group 96311" transform="translate(34.719 1.1)">
        <path id="Path_140064" data-name="Path 140064" d="M2551.12-836.98a8.154,8.154,0,0,0,.656-1.643,4.255,4.255,0,0,1,1.449-1.93,32.852,32.852,0,0,1,3.369-2.157c.311,0,.131.6-.139.773s-2.452,1.874-2.452,1.874a21.545,21.545,0,0,1,3-1.823c.284.051.486.411.182.783a.508.508,0,0,1-.027.9l-1.284.992s.756-.392.476.214a23.132,23.132,0,0,1-1.981,1.552,17.091,17.091,0,0,1-2.245,1.259Z" transform="translate(-2551.12 842.709)" fill="#eea886"/>
      </g>
      <g id="Group_96312" data-name="Group 96312" transform="translate(17.98 83.133)">
        <path id="Path_140065" data-name="Path 140065" d="M2517.584-667.148h.673s-.224-2.544.4-2.568,2.168,2.07,3.091,2.394,5.658.6,5.684-.275-1.82-1.222-2.393-1.47-3.366-2.967-3.864-3.291a7.823,7.823,0,0,1-1.322-1.97h-2.542s-.279,1.381-.439,2.5a10.017,10.017,0,0,0-.109,1.045A19.324,19.324,0,0,0,2517.584-667.148Z" transform="translate(-2516.761 674.329)" fill="#eea886"/>
      </g>
      <g id="Group_96313" data-name="Group 96313" transform="translate(5.728 82.091)">
        <path id="Path_140066" data-name="Path 140066" d="M2492.325-668.748h.561v-2.366c.467.039,2.038,1.525,2.524,1.956s1.153.41,3.2.541,2.241-1.1,1.917-1.514-1.372-.6-1.917-.859a35.382,35.382,0,0,1-3.269-3.26,5.956,5.956,0,0,1-.923-2.217l-2.393.209a14.7,14.7,0,0,1-.256,2.764h0a.04.04,0,0,0,0,.009c-.023.107-.049.212-.077.315C2491.333-671.858,2492.325-668.748,2492.325-668.748Z" transform="translate(-2491.612 676.467)" fill="#eea886"/>
      </g>
      <g id="Group_96314" data-name="Group 96314" transform="translate(8.444 8.642)">
        <path id="Path_140067" data-name="Path 140067" d="M2501.446-825.17a7.263,7.263,0,0,0-.544,4.48s-3.594-.49-3.7-.911.449-4.2.035-5.357S2501.446-825.17,2501.446-825.17Z" transform="translate(-2497.187 827.229)" fill="#eea886"/>
      </g>
      <g id="Group_96315" data-name="Group 96315" transform="translate(3.492 13.86)">
        <path id="Path_140068" data-name="Path 140068" d="M2496.319-816.015s2.08.893,3.029,1.168,2.9,1.351,2.482,4.84a71.381,71.381,0,0,1-1.568,7.97,30.957,30.957,0,0,0-.247,7.212,27.83,27.83,0,0,1-11.132-.806,23.955,23.955,0,0,0,1.329-3.918c.032-.823-3.007-7.833-3.094-8.912s-.457-5.836,1.232-6.758,2.992-.691,3.71-1.106S2495.345-816.421,2496.319-816.015Z" transform="translate(-2487.023 816.518)" fill="#0a5936"/>
      </g>
      <g id="Group_96316" data-name="Group 96316" transform="translate(12.714 6.148)">
        <path id="Path_140069" data-name="Path 140069" d="M2506.016-818.7s-.8-4.191,3.265-4.185a24.832,24.832,0,0,0,7.51-.985,17.623,17.623,0,0,0,3.9-2.567c1.147-1.179,7.362-5.906,7.362-5.906l1.718,1.737s-6.557,7.12-7.613,7.814-9.933,5.65-11.059,5.807S2506.809-815.975,2506.016-818.7Z" transform="translate(-2505.952 832.348)" fill="#0a5936"/>
      </g>
      <g id="Group_96317" data-name="Group 96317" transform="translate(0 15.466)">
        <path id="Path_140070" data-name="Path 140070" d="M2479.868-795.949c-.122,1.476.681,11.665.681,11.665l2.889.333s-.205-10.064-.368-12.384a11.684,11.684,0,0,1,.358-2.869h0c.156-.722.349-1.479.547-2.2.547-2,1.136-3.73,1.136-3.73s3.235-8.416-.824-8.076a9.778,9.778,0,0,0-2.147,4.107,50.327,50.327,0,0,0-1.4,7.9C2480.715-799.682,2479.957-797.035,2479.868-795.949Z" transform="translate(-2479.855 813.223)" fill="#0a5936"/>
      </g>
      <g id="Group_96318" data-name="Group 96318" transform="translate(5.556 33.701)">
        <path id="Path_140071" data-name="Path 140071" d="M2501.49-774.022a24.465,24.465,0,0,1,1.014,2.761c.082.557,3.005,7.834,3.209,9.963.206,2.153.823,7.9,1.042,8.722s-.494,4.5-.6,5.319-.054,14.26.933,20.9c0,0-2.3.988-4.059,0,0,0-2.907-10.365-2.742-16.344s.923-8.5,0-10.914-6.358-9.653-6.906-10.421-3.984-5.011-.73-9.608S2501.49-774.022,2501.49-774.022Z" transform="translate(-2491.26 775.792)" fill="#f1d54e"/>
      </g>
      <g id="Group_96319" data-name="Group 96319" transform="translate(2.722 33.403)">
        <path id="Path_140072" data-name="Path 140072" d="M2487.278-754.7c.29,1.92-.015,4.442-.617,11.463a66.622,66.622,0,0,0,1.055,15.521,8.431,8.431,0,0,0,4.484,0c-.055-.494,0-17.112,0-18.594s.425-3.161.535-4.86a34.534,34.534,0,0,1,1.219-5.475c.183-.653.37-1.31.553-1.946h0c.1-.357.2-.706.3-1.045.854-2.962,2-14.4,2-14.4s-6.365-5.126-9.464-.3-1.508,8.337-1.4,8.94S2486.99-756.62,2487.278-754.7Z" transform="translate(-2485.443 776.406)" fill="#f1d54e"/>
      </g>
      <g id="Group_96320" data-name="Group 96320" transform="translate(2.722 16.865)">
        <path id="Path_140073" data-name="Path 140073" d="M2499.613-800.371s-.565,9.088,1.126,14.2a34.644,34.644,0,0,1-15.3-1.769s2.359-6.107,2.278-7.062-2.563-12.076-1.371-14.565S2499.189-808.524,2499.613-800.371Z" transform="translate(-2485.442 810.351)" fill="#0a5936"/>
      </g>
      <g id="Group_96321" data-name="Group 96321" transform="translate(6.884 0.567)">
        <path id="Path_140074" data-name="Path 140074" d="M2498.5-843.8c1.537-.062,5.46.532,4.73,6.446s-2.866,5.4-4.981,4.616-4.353-5.567-4.264-6.8S2494.119-843.623,2498.5-843.8Z" transform="translate(-2493.986 843.803)" fill="#eea886"/>
      </g>
      <g id="Group_96322" data-name="Group 96322" transform="translate(6.505 0)">
        <path id="Path_140075" data-name="Path 140075" d="M2502.823-840.622a9.288,9.288,0,0,1-3.65,2.4,6.774,6.774,0,0,1-3.863,2.717s-4.6-5.086-.186-8.341S2502.983-842.434,2502.823-840.622Z" transform="translate(-2493.208 844.968)" fill="#353a3d"/>
      </g>
      <g id="Group_96323" data-name="Group 96323" transform="translate(11.333 5.316)">
        <path id="Path_140076" data-name="Path 140076" d="M2504.638-833.417a.747.747,0,0,0-1.313-.342c-.609.7.278,2.494.661,2.523S2504.768-832.17,2504.638-833.417Z" transform="translate(-2503.117 834.056)" fill="#eea886"/>
      </g>
      <g id="Group_96324" data-name="Group 96324" transform="translate(7.197 44.793)">
        <path id="Path_140077" data-name="Path 140077" d="M2494.628-753.026c.05.109,3.221,7.149,4.037,8.37.182-.653.369-1.31.552-1.946h0S2494.734-752.871,2494.628-753.026Z" transform="translate(-2494.628 753.026)" fill="#f1d54e"/>
      </g>
      <g id="Group_96325" data-name="Group 96325" transform="translate(3.363 22.268)">
        <path id="Path_140078" data-name="Path 140078" d="M2486.826-799.261a51.157,51.157,0,0,0,.142,7.216c.156-.722.349-1.479.546-2.2C2487.5-794.35,2486.884-798.555,2486.826-799.261Z" transform="translate(-2486.758 799.261)" fill="#16284d"/>
      </g>
      <g id="Group_96326" data-name="Group 96326" transform="translate(4.026 0.081)">
        <path id="Path_140079" data-name="Path 140079" d="M2494.312-844.694s-5.348-.124-4.544,9.065c.618,7.062-1.979,10.551-1.614,11.58s1.62,2.75,4.427,1.2,1.8-8.942,3.313-12.092a18.5,18.5,0,0,1,3.974-5.31S2499.286-845.617,2494.312-844.694Z" transform="translate(-2488.118 844.801)" fill="#353a3d"/>
      </g>
      <g id="Group_96327" data-name="Group 96327" transform="translate(15.572 18.794)">
        <path id="Path_140080" data-name="Path 140080" d="M2513.68-806.392s1.221,4.361,1.512,5.391c.376,1.339-1.374,3.858-2.924,3.083S2513.68-806.392,2513.68-806.392Z" transform="translate(-2511.819 806.392)" fill="#0a5936"/>
      </g>
      <g id="Group_96328" data-name="Group 96328" transform="translate(5.728 84.612)">
        <path id="Path_140081" data-name="Path 140081" d="M2492.325-666.095h.561v-2.366c.467.039,2.038,1.525,2.524,1.956s1.153.41,3.2.541,2.241-1.1,1.917-1.514-1.372-.6-1.917-.859c-2.19.116-4.863-2.963-6.146-2.956-.682,0-.675.381-.7.453h0a.039.039,0,0,0,0,.009c-.023.107-.049.212-.077.315C2491.333-669.2,2492.325-666.095,2492.325-666.095Z" transform="translate(-2491.612 671.293)" fill="#0a5936"/>
      </g>
      <g id="Group_96329" data-name="Group 96329" transform="translate(17.98 85.552)">
        <path id="Path_140082" data-name="Path 140082" d="M2517.584-664.6h.673s-.224-2.544.4-2.568,2.168,2.07,3.091,2.394,5.658.6,5.684-.275-1.82-1.222-2.393-1.47c-1.954,0-5.131-2.155-6.116-2.591a3.56,3.56,0,0,0-2.052-.173,10.012,10.012,0,0,0-.109,1.045A19.325,19.325,0,0,0,2517.584-664.6Z" transform="translate(-2516.761 669.365)" fill="#0a5936"/>
      </g>
    </g>
    <g id="Group_96335" data-name="Group 96335" transform="translate(2663.969 -1357.14)">
      <g id="Group_96334" data-name="Group 96334" transform="translate(0 0)">
        <g id="Group_96333" data-name="Group 96333">
          <g id="Group_96332" data-name="Group 96332">
            <g id="Group_96331" data-name="Group 96331">
              <path id="Path_140083" data-name="Path 140083" d="M2871.531-1309.593a3.956,3.956,0,0,1,1.837,4.441c-.6,3.247-.87,3.685-.2,4.953s1.471,6.681.864,7.707-7.519-4.508-8.477-9.151.608-6.708,1.161-7.477S2869.377-1310.685,2871.531-1309.593Z" transform="translate(-2865.256 1310.128)" fill="#0e2d3d"/>
            </g>
          </g>
        </g>
      </g>
    </g>
    <g id="Group_96337" data-name="Group 96337" transform="translate(2674.672 -1380.717)">
      <g id="Group_96336" data-name="Group 96336" transform="translate(0 0)">
        <path id="Path_140084" data-name="Path 140084" d="M2918-1358.522h-30.772v27l4.7-4.7H2918Z" transform="translate(-2887.225 1358.522)" fill="#8affc9"/>
      </g>
    </g>
    <g id="Group_96338" data-name="Group 96338" transform="translate(2668.751 -1287.997)">
      <path id="Path_140085" data-name="Path 140085" d="M2877.612-1167.723a6.109,6.109,0,0,0,.712,1.191c.342.446,1.4,2.276,1.872,2.4s1.915.383,2.042,1.191.191,1.383-1.233,1.446-2.361.149-3.042-.851a7.41,7.41,0,0,0-1.765-1.723v2.608h-.552a23.651,23.651,0,0,0-.4-2.906,3.281,3.281,0,0,1,.787-3.361C2877.346-1168.808,2877.612-1167.723,2877.612-1167.723Z" transform="translate(-2875.072 1168.206)" fill="#0a5936"/>
    </g>
    <g id="Group_96339" data-name="Group 96339" transform="translate(2669.406 -1287.802)">
      <path id="Path_140086" data-name="Path 140086" d="M2880.885-1163.924s-1.277.319-1.765,0-2.153-3.13-2.7-3.3c0,0,.534-1.083,1.885-.3C2878.3-1167.518,2880.524-1164.392,2880.885-1163.924Z" transform="translate(-2876.417 1167.805)" fill="#eea886"/>
    </g>
    <g id="Group_96343" data-name="Group 96343" transform="translate(2686.261 -1333.504)">
      <g id="Group_96342" data-name="Group 96342" transform="translate(0)">
        <g id="Group_96341" data-name="Group 96341">
          <g id="Group_96340" data-name="Group 96340">
            <path id="Path_140087" data-name="Path 140087" d="M2911.084-1260.143s.885.17,1.187-.246a2.9,2.9,0,0,1,1.026-.709c.242-.112.857-.734,1-.43s-.963,1.073-1.163,1.281,1.086.3,1.309.5-.051,2.324-.927,2.159a8.119,8.119,0,0,1-1.862-.918,5.469,5.469,0,0,1-.641-.095Z" transform="translate(-2911.013 1261.612)" fill="#eea886"/>
          </g>
        </g>
      </g>
    </g>
    <g id="Group_96347" data-name="Group 96347" transform="translate(2688.806 -1331.725)">
      <g id="Group_96346" data-name="Group 96346" transform="translate(0 0)">
        <g id="Group_96345" data-name="Group 96345">
          <g id="Group_96344" data-name="Group 96344">
            <path id="Path_140088" data-name="Path 140088" d="M2916.926-1257.962a19.826,19.826,0,0,1,2.785.877c.138.193.094.334-.156.281s-2.577-.586-2.577-.586,3,1.336,3.145,1.469c.086.078.015.357-.122.341s-3.184-1.171-3.184-1.171,2.8,1.253,2.886,1.4a.211.211,0,0,1-.265.29c-.214-.078-2.874-1.094-2.874-1.094a12.494,12.494,0,0,1,1.98,1.21c0,.1-.05.348-.552.064s-1.756-.83-1.756-.83Z" transform="translate(-2916.237 1257.962)" fill="#eea886"/>
          </g>
        </g>
      </g>
    </g>
    <g id="Group_96348" data-name="Group 96348" transform="translate(2662.002 -1285.875)">
      <path id="Path_140089" data-name="Path 140089" d="M2863.375-1163.8a23.837,23.837,0,0,0,2,2.627s1.275.468,1.4,1.361.106,1.489-1.4,1.532-2.5-.228-2.777-1.143a4.166,4.166,0,0,0-.882-1.537v1.914h-.341s-.084-1.85-.106-2.19-.244-1.649.473-2.228A1.993,1.993,0,0,1,2863.375-1163.8Z" transform="translate(-2861.22 1163.85)" fill="#0a5936"/>
    </g>
    <g id="Group_96349" data-name="Group 96349" transform="translate(2660.103 -1327.427)">
      <path id="Path_140090" data-name="Path 140090" d="M2860.418-1248.384a13.361,13.361,0,0,0-2.288,5.115c-.488,2.776.289,12.091.268,13.464s-1.3,4.785-1.042,7.37,1.263,15.446,1.263,15.446l2.757-.547s-.16-13.113,0-14.2.479-5.039.543-5.486,4.051-12.175,4.051-14.176S2864.758-1251.649,2860.418-1248.384Z" transform="translate(-2857.322 1249.14)" fill="#0a5936"/>
    </g>
    <g id="Group_96350" data-name="Group 96350" transform="translate(2666.052 -1326.344)">
      <path id="Path_140091" data-name="Path 140091" d="M2875.719-1246.329s2.957,11.283,3.307,12.847a33,33,0,0,1,.859,3.517,23.262,23.262,0,0,1-.572,4.013L2875.56-1208h-3.576s1.992-10.772,2.045-12.879,1.679-5.109,1.36-6-5.136-11.2-5.136-11.2S2866.606-1249.6,2875.719-1246.329Z" transform="translate(-2869.532 1246.915)" fill="#0a5936"/>
    </g>
    <g id="Group_96351" data-name="Group 96351" transform="translate(2662.525 -1285.824)">
      <path id="Path_140092" data-name="Path 140092" d="M2865.924-1161.118a2.039,2.039,0,0,1-2.4-.232,7.393,7.393,0,0,1-1.233-2.06l1.633-.335Z" transform="translate(-2862.292 1163.745)" fill="#eea886"/>
    </g>
    <g id="Group_96353" data-name="Group 96353" transform="translate(2669.945 -1344.932)">
      <g id="Group_96352" data-name="Group 96352">
        <path id="Path_140093" data-name="Path 140093" d="M2878.6-1285.07a3.687,3.687,0,0,1,2.139,1.1,14.112,14.112,0,0,1,2.027,3.086c.241.527,3.623,5.4,3.8,5.514s1.875.678,3,1.056c1.739.585,5.222,1.851,5.222,1.851l-.692,2.19s-6.551-2.144-8.191-2.548c-2.006-.495-6.624-6.419-6.624-6.419S2875.834-1283.272,2878.6-1285.07Z" transform="translate(-2877.523 1285.07)" fill="url(#linear-gradient-3)"/>
      </g>
    </g>
    <g id="Group_96355" data-name="Group 96355" transform="translate(2660.428 -1345.87)">
      <g id="Group_96354" data-name="Group 96354" transform="translate(0)">
        <path id="Path_140094" data-name="Path 140094" d="M2866.452-1286.912a16.543,16.543,0,0,0,2.128.855c.548.11,2.676,2.872,3.047,3.881s0,2.522-.767,4.3-.043,2.369-.395,4.145a73.158,73.158,0,0,0-.172,9.408c.066.987-10.264,2.483-12.3.685,0,0,1.381-5.989,3.015-7.7.354-.37.316-2.833.075-3.447s-2.96-5.2-2.96-5.2-.2-4.649.987-5.57c1.031-.8,3.84-1.086,4.344-1.261A8.614,8.614,0,0,1,2866.452-1286.912Z" transform="translate(-2857.989 1286.994)" fill="#f0fff8"/>
      </g>
    </g>
    <g id="Group_96357" data-name="Group 96357" transform="translate(2665.889 -1349.77)">
      <g id="Group_96356" data-name="Group 96356" transform="translate(0)">
        <path id="Path_140095" data-name="Path 140095" d="M2872.954-1292.839s-.048.434-.1,1.022c-.021.232-.044.489-.065.752a17.665,17.665,0,0,0-.082,2.066s-1.642,1.644-3.507-1.918a4.9,4.9,0,0,0,.194-3.47C2868.8-1296.39,2872.954-1292.839,2872.954-1292.839Z" transform="translate(-2869.198 1295)" fill="#eea886"/>
      </g>
    </g>
    <g id="Group_96358" data-name="Group 96358" transform="translate(2673.46 -1340.323)">
      <path id="Path_140096" data-name="Path 140096" d="M2885.515-1271.384a13.431,13.431,0,0,0-.025-4.224,10.2,10.2,0,0,1-.753,3.324Z" transform="translate(-2884.737 1275.608)" fill="#f46a3f"/>
    </g>
    <g id="Group_96359" data-name="Group 96359" transform="translate(2664.628 -1345.73)">
      <path id="Path_140097" data-name="Path 140097" d="M2866.61-1286.413s1.129,3.333,4.227,3.088,1.469-2.814,1.469-2.814a6.815,6.815,0,0,0-.99-.485c-.217-.041-3.426-.082-3.426-.082Z" transform="translate(-2866.61 1286.707)" fill="#eea886"/>
    </g>
    <g id="Group_96360" data-name="Group 96360" transform="translate(2670.324 -1345.163)">
      <path id="Path_140098" data-name="Path 140098" d="M2878.3-1285.543a30.528,30.528,0,0,1,1.624,9.065c0,4.576.13,12.029.7,14.383s2.179,9.632,2.179,9.632l1.264-.653s-3.039-11.617-3.269-12.454a80.641,80.641,0,0,1,.392-10.428c.218-.742,1.146-4.04,1-4.955a8.385,8.385,0,0,0-3-4.328Z" transform="translate(-2878.302 1285.543)" fill="url(#linear-gradient-3)"/>
    </g>
    <g id="Group_96361" data-name="Group 96361" transform="translate(2658.392 -1345.576)">
      <path id="Path_140099" data-name="Path 140099" d="M2860.658-1286.392a46.6,46.6,0,0,1,1.519,7.366c.511,4.137-1.568,23.338-2.963,27.7l-5.405-.871s1.163-13.573,2.743-16.042,2.082-4.655.378-9.81.747-7.708.747-7.708S2860.184-1286.339,2860.658-1286.392Z" transform="translate(-2853.809 1286.392)" fill="url(#linear-gradient-3)"/>
    </g>
    <g id="Group_96362" data-name="Group 96362" transform="translate(2657.234 -1336.25)">
      <path id="Path_140100" data-name="Path 140100" d="M2865.27-1262.878l-6.554,11.35-7.285-4.206,6.269-11.515Z" transform="translate(-2851.431 1267.249)" fill="#0a5936"/>
    </g>
    <g id="Group_96363" data-name="Group 96363" transform="translate(2657.991 -1335.37)">
      <path id="Path_140101" data-name="Path 140101" d="M2865.277-1261.562l-5.82,10.081-6.47-3.735,5.568-10.227Z" transform="translate(-2852.987 1265.444)" fill="#f0fff8"/>
    </g>
    <g id="Group_96364" data-name="Group 96364" transform="translate(2665.417 -1334.612)">
      <path id="Path_140102" data-name="Path 140102" d="M2870.947-1261.67l.409-.707-2.616-1.51-.51.649Z" transform="translate(-2868.229 1263.888)" fill="#0a5936"/>
    </g>
    <g id="Group_96370" data-name="Group 96370" transform="translate(2664.818 -1327.869)">
      <g id="Group_96369" data-name="Group 96369" transform="translate(0 0)">
        <g id="Group_96368" data-name="Group 96368">
          <g id="Group_96367" data-name="Group 96367">
            <g id="Group_96366" data-name="Group 96366">
              <g id="Group_96365" data-name="Group 96365">
                <path id="Path_140103" data-name="Path 140103" d="M2870-1246.519a1.354,1.354,0,0,1-.428-.061s-.229-.133-.4-.218a1.312,1.312,0,0,0-.133-.059,2.483,2.483,0,0,1-.73-.309,16.686,16.686,0,0,1-1.316-1.389l.484-.737.356-.755a16.707,16.707,0,0,1,2.446.3.788.788,0,0,1,.081.049,3.164,3.164,0,0,1,.456.466c.042.036.43.416.416.578a.53.53,0,0,1-.258.447,1.27,1.27,0,0,1-.272.643.789.789,0,0,1-.38.584S2870.243-1246.578,2870-1246.519Z" transform="translate(-2866.999 1250.047)" fill="#eea886"/>
              </g>
            </g>
          </g>
        </g>
      </g>
    </g>
    <g id="Group_96372" data-name="Group 96372" transform="translate(2657.066 -1344.999)">
      <g id="Group_96371" data-name="Group 96371">
        <path id="Path_140104" data-name="Path 140104" d="M2857.4-1285.14a2.748,2.748,0,0,0-3.13,1.623,10,10,0,0,0-1.287,4.2c-.144,1.011-.793,3.772-.859,4.057s-1.537,3.685-.862,4.873,7.566,4.71,7.522,4.973,1.193-2.658,1.193-2.658a29.486,29.486,0,0,1-3.244-2.031c-.741-.777-2.306-1.614-1.984-2.578.377-1.132,1.512-4.952,1.775-5.511S2859.08-1284.428,2857.4-1285.14Z" transform="translate(-2851.087 1285.207)" fill="url(#linear-gradient-3)"/>
      </g>
    </g>
    <g id="Group_96377" data-name="Group 96377" transform="translate(2665.217 -1356.348)">
      <g id="Group_96376" data-name="Group 96376" transform="translate(0 0)">
        <g id="Group_96375" data-name="Group 96375">
          <g id="Group_96374" data-name="Group 96374">
            <g id="Group_96373" data-name="Group 96373">
              <path id="Path_140105" data-name="Path 140105" d="M2872.491-1308.4s3.543,1.114,1.62,7.228-6.762-.709-6.256-4.434S2872.491-1308.4,2872.491-1308.4Z" transform="translate(-2867.818 1308.502)" fill="#eea987"/>
            </g>
          </g>
        </g>
      </g>
    </g>
    <g id="Group_96382" data-name="Group 96382" transform="translate(2664.938 -1356.839)">
      <g id="Group_96381" data-name="Group 96381" transform="translate(0 0)">
        <g id="Group_96380" data-name="Group 96380">
          <g id="Group_96379" data-name="Group 96379">
            <g id="Group_96378" data-name="Group 96378">
              <path id="Path_140106" data-name="Path 140106" d="M2874.179-1305.347a7.992,7.992,0,0,1-4.707,1.943,7.465,7.465,0,0,0-1.219,1.849s-2.629-4.481.6-7.166S2875.366-1306.454,2874.179-1305.347Z" transform="translate(-2867.245 1309.51)" fill="#0e2d3d"/>
            </g>
          </g>
        </g>
      </g>
    </g>
    <g id="Group_96387" data-name="Group 96387" transform="translate(2665.972 -1351.835)">
      <g id="Group_96386" data-name="Group 96386" transform="translate(0 0)">
        <g id="Group_96385" data-name="Group 96385">
          <g id="Group_96384" data-name="Group 96384">
            <g id="Group_96383" data-name="Group 96383">
              <path id="Path_140107" data-name="Path 140107" d="M2870.6-1298.016c-.023-.445-.3-1.458-.958-1.174s.04,2.346.479,2.219C2870.117-1296.971,2870.651-1296.963,2870.6-1298.016Z" transform="translate(-2869.367 1299.239)" fill="#eea987"/>
            </g>
          </g>
        </g>
      </g>
    </g>
    <g id="Group_96388" data-name="Group 96388" transform="translate(2666.869 -1348.255)">
      <path id="Path_140108" data-name="Path 140108" d="M2873.884-1290.222c-.021.232-.044.489-.065.752,0,0-1.564-.093-2.609-2.419C2871.279-1291.788,2872.424-1290.1,2873.884-1290.222Z" transform="translate(-2871.21 1291.89)" fill="#a77860"/>
    </g>
    <g id="Group_96389" data-name="Group 96389" transform="translate(2541.521 -1401.782)">
      <path id="Path_140109" data-name="Path 140109" d="M2615.955-1258.884l.819-.226a45.01,45.01,0,0,0,2.55,7.126l-.763.375A45.076,45.076,0,0,1,2615.955-1258.884Zm-2.034-14.66q0-.286,0-.575l.85.01c0,.189,0,.377,0,.565a52.369,52.369,0,0,0,.478,7l-.843.114A53.382,53.382,0,0,1,2613.921-1273.544Zm.7-8.251a44.588,44.588,0,0,1,1.973-7.455l.8.288a43.794,43.794,0,0,0-1.935,7.313Zm5.214-14.45a47.014,47.014,0,0,1,4.384-6.34l.657.539a46.125,46.125,0,0,0-4.3,6.223Zm9.694-11.914a52.067,52.067,0,0,1,6.07-4.72l.471.708a50.5,50.5,0,0,0-5.971,4.642Zm12.744-8.545c2.117-1.046,4.419-2.049,7.034-3.065l.308.792c-2.592,1.007-4.872,2-6.966,3.035Zm14.242-5.664q1.255-.43,2.518-.857c1.564-.531,3.136-1.063,4.713-1.615l.281.8c-1.58.553-3.154,1.088-4.72,1.619q-1.261.427-2.516.856Zm14.37-5.144c2.511-1.02,4.777-2.046,6.926-3.137l.385.758c-2.171,1.1-4.458,2.138-6.99,3.167Zm13.508-6.918a66.312,66.312,0,0,0,6.113-4.488l.542.655a67.367,67.367,0,0,1-6.192,4.545Zm11.677-9.64c1.713-1.77,3.392-3.692,4.992-5.714l.667.528c-1.618,2.043-3.317,3.988-5.048,5.777Zm9.44-11.869c1.349-2.042,2.681-4.226,3.956-6.492l.74.417c-1.285,2.284-2.626,4.485-3.987,6.543Zm7.569-13.229a61.264,61.264,0,0,1,4.2-6.446l.681.508a60.45,60.45,0,0,0-4.14,6.357Zm121.026-10.6.61-.592a41.743,41.743,0,0,1,4.307,5.195l-.7.486A40.934,40.934,0,0,0,2834.107-1379.77Zm-111.839-1.7a60.306,60.306,0,0,1,5.708-5.166l.53.665a59.119,59.119,0,0,0-5.627,5.093Zm99.85-7.542.431-.732a64.2,64.2,0,0,1,6.392,4.284l-.516.675A63.693,63.693,0,0,0,2822.118-1389.013Zm-87.83-2.027a66.428,66.428,0,0,1,6.789-3.614l.355.772a65.854,65.854,0,0,0-6.7,3.567Zm74.038-4.349.285-.8c2.448.87,4.843,1.843,7.121,2.891l-.356.772C2813.121-1393.563,2810.749-1394.526,2808.326-1395.389Zm-60.1-2.1c2.385-.8,4.874-1.506,7.4-2.088l.192.828c-2.5.575-4.957,1.271-7.316,2.065Zm45.4-1.82.154-.835c2.522.464,5.043,1.03,7.494,1.682l-.219.821C2798.624-1398.287,2796.125-1398.849,2793.625-1399.309Zm-30.449-1.649c2.5-.342,5.075-.583,7.649-.716l.044.849c-2.551.132-5.1.37-7.577.709Zm15.306.046.025-.849c2.539.072,5.119.246,7.666.516l-.09.845C2783.558-1400.669,2781-1400.84,2778.482-1400.912Z" transform="translate(-2613.921 1401.761)" fill="#d2f6e6"/>
    </g>
    <g id="Group_96390" data-name="Group 96390" transform="translate(2537.641 -1224.558)">
      <path id="Path_140110" data-name="Path 140110" d="M2688.516-992.32s-11-32.263,9.993-42.265,38.82,4.456,42.187,12.28,2.476,22.05-.4,31.97-2.453,25.023,3.785,30.073,13.976,13.439,13.593,30.513c-.239,10.594-41.684-27.1-41.684-27.1Z" transform="translate(-2646.816 1037.991)" fill="#252e3b"/>
      <path id="Path_140111" data-name="Path 140111" d="M2677.154-866.386s17.256,3.824,24.106,7.827,22.059,22.415,22.059,30.331-66.518,15.314-66.518,15.314l-12.608,46.028s-33.621-8.2-37.623-15.009,12.77-55.571,15.641-65.442c2.928-10.067,14.978-17.088,28.988-19.05A96.2,96.2,0,0,1,2677.154-866.386Z" transform="translate(-2605.956 950.437)" fill="#0a5936"/>
      <path id="Path_140112" data-name="Path 140112" d="M2701.277-867.085s.387,20.973,17.021,21.6,13.17-20.116,13.17-20.116S2719.3-870.534,2701.277-867.085Z" transform="translate(-2654.838 950.976)" fill="#ffb490"/>
      <path id="Path_140113" data-name="Path 140113" d="M2685.778-995.7s-5.884,33.732,10.872,58.1C2714-912.366,2685.778-995.7,2685.778-995.7Z" transform="translate(-2646.376 1016.304)" fill="#252e3b"/>
      <path id="Path_140114" data-name="Path 140114" d="M2707.685-903.478s1.156,10.032-.775,16.271,25.434,6.413,25.418,1.282c-.018-5.828-2.8-10.7-.178-20.685S2707.685-903.478,2707.685-903.478Z" transform="translate(-2657.676 972.541)" fill="#ffb490"/>
      <path id="Path_140115" data-name="Path 140115" d="M2731.448-893.607s-8.639,9-19.687.939c0,0,.913,5.754,8.859,6.5S2731.448-893.607,2731.448-893.607Z" transform="translate(-2660.214 963.949)" fill="#a77860"/>
      <path id="Path_140116" data-name="Path 140116" d="M2709.943-1020.169s-21.836,6.462-18.716,36.764,17.379,28.742,18.716,28.965,18.27,1.337,23.617-35.426S2709.943-1020.169,2709.943-1020.169Z" transform="translate(-2649.528 1029.075)" fill="#ffb490"/>
      <path id="Path_140117" data-name="Path 140117" d="M2715.136-1008.62s-11.865,18.873-24.352,23.252c0,0-6.818-31.669,21.344-38.3s23.751,31.987,21.649,42.286A83.7,83.7,0,0,0,2715.136-1008.62Z" transform="translate(-2649.085 1031.039)" fill="#252e3b"/>
      <path id="Path_140118" data-name="Path 140118" d="M2738.821-1012.891s-6.246-12.095-16.792-12.635-16.818,8.609-16.818,8.609a17.931,17.931,0,0,1,16.8-10.3C2734.7-1027.219,2738.821-1012.891,2738.821-1012.891Z" transform="translate(-2656.855 1032.467)" fill="url(#linear-gradient-3)"/>
    </g>
    <rect id="Rectangle_32771" data-name="Rectangle 32771" width="18.187" height="6.919" transform="translate(2560.294 -1047.932)" fill="url(#linear-gradient-8)"/>
    <path id="Path_140119" data-name="Path 140119" d="M2678.278-802.552l-7.4,68.843h97.461l7.4-68.843Z" transform="translate(-101.605 -307.304)" fill="url(#linear-gradient-9)"/>
    <path id="Path_140120" data-name="Path 140120" d="M2765.869-741.148c-.876,4.282,1.123,8.308,4.462,8.99s6.756-2.236,7.631-6.518-1.123-8.308-4.462-8.99S2766.744-745.431,2765.869-741.148Z" transform="translate(-150.215 -335.399)" fill="#fff"/>
    <g id="Group_96431" data-name="Group 96431" transform="translate(2866.149 -1264.044)">
      <g id="Group_96392" data-name="Group 96392" transform="translate(25.483 8.929)">
        <g id="Group_96391" data-name="Group 96391">
          <path id="Path_140121" data-name="Path 140121" d="M3332.837-1091.87s-.9-1.571.526-5.782a4.244,4.244,0,0,1,7.66-1.094c1.515,2.608,1,4.229-1.227,7.175S3333.763-1090.523,3332.837-1091.87Z" transform="translate(-3332.558 1100.712)" fill="#eea886"/>
        </g>
      </g>
      <g id="Group_96394" data-name="Group 96394" transform="translate(36.834 89.998)">
        <g id="Group_96393" data-name="Group 96393">
          <path id="Path_140122" data-name="Path 140122" d="M3355.858-934.086s.237,1.729.266,1.988,2.624-.152,2.624-.152l.211-2.06A14.542,14.542,0,0,0,3355.858-934.086Z" transform="translate(-3355.858 934.31)" fill="#eea886"/>
        </g>
      </g>
      <g id="Group_96396" data-name="Group 96396" transform="translate(32.57 91.873)">
        <g id="Group_96395" data-name="Group 96395">
          <path id="Path_140123" data-name="Path 140123" d="M3351.608-930.344a7.147,7.147,0,0,1-1.617,1.5c-.795.454-2.044.634-2.515,1.1-.339.339-1.236,1.8,2.066,1.771s4.894.206,5.248-.354-.511-4.136-.511-4.136A9.1,9.1,0,0,1,3351.608-930.344Z" transform="translate(-3347.105 930.461)" fill="#0a5936"/>
        </g>
      </g>
      <g id="Group_96398" data-name="Group 96398" transform="translate(18.869 89.998)">
        <g id="Group_96397" data-name="Group 96397">
          <path id="Path_140124" data-name="Path 140124" d="M3318.984-934.086s.235,1.729.266,1.988,2.624-.152,2.624-.152l.21-2.06A14.531,14.531,0,0,0,3318.984-934.086Z" transform="translate(-3318.984 934.31)" fill="#eea886"/>
        </g>
      </g>
      <g id="Group_96400" data-name="Group 96400" transform="translate(13.079 91.873)">
        <g id="Group_96399" data-name="Group 96399">
          <path id="Path_140125" data-name="Path 140125" d="M3313.127-930.344a7.159,7.159,0,0,1-1.618,1.5c-.794.454-3.721.827-4.19,1.3-.34.339-.9,1.705,3.743,1.578,3.3-.092,4.894.206,5.248-.354s-.512-4.136-.512-4.136A13.646,13.646,0,0,1,3313.127-930.344Z" transform="translate(-3307.098 930.461)" fill="#0a5936"/>
        </g>
      </g>
      <g id="Group_96402" data-name="Group 96402" transform="translate(29.044 47.16)">
        <g id="Group_96401" data-name="Group 96401">
          <path id="Path_140126" data-name="Path 140126" d="M3346.785-1022.239a25.666,25.666,0,0,1,1.156,7.7c-.176,3.563.688,7.461,1.041,11.183.393,4.149,2,13.971,2.061,16.19s-.25,9.307-.25,9.307l-3.222.077s-2.706-17.172-3.407-18.924-4.176-14.243-4.293-15.645S3346.785-1022.239,3346.785-1022.239Z" transform="translate(-3339.868 1022.239)" fill="#0a5936"/>
        </g>
      </g>
      <g id="Group_96404" data-name="Group 96404" transform="translate(18.504 45.852)">
        <g id="Group_96403" data-name="Group 96403">
          <path id="Path_140127" data-name="Path 140127" d="M3322.33-1024.046s-1.955,10.931-2.189,13.111-.389,10.552-.506,11.915-.779,17.834-1.4,19.859h3.593s3.688-11.974,3.688-17.639,2.444-12.317,4.02-16.055,5.187-3.826,6.156-10.761C3335.69-1023.616,3323.643-1026.246,3322.33-1024.046Z" transform="translate(-3318.233 1024.923)" fill="#0a5936"/>
        </g>
      </g>
      <g id="Group_96406" data-name="Group 96406" transform="translate(27.044 17.593)">
        <g id="Group_96405" data-name="Group 96405">
          <path id="Path_140128" data-name="Path 140128" d="M3335.784-1081.638a3.125,3.125,0,0,1,0,2.021c-.406.842,5.178.337,5.178.337a6.009,6.009,0,0,1,.477-3.171C3342.168-1083.881,3335.784-1081.638,3335.784-1081.638Z" transform="translate(-3335.763 1082.928)" fill="#eea886"/>
        </g>
      </g>
      <g id="Group_96408" data-name="Group 96408" transform="translate(22.422 46.729)">
        <g id="Group_96407" data-name="Group 96407">
          <path id="Path_140129" data-name="Path 140129" d="M3340.073-1021.792s-2.008,2.063-13.8-.321l.179-1.01,13.4.5Z" transform="translate(-3326.275 1023.123)" fill="#323657"/>
        </g>
      </g>
      <g id="Group_96410" data-name="Group 96410" transform="translate(9.783 6.819)">
        <g id="Group_96409" data-name="Group 96409">
          <path id="Path_140130" data-name="Path 140130" d="M3316.77-1090.684s-2.062.211-2.651.323-4.555-.709-5.369-.793a16.63,16.63,0,0,1-4.4-2.742,57.746,57.746,0,0,1-2.223-6.434c-.112-1.095-1.946-.53-1.79.224.3,1.411.673,4.834.88,5.827a15.494,15.494,0,0,0,1.16,3.8,24.173,24.173,0,0,0,6.519,3.685,25.99,25.99,0,0,1,5.36,2.5h15.072s5.863-8.38,5.989-9.643-4.1-9.654-4.936-10.706-2.06.344-2.06.344,2.522,7.4,2.858,8.452-2.933,5.675-3.831,5.689-3.2-.281-4.227-.323a7.179,7.179,0,0,1-2.1-.491Z" transform="translate(-3300.333 1105.041)" fill="#eea886"/>
        </g>
      </g>
      <g id="Group_96412" data-name="Group 96412" transform="translate(16.527 18.532)">
        <g id="Group_96411" data-name="Group 96411">
          <path id="Path_140131" data-name="Path 140131" d="M3317.373-1072.757a4.867,4.867,0,0,1,2.014,3.331,43.46,43.46,0,0,0,1.178,6.565c.336,1.136-.294,9.384-.38,9.974s11.664,1.989,13.468.589c0,0,.505-7.7.716-9.89a57.439,57.439,0,0,1,1.556-8.206c.337-.716,4.419-6.442,4.587-7.2,0,0-2.112-3.367-3.627-3.409,0,0-2.406,2.82-3.19,2.946a44.142,44.142,0,0,1-5.594-.762s-.525.714-3.315-.127c0,0-3.323.375-3.864.444-.654.083-5.2-.571-5.2-.571s-1.825,3.083-1.506,4.639Z" transform="translate(-3314.175 1081)" fill="#f1d54e"/>
        </g>
      </g>
      <g id="Group_96414" data-name="Group 96414" transform="translate(7.567 3.837)">
        <g id="Group_96413" data-name="Group 96413">
          <path id="Path_140132" data-name="Path 140132" d="M3299.905-1102.812s-.412-1.951.083-2.51c.284-.319.961-1.163,1.023-1.287s.791-.542.791-.744-.713-.45-1.333.124-1.008.7-1.256.635-.6-2.124-.635-2.636-.229-1.86-.549-1.767-.3.682-.3.682-.372-1.023-.62-.821-.218.7-.218.7-.464-.573-.589-.155a1.448,1.448,0,0,0,0,.791s-.48-.264-.511.387a9.909,9.909,0,0,0,.48,3.24,25.433,25.433,0,0,1,1.77,3.163C3298.191-1102.315,3299.905-1102.812,3299.905-1102.812Z" transform="translate(-3295.784 1111.162)" fill="#eea886"/>
        </g>
      </g>
      <g id="Group_96416" data-name="Group 96416" transform="translate(33.24 0)">
        <g id="Group_96415" data-name="Group 96415">
          <path id="Path_140133" data-name="Path 140133" d="M3353.428-1110.277a12.881,12.881,0,0,0-1.879-2.568,8.007,8.007,0,0,1-1.74-.75c-.589-.421-1.368-.772-1.325-.912s.736-.084,1.479.238,1.07.167,1.139,0a4.333,4.333,0,0,0-.62-1.637c-.225-.28-1.824-1.889-1.557-2.128s1.3.645,1.473.827c0,0-.827-1.739-.5-1.823s.925.533.925.533-.07-1.487,1.529.926c0,0-.336-.8.155-.533s.968,1.768,1.122,2.525a11.4,11.4,0,0,0,1.451,3.753C3355.672-1111.245,3353.428-1110.277,3353.428-1110.277Z" transform="translate(-3348.482 1119.039)" fill="#eea886"/>
        </g>
      </g>
      <g id="Group_96418" data-name="Group 96418" transform="translate(26.249 8.571)">
        <g id="Group_96417" data-name="Group 96417">
          <path id="Path_140134" data-name="Path 140134" d="M3340.6-1091.948a6.367,6.367,0,0,1-2.311-.476c-1.57-.543-1.688-3.291-2.027-2.965a.993.993,0,0,1-1.61-.187s.767-1.01.411-1.5a3.772,3.772,0,0,0-.934-.841s1.106-5.327,6.134-2.9C3346.158-1097.97,3340.6-1091.948,3340.6-1091.948Z" transform="translate(-3334.132 1101.447)" fill="#353a3d"/>
        </g>
      </g>
      <g id="Group_96420" data-name="Group 96420" transform="translate(27.065 20.126)">
        <g id="Group_96419" data-name="Group 96419">
          <path id="Path_140135" data-name="Path 140135" d="M3335.807-1076.95l.177-.77a40.8,40.8,0,0,1,4.961.189l.184.92A6.891,6.891,0,0,1,3335.807-1076.95Z" transform="translate(-3335.807 1077.727)" fill="#f1d54e"/>
        </g>
      </g>
      <g id="Group_96422" data-name="Group 96422" transform="translate(27.407 13.537)">
        <g id="Group_96421" data-name="Group 96421">
          <path id="Path_140136" data-name="Path 140136" d="M3336.958-1090.835c.292-.485,1.37-.812,1.5.561.1,1.064-1.926,2.225-1.945,1.235A2.99,2.99,0,0,1,3336.958-1090.835Z" transform="translate(-3336.509 1091.254)" fill="#eea886"/>
        </g>
      </g>
      <g id="Group_96424" data-name="Group 96424" transform="translate(9.886 11.745)">
        <g id="Group_96423" data-name="Group 96423">
          <path id="Path_140137" data-name="Path 140137" d="M3302.27-1094.932a3.2,3.2,0,0,0-1.72.536,1.161,1.161,0,0,0,.094.576,7.177,7.177,0,0,1,1.774-.556S3302.4-1094.8,3302.27-1094.932Z" transform="translate(-3300.545 1094.932)" fill="#e55353"/>
        </g>
      </g>
      <g id="Group_96426" data-name="Group 96426" transform="translate(10.206 11.729)">
        <g id="Group_96425" data-name="Group 96425">
          <path id="Path_140138" data-name="Path 140138" d="M3301.242-1094.66a.5.5,0,0,0,.265.653.5.5,0,0,0,.653-.265.5.5,0,0,0-.266-.652A.5.5,0,0,0,3301.242-1094.66Z" transform="translate(-3301.202 1094.964)" fill="#353a3d"/>
        </g>
      </g>
      <g id="Group_96427" data-name="Group 96427" transform="translate(10.389 95.883)">
        <path id="Path_140139" data-name="Path 140139" d="M3334.377-921.256H3302.92l9.915,30.448-.927.3-10.331-31.724h33.51l10.232,31.422-.927.3Z" transform="translate(-3301.576 922.23)" fill="#f1d54e"/>
      </g>
      <g id="Group_96428" data-name="Group 96428" transform="translate(0 95.883)">
        <path id="Path_140140" data-name="Path 140140" d="M3312.737-890.808l9.914-30.448h-31.458l-10.013,30.75-.927-.3,10.232-31.422h33.509l-10.33,31.724Z" transform="translate(-3280.252 922.23)" fill="#f1d54e"/>
      </g>
      <g id="Group_96429" data-name="Group 96429" transform="translate(7.614 105.47)">
        <rect id="Rectangle_32772" data-name="Rectangle 32772" width="38.503" height="0.975" fill="#f1d54e"/>
      </g>
      <g id="Group_96430" data-name="Group 96430" transform="translate(4.018 116.057)">
        <rect id="Rectangle_32773" data-name="Rectangle 32773" width="46.066" height="0.975" fill="#f1d54e"/>
      </g>
    </g>
  </g>
</svg>
