<svg xmlns="http://www.w3.org/2000/svg" width="80" height="80" viewBox="0 0 80 80">
  <g id="t1-i13" transform="translate(-16 -16)">
    <path id="Path_105787" data-name="Path 105787" d="M144,24h37.333v77.333H144Z" transform="translate(-106.667 -6.667)" fill="#d2f6e6"/>
    <path id="Path_105788" data-name="Path 105788" d="M0,0H16V66.667H0Z" transform="translate(37.333 94.667) rotate(180)" fill="#e8e8e8"/>
    <path id="Path_105789" data-name="Path 105789" d="M0,0H16V66.667H0Z" transform="translate(90.667 94.667) rotate(180)" fill="#e8e8e8"/>
    <g id="Group_91664" data-name="Group 91664" transform="translate(26.667 22.667)">
      <path id="Path_105790" data-name="Path 105790" d="M240,56h5.333v5.333H240Z" transform="translate(-213.333 -56)" fill="#b0ddc9"/>
      <path id="Path_105791" data-name="Path 105791" d="M304,56h5.333v5.333H304Z" transform="translate(-266.667 -56)" fill="#b0ddc9"/>
      <path id="Path_105792" data-name="Path 105792" d="M176,56h5.333v5.333H176Z" transform="translate(-160 -56)" fill="#b0ddc9"/>
      <path id="Path_105793" data-name="Path 105793" d="M240,120h5.333v5.333H240Z" transform="translate(-213.333 -109.333)" fill="#b0ddc9"/>
      <path id="Path_105794" data-name="Path 105794" d="M304,120h5.333v5.333H304Z" transform="translate(-266.667 -109.333)" fill="#b0ddc9"/>
      <path id="Path_105795" data-name="Path 105795" d="M176,120h5.333v5.333H176Z" transform="translate(-160 -109.333)" fill="#b0ddc9"/>
      <path id="Path_105796" data-name="Path 105796" d="M240,184h5.333v5.333H240Z" transform="translate(-213.333 -162.667)" fill="#b0ddc9"/>
      <path id="Path_105797" data-name="Path 105797" d="M304,184h5.333v5.333H304Z" transform="translate(-266.667 -162.667)" fill="#b0ddc9"/>
      <path id="Path_105798" data-name="Path 105798" d="M176,184h5.333v5.333H176Z" transform="translate(-160 -162.667)" fill="#b0ddc9"/>
      <path id="Path_105799" data-name="Path 105799" d="M80,120h5.333v5.333H80Z" transform="translate(-80 -109.333)" fill="#b0ddc9"/>
      <path id="Path_105800" data-name="Path 105800" d="M80,184h5.333v5.333H80Z" transform="translate(-80 -162.667)" fill="#b0ddc9"/>
      <path id="Path_105801" data-name="Path 105801" d="M400,120h5.333v5.333H400Z" transform="translate(-346.667 -109.333)" fill="#b0ddc9"/>
      <path id="Path_105802" data-name="Path 105802" d="M400,184h5.333v5.333H400Z" transform="translate(-346.667 -162.667)" fill="#b0ddc9"/>
    </g>
    <path id="Path_105803" data-name="Path 105803" d="M368,88h2.667v66.667H368Z" transform="translate(-293.333 -60)" fill="#b0ddc9"/>
    <path id="Path_105804" data-name="Path 105804" d="M51.333,216a11.333,11.333,0,0,1,11.333,11.333V248H40V227.333A11.333,11.333,0,0,1,51.333,216Z" transform="translate(-20 -166.667)" fill="#f1d54e"/>
    <path id="Path_105805" data-name="Path 105805" d="M88,352h8v4H88Z" transform="translate(-60 -280)" fill="#fec9a3"/>
    <path id="Path_105806" data-name="Path 105806" d="M60.147,248H70.814a4,4,0,0,1,4,4v8a9.333,9.333,0,1,1-18.667,0v-8A4,4,0,0,1,60.147,248Z" transform="translate(-33.456 -193.333)" fill="#fec9a3"/>
    <path id="Path_105807" data-name="Path 105807" d="M40,232l2.2-.274A21.017,21.017,0,0,0,56,224l5.333,6.667L62.667,228v-1.333A10.667,10.667,0,0,0,52,216H50.269A10.268,10.268,0,0,0,40,226.269Z" transform="translate(-20 -166.667)" fill="#f1d54e"/>
    <path id="Path_105808" data-name="Path 105808" d="M160,432h6.667v9.333H160Z" transform="translate(-120 -346.667)" fill="#fec9a3"/>
    <path id="Path_105809" data-name="Path 105809" d="M24,432h6.667v9.333H24Z" transform="translate(-6.667 -346.667)" fill="#fec9a3"/>
    <path id="Path_105810" data-name="Path 105810" d="M68.436,416l.619.619a5.782,5.782,0,0,1-.619,8.714V428h-16v-2.667a5.782,5.782,0,0,1-.619-8.714l.619-.619Z" transform="translate(-28.436 -333.333)" fill="#348fd9"/>
    <path id="Path_105811" data-name="Path 105811" d="M80,376l5.333,12,5.333-12Z" transform="translate(-53.333 -300)" fill="#fec9a3"/>
    <path id="Path_105812" data-name="Path 105812" d="M88,416h8v5.333H88Z" transform="translate(-60 -333.333)" fill="#5bccd9"/>
    <path id="Path_105813" data-name="Path 105813" d="M46.667,394.667h-16v-9.333H24v-4A5.333,5.333,0,0,1,29.333,376h4l5.333,12L44,376h4a5.333,5.333,0,0,1,5.333,5.333v4H46.667Z" transform="translate(-6.667 -300)" fill="#17c878"/>
    <path id="Path_105814" data-name="Path 105814" d="M376,360h8v4h-8Z" transform="translate(-300 -286.667)" fill="#fec9a3"/>
    <path id="Path_105815" data-name="Path 105815" d="M353.48,270.667a9.333,9.333,0,0,1-9.333-9.333V252a4,4,0,0,1,4-4h10.667a4,4,0,0,1,4,4v9.333a9.333,9.333,0,0,1-9.333,9.333Z" transform="translate(-273.456 -193.333)" fill="#fec9a3"/>
    <path id="Path_105816" data-name="Path 105816" d="M357.333,216h-8A5.333,5.333,0,0,0,344,221.333v5.333h18.667v-5.333A5.333,5.333,0,0,0,357.333,216Z" transform="translate(-273.333 -166.667)" fill="#17c878"/>
    <path id="Path_105817" data-name="Path 105817" d="M354.667,277.333h-.853a14.728,14.728,0,0,1-3.574-.44,14.737,14.737,0,0,0-7.147,0,14.725,14.725,0,0,1-3.573.44h-.853a2.667,2.667,0,0,1,0-5.333h16a2.667,2.667,0,0,1,0,5.333Z" transform="translate(-266.667 -213.333)" fill="#17c878"/>
    <path id="Path_105818" data-name="Path 105818" d="M317.333,384A5.333,5.333,0,0,0,312,389.333v12h29.333v-12A5.333,5.333,0,0,0,336,384Z" transform="translate(-246.667 -306.667)" fill="#17c878"/>
    <path id="Path_105819" data-name="Path 105819" d="M376,384l4,6.667L384,384Z" transform="translate(-300 -306.667)" fill="#e0e0de"/>
    <path id="Path_105820" data-name="Path 105820" d="M232,352h8v4h-8Z" transform="translate(-180 -280)" fill="#fec9a3"/>
    <path id="Path_105821" data-name="Path 105821" d="M204,240h10.667a4,4,0,0,1,4,4v9.333a9.333,9.333,0,0,1-18.667,0V244A4,4,0,0,1,204,240Z" transform="translate(-153.333 -186.667)" fill="#fec9a3"/>
    <path id="Path_105822" data-name="Path 105822" d="M205.333,229.333l-4-6.667h-14a3.333,3.333,0,0,1,0-6.667H200a5.333,5.333,0,0,1,5.333,5.333Z" transform="translate(-140 -166.667)" fill="#f1d54e"/>
    <path id="Path_105823" data-name="Path 105823" d="M173.333,376A5.333,5.333,0,0,0,168,381.333v13.333h29.333V381.333A5.333,5.333,0,0,0,192,376Z" transform="translate(-126.667 -300)" fill="#e8e8e8"/>
    <path id="Path_105824" data-name="Path 105824" d="M232,376l2.667,4-1.333,12L236,394.667,238.667,392l-1.333-12L240,376Z" transform="translate(-180 -300)" fill="#17c878"/>
    <path id="Path_105825" data-name="Path 105825" d="M64,56H77.333v5.333H64Z" transform="translate(-40 -33.333)" fill="#e8e8e8"/>
    <path id="Path_105826" data-name="Path 105826" d="M368,56h13.333v5.333H368Z" transform="translate(-293.333 -33.333)" fill="#e8e8e8"/>
    <path id="Path_105827" data-name="Path 105827" d="M60,376l-4,5.333,4,1.333v2.667L65.333,388Z" transform="translate(-33.333 -300)" fill="#459de6"/>
    <path id="Path_105828" data-name="Path 105828" d="M117.333,376l4,5.333-4,1.333v2.667L112,388Z" transform="translate(-80 -300)" fill="#459de6"/>
    <path id="Path_105829" data-name="Path 105829" d="M73.333,45.333H76v-16H89.333V48H92V28a1.333,1.333,0,0,0-1.333-1.333H89.333v-4A1.333,1.333,0,0,0,88,21.333H76v-4A1.333,1.333,0,0,0,74.667,16H45.333v2.667h28ZM76,24H86.667v2.667H76ZM22.667,29.333H36V46.667h2.667v-28h4V16H37.333A1.333,1.333,0,0,0,36,17.333v4H24a1.333,1.333,0,0,0-1.333,1.333v4H21.333A1.333,1.333,0,0,0,20,28V49.333h2.667ZM25.333,24H36v2.667H25.333ZM60,22.667a1.333,1.333,0,0,0-1.333-1.333H53.333A1.333,1.333,0,0,0,52,22.667V28a1.333,1.333,0,0,0,1.333,1.333h5.333A1.333,1.333,0,0,0,60,28Zm-2.667,4H54.667V24h2.667Zm13.333-4a1.333,1.333,0,0,0-1.333-1.333H64a1.333,1.333,0,0,0-1.333,1.333V28A1.333,1.333,0,0,0,64,29.333h5.333A1.333,1.333,0,0,0,70.667,28Zm-2.667,4H65.333V24H68Zm-18.667-4A1.333,1.333,0,0,0,48,21.333H42.667a1.333,1.333,0,0,0-1.333,1.333V28a1.333,1.333,0,0,0,1.333,1.333H48A1.333,1.333,0,0,0,49.333,28Zm-2.667,4H44V24h2.667ZM60,33.333A1.333,1.333,0,0,0,58.667,32H53.333A1.333,1.333,0,0,0,52,33.333v5.333A1.333,1.333,0,0,0,53.333,40h5.333A1.333,1.333,0,0,0,60,38.667Zm-2.667,4H54.667V34.667h2.667Zm13.333-4A1.333,1.333,0,0,0,69.333,32H64a1.333,1.333,0,0,0-1.333,1.333v5.333A1.333,1.333,0,0,0,64,40h5.333a1.333,1.333,0,0,0,1.333-1.333Zm-2.667,4H65.333V34.667H68Zm-18.667-4A1.333,1.333,0,0,0,48,32H42.667a1.333,1.333,0,0,0-1.333,1.333v5.333A1.333,1.333,0,0,0,42.667,40H48a1.333,1.333,0,0,0,1.333-1.333Zm-2.667,4H44V34.667h2.667ZM60,44v1.333H52V44a1.333,1.333,0,0,1,1.333-1.333h5.333A1.333,1.333,0,0,1,60,44Zm10.667,0v1.333h-8V44A1.333,1.333,0,0,1,64,42.667h5.333A1.333,1.333,0,0,1,70.667,44ZM49.333,44v1.333h-8V44a1.333,1.333,0,0,1,1.333-1.333H48A1.333,1.333,0,0,1,49.333,44Zm-16-10.667A1.333,1.333,0,0,0,32,32H26.667a1.333,1.333,0,0,0-1.333,1.333v5.333A1.333,1.333,0,0,0,26.667,40H32a1.333,1.333,0,0,0,1.333-1.333Zm-2.667,4H28V34.667h2.667ZM33.333,44v1.333h-8V44a1.333,1.333,0,0,1,1.333-1.333H32A1.333,1.333,0,0,1,33.333,44ZM86.667,33.333A1.333,1.333,0,0,0,85.333,32H80a1.333,1.333,0,0,0-1.333,1.333v5.333A1.333,1.333,0,0,0,80,40h5.333a1.333,1.333,0,0,0,1.333-1.333Zm-2.667,4H81.333V34.667H84ZM86.667,44v1.333h-8V44A1.333,1.333,0,0,1,80,42.667h5.333A1.333,1.333,0,0,1,86.667,44ZM28.024,68h2.667a1.333,1.333,0,0,0,2.667,0h2.667a4,4,0,0,1-8,0Zm9.333-2.667H34.691V62.667h2.667Zm38.642,4h2.667a1.333,1.333,0,1,0,2.667,0H84a4,4,0,1,1-8,0ZM17.333,96H94.667A1.333,1.333,0,0,0,96,94.667v-8H93.333v6.667H90.667V84H88v2.667H84v2.667h4v4H81.333V84.369l3.422-5.7h4.578a4,4,0,0,1,4,4V84H96V82.667A6.674,6.674,0,0,0,89.333,76H87.069a10.642,10.642,0,0,0,3.623-8V64.29a3.994,3.994,0,0,0-.008-5.92c0-.067-.017-3.7-.017-3.7A6.674,6.674,0,0,0,84,48H76a6.674,6.674,0,0,0-6.667,6.667v3.688a3.992,3.992,0,0,0,.025,5.978V68a10.642,10.642,0,0,0,3.624,8s-3.119.039-3.511.111a6.633,6.633,0,0,0-4.137-1.445H63.044a10.642,10.642,0,0,0,3.623-8v-12A6.674,6.674,0,0,0,60,48H47.333a4.667,4.667,0,0,0-1.981,8.89c-.012.147-.019,9.776-.019,9.776a10.642,10.642,0,0,0,3.624,8h-2.29A6.626,6.626,0,0,0,44,75.225V60.667a12.667,12.667,0,0,0-22.325-8.2L23.709,54.2a10,10,0,0,1,17.625,6.47l-.261.873L37.041,56.5a1.333,1.333,0,0,0-2.082,0A19.581,19.581,0,0,1,22.03,63.736l-.7.087V60.667a10.018,10.018,0,0,1,1.176-4.711L20.158,54.7a12.692,12.692,0,0,0-1.491,5.967V76A6.691,6.691,0,0,0,16,81.333V94.667A1.333,1.333,0,0,0,17.333,96ZM80,81.408l-1.645-2.742h3.29ZM72,54.667a4,4,0,0,1,4-4h8a4,4,0,0,1,4,4v2.667H72Zm-1.333,6.667A1.335,1.335,0,0,1,72,60H88a1.333,1.333,0,0,1,0,2.667h-.853a13.412,13.412,0,0,1-3.249-.4,16.125,16.125,0,0,0-7.8,0,13.415,13.415,0,0,1-3.25.4H72A1.335,1.335,0,0,1,70.667,61.333ZM72.025,68V65.333h.828a16.046,16.046,0,0,0,1.814-.1v1.438h2.667V64.723a13.463,13.463,0,0,1,5.333,0v1.944h2.667V65.229a16.048,16.048,0,0,0,1.814.1h.878V68a8,8,0,1,1-16,0Zm3.22,10.667,3.422,5.7v8.964H72v-4h4V86.667H72V81.333a6.627,6.627,0,0,0-.558-2.667ZM30.667,93.333H25.333V92a1.333,1.333,0,0,0-.533-1.067,4.449,4.449,0,0,1-.477-6.7l.619-.619-.168-.168.558.186v1.706a1.333,1.333,0,0,0,.737,1.192l4.6,2.3ZM27.088,81.4l-2.245-.748,1.527-2.037,2.9,6.528L28,84.509V82.667a1.333,1.333,0,0,0-.912-1.265Zm1.63-4.069h6.563L32,84.717Zm8.911,1.283,1.527,2.036-2.245.748A1.333,1.333,0,0,0,36,82.667v1.843l-1.272.636ZM40,90.158a4.476,4.476,0,0,1-.8.775A1.333,1.333,0,0,0,38.667,92v1.333H33.333V88.824l4.6-2.3a1.333,1.333,0,0,0,.737-1.193V83.628l.558-.186-.168.168.62.62a4.531,4.531,0,0,1,.323.36Zm16,2.623L54.729,91.51l1.263-11.363A1.32,1.32,0,0,0,56,80a1.32,1.32,0,0,0,.008.145L57.271,91.51Zm.224-13.521A1.333,1.333,0,0,0,56,80a1.333,1.333,0,0,0-.224-.737l-1.285-1.927h3.017Zm9.109-1.927a4,4,0,0,1,4,4v12H66.667V82.667H64V93.333H59.219l.391-.39a1.333,1.333,0,0,0,.382-1.09l-1.28-11.517,2-3Zm-20-24.667a2,2,0,0,1,2-2H60a4,4,0,0,1,4,4v3.186l-1.523-2.539a1.333,1.333,0,0,0-1.143-.647h-14A2,2,0,0,1,45.333,52.667Zm2.667,14V57.333H60.578L64,63.036v3.631a8,8,0,0,1-16,0ZM42.667,81.333a4,4,0,0,1,4-4h4.62l2,3-1.28,11.517a1.333,1.333,0,0,0,.382,1.09l.391.391H48V82.667H45.333V93.333H42.667Zm-1.33-4a6.684,6.684,0,0,0-.607.973L40,77.333Zm0-5.467v2.8H39.069A10.738,10.738,0,0,0,41.333,71.867ZM24.025,66.11a22.383,22.383,0,0,0,2.864-.776h2.469V64.317a22.221,22.221,0,0,0,6.6-4.9L40.025,64.5v2.167a8,8,0,0,1-16,0Zm-2.667.4v.16a10.642,10.642,0,0,0,3.624,8H22.667a6.686,6.686,0,0,0-1.333.135ZM18.667,81.333a4,4,0,0,1,4-4H24l-2.4,3.2a1.331,1.331,0,0,0,.61,2.05,7.118,7.118,0,0,0-1,1.417H18.667Zm0,5.333H20.39a7.1,7.1,0,0,0,2.276,5.958v.709h-4ZM52,66.667h2.667a1.333,1.333,0,0,0,2.667,0H60a4,4,0,0,1-8,0ZM53.333,64H50.667V61.333h2.667Zm8,0H58.667V61.333h2.667Z"/>
  </g>
</svg>
