<svg xmlns="http://www.w3.org/2000/svg" width="78.667" height="80" viewBox="0 0 78.667 80">
  <g id="t1-i14" transform="translate(-15.997 -16.001)">
    <path id="Path_105830" data-name="Path 105830" d="M256,104h26.667v26.667H256Z" transform="translate(-200.003 -73.333)" fill="#f1d54e"/>
    <path id="Path_105831" data-name="Path 105831" d="M288,136h16v17.333H288Z" transform="translate(-226.669 -99.999)" fill="#d2f6e6"/>
    <path id="Path_105832" data-name="Path 105832" d="M296,408h13.333v13.333H296Z" transform="translate(-233.336 -326.666)" fill="#b0ddc9"/>
    <path id="Path_105833" data-name="Path 105833" d="M304,416h10.667v6.667H304Z" transform="translate(-240.003 -333.333)" fill="#f1d54e"/>
    <path id="Path_105834" data-name="Path 105834" d="M216,416h10.667v12H216Z" transform="translate(-166.669 -333.333)" fill="#d2f6e6"/>
    <path id="Path_105835" data-name="Path 105835" d="M392,416h10.667v12H392Z" transform="translate(-313.336 -333.333)" fill="#f1d54e"/>
    <path id="Path_105836" data-name="Path 105836" d="M192,376h48v6.667H192Z" transform="translate(-146.669 -299.999)" fill="#d2f6e6"/>
    <path id="Path_105837" data-name="Path 105837" d="M448,416h5.333v12H448Z" transform="translate(-360.003 -333.333)" fill="#b0ddc9"/>
    <path id="Path_105838" data-name="Path 105838" d="M232,197.333V176l34.667-16v37.333Z" transform="translate(-180.003 -119.999)" fill="#d2f6e6"/>
    <path id="Path_105839" data-name="Path 105839" d="M288,40h16V50.667H288Z" transform="translate(-226.669 -19.999)" fill="#d2f6e6"/>
    <path id="Path_105840" data-name="Path 105840" d="M368,416h5.333v12H368Z" transform="translate(-293.336 -333.333)" fill="#b0ddc9"/>
    <path id="Path_105841" data-name="Path 105841" d="M272,416h5.333v12H272Z" transform="translate(-213.336 -333.333)" fill="#d2f6e6"/>
    <path id="Path_105842" data-name="Path 105842" d="M30.663,320A6.667,6.667,0,0,0,24,326.667v9.195a8.135,8.135,0,0,0,4,7.01v6.462H49.33V348H56a8,8,0,0,0,8-8V326.667A6.667,6.667,0,0,0,57.33,320Z" transform="translate(-6.667 -253.333)" fill="#fb9e36"/>
    <path id="Path_105843" data-name="Path 105843" d="M117.333,320v6.667l-.693,1.155-3.307,5.512H108l-3.307-5.512L104,326.667V320Z" transform="translate(-73.336 -253.333)" fill="#fcedc0"/>
    <path id="Path_105844" data-name="Path 105844" d="M132,360l1.333,6.667H128L129.333,360Z" transform="translate(-93.336 -286.666)" fill="#17c878"/>
    <path id="Path_105845" data-name="Path 105845" d="M129.33,333.333,128,330.667,130.664,328l2.667,2.667L132,333.333Z" transform="translate(-93.334 -259.999)" fill="#17c878"/>
    <path id="Path_105846" data-name="Path 105846" d="M112,240v9.333a5.333,5.333,0,0,0,5.333,5.333h0a5.333,5.333,0,0,0,5.333-5.333V240Z" transform="translate(-80 -186.666)" fill="#ffceb6"/>
    <path id="Path_105847" data-name="Path 105847" d="M110.376,229.333A4.824,4.824,0,0,0,114.69,232a5.019,5.019,0,0,0,5.019-5.019V224H110.38a5.128,5.128,0,0,0-4.865,6.75l.861,2.583Z" transform="translate(-74.379 -173.333)" fill="#f1d54e"/>
    <path id="Path_105848" data-name="Path 105848" d="M160,406.667h9.334V404a4,4,0,0,0-4-4H160Z" transform="translate(-120 -319.999)" fill="#ffceb6"/>
    <path id="Path_105849" data-name="Path 105849" d="M416,440h2.667v4H416Z" transform="translate(-333.336 -353.333)"/>
    <path id="Path_105850" data-name="Path 105850" d="M226.667,56.854l32-14.769V74.667h-24v2.667h30.667v4H234.667V84H236v9.333h-2.667V96h33.333A1.333,1.333,0,0,0,268,94.667V76a1.333,1.333,0,0,0-1.333-1.333h-5.333V40a1.333,1.333,0,0,0-1.892-1.211l-2.108.973v-9.1A1.333,1.333,0,0,0,256,29.334h-4V20a1.333,1.333,0,0,0-1.333-1.333H244V16h-2.667v2.667h-6.667A1.333,1.333,0,0,0,233.333,20v9.333h-4A1.333,1.333,0,0,0,228,30.668V53.3l-3.225,1.489A1.333,1.333,0,0,0,224,56v6.667h2.667ZM260,84v9.333h-5.333V84Zm-13.333,4H244V84h2.667Zm-5.333-4v4h-2.667V84Zm-2.667,6.667h8v2.667h-8Zm10.667,2.667V84H252v9.333Zm13.333,0V84h2.667v9.333Zm-21.333-48V42.667H244v2.667Zm5.333-2.667h2.667v.788l-2.667,1.231ZM249.333,40h-2.667V37.334h2.667ZM244,40h-2.667V37.334H244Zm-5.333,0H236V37.334h2.667ZM236,42.667h2.667v2.667H236ZM236,48h2.667v.378L236,49.609Zm0-26.667h13.333v8H236ZM230.667,32h24v8.993L252,42.224V36a1.333,1.333,0,0,0-1.333-1.333h-16A1.333,1.333,0,0,0,233.333,36V50.84l-2.667,1.231Z" transform="translate(-173.336)"/>
    <path id="Path_105851" data-name="Path 105851" d="M264,272h4v2.667h-4Z" transform="translate(-206.669 -213.333)"/>
    <path id="Path_105852" data-name="Path 105852" d="M304,272h4v2.667h-4Z" transform="translate(-240.003 -213.333)"/>
    <path id="Path_105853" data-name="Path 105853" d="M344,272h4v2.667h-4Z" transform="translate(-273.336 -213.333)"/>
    <path id="Path_105854" data-name="Path 105854" d="M384,272h4v2.667h-4Z" transform="translate(-306.669 -213.333)"/>
    <path id="Path_105855" data-name="Path 105855" d="M304,240h4v2.667h-4Z" transform="translate(-240.003 -186.666)"/>
    <path id="Path_105856" data-name="Path 105856" d="M344,240h4v2.667h-4Z" transform="translate(-273.336 -186.666)"/>
    <path id="Path_105857" data-name="Path 105857" d="M384,240h4v2.667h-4Z" transform="translate(-306.669 -186.666)"/>
    <path id="Path_105858" data-name="Path 105858" d="M384,208h4v2.667h-4Z" transform="translate(-306.669 -159.999)"/>
    <path id="Path_105859" data-name="Path 105859" d="M264,304h4v2.667h-4Z" transform="translate(-206.669 -239.999)"/>
    <path id="Path_105860" data-name="Path 105860" d="M304,304h4v2.667h-4Z" transform="translate(-240.003 -239.999)"/>
    <path id="Path_105861" data-name="Path 105861" d="M344,304h4v2.667h-4Z" transform="translate(-273.336 -239.999)"/>
    <path id="Path_105862" data-name="Path 105862" d="M384,304h4v2.667h-4Z" transform="translate(-306.669 -239.999)"/>
    <path id="Path_105863" data-name="Path 105863" d="M304,336h4v2.667h-4Z" transform="translate(-240.003 -266.666)"/>
    <path id="Path_105864" data-name="Path 105864" d="M344,336h4v2.667h-4Z" transform="translate(-273.336 -266.666)"/>
    <path id="Path_105865" data-name="Path 105865" d="M384,336h4v2.667h-4Z" transform="translate(-306.669 -266.666)"/>
    <path id="Path_105866" data-name="Path 105866" d="M312,64h2.667v2.667H312Z" transform="translate(-246.669 -39.999)"/>
    <path id="Path_105867" data-name="Path 105867" d="M344,64h2.667v2.667H344Z" transform="translate(-273.336 -39.999)"/>
    <path id="Path_105868" data-name="Path 105868" d="M20,256.919v5.747h2.667v-4.424a9.44,9.44,0,0,0,2.8.424c.253,0,.5-.011.756-.031a25.064,25.064,0,0,0,13.65,4.031H49.33a9.344,9.344,0,0,0,9.333-9.333V240a8.009,8.009,0,0,0-8-8H43.438A6.627,6.627,0,0,0,44,229.333v-3.85a6.347,6.347,0,0,0,2.667-5.169v-2.981A1.333,1.333,0,0,0,45.33,216H36a6.462,6.462,0,0,0-6.13,8.505l.793,2.378v2.45A6.627,6.627,0,0,0,31.222,232H24a8.009,8.009,0,0,0-8,8v9.194a9.465,9.465,0,0,0,4,7.725ZM56,240v13.333A6.674,6.674,0,0,1,49.33,260H39.874a22.4,22.4,0,0,1-9.861-2.28l10.179-3.054H48a1.333,1.333,0,0,0,1.333-1.333v-12H46.663v4.717A5.3,5.3,0,0,0,44,245.333H42.352l2.788-4.647a1.334,1.334,0,0,0,.19-.686v-5.333h5.333A5.339,5.339,0,0,1,56,240ZM33.33,234.667v0a6.68,6.68,0,0,0,1.057.65L32,237.226v-2.559Zm3.491,4-.673-1.346,1.183-.946,1.183.946-.673,1.347Zm3.24,1.52.582-1.163,1.612,1.29-1.626,2.711Zm2.6-2.961-2.391-1.913a6.678,6.678,0,0,0,1.057-.65v0h1.334Zm-8.646,1.8.582,1.163-.567,2.836-1.626-2.709Zm3.072,2.309h.481l.8,4H36.29ZM41.33,248H44a2.67,2.67,0,0,1,2.667,2.667V252H41.33Zm0-18.667a4,4,0,0,1-4,4h0a4,4,0,0,1-4-4v-2.114l2.491-2.491a6.122,6.122,0,0,0,4.49,1.939,6.367,6.367,0,0,0,1.019-.083Zm-9.011-7.792A3.789,3.789,0,0,1,36,218.667h8v1.648A3.689,3.689,0,0,1,40.311,224a3.472,3.472,0,0,1-3.122-1.93,1.333,1.333,0,0,0-2.135-.347L32.579,224.2l-.179-.537a3.789,3.789,0,0,1-.081-2.121ZM18.663,240A5.339,5.339,0,0,1,24,234.666h5.334V240a1.334,1.334,0,0,0,.19.686l2.788,4.647H28v-4H25.33v5.333A1.333,1.333,0,0,0,26.663,248h12v4.341l-11.239,3.372a6.805,6.805,0,0,1-8.761-6.518Z" transform="translate(0 -166.666)"/>
  </g>
</svg>
