<svg xmlns="http://www.w3.org/2000/svg" width="714" height="315" viewBox="0 0 714 315">
  <g id="t1-i20" transform="translate(-2101.439 -79.783)">
    <rect id="Rectángulo_32776" data-name="Rectángulo 32776" width="714" height="315" transform="translate(2101.439 79.783)" fill="#fff"/>
    <g id="Group_96502" data-name="Group 96502">
      <g id="Group_96479" data-name="Group 96479">
        <path id="Path_140194" data-name="Path 140194" d="M2157.9,212.157h84.4v41.719a20.985,20.985,0,0,1-20.985,20.985h-84.4V233.142a20.985,20.985,0,0,1,20.985-20.985" fill="#17c878"/>
        <g id="Group_96477" data-name="Group 96477">
          <g id="Group_96472" data-name="Group 96472">
            <path id="Path_140195" data-name="Path 140195" d="M2246.033,227.649a.467.467,0,0,1-.467-.467v-1.87a.468.468,0,0,1,.935,0v1.87A.468.468,0,0,1,2246.033,227.649Z" fill="#17c878"/>
          </g>
          <g id="Group_96473" data-name="Group 96473">
            <path id="Path_140196" data-name="Path 140196" d="M2246.033,222.775a.467.467,0,0,1-.467-.467V219.3a.468.468,0,1,1,.935,0v3.005A.468.468,0,0,1,2246.033,222.775Zm0-6.01a.467.467,0,0,1-.467-.467v-3.005a.468.468,0,0,1,.935,0V216.3A.468.468,0,0,1,2246.033,216.765Z" fill="#17c878"/>
          </g>
          <g id="Group_96474" data-name="Group 96474">
            <path id="Path_140197" data-name="Path 140197" d="M2246.033,210.755a.467.467,0,0,1-.467-.467v-1.4h-1.4a.467.467,0,1,1,0-.934h1.869a.468.468,0,0,1,.468.467v1.869A.468.468,0,0,1,2246.033,210.755Z" fill="#17c878"/>
          </g>
          <g id="Group_96475" data-name="Group 96475">
            <path id="Path_140198" data-name="Path 140198" d="M2240.679,208.886h-3.485a.467.467,0,1,1,0-.934h3.485a.467.467,0,1,1,0,.934Zm-6.969,0h-3.485a.467.467,0,1,1,0-.934h3.485a.467.467,0,1,1,0,.934Zm-6.97,0h-3.485a.467.467,0,0,1,0-.934h3.485a.467.467,0,1,1,0,.934Zm-6.969,0h-3.485a.467.467,0,1,1,0-.934h3.485a.467.467,0,1,1,0,.934Zm-6.97,0h-3.485a.467.467,0,0,1,0-.934h3.485a.467.467,0,1,1,0,.934Zm-6.97,0h-3.484a.467.467,0,1,1,0-.934h3.484a.467.467,0,1,1,0,.934Zm-6.969,0h-3.485a.467.467,0,1,1,0-.934h3.485a.467.467,0,1,1,0,.934Z" fill="#17c878"/>
          </g>
          <g id="Group_96476" data-name="Group 96476">
            <path id="Path_140199" data-name="Path 140199" d="M2191.893,208.886h-1.87a.467.467,0,1,1,0-.934h1.87a.467.467,0,1,1,0,.934Z" fill="#17c878"/>
          </g>
        </g>
        <g id="Group_96478" data-name="Group 96478">
          <path id="Path_140200" data-name="Path 140200" d="M2221.31,279.066h-88.134a.468.468,0,0,1-.468-.467V233.142a25.219,25.219,0,0,1,25.191-25.19h27.518a.467.467,0,1,1,0,.934H2157.9a24.283,24.283,0,0,0-24.256,24.256v44.99h87.667a24.283,24.283,0,0,0,24.256-24.256v-22.5a.468.468,0,0,1,.935,0v22.5A25.219,25.219,0,0,1,2221.31,279.066Z" fill="#17c878"/>
        </g>
        <path id="Path_140201" data-name="Path 140201" d="M2157.9,215.039h81.514v38.837a18.124,18.124,0,0,1-18.1,18.1H2139.8V233.142a18.124,18.124,0,0,1,18.1-18.1" fill="#fff"/>
      </g>
      <g id="Group_96487" data-name="Group 96487">
        <path id="Path_140202" data-name="Path 140202" d="M2695.568,212.157h84.4v41.719a20.985,20.985,0,0,1-20.985,20.985h-84.4V233.142a20.985,20.985,0,0,1,20.985-20.985" fill="#17c878"/>
        <g id="Group_96485" data-name="Group 96485">
          <g id="Group_96480" data-name="Group 96480">
            <path id="Path_140203" data-name="Path 140203" d="M2783.7,227.649a.467.467,0,0,1-.467-.467v-1.87a.467.467,0,0,1,.935,0v1.87A.468.468,0,0,1,2783.7,227.649Z" fill="#17c878"/>
          </g>
          <g id="Group_96481" data-name="Group 96481">
            <path id="Path_140204" data-name="Path 140204" d="M2783.7,222.775a.467.467,0,0,1-.467-.467V219.3a.467.467,0,1,1,.935,0v3.005A.468.468,0,0,1,2783.7,222.775Zm0-6.01a.467.467,0,0,1-.467-.467v-3.005a.467.467,0,0,1,.935,0V216.3A.468.468,0,0,1,2783.7,216.765Z" fill="#17c878"/>
          </g>
          <g id="Group_96482" data-name="Group 96482">
            <path id="Path_140205" data-name="Path 140205" d="M2783.7,210.755a.467.467,0,0,1-.467-.467v-1.4h-1.4a.467.467,0,1,1,0-.934h1.869a.468.468,0,0,1,.468.467v1.869A.468.468,0,0,1,2783.7,210.755Z" fill="#17c878"/>
          </g>
          <g id="Group_96483" data-name="Group 96483">
            <path id="Path_140206" data-name="Path 140206" d="M2778.348,208.886h-3.485a.467.467,0,1,1,0-.934h3.485a.467.467,0,1,1,0,.934Zm-6.969,0h-3.485a.467.467,0,1,1,0-.934h3.485a.467.467,0,1,1,0,.934Zm-6.97,0h-3.485a.467.467,0,1,1,0-.934h3.485a.467.467,0,1,1,0,.934Zm-6.969,0h-3.485a.467.467,0,1,1,0-.934h3.485a.467.467,0,1,1,0,.934Zm-6.97,0h-3.485a.467.467,0,1,1,0-.934h3.485a.467.467,0,1,1,0,.934Zm-6.97,0h-3.484a.467.467,0,1,1,0-.934h3.484a.467.467,0,1,1,0,.934Zm-6.969,0h-3.485a.467.467,0,0,1,0-.934h3.485a.467.467,0,1,1,0,.934Z" fill="#17c878"/>
          </g>
          <g id="Group_96484" data-name="Group 96484">
            <path id="Path_140207" data-name="Path 140207" d="M2729.561,208.886h-1.869a.467.467,0,0,1,0-.934h1.869a.467.467,0,1,1,0,.934Z" fill="#17c878"/>
          </g>
        </g>
        <g id="Group_96486" data-name="Group 96486">
          <path id="Path_140208" data-name="Path 140208" d="M2758.979,279.066h-88.134a.468.468,0,0,1-.468-.467V233.142a25.219,25.219,0,0,1,25.191-25.19h27.518a.467.467,0,1,1,0,.934h-27.518a24.283,24.283,0,0,0-24.256,24.256v44.99h87.667a24.283,24.283,0,0,0,24.256-24.256v-22.5a.467.467,0,0,1,.935,0v22.5A25.219,25.219,0,0,1,2758.979,279.066Z" fill="#17c878"/>
        </g>
        <path id="Path_140209" data-name="Path 140209" d="M2695.568,215.039h81.514v38.837a18.124,18.124,0,0,1-18.1,18.1h-81.514V233.142a18.123,18.123,0,0,1,18.1-18.1" fill="#fff"/>
      </g>
      <g id="Group_96495" data-name="Group 96495">
        <path id="Path_140210" data-name="Path 140210" d="M2419.847,212.157h84.4v41.719a20.985,20.985,0,0,1-20.985,20.985h-84.4V233.142a20.985,20.985,0,0,1,20.985-20.985" fill="#17c878"/>
        <g id="Group_96493" data-name="Group 96493">
          <g id="Group_96488" data-name="Group 96488">
            <path id="Path_140211" data-name="Path 140211" d="M2507.981,227.649a.467.467,0,0,1-.467-.467v-1.87a.468.468,0,0,1,.935,0v1.87A.467.467,0,0,1,2507.981,227.649Z" fill="#17c878"/>
          </g>
          <g id="Group_96489" data-name="Group 96489">
            <path id="Path_140212" data-name="Path 140212" d="M2507.981,222.775a.467.467,0,0,1-.467-.467V219.3a.468.468,0,1,1,.935,0v3.005A.467.467,0,0,1,2507.981,222.775Zm0-6.01a.467.467,0,0,1-.467-.467v-3.005a.468.468,0,0,1,.935,0V216.3A.467.467,0,0,1,2507.981,216.765Z" fill="#17c878"/>
          </g>
          <g id="Group_96490" data-name="Group 96490">
            <path id="Path_140213" data-name="Path 140213" d="M2507.981,210.755a.467.467,0,0,1-.467-.467v-1.4h-1.4a.467.467,0,1,1,0-.934h1.869a.467.467,0,0,1,.468.467v1.869A.467.467,0,0,1,2507.981,210.755Z" fill="#17c878"/>
          </g>
          <g id="Group_96491" data-name="Group 96491">
            <path id="Path_140214" data-name="Path 140214" d="M2502.627,208.886h-3.484a.467.467,0,1,1,0-.934h3.484a.467.467,0,1,1,0,.934Zm-6.969,0h-3.485a.467.467,0,1,1,0-.934h3.485a.467.467,0,1,1,0,.934Zm-6.97,0H2485.2a.467.467,0,0,1,0-.934h3.485a.467.467,0,1,1,0,.934Zm-6.969,0h-3.485a.467.467,0,1,1,0-.934h3.485a.467.467,0,1,1,0,.934Zm-6.97,0h-3.485a.467.467,0,0,1,0-.934h3.485a.467.467,0,1,1,0,.934Zm-6.969,0h-3.485a.467.467,0,1,1,0-.934h3.485a.467.467,0,1,1,0,.934Zm-6.97,0h-3.485a.467.467,0,1,1,0-.934h3.485a.467.467,0,1,1,0,.934Z" fill="#17c878"/>
          </g>
          <g id="Group_96492" data-name="Group 96492">
            <path id="Path_140215" data-name="Path 140215" d="M2453.841,208.886h-1.87a.467.467,0,1,1,0-.934h1.87a.467.467,0,1,1,0,.934Z" fill="#17c878"/>
          </g>
        </g>
        <g id="Group_96494" data-name="Group 96494">
          <path id="Path_140216" data-name="Path 140216" d="M2483.258,279.066h-88.134a.467.467,0,0,1-.467-.467V233.142a25.218,25.218,0,0,1,25.19-25.19h27.518a.467.467,0,1,1,0,.934h-27.518a24.283,24.283,0,0,0-24.256,24.256v44.99h87.667a24.283,24.283,0,0,0,24.256-24.256v-22.5a.468.468,0,0,1,.935,0v22.5A25.219,25.219,0,0,1,2483.258,279.066Z" fill="#17c878"/>
        </g>
        <path id="Path_140217" data-name="Path 140217" d="M2419.847,215.039h81.514v38.837a18.124,18.124,0,0,1-18.1,18.1h-81.514V233.142a18.124,18.124,0,0,1,18.1-18.1" fill="#fff"/>
      </g>
      <text id="Toma_de_decisiones" data-name="Toma de decisiones" transform="translate(2595.431 116.908)" fill="#12263f" font-size="20" font-family="Roboto-Bold, Roboto" font-weight="700"><tspan x="-89.365" y="0">Toma de decisiones</tspan></text>
      <text id="_Pasado" data-name="  Pasado" transform="translate(2189.604 249.354)" fill="#12263f" font-size="20" font-family="Roboto-Bold, Roboto" font-weight="700"><tspan x="-38.53" y="0" xml:space="preserve">  Pasado</tspan></text>
      <text id="Futuro" transform="translate(2727.273 249.354)" fill="#12263f" font-size="20" font-family="Roboto-Bold, Roboto" font-weight="700"><tspan x="-29.067" y="0">Futuro</tspan></text>
      <text id="Evaluación_de_ediciones_pasadas" data-name="Evaluación de ediciones pasadas" transform="translate(2316.605 369.347)" fill="#12263f" font-size="20" font-family="Roboto-Bold, Roboto" font-weight="700"><tspan x="-148.071" y="0">Evaluación de ediciones pasadas</tspan></text>
      <text id="Hoy_EE.FF." data-name="Hoy
EE.FF." transform="translate(2451.552 237.354)" fill="#12263f" font-size="20" font-family="Roboto-Bold, Roboto" font-weight="700"><tspan x="-17.666" y="0">Hoy</tspan><tspan x="-26.68" y="24">EE.FF.</tspan></text>
      <g id="Group_96497" data-name="Group 96497">
        <rect id="Rectangle_32786" data-name="Rectangle 32786" width="22.761" height="1.906" transform="translate(2734.997 183.327) rotate(90)" fill="#17c878"/>
        <rect id="Rectangle_32787" data-name="Rectangle 32787" width="553.125" height="1.906" transform="translate(2735.006 185.227) rotate(180)" fill="#17c878"/>
        <g id="Group_96496" data-name="Group 96496">
          <circle id="Ellipse_4278" data-name="Ellipse 4278" cx="4.588" cy="4.588" r="4.588" transform="translate(2729.454 201.502)" fill="#17c878"/>
          <circle id="Ellipse_4279" data-name="Ellipse 4279" cx="3.715" cy="3.715" r="3.715" transform="translate(2730.326 202.374)" fill="#fff"/>
          <circle id="Ellipse_4280" data-name="Ellipse 4280" cx="2.342" cy="2.342" r="2.342" transform="translate(2731.7 203.748)" fill="#17c878"/>
        </g>
      </g>
      <g id="Group_96499" data-name="Group 96499">
        <rect id="Rectangle_32788" data-name="Rectangle 32788" width="22.761" height="1.906" transform="translate(2452.508 183.327) rotate(90)" fill="#17c878"/>
        <g id="Group_96498" data-name="Group 96498">
          <circle id="Ellipse_4281" data-name="Ellipse 4281" cx="4.588" cy="4.588" r="4.588" transform="translate(2446.965 201.502)" fill="#17c878"/>
          <circle id="Ellipse_4282" data-name="Ellipse 4282" cx="3.715" cy="3.715" r="3.715" transform="translate(2447.837 202.374)" fill="#fff"/>
          <circle id="Ellipse_4283" data-name="Ellipse 4283" cx="2.342" cy="2.342" r="2.342" transform="translate(2449.211 203.748)" fill="#17c878"/>
        </g>
      </g>
      <g id="Group_96501" data-name="Group 96501">
        <rect id="Rectangle_32789" data-name="Rectangle 32789" width="22.761" height="1.906" transform="translate(2183.787 183.327) rotate(90)" fill="#17c878"/>
        <rect id="Rectangle_32790" data-name="Rectangle 32790" width="19.074" height="1.906" transform="translate(2181.886 183.328)" fill="#17c878"/>
        <g id="Group_96500" data-name="Group 96500">
          <circle id="Ellipse_4284" data-name="Ellipse 4284" cx="4.588" cy="4.588" r="4.588" transform="translate(2178.249 201.502)" fill="#17c878"/>
          <circle id="Ellipse_4285" data-name="Ellipse 4285" cx="3.715" cy="3.715" r="3.715" transform="translate(2179.121 202.374)" fill="#fff"/>
          <circle id="Ellipse_4286" data-name="Ellipse 4286" cx="2.342" cy="2.342" r="2.342" transform="translate(2180.495 203.748)" fill="#17c878"/>
        </g>
      </g>
      <path id="Path_140218" data-name="Path 140218" d="M2441.952,285.3V316.92a2.926,2.926,0,0,1-2.925,2.926h-237.04a2.782,2.782,0,0,1-2.782-2.782V302.792h7.945L2189.6,285.3l-17.546,17.495H2180v24.129a12.126,12.126,0,0,0,12.126,12.126h256.219a12.805,12.805,0,0,0,12.805-12.8V285.3Z" fill="#f1d54e"/>
      <path id="Path_140219" data-name="Path 140219" d="M2459.693,180.863V149.24a2.925,2.925,0,0,1,2.925-2.925h257.826a2.782,2.782,0,0,1,2.781,2.782v14.272h-7.945l17.546,17.494,17.545-17.494h-7.944V139.24a12.126,12.126,0,0,0-12.126-12.126h-277a12.805,12.805,0,0,0-12.805,12.805v40.944Z" fill="#f1d54e"/>
    </g>
  </g>
</svg>
