<svg xmlns="http://www.w3.org/2000/svg" width="80" height="79.999" viewBox="0 0 80 79.999">
  <g id="t1-i12" transform="translate(-20.557 -20.558)">
    <path id="Path_105772" data-name="Path 105772" d="M121.717,84.858a36.849,36.849,0,0,1-36.859,36.858q-1.24,0-2.461-.082a36.859,36.859,0,1,1,39.022-41.491,37.279,37.279,0,0,1,.3,4.714Z" transform="translate(-22.58 -22.579)" fill="#d2f6e6"/>
    <g id="Group_91663" data-name="Group 91663" transform="translate(25.42 25.653)">
      <path id="Path_105773" data-name="Path 105773" d="M371.847,234.114a36.817,36.817,0,0,1-16.181,30.516L352,258.213l2.835-2.835v-8.506l8.506-2.835,2.835-11.341,5.373-3.3A37.282,37.282,0,0,1,371.847,234.114Z" transform="translate(-298.13 -197.487)" fill="#17c878"/>
      <path id="Path_105774" data-name="Path 105774" d="M93.364,66.089,91.946,71.76l-9.923,7.088L77.77,76.013,72.1,71.76l-4.253,4.253V83.1l-2.835,2.835-7.088,2.835-2.835,4.253v7.088l-3.17,2.378A36.876,36.876,0,0,1,80.712,49.31l-1.524,6.856L87.694,59l1.418,4.253Z" transform="translate(-48 -49.31)" fill="#17c878"/>
      <path id="Path_105775" data-name="Path 105775" d="M159.188,315.341l-1.418,4.253-4.253,1.418v4.253l-4.253,2.835-1.044,4.171a36.692,36.692,0,0,1-7.664-1.327l-1.216-8.515h-2.835l-5.671-4.253L128,313.923l2.835-4.253,2.835-2.835L139.341,304l4.253,2.835h2.835l5.671,5.671,5.671-1.418Z" transform="translate(-113.824 -258.868)" fill="#17c878"/>
    </g>
    <path id="Path_105776" data-name="Path 105776" d="M280,224v11.341l9.923,2.835,9.923-2.835V224Z" transform="translate(-213.469 -167.391)" fill="#f1d54e"/>
    <path id="Path_105777" data-name="Path 105777" d="M280,210.835,289.923,208l9.923,2.835-9.923,2.835Z" transform="translate(-213.469 -154.227)" fill="#f1d54e"/>
    <path id="Path_105778" data-name="Path 105778" d="M336,226.835v11.341l9.923-2.835V224Z" transform="translate(-259.545 -167.391)" fill="#fb9e36"/>
    <path id="Path_105779" data-name="Path 105779" d="M91.8,37.911c1.65-6.383.926-11.346-2.11-14.382-2.235-2.235-5.48-3.216-9.645-2.919a36.384,36.384,0,0,0-12.615,3.737A38.856,38.856,0,0,0,62.278,24,38.276,38.276,0,0,0,24,62.279a38.821,38.821,0,0,0,.343,5.14,36.51,36.51,0,0,0-3.736,12.624c-.3,4.165.684,7.411,2.919,9.645,1.976,1.976,4.769,2.973,8.24,2.973a24.775,24.775,0,0,0,6.141-.864A38.279,38.279,0,0,0,91.8,37.91ZM80.244,23.438c3.308-.236,5.811.469,7.438,2.1,1.453,1.453,2.825,4.306,1.788,9.811l-.128-.131a38.054,38.054,0,0,0-17-9.879,28.984,28.984,0,0,1,7.9-1.9ZM56.3,27.345,55.224,32.2a1.418,1.418,0,0,0,.936,1.652l7.833,2.611,1.194,3.58a1.418,1.418,0,0,0,.558.731l3.422,2.281-1.049,4.2-8.7,6.216L56.009,51.2,50.37,46.969a1.418,1.418,0,0,0-1.853.132l-4.253,4.253a1.418,1.418,0,0,0-.415,1v6.5l-2.215,2.215L34.816,63.8a1.418,1.418,0,0,0-.653.53l-2.835,4.253a1.416,1.416,0,0,0-.237.786v6.379l-1.2.9A35.435,35.435,0,0,1,56.3,27.345ZM25.533,87.684c-1.627-1.627-2.332-4.13-2.1-7.438a28.977,28.977,0,0,1,1.9-7.9,38.055,38.055,0,0,0,9.879,17c.043.043.088.085.131.128C29.838,90.509,26.986,89.137,25.533,87.684Zm17.944-3.711L41.3,80.708l2.233-3.349,2.573-2.573,4.729-2.365L54.4,74.8a1.416,1.416,0,0,0,.787.238h2.248l1.9,1.9A80.461,80.461,0,0,1,45.8,85.715ZM61.35,78.949l1.344,1.344a1.418,1.418,0,0,0,1.347.372l4.4-1.1.852,2.559-1.044,3.132-3.58,1.194A1.418,1.418,0,0,0,63.7,87.8v3.494l-3.622,2.414a1.418,1.418,0,0,0-.589.835l-.751,3a35.239,35.239,0,0,1-5.31-.943l-1.083-7.586a1.418,1.418,0,0,0-1.4-1.217H48.574l-.26-.195a86,86,0,0,0,13.035-8.653Zm-14.1,11.4a1.418,1.418,0,0,0,.851.284h1.606l.721,5.048a35.4,35.4,0,0,1-9.2-4.909q2.073-.742,4.249-1.756Zm14.363,7.363L62.1,95.76l3.8-2.531a1.418,1.418,0,0,0,.631-1.179V88.818l3.284-1.095a1.418,1.418,0,0,0,.9-.9l1.418-4.253a1.416,1.416,0,0,0,0-.9l-1.418-4.253a1.418,1.418,0,0,0-1.689-.927l-4.892,1.223-.575-.575q1.985-1.668,3.939-3.473l-1.927-2.08q-1.993,1.846-4.024,3.542l-2.516-2.516a1.418,1.418,0,0,0-1-.416H55.619l-3.9-2.6a1.418,1.418,0,0,0-1.42-.089l-5.671,2.835a1.415,1.415,0,0,0-.368.266l-2.835,2.835a1.427,1.427,0,0,0-.177.216l-2.835,4.253a1.418,1.418,0,0,0,0,1.573l2.835,4.253a1.42,1.42,0,0,0,.329.348l1.3.978a42.058,42.058,0,0,1-4.257,1.577,35.671,35.671,0,0,1-7.464-9.415l2.194-1.646a1.418,1.418,0,0,0,.567-1.134V69.8l2.353-3.529L42.958,63.6a1.419,1.419,0,0,0,.476-.314l2.835-2.835a1.418,1.418,0,0,0,.415-1v-6.5l2.968-2.968,4.687,3.515.064.045,4.253,2.835a1.418,1.418,0,0,0,1.61-.026l9.923-7.088a1.418,1.418,0,0,0,.551-.81l1.418-5.671a1.418,1.418,0,0,0-.589-1.524l-3.848-2.566-1.264-3.792a1.418,1.418,0,0,0-.9-.9l-7.293-2.43,1.023-4.6c.985-.083,1.98-.127,2.986-.127a35.36,35.36,0,0,1,26.371,11.79,53.159,53.159,0,0,1-5.369,11.58l2.431,1.459a59.208,59.208,0,0,0,5.06-10.439A35.264,35.264,0,0,1,97.3,56.845l-4.578,2.808a1.418,1.418,0,0,0-.634.865L89.444,71.1l-7.767,2.589a1.418,1.418,0,0,0-.969,1.345v7.919l-2.42,2.42a1.418,1.418,0,0,0-.228,1.706l2.995,5.242a35.228,35.228,0,0,1-18.776,5.4c-.222,0-.443,0-.664-.008ZM83.4,90.719l-2.344-4.1,2.07-2.07a1.418,1.418,0,0,0,.415-1V76.06l7.536-2.512a1.418,1.418,0,0,0,.927-1L94.7,61.767l2.94-1.8c.05.766.078,1.538.078,2.316A35.41,35.41,0,0,1,83.4,90.718Z" transform="translate(0 0)"/>
    <path id="Path_105780" data-name="Path 105780" d="M294.682,215.593V204.252a1.418,1.418,0,0,0-1.028-1.363l-9.923-2.835a1.416,1.416,0,0,0-.78,0l-9.923,2.835A1.418,1.418,0,0,0,272,204.252v11.341a1.418,1.418,0,0,0,1.028,1.363l9.923,2.835a1.418,1.418,0,0,0,.78,0l9.923-2.835A1.418,1.418,0,0,0,294.682,215.593Zm-11.341-12.7,4.763,1.361-4.763,1.361-4.763-1.361Zm-8.506,3.24,7.088,2.025v8.392l-7.088-2.025Zm9.923,10.417v-8.392l7.088-2.025v8.392Z" transform="translate(-206.887 -147.644)"/>
    <path id="Path_105781" data-name="Path 105781" d="M248,152h2.835v2.835H248Z" transform="translate(-187.139 -108.15)"/>
    <path id="Path_105782" data-name="Path 105782" d="M144,120h2.835v2.835H144Z" transform="translate(-101.569 -81.821)"/>
    <path id="Path_105783" data-name="Path 105783" d="M104,216h2.835v2.835H104Z" transform="translate(-68.657 -160.809)"/>
    <path id="Path_105784" data-name="Path 105784" d="M176,336h2.835v2.835H176Z" transform="translate(-127.898 -259.545)"/>
    <path id="Path_105785" data-name="Path 105785" d="M224,392h2.835v2.835H224Z" transform="translate(-167.392 -305.621)"/>
    <path id="Path_105786" data-name="Path 105786" d="M392,344h2.835v2.835H392Z" transform="translate(-305.622 -266.127)"/>
  </g>
</svg>
