<svg xmlns="http://www.w3.org/2000/svg" width="80" height="80.072" viewBox="0 0 80 80.072">
  <g id="t1-i10" transform="translate(-0.232)">
    <ellipse id="Ellipse_4112" data-name="Ellipse 4112" cx="12.705" cy="5.177" rx="12.705" ry="5.177" transform="translate(7.161 68.545)" fill="#d2f6e6"/>
    <path id="Path_105744" data-name="Path 105744" d="M68.834,457.873c-1.984,1.805-6.429,3.064-11.6,3.064s-9.613-1.258-11.6-3.064a2.91,2.91,0,0,0-1.107,2.113c0,2.859,5.688,5.177,12.7,5.177s12.7-2.318,12.7-5.177A2.913,2.913,0,0,0,68.834,457.873Z" transform="translate(-37.373 -386.265)" fill="#b0ddc9"/>
    <path id="Path_105745" data-name="Path 105745" d="M26.2,161.41A18.459,18.459,0,0,0,7.74,179.869c0,15.524,18.459,29.808,18.459,29.808s18.459-14.284,18.459-29.808A18.458,18.458,0,0,0,26.2,161.41Zm0,25.821a7.362,7.362,0,1,1,7.362-7.362A7.362,7.362,0,0,1,26.2,187.231Z" transform="translate(-6.334 -136.167)" fill="#fb9e36"/>
    <path id="Path_105746" data-name="Path 105746" d="M114.366,161.41a18.6,18.6,0,0,0-2.113.121A18.461,18.461,0,0,1,128.6,179.869c0,12.254-11.5,23.734-16.345,28.027,1.293,1.145,2.113,1.781,2.113,1.781s18.459-14.284,18.459-29.808A18.458,18.458,0,0,0,114.366,161.41Z" transform="translate(-94.502 -136.167)" fill="#f1d54e"/>
    <ellipse id="Ellipse_4113" data-name="Ellipse 4113" cx="9.764" cy="3.979" rx="9.764" ry="3.979" transform="translate(55.106 34.454)" fill="#d2f6e6"/>
    <path id="Path_105747" data-name="Path 105747" d="M369.146,232.233c-1.728,1.12-4.785,1.866-8.272,1.866s-6.544-.745-8.272-1.866a2.706,2.706,0,0,0-1.492,2.113c0,2.2,4.371,3.979,9.764,3.979s9.764-1.782,9.764-3.979A2.707,2.707,0,0,0,369.146,232.233Z" transform="translate(-296.003 -195.914)" fill="#b0ddc9"/>
    <path id="Path_105748" data-name="Path 105748" d="M337.021,7.508a14.186,14.186,0,0,0-14.186,14.187c0,11.931,14.186,22.909,14.186,22.909s14.187-10.978,14.187-22.909A14.187,14.187,0,0,0,337.021,7.508Zm0,19.845a5.658,5.658,0,1,1,5.658-5.658A5.658,5.658,0,0,1,337.021,27.353Z" transform="translate(-272.15 -6.334)" fill="#f1d54e"/>
    <path id="Path_105749" data-name="Path 105749" d="M402.145,7.508a14.291,14.291,0,0,0-2.113.157A14.19,14.19,0,0,1,412.1,21.695c0,9.027-8.12,17.507-12.073,21.1,1.272,1.156,2.113,1.808,2.113,1.808s14.187-10.978,14.187-22.909A14.186,14.186,0,0,0,402.145,7.508Z" transform="translate(-337.274 -6.334)" fill="#fb9e36"/>
    <path id="Path_105750" data-name="Path 105750" d="M19.865,153.9A19.655,19.655,0,0,0,.232,173.535c0,6.721,3.2,13.948,9.5,21.479.937,1.119,1.871,2.156,2.767,3.1-4.072,1.111-6.516,3.108-6.516,5.438,0,4.125,7.151,6.352,13.878,6.352s13.878-2.226,13.878-6.352c0-2.329-2.444-4.326-6.513-5.437a63.922,63.922,0,0,0,5.034-5.987,1.174,1.174,0,1,0-1.89-1.393,63.042,63.042,0,0,1-6.065,7.007,1.174,1.174,0,0,0-.512.508c-1.7,1.666-3.122,2.9-3.931,3.577-.8-.669-2.205-1.888-3.879-3.532a1.174,1.174,0,0,0-.589-.585C10.08,192.362,2.581,183.12,2.581,173.535a17.284,17.284,0,1,1,34.569,0c0,4.162-1.418,8.657-4.215,13.359a1.174,1.174,0,0,0,2.018,1.2c3.016-5.071,4.545-9.969,4.545-14.56A19.655,19.655,0,0,0,19.865,153.9Zm0,50.615a1.172,1.172,0,0,0,.719-.246,59.651,59.651,0,0,0,4.721-4.2c3.96.808,6.09,2.363,6.09,3.482,0,.836-1.146,1.822-2.99,2.574a23.409,23.409,0,0,1-8.54,1.43c-7.038,0-11.53-2.371-11.53-4,0-1.121,2.13-2.675,6.092-3.483a59.734,59.734,0,0,0,4.72,4.2A1.172,1.172,0,0,0,19.865,204.516Z" transform="translate(0 -129.833)"/>
    <path id="Path_105751" data-name="Path 105751" d="M72.968,230.228a1.175,1.175,0,0,0-1.453.8,8.539,8.539,0,1,0,3.1-4.482,1.174,1.174,0,0,0,1.406,1.881,6.172,6.172,0,1,1-2.248,3.249A1.174,1.174,0,0,0,72.968,230.228Z" transform="translate(-59.856 -189.689)"/>
    <path id="Path_105752" data-name="Path 105752" d="M341.625,38.433c0-1.86-1.749-3.41-4.774-4.32.6-.641,1.213-1.332,1.83-2.069,4.889-5.839,7.367-11.451,7.367-16.683a15.363,15.363,0,0,0-29.514-5.979,1.174,1.174,0,0,0,2.163.915,13.015,13.015,0,0,1,25,5.065c0,9.7-10.187,19-13.013,21.391-.623-.526-1.6-1.388-2.752-2.514a1.173,1.173,0,0,0-.522-.519c-4.054-4.082-9.737-11.1-9.737-18.357a1.174,1.174,0,0,0-2.348,0c0,5.231,2.479,10.844,7.367,16.683.617.737,1.232,1.427,1.829,2.068-3.027.909-4.774,2.457-4.774,4.321,0,1.572,1.275,2.958,3.591,3.9a22.182,22.182,0,0,0,14.695,0C340.35,41.39,341.625,40,341.625,38.433Zm-10.938,2.8c-5.558,0-8.59-1.853-8.59-2.805,0-.62,1.379-1.755,4.324-2.382a45.872,45.872,0,0,0,3.547,3.148,1.174,1.174,0,0,0,1.437,0,45.821,45.821,0,0,0,3.547-3.147,10.758,10.758,0,0,1,3.244,1.174c.676.412,1.08.863,1.08,1.207C339.277,39.385,336.245,41.238,330.687,41.238Z" transform="translate(-265.816 0)"/>
    <path id="Path_105753" data-name="Path 105753" d="M383.522,61.364A6.833,6.833,0,1,0,376.69,68.2,6.84,6.84,0,0,0,383.522,61.364Zm-11.317,0a4.484,4.484,0,1,1,4.484,4.484A4.489,4.489,0,0,1,372.206,61.364Z" transform="translate(-311.819 -46.004)"/>
    <path id="Path_105754" data-name="Path 105754" d="M301.475,240.587a1.174,1.174,0,0,0,0-2.348h-.536a8.861,8.861,0,0,0-1.166.077,1.174,1.174,0,1,0,.31,2.328,6.527,6.527,0,0,1,.857-.056h.536Z" transform="translate(-251.834 -200.98)"/>
    <path id="Path_105755" data-name="Path 105755" d="M276.636,463.5h-.005l-1.551.007a1.174,1.174,0,0,0,.005,2.348h.005l1.551-.007a1.174,1.174,0,0,0-.005-2.348Z" transform="translate(-230.878 -391.009)"/>
    <path id="Path_105756" data-name="Path 105756" d="M310.367,337.837a1.174,1.174,0,1,0,0-2.348h-1.551a1.174,1.174,0,1,0,0,2.348Z" transform="translate(-259.333 -283.021)"/>
    <path id="Path_105757" data-name="Path 105757" d="M266.187,254.406a1.174,1.174,0,0,0,1.639-.269,6.489,6.489,0,0,1,.868-.981,1.174,1.174,0,1,0-1.592-1.726,8.825,8.825,0,0,0-1.183,1.337A1.175,1.175,0,0,0,266.187,254.406Z" transform="translate(-223.949 -211.846)"/>
    <path id="Path_105758" data-name="Path 105758" d="M316.3,463.314H316.3l-1.551.007a1.174,1.174,0,0,0,.005,2.348h.005l1.551-.007a1.174,1.174,0,0,0-.005-2.348Z" transform="translate(-264.34 -390.855)"/>
    <path id="Path_105759" data-name="Path 105759" d="M236.97,463.675h-.005l-1.551.007a1.174,1.174,0,0,0,.005,2.348h.005l1.551-.007a1.174,1.174,0,0,0-.005-2.348Z" transform="translate(-197.415 -391.16)"/>
    <path id="Path_105760" data-name="Path 105760" d="M273.916,325.221a1.174,1.174,0,0,0,.628-2.168,6.486,6.486,0,0,1-1.031-.807,1.174,1.174,0,1,0-1.628,1.692,8.82,8.82,0,0,0,1.406,1.1A1.165,1.165,0,0,0,273.916,325.221Z" transform="translate(-228.864 -271.572)"/>
    <path id="Path_105761" data-name="Path 105761" d="M259.063,288.852a6.491,6.491,0,0,1-.119-1.238v-.065a1.174,1.174,0,0,0-1.16-1.188h-.014a1.174,1.174,0,0,0-1.174,1.161v.093a8.841,8.841,0,0,0,.162,1.687,1.174,1.174,0,0,0,2.305-.449Z" transform="translate(-216.271 -241.576)"/>
    <path id="Path_105762" data-name="Path 105762" d="M350.033,337.837a1.174,1.174,0,1,0,0-2.348h-1.551a1.174,1.174,0,1,0,0,2.348Z" transform="translate(-292.796 -283.021)"/>
    <path id="Path_105763" data-name="Path 105763" d="M467.348,346.856a1.174,1.174,0,0,0,.728-2.1,11.161,11.161,0,0,0-1.438-.964,1.174,1.174,0,1,0-1.152,2.046,8.854,8.854,0,0,1,1.135.761A1.168,1.168,0,0,0,467.348,346.856Z" transform="translate(-391.987 -289.901)"/>
    <path id="Path_105764" data-name="Path 105764" d="M435.134,462.223a8.831,8.831,0,0,1-1.171.083h-.22a1.174,1.174,0,0,0,.005,2.348h.225a11.211,11.211,0,0,0,1.482-.1,1.174,1.174,0,1,0-.321-2.326Z" transform="translate(-364.728 -389.925)"/>
    <path id="Path_105765" data-name="Path 105765" d="M471.482,445.575a8.858,8.858,0,0,1-1.06.864,1.174,1.174,0,1,0,1.338,1.93,11.229,11.229,0,0,0,1.342-1.094,1.174,1.174,0,0,0-1.62-1.7Z" transform="translate(-396.229 -375.617)"/>
    <path id="Path_105766" data-name="Path 105766" d="M495.462,411.007a1.175,1.175,0,0,0-1.371.936,8.789,8.789,0,0,1-.357,1.318,1.174,1.174,0,1,0,2.212.789,11.132,11.132,0,0,0,.452-1.672A1.174,1.174,0,0,0,495.462,411.007Z" transform="translate(-416.265 -346.711)"/>
    <path id="Path_105767" data-name="Path 105767" d="M492.089,372.375a1.174,1.174,0,0,0-.568,1.561,8.73,8.73,0,0,1,.479,1.279,1.174,1.174,0,1,0,2.257-.648,11.087,11.087,0,0,0-.608-1.624A1.174,1.174,0,0,0,492.089,372.375Z" transform="translate(-414.363 -314.045)"/>
    <path id="Path_105768" data-name="Path 105768" d="M389.7,337.837a1.174,1.174,0,1,0,0-2.348h-1.551a1.174,1.174,0,1,0,0,2.348Z" transform="translate(-326.259 -283.021)"/>
    <path id="Path_105769" data-name="Path 105769" d="M355.967,463.134h-.005l-1.551.007a1.174,1.174,0,0,0,.005,2.348h.005l1.551-.007a1.174,1.174,0,0,0-.005-2.348Z" transform="translate(-297.802 -390.703)"/>
    <path id="Path_105770" data-name="Path 105770" d="M428.917,337.839q.2,0,.4.009h.053a1.174,1.174,0,0,0,.051-2.347c-.166-.008-.334-.011-.5-.011h-1.1a1.174,1.174,0,0,0,0,2.348Z" transform="translate(-359.721 -283.023)"/>
    <path id="Path_105771" data-name="Path 105771" d="M395.632,462.955h-.005l-1.551.007a1.174,1.174,0,0,0,.005,2.348h.005l1.551-.007a1.174,1.174,0,0,0-.005-2.348Z" transform="translate(-331.264 -390.552)"/>
  </g>
</svg>
