<svg xmlns="http://www.w3.org/2000/svg" xmlns:xlink="http://www.w3.org/1999/xlink" width="192.729" height="188" viewBox="0 0 192.729 188">
  <defs>
    <linearGradient id="linear-gradient" x1="0.932" y1="-2.907" x2="0.667" y2="-0.816" gradientUnits="objectBoundingBox">
      <stop offset="0.188" stop-color="#ffd234"/>
      <stop offset="0.986" stop-color="#ffb000"/>
    </linearGradient>
    <linearGradient id="linear-gradient-2" x1="834.667" y1="-4.197" x2="835.675" y2="-4.197" gradientUnits="objectBoundingBox">
      <stop offset="0" stop-color="#febbba"/>
      <stop offset="1" stop-color="#ff928e"/>
    </linearGradient>
    <linearGradient id="linear-gradient-3" x1="972.988" y1="-3.062" x2="974.002" y2="-3.062" xlink:href="#linear-gradient-2"/>
    <linearGradient id="linear-gradient-4" x1="9.187" y1="-19.565" x2="8.146" y2="-18.887" xlink:href="#linear-gradient"/>
    <linearGradient id="linear-gradient-5" x1="161.11" y1="-0.307" x2="162.104" y2="-0.307" xlink:href="#linear-gradient-2"/>
    <linearGradient id="linear-gradient-6" x1="-209.718" y1="-0.074" x2="-207.738" y2="2.609" xlink:href="#linear-gradient-2"/>
    <linearGradient id="linear-gradient-7" x1="1159.542" y1="-3.21" x2="1161.543" y2="-4.991" xlink:href="#linear-gradient-2"/>
    <linearGradient id="linear-gradient-8" x1="23.912" y1="-49.842" x2="21.295" y2="-48.116" xlink:href="#linear-gradient"/>
    <linearGradient id="linear-gradient-9" x1="128.375" y1="-0.912" x2="129.377" y2="-0.912" xlink:href="#linear-gradient-2"/>
    <linearGradient id="linear-gradient-10" x1="-0.103" y1="1.691" x2="0.844" y2="-0.028" xlink:href="#linear-gradient-2"/>
    <linearGradient id="linear-gradient-11" x1="25.536" y1="110.923" x2="25.213" y2="109.858" xlink:href="#linear-gradient-2"/>
    <linearGradient id="linear-gradient-12" x1="81.875" y1="531.312" x2="80.928" y2="526.699" xlink:href="#linear-gradient-2"/>
    <linearGradient id="linear-gradient-13" x1="400" y1="0.5" x2="401" y2="0.5" xlink:href="#linear-gradient-2"/>
    <linearGradient id="linear-gradient-14" x1="38.154" y1="0.008" x2="37.06" y2="1.21" xlink:href="#linear-gradient-2"/>
    <linearGradient id="linear-gradient-15" x1="1.812" y1="-0.58" x2="0.988" y2="0.138" xlink:href="#linear-gradient"/>
    <linearGradient id="linear-gradient-16" x1="-271.524" y1="21.408" x2="-271.3" y2="20.498" xlink:href="#linear-gradient-2"/>
    <linearGradient id="linear-gradient-17" x1="-156.802" y1="17.216" x2="-155.593" y2="18.38" xlink:href="#linear-gradient-2"/>
    <linearGradient id="linear-gradient-18" x1="-439.236" y1="61.393" x2="-435.86" y2="65.711" xlink:href="#linear-gradient-2"/>
    <linearGradient id="linear-gradient-19" x1="43.106" y1="1.287" x2="44.507" y2="0.151" xlink:href="#linear-gradient-2"/>
    <linearGradient id="linear-gradient-20" x1="82.456" y1="0.394" x2="78.559" y2="0.724" xlink:href="#linear-gradient-2"/>
    <linearGradient id="linear-gradient-21" x1="47.611" y1="1.197" x2="50.581" y2="-0.979" xlink:href="#linear-gradient-2"/>
    <linearGradient id="linear-gradient-22" x1="-80.17" y1="-3.035" x2="-79.042" y2="-3.035" xlink:href="#linear-gradient-2"/>
    <linearGradient id="linear-gradient-23" x1="-24.17" y1="-4.273" x2="-23.236" y2="-4.273" gradientUnits="objectBoundingBox">
      <stop offset="0" stop-color="#4f52ff"/>
      <stop offset="1" stop-color="#4042e2"/>
    </linearGradient>
    <linearGradient id="linear-gradient-24" x1="-69.41" y1="-3.302" x2="-68.509" y2="-3.302" xlink:href="#linear-gradient-2"/>
    <linearGradient id="linear-gradient-25" x1="1.74" y1="-0.37" x2="-0.624" y2="1.26" xlink:href="#linear-gradient"/>
    <linearGradient id="linear-gradient-26" x1="-19.83" y1="-1.09" x2="-18.837" y2="-1.09" xlink:href="#linear-gradient-2"/>
    <linearGradient id="linear-gradient-27" x1="-0.88" y1="1.258" x2="0.452" y2="0.577" xlink:href="#linear-gradient"/>
    <linearGradient id="linear-gradient-28" x1="-38.704" y1="-1.694" x2="-37.585" y2="-1.694" xlink:href="#linear-gradient-2"/>
    <linearGradient id="linear-gradient-29" x1="-2.67" y1="1.827" x2="-0.422" y2="0.89" xlink:href="#linear-gradient"/>
    <linearGradient id="linear-gradient-30" x1="1.415" y1="-0.925" x2="0.171" y2="5.892" xlink:href="#linear-gradient-2"/>
    <linearGradient id="linear-gradient-31" x1="-70.401" y1="-48.829" x2="-71.498" y2="-47.515" xlink:href="#linear-gradient-2"/>
    <linearGradient id="linear-gradient-32" x1="-226.103" y1="-180.386" x2="-223.683" y2="-183.063" xlink:href="#linear-gradient-2"/>
  </defs>
  <g id="t1-i23" transform="translate(-1512.081 -6392.667)">
    <path id="Path_134713" data-name="Path 134713" d="M1774.4,6593.773a62.076,62.076,0,0,1-9.5,8c-30.977,22.226-67.631,15.748-75.421,14.165-11.5-2.336-33.739-6.853-49.815-25.758-24.322-28.6-20.535-73.664-1.669-103.409,3.451-5.441,21.679-35.64,58.728-40.482,22.422-2.931,48.558,2.98,67.485,18.837C1803.937,6498.407,1801.109,6565.65,1774.4,6593.773Z" transform="translate(-91.228 -43.651)" fill="#f2fff9"/>
    <g id="Group_92183" data-name="Group 92183" transform="translate(1512.081 6392.667)">
      <g id="Group_92181" data-name="Group 92181" transform="translate(0)">
        <circle id="Ellipse_4177" data-name="Ellipse 4177" cx="66.468" cy="66.468" r="66.468" transform="translate(0 94) rotate(-45)" fill="#98d8c9"/>
        <g id="Group_92178" data-name="Group 92178" transform="translate(34.431 34.431)">
          <circle id="Ellipse_4178" data-name="Ellipse 4178" cx="56.728" cy="56.728" r="56.728" transform="translate(2.841 2.841)" fill="#17c878"/>
          <path id="Path_134714" data-name="Path 134714" d="M1768.7,6708.85a59.569,59.569,0,1,1,59.569-59.569A59.636,59.636,0,0,1,1768.7,6708.85Zm0-116.3a56.728,56.728,0,1,0,56.728,56.728A56.792,56.792,0,0,0,1768.7,6592.553Z" transform="translate(-1709.126 -6589.711)" fill="#fff"/>
        </g>
        <g id="Group_92179" data-name="Group 92179" transform="translate(45.091 45.091)">
          <circle id="Ellipse_4179" data-name="Ellipse 4179" cx="34.584" cy="34.584" r="34.584" transform="translate(0 48.909) rotate(-45)" fill="#17c878"/>
          <path id="Path_134715" data-name="Path 134715" d="M1873.279,6791.292a37.425,37.425,0,1,1,37.425-37.426A37.468,37.468,0,0,1,1873.279,6791.292Zm0-69.168a31.743,31.743,0,1,0,31.743,31.742A31.779,31.779,0,0,0,1873.279,6722.124Z" transform="translate(-1824.37 -6704.957)" fill="#fff"/>
        </g>
        <g id="Group_92180" data-name="Group 92180" transform="translate(77.76 77.76)">
          <circle id="Ellipse_4180" data-name="Ellipse 4180" cx="13.399" cy="13.399" r="13.399" transform="translate(0.121 26.202) rotate(-76.717)" fill="url(#linear-gradient)"/>
          <path id="Path_134716" data-name="Path 134716" d="M1973.335,6870.16a16.24,16.24,0,1,1,16.24-16.24A16.258,16.258,0,0,1,1973.335,6870.16Zm0-26.8a10.558,10.558,0,1,0,10.558,10.558A10.57,10.57,0,0,0,1973.335,6843.362Z" transform="translate(-1957.095 -6837.68)" fill="#fff"/>
        </g>
      </g>
      <g id="Group_92182" data-name="Group 92182" transform="translate(93.724 23.59)">
        <rect id="Rectangle_31825" data-name="Rectangle 31825" width="1.996" height="75.578" transform="matrix(-0.707, -0.707, 0.707, -0.707, 11.668, 62.012)" fill="#0a5936"/>
        <path id="Path_134717" data-name="Path 134717" d="M2059.714,6854.466c.81-.809,4.627,3.007,3.817,3.817l-14.157,11.129a.562.562,0,0,1-.79-.79Z" transform="translate(-2048.458 -6797.271)" fill="#05301d"/>
        <path id="Path_134718" data-name="Path 134718" d="M2350.156,6576.893l7.19.715-9.87,9.87a15.261,15.261,0,0,1-12.3,4.395h0Z" transform="translate(-2285.078 -6568.292)" fill="#98d8c9"/>
        <path id="Path_134719" data-name="Path 134719" d="M2341.726,6534.861l-.715-7.189-9.87,9.87a15.258,15.258,0,0,0-4.394,12.3h0Z" transform="translate(-2278.058 -6527.671)" fill="#98d8c9"/>
      </g>
    </g>
    <g id="Group_92189" data-name="Group 92189" transform="translate(1533.382 6477.743)">
      <path id="Path_134720" data-name="Path 134720" d="M1747.495,7404.866s-.358,1.918-.542,3.818a1.311,1.311,0,0,0,1.24,1.432c2.532.129,7.947.386,9.892.318a.426.426,0,0,0,.381-.58.953.953,0,0,0-.483-.52l-8.909-4.2Z" transform="translate(-1727.208 -7313.074)" fill="#0a5936"/>
      <path id="Path_134721" data-name="Path 134721" d="M1748.555,7396.817l.251,2.3a2.852,2.852,0,0,0,2.639-.066l-.625-2.567Z" transform="translate(-1728.536 -7306.158)" fill="url(#linear-gradient-2)"/>
      <path id="Path_134722" data-name="Path 134722" d="M1718.376,7150.86c-.123.6-.918,29.94,2.094,43.121a.446.446,0,0,1-.267.517,7.792,7.792,0,0,1-2.56.5.769.769,0,0,1-.758-.559c-.868-3.06-5.018-18.389-5.439-33-.471-16.324.005-.556.005-.556l.464-10.083Z" transform="translate(-1697.74 -7103.4)" fill="#0a5936"/>
      <path id="Path_134723" data-name="Path 134723" d="M1685.855,7410.039a13.825,13.825,0,0,0-1.1,3.537.8.8,0,0,0,.694.964c.836.09,2.122.208,3.153.211a.8.8,0,0,0,.8-.881,6.723,6.723,0,0,0-1.534-3.7Z" transform="translate(-1675.872 -7317.344)" fill="#0a5936"/>
      <path id="Path_134724" data-name="Path 134724" d="M1688.567,7392.56l.6,3.481a2.249,2.249,0,0,0,1.875.146l-.269-3.742Z" transform="translate(-1679.03 -7302.825)" fill="url(#linear-gradient-3)"/>
      <path id="Path_134725" data-name="Path 134725" d="M1675.655,7148.533c-2.713,15.459.191,38.273,1.2,42.743a.694.694,0,0,0,.557.533,4.653,4.653,0,0,0,2.008-.061.636.636,0,0,0,.464-.582c.176-3.6.133-25.741,2.607-34.465a1.988,1.988,0,0,1,.777-1.089l4.671-3.254.407-5.328Z" transform="translate(-1667.443 -7100.292)" fill="#0a5936"/>
      <g id="Group_92184" data-name="Group 92184" transform="translate(7.365 7.358)">
        <path id="Path_134726" data-name="Path 134726" d="M1693.61,6983.044a72.285,72.285,0,0,0-16.191,1.865c-2.419,13.351-.675,28.792-.675,28.792,5.937,1.618,12.676-.833,12.676-.833,1.043-5.58,5.809-21.266,5.809-21.266a25.331,25.331,0,0,0,9.428-2.894,16.479,16.479,0,0,1-3.193-6.847A25.778,25.778,0,0,1,1693.61,6983.044Z" transform="translate(-1676.136 -6971.342)" fill="url(#linear-gradient-4)"/>
        <path id="Path_134727" data-name="Path 134727" d="M1836.047,6922.251a1.471,1.471,0,0,0-1.707-.5c-1.177,4.769-7.146,8.587-13.259,10.423a16.486,16.486,0,0,0,3.193,6.847C1834.443,6933.433,1836.047,6922.251,1836.047,6922.251Z" transform="translate(-1795.754 -6921.657)" fill="url(#linear-gradient-5)"/>
      </g>
      <g id="Group_92185" data-name="Group 92185" transform="translate(45.969)">
        <path id="Path_134728" data-name="Path 134728" d="M1898.567,6887.732c.077.252-.842.625-1.371-.407-.014-.493-.294-2.605,0-3a39.289,39.289,0,0,1,4.652-4.771.723.723,0,0,1,.081,1.005l-1.489,1.521a7.13,7.13,0,0,1,.845,1.71,2.064,2.064,0,0,1-.22,1.518c-.263.464-.622,1.066-.96,1.538A2.039,2.039,0,0,1,1898.567,6887.732Z" transform="translate(-1897.063 -6879.55)" fill="url(#linear-gradient-6)"/>
        <path id="Path_134729" data-name="Path 134729" d="M1904.23,6899.679l-1.354,1.126-.432,1.129,1.185,1.34a15.483,15.483,0,0,1,.728-2.73C1904.66,6900.06,1904.507,6899.824,1904.23,6899.679Z" transform="translate(-1901.503 -6896.162)" fill="url(#linear-gradient-7)"/>
      </g>
      <path id="Path_134730" data-name="Path 134730" d="M1646.364,7006.77l-2.878-7.472s-7.228,4.811-8.468,10.986a16.989,16.989,0,0,1,6.227,1.733C1641.8,7009.1,1646.364,7006.77,1646.364,7006.77Z" transform="translate(-1634.838 -6978.373)" fill="url(#linear-gradient-8)"/>
      <path id="Path_134731" data-name="Path 134731" d="M1651.722,7065.723s-8.107,4.48-10.79.563a3.058,3.058,0,0,1-.538-2.382,17,17,0,0,0-6.227-1.732,8.54,8.54,0,0,0,.872,5.862c4.682,8.763,17.731-.312,17.731-.312Z" transform="translate(-1633.987 -7030.26)" fill="url(#linear-gradient-9)"/>
      <path id="Path_134732" data-name="Path 134732" d="M1719.969,6952.479l-2.514,7.052a.255.255,0,0,0,.113.308,5.753,5.753,0,0,0,5.969-.345,1.2,1.2,0,0,0,.561-.852l.851-6.116Z" transform="translate(-1702.858 -6939.736)" fill="url(#linear-gradient-10)"/>
      <g id="Group_92186" data-name="Group 92186" transform="translate(12.493 2.564)">
        <path id="Path_134733" data-name="Path 134733" d="M1733.034,6915.277s2.638,5.083,2.274,7.122-3.692,1.861-6.583.174l-1.979-5.479Z" transform="translate(-1723.031 -6911.598)" fill="url(#linear-gradient-11)"/>
        <path id="Path_134734" data-name="Path 134734" d="M1711.333,6902.518a.208.208,0,0,0,.094-.3,5.437,5.437,0,0,1-.732-1.593s-.48-.314,1.236-.708,4.275-1.006,4.826-2.458c.537-1.416-.8-5-3.024-2.176a.209.209,0,0,1-.33,0,2.149,2.149,0,0,0-2.609-.875,1.971,1.971,0,0,0-1.368,1.891.207.207,0,0,1-.247.21,2.4,2.4,0,0,0-2.819,1.282,1.933,1.933,0,0,0,.117,2.322.207.207,0,0,1-.092.344,1.251,1.251,0,0,0-.9,1.418c.06,1.323,1.539,1.22,1.96,1.165a.209.209,0,0,1,.185.067,7.107,7.107,0,0,0,3.724,2.334.21.21,0,0,0,.223-.276l-.74-2.22a.21.21,0,0,1,.116-.259Z" transform="translate(-1705.484 -6894.224)" fill="#0a5936"/>
        <path id="Path_134735" data-name="Path 134735" d="M1730.965,6940.368s-1.9-1.331-2.051-.227,1.707,1.617,2.633,1.214Z" transform="translate(-1724.813 -6931.756)" fill="url(#linear-gradient-12)"/>
      </g>
      <g id="Group_92188" data-name="Group 92188" transform="translate(16.061 25.839)">
        <g id="Group_92187" data-name="Group 92187">
          <path id="Path_134736" data-name="Path 134736" d="M1725.92,7044.129l4.416-15.421a.451.451,0,0,1,.38-.324c.8-.093,3.118-.355,5.8-.581a65.739,65.739,0,0,1,9.206-.306.451.451,0,0,1,.369.649c-1.272,2.574-6.506,13.045-9.127,16.476a.454.454,0,0,1-.364.178l-10.246-.1A.452.452,0,0,1,1725.92,7044.129Z" transform="translate(-1725.902 -7027.426)" fill="#0a5936"/>
          <path id="Path_134737" data-name="Path 134737" d="M1730.1,7076.859a11.226,11.226,0,0,1-.367-3.427c.248-.9.729-2.052,2.331-1.795a23.368,23.368,0,0,1,3.493.932.917.917,0,0,1-1.313.791l.755.585s-.108.936-1.137.436l.7.774a.818.818,0,0,1-1.2.276C1732.607,7074.939,1732.244,7077.164,1730.1,7076.859Z" transform="translate(-1729.013 -7063.882)" fill="url(#linear-gradient-13)"/>
        </g>
        <path id="Path_134738" data-name="Path 134738" d="M1784.933,7049.8a1.3,1.3,0,1,0,1.3-1.3A1.3,1.3,0,0,0,1784.933,7049.8Z" transform="translate(-1774.618 -7044.82)" fill="#98d8c9"/>
        <path id="Path_134739" data-name="Path 134739" d="M1752.574,7037.942l.9-3.049a1.045,1.045,0,0,1,.786-.734c2.818-.588,10.531-.712,10.609-.714l-.005-.345c-.318,0-7.824.127-10.674.721a1.391,1.391,0,0,0-1.046.974l-.9,3.05Z" transform="translate(-1747.64 -7032.108)" fill="#98d8c9"/>
      </g>
    </g>
    <g id="Group_92200" data-name="Group 92200" transform="translate(1608.843 6477.186)">
      <g id="Group_92190" data-name="Group 92190" transform="translate(59.846 0)">
        <path id="Path_134740" data-name="Path 134740" d="M2408.794,6928.822a.292.292,0,0,1,.54.058c.262.942.9,2.586,2.226,3.171.067.03.13.059.192.089a.678.678,0,0,0-.083-.612c-.413-.632.333-1.495.333-1.495a1.925,1.925,0,0,0,.627,1.239,1.849,1.849,0,0,1,.4,2.082c-.72,2.8-1.8,6.494,2.4,9.2s10.112-5.1,10.112-5.1l-2.935,9.3s-4.53,3.342-9.8-1.357-1.776-11.541-1.776-11.541S2407.009,6932.236,2408.794,6928.822Z" transform="translate(-2408.337 -6919.526)" fill="url(#linear-gradient-14)"/>
        <path id="Path_134741" data-name="Path 134741" d="M2501.641,6880.616s-1.216-5.457,5.034-4.012c0,0,3.034-.5,3.188,2.367,0,0,1.956,1.289.524,3.767,0,0,5.812-2.245,8.344,2.85s.2,7.9-2.236,8.627a2.43,2.43,0,0,1,1.041,3.234c-.936,2.242-5.675,3.822-8.474,1.1,0,0-7.966,1.053-7.806-4.574,0,0-3.705-2.392.187-7.042S2501.641,6880.616,2501.641,6880.616Z" transform="translate(-2483.706 -6876.361)" fill="#0a5936"/>
        <path id="Path_134742" data-name="Path 134742" d="M2485.977,6971.512a8.574,8.574,0,0,1,8.391,2.138,2.156,2.156,0,0,1,.621,2.146c-.935,3.44-3.4,13.6-1.238,18,0,0-3.809,4.2-7.964.814,0,0-1.865-8.125-4.306-11.693-1.686-2.462,2.688-9.248,3.8-10.886A1.293,1.293,0,0,1,2485.977,6971.512Z" transform="translate(-2468.384 -6954.608)" fill="url(#linear-gradient-15)"/>
        <path id="Path_134743" data-name="Path 134743" d="M2517.121,6933.988s1.857,5.254,2,7.571a3.973,3.973,0,0,1-3.987-.642,58.4,58.4,0,0,0-.5-6.187Z" transform="translate(-2496.061 -6923.918)" fill="url(#linear-gradient-16)"/>
        <path id="Path_134744" data-name="Path 134744" d="M2500.5,6892.808s-4.858,6.8-1.954,8.774,6.363-2.857,6.363-2.857,1.127-3.722-.052-4.984S2500.5,6892.808,2500.5,6892.808Z" transform="translate(-2482.017 -6889.902)" fill="url(#linear-gradient-17)"/>
        <path id="Path_134745" data-name="Path 134745" d="M2514.856,6883.264s-2.232.529-2.545,1.539,3.165,1.946,4.139,1.992l.785,4.075s2.322-3.833,1.4-6.047S2514.856,6883.264,2514.856,6883.264Z" transform="translate(-2494.127 -6881.983)" fill="#0a5936"/>
        <path id="Path_134746" data-name="Path 134746" d="M2533.938,6918.106s1.891-2.19,2.643-.762-1.7,2.5-2.552,1.8Z" transform="translate(-2511.991 -6909.784)" fill="url(#linear-gradient-18)"/>
        <path id="Path_134747" data-name="Path 134747" d="M2475.214,7202.919c.014.369-.633,3.294-.986,4.856a2.569,2.569,0,0,0,.276,1.843l12.207,20.545a2.815,2.815,0,0,1,.32.8,17.633,17.633,0,0,1,.445,5.477l-.632,1.312,2.731-.62.594-7.334-.773-.471a3.674,3.674,0,0,1-1.486-1.74c-1.1-2.681-3.845-9.506-4.552-12.832-.8-3.78-5-6.851-5-6.851l.738-1.744Z" transform="translate(-2462.662 -7145.858)" fill="url(#linear-gradient-19)"/>
        <path id="Path_134748" data-name="Path 134748" d="M2548.627,7358.9a16.662,16.662,0,0,1-1.648-3.248c-.173-.91-.657-2.518-1.566-2.034a53.452,53.452,0,0,0-.281,6.149c.148,1.728-1.953,1.672-1.953,1.672a1.962,1.962,0,0,0-1,.505.491.491,0,0,0,.33.827,11.83,11.83,0,0,0,2.926-.165.9.9,0,0,0,.722-.826l.3-5.088,1.86,2.349Z" transform="translate(-2518.677 -7270.151)" fill="#0a5936"/>
        <path id="Path_134749" data-name="Path 134749" d="M2509.907,7219.311s.431,18.377.489,20.987-.412,8.394-3.029,10.123l1.139.843a15.215,15.215,0,0,0,2.813-3.537,21.527,21.527,0,0,1,2.034-3.092l-.518-1.062a2.332,2.332,0,0,1-.189-1.5c.565-2.737,2.451-11.839,2.965-13.8a8.827,8.827,0,0,0-1.462-7.99C2512.035,7217.7,2509.907,7219.311,2509.907,7219.311Z" transform="translate(-2490.063 -7158.977)" fill="url(#linear-gradient-20)"/>
        <path id="Path_134750" data-name="Path 134750" d="M2506.264,7371.957a.161.161,0,0,0,.162-.138,23.756,23.756,0,0,1,.746-3.705c.34-.729,1.449-3.794,0-4.054,0,0-3.605,5.268-4.3,5.978a1.357,1.357,0,0,1-1.566.249,2.609,2.609,0,0,0-1.183.849.478.478,0,0,0,.376.768l2.428.022a1.708,1.708,0,0,0,1.6-1.076,9.116,9.116,0,0,1,2.018-3.329l-.445,4.258a.162.162,0,0,0,.159.179Z" transform="translate(-2484.004 -7278.842)" fill="#0a5936"/>
        <path id="Path_134751" data-name="Path 134751" d="M2478.519,7088.261a8.622,8.622,0,0,1-.294,4.617l-5.215,18.212a.563.563,0,0,0,.353.686,34.79,34.79,0,0,0,13.688,1.66.794.794,0,0,0,.725-.618c.462-2.076,2.035-9.161,2.359-10.616,1.235-5.546,2.613-11.527-3.452-15.144C2483.888,7088.255,2481.281,7088.961,2478.519,7088.261Z" transform="translate(-2461.691 -7050.242)" fill="#0a5936"/>
        <path id="Path_134752" data-name="Path 134752" d="M2536.4,6987.252s5.934,4.932,7.407,11.67-8.671,7.455-8.671,7.455a3.139,3.139,0,0,0-3.012-.989c-1.635.548-.126-2.684,1.786-2.676s1.027,1.522,3.732.3c2.636-1.194,4.265-4.887-2.46-10.484a3.055,3.055,0,0,1-.888-1.21C2532.99,6988.026,2534.026,6985.87,2536.4,6987.252Z" transform="translate(-2509.921 -6967.525)" fill="url(#linear-gradient-21)"/>
      </g>
      <g id="Group_92199" data-name="Group 92199" transform="translate(0 16.714)">
        <g id="Group_92193" data-name="Group 92193" transform="translate(36.14 47.911)">
          <g id="Group_92191" data-name="Group 92191" transform="translate(10.938 5.451)">
            <rect id="Rectangle_31826" data-name="Rectangle 31826" width="2.117" height="22.89" fill="#98d8c9"/>
          </g>
          <g id="Group_92192" data-name="Group 92192" transform="translate(2.727 27.404)">
            <path id="Path_134753" data-name="Path 134753" d="M2306.82,7404.413h-18.539v-1.225a.153.153,0,0,1,.153-.153h18.232a.153.153,0,0,1,.153.153Z" transform="translate(-2288.281 -7403.035)" fill="#98d8c9"/>
          </g>
          <rect id="Rectangle_31827" data-name="Rectangle 31827" width="24.771" height="7.025" rx="3.513" fill="#98d8c9"/>
        </g>
        <g id="Group_92195" data-name="Group 92195" transform="translate(16.774)">
          <path id="Path_134754" data-name="Path 134754" d="M2203.406,7366.065s-6.843,2.946-6.451,6.031c0,0,7.073-1.356,8.339-3.379s.568-3.192.568-3.192Z" transform="translate(-2190.806 -7296.765)" fill="#0a5936"/>
          <path id="Path_134755" data-name="Path 134755" d="M2229.632,7349.334l.347,3a.993.993,0,0,1-.629,1.055,2.578,2.578,0,0,1-.867.132,1.157,1.157,0,0,1-1.124-.844l-.673-2.429Z" transform="translate(-2215.356 -7283.403)" fill="url(#linear-gradient-22)"/>
          <path id="Path_134756" data-name="Path 134756" d="M2227.3,7217.376s-12.586-.583-18.849,3.07.317,21.181.317,21.181a6.361,6.361,0,0,0,3.992-.907s-3.362-12.832,2.478-15.064a33.62,33.62,0,0,1,13.355-1.9l-1.258-5.983Z" transform="translate(-2198.077 -7174.474)" fill="#0a5936"/>
          <path id="Path_134757" data-name="Path 134757" d="M2192.936,7385.711c1.431-.314,5.675-2.072,6.319-2.049s1.558.99,1.558.99a1.714,1.714,0,0,1-.3,1.285,11.878,11.878,0,0,1-6.187,2.59,4.6,4.6,0,0,1-3.92-1.453A5.6,5.6,0,0,1,2192.936,7385.711Z" transform="translate(-2185.412 -7311.732)" fill="#0a5936"/>
          <path id="Path_134758" data-name="Path 134758" d="M2191.43,7399.273a11.891,11.891,0,0,0,6.187-2.59,5.349,5.349,0,0,1-2.021,1.76,13.534,13.534,0,0,1-8.248.983c-.727-.282-.5-.96.162-1.607A4.6,4.6,0,0,0,2191.43,7399.273Z" transform="translate(-2182.52 -7322.479)" fill="url(#linear-gradient-23)"/>
          <path id="Path_134759" data-name="Path 134759" d="M2240.286,7372.739a10.2,10.2,0,0,1-1.676,2.013,1.142,1.142,0,0,1-1.06.319,2.936,2.936,0,0,1-.759-.266.741.741,0,0,1-.286-1.007l1.466-2.665Z" transform="translate(-2223.382 -7301.392)" fill="url(#linear-gradient-24)"/>
          <path id="Path_134760" data-name="Path 134760" d="M2267.534,7211.5s1.1,7.793-2.078,9.386-10.143,2.636-12.543,6.679-6.71,11.976-10.632,14.256c0,0-2.24-.729-2.895-1.83,0,0,4.655-12.239,6.6-15.213,1.682-2.577,4.141-6.288,7.635-7.893,1-.459,1.079-1.521.9-2.607l-.321-1.979Z" transform="translate(-2225.837 -7169.65)" fill="#0a5936"/>
          <path id="Path_134761" data-name="Path 134761" d="M2227.547,7106.308c4.453,1.271,6.447-11.262,6.428-11.566l6.828,7.983s-4.069,7.159-10.212,7.92a7.246,7.246,0,0,1-3.985-.584A6.383,6.383,0,0,0,2227.547,7106.308Z" transform="translate(-2215.29 -7073.297)" fill="url(#linear-gradient-25)"/>
          <path id="Path_134762" data-name="Path 134762" d="M2165.853,7136.4a3.575,3.575,0,0,1,3.587.793,11.648,11.648,0,0,0,4.659,3.308,6.383,6.383,0,0,1-.94,3.753,9.926,9.926,0,0,1-4.375-4.43.832.832,0,0,0-1.1-.373c-.412.2-.835.5-.862.914-.053.813-1.02.861-1.026.561a12.054,12.054,0,0,1,.75-1.905s-2.23,1.43-3.1,1.977a1.278,1.278,0,0,1-1.607-.355S2163.912,7137.2,2165.853,7136.4Z" transform="translate(-2161.842 -7107.494)" fill="url(#linear-gradient-26)"/>
          <path id="Path_134763" data-name="Path 134763" d="M2289.512,7059.91s-5.984-4.083-20.438,3.3a4.7,4.7,0,0,0-.791,4.014c.7,2.127,9.279,13.638,9.612,19.043a15.367,15.367,0,0,0,13.481.029S2293.93,7072.027,2289.512,7059.91Z" transform="translate(-2249.53 -7043.622)" fill="url(#linear-gradient-27)"/>
          <path id="Path_134764" data-name="Path 134764" d="M2297.076,7035.354l2.365,4.634a1.317,1.317,0,0,1-.137,1.42,3.763,3.763,0,0,1-4.331,1.206,2.032,2.032,0,0,1-1.385-1.474l-1.226-5.173Z" transform="translate(-2269.556 -7024.287)" fill="url(#linear-gradient-28)"/>
          <path id="Path_134765" data-name="Path 134765" d="M2382.771,7081.41c.4-2.817-7.039-8.277-7.039-8.277l2.607-7.9s14.2,10.136,11.217,18.415a5.781,5.781,0,0,1-1.846,2.664A9.252,9.252,0,0,0,2382.771,7081.41Z" transform="translate(-2338.358 -7048.94)" fill="url(#linear-gradient-29)"/>
          <path id="Path_134766" data-name="Path 134766" d="M2326.767,7158.617s8.42,2.352,10.167-.211a1.335,1.335,0,0,0,.218-.571,9.255,9.255,0,0,1,4.94,4.9c-4,3.145-11.707-.38-13.8-1.437a1.478,1.478,0,0,0-1.109-.093,10.11,10.11,0,0,1-2.755.554c-1.052-.058-2.182,3.745-3.972,2.782C2320.454,7164.538,2321.268,7158.041,2326.767,7158.617Z" transform="translate(-2292.739 -7125.365)" fill="url(#linear-gradient-30)"/>
          <g id="Group_92194" data-name="Group 92194" transform="translate(19.49)">
            <path id="Path_134767" data-name="Path 134767" d="M2278.382,6991.086c-.075.064-3.195,5.513-4.782,8.291a1.633,1.633,0,0,0,.776,2.312l.688.295c.94.4,2.961.74,3.757.1l5.015-5.293S2280.069,6989.626,2278.382,6991.086Z" transform="translate(-2273.384 -6987.592)" fill="url(#linear-gradient-31)"/>
            <path id="Path_134768" data-name="Path 134768" d="M2301.233,6979.765a1.617,1.617,0,0,0,.779-2.282,2.282,2.282,0,0,0-2.487-1.288.623.623,0,0,1-.661-.449.492.492,0,0,0-.436-.353.613.613,0,0,1-.484-.768,1.86,1.86,0,0,0-.928-2.229c-1.909-1.155-3.693.523-4.19,1.982s1.644,2.594,3.01,2.826c1.039.176,1.546,1.375,1.729,1.939a.617.617,0,0,1-.073.531l-1.525,2.317c.419.527.791,1.085,1.157,1.649.137-.148.257-.271.351-.357.662-.606,1.84-.293,2.325-.126a.612.612,0,0,0,.481-.035,1.614,1.614,0,0,0,.72-2.489A.625.625,0,0,1,2301.233,6979.765Z" transform="translate(-2289.369 -6972.012)" fill="#0a5936"/>
            <path id="Path_134769" data-name="Path 134769" d="M2314.6,7033.031s.975-2.5,2.083-2.365,1.937,1.284.507,2.472C2315.413,7034.614,2314.6,7033.031,2314.6,7033.031Z" transform="translate(-2307.4 -7020.412)" fill="url(#linear-gradient-32)"/>
          </g>
        </g>
        <g id="Group_92196" data-name="Group 92196" transform="translate(1.339 20.752)">
          <path id="Path_134770" data-name="Path 134770" d="M2197.771,7184.578h-.045l-19.672-.022a.88.88,0,1,1,0-1.761l19.672.022a.88.88,0,0,1,.043,1.76Z" transform="translate(-2159.06 -7166.716)" fill="#0a5936"/>
          <path id="Path_134771" data-name="Path 134771" d="M2074.817,7090.774H2091.2a3.123,3.123,0,0,1,2.824,1.791l7.574,16.06h-20.36a1.9,1.9,0,0,1-1.765-1.2l-5.873-14.861A1.308,1.308,0,0,1,2074.817,7090.774Z" transform="translate(-2073.507 -7090.774)" fill="#0a5936"/>
          <path id="Path_134772" data-name="Path 134772" d="M2134.7,7130.149c.355,1.1.093,2.175-.586,2.393s-1.517-.5-1.872-1.6-.093-2.174.586-2.393S2134.348,7129.047,2134.7,7130.149Z" transform="translate(-2121.852 -7121.915)" fill="#98d8c9"/>
        </g>
        <g id="Group_92198" data-name="Group 92198" transform="translate(0 38.426)">
          <g id="Group_92197" data-name="Group 92197" transform="translate(4.478 1.76)">
            <path id="Path_134773" data-name="Path 134773" d="M2092.3,7242.613a.845.845,0,0,1-.326-.065.791.791,0,0,1-.433-1.051l17.337-39.019a.837.837,0,0,1,1.086-.419.791.791,0,0,1,.433,1.051l-17.337,39.02A.829.829,0,0,1,2092.3,7242.613Z" transform="translate(-2091.472 -7201.993)" fill="#98d8c9"/>
            <path id="Path_134774" data-name="Path 134774" d="M2122.188,7242.612a.828.828,0,0,1-.76-.484l-17.337-39.02a.791.791,0,0,1,.433-1.052.839.839,0,0,1,1.086.42l17.337,39.019a.791.791,0,0,1-.433,1.052A.857.857,0,0,1,2122.188,7242.612Z" transform="translate(-2101.83 -7201.992)" fill="#98d8c9"/>
            <path id="Path_134775" data-name="Path 134775" d="M2399.429,7242.613a.845.845,0,0,1-.326-.065.791.791,0,0,1-.433-1.051l17.338-39.019a.836.836,0,0,1,1.086-.419.791.791,0,0,1,.433,1.051l-17.337,39.02A.829.829,0,0,1,2399.429,7242.613Z" transform="translate(-2344.936 -7201.993)" fill="#98d8c9"/>
            <path id="Path_134776" data-name="Path 134776" d="M2429.317,7242.612a.829.829,0,0,1-.76-.484l-17.337-39.02a.791.791,0,0,1,.433-1.052.838.838,0,0,1,1.086.42l17.338,39.019a.792.792,0,0,1-.433,1.052A.855.855,0,0,1,2429.317,7242.612Z" transform="translate(-2355.293 -7201.992)" fill="#98d8c9"/>
          </g>
          <path id="Path_134777" data-name="Path 134777" d="M2146.38,7192.96a.949.949,0,0,0-.164-.721.749.749,0,0,0-.6-.318h-78.872a.878.878,0,0,0-.756.463,1.108,1.108,0,0,0-.059.963l.855,2.071a1.2,1.2,0,0,0,1.086.778h77.205a.939.939,0,0,0,.889-.822Z" transform="translate(-2065.844 -7191.922)" fill="#98d8c9"/>
        </g>
      </g>
    </g>
    <g id="Group_92211" data-name="Group 92211" transform="translate(1529.266 6402.354)">
      <g id="Group_92205" data-name="Group 92205" transform="translate(0 2.001)">
        <g id="Group_92201" data-name="Group 92201">
          <path id="Path_134778" data-name="Path 134778" d="M1610.591,6575.755a.208.208,0,0,1-.132-.181c-.016-.273-.026-.55-.03-.826a.2.2,0,0,1,.2-.2c.278,0,.2.275.241,1.013a.2.2,0,0,1-.2.213A.207.207,0,0,1,1610.591,6575.755Z" transform="translate(-1610.429 -6554.451)" fill="#d2f6e6"/>
          <path id="Path_134779" data-name="Path 134779" d="M1611.151,6477.282c.06-.521.142-1.047.243-1.562a.2.2,0,0,1,.244-.158c.307.065.1.235-.074,1.773a.2.2,0,0,1-.23.176A.209.209,0,0,1,1611.151,6477.282Zm.9-4.042c.167-.5.357-1,.559-1.477a.209.209,0,0,1,.384.163c-.2.473-.384.958-.548,1.448a.209.209,0,0,1-.4-.133Zm1.713-3.768c.266-.453.553-.9.855-1.33a.209.209,0,0,1,.344.236c-.3.421-.577.859-.838,1.3A.208.208,0,0,1,1613.763,6469.472Zm2.483-3.044a.2.2,0,0,1-.017-.289c.355-.387.731-.766,1.117-1.125.2-.184.486.115.288.3-.378.352-.746.723-1.095,1.1A.209.209,0,0,1,1616.246,6466.427Zm3.055-2.759a.2.2,0,0,1,.043-.286c.43-.307.877-.6,1.329-.874a.207.207,0,0,1,.221.35c-.443.268-.882.556-1.3.856A.212.212,0,0,1,1619.3,6463.668Zm3.683-1.977a.21.21,0,0,1-.113-.106.2.2,0,0,1,.1-.27c.485-.215.985-.412,1.486-.588a.211.211,0,0,1,.267.124.2.2,0,0,1-.122.261c-.49.173-.98.367-1.456.577A.208.208,0,0,1,1622.984,6461.691Zm3.949-1.282a.21.21,0,0,1-.127-.146.2.2,0,0,1,.155-.243c.52-.112,1.052-.206,1.581-.277a.211.211,0,0,1,.237.175.2.2,0,0,1-.174.23c-.518.07-1.039.162-1.548.271A.212.212,0,0,1,1626.932,6460.409Zm4.011-.647a.2.2,0,0,1,.2-.207c.534-.005,1.076.011,1.61.047a.2.2,0,1,1-.022.408c-.524-.036-1.054-.052-1.578-.047A.21.21,0,0,1,1630.944,6459.761Zm13.244,4.67c-1.229-.973-1.509-.962-1.334-1.217a.209.209,0,0,1,.288-.052c.445.3.883.619,1.3.952A.2.2,0,1,1,1644.188,6464.432Zm-9.075-4.327a.2.2,0,0,1,.242-.161c.525.1,1.054.227,1.571.37a.2.2,0,1,1-.106.394c-.507-.14-1.025-.261-1.54-.362A.208.208,0,0,1,1635.113,6460.1Zm5.58,2.1c-1.4-.706-1.673-.641-1.555-.927a.211.211,0,0,1,.271-.108c.5.2.992.431,1.469.672a.205.205,0,0,1,.094.276A.208.208,0,0,1,1640.694,6462.2Z" transform="translate(-1611.024 -6459.554)" fill="#d2f6e6"/>
          <path id="Path_134780" data-name="Path 134780" d="M1811.466,6496.3c-.469-.518-.762-.7-.56-.887a.211.211,0,0,1,.294.007c.506.517.761.724.56.9A.236.236,0,0,1,1811.466,6496.3Z" transform="translate(-1775.822 -6489.099)" fill="#d2f6e6"/>
        </g>
        <g id="Group_92202" data-name="Group 92202" transform="translate(4.655 20.983)">
          <path id="Path_134781" data-name="Path 134781" d="M1844.146,6580.848a.209.209,0,0,1-.132-.207c.019-.269.033-.54.041-.808a.2.2,0,0,1,.214-.2.21.21,0,0,1,.2.214c-.008.273-.022.55-.042.824a.2.2,0,0,1-.222.187A.229.229,0,0,1,1844.146,6580.848Z" transform="translate(-1807.852 -6579.638)" fill="#d2f6e6"/>
          <path id="Path_134782" data-name="Path 134782" d="M1657.038,6614.18c-.531-.229-1.059-.481-1.569-.752a.2.2,0,0,1-.088-.277c.15-.28.264-.013,1.818.654a.206.206,0,0,1,.111.27A.212.212,0,0,1,1657.038,6614.18Zm2.517.688c.084-.305.262-.068,1.912.253a.208.208,0,0,1,.167.24.2.2,0,0,1-.242.161c-.565-.11-1.133-.245-1.691-.4A.208.208,0,0,1,1659.555,6614.868Zm-6.486-2.928c-.468-.336-.928-.7-1.368-1.071a.2.2,0,0,1-.024-.288c.21-.24.26.044,1.633,1.029a.2.2,0,0,1,.048.286A.209.209,0,0,1,1653.069,6611.94Zm11.055,3.92a.208.208,0,0,1-.133-.2.2.2,0,0,1,.217-.192c.565.033,1.136.042,1.7.028a.21.21,0,0,1,.217.2.2.2,0,0,1-.2.209c-.574.015-1.158.006-1.734-.028A.2.2,0,0,1,1664.124,6615.86Zm4.485-.23a.208.208,0,0,1-.13-.156.2.2,0,0,1,.168-.235c.555-.09,1.112-.2,1.657-.34a.211.211,0,0,1,.255.148.2.2,0,0,1-.147.248c-.556.138-1.126.255-1.692.347A.207.207,0,0,1,1668.609,6615.63Zm4.31-1.194a.21.21,0,0,1-.116-.113.2.2,0,0,1,.111-.266c.52-.208,1.036-.439,1.536-.689a.213.213,0,0,1,.281.091.2.2,0,0,1-.088.274c-.51.255-1.038.492-1.568.7A.21.21,0,0,1,1672.92,6614.436Zm3.928-2.094a.212.212,0,0,1-.094-.073.2.2,0,0,1,.049-.285c.46-.314.911-.652,1.342-1a.211.211,0,0,1,.293.029.2.2,0,0,1-.025.287c-.44.359-.9.7-1.37,1.025A.209.209,0,0,1,1676.848,6612.342Zm3.294-2.933c-.24-.216.048-.253,1.065-1.562a.208.208,0,0,1,.332.252c-.347.446-.718.884-1.1,1.3A.21.21,0,0,1,1680.142,6609.409Zm2.654-3.533c-.282-.16-.012-.257.685-1.759a.209.209,0,0,1,.379.174c-.238.513-.5,1.021-.781,1.51A.208.208,0,0,1,1682.8,6605.876Zm1.774-4.037a.207.207,0,0,1-.124-.25c.162-.532.3-1.075.418-1.614a.205.205,0,0,1,.246-.154.208.208,0,0,1,.161.245c-.118.55-.261,1.1-.427,1.646a.205.205,0,0,1-.259.133Z" transform="translate(-1649.084 -6596.29)" fill="#d2f6e6"/>
          <path id="Path_134783" data-name="Path 134783" d="M1637.661,6647.16c-.483-.54-.727-.756-.517-.922s.334.1.827.655a.2.2,0,0,1-.017.288A.211.211,0,0,1,1637.661,6647.16Z" transform="translate(-1637.068 -6634.558)" fill="#d2f6e6"/>
        </g>
        <g id="Group_92204" data-name="Group 92204" transform="translate(5.23 5)">
          <path id="Path_134784" data-name="Path 134784" d="M1642.743,6511.625l2.962-.315a13.236,13.236,0,0,0,3.157,2.79c.066,2.852-.132,3.056.171,3.163l3.386,1.194a.245.245,0,0,0,.273-.076l1.834-2.285a13.171,13.171,0,0,0,4.2-.195l2.114,2.1a.25.25,0,0,0,.281.049l3.215-1.5a.236.236,0,0,0,.135-.244l-.367-2.918a12.561,12.561,0,0,0,2.787-3.062l2.982.041a.24.24,0,0,0,.232-.159l1.161-3.312a.241.241,0,0,0-.081-.27l-2.352-1.839a12.612,12.612,0,0,0-.265-4.138c2.014-2.042,2.293-2.039,2.153-2.322-1.6-3.1-1.5-3.357-1.824-3.323l-2.962.315a13.243,13.243,0,0,0-3.157-2.79c-.066-2.85.132-3.056-.171-3.163-3.385-1.128-3.462-1.363-3.659-1.118l-1.833,2.285a13.172,13.172,0,0,0-4.2.2c-2.083-1.989-2.1-2.289-2.395-2.154-3.155,1.538-3.39,1.426-3.351,1.742l.367,2.917a12.573,12.573,0,0,0-2.787,3.062c-2.848.02-3.108-.184-3.213.119-1.089,3.3-1.334,3.383-1.079,3.581l2.352,1.84a12.608,12.608,0,0,0,.265,4.137c-2.007,2.035-2.293,2.037-2.153,2.321C1642.517,6511.4,1642.418,6511.659,1642.743,6511.625Z" transform="translate(-1640.362 -6488.167)" fill="#98d8c9"/>
          <g id="Group_92203" data-name="Group 92203" transform="translate(11.968 11.718)">
            <path id="Path_134785" data-name="Path 134785" d="M1708.869,6558.324a3.414,3.414,0,0,1,3.767-3.078,3.519,3.519,0,0,1,3.189,3.753,3.414,3.414,0,0,1-3.767,3.079h0A3.519,3.519,0,0,1,1708.869,6558.324Zm3.215,3.449h0Zm.5-5.916a2.8,2.8,0,0,0-3.094,2.527,2.89,2.89,0,0,0,2.619,3.083,2.8,2.8,0,0,0,3.094-2.528A2.889,2.889,0,0,0,1712.584,6555.857Z" transform="translate(-1708.857 -6555.229)" fill="#f2fff9"/>
          </g>
          <path id="Path_134786" data-name="Path 134786" d="M1683.689,6541.331h0a9.308,9.308,0,0,1-1.383-.689.307.307,0,0,1-.13-.375.3.3,0,0,1,.024-.047.313.313,0,0,1,.428-.1,8.647,8.647,0,0,0,1.607.761h0a8.259,8.259,0,0,0,10.458-4.614c.041-.1.08-.208.117-.313a8.353,8.353,0,0,0-15.751-5.552,9.272,9.272,0,0,0-.284,4.523.314.314,0,0,1-.6-.057,8.625,8.625,0,0,1,.416-5.012c2.815-7.079,12.962-7.336,16.377-.424a8.635,8.635,0,0,1,.428,6.729q-.06.171-.127.34a8.6,8.6,0,0,1-4.4,4.641,9.006,9.006,0,0,1-6.836.315Q1683.859,6541.4,1683.689,6541.331Z" transform="translate(-1671.41 -6518.066)" fill="#f2fff9"/>
        </g>
      </g>
      <g id="Group_92210" data-name="Group 92210" transform="translate(37.068 0)">
        <path id="Path_134787" data-name="Path 134787" d="M1838.449,6474.182a7.232,7.232,0,0,0,1.867,1.424l.122,1.659c.014.185.167.1,2.031.632.172.045.145-.111,1.075-1.437a7.275,7.275,0,0,0,2.327-.314l1.26,1.086c.14.121.192-.044,1.883-.988a.137.137,0,0,0,.065-.145l-.322-1.633a7.248,7.248,0,0,0,1.424-1.867c1.582-.15,1.734-.048,1.781-.224.472-1.919.6-1.978.454-2.078l-1.381-.926a7.244,7.244,0,0,0-.315-2.327l1.087-1.26c.12-.14-.044-.192-.989-1.884-.089-.153-.175-.024-1.777.257a7.226,7.226,0,0,0-1.867-1.424l-.122-1.659c-.014-.185-.167-.1-2.031-.632-.171-.045-.14.1-1.074,1.437a7.26,7.26,0,0,0-2.327.315l-1.26-1.087a.137.137,0,0,0-.158-.015l-1.725,1a.136.136,0,0,0-.065.144l.322,1.633a7.252,7.252,0,0,0-1.424,1.867c-1.582.149-1.734.048-1.78.224-.472,1.918-.6,1.978-.455,2.078l1.381.926a7.247,7.247,0,0,0,.315,2.327c-1.013,1.225-1.193,1.261-1.1,1.418l1,1.726C1836.762,6474.592,1836.855,6474.462,1838.449,6474.182Z" transform="translate(-1832.841 -6458.282)" fill="#98d8c9"/>
        <g id="Group_92209" data-name="Group 92209">
          <g id="Group_92206" data-name="Group 92206" transform="translate(8.822 8.806)">
            <path id="Path_134788" data-name="Path 134788" d="M1873.055,6500.559a2.083,2.083,0,1,1,2.059,2.106h0A2.084,2.084,0,0,1,1873.055,6500.559Zm2.062,1.8h0Zm-1.442-1.789a1.464,1.464,0,0,0,1.445,1.479h0a1.462,1.462,0,1,0-1.445-1.479Z" transform="translate(-1873.054 -6498.5)" fill="#d2f6e6"/>
          </g>
          <g id="Group_92207" data-name="Group 92207">
            <path id="Path_134789" data-name="Path 134789" d="M1824.961,6526.362c-.094-.263-.179-.534-.253-.8a.207.207,0,0,1,.146-.254c.277-.076.254.24.5.919a.207.207,0,0,1-.39.139Z" transform="translate(-1824.328 -6511.805)" fill="#d2f6e6"/>
            <path id="Path_134790" data-name="Path 134790" d="M1822.566,6459.115a11.055,11.055,0,0,1,.113-1.7.207.207,0,0,1,.409.059c-.216,1.5.034,1.842-.313,1.846A.206.206,0,0,1,1822.566,6459.115Zm.964-4.094a.206.206,0,0,1-.11-.271,10.9,10.9,0,0,1,.784-1.514.207.207,0,0,1,.351.219,10.5,10.5,0,0,0-.755,1.456A.211.211,0,0,1,1823.53,6455.021Zm2.486-3.586a.2.2,0,0,1-.073-.05.207.207,0,0,1,.007-.292,10.94,10.94,0,0,1,1.322-1.076.207.207,0,1,1,.236.34,10.562,10.562,0,0,0-1.272,1.036A.208.208,0,0,1,1826.016,6451.435Zm3.7-2.3a.209.209,0,0,1-.118-.122.206.206,0,0,1,.123-.265,10.912,10.912,0,0,1,1.642-.458.207.207,0,1,1,.079.406,10.524,10.524,0,0,0-1.579.44A.207.207,0,0,1,1829.72,6449.131Zm4.187-.833a.207.207,0,0,1,.219-.194,10.941,10.941,0,0,1,1.689.233.207.207,0,0,1-.089.4,10.532,10.532,0,0,0-1.625-.224A.207.207,0,0,1,1833.907,6448.3Z" transform="translate(-1822.565 -6448.103)" fill="#d2f6e6"/>
            <path id="Path_134791" data-name="Path 134791" d="M1912.413,6455.454c-.647-.4-.924-.427-.8-.676a.2.2,0,0,1,.278-.089c.248.126.5.265.736.412a.207.207,0,1,1-.216.353Z" transform="translate(-1896.03 -6453.519)" fill="#d2f6e6"/>
          </g>
          <g id="Group_92208" data-name="Group 92208" transform="translate(4.698 7.944)">
            <path id="Path_134792" data-name="Path 134792" d="M1943.229,6494.617c-.137-.75-.3-.974-.029-1.045a.207.207,0,0,1,.253.147c.071.27.133.547.183.823a.207.207,0,1,1-.407.075Z" transform="translate(-1926.699 -6493.564)" fill="#d2f6e6"/>
            <path id="Path_134793" data-name="Path 134793" d="M1867.635,6523.175c.09-.332.352-.009,1.838.158a.207.207,0,0,1-.046.412,10.981,10.981,0,0,1-1.647-.315A.207.207,0,0,1,1867.635,6523.175Zm4.278.361a.206.206,0,0,1,.177-.232c1.494-.2,1.734-.532,1.833-.2a.206.206,0,0,1-.139.257,10.89,10.89,0,0,1-1.639.354A.207.207,0,0,1,1871.913,6523.536Zm4.075-1.346c-.177-.3.234-.259,1.385-1.218a.207.207,0,0,1,.265.317,11,11,0,0,1-1.366.972A.207.207,0,0,1,1875.988,6522.19Zm3.218-2.841c-.28-.2.114-.33.8-1.664a.207.207,0,0,1,.368.189,11.029,11.029,0,0,1-.877,1.429A.207.207,0,0,1,1879.206,6519.35Zm1.689-4.123c.331-1.469.108-1.812.453-1.789a.207.207,0,0,1,.193.221,10.979,10.979,0,0,1-.242,1.659.207.207,0,1,1-.4-.091Z" transform="translate(-1864.452 -6509.965)" fill="#d2f6e6"/>
            <path id="Path_134794" data-name="Path 134794" d="M1850.258,6560.739c-.243-.139-.484-.289-.715-.446a.207.207,0,0,1-.055-.288c.161-.238.349.016.976.375a.207.207,0,1,1-.205.359Z" transform="translate(-1849.452 -6548.319)" fill="#d2f6e6"/>
          </g>
          <path id="Path_134795" data-name="Path 134795" d="M1858.639,6490.638a.31.31,0,1,1,.271-.559,4.568,4.568,0,0,0,.9.342,4.506,4.506,0,1,0-3.034-6.023c-.836,2.1.29,3.113-.356,3.3a.31.31,0,0,1-.384-.212,5.128,5.128,0,1,1,3.615,3.536h0A5.114,5.114,0,0,1,1858.639,6490.638Z" transform="translate(-1850.019 -6475.201)" fill="#d2f6e6"/>
        </g>
      </g>
    </g>
  </g>
</svg>
