<svg xmlns="http://www.w3.org/2000/svg" xmlns:xlink="http://www.w3.org/1999/xlink" width="210" height="184.098" viewBox="0 0 210 184.098">
  <defs>
    <linearGradient id="linear-gradient" y1="0.5" x2="1" y2="0.5" gradientUnits="objectBoundingBox">
      <stop offset="0.188" stop-color="#ffd234"/>
      <stop offset="0.986" stop-color="#ffb000"/>
    </linearGradient>
    <linearGradient id="linear-gradient-11" x1="0" y1="0.5" x2="1" y2="0.5" xlink:href="#linear-gradient"/>
  </defs>
  <g id="t1-i24" transform="translate(-2672.566 -7397.535)">
    <path id="Path_134796" data-name="Path 134796" d="M2874.311,7505.833c-3.518-14.586,7.666-15.149,7.912-33.944.1-7.687-3.543-15.516-12.31-19.107-4.309-1.765-8.6-2.979-12.437-5.784-8.736-6.4-8.578-18.563-10.961-28.937-5.234-22.784-46.235-40.9-66.625-40.309-14.7.423-21.479,8.611-34.879,23.032-9.169,9.866-25.324,8.972-20.617,34.464,4.193,22.706-5.7,21.02-14.757,29.4-9.039,8.364-15.658,18.343-12.061,29.668,3.967,12.488-20.316,19.655-24.646,35.844-2.937,10.979,12.493,11.908,22.993,11.908s100.344-.935,138.345.365c10.229.35,42.861,3.569,47.478-11.168C2884.889,7521.237,2876.768,7516.02,2874.311,7505.833Z" transform="translate(0 19.797)" fill="#f2fff9"/>
    <g id="Group_92216" data-name="Group 92216" transform="translate(2847.026 7464.419)">
      <g id="Group_92213" data-name="Group 92213" transform="translate(1.039)">
        <path id="Path_134797" data-name="Path 134797" d="M3286.9,7695.117a.248.248,0,0,1-.234-.229l-.088-1.247a.247.247,0,1,1,.493-.034l.088,1.246a.246.246,0,0,1-.229.264A.107.107,0,0,1,3286.9,7695.117Z" transform="translate(-3286.578 -7693.376)" fill="#98d8c9"/>
      </g>
      <g id="Group_92215" data-name="Group 92215" transform="translate(0 5.273)">
        <g id="Group_92214" data-name="Group 92214">
          <path id="Path_134798" data-name="Path 134798" d="M3289.9,7764.952l-3.295.231-3.667-53.126,1.647-.116,1.647-.115Z" transform="translate(-3282.942 -7711.826)" fill="#98d8c9"/>
        </g>
      </g>
      <path id="Path_134799" data-name="Path 134799" d="M3284.615,7696.8l-.667.047-1.006,4.48,3.295-.23Z" transform="translate(-3282.942 -7695.818)" fill="#98d8c9"/>
    </g>
    <g id="Group_92219" data-name="Group 92219" transform="translate(2684.403 7465.576)">
      <g id="Group_92217" data-name="Group 92217" transform="translate(8.426 9.362)">
        <path id="Path_134800" data-name="Path 134800" d="M2801.667,7804.689a103.586,103.586,0,0,1-58.208-74.439l.392-.072a102.776,102.776,0,0,0,57.98,74.148Z" transform="translate(-2743.459 -7730.178)" fill="#c3ecfe"/>
      </g>
      <g id="Group_92218" data-name="Group 92218">
        <path id="Path_134801" data-name="Path 134801" d="M2739.585,7713.551a19.278,19.278,0,0,1-3.869-12.85,3.871,3.871,0,0,1,1.232-3,1.257,1.257,0,0,1,.862-.267,1.609,1.609,0,0,1,1.073.947c1.266,2.3,1.251,5.086.961,7.7s-.16,4.607-.26,7.475" transform="translate(-2729.474 -7697.423)" fill="#c3ecfe"/>
        <path id="Path_134802" data-name="Path 134802" d="M2758.041,7745.7a19.281,19.281,0,0,1,1.543-13.33,3.87,3.87,0,0,1,2.323-2.27,1.253,1.253,0,0,1,.9.1,1.609,1.609,0,0,1,.61,1.295c.248,2.617-.869,5.166-2.171,7.449s-1.974,4.166-3.2,6.759" transform="translate(-2745.05 -7720.733)" fill="#c3ecfe"/>
        <path id="Path_134803" data-name="Path 134803" d="M2772.612,7783.626a19.279,19.279,0,0,1-.1-13.419,3.868,3.868,0,0,1,2.028-2.537,1.251,1.251,0,0,1,.9-.013,1.606,1.606,0,0,1,.763,1.21c.566,2.567-.231,5.233-1.244,7.658s-1.45,4.377-2.352,7.1" transform="translate(-2754.957 -7747.527)" fill="#c3ecfe"/>
        <path id="Path_134804" data-name="Path 134804" d="M2793.458,7819.247a19.279,19.279,0,0,1-.1-13.419,3.872,3.872,0,0,1,2.028-2.537,1.251,1.251,0,0,1,.9-.013,1.608,1.608,0,0,1,.763,1.21c.566,2.567-.23,5.233-1.244,7.659s-1.45,4.376-2.352,7.1" transform="translate(-2769.845 -7772.967)" fill="#c3ecfe"/>
        <path id="Path_134805" data-name="Path 134805" d="M2824.972,7862.094a19.279,19.279,0,0,1-1.487-13.336,3.868,3.868,0,0,1,1.755-2.733,1.25,1.25,0,0,1,.9-.106,1.609,1.609,0,0,1,.885,1.125c.829,2.494.313,5.229-.444,7.746s-.989,4.5-1.6,7.3" transform="translate(-2791.775 -7803.444)" fill="#c3ecfe"/>
        <path id="Path_134806" data-name="Path 134806" d="M2851.2,7891.465a20.578,20.578,0,0,1-2.321-12.874,4.352,4.352,0,0,1,1.309-2.95,1.045,1.045,0,0,1,.769-.24c.422.075.682.533.854.972.911,2.325.676,5.089.215,7.676s-.508,4.572-.825,7.417" transform="translate(-2810.175 -7824.524)" fill="#c3ecfe"/>
        <path id="Path_134807" data-name="Path 134807" d="M2728.518,7774.176a20.881,20.881,0,0,1-12.868-5.66,4.28,4.28,0,0,1-1.671-2.994,1.229,1.229,0,0,1,.323-.854,1.6,1.6,0,0,1,1.441-.2c2.665.568,4.918,2.461,6.861,4.453s3.645,3.239,5.913,5.255" transform="translate(-2713.978 -7745.251)" fill="#c3ecfe"/>
        <path id="Path_134808" data-name="Path 134808" d="M2737.9,7812.425a20.882,20.882,0,0,1-13.846-2.425,4.282,4.282,0,0,1-2.338-2.51,1.233,1.233,0,0,1,.11-.905,1.6,1.6,0,0,1,1.353-.538c2.724-.085,5.363,1.215,7.725,2.687s4.313,2.275,7,3.691" transform="translate(-2719.476 -7774.997)" fill="#c3ecfe"/>
        <path id="Path_134809" data-name="Path 134809" d="M2758.2,7855.686a20.884,20.884,0,0,1-14.052.395,4.283,4.283,0,0,1-2.792-1.991,1.232,1.232,0,0,1-.074-.91,1.6,1.6,0,0,1,1.218-.8c2.652-.627,5.5.118,8.106,1.087s4.681,1.367,7.594,2.217" transform="translate(-2733.434 -7807.927)" fill="#c3ecfe"/>
        <path id="Path_134810" data-name="Path 134810" d="M2793.065,7891.126a20.886,20.886,0,0,1-13.789-2.732,4.287,4.287,0,0,1-2.282-2.562,1.23,1.23,0,0,1,.131-.9,1.6,1.6,0,0,1,1.364-.508c2.725-.023,5.335,1.334,7.664,2.858s4.261,2.371,6.913,3.847" transform="translate(-2758.961 -7830.973)" fill="#c3ecfe"/>
        <path id="Path_134811" data-name="Path 134811" d="M2819.005,7933.643a20.887,20.887,0,0,1-13.543,3.768,4.283,4.283,0,0,1-3.19-1.26,1.229,1.229,0,0,1-.291-.865c.06-.492.533-.831.99-1.067,2.422-1.248,5.365-1.211,8.13-.9s4.873.2,7.9.323" transform="translate(-2776.824 -7865.764)" fill="#c3ecfe"/>
      </g>
    </g>
    <g id="Group_92222" data-name="Group 92222" transform="translate(2711.825 7456.219)">
      <g id="Group_92220" data-name="Group 92220" transform="translate(8.39 9.322)">
        <path id="Path_134812" data-name="Path 134812" d="M2897.235,7771.494a103.146,103.146,0,0,1-57.96-74.123l.392-.072a102.342,102.342,0,0,0,57.733,73.833Z" transform="translate(-2839.275 -7697.298)" fill="#c3ecfe"/>
      </g>
      <g id="Group_92221" data-name="Group 92221" transform="translate(0 0)">
        <path id="Path_134813" data-name="Path 134813" d="M2835.421,7680.744a19.2,19.2,0,0,1-3.853-12.795,3.854,3.854,0,0,1,1.228-2.992,1.25,1.25,0,0,1,.858-.265,1.6,1.6,0,0,1,1.069.942c1.26,2.294,1.246,5.065.957,7.667s-.159,4.588-.258,7.442" transform="translate(-2825.352 -7664.686)" fill="#c3ecfe"/>
        <path id="Path_134814" data-name="Path 134814" d="M2853.8,7712.756a19.2,19.2,0,0,1,1.537-13.273,3.859,3.859,0,0,1,2.314-2.261,1.247,1.247,0,0,1,.893.1,1.6,1.6,0,0,1,.607,1.29c.247,2.605-.865,5.144-2.162,7.416s-1.966,4.149-3.189,6.73" transform="translate(-2840.863 -7687.895)" fill="#c3ecfe"/>
        <path id="Path_134815" data-name="Path 134815" d="M2868.307,7750.52a19.2,19.2,0,0,1-.1-13.361,3.858,3.858,0,0,1,2.019-2.526,1.252,1.252,0,0,1,.9-.013,1.6,1.6,0,0,1,.76,1.205c.563,2.556-.23,5.211-1.239,7.626s-1.444,4.358-2.342,7.069" transform="translate(-2850.728 -7714.575)" fill="#c3ecfe"/>
        <path id="Path_134816" data-name="Path 134816" d="M2889.064,7785.99a19.2,19.2,0,0,1-.1-13.362,3.856,3.856,0,0,1,2.02-2.526,1.251,1.251,0,0,1,.9-.013,1.6,1.6,0,0,1,.76,1.206c.563,2.556-.23,5.21-1.239,7.626s-1.444,4.357-2.342,7.069" transform="translate(-2865.552 -7739.906)" fill="#c3ecfe"/>
        <path id="Path_134817" data-name="Path 134817" d="M2920.444,7828.655a19.2,19.2,0,0,1-1.481-13.28,3.856,3.856,0,0,1,1.747-2.722,1.255,1.255,0,0,1,.893-.105,1.6,1.6,0,0,1,.881,1.12c.826,2.483.312,5.207-.442,7.714s-.985,4.483-1.6,7.273" transform="translate(-2887.388 -7770.254)" fill="#c3ecfe"/>
        <path id="Path_134818" data-name="Path 134818" d="M2946.56,7857.9a20.489,20.489,0,0,1-2.311-12.819,4.332,4.332,0,0,1,1.3-2.937,1.039,1.039,0,0,1,.765-.239c.419.075.679.531.85.968.907,2.315.672,5.067.214,7.643s-.506,4.554-.822,7.386" transform="translate(-2905.71 -7791.244)" fill="#c3ecfe"/>
        <path id="Path_134819" data-name="Path 134819" d="M2824.4,7741.111a20.8,20.8,0,0,1-12.813-5.636,4.271,4.271,0,0,1-1.664-2.982,1.228,1.228,0,0,1,.322-.851,1.594,1.594,0,0,1,1.436-.2c2.654.565,4.9,2.449,6.832,4.434s3.63,3.227,5.888,5.233" transform="translate(-2809.922 -7712.31)" fill="#c3ecfe"/>
        <path id="Path_134820" data-name="Path 134820" d="M2833.74,7779.2a20.8,20.8,0,0,1-13.788-2.415,4.265,4.265,0,0,1-2.328-2.5,1.226,1.226,0,0,1,.11-.9,1.6,1.6,0,0,1,1.347-.535c2.712-.084,5.341,1.21,7.692,2.675s4.294,2.267,6.967,3.677" transform="translate(-2815.396 -7741.928)" fill="#c3ecfe"/>
        <path id="Path_134821" data-name="Path 134821" d="M2853.952,7822.273a20.8,20.8,0,0,1-13.992.393,4.267,4.267,0,0,1-2.78-1.981,1.227,1.227,0,0,1-.073-.907,1.591,1.591,0,0,1,1.212-.793c2.64-.625,5.475.116,8.072,1.082s4.661,1.36,7.561,2.207" transform="translate(-2829.295 -7774.718)" fill="#c3ecfe"/>
        <path id="Path_134822" data-name="Path 134822" d="M2888.673,7857.563a20.791,20.791,0,0,1-13.73-2.72,4.272,4.272,0,0,1-2.272-2.55,1.223,1.223,0,0,1,.13-.9,1.589,1.589,0,0,1,1.358-.506c2.713-.024,5.312,1.328,7.631,2.846s4.244,2.36,6.883,3.829" transform="translate(-2854.714 -7797.667)" fill="#c3ecfe"/>
        <path id="Path_134823" data-name="Path 134823" d="M2914.5,7899.9a20.8,20.8,0,0,1-13.485,3.753,4.265,4.265,0,0,1-3.176-1.254,1.23,1.23,0,0,1-.29-.862c.06-.49.531-.828.986-1.062,2.412-1.242,5.342-1.206,8.095-.895s4.852.2,7.871.32" transform="translate(-2872.501 -7832.31)" fill="#c3ecfe"/>
      </g>
    </g>
    <path id="Path_134824" data-name="Path 134824" d="M2774.112,7932.35a23.012,23.012,0,0,0-17.78-6c-4.345.439-9.084,2.761-10.041,7.022-.455,2.03-.3,4.723-2.217,5.521-1.88.78-3.7-1.156-5.627-1.8-3.213-1.078-6.88,2.6-5.8,5.807.493,1.46,1.729,2.732,1.626,4.27-.14,2.094-2.728,3.186-4.8,2.86s-3.9-1.535-5.937-2.053-4.668,0-5.382,1.975c-.64,1.769.464,4.145-.925,5.413a3.793,3.793,0,0,1-2.258.731c-17.61,1.672-37,4.831-35.033,7.959.539.856,1.916.583,2.926.567,37.481-.587,71.528-1.146,109,0" transform="translate(-5.168 -395.26)" fill="#c3ecfe"/>
    <g id="Group_92228" data-name="Group 92228" transform="translate(2813.671 7450.572)">
      <path id="Path_134825" data-name="Path 134825" d="M3239.121,7741.641l11.111,43.57-2.113.539-13.748-42.9" transform="translate(-3214.899 -7713.998)" fill="#98d8c9"/>
      <g id="Group_92223" data-name="Group 92223" transform="translate(0 3.494)">
        <path id="Path_134826" data-name="Path 134826" d="M3180.184,7682.3c-5.674,1.447-11.713-2.953-13.461-9.81s1.446-13.609,7.119-15.057,11.713,2.953,13.461,9.81S3185.858,7680.849,3180.184,7682.3Zm-5.369-21.054c-3.572.91-5.492,5.52-4.279,10.273s5.1,7.879,8.676,6.969,5.492-5.52,4.28-10.273S3178.386,7660.331,3174.815,7661.242Z" transform="translate(-3166.245 -7657.154)" fill="#98d8c9"/>
      </g>
      <g id="Group_92224" data-name="Group 92224" transform="translate(13.331 14.311)">
        <path id="Path_134827" data-name="Path 134827" d="M3220.224,7702.662c.185.723,3.378,13.248,3.378,13.248a1.245,1.245,0,0,1-.9,1.515h0a1.245,1.245,0,0,1-1.514-.9l-.381-1.5s-1.774-3.784-6.679-2.224c0,0,5.85-.73,6.049-.717S3220.04,7701.939,3220.224,7702.662Z" transform="translate(-3213.773 -7700.446)" fill="#98d8c9"/>
        <path id="Path_134828" data-name="Path 134828" d="M3222.3,7713.884a3.214,3.214,0,0,1-3.906-2.318,5.178,5.178,0,0,0-.608-1.618c-.635-.9-1.932-1.241-4.3-.637l-.6-3.35c1.246-.4,2.142-1,3.145-.929.537-.066.983-.12,1.357-.164,0-1.025-.024-2.378-.04-3.415-.016-1.1,1.415-2.341,1.411-3.133-.005-1.421-1.462-2.855.3-3.091l1.733-.23,3.828,14.979A3.215,3.215,0,0,1,3222.3,7713.884Z" transform="translate(-3212.884 -7694.999)" fill="#98d8c9"/>
      </g>
      <g id="Group_92227" data-name="Group 92227" transform="translate(25.437)">
        <path id="Path_134829" data-name="Path 134829" d="M3256.712,7740.249l.033,44.966,2.181,0,2.688-44.967" transform="translate(-3256.291 -7713.002)" fill="#98d8c9"/>
        <g id="Group_92225" data-name="Group 92225">
          <path id="Path_134830" data-name="Path 134830" d="M3255.239,7657.767c-.005-7.075,4.755-12.835,10.61-12.839s10.624,5.748,10.629,12.823-4.755,12.835-10.61,12.839S3255.244,7664.842,3255.239,7657.767Zm3.934,0c0,4.905,3.006,8.895,6.692,8.892s6.682-4,6.678-8.9-3.006-8.895-6.692-8.892S3259.17,7652.858,3259.173,7657.764Z" transform="translate(-3255.239 -7644.928)" fill="#98d8c9"/>
        </g>
        <g id="Group_92226" data-name="Group 92226" transform="translate(0.008 13.37)">
          <path id="Path_134831" data-name="Path 134831" d="M3262.127,7698.636c0,.746.01,13.672.01,13.672a1.244,1.244,0,0,0,1.246,1.244h0a1.244,1.244,0,0,0,1.244-1.246v-1.544s.781-4.106,5.919-3.81c0,0-5.849.741-6.038.8S3262.126,7697.89,3262.127,7698.636Z" transform="translate(-3260.167 -7696.626)" fill="#98d8c9"/>
          <path id="Path_134832" data-name="Path 134832" d="M3258.486,7710.6a3.215,3.215,0,0,0,3.209-3.215,5.176,5.176,0,0,1,.188-1.719c.392-1.031,1.564-1.68,4.01-1.683l-.248-3.393c-1.306-.078-2.324-.438-3.278-.122-.536.07-.982.128-1.355.179-.25-1-.566-2.311-.808-3.319-.258-1.072-1.951-1.918-2.143-2.686-.347-1.377.708-3.127-1.057-2.92l-1.737.207,0,15.46A3.216,3.216,0,0,0,3258.486,7710.6Z" transform="translate(-3255.268 -7691.704)" fill="#98d8c9"/>
        </g>
      </g>
    </g>
    <g id="Group_92233" data-name="Group 92233" transform="translate(2852.803 7464.45)">
      <g id="Group_92229" data-name="Group 92229" transform="translate(0 0)">
        <path id="Rectangle_31828" data-name="Rectangle 31828" d="M1.169,0H4.577A1.169,1.169,0,0,1,5.747,1.169V50.157a0,0,0,0,1,0,0H0a0,0,0,0,1,0,0V1.169A1.169,1.169,0,0,1,1.169,0Z" transform="translate(8.914 0) rotate(10.237)" fill="#98d8c9"/>
      </g>
      <g id="Group_92230" data-name="Group 92230" transform="translate(7.94 0)">
        <path id="Rectangle_31829" data-name="Rectangle 31829" d="M1.169,0H4.577A1.169,1.169,0,0,1,5.747,1.169V5.483a0,0,0,0,1,0,0H0a0,0,0,0,1,0,0V1.169A1.169,1.169,0,0,1,1.169,0Z" transform="matrix(0.984, 0.178, -0.178, 0.984, 0.974, 0)" fill="#98d8c9"/>
      </g>
      <g id="Group_92232" data-name="Group 92232" transform="translate(7.636 5.4)" opacity="0.5">
        <g id="Group_92231" data-name="Group 92231" transform="translate(0)">
          <rect id="Rectangle_31830" data-name="Rectangle 31830" width="1.721" height="5.747" transform="matrix(0.178, -0.984, 0.984, 0.178, 0, 1.693)" fill="#98d8c9"/>
        </g>
      </g>
    </g>
    <g id="Group_92235" data-name="Group 92235" transform="translate(2853.658 7472.415)">
      <rect id="Rectangle_31831" data-name="Rectangle 31831" width="9.92" height="53.668" transform="translate(19.68 0) rotate(21.511)" fill="#98d8c9"/>
      <g id="Group_92234" data-name="Group 92234" transform="translate(6.827 4.062)">
        <line id="Line_142" data-name="Line 142" x2="3.042" y2="1.199" transform="translate(18.4)" fill="#98d8c9"/>
        <line id="Line_143" data-name="Line 143" x2="3.042" y2="1.199" transform="translate(17.378 2.593)" fill="#98d8c9"/>
        <line id="Line_144" data-name="Line 144" x2="3.042" y2="1.199" transform="translate(16.356 5.187)" fill="#98d8c9"/>
        <line id="Line_145" data-name="Line 145" x2="4.53" y2="1.785" transform="translate(13.845 7.194)" fill="#98d8c9"/>
        <line id="Line_146" data-name="Line 146" x2="3.042" y2="1.199" transform="translate(14.311 10.374)" fill="#98d8c9"/>
        <line id="Line_147" data-name="Line 147" x2="3.042" y2="1.199" transform="translate(13.289 12.967)" fill="#98d8c9"/>
        <line id="Line_148" data-name="Line 148" x2="3.042" y2="1.199" transform="translate(12.267 15.561)" fill="#98d8c9"/>
        <line id="Line_149" data-name="Line 149" x2="4.53" y2="1.785" transform="translate(9.756 17.568)" fill="#98d8c9"/>
        <line id="Line_150" data-name="Line 150" x2="3.042" y2="1.199" transform="translate(10.222 20.748)" fill="#98d8c9"/>
        <line id="Line_151" data-name="Line 151" x2="3.042" y2="1.199" transform="translate(9.2 23.341)" fill="#98d8c9"/>
        <line id="Line_152" data-name="Line 152" x2="3.042" y2="1.199" transform="translate(8.178 25.935)" fill="#98d8c9"/>
        <line id="Line_153" data-name="Line 153" x2="4.53" y2="1.785" transform="translate(5.668 27.942)" fill="#98d8c9"/>
        <line id="Line_154" data-name="Line 154" x2="3.042" y2="1.199" transform="translate(6.133 31.122)" fill="#98d8c9"/>
        <line id="Line_155" data-name="Line 155" x2="3.042" y2="1.199" transform="translate(5.111 33.715)" fill="#98d8c9"/>
        <line id="Line_156" data-name="Line 156" x2="3.042" y2="1.199" transform="translate(4.089 36.309)" fill="#98d8c9"/>
        <line id="Line_157" data-name="Line 157" x2="4.53" y2="1.785" transform="translate(1.579 38.316)" fill="#98d8c9"/>
        <line id="Line_158" data-name="Line 158" x2="3.042" y2="1.199" transform="translate(2.045 41.496)" fill="#98d8c9"/>
        <line id="Line_159" data-name="Line 159" x2="3.042" y2="1.199" transform="translate(1.022 44.089)" fill="#98d8c9"/>
        <line id="Line_160" data-name="Line 160" x2="3.042" y2="1.199" transform="translate(0 46.683)" fill="#98d8c9"/>
      </g>
    </g>
    <path id="Path_134833" data-name="Path 134833" d="M3227.713,7890.154h-46.019l-7.729-69.615a1.5,1.5,0,0,1,1.485-1.659h58.507a1.494,1.494,0,0,1,1.485,1.659Z" transform="translate(-358.081 -318.589)" fill="#98d8c9"/>
    <path id="Path_134834" data-name="Path 134834" d="M3060.985,7979.67l83.154,1.133c.93.013,3.862-.9-1.19-4.153-4.279-2.759-17.8-.276-17.8-.276s3.148-1.263,3.134-2.892a4.411,4.411,0,0,0-2.731-3.735,10.128,10.128,0,0,0-4.8-.633,30.6,30.6,0,0,0-9.662,2.162,2.8,2.8,0,1,0-3.249-4.549c2.077-2.813,5.289-15.281-4.582-20.775-12.372-6.888-21.767-1.22-23.772,2.926-1.017-4.069-5.685-7.15-8.76-7.914-7.012-1.74-11.58-1.225-18.126,1.833-2.315,1.081-5.417,4.775-6.956,6.815-2.411,3.2-2.787,7.445-2.919,11.446q-.149,4.5-.041,9.012" transform="translate(-264.296 -405.07)" fill="#98d8c9"/>
    <g id="Group_92282" data-name="Group 92282" transform="translate(2726.405 7397.535)">
      <path id="Path_134835" data-name="Path 134835" d="M2985.64,8087.863c0,1.437-27.917,2.6-62.355,2.6s-62.355-1.165-62.355-2.6,27.917-2.6,62.355-2.6S2985.64,8086.425,2985.64,8087.863Z" transform="translate(-2860.93 -7906.366)" fill="#a1d7e5" opacity="0.4"/>
      <path id="Path_134836" data-name="Path 134836" d="M3067.609,7459.37a6.257,6.257,0,0,0-6.257,6.258v8.02h12.515v-8.02A6.258,6.258,0,0,0,3067.609,7459.37Zm0,9.849a3.511,3.511,0,1,1,3.511-3.511A3.51,3.51,0,0,1,3067.609,7469.219Z" transform="translate(-3004.067 -7459.37)" fill="#0a5936"/>
      <rect id="Rectangle_31832" data-name="Rectangle 31832" width="117.949" height="166.768" rx="9.742" transform="translate(3.381 14.699)" fill="#0a5936"/>
      <rect id="Rectangle_31833" data-name="Rectangle 31833" width="104.276" height="153.686" transform="translate(10.217 21.24)" fill="#17c878"/>
      <rect id="Rectangle_31834" data-name="Rectangle 31834" width="96.257" height="144.296" transform="translate(14.227 25.935)" fill="#fff"/>
      <path id="Path_134837" data-name="Path 134837" d="M3022.23,7509.461v6.268h-75.875v-6.268a4.318,4.318,0,0,1,.2-1.311,4.4,4.4,0,0,1,4.2-3.09h67.075A4.4,4.4,0,0,1,3022.23,7509.461Z" transform="translate(-2921.939 -7492.001)" fill="#0a5936"/>
      <g id="Group_92281" data-name="Group 92281" transform="translate(21.142 34.04)">
        <g id="Group_92244" data-name="Group 92244" transform="translate(19.333 6.789)">
          <g id="Group_92243" data-name="Group 92243" opacity="0.15">
            <g id="Group_92236" data-name="Group 92236">
              <path id="Path_134838" data-name="Path 134838" d="M3018.62,7603.109h-15.636a.446.446,0,0,1,0-.893h15.636a.446.446,0,0,1,0,.893Z" transform="translate(-3002.538 -7602.216)" fill="#0a5936"/>
            </g>
            <g id="Group_92237" data-name="Group 92237" transform="translate(50.724 4.984)">
              <path id="Path_134839" data-name="Path 134839" d="M3192.34,7620.547h-11.889a.446.446,0,1,1,0-.892h11.889a.446.446,0,1,1,0,.892Z" transform="translate(-3180.005 -7619.656)" fill="#0a5936"/>
            </g>
            <g id="Group_92238" data-name="Group 92238" transform="translate(0 4.984)">
              <path id="Path_134840" data-name="Path 134840" d="M3048.556,7620.547h-45.572a.446.446,0,1,1,0-.892h45.572a.446.446,0,1,1,0,.892Z" transform="translate(-3002.538 -7619.656)" fill="#0a5936"/>
            </g>
            <g id="Group_92239" data-name="Group 92239" transform="translate(0 9.97)">
              <path id="Path_134841" data-name="Path 134841" d="M3065.6,7637.989h-62.612a.446.446,0,1,1,0-.892H3065.6a.446.446,0,1,1,0,.892Z" transform="translate(-3002.538 -7637.098)" fill="#0a5936"/>
            </g>
            <g id="Group_92240" data-name="Group 92240" transform="translate(42.711 14.955)">
              <path id="Path_134842" data-name="Path 134842" d="M3172.317,7655.43h-19.9a.446.446,0,1,1,0-.892h19.9a.446.446,0,1,1,0,.892Z" transform="translate(-3151.97 -7654.538)" fill="#0a5936"/>
            </g>
            <g id="Group_92241" data-name="Group 92241" transform="translate(0 14.955)">
              <path id="Path_134843" data-name="Path 134843" d="M3040.741,7655.43h-37.757a.446.446,0,1,1,0-.892h37.757a.446.446,0,1,1,0,.892Z" transform="translate(-3002.538 -7654.538)" fill="#0a5936"/>
            </g>
            <g id="Group_92242" data-name="Group 92242" transform="translate(20.767)">
              <path id="Path_134844" data-name="Path 134844" d="M3117.486,7603.109H3075.64a.446.446,0,0,1,0-.893h41.846a.446.446,0,0,1,0,.893Z" transform="translate(-3075.194 -7602.216)" fill="#0a5936"/>
            </g>
          </g>
        </g>
        <g id="Group_92253" data-name="Group 92253" transform="translate(19.333 42.623)">
          <g id="Group_92252" data-name="Group 92252" opacity="0.15">
            <g id="Group_92245" data-name="Group 92245">
              <path id="Path_134845" data-name="Path 134845" d="M3018.62,7728.481h-15.636a.446.446,0,0,1,0-.893h15.636a.446.446,0,0,1,0,.893Z" transform="translate(-3002.538 -7727.588)" fill="#0a5936"/>
            </g>
            <g id="Group_92246" data-name="Group 92246" transform="translate(50.724 4.985)">
              <path id="Path_134846" data-name="Path 134846" d="M3192.34,7745.92h-11.889a.446.446,0,0,1,0-.893h11.889a.446.446,0,0,1,0,.893Z" transform="translate(-3180.005 -7745.028)" fill="#0a5936"/>
            </g>
            <g id="Group_92247" data-name="Group 92247" transform="translate(0 4.985)">
              <path id="Path_134847" data-name="Path 134847" d="M3048.556,7745.92h-45.572a.446.446,0,0,1,0-.893h45.572a.446.446,0,0,1,0,.893Z" transform="translate(-3002.538 -7745.028)" fill="#0a5936"/>
            </g>
            <g id="Group_92248" data-name="Group 92248" transform="translate(0 9.97)">
              <path id="Path_134848" data-name="Path 134848" d="M3065.6,7763.361h-62.612a.446.446,0,1,1,0-.892H3065.6a.446.446,0,1,1,0,.892Z" transform="translate(-3002.538 -7762.47)" fill="#0a5936"/>
            </g>
            <g id="Group_92249" data-name="Group 92249" transform="translate(42.711 14.955)">
              <path id="Path_134849" data-name="Path 134849" d="M3172.317,7780.8h-19.9a.446.446,0,1,1,0-.892h19.9a.446.446,0,1,1,0,.892Z" transform="translate(-3151.97 -7779.91)" fill="#0a5936"/>
            </g>
            <g id="Group_92250" data-name="Group 92250" transform="translate(0 14.955)">
              <path id="Path_134850" data-name="Path 134850" d="M3040.741,7780.8h-37.757a.446.446,0,1,1,0-.892h37.757a.446.446,0,1,1,0,.892Z" transform="translate(-3002.538 -7779.91)" fill="#0a5936"/>
            </g>
            <g id="Group_92251" data-name="Group 92251" transform="translate(20.767)">
              <path id="Path_134851" data-name="Path 134851" d="M3117.486,7728.481H3075.64a.446.446,0,0,1,0-.893h41.846a.446.446,0,0,1,0,.893Z" transform="translate(-3075.194 -7727.588)" fill="#0a5936"/>
            </g>
          </g>
        </g>
        <g id="Group_92262" data-name="Group 92262" transform="translate(19.333 77.204)">
          <g id="Group_92261" data-name="Group 92261" opacity="0.15">
            <g id="Group_92254" data-name="Group 92254">
              <path id="Path_134852" data-name="Path 134852" d="M3018.62,7849.467h-15.636a.446.446,0,0,1,0-.893h15.636a.446.446,0,0,1,0,.893Z" transform="translate(-3002.538 -7848.575)" fill="#0a5936"/>
            </g>
            <g id="Group_92255" data-name="Group 92255" transform="translate(50.724 4.985)">
              <path id="Path_134853" data-name="Path 134853" d="M3192.34,7866.907h-11.889a.446.446,0,1,1,0-.892h11.889a.446.446,0,1,1,0,.892Z" transform="translate(-3180.005 -7866.016)" fill="#0a5936"/>
            </g>
            <g id="Group_92256" data-name="Group 92256" transform="translate(0 4.985)">
              <path id="Path_134854" data-name="Path 134854" d="M3048.556,7866.907h-45.572a.446.446,0,1,1,0-.892h45.572a.446.446,0,1,1,0,.892Z" transform="translate(-3002.538 -7866.016)" fill="#0a5936"/>
            </g>
            <g id="Group_92257" data-name="Group 92257" transform="translate(0 9.97)">
              <path id="Path_134855" data-name="Path 134855" d="M3065.6,7884.348h-62.612a.446.446,0,1,1,0-.892H3065.6a.446.446,0,1,1,0,.892Z" transform="translate(-3002.538 -7883.456)" fill="#0a5936"/>
            </g>
            <g id="Group_92258" data-name="Group 92258" transform="translate(42.711 14.954)">
              <path id="Path_134856" data-name="Path 134856" d="M3172.317,7901.788h-19.9a.446.446,0,0,1,0-.893h19.9a.446.446,0,0,1,0,.893Z" transform="translate(-3151.97 -7900.896)" fill="#0a5936"/>
            </g>
            <g id="Group_92259" data-name="Group 92259" transform="translate(0 14.954)">
              <path id="Path_134857" data-name="Path 134857" d="M3040.741,7901.788h-37.757a.446.446,0,0,1,0-.893h37.757a.446.446,0,0,1,0,.893Z" transform="translate(-3002.538 -7900.896)" fill="#0a5936"/>
            </g>
            <g id="Group_92260" data-name="Group 92260" transform="translate(20.767)">
              <path id="Path_134858" data-name="Path 134858" d="M3117.486,7849.467H3075.64a.446.446,0,0,1,0-.893h41.846a.446.446,0,0,1,0,.893Z" transform="translate(-3075.194 -7848.575)" fill="#0a5936"/>
            </g>
          </g>
        </g>
        <g id="Group_92271" data-name="Group 92271" transform="translate(19.333 112.128)">
          <g id="Group_92270" data-name="Group 92270" opacity="0.15">
            <g id="Group_92263" data-name="Group 92263">
              <path id="Path_134859" data-name="Path 134859" d="M3018.62,7971.655h-15.636a.445.445,0,1,1,0-.891h15.636a.445.445,0,1,1,0,.891Z" transform="translate(-3002.538 -7970.765)" fill="#0a5936"/>
            </g>
            <g id="Group_92264" data-name="Group 92264" transform="translate(50.724 4.985)">
              <path id="Path_134860" data-name="Path 134860" d="M3192.34,7989.1h-11.889a.446.446,0,0,1,0-.893h11.889a.446.446,0,0,1,0,.893Z" transform="translate(-3180.005 -7988.205)" fill="#0a5936"/>
            </g>
            <g id="Group_92265" data-name="Group 92265" transform="translate(0 4.985)">
              <path id="Path_134861" data-name="Path 134861" d="M3048.556,7989.1h-45.572a.446.446,0,0,1,0-.893h45.572a.446.446,0,0,1,0,.893Z" transform="translate(-3002.538 -7988.205)" fill="#0a5936"/>
            </g>
            <g id="Group_92266" data-name="Group 92266" transform="translate(0 9.97)">
              <path id="Path_134862" data-name="Path 134862" d="M3065.6,8006.537h-62.612a.446.446,0,0,1,0-.893H3065.6a.446.446,0,1,1,0,.893Z" transform="translate(-3002.538 -8005.644)" fill="#0a5936"/>
            </g>
            <g id="Group_92267" data-name="Group 92267" transform="translate(42.711 14.954)">
              <path id="Path_134863" data-name="Path 134863" d="M3172.317,8023.978h-19.9a.446.446,0,0,1,0-.893h19.9a.446.446,0,0,1,0,.893Z" transform="translate(-3151.97 -8023.085)" fill="#0a5936"/>
            </g>
            <g id="Group_92268" data-name="Group 92268" transform="translate(0 14.954)">
              <path id="Path_134864" data-name="Path 134864" d="M3040.741,8023.978h-37.757a.446.446,0,0,1,0-.893h37.757a.446.446,0,0,1,0,.893Z" transform="translate(-3002.538 -8023.085)" fill="#0a5936"/>
            </g>
            <g id="Group_92269" data-name="Group 92269" transform="translate(20.767)">
              <path id="Path_134865" data-name="Path 134865" d="M3117.486,7971.655H3075.64a.445.445,0,1,1,0-.891h41.846a.445.445,0,1,1,0,.891Z" transform="translate(-3075.194 -7970.765)" fill="#0a5936"/>
            </g>
          </g>
        </g>
        <g id="Group_92280" data-name="Group 92280">
          <g id="Group_92272" data-name="Group 92272" transform="translate(0 5.565)">
            <path id="Path_134866" data-name="Path 134866" d="M2948.8,7612.6h-13.133a.767.767,0,0,1-.766-.767V7598.7a.767.767,0,0,1,.766-.767H2948.8a.767.767,0,0,1,.766.767v13.132A.767.767,0,0,1,2948.8,7612.6Zm-13.133-14.335a.436.436,0,0,0-.435.437v13.132a.436.436,0,0,0,.435.436H2948.8a.436.436,0,0,0,.436-.436V7598.7a.436.436,0,0,0-.436-.437Z" transform="translate(-2934.899 -7597.936)" fill="#0a5936"/>
          </g>
          <g id="Group_92273" data-name="Group 92273" transform="translate(0 41.283)">
            <path id="Path_134867" data-name="Path 134867" d="M2948.8,7737.565h-13.133a.767.767,0,0,1-.766-.767v-13.132a.767.767,0,0,1,.766-.767H2948.8a.767.767,0,0,1,.766.767V7736.8A.767.767,0,0,1,2948.8,7737.565Zm-13.133-14.334a.436.436,0,0,0-.435.436V7736.8a.437.437,0,0,0,.435.437H2948.8a.437.437,0,0,0,.436-.437v-13.132a.436.436,0,0,0-.436-.436Z" transform="translate(-2934.899 -7722.9)" fill="#0a5936"/>
          </g>
          <g id="Group_92274" data-name="Group 92274" transform="translate(0 77.001)">
            <path id="Path_134868" data-name="Path 134868" d="M2948.8,7862.53h-13.133a.766.766,0,0,1-.766-.766v-13.133a.766.766,0,0,1,.766-.766H2948.8a.766.766,0,0,1,.766.766v13.133A.766.766,0,0,1,2948.8,7862.53Zm-13.133-14.334a.436.436,0,0,0-.435.436v13.133a.437.437,0,0,0,.435.436H2948.8a.437.437,0,0,0,.436-.436v-13.133a.436.436,0,0,0-.436-.436Z" transform="translate(-2934.899 -7847.866)" fill="#0a5936"/>
          </g>
          <g id="Group_92275" data-name="Group 92275" transform="translate(0 112.719)">
            <path id="Path_134869" data-name="Path 134869" d="M2948.8,7987.5h-13.133a.767.767,0,0,1-.766-.766V7973.6a.767.767,0,0,1,.766-.767H2948.8a.767.767,0,0,1,.766.767v13.133A.767.767,0,0,1,2948.8,7987.5Zm-13.133-14.334a.436.436,0,0,0-.435.436v13.133a.435.435,0,0,0,.435.435H2948.8a.435.435,0,0,0,.436-.435V7973.6a.436.436,0,0,0-.436-.436Z" transform="translate(-2934.899 -7972.832)" fill="#0a5936"/>
          </g>
          <g id="Group_92277" data-name="Group 92277" transform="translate(1.434)">
            <g id="Group_92276" data-name="Group 92276">
              <path id="Path_134870" data-name="Path 134870" d="M2945.813,7595.859a.494.494,0,0,1-.382-.18l-5.4-6.524a.5.5,0,1,1,.764-.633l4.968,6,10.03-15.826a.5.5,0,1,1,.838.53l-10.4,16.4a.5.5,0,0,1-.388.229Z" transform="translate(-2939.914 -7578.464)" fill="url(#linear-gradient)"/>
            </g>
          </g>
          <g id="Group_92279" data-name="Group 92279" transform="translate(1.434 35.421)">
            <g id="Group_92278" data-name="Group 92278">
              <path id="Path_134871" data-name="Path 134871" d="M2945.813,7719.785a.494.494,0,0,1-.382-.18l-5.4-6.524a.5.5,0,0,1,.764-.633l4.968,6,10.03-15.826a.5.5,0,1,1,.838.531l-10.4,16.4a.5.5,0,0,1-.387.23Z" transform="translate(-2939.914 -7702.39)" fill="url(#linear-gradient)"/>
            </g>
          </g>
        </g>
      </g>
    </g>
    <g id="Group_92290" data-name="Group 92290" transform="translate(2686.95 7463.403)">
      <path id="Path_134872" data-name="Path 134872" d="M2791.786,7721.532a11.7,11.7,0,0,0,.513,2.266.949.949,0,0,1-.794.38" transform="translate(-2771.894 -7712.468)" fill="#ffb392"/>
      <path id="Path_134873" data-name="Path 134873" d="M2760.073,8090.161c0,.867-7.8,1.568-17.419,1.568s-17.419-.7-17.419-1.568,7.8-1.568,17.419-1.568S2760.073,8089.295,2760.073,8090.161Z" transform="translate(-2724.565 -7974.615)" fill="#a1d7e5" opacity="0.4"/>
      <g id="Group_92284" data-name="Group 92284" transform="translate(22.177 18.163)">
        <path id="Path_134874" data-name="Path 134874" d="M2804.351,7754,2800.5,7770.9a.809.809,0,0,0,.674.981l11.982,1.721a.81.81,0,0,0,.9-.622l3.849-16.908a.809.809,0,0,0-.674-.981l-11.982-1.72A.808.808,0,0,0,2804.351,7754Z" transform="translate(-2800.481 -7753.367)" fill="#17c878"/>
        <path id="Path_134875" data-name="Path 134875" d="M2807.434,7757.479l-3.686,16.189,11.9,1.709,3.686-16.19Z" transform="translate(-2802.814 -7756.303)" fill="#e5f8ff"/>
        <g id="Group_92283" data-name="Group 92283" transform="translate(3.491 2.624)">
          <path id="Line_161" data-name="Line 161" d="M10.111,1.739l-.041,0L-.041.284A.287.287,0,0,1-.284-.041.287.287,0,0,1,.041-.284l10.11,1.452a.287.287,0,0,1-.04.571Z" transform="translate(1.656)" fill="#a1d2f0"/>
          <path id="Line_162" data-name="Line 162" d="M10.111,1.739l-.041,0L-.041.284A.287.287,0,0,1-.284-.041.287.287,0,0,1,.041-.284l10.11,1.452a.287.287,0,0,1-.04.571Z" transform="translate(1.315 1.53)" fill="#a1d2f0"/>
          <path id="Line_163" data-name="Line 163" d="M6.318,1.194l-.041,0L-.041.284A.287.287,0,0,1-.284-.041.287.287,0,0,1,.041-.284L6.359.623a.287.287,0,0,1-.04.571Z" transform="translate(0.898 3.343)" fill="#a1d2f0"/>
          <path id="Line_164" data-name="Line 164" d="M6.319,1.194l-.041,0L-.041.284A.287.287,0,0,1-.284-.041.287.287,0,0,1,.041-.284L6.359.623a.287.287,0,0,1-.04.571Z" transform="translate(0.449 4.658)" fill="#a1d2f0"/>
          <path id="Line_165" data-name="Line 165" d="M6.319,1.194l-.041,0L-.041.284A.287.287,0,0,1-.284-.041.287.287,0,0,1,.041-.284L6.359.623a.287.287,0,0,1-.04.571Z" transform="translate(0 5.974)" fill="#a1d2f0"/>
          <path id="Line_166" data-name="Line 166" d="M6.318,1.194l-.041,0L-.041.284A.287.287,0,0,1-.284-.041.287.287,0,0,1,.041-.284L6.359.623a.287.287,0,0,1-.04.571Z" transform="translate(2.317 13.242)" fill="#a1d2f0"/>
        </g>
      </g>
      <path id="Path_134876" data-name="Path 134876" d="M2791.976,7796.4a5.234,5.234,0,0,0,1.666-1.485l1.428-1.7a1.421,1.421,0,0,0,.406-.76c-.8-.064-1.312.972-2.11,1.033a16.731,16.731,0,0,1,1.585-3.767,1.156,1.156,0,0,0,.229-.938,6.089,6.089,0,0,0-2.217,1.62,11.788,11.788,0,0,0-1.2,1.528,16.47,16.47,0,0,0-2.15,5.282" transform="translate(-2770.54 -7760.5)" fill="url(#linear-gradient)"/>
      <g id="Group_92285" data-name="Group 92285" transform="translate(6.586 42.306)">
        <path id="Path_134877" data-name="Path 134877" d="M2757.45,7845.053l-8.556-7.219s-3.982,5.4-2.482,10.61a47.807,47.807,0,0,0,2.066,5.047c.375,1.136,2.951,17.211,2.758,18.387s-1.575,4.464-2.1,7.922c-.635,4.159-.527,17.711-1.02,21.3s2.826,4.2,3.009,2.985c1.559-10.39,5.678-26.581,6.255-31.775S2757.721,7857.608,2757.45,7845.053Z" transform="translate(-2746.034 -7837.834)" fill="#ffbe9d"/>
        <path id="Path_134878" data-name="Path 134878" d="M2776.662,7898.884l-3.72,8.537a19.121,19.121,0,0,1,2.6,8.949c.063,1.646-.083,3.3-.037,4.945a1.646,1.646,0,0,0,.05.358c.5-2.442.87-4.456,1.016-5.767a156.944,156.944,0,0,0,.28-17.033A1.669,1.669,0,0,0,2776.662,7898.884Z" transform="translate(-2765.222 -7881.427)" fill="url(#linear-gradient)"/>
        <path id="Path_134879" data-name="Path 134879" d="M2752.528,8055.994s-.8,3.77-.582,4.25a6.6,6.6,0,0,0,1.774,2.382c.828.53,2.663,1.16,2.809,1.389a.571.571,0,0,1-.105.771,3.8,3.8,0,0,1-2.615.663c-2.487-.411-2.744-1.511-4.194-1.687-.25-.03-.713.34-1.405-.015a1.644,1.644,0,0,1-.969-1.6,7.109,7.109,0,0,1,1.1-2.662,21.7,21.7,0,0,0,.708-4.282" transform="translate(-2746.863 -7993.077)" fill="#ffbe9d"/>
        <path id="Path_134880" data-name="Path 134880" d="M2755.689,8077.19c.182-.31.228-.779.059-.895a14.6,14.6,0,0,0-1.549-.932c-.482-.222-1.247-.417-.978-.271s-.227.689-.678.662c-1.559-.1-2.708-1.132-3.6-1.354a3.053,3.053,0,0,1-1.875-2.079,5.976,5.976,0,0,0-.92,1.756,3.062,3.062,0,0,0-.19,1.34,3.107,3.107,0,0,1,.142,1.277,2.463,2.463,0,0,0,.921.332,3.624,3.624,0,0,0,.992.015l.11-.8a3.64,3.64,0,0,1,.793.078,4.241,4.241,0,0,1,1.211.565c.178.211.32.6.556.718a4.955,4.955,0,0,0,2.045.51C2754.4,8078.206,2755.379,8077.72,2755.689,8077.19Z" transform="translate(-2745.934 -8005.3)" fill="#0a5936"/>
      </g>
      <g id="Group_92286" data-name="Group 92286" transform="translate(9.512 41.471)">
        <path id="Path_134881" data-name="Path 134881" d="M2776.344,7907.481c-.184-.2-2.166-.525-3.1-.913a5.352,5.352,0,0,1-2.167-2.065,22.27,22.27,0,0,1-.134-4.136c.186-7.4,1.552-25.478,1.75-29.808.344-7.524-.633-15.292-3.528-27.372l-10.781-8.274s-3.019,5.613-2.008,10.979c.586,3.114,3.169,3.593,3.606,4.8s6.959,20.722,6.959,20.722a36.71,36.71,0,0,0-1.343,8.839c-.063,3.945,1.726,15.845,2.058,20.378a14.914,14.914,0,0,1-.069,3.682c-.321.827-1.135,1.8-1.094,2.842a1.605,1.605,0,0,0,1.225,1.42c.764.236,1.19-.2,1.452-.216,1.52-.062,1.941.982,4.565.981a4.15,4.15,0,0,0,2.605-1.083A.555.555,0,0,0,2776.344,7907.481Z" transform="translate(-2756.172 -7834.913)" fill="#ffbe9d"/>
        <path id="Path_134882" data-name="Path 134882" d="M2801.629,8083.542c.143-.337.125-.809-.066-.895a14.967,14.967,0,0,0-1.729-.668c-.529-.141-1.346-.209-1.048-.109s-.136.72-.606.766c-1.622.16-2.955-.676-3.9-.75a2.49,2.49,0,0,1-1.962-1.749,6.28,6.28,0,0,0-.967,1.886,2.958,2.958,0,0,0-.007,1.356,2.964,2.964,0,0,1,.327,1.24,2.587,2.587,0,0,0,1,.178,4,4,0,0,0,1.026-.148v-.813a3.99,3.99,0,0,1,.829-.053,2.756,2.756,0,0,1,1.337.473c.223.168.458.45.72.517a5.506,5.506,0,0,0,2.129.161C2800.447,8084.754,2801.384,8084.116,2801.629,8083.542Z" transform="translate(-2781.232 -8010.045)" fill="#0a5936"/>
      </g>
      <path id="Path_134883" data-name="Path 134883" d="M2748.314,7832.622c-.732.8-3.339,5.148-3.367,8.686a16.332,16.332,0,0,0,1.343,6.542c.668,1.934,1.91,3.662,1.91,4.016s1.944.6,6.069.339c7.62-.48,10.42-1.91,10.42-1.91a59.668,59.668,0,0,0-.533-10.048c-.371-3.266-3.152-8.438-3.152-8.438" transform="translate(-2738.643 -7791.225)" fill="#0a5936"/>
      <path id="Path_134884" data-name="Path 134884" d="M2732.4,7783.7s1.227,6.1,1.549,7.185,1.915,7.975,3.424,7.855,9.775-7.021,9.775-7.021l-1.17-2.342-7.276,3.469s-.657-7.877-1.234-9.753" transform="translate(-2729.685 -7756.434)" fill="#ffbe9d"/>
      <path id="Path_134885" data-name="Path 134885" d="M2742.246,7798.352c.77,2.723,2.348,5.592,2.82,7.7.095.424,5.133-1.408,5.144-3.3" transform="translate(-2736.714 -7767.331)" fill="url(#linear-gradient)"/>
      <path id="Path_134886" data-name="Path 134886" d="M2736.574,7755.646a8.946,8.946,0,0,0-3.636,1.192c-3.119,2.388-.705,11.052-.705,11.052s-.154.462,1.94.345a15.1,15.1,0,0,0,3.773-.714l-.605-7.1" transform="translate(-2728.927 -7736.831)" fill="url(#linear-gradient)"/>
      <path id="Path_134887" data-name="Path 134887" d="M2739.9,7772.808s-.265,5.093.657,7.663a8.345,8.345,0,0,0,1.709-.225Z" transform="translate(-2735.012 -7749.088)" fill="url(#linear-gradient)"/>
      <path id="Path_134888" data-name="Path 134888" d="M2762.94,7698.511c1.454,1.885,1.166,4.535.807,6.889l-.544,3.569a1.792,1.792,0,0,1-2.3,1.885q.009,1.477.018,2.954-2.527.06-5.055.02a4.874,4.874,0,0,0-.437-2c-.824-.016-1.375-.843-1.7-1.6a23.163,23.163,0,0,1-.9-2.7,14.927,14.927,0,0,1-.714-3.706,5.363,5.363,0,0,1,1.069-3.547,6.432,6.432,0,0,1,2.053-1.534,4.009,4.009,0,0,1,3.378-.5" transform="translate(-2743.762 -7695.68)" fill="#ffbe9d"/>
      <path id="Path_134889" data-name="Path 134889" d="M2754.286,7701.629a3.075,3.075,0,0,1,.139-2.207,1.446,1.446,0,0,1,.443-.561.937.937,0,0,1,.9-.094,1,1,0,0,1,.452.423,12.917,12.917,0,0,0,.317-4.129,5.368,5.368,0,0,0-3.405-4.674c-3.569-1.467-8.7-.018-10.145,3.485a8.667,8.667,0,0,0,1.556,8.683c1.855,1.964,4.524,2.252,6.987,1.847,1.26-.207,3.205-.082,3.857-1.8a.191.191,0,0,0-.2-.254C2754.678,7702.392,2754.323,7701.813,2754.286,7701.629Z" transform="translate(-2736.852 -7689.82)" fill="#0a5936"/>
      <path id="Path_134890" data-name="Path 134890" d="M2775.842,7698.747c.133.209.1.488.226.7a1.639,1.639,0,0,0,.863.66c.606.281.464,1.162.447,1.557.457-.3.531-1.131.641-1.551.124-.472.2-.956.341-1.424a7.189,7.189,0,0,0,.408-1.362,5.6,5.6,0,0,0-2.145-4.528,2.981,2.981,0,0,0-3.339.039,2.606,2.606,0,0,0-.953,1.212.8.8,0,0,0-.037.651" transform="translate(-2758.134 -7691.596)" fill="#0a5936"/>
      <path id="Path_134891" data-name="Path 134891" d="M2756.475,7751.185c.086-.576.242-1.249.779-1.477a1.66,1.66,0,0,1,.474-.1,39.381,39.381,0,0,1,4.952-.233,4.6,4.6,0,0,1,2,.352,4.933,4.933,0,0,1,1.951,2.481" transform="translate(-2746.876 -7732.349)" fill="url(#linear-gradient)"/>
      <path id="Path_134892" data-name="Path 134892" d="M2758.614,7774.754a13.873,13.873,0,0,1-.951-1.12,17.578,17.578,0,0,1-.7-5.644c.168-1.035,1.084-1.592,1.5-3.9a8.521,8.521,0,0,0-1.365-6.263c-.962-1.4-.391-1.389-.72-3.1a1.625,1.625,0,0,0-.34-.852,8.185,8.185,0,0,0-1.923-.911c-2.673-.415-4.244-.091-6.946.027a23.247,23.247,0,0,0-3.984.5c-1.453.32-2.718.706-3.017,2.678a19.855,19.855,0,0,0,.853,9.021c.615,1.917,4.282,8.547,3.374,9.829a4.385,4.385,0,0,0-.791,1.217c-.23,1.34,2.8,1.811,4.094,1.918a50.823,50.823,0,0,0,6.219-.039c1.5-.07,4.778-.594,5.011-2.446A1.339,1.339,0,0,0,2758.614,7774.754Z" transform="translate(-2735.092 -7734.772)" fill="url(#linear-gradient)"/>
      <path id="Path_134893" data-name="Path 134893" d="M2792.319,7785.563a5.319,5.319,0,0,1-.4,1.545,4.146,4.146,0,0,1-2.723.124,39.507,39.507,0,0,0-1.231-5.21S2792.319,7785.064,2792.319,7785.563Z" transform="translate(-2769.367 -7755.668)" fill="url(#linear-gradient)"/>
      <g id="Group_92289" data-name="Group 92289" transform="translate(21.038 19.858)">
        <path id="Path_134894" data-name="Path 134894" d="M2796.5,7779.529s4.937,11.932,7.079,11.932c1.558,0,5.379-11.015,5.379-11.015l-2.414-1.143-2.692,4.612-2.726-8.6" transform="translate(-2796.496 -7770.735)" fill="#ffbe9d"/>
        <path id="Path_134895" data-name="Path 134895" d="M2829.96,7775.024a4.7,4.7,0,0,0,.742-2.155,9.131,9.131,0,0,1-.056-2.281,9.6,9.6,0,0,1,.807-1.566c.232-.2,1.089-.528,1.3-.383s.471-.522.818-.465a.738.738,0,0,1,.638.667c0,.319.464.377.522.609a3.226,3.226,0,0,0,.116.608c.087.174.343.088.435.521.084.4-.029.436,0,.639s.2.184.145.57a4.814,4.814,0,0,1-.555,1.322,3.81,3.81,0,0,1-1.346,1.363,2.568,2.568,0,0,0-.785,1.085" transform="translate(-2820.395 -7765.634)" fill="#ffbe9d"/>
        <path id="Path_134896" data-name="Path 134896" d="M2833.193,7759.468a.3.3,0,0,0-.426-.115.381.381,0,0,0-.095.474l1.46,3.3s.118.135.344-.062c.245-.217.167-.325.167-.325S2833.254,7759.563,2833.193,7759.468Z" transform="translate(-2822.301 -7759.298)" fill="#0a5936"/>
        <g id="Group_92288" data-name="Group 92288" transform="translate(11.09 3.185)">
          <g id="Group_92287" data-name="Group 92287">
            <path id="Path_134897" data-name="Path 134897" d="M2836.635,7770.489a3.386,3.386,0,0,1-.89.928c-.227.214-.2.352-.449.571.439-.033.364-.292.933-.7a1.206,1.206,0,0,0,.588-.721.1.1,0,0,0-.182-.076Z" transform="translate(-2835.296 -7770.442)" fill="url(#linear-gradient-11)"/>
          </g>
        </g>
      </g>
      <path id="Path_134898" data-name="Path 134898" d="M2780.609,7752.728c1.286.067,5.029-.589,7.109,1.586,1.743,1.823,2.741,6.6,3.442,8.539-1.745,1.78-3.427,3.216-6.072,2.638-.1-.074-1.412-4.2-2.368-4.572" transform="translate(-2764.112 -7734.717)" fill="url(#linear-gradient)"/>
      <path id="Path_134899" data-name="Path 134899" d="M2768.052,7873.7s.849,20.413.694,21.9-1.811,29.672-1.811,29.672a15.366,15.366,0,0,1-5.437,0s-2.628-21.948,0-28.787l-1.168-6.553s.174,4.874,0,5.866-5.429,28.778-5.429,28.778-3.477-.092-5.065-1.484c0,0-.5-19.3,3.126-27.426l-3.315-21.241,1.909-5.406Z" transform="translate(-2742 -7817.802)" fill="#0a5936"/>
      <path id="Path_134900" data-name="Path 134900" d="M2768.813,7897.241c-.485-3.139-3.481-14.274-3.609-14.542-1.637-1.27-3.134-2.388-3.679-3.446.895,2.686,2.618,2.824,3.263,4.214,1.593,3.43.376,2.674,4.095,14.168" transform="translate(-2750.484 -7825.108)" fill="#0a5936"/>
      <path id="Path_134901" data-name="Path 134901" d="M2726.6,7739.191c-.077,1.086.146,2.171.163,3.26a3.941,3.941,0,0,1-1.016,3,1.933,1.933,0,0,1-2.851-.16,4.3,4.3,0,0,0,3.122,2.247,6.605,6.605,0,0,0,3.885-.6,9.091,9.091,0,0,0,5.258-8.389c-.082-2.915-2.294-5.731-5.386-4.2A5.954,5.954,0,0,0,2726.6,7739.191Z" transform="translate(-2722.892 -7721.315)" fill="#0a5936"/>
    </g>
  </g>
</svg>
