<svg xmlns="http://www.w3.org/2000/svg" width="80" height="80" viewBox="0 0 80 80">
  <g id="t1-i4" transform="translate(0)">
    <g id="Group_91651" data-name="Group 91651" transform="translate(1.563 1.562)">
      <path id="Path_105556" data-name="Path 105556" d="M19.379,446.687a4.688,4.688,0,1,0-4.688,4.688A4.688,4.688,0,0,0,19.379,446.687Zm0,0" transform="translate(-10.004 -374.5)" fill="#fb9e36" fill-rule="evenodd"/>
      <path id="Path_105557" data-name="Path 105557" d="M40,442a4.687,4.687,0,1,1,0,9.375H62.5a4.688,4.688,0,1,1,0-9.375Zm0,0" transform="translate(-35.316 -374.5)" fill="#d2f6e6" fill-rule="evenodd"/>
      <path id="Path_105558" data-name="Path 105558" d="M163.375,446.687A4.688,4.688,0,1,1,158.688,442,4.688,4.688,0,0,1,163.375,446.687Zm0,0" transform="translate(-131.501 -374.5)" fill="#fb9e36" fill-rule="evenodd"/>
      <path id="Path_105559" data-name="Path 105559" d="M184,442a4.688,4.688,0,1,1,0,9.375h22.5a4.687,4.687,0,1,1,0-9.375Zm0,0" transform="translate(-156.813 -374.5)" fill="#d2f6e6" fill-rule="evenodd"/>
      <path id="Path_105560" data-name="Path 105560" d="M307.375,446.687A4.688,4.688,0,1,1,302.688,442,4.688,4.688,0,0,1,307.375,446.687Zm0,0" transform="translate(-253.001 -374.5)" fill="#fb9e36" fill-rule="evenodd"/>
      <path id="Path_105561" data-name="Path 105561" d="M328,442a4.688,4.688,0,0,1,0,9.375h22.5a4.688,4.688,0,0,1,0-9.375Zm0,0" transform="translate(-278.313 -374.5)" fill="#d2f6e6" fill-rule="evenodd"/>
      <path id="Path_105562" data-name="Path 105562" d="M446.687,442a4.688,4.688,0,1,0,4.688,4.687A4.688,4.688,0,0,0,446.687,442Zm0,0" transform="translate(-374.501 -374.5)" fill="#fb9e36" fill-rule="evenodd"/>
      <path id="Path_105563" data-name="Path 105563" d="M85.628,334.5H95a7.8,7.8,0,0,1,3.124,6.25H107.5v-9.375A9.4,9.4,0,0,0,98.128,322H49.379A9.4,9.4,0,0,0,40,331.375v9.375h9.375A7.8,7.8,0,0,1,52.5,334.5h9.376A7.8,7.8,0,0,1,65,340.75H82.5a7.8,7.8,0,0,1,3.125-6.25Zm0,0" transform="translate(-35.316 -273.25)" fill="#f1d54e" fill-rule="evenodd"/>
      <path id="Path_105564" data-name="Path 105564" d="M118.5,237.625H144l-3.125-12.344A4.287,4.287,0,0,0,137.006,222H109.375A9.4,9.4,0,0,0,100,231.375v6.25Zm0,0" transform="translate(-85.938 -188.875)" fill="#d2f6e6" fill-rule="evenodd"/>
      <path id="Path_105565" data-name="Path 105565" d="M70.324,83.722A3.9,3.9,0,1,0,72,82.731a3.906,3.906,0,0,0-1.677.991Zm0,0" transform="translate(-59.933 -71.238)" fill="#f1d54e" fill-rule="evenodd"/>
      <path id="Path_105566" data-name="Path 105566" d="M95.343,107.357a3.884,3.884,0,0,1-1.818,1.028l-1.241.333,5.268,5.268a3.125,3.125,0,1,0,4.42-4.42l-5.524-5.524a3.9,3.9,0,0,1-1.1,3.314Zm0,0" transform="translate(-79.428 -89.349)" fill="#fb9e36" fill-rule="evenodd"/>
      <path id="Path_105567" data-name="Path 105567" d="M316.836,91.75v7.813a3.125,3.125,0,1,0,6.25,0V91.751a3.907,3.907,0,0,1-6.25,0Zm0,0" transform="translate(-268.893 -78.977)" fill="#fb9e36" fill-rule="evenodd"/>
      <path id="Path_105568" data-name="Path 105568" d="M312.617,58a3.906,3.906,0,0,0,7.031-2.344v-.019a3.906,3.906,0,0,0-7.812,0v.019A3.889,3.889,0,0,0,312.617,58Zm0,0" transform="translate(-264.675 -45.227)" fill="#f1d54e" fill-rule="evenodd"/>
      <path id="Path_105569" data-name="Path 105569" d="M10,94.877,22.86,91.432l-.256-.256a3.907,3.907,0,0,1-.532-7.621L10,86.789Zm0,0" transform="translate(-10.004 -72.062)" fill="#fb9e36" fill-rule="evenodd"/>
      <path id="Path_105570" data-name="Path 105570" d="M311.836,10V20.411a3.906,3.906,0,0,1,7.813,0V10Zm0,0" transform="translate(-264.675 -10)" fill="#fb9e36" fill-rule="evenodd"/>
    </g>
    <path id="Path_105571" data-name="Path 105571" d="M75.316,246.573v-8.011a10.949,10.949,0,0,0-10.937-10.937H60.842l-2.827-11.165A5.841,5.841,0,0,0,52.634,212H39.066a1.562,1.562,0,0,0-1.562,1.563v14.063H17.191v-4.687A7.821,7.821,0,0,1,25,215.125,1.563,1.563,0,0,0,25,212a10.95,10.95,0,0,0-10.938,10.938v4.8a10.955,10.955,0,0,0-9.375,10.826v8.011a6.25,6.25,0,0,0,1.563,12.3H55.472a1.562,1.562,0,0,0,.978-2.781,6.232,6.232,0,0,0,.214-6.594H68.344a6.23,6.23,0,0,0,.213,6.594,1.561,1.561,0,0,0,.977,2.781h4.219a6.25,6.25,0,0,0,1.563-12.3ZM40.628,215.125H52.634a2.763,2.763,0,0,1,2.352,2.1l2.632,10.4H40.628Zm-25,15.625h48.75a7.821,7.821,0,0,1,7.813,7.812v7.813h-6.38a9.293,9.293,0,0,0-3.618-5.937,1.564,1.564,0,0,0-.939-.313H51.878a1.564,1.564,0,0,0-.939.313,9.293,9.293,0,0,0-3.618,5.937H32.686a9.291,9.291,0,0,0-3.619-5.937,1.562,1.562,0,0,0-.938-.313H18.753a1.562,1.562,0,0,0-.938.313,9.294,9.294,0,0,0-3.619,5.937H7.816v-7.813a7.821,7.821,0,0,1,7.813-7.812Zm35.624,15.624h-.741a6.185,6.185,0,0,1,1.919-3.125H60.7a6.184,6.184,0,0,1,1.918,3.125H51.253Zm-22.494,0H17.387a6.185,6.185,0,0,1,1.919-3.125h8.27a6.184,6.184,0,0,1,1.918,3.125ZM23.344,249.5a6.229,6.229,0,0,0,0,6.249H11.663a6.225,6.225,0,0,0,0-6.249Zm2.285,3.124a3.128,3.128,0,0,1,3.122-3.124h.006a3.125,3.125,0,1,1-3.128,3.124Zm8.534-3.124H45.844a6.229,6.229,0,0,0,0,6.249H34.163a6.229,6.229,0,0,0,0-6.249ZM3.129,252.625a3.125,3.125,0,1,1,3.125,3.125A3.128,3.128,0,0,1,3.129,252.625Zm51.249,0a3.125,3.125,0,1,1-3.127-3.124h.005a3.128,3.128,0,0,1,3.122,3.124Zm19.375,3.125a3.125,3.125,0,1,1,3.125-3.124A3.129,3.129,0,0,1,73.753,255.75Zm0,0" transform="translate(-0.003 -178.875)"/>
    <path id="Path_105572" data-name="Path 105572" d="M302.617,22.148a4.694,4.694,0,0,0,3.125,4.418v1.871a1.563,1.563,0,0,0,3.125,0V26.567a4.7,4.7,0,0,0,3.125-4.418V14.805a5.432,5.432,0,0,0,.781-2.813V1.562a1.562,1.562,0,1,0-3.125,0v5.49a5.461,5.461,0,0,0-4.688,0V1.562a1.562,1.562,0,1,0-3.125,0v10.43a5.432,5.432,0,0,0,.781,2.813Zm4.688,1.563a1.564,1.564,0,0,1-1.563-1.563V17.232a5.448,5.448,0,0,0,3.125,0v4.916A1.565,1.565,0,0,1,307.3,23.711Zm0-14.063a2.346,2.346,0,0,1,2.344,2.342v0h0A2.344,2.344,0,1,1,307.3,9.648Zm0,0" transform="translate(-254.674)"/>
    <path id="Path_105573" data-name="Path 105573" d="M.054,86.036a1.56,1.56,0,0,0,1.913,1.1l11.985-3.212,4.63,4.63a4.7,4.7,0,0,0,5.334.915L25.239,90.8a1.563,1.563,0,0,0,2.209-2.21l-1.323-1.323a4.694,4.694,0,0,0-.914-5.334l-5.187-5.187a5.468,5.468,0,0,0-6.671-3.973l-.053.011L1.159,76.034a1.563,1.563,0,0,0,.4,3.073,1.582,1.582,0,0,0,.406-.054l7.369-1.974a5.491,5.491,0,0,0-.09.985,5.426,5.426,0,0,0,1.3,3.542L1.159,84.123a1.562,1.562,0,0,0-1.1,1.913Zm23.4-.791a1.562,1.562,0,0,1-2.664,1.1l-3.476-3.477a5.48,5.48,0,0,0,2.211-2.208L23,84.14A1.55,1.55,0,0,1,23.456,85.245Zm-6.4-7.181a2.342,2.342,0,1,1-.687-1.658,2.33,2.33,0,0,1,.687,1.658Zm0,0" transform="translate(0 -61.254)"/>
    <path id="Path_105574" data-name="Path 105574" d="M391.559,492h0a1.563,1.563,0,1,0,1.564,1.563A1.563,1.563,0,0,0,391.558,492Zm0,0" transform="translate(-329.059 -415.122)"/>
    <path id="Path_105575" data-name="Path 105575" d="M196.563,215.125a1.563,1.563,0,0,0,0-3.125h0a1.563,1.563,0,0,0,0,3.125Zm0,0" transform="translate(-164.531 -178.875)"/>
  </g>
</svg>
