<svg xmlns="http://www.w3.org/2000/svg" xmlns:xlink="http://www.w3.org/1999/xlink" width="189.198" height="188.999" viewBox="0 0 189.198 188.999">
  <defs>
    <linearGradient id="linear-gradient" x1="240.841" y1="1.223" x2="241.848" y2="1.223" gradientUnits="objectBoundingBox">
      <stop offset="0" stop-color="#febbba"/>
      <stop offset="1" stop-color="#ff928e"/>
    </linearGradient>
    <linearGradient id="linear-gradient-2" x1="280.766" y1="1.078" x2="281.78" y2="1.078" xlink:href="#linear-gradient"/>
    <linearGradient id="linear-gradient-3" y1="0.5" x2="1" y2="0.5" gradientUnits="objectBoundingBox">
      <stop offset="0.188" stop-color="#ffd234"/>
      <stop offset="0.986" stop-color="#ffb000"/>
    </linearGradient>
    <linearGradient id="linear-gradient-4" x1="46.455" y1="0.612" x2="47.449" y2="0.612" xlink:href="#linear-gradient"/>
    <linearGradient id="linear-gradient-5" x1="138.144" y1="1.817" x2="140.124" y2="4.501" xlink:href="#linear-gradient"/>
    <linearGradient id="linear-gradient-6" x1="334.55" y1="1.23" x2="336.552" y2="-0.55" xlink:href="#linear-gradient"/>
    <linearGradient id="linear-gradient-8" x1="37.022" y1="0.738" x2="38.024" y2="0.738" xlink:href="#linear-gradient"/>
    <linearGradient id="linear-gradient-9" x1="92.599" y1="0.772" x2="93.59" y2="0.772" xlink:href="#linear-gradient"/>
    <linearGradient id="linear-gradient-10" x1="-79.144" y1="-16.852" x2="-79.467" y2="-17.918" xlink:href="#linear-gradient"/>
    <linearGradient id="linear-gradient-11" x1="-258.748" y1="-83.498" x2="-259.695" y2="-88.111" xlink:href="#linear-gradient"/>
    <linearGradient id="linear-gradient-12" x1="110.409" y1="0.5" x2="111.409" y2="0.5" xlink:href="#linear-gradient"/>
    <linearGradient id="linear-gradient-13" x1="0" y1="0.5" x2="1" y2="0.5" xlink:href="#linear-gradient"/>
    <linearGradient id="linear-gradient-16" x1="0.367" y1="0.85" x2="0.601" y2="0.282" xlink:href="#linear-gradient"/>
    <linearGradient id="linear-gradient-18" x1="21.119" y1="4.287" x2="20.078" y2="5.038" xlink:href="#linear-gradient"/>
    <linearGradient id="linear-gradient-19" x1="86.116" y1="12.72" x2="81.839" y2="15.33" xlink:href="#linear-gradient"/>
    <linearGradient id="linear-gradient-20" x1="-1.05" y1="2.829" x2="0.734" y2="-0.03" xlink:href="#linear-gradient"/>
    <linearGradient id="linear-gradient-21" x1="0.47" y1="0.997" x2="0.639" y2="-1.153" xlink:href="#linear-gradient"/>
    <linearGradient id="linear-gradient-22" x1="0.751" y1="1.908" x2="0.44" y2="0.311" xlink:href="#linear-gradient"/>
    <linearGradient id="linear-gradient-23" x1="-86.741" y1="8.255" x2="-85.34" y2="9.008" xlink:href="#linear-gradient"/>
    <linearGradient id="linear-gradient-24" x1="-366.092" y1="26.132" x2="-360.223" y2="28.575" xlink:href="#linear-gradient"/>
    <linearGradient id="linear-gradient-25" x1="0.623" y1="0.5" x2="1.623" y2="0.5" xlink:href="#linear-gradient"/>
    <linearGradient id="linear-gradient-26" x1="-304.821" y1="1.164" x2="-305.083" y2="-0.58" xlink:href="#linear-gradient"/>
    <linearGradient id="linear-gradient-27" x1="-351.84" y1="1.13" x2="-352.124" y2="-0.791" xlink:href="#linear-gradient"/>
    <linearGradient id="linear-gradient-28" x1="-36.79" y1="0.161" x2="-37.383" y2="1.632" xlink:href="#linear-gradient-3"/>
    <linearGradient id="linear-gradient-29" x1="-86.171" y1="0.5" x2="-85.171" y2="0.5" xlink:href="#linear-gradient"/>
    <linearGradient id="linear-gradient-30" x1="-44.693" y1="0.5" x2="-43.693" y2="0.5" xlink:href="#linear-gradient"/>
    <linearGradient id="linear-gradient-31" x1="-170.666" y1="1.029" x2="-169.377" y2="0.222" xlink:href="#linear-gradient"/>
    <linearGradient id="linear-gradient-32" x1="-137.544" y1="0.175" x2="-138.861" y2="1.493" xlink:href="#linear-gradient"/>
    <linearGradient id="linear-gradient-33" x1="-433.818" y1="2.763" x2="-430.556" y2="0.44" xlink:href="#linear-gradient"/>
    <linearGradient id="linear-gradient-34" x1="0.857" y1="-10.915" x2="0.637" y2="-3.932" gradientUnits="objectBoundingBox">
      <stop offset="0" stop-color="#09005d"/>
      <stop offset="1" stop-color="#1a0f91"/>
    </linearGradient>
    <linearGradient id="linear-gradient-35" x1="0.211" y1="32.996" x2="0.464" y2="4.261" xlink:href="#linear-gradient-3"/>
  </defs>
  <g id="t1-i22" transform="translate(-153.661 -6347.806)">
    <path id="Path_134605" data-name="Path 134605" d="M319.511,6509.768a67.814,67.814,0,0,1-10.377,8.737c-33.85,24.288-73.9,17.208-82.417,15.479-12.57-2.553-36.869-7.488-54.436-28.147-26.578-31.255-22.439-80.5-1.824-113,3.771-5.945,23.69-38.945,64.176-44.238,24.5-3.2,53.062,3.257,73.745,20.585C351.793,6405.556,348.7,6479.036,319.511,6509.768Z" fill="#f2fff9"/>
    <g id="Group_92147" data-name="Group 92147" transform="translate(156.68 6358.622)">
      <g id="Group_92141" data-name="Group 92141" transform="translate(0 1.231)">
        <g id="Group_92137" data-name="Group 92137">
          <path id="Path_134606" data-name="Path 134606" d="M171.572,6705.631a.537.537,0,0,1-.314-.483c0-.7.009-1.416.036-2.122a.519.519,0,0,1,.553-.5c.714.034.471.732.478,2.633a.519.519,0,0,1-.532.519A.541.541,0,0,1,171.572,6705.631Z" transform="translate(-171.257 -6653.716)" fill="#d2f6e6"/>
          <path id="Path_134607" data-name="Path 134607" d="M175.386,6460.761c.225-1.33.507-2.668.838-3.975a.525.525,0,0,1,.646-.373c.778.209.232.617-.432,4.538a.523.523,0,0,1-.614.422A.537.537,0,0,1,175.386,6460.761Zm2.861-10.248c.5-1.26,1.054-2.524,1.637-3.712a.536.536,0,0,1,.962.47c-.58,1.185-1.117,2.4-1.6,3.638a.536.536,0,0,1-1-.4Zm4.909-9.432c.744-1.123,1.543-2.23,2.375-3.292a.535.535,0,0,1,.849.651c-.816,1.041-1.6,2.125-2.327,3.226A.536.536,0,0,1,183.156,6441.081Zm6.787-7.47a.52.52,0,0,1,0-.743c.965-.945,1.981-1.865,3.02-2.732.534-.446,1.232.361.7.807-1.018.85-2.014,1.751-2.959,2.677A.539.539,0,0,1,189.943,6433.611Zm8.215-6.66a.517.517,0,0,1,.149-.727c1.144-.729,2.332-1.422,3.531-2.06a.532.532,0,0,1,.52.928c-1.174.625-2.338,1.3-3.459,2.018A.543.543,0,0,1,198.158,6426.951Zm9.719-4.566a.538.538,0,0,1-.276-.288.516.516,0,0,1,.3-.679c1.275-.483,2.584-.922,3.892-1.306a.545.545,0,0,1,.669.355.515.515,0,0,1-.349.653c-1.281.375-2.565.806-3.814,1.279A.539.539,0,0,1,207.877,6422.385Zm10.305-2.748a.539.539,0,0,1-.307-.392.516.516,0,0,1,.431-.6c1.35-.216,2.727-.383,4.092-.495a.542.542,0,0,1,.584.48.517.517,0,0,1-.478.567c-1.338.109-2.687.272-4.01.485A.541.541,0,0,1,218.182,6419.637Zm10.379-1.112a.52.52,0,0,1,.548-.5c1.37.061,2.758.177,4.125.344a.525.525,0,1,1-.113,1.043c-1.339-.164-2.7-.276-4.041-.336A.54.54,0,0,1,228.561,6418.524Zm33.336,13.8c-3.019-2.663-3.74-2.675-3.255-3.3a.537.537,0,0,1,.747-.094c1.1.828,2.18,1.71,3.213,2.621A.524.524,0,1,1,261.9,6432.32Zm-22.688-12.343a.524.524,0,0,1,.643-.378c1.334.335,2.673.727,3.981,1.164a.524.524,0,1,1-.327,1c-1.282-.428-2.594-.812-3.9-1.141A.535.535,0,0,1,239.209,6419.978Zm14.028,6.14c-3.489-2-4.2-1.872-3.862-2.591a.544.544,0,0,1,.709-.242c1.248.594,2.485,1.242,3.677,1.926a.524.524,0,1,1-.525.907Z" transform="translate(-174.671 -6418.022)" fill="#d2f6e6"/>
          <path id="Path_134608" data-name="Path 134608" d="M707.634,6526.082c-1.132-1.394-1.86-1.89-1.315-2.353a.54.54,0,0,1,.753.06c1.228,1.395,1.853,1.96,1.313,2.383A.607.607,0,0,1,707.634,6526.082Z" transform="translate(-614.366 -6505.489)" fill="#d2f6e6"/>
        </g>
        <g id="Group_92138" data-name="Group 92138" transform="translate(10.264 56.693)">
          <path id="Path_134609" data-name="Path 134609" d="M780.686,6751.552a.535.535,0,0,1-.31-.549c.086-.686.158-1.381.215-2.066a.52.52,0,0,1,.575-.471.539.539,0,0,1,.488.575c-.058.7-.132,1.409-.219,2.108a.522.522,0,0,1-.595.448A.56.56,0,0,1,780.686,6751.552Z" transform="translate(-686.131 -6748.463)" fill="#d2f6e6"/>
          <path id="Path_134610" data-name="Path 134610" d="M280.441,6833.851c-1.331-.658-2.651-1.379-3.922-2.143a.527.527,0,0,1-.187-.724c.424-.7.678,0,4.573,1.928a.528.528,0,0,1,.248.706A.544.544,0,0,1,280.441,6833.851Zm6.363,2.111c.258-.772.681-.139,4.87.911a.535.535,0,0,1,.4.64.525.525,0,0,1-.642.379c-1.433-.359-2.874-.784-4.282-1.261A.533.533,0,0,1,286.8,6835.962Zm-16.237-8.4c-1.155-.926-2.286-1.913-3.361-2.933a.521.521,0,0,1-.021-.744c.571-.585.662.149,4.048,2.866a.523.523,0,0,1,.085.74A.537.537,0,0,1,270.567,6827.561Zm27.822,11.572a.534.534,0,0,1-.312-.535.521.521,0,0,1,.582-.463c1.444.161,2.908.263,4.354.3a.54.54,0,0,1,.528.54.519.519,0,0,1-.539.511c-1.475-.042-2.971-.146-4.444-.31A.539.539,0,0,1,298.389,6839.133Zm11.537.023a.538.538,0,0,1-.311-.418.517.517,0,0,1,.462-.58c1.435-.154,2.881-.372,4.3-.646a.544.544,0,0,1,.633.415.516.516,0,0,1-.41.617c-1.446.279-2.922.5-4.387.659A.543.543,0,0,1,309.927,6839.156Zm11.22-2.472a.539.539,0,0,1-.283-.306.515.515,0,0,1,.321-.667c1.362-.461,2.72-.984,4.036-1.557a.544.544,0,0,1,.708.271.515.515,0,0,1-.263.692c-1.344.584-2.729,1.118-4.119,1.589A.541.541,0,0,1,321.147,6836.684Zm10.364-4.833a.545.545,0,0,1-.231-.2.516.516,0,0,1,.165-.723c1.222-.744,2.427-1.549,3.581-2.392a.541.541,0,0,1,.748.113.517.517,0,0,1-.1.734c-1.177.861-2.407,1.683-3.654,2.441A.541.541,0,0,1,331.511,6831.852Zm8.851-7.073c-.587-.587.157-.644,2.946-3.86a.535.535,0,0,1,.816.69c-.952,1.1-1.964,2.169-3.008,3.182A.539.539,0,0,1,340.362,6824.778Zm7.293-8.7c-.7-.447,0-.659,2-4.419a.536.536,0,0,1,.948.5c-.68,1.283-1.424,2.55-2.21,3.767A.534.534,0,0,1,347.656,6816.079Zm5.1-10.111a.53.53,0,0,1-.283-.66c.488-1.342.924-2.715,1.293-4.082a.525.525,0,0,1,.653-.362.535.535,0,0,1,.379.649c-.377,1.395-.821,2.8-1.32,4.165a.527.527,0,0,1-.682.307Z" transform="translate(-260.869 -6791.857)" fill="#d2f6e6"/>
          <path id="Path_134611" data-name="Path 134611" d="M232.494,6895.968c-1.164-1.45-1.761-2.042-1.2-2.439.583-.413.842.311,2.033,1.8a.518.518,0,0,1-.083.737A.542.542,0,0,1,232.494,6895.968Z" transform="translate(-231.08 -6868.545)" fill="#d2f6e6"/>
        </g>
        <g id="Group_92140" data-name="Group 92140" transform="translate(13.95 13.18)">
          <path id="Path_134612" data-name="Path 134612" d="M257.055,6552.949l7.64-.4a33.975,33.975,0,0,0,7.717,7.589c-.221,7.324-.756,7.822.006,8.138l8.523,3.525a.63.63,0,0,0,.71-.156l5.017-5.609a33.852,33.852,0,0,0,10.809.075l5.135,5.687a.644.644,0,0,0,.714.167l8.452-3.4a.607.607,0,0,0,.381-.608l-.541-7.536a32.264,32.264,0,0,0,7.57-7.473l7.645.513a.617.617,0,0,0,.616-.377l3.431-8.337a.621.621,0,0,0-.171-.7L324.927,6539a32.4,32.4,0,0,0-.112-10.649c5.447-4.963,6.16-4.917,5.84-5.662-3.676-8.166-3.387-8.818-4.224-8.774l-7.64.4a33.981,33.981,0,0,0-7.717-7.589c.221-7.32.756-7.821-.006-8.138-8.528-3.357-8.694-3.972-9.233-3.369l-5.017,5.609a33.867,33.867,0,0,0-10.809-.075c-5.07-5.387-5.087-6.16-5.849-5.853-8.3,3.514-8.892,3.2-8.833,4.009l.541,7.536a32.26,32.26,0,0,0-7.569,7.473c-7.308-.34-7.947-.9-8.26-.136-3.246,8.309-3.885,8.494-3.259,9.04l5.781,5.042a32.4,32.4,0,0,0,.112,10.65c-5.429,4.945-6.161,4.912-5.84,5.661C256.507,6552.34,256.218,6552.993,257.055,6552.949Z" transform="translate(-252.563 -6494.842)" fill="#98d8c9"/>
          <g id="Group_92139" data-name="Group 92139" transform="translate(30.221 29.762)">
            <path id="Path_134613" data-name="Path 134613" d="M428.792,6675.793a8.77,8.77,0,0,1,10.086-7.38,9.04,9.04,0,0,1,7.667,10.066,8.771,8.771,0,0,1-10.086,7.38h0A9.038,9.038,0,0,1,428.792,6675.793Zm7.775,9.287,0,0Zm2.094-15.108a7.2,7.2,0,0,0-8.283,6.061,7.422,7.422,0,0,0,6.3,8.268,7.2,7.2,0,0,0,8.283-6.062A7.423,7.423,0,0,0,438.661,6669.972Z" transform="translate(-428.709 -6668.31)" fill="#f2fff9"/>
          </g>
          <path id="Path_134614" data-name="Path 134614" d="M361.565,6630.669h0a23.725,23.725,0,0,1-3.454-1.956.791.791,0,0,1-.282-.98.752.752,0,0,1,.068-.118.8.8,0,0,1,1.112-.192,22.212,22.212,0,0,0,4.019,2.172h0a21.217,21.217,0,0,0,27.459-10.4q.179-.39.344-.788a21.458,21.458,0,0,0-39.646-16.4c-2.627,6.387-1.046,10.909-1.348,11.564a.807.807,0,0,1-1.521-.226,22.161,22.161,0,0,1,1.753-12.8c8.191-17.774,34.257-17.046,42.07,1.156a22.18,22.18,0,0,1,.176,17.32q-.178.432-.372.854a22.1,22.1,0,0,1-11.934,11.3,23.14,23.14,0,0,1-17.579-.128Q361.993,6630.866,361.565,6630.669Z" transform="translate(-331.654 -6571.702)" fill="#f2fff9"/>
        </g>
      </g>
      <g id="Group_92146" data-name="Group 92146" transform="translate(96.673 0)">
        <path id="Path_134615" data-name="Path 134615" d="M776.272,6477.908a18.609,18.609,0,0,0,4.594,3.91l.086,4.271c.009.475.415.291,5.123,1.9.436.14.388-.267,2.953-3.539a18.622,18.622,0,0,0,6.013-.489l3.083,2.962c.343.328.5-.088,4.967-2.279a.35.35,0,0,0,.188-.361l-.6-4.232a18.625,18.625,0,0,0,3.909-4.594c4.08-.167,4.455.114,4.6-.329,1.473-4.859,1.819-4.991,1.45-5.269l-3.416-2.564a18.615,18.615,0,0,0-.488-6.013l2.961-3.083c.328-.342-.088-.5-2.278-4.967-.208-.405-.445-.087-4.594.415a18.607,18.607,0,0,0-4.594-3.909l-.086-4.271c-.01-.475-.415-.291-5.123-1.9-.433-.14-.375.25-2.953,3.539a18.621,18.621,0,0,0-6.013.489l-3.083-2.961a.351.351,0,0,0-.4-.059L778,6446.91a.352.352,0,0,0-.188.362l.6,4.231a18.628,18.628,0,0,0-3.91,4.595c-4.079.167-4.455-.115-4.6.329-1.473,4.857-1.82,4.991-1.45,5.268l3.416,2.565a18.627,18.627,0,0,0,.488,6.013c-2.766,3-3.234,3.069-3.02,3.486l2.338,4.563C771.887,6478.73,772.143,6478.408,776.272,6477.908Z" transform="translate(-762.555 -6437.932)" fill="#98d8c9"/>
        <g id="Group_92145" data-name="Group 92145" transform="translate(0)">
          <g id="Group_92142" data-name="Group 92142" transform="translate(22.639 22.495)">
            <path id="Path_134616" data-name="Path 134616" d="M866.687,6546.965a5.35,5.35,0,1,1,4.993,5.685h0A5.356,5.356,0,0,1,866.687,6546.965Zm5.044,4.89,0,0Zm-3.453-4.787a3.761,3.761,0,0,0,3.5,3.991h0a3.755,3.755,0,1,0-3.5-3.991Z" transform="translate(-866.676 -6541.961)" fill="#d2f6e6"/>
          </g>
          <g id="Group_92143" data-name="Group 92143">
            <path id="Path_134617" data-name="Path 134617" d="M738.693,6606.519c-.206-.689-.387-1.395-.538-2.1a.532.532,0,0,1,.408-.631c.722-.156.619.651,1.149,2.426a.531.531,0,0,1-1.018.3Z" transform="translate(-737.556 -6570.67)" fill="#d2f6e6"/>
            <path id="Path_134618" data-name="Path 134618" d="M734.721,6437.517a28.4,28.4,0,0,1,.521-4.347.532.532,0,0,1,1.042.208c-.76,3.806-.167,4.73-1.056,4.692A.531.531,0,0,1,734.721,6437.517Zm3.034-10.371a.531.531,0,0,1-.246-.71,28.008,28.008,0,0,1,2.219-3.776.532.532,0,0,1,.872.609,26.941,26.941,0,0,0-2.135,3.632A.54.54,0,0,1,737.755,6427.146Zm6.868-8.86a.531.531,0,0,1-.123-.887,28.24,28.24,0,0,1,3.538-2.579.531.531,0,1,1,.558.9,27.234,27.234,0,0,0-3.4,2.481A.532.532,0,0,1,744.623,6418.285Zm9.819-5.4a.531.531,0,0,1,.067-.99,27.861,27.861,0,0,1,4.275-.95.532.532,0,0,1,.148,1.053,26.7,26.7,0,0,0-4.111.912A.529.529,0,0,1,754.442,6412.883Zm10.855-1.563a.532.532,0,0,1,.588-.469,28.147,28.147,0,0,1,4.3.83.532.532,0,0,1-.283,1.025,27.054,27.054,0,0,0-4.137-.8A.532.532,0,0,1,765.3,6411.319Z" transform="translate(-734.72 -6410.847)" fill="#d2f6e6"/>
            <path id="Path_134619" data-name="Path 134619" d="M977.035,6433.47c-1.606-1.106-2.313-1.221-1.953-1.841a.526.526,0,0,1,.726-.193c.62.359,1.235.749,1.83,1.159a.532.532,0,0,1-.6.875Z" transform="translate(-933.767 -6427.843)" fill="#d2f6e6"/>
          </g>
          <g id="Group_92144" data-name="Group 92144" transform="translate(10.853 21.708)">
            <path id="Path_134620" data-name="Path 134620" d="M1052.131,6540.067c-.248-1.941-.634-2.538.069-2.684a.531.531,0,0,1,.628.413c.146.7.266,1.42.358,2.137a.532.532,0,1,1-1.054.135Z" transform="translate(-1008.252 -6537.372)" fill="#d2f6e6"/>
            <path id="Path_134621" data-name="Path 134621" d="M844.324,6612.645c.277-.838.906.024,4.693.657a.532.532,0,0,1-.175,1.049,28.052,28.052,0,0,1-4.181-1.035A.531.531,0,0,1,844.324,6612.645Zm10.924,1.512a.532.532,0,0,1,.486-.573c3.859-.316,4.522-1.126,4.731-.265a.532.532,0,0,1-.392.642,27.954,27.954,0,0,1-4.252.683A.531.531,0,0,1,855.248,6614.156Zm10.637-2.895c-.415-.782.635-.633,3.72-2.936a.532.532,0,0,1,.636.852,28.218,28.218,0,0,1-3.637,2.3A.532.532,0,0,1,865.885,6611.262Zm8.645-6.846c-.689-.559.339-.832,2.274-4.158a.532.532,0,0,1,.919.534,28.068,28.068,0,0,1-2.446,3.545A.532.532,0,0,1,874.53,6604.416Zm4.9-10.346c1.051-3.724.526-4.633,1.407-4.525a.531.531,0,0,1,.463.592,28.1,28.1,0,0,1-.848,4.223.532.532,0,1,1-1.023-.289Z" transform="translate(-836.35 -6580.586)" fill="#d2f6e6"/>
            <path id="Path_134622" data-name="Path 134622" d="M799.963,6699.845c-.6-.39-1.2-.808-1.774-1.243a.531.531,0,0,1-.1-.744c.447-.589.892.088,2.452,1.093a.532.532,0,1,1-.576.894Z" transform="translate(-797.979 -6670.143)" fill="#d2f6e6"/>
          </g>
          <path id="Path_134623" data-name="Path 134623" d="M828.226,6520.627a.8.8,0,1,1,.771-1.4,11.675,11.675,0,0,0,2.253,1,11.574,11.574,0,1,0-6.957-15.866c-2.432,5.278.317,8.024-1.365,8.414a.8.8,0,0,1-.957-.6,13.171,13.171,0,1,1,8.79,9.566h0A13.267,13.267,0,0,1,828.226,6520.627Z" transform="translate(-806.72 -6481.428)" fill="#d2f6e6"/>
        </g>
      </g>
    </g>
    <g id="Group_92149" data-name="Group 92149" transform="translate(251.965 6378.494)">
      <path id="Path_134624" data-name="Path 134624" d="M792.411,6738.164c-.02-.25-.274-.465-.705-.638.468-.258.727-.535.705-.806-.066-.822-2.667-1.282-5.809-1.028s-5.635,1.125-5.569,1.945c.02.249.275.465.705.638-.468.258-.727.535-.705.806.02.25.275.464.705.638-.468.258-.727.535-.705.806.02.249.275.465.705.638-.468.258-.727.535-.705.806.029.363.555.656,1.4.847a7.248,7.248,0,0,0,.021.887c.123,1.514,1.825,2.7,4.076,2.7s4.2-1.617,4.222-3.136a7.619,7.619,0,0,0-.044-.99c1.077-.36,1.733-.8,1.7-1.226-.02-.249-.274-.465-.705-.638.468-.258.727-.535.705-.806-.02-.249-.274-.464-.705-.637C792.174,6738.711,792.433,6738.435,792.411,6738.164Z" transform="translate(-771.699 -6699.772)" fill="#fb9e36"/>
      <g id="Group_92148" data-name="Group 92148" transform="translate(10.172 37.829)">
        <path id="Path_134625" data-name="Path 134625" d="M792.695,6775.476a13.521,13.521,0,0,1-2.492-.2.075.075,0,0,1-.06-.088.076.076,0,0,1,.088-.061,16.219,16.219,0,0,0,4.151.132,17.854,17.854,0,0,0,3.482-.6.076.076,0,0,1,.042.145,17.981,17.981,0,0,1-3.512.606C793.81,6775.452,793.239,6775.476,792.695,6775.476Z" transform="translate(-789.418 -6769.935)" fill="#f1d54e"/>
        <path id="Path_134626" data-name="Path 134626" d="M790.076,6765.148a11.848,11.848,0,0,1-3.06-.332.075.075,0,1,1,.041-.145,17.465,17.465,0,0,0,9.251-.735.075.075,0,0,1,.1.037.077.077,0,0,1-.037.1,14.9,14.9,0,0,1-4.612,1C791.185,6765.126,790.617,6765.148,790.076,6765.148Z" transform="translate(-786.783 -6761.053)" fill="#f1d54e"/>
        <path id="Path_134627" data-name="Path 134627" d="M789.2,6756.733a11.013,11.013,0,0,1-3.225-.389.075.075,0,0,1,.047-.143,13.775,13.775,0,0,0,4.866.311,14.756,14.756,0,0,0,4.561-.992.075.075,0,0,1,.1.036.076.076,0,0,1-.037.1,14.9,14.9,0,0,1-4.612,1.006C790.316,6756.71,789.745,6756.733,789.2,6756.733Z" transform="translate(-785.924 -6754.08)" fill="#f1d54e"/>
        <path id="Path_134628" data-name="Path 134628" d="M791.68,6748.369a13.014,13.014,0,0,1-2.717-.247.076.076,0,0,1,.033-.147,15.75,15.75,0,0,0,4.362.175,14.856,14.856,0,0,0,4.537-.982.075.075,0,1,1,.063.137,15,15,0,0,1-4.588,1C792.792,6748.346,792.223,6748.369,791.68,6748.369Z" transform="translate(-788.393 -6747.161)" fill="#f1d54e"/>
      </g>
      <path id="Path_134629" data-name="Path 134629" d="M733.86,6557.773a10.63,10.63,0,0,0-1.9-3.715,24.591,24.591,0,0,1-5.3-13.694c-.547-9.517,7.894-14.282,15.6-13.635s15.3,6.381,14.47,15.235a20.443,20.443,0,0,1-5.831,11.953,12.608,12.608,0,0,0-3.027,5.362c-.681,2.46-2.3,5.526-6.157,5.713C736.726,6565.234,734.654,6560.586,733.86,6557.773Z" transform="translate(-726.635 -6526.671)" fill="#f1d54e"/>
      <path id="Path_134630" data-name="Path 134630" d="M821.911,6651.663l2.7-17.529c.056-.362.234-.6.4-.543s.252.406.2.769l-.005.031-3.07,17.366c-.023.131-.089.213-.148.185S821.892,6651.789,821.911,6651.663Z" transform="translate(-805.56 -6615.238)" fill="#fb9e36"/>
      <path id="Path_134631" data-name="Path 134631" d="M789.67,6652.474l-2.695-17.529c-.056-.362-.234-.605-.4-.543s-.252.406-.2.768l.005.031,3.07,17.366c.023.13.089.213.148.184S789.689,6652.6,789.67,6652.474Z" transform="translate(-776.116 -6615.911)" fill="#fb9e36"/>
      <path id="Path_134632" data-name="Path 134632" d="M799.351,6617.795a.282.282,0,0,0-.354-.092l-1.5.7-.521-1.484a.319.319,0,0,0-.183-.184.372.372,0,0,0-.461.142l0,0-1.234,2.25-1.145-3.2,0,0a.364.364,0,0,0-.173-.2.448.448,0,0,0-.567.111l-1.725,2.375a.208.208,0,0,0,.061.3.29.29,0,0,0,.367-.04l1.519-1.694,1.368,3.047v0a.242.242,0,0,0,.121.118.286.286,0,0,0,.358-.092l1.32-2.118.5,1.071,0,.01a.227.227,0,0,0,.012.022.282.282,0,0,0,.353.092l1.781-.832A.212.212,0,0,0,799.351,6617.795Z" transform="translate(-780.324 -6600.404)" fill="#fff"/>
      <path id="Path_134633" data-name="Path 134633" d="M866.731,6659.681a.342.342,0,0,1-.275-.546,20,20,0,0,0,1.25-1.9.342.342,0,0,1,.592.342,20.459,20.459,0,0,1-1.293,1.964A.341.341,0,0,1,866.731,6659.681Z" transform="translate(-842.412 -6634.693)" fill="#fff"/>
      <path id="Path_134634" data-name="Path 134634" d="M879.653,6586.972a.353.353,0,0,1-.136-.028.343.343,0,0,1-.178-.451,15.967,15.967,0,0,0,.367-12.118.342.342,0,1,1,.622-.285,16.4,16.4,0,0,1-.361,12.676A.342.342,0,0,1,879.653,6586.972Z" transform="translate(-853.117 -6565.789)" fill="#fff"/>
    </g>
    <g id="Group_92176" data-name="Group 92176" transform="translate(153.93 6410.28)">
      <g id="Group_92155" data-name="Group 92155" transform="translate(42.384 0)">
        <path id="Path_134635" data-name="Path 134635" d="M545.939,7376.932s-.445,2.384-.674,4.746a1.628,1.628,0,0,0,1.541,1.779c3.147.161,9.878.48,12.295.4a.529.529,0,0,0,.473-.721h0a1.186,1.186,0,0,0-.6-.646l-11.073-5.218Z" transform="translate(-520.724 -7262.841)" fill="#0a5936"/>
        <path id="Path_134636" data-name="Path 134636" d="M547.294,7366.735l.312,2.86s1.94.925,3.28-.083l-.776-3.191Z" transform="translate(-522.411 -7254.05)" fill="url(#linear-gradient)"/>
        <path id="Path_134637" data-name="Path 134637" d="M508.927,7055.389c-.154.745-1.141,37.214,2.6,53.6a.555.555,0,0,1-.332.643,9.669,9.669,0,0,1-3.182.615.956.956,0,0,1-.941-.695c-1.078-3.8-6.238-22.856-6.761-41.014-.585-20.291.007-.691.007-.691l.576-12.533Z" transform="translate(-483.277 -6996.4)" fill="#0a5936"/>
        <path id="Path_134638" data-name="Path 134638" d="M467.9,7383.482a17.169,17.169,0,0,0-1.363,4.4.993.993,0,0,0,.863,1.2c1.039.112,2.637.259,3.919.263a.991.991,0,0,0,.991-1.1,8.354,8.354,0,0,0-1.907-4.6Z" transform="translate(-455.489 -7268.268)" fill="#0a5936"/>
        <path id="Path_134639" data-name="Path 134639" d="M471.356,7361.353l.751,4.327a2.793,2.793,0,0,0,2.33.182l-.334-4.651Z" transform="translate(-459.502 -7249.817)" fill="url(#linear-gradient-2)"/>
        <path id="Path_134640" data-name="Path 134640" d="M454.984,7052.41c-3.372,19.215.238,47.572,1.494,53.128a.865.865,0,0,0,.692.663,5.807,5.807,0,0,0,2.5-.076.792.792,0,0,0,.576-.724c.218-4.479.165-31.994,3.24-42.838a2.468,2.468,0,0,1,.966-1.354l5.806-4.045.505-6.623Z" transform="translate(-444.778 -6992.449)" fill="#0a5936"/>
        <g id="Group_92150" data-name="Group 92150" transform="translate(9.154 9.145)">
          <path id="Path_134641" data-name="Path 134641" d="M477.339,6842.927a89.862,89.862,0,0,0-20.125,2.318c-3.007,16.594-.839,35.788-.839,35.788,7.38,2.011,15.755-1.036,15.755-1.036,1.3-6.936,7.22-26.433,7.22-26.433a31.472,31.472,0,0,0,11.718-3.6,20.49,20.49,0,0,1-3.969-8.51A32.047,32.047,0,0,1,477.339,6842.927Z" transform="translate(-455.62 -6828.382)" fill="url(#linear-gradient-3)"/>
          <path id="Path_134642" data-name="Path 134642" d="M657.7,6765.984a1.828,1.828,0,0,0-2.121-.618c-1.463,5.927-8.883,10.673-16.481,12.955a20.491,20.491,0,0,0,3.969,8.51C655.712,6779.882,657.7,6765.984,657.7,6765.984Z" transform="translate(-607.623 -6765.246)" fill="url(#linear-gradient-4)"/>
        </g>
        <g id="Group_92151" data-name="Group 92151" transform="translate(57.137)">
          <path id="Path_134643" data-name="Path 134643" d="M737.157,6722.113c.1.313-1.047.778-1.7-.505-.018-.612-.365-3.238.006-3.734a48.828,48.828,0,0,1,5.782-5.93.9.9,0,0,1,.1,1.25l-1.85,1.891a8.867,8.867,0,0,1,1.049,2.125,2.567,2.567,0,0,1-.274,1.887c-.327.577-.773,1.325-1.193,1.911A2.535,2.535,0,0,1,737.157,6722.113Z" transform="translate(-735.289 -6711.943)" fill="url(#linear-gradient-5)"/>
          <path id="Path_134644" data-name="Path 134644" d="M744.319,6737.422l-1.683,1.4-.538,1.4,1.473,1.666a19.216,19.216,0,0,1,.9-3.393C744.854,6737.9,744.664,6737.6,744.319,6737.422Z" transform="translate(-740.93 -6733.05)" fill="url(#linear-gradient-6)"/>
        </g>
        <path id="Path_134645" data-name="Path 134645" d="M417.672,6872.817l-3.577-9.288s-8.984,5.98-10.525,13.656a21.111,21.111,0,0,1,7.74,2.153C412,6875.713,417.672,6872.817,417.672,6872.817Z" transform="translate(-403.345 -6837.521)" fill="url(#linear-gradient-3)"/>
        <path id="Path_134646" data-name="Path 134646" d="M424.307,6947.536s-10.076,5.568-13.411.7a3.8,3.8,0,0,1-.669-2.96,21.127,21.127,0,0,0-7.74-2.154,10.614,10.614,0,0,0,1.084,7.287c5.82,10.892,22.038-.388,22.038-.388Z" transform="translate(-402.263 -6903.458)" fill="url(#linear-gradient-8)"/>
        <path id="Path_134647" data-name="Path 134647" d="M511.049,6804.263l-3.125,8.765a.317.317,0,0,0,.141.383,7.147,7.147,0,0,0,7.418-.428,1.492,1.492,0,0,0,.7-1.059l1.057-7.6Z" transform="translate(-489.781 -6788.424)" fill="url(#linear-gradient-9)"/>
        <g id="Group_92152" data-name="Group 92152" transform="translate(15.528 3.187)">
          <path id="Path_134648" data-name="Path 134648" d="M527.5,6757.169s3.279,6.317,2.827,8.852-4.589,2.313-8.182.216l-2.46-6.811Z" transform="translate(-515.068 -6752.597)" fill="url(#linear-gradient-10)"/>
          <path id="Path_134649" data-name="Path 134649" d="M500.04,6740.828a.259.259,0,0,0,.117-.378,6.766,6.766,0,0,1-.91-1.981s-.6-.39,1.536-.879,5.314-1.25,6-3.054c.667-1.76-1-6.217-3.759-2.7a.259.259,0,0,1-.41,0,2.671,2.671,0,0,0-3.243-1.088,2.45,2.45,0,0,0-1.7,2.351.257.257,0,0,1-.308.261,2.989,2.989,0,0,0-3.5,1.593c-.727,1.559-.273,2.449.145,2.886a.258.258,0,0,1-.115.428,1.554,1.554,0,0,0-1.114,1.763c.075,1.644,1.913,1.517,2.437,1.446a.26.26,0,0,1,.229.084c.444.5,2.444,2.627,4.628,2.9a.261.261,0,0,0,.277-.342l-.92-2.76a.261.261,0,0,1,.144-.322Z" transform="translate(-492.771 -6730.519)" fill="#05301d"/>
          <path id="Path_134650" data-name="Path 134650" d="M524.98,6788.916s-2.362-1.653-2.549-.281,2.122,2.01,3.273,1.509Z" transform="translate(-517.334 -6778.213)" fill="url(#linear-gradient-11)"/>
        </g>
        <g id="Group_92154" data-name="Group 92154" transform="translate(19.963 32.117)">
          <g id="Group_92153" data-name="Group 92153">
            <path id="Path_134651" data-name="Path 134651" d="M518.64,6919.9l5.489-19.168a.559.559,0,0,1,.473-.4c.994-.116,3.876-.441,7.2-.723a81.656,81.656,0,0,1,11.443-.38.561.561,0,0,1,.458.807c-1.581,3.2-8.087,16.215-11.344,20.478a.563.563,0,0,1-.453.222l-12.735-.119A.561.561,0,0,1,518.64,6919.9Z" transform="translate(-518.618 -6899.137)" fill="#0a5936"/>
            <path id="Path_134652" data-name="Path 134652" d="M523.919,6961.593s-.765-3.144-.456-4.259.906-2.55,2.9-2.231a29.14,29.14,0,0,1,4.341,1.158,1.14,1.14,0,0,1-1.632.983l.939.727s-.134,1.163-1.413.542l.873.963a1.017,1.017,0,0,1-1.49.343C527.038,6959.206,526.587,6961.971,523.919,6961.593Z" transform="translate(-522.571 -6945.463)" fill="url(#linear-gradient-12)"/>
          </g>
          <path id="Path_134653" data-name="Path 134653" d="M593.344,6927.43a1.611,1.611,0,1,0,1.611-1.611A1.611,1.611,0,0,0,593.344,6927.43Z" transform="translate(-580.523 -6921.241)" fill="#98d8c9"/>
          <path id="Path_134654" data-name="Path 134654" d="M552.374,6912.339l-.411-.122,1.117-3.79a1.728,1.728,0,0,1,1.3-1.21c3.542-.739,12.871-.89,13.266-.9l.007.428c-.1,0-9.684.157-13.186.887a1.3,1.3,0,0,0-.977.912Z" transform="translate(-546.242 -6905.089)" fill="#98d8c9"/>
        </g>
      </g>
      <g id="Group_92156" data-name="Group 92156" transform="translate(0 88.7)">
        <path id="Path_134655" data-name="Path 134655" d="M159.926,7254.062c-.585.865-2.91,20.468-3.275,27.707a.856.856,0,0,0,.857.9h0a.858.858,0,0,0,.848-.726l4.253-27.256Z" transform="translate(-156.406 -7249.751)" fill="#7d97f4"/>
        <path id="Path_134656" data-name="Path 134656" d="M271.756,7254.062c.585.865,2.91,20.468,3.274,27.707a.856.856,0,0,1-.857.9h0a.858.858,0,0,1-.848-.726l-4.253-27.256Z" transform="translate(-249.54 -7249.751)" fill="#7d97f4"/>
        <path id="Path_134657" data-name="Path 134657" d="M155.23,7231.718l0,.214a2.914,2.914,0,0,0,2.97,2.827l19.66.334a2.939,2.939,0,0,0,3.077-2.667l.01-.2a2.9,2.9,0,0,0-2.963-2.94l-19.668-.353A2.929,2.929,0,0,0,155.23,7231.718Z" transform="translate(-155.227 -7228.937)" fill="#7d97f4"/>
      </g>
      <g id="Group_92160" data-name="Group 92160" transform="translate(5.839 30.436)">
        <g id="Group_92157" data-name="Group 92157" transform="translate(29.809 85.999)">
          <path id="Path_134658" data-name="Path 134658" d="M368.943,7408.639c-3.495,0-5.041-.3-5.732-.572a1.326,1.326,0,0,0,1.292,1.026h12.363a.6.6,0,0,0,.58-.759C376.036,7408.447,373.043,7408.639,368.943,7408.639Z" transform="translate(-363.176 -7405.069)" fill="#0a5936"/>
          <path id="Path_134659" data-name="Path 134659" d="M377.275,7393.859a.585.585,0,0,0-.1-.211c-.942-1.2-2.834-3.09-5.407-3.054-3.77.053-5.085.462-8.014.023l-.691,2.291a1.313,1.313,0,0,0-.021.683c.691.273,2.238.573,5.732.573C372.872,7394.165,375.866,7393.973,377.275,7393.859Z" transform="translate(-363.005 -7390.594)" fill="#0a5936"/>
        </g>
        <path id="Path_134660" data-name="Path 134660" d="M368.21,7376.341l-.848,2.886a4.99,4.99,0,0,0,3.532.169l.325-2.5Z" transform="translate(-336.805 -7292.788)" fill="url(#linear-gradient-13)"/>
        <g id="Group_92158" data-name="Group 92158" transform="translate(50.905 81.828)">
          <path id="Path_134661" data-name="Path 134661" d="M498.359,7373.958c-2.724,2.189-4.117,2.925-4.826,3.146a1.325,1.325,0,0,0,1.647-.012l9.638-7.744a.6.6,0,0,0-.022-.952C503.768,7369.366,501.555,7371.391,498.359,7373.958Z" transform="translate(-492.234 -7368.033)" fill="#0a5936"/>
          <path id="Path_134662" data-name="Path 134662" d="M498.524,7366.646a.574.574,0,0,0-.21-.1c-1.484-.343-4.135-.623-6.119,1.017-2.906,2.4-3.675,3.543-6.233,5.037l.889,2.211a1.306,1.306,0,0,0,.41.543c.709-.221,2.1-.957,4.826-3.146C495.283,7369.64,497.5,7367.615,498.524,7366.646Z" transform="translate(-485.962 -7366.283)" fill="#0a5936"/>
        </g>
        <path id="Path_134663" data-name="Path 134663" d="M247.077,7184.734s20.923,1.708,25.215,3.729-3.5,30.34-3.5,30.34-1.169.563-3.769-.246c0,0,2.666-20.9.682-25.431l-22.655-3.705Z" transform="translate(-233.82 -7134.055)" fill="#fb9e36"/>
        <path id="Path_134664" data-name="Path 134664" d="M473.845,7373.956c.194.177,2.079,3.978,2.079,3.978s2.1-.454,2.526-1.781l-1.888-3.431Z" transform="translate(-425.019 -7289.79)" fill="url(#linear-gradient-13)"/>
        <path id="Path_134665" data-name="Path 134665" d="M189.914,7183.715a10.6,10.6,0,0,0-.654,3.821,5.736,5.736,0,0,0,5.474,5.612l24.735,1.128a1.185,1.185,0,0,1,1.1.891c.581,2.249,3.422,9.152,17.31,22.929a1.119,1.119,0,0,0,1.385.15l1.977-1.248a.456.456,0,0,0,.15-.615l-14.4-24.594a5.572,5.572,0,0,0-3.386-2.511l-21.082-5.389Z" transform="translate(-189.259 -7133.21)" fill="url(#linear-gradient-3)"/>
        <path id="Path_134666" data-name="Path 134666" d="M309.314,6959.8s-2.65,4.686-5.351,6.955l5.584,3.115s1.258-4.959,4.133-6.412Z" transform="translate(-284.283 -6947.711)" fill="url(#linear-gradient-16)"/>
        <path id="Path_134667" data-name="Path 134667" d="M190.458,7028.181a30.606,30.606,0,0,0,13.051,0s8.918-11.989,12.369-15.252a24.542,24.542,0,0,0,17.754,9.916l.683-1.527s-9.753-4.5-12.755-11.4-4.208-9.854-6.94-11.656c-1.7-1.122-2.72-1.889-3.246-2.308a.873.873,0,0,0-1-.063C207.476,6997.653,193.836,7007,190.458,7028.181Z" transform="translate(-190.252 -6977.501)" fill="#17c878"/>
        <path id="Path_134668" data-name="Path 134668" d="M318.506,7062.465a.427.427,0,0,1-.34-.167,26.645,26.645,0,0,1-3.36-5.958.428.428,0,1,1,.8-.307,26.267,26.267,0,0,0,3.24,5.743.428.428,0,0,1-.34.689Z" transform="translate(-293.243 -7027.206)" fill="#0a5936"/>
        <path id="Path_134669" data-name="Path 134669" d="M437.808,7133.386l1.379-.368,4.187-.969a1.937,1.937,0,0,1,1.471.248l3.6,2.265-9.941-.017Z" transform="translate(-395.165 -7090.367)" fill="url(#linear-gradient-13)"/>
        <g id="Group_92159" data-name="Group 92159" transform="translate(18.141)">
          <path id="Path_134670" data-name="Path 134670" d="M323.473,6918.854s2.575,4.281,3.022,6.646,1.164,3.845-1.529,4.688a5.909,5.909,0,0,1-6.766-2.433s-2.453-3.4-2.208-4.955S323.473,6918.854,323.473,6918.854Z" transform="translate(-312.376 -6913.791)" fill="url(#linear-gradient-18)"/>
          <path id="Path_134671" data-name="Path 134671" d="M301.539,6901.479l.348-.046s-1.823-2.756-.63-3.439,6.055-2.361,6.9-4.275a3.325,3.325,0,0,0-1.872-4.367.187.187,0,0,0-.225.118l-.086.232a.189.189,0,0,1-.35.01h0a.188.188,0,0,0-.342-.007c-.26.574-1.04,1.554-3.378,2.312-3.318,1.075-5.384,2.748-5.13,5.105a.189.189,0,0,1-.27.191c-.271-.12-.682-.139-1.16.383-.83.908-.18,2.894,2.088,4.3a.187.187,0,0,1,.031.3c-.339.291-.816.938.718,1.516a3.852,3.852,0,0,0,2.742.264.189.189,0,0,0,.116-.212l-.4-2.066a.188.188,0,0,1,.161-.223Z" transform="translate(-294.998 -6889.345)" fill="#05301d"/>
          <path id="Path_134672" data-name="Path 134672" d="M321.089,6952.756s-1.136-2.8-2.33-1.816,1.1,3.161,2.163,3.132Z" transform="translate(-314.405 -6940.198)" fill="url(#linear-gradient-19)"/>
        </g>
      </g>
      <g id="Group_92163" data-name="Group 92163" transform="translate(43.738 55.276)">
        <g id="Group_92161" data-name="Group 92161" transform="translate(0 19.388)">
          <path id="Path_134673" data-name="Path 134673" d="M411.063,7149.043h.049l21.237-.021a.949.949,0,1,0,0-1.9l-21.237.021a.949.949,0,0,0-.047,1.9Z" transform="translate(-410.16 -7147.125)" fill="#fb9e36"/>
        </g>
        <g id="Group_92162" data-name="Group 92162" transform="translate(21.367)">
          <path id="Path_134674" data-name="Path 134674" d="M543.748,7034.63l-.022.043-8.936,19.267a.949.949,0,1,0,1.721.8l8.936-19.266a.949.949,0,0,0-1.7-.842Z" transform="translate(-534.702 -7034.123)" fill="#fb9e36"/>
        </g>
      </g>
      <g id="Group_92169" data-name="Group 92169" transform="translate(80.739 28.079)">
        <g id="Group_92164" data-name="Group 92164" transform="translate(35.95 62.433)">
          <rect id="Rectangle_31821" data-name="Rectangle 31821" width="2.241" height="24.24" transform="translate(10.833 5.431)" fill="#7d97f4"/>
          <path id="Path_134675" data-name="Path 134675" d="M867.45,7408.119H847.818a1.459,1.459,0,0,1,1.459-1.459h16.714a1.459,1.459,0,0,1,1.459,1.459Z" transform="translate(-845.68 -7377.98)" fill="#7d97f4"/>
          <rect id="Rectangle_31822" data-name="Rectangle 31822" width="24.683" height="7" rx="3.5" fill="#7d97f4"/>
        </g>
        <g id="Group_92165" data-name="Group 92165" transform="translate(2.408 47.149)">
          <path id="Path_134676" data-name="Path 134676" d="M770.369,7176.95a19.516,19.516,0,0,0-7.075,3.02,1.868,1.868,0,0,0-.824,1.784,79.141,79.141,0,0,0,8.372,26.277,2.829,2.829,0,0,1,.271,1.94l-1.056,4.915-1.959,1.837h5.045l3.359-9.091-1.437-.454a2.719,2.719,0,0,1-1.9-2.545l-.168-9.752a11.1,11.1,0,0,0-2.664-7.343l8.058-.392Z" transform="translate(-741.421 -7172.398)" fill="url(#linear-gradient-20)"/>
          <path id="Path_134677" data-name="Path 134677" d="M783.728,7363.453c-.46.6,4.945,1.4,7.676.08,0,0,3.785-6.586,3.785-9.978,0,0-.3-.69-2.523-.534,0,0-1.271,7.8-2.613,8.672s-3.755.088-3.755.088A7.907,7.907,0,0,0,783.728,7363.453Z" transform="translate(-759.021 -7318.241)" fill="#0a5936"/>
          <path id="Path_134678" data-name="Path 134678" d="M687.015,7193.727c-.043-.074-8.675-1.038-8.675-1.038a19.948,19.948,0,0,1-.6,6.238c-.883,3.613-13.557,19.267-13.557,19.267l1.329,4.213a21.372,21.372,0,0,1-12.128.729l8.236-4.942s7.708-26.267,12.429-30.953l8.653-2.994Z" transform="translate(-651.062 -7178.443)" fill="url(#linear-gradient-21)"/>
          <path id="Path_134679" data-name="Path 134679" d="M806.576,7150.416s4.974,7.4,5.382,10.771-1.362,4.746-6.581,4.972-19.15.222-19.15.222l-11.89-10.161s8.665-3.092,10.918-3.966S806.576,7150.416,806.576,7150.416Z" transform="translate(-751.264 -7150.416)" fill="#0a5936"/>
          <path id="Path_134680" data-name="Path 134680" d="M653.8,7398.392a2.433,2.433,0,0,1,.464,2.928s-11.334,2.009-14.411,1.1c0,0,.639-1.458,4.1-3.118l-.256.2a.414.414,0,0,0,.274.743C646.259,7400.106,650.984,7399.688,653.8,7398.392Z" transform="translate(-639.854 -7355.847)" fill="#0a5936"/>
        </g>
        <g id="Group_92167" data-name="Group 92167" transform="translate(26.986)">
          <path id="Path_134681" data-name="Path 134681" d="M819.435,6875.84c10.167-1.729,14.953,6.563,14.6,8.305a.319.319,0,0,0,.4.366c1.167-.314,3.746-.71,5.344,1.292,1.411,1.768.357,3.437-.5,4.353a.321.321,0,0,0,.268.542c2.146-.271,6.809-.336,7.572,4.032.711,4.073-2.124,5.222-3.805,5.546a.319.319,0,0,0-.106.583,3.4,3.4,0,0,1,1.418,3.8c-.616,3.4-7.284,3.123-8.064,3.079a.316.316,0,0,1-.139-.041l-10.682-6.093a.321.321,0,0,1-.157-.224l-2.156-12.455a.319.319,0,0,1,.085-.277l-6.964-9.827C814.019,6878.453,819.315,6875.86,819.435,6875.84Z" transform="translate(-810.244 -6875.604)" fill="#05301d"/>
          <path id="Path_134682" data-name="Path 134682" d="M834.225,7015.23a113.543,113.543,0,0,1-8.642-9.167,7.751,7.751,0,0,1-1.312-6.976,96.285,96.285,0,0,1,3.826-9.634c.323-1.083,6.817-1.038,6.817-1.038s12.779,8.294,17.8,22.342l-5.639,1.755a65.888,65.888,0,0,0-6.633-9.156s5.7,7.536,5.905,10.621Z" transform="translate(-816.942 -6969.061)" fill="#17c878"/>
          <path id="Path_134683" data-name="Path 134683" d="M843.546,6944.355c.068.226,1.763,5.844,1.9,5.961s3.717.31,5.4-.844l-4.185-8.187Z" transform="translate(-833.177 -6930.017)" fill="url(#linear-gradient-22)"/>
          <g id="Group_92166" data-name="Group 92166" transform="translate(0 1.013)">
            <path id="Path_134684" data-name="Path 134684" d="M803.246,6906.976s-.819,3.219,1.447,7.549,4.832,4.324,6.234,2.939a9.137,9.137,0,0,0,2.721-7.923C813.237,6905.354,804.429,6902.881,803.246,6906.976Z" transform="translate(-799.672 -6900.87)" fill="url(#linear-gradient-23)"/>
            <path id="Path_134685" data-name="Path 134685" d="M793.952,6890.4s-3.76-5.749-7.286-1.224l-.064,1.645s-4.13-.49-3.407-4.277,4.292-6.153,8.888-4.513,7.23,3.322,7.526,6.616-2.324,2.572-2.324,2.572-.855-2.319-2.07-2.561-.9,1.567-.9,1.567Z" transform="translate(-783.11 -6881.507)" fill="#05301d"/>
            <path id="Path_134686" data-name="Path 134686" d="M847.8,6916.39s-1.95-2.943.048-3.382,1.688,2.868,1.472,4.091Z" transform="translate(-835.992 -6907.57)" fill="url(#linear-gradient-24)"/>
          </g>
          <path id="Path_134687" data-name="Path 134687" d="M815.077,7123.523l4.255-4.1,5.886,2.487s5.859.908,9.213,0l3.353-.908,7.578-2.359,1.19,3.364a2.026,2.026,0,0,1-.74,2.327,13.325,13.325,0,0,1-1.914,1.191c-1,.438-24.6-.3-24.6-.3Z" transform="translate(-809.593 -7076.944)" fill="url(#linear-gradient-25)"/>
        </g>
        <g id="Group_92168" data-name="Group 92168" transform="translate(0 26.101)">
          <path id="Path_134688" data-name="Path 134688" d="M784.144,7147.572h-.057l-24.684-.027a1.1,1.1,0,1,1,0-2.209l24.684.027a1.1,1.1,0,0,1,.054,2.208Z" transform="translate(-735.571 -7125.16)" fill="#0a5936"/>
          <path id="Path_134689" data-name="Path 134689" d="M627.464,7027.738h20.557a3.917,3.917,0,0,1,3.544,2.247l9.5,20.151H635.521a2.381,2.381,0,0,1-2.214-1.506l-7.37-18.647A1.642,1.642,0,0,1,627.464,7027.738Z" transform="translate(-625.821 -7027.738)" fill="#0a5936"/>
          <path id="Path_134690" data-name="Path 134690" d="M703.965,7078.02c.445,1.384.116,2.728-.735,3s-1.9-.626-2.348-2.01-.116-2.728.735-3S703.519,7076.635,703.965,7078.02Z" transform="translate(-687.839 -7067.687)" fill="#98d8c9"/>
        </g>
      </g>
      <g id="Group_92173" data-name="Group 92173" transform="translate(129.031 5.848)">
        <g id="Group_92170" data-name="Group 92170" transform="translate(15.079 54.078)">
          <path id="Path_134691" data-name="Path 134691" d="M1008.527,7392.186a30.046,30.046,0,0,1,.361,3.146,1.355,1.355,0,0,1-1.221,1.43c-2.527.245-8.278.7-11.95.167a.616.616,0,0,1-.339-1.061,19.077,19.077,0,0,1,11.19-4.754Z" transform="translate(-995.183 -7334.516)" fill="#0a5936"/>
          <path id="Path_134692" data-name="Path 134692" d="M1059.221,7371.922l-1.277,3.131a1.044,1.044,0,0,1-1.071.647,5.73,5.73,0,0,1-1.044-.2,1.372,1.372,0,0,1-.912-1.705l.964-3.225Z" transform="translate(-1044.621 -7317.496)" fill="url(#linear-gradient-26)"/>
          <path id="Path_134693" data-name="Path 134693" d="M1190.078,7411.891a13.405,13.405,0,0,0-3.555,4.886,1.167,1.167,0,0,0,1.109,1.55h5.264a1.241,1.241,0,0,0,1.227-1.452C1193.787,7414.98,1192.82,7411.9,1190.078,7411.891Z" transform="translate(-1153.638 -7351.728)" fill="#0a5936"/>
          <path id="Path_134694" data-name="Path 134694" d="M1207.1,7393.772s-.517,2.287-.914,3.8a.484.484,0,0,1-.632.33,4.4,4.4,0,0,0-1.916-.348.373.373,0,0,1-.411-.372l-.05-3.8Z" transform="translate(-1167.496 -7336.394)" fill="url(#linear-gradient-27)"/>
          <path id="Path_134695" data-name="Path 134695" d="M1071.623,7067.142l-15.559,47.466s2.984,1.955,4.406,1.873l18.48-38.146s3.234,23.5,1.667,40.379l5.293.4s8.607-43.123,2.088-57.893Z" transform="translate(-1045.619 -7061.224)" fill="#0a5936"/>
          <path id="Path_134696" data-name="Path 134696" d="M1185.233,7133.966h.019a.151.151,0,0,0,.13-.168l-.6-4.793a.151.151,0,1,0-.3.038l.6,4.792A.151.151,0,0,0,1185.233,7133.966Z" transform="translate(-1152.002 -7117.266)" fill="#17c878"/>
        </g>
        <path id="Path_134697" data-name="Path 134697" d="M1056.61,6852.27s12.606,1.119,10.822,10.1a122.453,122.453,0,0,1,10.226,28.561.909.909,0,0,1-.737,1.08l-20.993,3.594a1.13,1.13,0,0,1-1.285-.83l-5.016-19.386-1.954,9.013-6.21-1.618,5.228-26.483S1047.421,6852.436,1056.61,6852.27Z" transform="translate(-1018.443 -6834.042)" fill="url(#linear-gradient-28)"/>
        <path id="Path_134698" data-name="Path 134698" d="M1079.227,6941.663a.156.156,0,0,0,.153-.189l-1.75-8.035a.156.156,0,1,0-.306.066l1.75,8.035A.157.157,0,0,0,1079.227,6941.663Z" transform="translate(-1048.149 -6901.182)" fill="#fb9e36"/>
        <path id="Path_134699" data-name="Path 134699" d="M1074.844,7054.568a3,3,0,0,1,2.168-.282l1.461.364a.529.529,0,0,0,.654-.455l1.511-13.453a12.378,12.378,0,0,0,5.516.725l-3.479,15.86H1070.5Z" transform="translate(-1042.5 -6990.179)" fill="url(#linear-gradient-29)"/>
        <path id="Path_134700" data-name="Path 134700" d="M907.292,6907.077l.368-1.223a2.419,2.419,0,0,1,1.414-1.548l6.655-2.676s.1-.854-1.406-1.434a2,2,0,0,1-1.154-2.267s2.058.938,5.071,2.428a7.05,7.05,0,0,1,3.2,3.487l15.08,18.383-1.77,1.216a4.727,4.727,0,0,1-6.853-1.682l-8.169-15.665A30.46,30.46,0,0,1,907.292,6907.077Z" transform="translate(-907.292 -6871.869)" fill="url(#linear-gradient-30)"/>
        <g id="Group_92172" data-name="Group 92172" transform="translate(19.536)">
          <path id="Path_134701" data-name="Path 134701" d="M1086.558,6801.669l3.877,10.852s-3.433,2.684-5.939,1.776l-1.954-6.22S1084.035,6800.475,1086.558,6801.669Z" transform="translate(-1072.012 -6792.017)" fill="url(#linear-gradient-31)"/>
          <g id="Group_92171" data-name="Group 92171">
            <path id="Path_134702" data-name="Path 134702" d="M1038.5,6769.146c0,.167,3.735,10.573,3.735,10.573l5.9-2.259-2.074-10.388S1038.5,6766.347,1038.5,6769.146Z" transform="translate(-1035.526 -6763.392)" fill="url(#linear-gradient-32)"/>
            <path id="Path_134703" data-name="Path 134703" d="M1030.658,6752.239l1.52,5.383a.772.772,0,0,1,.029.21c0,.439-.108,1.95-1.647,1.745a7.039,7.039,0,0,0-3.485.046.78.78,0,0,0-.4.971,33.726,33.726,0,0,0,2.124,4.793.78.78,0,0,0,1,.321,25.188,25.188,0,0,0,5.055-2.974.782.782,0,0,0,.276-.75c-.258-1.377-1.028-5.565-1.062-6.765-.032-1.127,1.232-1.987,1.789-2.31a.768.768,0,0,0,.362-.486,2.025,2.025,0,0,0-1.77-2.728.783.783,0,0,1-.635-.931,2.029,2.029,0,0,0-1.526-2.613,2.861,2.861,0,0,0-3.263,1.3.781.781,0,0,1-.969.258.619.619,0,0,0-.693.125.769.769,0,0,1-1.126-.171,2.333,2.333,0,0,0-2.876-.95c-2.664.862-2.536,3.934-1.56,5.6s3.811.57,5.153-.536c1.02-.841,2.574-.338,3.26-.048A.775.775,0,0,1,1030.658,6752.239Z" transform="translate(-1021.161 -6746.027)" fill="#05301d"/>
            <path id="Path_134704" data-name="Path 134704" d="M1095.206,6789.54s-1.576-2.982-.534-3.919,2.809-.782,2.761,1.549C1097.374,6790.07,1095.206,6789.54,1095.206,6789.54Z" transform="translate(-1081.765 -6778.383)" fill="url(#linear-gradient-33)"/>
          </g>
        </g>
        <path id="Path_134705" data-name="Path 134705" d="M1129.448,6941.482a14.86,14.86,0,0,0,1.541-.073l.112-.012,4.59-21.4a.156.156,0,1,0-.306-.066l-4.542,21.179c-.683.061-4.331.3-6.257-1.062l3.976-18.593-.83-1.564a.156.156,0,1,0-.276.147l.777,1.463-3.995,18.678.08.06C1125.709,6941.284,1127.951,6941.482,1129.448,6941.482Z" transform="translate(-1087.017 -6889.992)" fill="#fb9e36"/>
      </g>
      <g id="Group_92174" data-name="Group 92174" transform="translate(33.056 78.281)">
        <path id="Path_134706" data-name="Path 134706" d="M348.7,7212.518a.741.741,0,0,1-.316-.071.9.9,0,0,1-.419-1.146l16.773-42.559a.777.777,0,0,1,1.051-.457.905.905,0,0,1,.419,1.147l-16.773,42.558A.8.8,0,0,1,348.7,7212.518Z" transform="translate(-347.896 -7168.213)" fill="#98d8c9"/>
        <path id="Path_134707" data-name="Path 134707" d="M377.835,7212.517a.8.8,0,0,1-.735-.528l-16.773-42.558a.9.9,0,0,1,.419-1.147.776.776,0,0,1,1.051.457L378.57,7211.3a.9.9,0,0,1-.419,1.146A.741.741,0,0,1,377.835,7212.517Z" transform="translate(-358.14 -7168.212)" fill="#98d8c9"/>
        <path id="Path_134708" data-name="Path 134708" d="M1012.181,7212.518a.741.741,0,0,1-.316-.071.9.9,0,0,1-.419-1.146l16.773-42.559a.777.777,0,0,1,1.051-.457.905.905,0,0,1,.419,1.147l-16.773,42.558A.8.8,0,0,1,1012.181,7212.518Z" transform="translate(-897.548 -7168.213)" fill="#98d8c9"/>
        <path id="Path_134709" data-name="Path 134709" d="M1041.32,7212.517a.8.8,0,0,1-.735-.528l-16.773-42.558a.9.9,0,0,1,.419-1.147.776.776,0,0,1,1.051.457l16.773,42.559a.9.9,0,0,1-.419,1.146A.74.74,0,0,1,1041.32,7212.517Z" transform="translate(-907.792 -7168.212)" fill="#98d8c9"/>
      </g>
      <g id="Group_92175" data-name="Group 92175" transform="translate(144.514 72.73)">
        <path id="Path_134710" data-name="Path 134710" d="M1001.857,7141.665h24.293v-2.507h-24.293C1002.377,7139.158,1002.377,7141.665,1001.857,7141.665Z" transform="translate(-1001.116 -7138.591)" fill="#91b3fa"/>
        <path id="Path_134711" data-name="Path 134711" d="M1022.345,7138.928a.229.229,0,0,0,.228-.228v-2.051a.229.229,0,0,0-.228-.228H997.767a.229.229,0,0,1-.228-.228v-.111a.229.229,0,0,1,.228-.228h26.2a1.049,1.049,0,0,1,1.049,1.049v1.6a.989.989,0,0,1-.989.989H997.767a.229.229,0,0,1-.228-.228v-.111a.229.229,0,0,1,.228-.228Z" transform="translate(-997.539 -7135.854)" fill="url(#linear-gradient-34)"/>
      </g>
      <path id="Path_134712" data-name="Path 134712" d="M446.293,7158.134a.739.739,0,0,0-.3-.789,1.8,1.8,0,0,0-1.111-.348H299.318a1.968,1.968,0,0,0-1.4.507.791.791,0,0,0-.108,1.052l1.577,2.265a2.461,2.461,0,0,0,2.005.851H443.881a1.641,1.641,0,0,0,1.642-.9Z" transform="translate(-273.224 -7080.64)" fill="url(#linear-gradient-35)"/>
    </g>
  </g>
</svg>
