<svg xmlns="http://www.w3.org/2000/svg" width="80" height="79.894" viewBox="0 0 80 79.894">
  <g id="t1-i5" transform="translate(0 -0.34)">
    <path id="Path_105576" data-name="Path 105576" d="M69.375,34.178h35.03v70.668H35.5V34.178h9.489" transform="translate(-29.951 -28.551)" fill="#e6fff4"/>
    <path id="Path_105577" data-name="Path 105577" d="M69.375,34.178h35.03v7.266H35.5V34.178h9.489" transform="translate(-29.951 -28.551)" fill="#c4f1dd"/>
    <path id="Path_105578" data-name="Path 105578" d="M45.842,22.074H85.23v-5.5H7.607v5.5H21.454" transform="translate(-6.418 -13.696)" fill="#f1d54e"/>
    <circle id="Ellipse_4105" data-name="Ellipse 4105" cx="14.276" cy="14.276" r="14.276" transform="translate(12.954 1.527)" fill="#fff"/>
    <path id="Path_105579" data-name="Path 105579" d="M134.8,48.073h-6.166V41.907h-5.606v6.166h-6.166v5.606h6.166v6.167h5.606V53.679H134.8Z" transform="translate(-98.605 -35.072)" fill="#fb9e36"/>
    <rect id="Rectangle_31689" data-name="Rectangle 31689" width="77.623" height="5.502" transform="translate(1.188 73.544)" fill="#f1d54e"/>
    <g id="Group_91652" data-name="Group 91652" transform="translate(10.676 15.983)">
      <rect id="Rectangle_31690" data-name="Rectangle 31690" width="7.72" height="14.098" transform="translate(38.197 18.889)" fill="#f3f9ff"/>
      <rect id="Rectangle_31691" data-name="Rectangle 31691" width="7.72" height="14.098" transform="translate(12.732 18.889)" fill="#f3f9ff"/>
      <rect id="Rectangle_31692" data-name="Rectangle 31692" width="7.72" height="14.098" transform="translate(50.929 18.889)" fill="#f3f9ff"/>
      <rect id="Rectangle_31693" data-name="Rectangle 31693" width="7.72" height="14.098" transform="translate(25.464 18.889)" fill="#f3f9ff"/>
      <rect id="Rectangle_31694" data-name="Rectangle 31694" width="7.72" height="14.098" transform="translate(0 18.889)" fill="#f3f9ff"/>
      <rect id="Rectangle_31695" data-name="Rectangle 31695" width="7.72" height="14.098" transform="translate(12.732 37.779)" fill="#f3f9ff"/>
      <rect id="Rectangle_31696" data-name="Rectangle 31696" width="7.72" height="14.098" transform="translate(25.464 37.779)" fill="#f3f9ff"/>
      <rect id="Rectangle_31697" data-name="Rectangle 31697" width="7.72" height="14.098" transform="translate(0 37.779)" fill="#f3f9ff"/>
      <rect id="Rectangle_31698" data-name="Rectangle 31698" width="7.72" height="14.098" transform="translate(38.197)" fill="#f3f9ff"/>
      <rect id="Rectangle_31699" data-name="Rectangle 31699" width="7.72" height="14.098" transform="translate(50.929)" fill="#f3f9ff"/>
      <rect id="Rectangle_31700" data-name="Rectangle 31700" width="20.453" height="19.781" transform="translate(38.197 37.779)" fill="#f3f9ff"/>
    </g>
    <path id="Path_105580" data-name="Path 105580" d="M123.41,40.469V35.491a1.188,1.188,0,0,0-1.188-1.188h-5.606a1.188,1.188,0,0,0-1.188,1.188v4.978H110.45a1.188,1.188,0,0,0-1.188,1.188v5.606a1.188,1.188,0,0,0,1.188,1.188h4.978V53.43a1.188,1.188,0,0,0,1.188,1.188h5.606a1.188,1.188,0,0,0,1.188-1.188V48.451h4.978a1.188,1.188,0,0,0,1.188-1.188V41.658a1.188,1.188,0,0,0-1.188-1.188Zm3.79,5.606h-4.978a1.188,1.188,0,0,0-1.188,1.188v4.978H117.8V47.263a1.188,1.188,0,0,0-1.188-1.188h-4.978V42.846h4.978a1.188,1.188,0,0,0,1.188-1.188V36.679h3.23v4.978a1.188,1.188,0,0,0,1.188,1.188H127.2Z" transform="translate(-92.19 -28.656)"/>
    <path id="Path_105581" data-name="Path 105581" d="M78.812,9.566A1.188,1.188,0,0,0,80,8.378v-5.5a1.188,1.188,0,0,0-1.188-1.188H71.226a1.188,1.188,0,0,0-1.188,1.188h0a1.188,1.188,0,0,0,1.188,1.188h6.4V7.19H40.066a15.587,15.587,0,0,0-2.782-3.125h28.4a1.188,1.188,0,0,0,1.188-1.188h0a1.188,1.188,0,0,0-1.188-1.188H33.542a15.452,15.452,0,0,0-12.625,0H1.189A1.188,1.188,0,0,0,0,2.876v5.5A1.188,1.188,0,0,0,1.189,9.566h3.17V51.121A1.188,1.188,0,0,0,5.547,52.31h0a1.188,1.188,0,0,0,1.188-1.188V9.566h6.346a15.464,15.464,0,1,0,28.3,0H73.266V72.356H70.512V53.762a1.188,1.188,0,0,0-1.188-1.188H48.872a1.188,1.188,0,0,0-1.188,1.188V72.356H6.735V56.666a1.188,1.188,0,0,0-1.188-1.188h0a1.188,1.188,0,0,0-1.188,1.188V72.356H1.188A1.188,1.188,0,0,0,0,73.544v5.5a1.188,1.188,0,0,0,1.188,1.188H78.811A1.188,1.188,0,0,0,80,79.046v-5.5a1.188,1.188,0,0,0-1.188-1.188H75.642V9.566ZM5.547,7.19H2.377V4.064h14.8A15.586,15.586,0,0,0,14.393,7.19H5.547Zm21.683,21.7A13.088,13.088,0,1,1,40.317,15.8,13.1,13.1,0,0,1,27.23,28.892ZM60.287,72.355V59.781h7.85V72.355Zm7.85-17.406v2.455H50.06V54.95ZM50.06,59.782h7.85V72.356H50.06V59.782ZM77.623,77.858H2.376V74.732H77.623Z"/>
    <path id="Path_105582" data-name="Path 105582" d="M305.178,229.025a1.188,1.188,0,0,0,1.188,1.188h7.72a1.188,1.188,0,0,0,1.188-1.188v-14.1a1.188,1.188,0,0,0-1.188-1.188h-7.72a1.188,1.188,0,0,0-1.188,1.188Zm2.376-1.188V220.63H312.9v7.207Zm5.344-11.722v2.138h-5.344v-2.138Z" transform="translate(-257.494 -180.055)"/>
    <path id="Path_105583" data-name="Path 105583" d="M143.4,230.213h7.72a1.188,1.188,0,0,0,1.188-1.188v-14.1a1.188,1.188,0,0,0-1.188-1.188H143.4a1.188,1.188,0,0,0-1.188,1.188v14.1A1.188,1.188,0,0,0,143.4,230.213Zm1.188-2.376V220.63h5.344v7.207Zm5.344-11.722v2.138h-5.344v-2.138Z" transform="translate(-119.987 -180.055)"/>
    <path id="Path_105584" data-name="Path 105584" d="M386.662,229.025a1.188,1.188,0,0,0,1.188,1.188h7.72a1.188,1.188,0,0,0,1.188-1.188v-14.1a1.188,1.188,0,0,0-1.188-1.188h-7.72a1.188,1.188,0,0,0-1.188,1.188Zm2.376-1.188V220.63h5.344v7.207Zm5.344-11.722v2.138h-5.344v-2.138Z" transform="translate(-326.246 -180.055)"/>
    <path id="Path_105585" data-name="Path 105585" d="M224.88,230.213h7.72a1.188,1.188,0,0,0,1.188-1.188v-14.1a1.188,1.188,0,0,0-1.188-1.188h-7.72a1.188,1.188,0,0,0-1.188,1.188v14.1A1.188,1.188,0,0,0,224.88,230.213Zm1.188-2.376V220.63h5.344v7.207Zm5.344-11.722v2.138h-5.344v-2.138Z" transform="translate(-188.74 -180.055)"/>
    <path id="Path_105586" data-name="Path 105586" d="M61.91,230.213h7.72a1.188,1.188,0,0,0,1.188-1.188v-14.1a1.188,1.188,0,0,0-1.188-1.188H61.91a1.188,1.188,0,0,0-1.188,1.188v14.1A1.188,1.188,0,0,0,61.91,230.213Zm1.188-2.376V220.63h5.344v7.207Zm5.344-11.722v2.138H63.1v-2.138Z" transform="translate(-51.234 -180.055)"/>
    <path id="Path_105587" data-name="Path 105587" d="M142.207,349.921a1.188,1.188,0,0,0,1.188,1.188h7.72a1.188,1.188,0,0,0,1.188-1.188v-14.1a1.188,1.188,0,0,0-1.188-1.188H143.4a1.188,1.188,0,0,0-1.188,1.188Zm2.376-1.188v-7.208h5.344v7.208Zm5.344-11.722v2.138h-5.344v-2.138Z" transform="translate(-119.987 -282.061)"/>
    <path id="Path_105588" data-name="Path 105588" d="M223.692,349.92a1.188,1.188,0,0,0,1.188,1.188h7.72a1.188,1.188,0,0,0,1.188-1.188v-9.577s0-.005,0-.008v-4.513h0a1.188,1.188,0,0,0-1.188-1.188h-7.72a1.188,1.188,0,0,0-1.188,1.188v14.1Zm2.376-1.188v-7.208h5.344v7.208Zm5.344-11.722v2.138h-5.344V337.01Z" transform="translate(-188.74 -282.061)"/>
    <path id="Path_105589" data-name="Path 105589" d="M60.722,349.921a1.188,1.188,0,0,0,1.188,1.188h7.72a1.188,1.188,0,0,0,1.188-1.188v-14.1a1.188,1.188,0,0,0-1.188-1.188H61.91a1.188,1.188,0,0,0-1.188,1.188v14.1Zm2.376-1.188v-7.208h5.344v7.208Zm5.344-11.722v2.138H63.1v-2.138Z" transform="translate(-51.234 -282.061)"/>
    <path id="Path_105590" data-name="Path 105590" d="M306.365,109.318h7.72a1.188,1.188,0,0,0,1.188-1.188v-14.1a1.188,1.188,0,0,0-1.188-1.188h-7.72a1.188,1.188,0,0,0-1.188,1.188v14.1A1.188,1.188,0,0,0,306.365,109.318Zm1.188-2.376V99.735H312.9v7.207ZM312.9,95.219v2.139h-5.344V95.219Z" transform="translate(-257.493 -78.049)"/>
    <path id="Path_105591" data-name="Path 105591" d="M387.85,109.318h7.72a1.188,1.188,0,0,0,1.188-1.188v-14.1a1.188,1.188,0,0,0-1.188-1.188h-7.72a1.188,1.188,0,0,0-1.188,1.188v14.1A1.188,1.188,0,0,0,387.85,109.318Zm1.188-2.376V99.735h5.344v7.207Zm5.344-11.722v2.139h-5.344V95.219Z" transform="translate(-326.246 -78.049)"/>
  </g>
</svg>
