<svg xmlns="http://www.w3.org/2000/svg" width="152" height="153" viewBox="0 0 152 153">
  <g id="t1-i29" transform="translate(-982 -9753)">
    <ellipse id="Ellipse_4065" data-name="Ellipse 4065" cx="76" cy="76.5" rx="76" ry="76.5" transform="translate(982 9753)" fill="#fff"/>
    <g id="solucion" transform="translate(1011 9782.004)">
      <path id="Path_135172" data-name="Path 135172" d="M34.317,27H51V18h4.5a4.5,4.5,0,0,0,0-9H51V3H31.5A4.5,4.5,0,0,0,27,7.5V25.234l1.725-.832A4.116,4.116,0,0,1,34.317,27Z" transform="translate(12.5 0.502)" fill="#f2a811"/>
      <path id="Path_135173" data-name="Path 135173" d="M64.5,43.5a4.5,4.5,0,1,1-9,0V39H48v6H43.5a4.5,4.5,0,0,0,0,9H48v9H67.5A4.5,4.5,0,0,0,72,58.5V39H64.5Z" transform="translate(18.5 18.502)" fill="#10bde0"/>
      <path id="Path_135174" data-name="Path 135174" d="M64.5,23H45v6h4.5a4.5,4.5,0,1,1,0,9H45v9h7.5v4.5a4.5,4.5,0,0,0,9,0V47H69V27.5A4.5,4.5,0,0,0,64.5,23Z" transform="translate(21.5 10.502)" fill="#8ef059"/>
      <path id="Path_135175" data-name="Path 135175" d="M48.5,54a4.5,4.5,0,0,1,0-9H53V39H29V58.5A4.5,4.5,0,0,0,33.5,63H53V54Z" transform="translate(13.5 18.502)" fill="#e3d810"/>
      <circle id="Ellipse_4188" data-name="Ellipse 4188" cx="10.5" cy="10.5" r="10.5" transform="translate(12.5 3.502)" fill="#d9d9d9"/>
      <path id="Path_135176" data-name="Path 135176" d="M46.317,20a4.116,4.116,0,0,0-5.592-2.6L39,18.236,30.783,22.2a10.482,10.482,0,0,0-7.008-5.008,10.662,10.662,0,0,0-12.352,7.771L5.446,43.793a21.039,21.039,0,0,0,.9,15.07,21.046,21.046,0,0,1-.334,18.115L3,83H19.5a5.991,5.991,0,0,0-4.591-5.817l1.455-2.91A21.042,21.042,0,0,0,18.246,61.1l-1.113-6.12a2.952,2.952,0,1,1,5.808-1.05l2.037,11.206a32.268,32.268,0,0,1,.522,5.779V83H42a5.971,5.971,0,0,0-.041-.7,5.583,5.583,0,0,0-8.359-3.93l-1.326.75,1.6-7.987A32.293,32.293,0,0,0,34.5,64.8V51.5L32.664,30.38l11.365-5.428A4.078,4.078,0,0,0,46.317,20Z" transform="translate(0.5 7.501)" fill="#d9d9d9"/>
      <path id="Path_135177" data-name="Path 135177" d="M73,22H53.5A1.5,1.5,0,0,0,52,23.5v6A1.5,1.5,0,0,0,53.5,31H58a3,3,0,1,1,0,6H53.5A1.5,1.5,0,0,0,52,38.5V46H29.5A1.5,1.5,0,0,0,28,47.5V67a6,6,0,0,0,6,6H73a6,6,0,0,0,6-6V28A6,6,0,0,0,73,22ZM58,40a6,6,0,1,0,0-12H55V25H73a3,3,0,0,1,3,3V46H70a1.5,1.5,0,0,0-1.5,1.5V52a3,3,0,1,1-6,0V47.5A1.5,1.5,0,0,0,61,46H55V40ZM52,70H34a3,3,0,0,1-3-3V49H52v3H49a6,6,0,0,0,0,12h3Zm24-3a3,3,0,0,1-3,3H55V62.5A1.5,1.5,0,0,0,53.5,61H49a3,3,0,1,1,0-6h4.5A1.5,1.5,0,0,0,55,53.5V49h4.5v3a6,6,0,1,0,12,0V49H76Z" transform="translate(13 10.002)"/>
      <path id="Path_135178" data-name="Path 135178" d="M3.5,92H20a1.5,1.5,0,0,0,1.5-1.5,7.458,7.458,0,0,0-4.011-6.625l.717-1.431a22.672,22.672,0,0,0,2.014-14.112l-1.113-6.12a1.453,1.453,0,0,1,2.859-.52L24,72.9a30.916,30.916,0,0,1,.5,5.517V90.5A1.5,1.5,0,0,0,26,92H42.5A1.5,1.5,0,0,0,44,90.5a7.517,7.517,0,0,0-.051-.871,6.642,6.642,0,0,0-3.7-5.221,7.269,7.269,0,0,0-5.409-.48l1-4.992A33.933,33.933,0,0,0,36.5,72.3V58.873L34.748,38.786,45.156,33.82A5.605,5.605,0,0,0,48.476,29H63.5A1.5,1.5,0,0,0,65,27.5V20h3A6,6,0,0,0,68,8H65V3.5A1.5,1.5,0,0,0,63.5,2H44a6,6,0,0,0-6,6V24.8l-6.205,3a12.225,12.225,0,0,0-3.414-3.078A12,12,0,1,0,16.847,24.3a12.028,12.028,0,0,0-6.354,7.728L4.517,50.84a22.5,22.5,0,0,0,.964,16.144A19.459,19.459,0,0,1,5.17,83.809L2.158,89.831A1.5,1.5,0,0,0,3.5,92ZM43.929,31.084l-.045.02L23.672,40.747a2.567,2.567,0,0,1-2.221-4.629l20.374-9.84a2.622,2.622,0,0,1,3.675,2.4,2.625,2.625,0,0,1-1.57,2.4ZM44,5H62V9.5A1.5,1.5,0,0,0,63.5,11H68a3,3,0,0,1,0,6H63.5A1.5,1.5,0,0,0,62,18.5V26H47.823A5.605,5.605,0,0,0,41,23.4V8a3,3,0,0,1,3-3ZM14,14a9,9,0,1,1,9,9A9,9,0,0,1,14,14ZM7.85,85.15a22.452,22.452,0,0,0,.36-19.407,19.5,19.5,0,0,1-.837-13.995l6-18.9A9.216,9.216,0,0,1,23.995,26.17a8.85,8.85,0,0,1,5.02,2.964L20.15,33.416a5.566,5.566,0,0,0,4.815,10.038l6.9-3.289L33.5,59V72.3a31.05,31.05,0,0,1-.6,6.048l-1.6,7.989a1.5,1.5,0,0,0,2.215,1.6l1.326-.759a4.269,4.269,0,0,1,4.05-.088A3.768,3.768,0,0,1,40.716,89H27.5V78.418a33.852,33.852,0,0,0-.546-6.052L24.917,61.157a4.452,4.452,0,1,0-8.76,1.593l1.115,6.12A19.66,19.66,0,0,1,15.523,81.1l-1.456,2.911a1.5,1.5,0,0,0,.984,2.137A4.483,4.483,0,0,1,18.242,89H5.927Z" transform="translate(0 0)"/>
      <path id="Path_135179" data-name="Path 135179" d="M35.353,34.379l-4.939-4.939L28.293,31.56l10.5,10.5a1.5,1.5,0,0,0,2.121,0l10.5-10.5-2.121-2.121-4.939,4.939V26h-3V37.379l-1.5,1.5-1.5-1.5V32h-3Z" transform="translate(13.146 12.002)"/>
      <path id="Path_135180" data-name="Path 135180" d="M33,26h3v3H33Z" transform="translate(15.5 12.002)"/>
      <path id="Path_135181" data-name="Path 135181" d="M33,22h3v3H33Z" transform="translate(15.5 10.002)"/>
      <path id="Path_135182" data-name="Path 135182" d="M37,22h3v3H37Z" transform="translate(17.5 10.002)"/>
    </g>
  </g>
</svg>
