<svg id="t1-i6" xmlns="http://www.w3.org/2000/svg" width="80" height="80" viewBox="0 0 80 80">
  <path id="Path_105592" data-name="Path 105592" d="M202.933,34.133h-6.667v4a1.333,1.333,0,0,0,1.334,1.333h9.333a1.333,1.333,0,0,0,1.333-1.333V35.466a1.333,1.333,0,0,0-1.333-1.334Zm0,0" transform="translate(-165.6 -28.8)" fill="#fb9e36"/>
  <path id="Path_105593" data-name="Path 105593" d="M163.467,8.535H172.8a1.333,1.333,0,0,1,1.334,1.333v2.667a1.333,1.333,0,0,1-1.334,1.334H162.133v-4a1.333,1.333,0,0,1,1.334-1.333Zm0,0" transform="translate(-136.8 -7.202)" fill="#f1d54e"/>
  <path id="Path_105594" data-name="Path 105594" d="M82.933,102.4a14.667,14.667,0,0,0-14.667,14.667H85.354a20.046,20.046,0,0,1,10.832-6.248A14.654,14.654,0,0,0,82.932,102.4Zm0,0" transform="translate(-57.599 -86.398)" fill="#f6f6f6"/>
  <g id="Group_91653" data-name="Group 91653" transform="translate(8 16)">
    <path id="Path_105595" data-name="Path 105595" d="M119.465,230.4H126.8v13.334h-7.333Zm0,0" transform="translate(-108.798 -210.398)" fill="#e8e8e8"/>
    <path id="Path_105596" data-name="Path 105596" d="M51.2,230.4h5.333v13.334H51.2Zm0,0" transform="translate(-51.199 -210.398)" fill="#e8e8e8"/>
    <path id="Path_105597" data-name="Path 105597" d="M126.585,112.9c-.642-4.336-2.466-10.5-7.652-10.5-8,0-8,14.667-8,14.667h15.652Zm0,0" transform="translate(-101.6 -102.398)" fill="#e8e8e8"/>
  </g>
  <path id="Path_105598" data-name="Path 105598" d="M52.185,315.734H35.466a1.333,1.333,0,0,0-1.334,1.333v2.667a1.333,1.333,0,0,0,1.334,1.334H54.545a19.865,19.865,0,0,1-2.36-5.333Zm0,0" transform="translate(-28.8 -266.401)" fill="#afafaf"/>
  <path id="Path_105599" data-name="Path 105599" d="M56.555,196.266H35.466a1.333,1.333,0,0,0-1.334,1.334v2.667a1.333,1.333,0,0,0,1.334,1.333H53.131a19.907,19.907,0,0,1,3.424-5.333Zm0,0" transform="translate(-28.8 -165.599)" fill="#afafaf"/>
  <path id="Path_105600" data-name="Path 105600" d="M85.332,230.4h5.333v13.334H85.332Zm0,0" transform="translate(-71.999 -194.398)" fill="#cfd8dc"/>
  <path id="Path_105601" data-name="Path 105601" d="M31.333,344h-30a1.333,1.333,0,1,1,0-2.667h30a1.333,1.333,0,0,1,0,2.667Zm0,0" transform="translate(0 -287.999)" fill="#4c8056"/>
  <path id="Path_105602" data-name="Path 105602" d="M185.063,173.6a20.008,20.008,0,0,1-20,20,15.806,15.806,0,0,1-1.96-.107c-.027,0-.054.013-.08,0a20,20,0,0,1,0-39.787c.026-.013.053,0,.08,0a15.812,15.812,0,0,1,1.96-.106,20.007,20.007,0,0,1,20,20Zm0,0" transform="translate(-122.396 -129.599)" fill="#12995c"/>
  <path id="Path_105603" data-name="Path 105603" d="M181.064,174.145a20.015,20.015,0,0,1-17.96,19.893c-.027,0-.054.013-.08,0a20,20,0,0,1,0-39.787c.026-.013.053,0,.08,0A20.015,20.015,0,0,1,181.064,174.145Zm0,0" transform="translate(-122.397 -130.145)" fill="#17c878"/>
  <path id="Path_105604" data-name="Path 105604" d="M208.533,202.4a14.658,14.658,0,0,1-14.667,14.666,12.327,12.327,0,0,1-2-.146,14.656,14.656,0,0,1,0-29.04,12.4,12.4,0,0,1,2-.146A14.658,14.658,0,0,1,208.533,202.4Zm0,0" transform="translate(-151.2 -158.399)" fill="#afafaf"/>
  <path id="Path_105605" data-name="Path 105605" d="M204.532,203.193c0-8.019-5.671-14.52-12.667-14.52s-12.667,6.5-12.667,14.52,5.671,14.52,12.667,14.52S204.532,211.211,204.532,203.193Zm0,0" transform="translate(-151.199 -159.192)" fill="#e8e8e8"/>
  <path id="Path_105606" data-name="Path 105606" d="M405.82,400.166l-5.654,5.654-2.827-2.827a1.328,1.328,0,0,1,0-1.88l3.773-3.773a1.328,1.328,0,0,1,1.88,0Zm0,0" transform="translate(-334.926 -334.926)" fill="#afafaf"/>
  <path id="Path_105607" data-name="Path 105607" d="M402.526,413.592l-3.027,3.027-2.16-2.16a1.328,1.328,0,0,1,0-1.88l2.04-2.04a1.083,1.083,0,0,1,.32.226Zm0,0" transform="translate(-334.926 -346.392)" fill="#f6f6f6"/>
  <path id="Path_105608" data-name="Path 105608" d="M429.789,429.789a4,4,0,0,1-5.653,0l-6.6-6.6,5.654-5.654,6.6,6.6A4,4,0,0,1,429.789,429.789Zm0,0" transform="translate(-352.296 -352.295)" fill="#17c878"/>
  <path id="Path_105609" data-name="Path 105609" d="M427.735,444.995a3.981,3.981,0,0,1-3.6-1.093l-6.6-6.6,3.04-3.04,6.32,6.32a3.992,3.992,0,0,1,.84,4.413Zm0,0" transform="translate(-352.295 -366.408)" fill="#12995c"/>
  <path id="Path_105610" data-name="Path 105610" d="M375.289,379.061l3.771-3.771,3.771,3.771-3.771,3.771Zm0,0" transform="translate(-316.65 -316.65)" fill="#f6f6f6"/>
  <path id="Path_105611" data-name="Path 105611" d="M356.721,349.4l-2.535-2.559a20.036,20.036,0,0,1-5.374,5.928l2.252,2.288a1.333,1.333,0,0,0,1.886,0l3.771-3.771a1.333,1.333,0,0,0,0-1.886Zm0,0" transform="translate(-294.311 -292.65)" fill="#afafaf"/>
  <path id="Path_105612" data-name="Path 105612" d="M351.2,8.535h21.334a1.333,1.333,0,0,1,1.333,1.333V28.535a1.333,1.333,0,0,1-1.333,1.333H351.2a1.333,1.333,0,0,1-1.333-1.333V9.868A1.333,1.333,0,0,1,351.2,8.535Zm0,0" transform="translate(-295.2 -7.202)" fill="#b0ddc9"/>
  <path id="Path_105613" data-name="Path 105613" d="M351.2,8.535h17.333a1.333,1.333,0,0,1,1.334,1.333V28.535a1.333,1.333,0,0,1-1.334,1.333H351.2a1.333,1.333,0,0,1-1.333-1.333V9.868A1.333,1.333,0,0,1,351.2,8.535Zm0,0" transform="translate(-295.2 -7.202)" fill="#d2f6e6"/>
  <path id="Path_105614" data-name="Path 105614" d="M243.735,228.534a6.669,6.669,0,0,1-6.667,6.666,7.116,7.116,0,0,1-2-.293,6.686,6.686,0,0,1,0-12.747,7.116,7.116,0,0,1,2-.293A6.669,6.669,0,0,1,243.735,228.534Zm0,0" transform="translate(-194.402 -187.2)" fill="#dfc49c"/>
  <path id="Path_105615" data-name="Path 105615" d="M239.732,230.116c0-3.52-2.089-6.374-4.667-6.374s-4.667,2.854-4.667,6.374,2.09,6.373,4.667,6.373S239.732,233.636,239.732,230.116Zm0,0" transform="translate(-194.399 -188.782)" fill="#ffe0b2"/>
  <path id="Path_105616" data-name="Path 105616" d="M226.075,298.839a14.575,14.575,0,0,1-6.373,3.973,14.369,14.369,0,0,1-4.307.653,14.619,14.619,0,0,1-10.68-4.626l.013-3.373a5.367,5.367,0,0,1,1.56-3.773c.093-.093.2-.187.306-.28a5.314,5.314,0,0,1,3.467-1.28,6.222,6.222,0,0,0,1.253,1.254,6.615,6.615,0,0,0,9.174-.974,2.234,2.234,0,0,0,.24-.28,5.332,5.332,0,0,1,5.333,5.333Zm0,0" transform="translate(-172.728 -244.799)" fill="#fb9e36"/>
  <path id="Path_105617" data-name="Path 105617" d="M222.328,301.752a19.171,19.171,0,0,1-2.627,2.573,14.372,14.372,0,0,1-4.307.653,14.619,14.619,0,0,1-10.68-4.626l.013-3.373a5.367,5.367,0,0,1,1.56-3.773c.093-.093.2-.187.306-.28a7.389,7.389,0,0,0,2.307.374,7.634,7.634,0,0,0,2.413-.4,6.615,6.615,0,0,0,9.174-.974,7.887,7.887,0,0,1,1.813,5.107Zm0,0" transform="translate(-172.728 -246.312)" fill="#f1d54e"/>
  <path id="Path_105618" data-name="Path 105618" d="M27.2,393.333a9.326,9.326,0,0,1-9.333,9.333,9.751,9.751,0,0,1-2-.213,9.338,9.338,0,0,1,0-18.24,9.8,9.8,0,0,1,2-.214,9.327,9.327,0,0,1,9.333,9.333Zm0,0" transform="translate(-7.202 -324)" fill="#fb9e36"/>
  <path id="Path_105619" data-name="Path 105619" d="M23.2,394.487a9.337,9.337,0,0,1-7.333,9.12,9.338,9.338,0,0,1,0-18.24A9.336,9.336,0,0,1,23.2,394.487Zm0,0" transform="translate(-7.201 -325.153)" fill="#f1d54e"/>
  <path id="Path_105620" data-name="Path 105620" d="M77.6,393.333a9.279,9.279,0,0,1-2.733,6.6l-6.6-6.6V384a9.327,9.327,0,0,1,9.333,9.334Zm0,0" transform="translate(-57.599 -324)" fill="#b0ddc9"/>
  <path id="Path_105621" data-name="Path 105621" d="M73.6,398.228a9.277,9.277,0,0,1-1.04,4.293l-4.293-4.293V389.8a9.3,9.3,0,0,1,5.333,8.427Zm0,0" transform="translate(-57.599 -328.894)" fill="#d2f6e6"/>
  <path id="Path_105622" data-name="Path 105622" d="M49.334,237.867H44a1.333,1.333,0,0,1-1.333-1.333V223.2A1.333,1.333,0,0,1,44,221.868h5.333a1.333,1.333,0,0,1,1.334,1.333v13.334A1.333,1.333,0,0,1,49.334,237.867Zm-4-2.667H48V224.534H45.335Zm0,0" transform="translate(-36.001 -187.201)"/>
  <path id="Path_105623" data-name="Path 105623" d="M112.267,237.867a1.333,1.333,0,0,1-1.333-1.333V223.2a1.333,1.333,0,0,1,2.667,0v13.334A1.333,1.333,0,0,1,112.267,237.867Zm0,0" transform="translate(-93.601 -187.201)"/>
  <path id="Path_105624" data-name="Path 105624" d="M166.935,8h-12A1.333,1.333,0,0,1,153.6,6.667V1.334A1.333,1.333,0,0,1,154.935,0h12a1.333,1.333,0,0,1,1.333,1.334V6.667A1.333,1.333,0,0,1,166.935,8ZM156.269,5.333H165.6V2.667h-9.333Zm0,0" transform="translate(-129.602)"/>
  <path id="Path_105625" data-name="Path 105625" d="M201.067,33.6h-12a1.333,1.333,0,0,1-1.333-1.334v-4a1.333,1.333,0,0,1,1.333-1.334H194.4a1.333,1.333,0,0,1,1.334-1.333h5.333a1.333,1.333,0,0,1,1.334,1.333v5.333a1.333,1.333,0,0,1-1.334,1.334ZM190.4,30.935h9.334V28.268h-2.667a1.333,1.333,0,0,1-1.333,1.333H190.4Zm0,0" transform="translate(-158.401 -21.601)"/>
  <path id="Path_105626" data-name="Path 105626" d="M154.935,46.133A1.333,1.333,0,0,1,153.6,44.8V35.467a1.333,1.333,0,1,1,2.667,0V44.8A1.333,1.333,0,0,1,154.935,46.133Zm0,0" transform="translate(-129.602 -28.8)"/>
  <path id="Path_105627" data-name="Path 105627" d="M103.732,111.2a1.333,1.333,0,0,1-1.334-1.334c0-.653.106-16,9.333-16a1.333,1.333,0,1,1,0,2.667c-6.486,0-6.667,13.2-6.667,13.333a1.333,1.333,0,0,1-1.333,1.334Zm0,0" transform="translate(-86.399 -79.201)"/>
  <path id="Path_105628" data-name="Path 105628" d="M162.584,107.031a1.333,1.333,0,0,1-1.317-1.138c-.517-3.5-2.026-9.359-6.332-9.359a1.333,1.333,0,0,1,0-2.667c4.676,0,7.862,4.133,8.97,11.635a1.333,1.333,0,0,1-1.124,1.514,1.522,1.522,0,0,1-.2.015Zm0,0" transform="translate(-129.602 -79.2)"/>
  <path id="Path_105629" data-name="Path 105629" d="M154.935,111.2a1.333,1.333,0,0,1-1.333-1.334V95.2a1.333,1.333,0,0,1,2.667,0v14.667A1.333,1.333,0,0,1,154.935,111.2Zm0,0" transform="translate(-129.602 -79.201)"/>
  <path id="Path_105630" data-name="Path 105630" d="M25.746,344H1.333a1.333,1.333,0,1,1,0-2.667H25.746a1.333,1.333,0,1,1,0,2.667Zm0,0" transform="translate(0 -287.999)"/>
  <path id="Path_105631" data-name="Path 105631" d="M157.868,187.734A21.333,21.333,0,1,1,179.2,166.4,21.333,21.333,0,0,1,157.868,187.734Zm0-40A18.667,18.667,0,1,0,176.535,166.4,18.667,18.667,0,0,0,157.868,147.734Zm0,0" transform="translate(-115.202 -122.4)"/>
  <path id="Path_105632" data-name="Path 105632" d="M186.668,211.2a16,16,0,1,1,16-16A16,16,0,0,1,186.668,211.2Zm0-29.333A13.333,13.333,0,1,0,200,195.2,13.333,13.333,0,0,0,186.668,181.867Zm0,0" transform="translate(-144.001 -151.2)"/>
  <path id="Path_105633" data-name="Path 105633" d="M402.371,407.7a5.292,5.292,0,0,1-3.771-1.562l-9.429-9.429a2.666,2.666,0,0,1,0-3.771l3.771-3.771a2.651,2.651,0,0,1,1.886-.781h0a2.644,2.644,0,0,1,1.884.782l9.426,9.427a5.334,5.334,0,0,1-3.77,9.1Zm-7.543-16.647-3.771,3.771,9.429,9.428a2.73,2.73,0,0,0,3.771,0,2.666,2.666,0,0,0,0-3.771Zm0,0" transform="translate(-327.705 -327.705)"/>
  <path id="Path_105634" data-name="Path 105634" d="M371.862,376.966a1.329,1.329,0,0,1-.943-.39l-3.771-3.771a1.333,1.333,0,0,1,0-1.885l3.771-3.771a1.333,1.333,0,0,1,1.885,0l3.771,3.771a1.334,1.334,0,0,1,0,1.885l-3.771,3.771A1.328,1.328,0,0,1,371.862,376.966Zm-1.885-5.1,1.885,1.885,1.885-1.885-1.885-1.885Zm0,0" transform="translate(-309.452 -309.452)"/>
  <path id="Path_105635" data-name="Path 105635" d="M410.324,417.393a1.333,1.333,0,0,1-.942-2.276l5.657-5.657a1.333,1.333,0,0,1,1.885,1.885L411.267,417a1.326,1.326,0,0,1-.943.391Zm0,0" transform="translate(-345.086 -345.164)"/>
  <path id="Path_105636" data-name="Path 105636" d="M344.8,349.586a2.658,2.658,0,0,1-1.885-.78l-2.259-2.3a1.332,1.332,0,0,1,.162-2.011,18.607,18.607,0,0,0,5.016-5.533,1.333,1.333,0,0,1,2.092-.258l2.535,2.559a2.67,2.67,0,0,1,0,3.768l-3.771,3.771A2.661,2.661,0,0,1,344.8,349.586Zm-1.2-3.887,1.208,1.229,3.764-3.779,0,0-1.371-1.384a21.113,21.113,0,0,1-3.6,3.938Zm0,0" transform="translate(-287.106 -285.453)"/>
  <path id="Path_105637" data-name="Path 105637" d="M47.348,315.2H28.268a2.67,2.67,0,0,1-2.667-2.667v-2.667a2.67,2.67,0,0,1,2.667-2.667H44.987a1.332,1.332,0,0,1,1.285.978,18.59,18.59,0,0,0,2.2,4.977,1.333,1.333,0,0,1-1.126,2.045Zm-19.08-5.333v2.667H45.079A21.259,21.259,0,0,1,44,309.865Zm0,0" transform="translate(-21.601 -259.199)"/>
  <path id="Path_105638" data-name="Path 105638" d="M45.932,195.735H28.268a2.67,2.67,0,0,1-2.667-2.667V190.4a2.67,2.67,0,0,1,2.667-2.667H49.356a1.333,1.333,0,0,1,.992,2.224,18.554,18.554,0,0,0-3.2,4.976A1.334,1.334,0,0,1,45.932,195.735ZM28.268,190.4v2.667H45.079a21.336,21.336,0,0,1,1.544-2.667Zm0,0" transform="translate(-21.601 -158.401)"/>
  <path id="Path_105639" data-name="Path 105639" d="M78.156,111.194H61.068a1.333,1.333,0,0,1-1.333-1.334,15.99,15.99,0,0,1,30.46-6.816,1.335,1.335,0,0,1-.935,1.875,18.805,18.805,0,0,0-10.11,5.833,1.336,1.336,0,0,1-.992.443Zm-15.688-2.667h15.1a21.549,21.549,0,0,1,9.418-5.784,13.321,13.321,0,0,0-24.523,5.784Zm0,0" transform="translate(-50.401 -79.194)"/>
  <path id="Path_105640" data-name="Path 105640" d="M365.333,24H344a2.671,2.671,0,0,1-2.667-2.667V2.667A2.67,2.67,0,0,1,344,0h21.334A2.67,2.67,0,0,1,368,2.667V21.334A2.67,2.67,0,0,1,365.333,24ZM344,2.667V21.334h21.336l0-18.667Zm0,0" transform="translate(-288 0)"/>
  <path id="Path_105641" data-name="Path 105641" d="M389.463,153.717a1.333,1.333,0,0,1-.8-2.4l2.134-1.6a1.333,1.333,0,1,1,1.6,2.133l-2.134,1.6A1.328,1.328,0,0,1,389.463,153.717Zm6.4-4.8a1.334,1.334,0,0,1-.8-2.4l1.223-.916a1.332,1.332,0,0,0,.371-.428,1.333,1.333,0,1,1,2.338,1.281,3.973,3.973,0,0,1-1.114,1.284l-1.219.913a1.331,1.331,0,0,1-.8.268Zm2.288-7.049a1.333,1.333,0,0,1-1.333-1.334v-2.667a1.333,1.333,0,0,1,2.667,0v2.667A1.333,1.333,0,0,1,398.15,141.868Zm0,0" transform="translate(-327.483 -115.202)"/>
  <path id="Path_105642" data-name="Path 105642" d="M386.132,36.8H376.8a1.333,1.333,0,1,1,0-2.667h9.333a1.333,1.333,0,0,1,0,2.667Zm0,0" transform="translate(-316.798 -28.8)"/>
  <path id="Path_105643" data-name="Path 105643" d="M390.132,70.932H376.8a1.333,1.333,0,1,1,0-2.667h13.333a1.333,1.333,0,1,1,0,2.667Zm0,0" transform="translate(-316.799 -57.599)"/>
  <path id="Path_105644" data-name="Path 105644" d="M382.132,105.065H376.8a1.333,1.333,0,1,1,0-2.667h5.333a1.333,1.333,0,1,1,0,2.667Zm0,0" transform="translate(-316.799 -86.399)"/>
  <path id="Path_105645" data-name="Path 105645" d="M229.867,229.332a8,8,0,1,1,8-8A8,8,0,0,1,229.867,229.332Zm0-13.334a5.334,5.334,0,1,0,5.333,5.334A5.334,5.334,0,0,0,229.867,216Zm0,0" transform="translate(-187.2 -179.999)"/>
  <path id="Path_105646" data-name="Path 105646" d="M265.868,306.668a1.333,1.333,0,0,1-1.333-1.334V300a1.333,1.333,0,0,1,2.667,0v5.333A1.333,1.333,0,0,1,265.868,306.668Zm0,0" transform="translate(-223.201 -252.001)"/>
  <path id="Path_105647" data-name="Path 105647" d="M208.166,297.6a16.075,16.075,0,0,1-11.655-5.04,1.33,1.33,0,0,1-.364-.922l.018-3.38a6.673,6.673,0,0,1,6.667-6.658,1.333,1.333,0,0,1,1.064.53,5.334,5.334,0,0,0,8.539,0,1.333,1.333,0,0,1,1.064-.53,6.674,6.674,0,0,1,6.667,6.663l.02,3.375a1.328,1.328,0,0,1-.363.922,16.087,16.087,0,0,1-11.656,5.04Zm-9.349-6.5a13.329,13.329,0,0,0,18.7,0l-.017-2.83v-.008a4.006,4.006,0,0,0-3.414-3.957,7.991,7.991,0,0,1-11.841,0,4.006,4.006,0,0,0-3.412,3.957Zm0,0" transform="translate(-165.5 -237.601)"/>
  <path id="Path_105648" data-name="Path 105648" d="M140.684,409.067h-2.667a1.333,1.333,0,1,1,0-2.667h2.667a1.333,1.333,0,1,1,0,2.667Zm-8,0h-2.667a1.333,1.333,0,1,1,0-2.667h2.667a1.333,1.333,0,0,1,0,2.667Zm-8,0h-2.667a1.333,1.333,0,1,1,0-2.667h2.667a1.333,1.333,0,0,1,0,2.667Zm19.81-2.667a1.333,1.333,0,0,1-1.333-1.333V402.4a1.333,1.333,0,1,1,2.667,0v2.667A1.333,1.333,0,0,1,144.494,406.4Zm0,0" transform="translate(-101.827 -338.4)"/>
  <path id="Path_105649" data-name="Path 105649" d="M10.666,396.8a10.667,10.667,0,1,1,10.667-10.667A10.666,10.666,0,0,1,10.666,396.8Zm0-18.666a8,8,0,1,0,8,8,8,8,0,0,0-8-8Zm0,0" transform="translate(0 -316.799)"/>
  <path id="Path_105650" data-name="Path 105650" d="M67.666,394.064a1.328,1.328,0,0,1-.942-.391l-6.6-6.6a1.331,1.331,0,0,1-.391-.942V376.8a1.333,1.333,0,1,1,2.667,0v8.781l6.208,6.209a1.333,1.333,0,0,1-.942,2.276Zm0,0" transform="translate(-50.401 -316.798)"/>
</svg>
