<svg xmlns="http://www.w3.org/2000/svg" width="119.917" height="119.92" viewBox="0 0 119.917 119.92">
  <g id="t1-i33" transform="translate(5655.998 14)">
    <path id="Path_135234" data-name="Path 135234" d="M-5653.8,104.8l1.4-10.8,9.2-8.8V82.4l-4.2-6,4.2-9,4-2.4,5.4,1.2,3.2,4.4v5l-3.2,7.8a18.294,18.294,0,0,0,1.4,2.6c.6.8,7,4.2,7,4.8s2.4,6.2,2.4,7.2v5.4s-3.4,1.6-4.4,1.4S-5653.8,104.8-5653.8,104.8Z" transform="translate(0.002)" fill="#19db84"/>
    <path id="Path_135235" data-name="Path 135235" d="M-5611.4,104V95.8l6-8.6,6.8-3.2-4.4-3.2V71l6.4-6,5.6,2.2,2.4,3.8v7.6l-4.2,5.4,5.2,3.2,5.4,6.8,1.2,8v2Z" transform="translate(0.002)" fill="#fb9e36"/>
    <path id="Path_135236" data-name="Path 135236" d="M-5569.2,103l1.6-9.4,8.6-8.4,1.4-1.6-3.2-3.8V70.4l5.2-4.8h4.2l3.6,3,2.6,6.4-2.6,6.8-1.2,1.8,3.8,4.2,7,7.6V103Z" transform="translate(0.002)" fill="#19db84"/>
    <path id="Path_135237" data-name="Path 135237" d="M-5606.667,36l1.167,13.167h3.667l.667,5.667,4.5,2.167s2.833.5,3.333,0,3.167-5.667,3.167-5.667l1-2.167h2.5v-9L-5584,32l5.667-6.333,3.833-7.5,1.167-8.167L-5574.5.833l-7.833-9-7.833-3-9.167-1-7.333,2.333-6.667,4s-4.833,8.667-4.833,9.333-.833,8.833-.833,8.833l1.833,8.333,3.833,6.333a47.285,47.285,0,0,1,3.833,3.167C-5609.167,30.667-5606.667,36-5606.667,36Z" transform="translate(0.002)" fill="#f1d54e"/>
    <g id="team" transform="translate(-5656.005 -14.001)">
      <path id="Path_135231" data-name="Path 135231" d="M109.049,97.993a9.618,9.618,0,0,0,3.139-7.085V87.04a9.671,9.671,0,0,0-19.147-1.934H86.688a5.769,5.769,0,0,0-10.894,0H69.441A9.7,9.7,0,0,0,61.9,77.565V73.226a7.726,7.726,0,0,0,5.8-7.462h1.934a1.932,1.932,0,0,0,1.934-1.934v-5.8h3.868V54.16H71.571v-.021a13.3,13.3,0,0,1,4.812-9.971A25.131,25.131,0,0,0,58.929.025a25.461,25.461,0,0,0-24.1,24.664,25.078,25.078,0,0,0,8.56,19.338A14.106,14.106,0,0,1,48.341,54.16H44.493v3.868h3.868v5.8A1.932,1.932,0,0,0,50.3,65.765H52.23a7.725,7.725,0,0,0,5.8,7.462v4.339a9.7,9.7,0,0,0-7.542,7.541H44.137a5.769,5.769,0,0,0-10.894,0H26.89A9.671,9.671,0,0,0,7.744,87.04v3.868a9.617,9.617,0,0,0,3.138,7.085A17.426,17.426,0,0,0,.008,114.118v3.868a1.932,1.932,0,0,0,1.934,1.934H32.888a1.932,1.932,0,0,0,1.934-1.934v-3.868A17.427,17.427,0,0,0,23.946,97.994a9.618,9.618,0,0,0,3.139-7.085V88.974h6.158a5.769,5.769,0,0,0,10.894,0H50.3v1.934a9.617,9.617,0,0,0,3.138,7.085,17.426,17.426,0,0,0-10.875,16.125v3.868a1.932,1.932,0,0,0,1.934,1.934H75.439a1.932,1.932,0,0,0,1.934-1.934v-3.868A17.427,17.427,0,0,0,66.5,97.994a9.618,9.618,0,0,0,3.139-7.085V88.974h6.158a5.769,5.769,0,0,0,10.894,0h6.158v1.934a9.617,9.617,0,0,0,3.138,7.085A17.426,17.426,0,0,0,85.11,114.118v3.868a1.932,1.932,0,0,0,1.934,1.934h30.946a1.932,1.932,0,0,0,1.934-1.934v-3.868a17.427,17.427,0,0,0-10.876-16.125Zm-78.1,16.125v1.934H27.086v-3.868H23.217v3.868h-11.6v-3.868H7.744v3.868H3.876v-1.934a13.539,13.539,0,0,1,27.078,0ZM11.612,90.908V87.04a5.8,5.8,0,1,1,11.6,0v3.868a5.8,5.8,0,1,1-11.6,0ZM38.69,88.974a1.934,1.934,0,1,1,1.934-1.934A1.934,1.934,0,0,1,38.69,88.974Zm7.245-47.857a21.212,21.212,0,0,1-7.241-16.361A21.543,21.543,0,0,1,59.084,3.889,21.258,21.258,0,0,1,73.856,41.235a17.165,17.165,0,0,0-6.154,12.9v.021H52.21a17.964,17.964,0,0,0-6.275-13.042ZM67.7,58.028V61.9H52.229V58.028ZM56.1,65.765h7.737a3.868,3.868,0,0,1-7.737,0Zm17.407,48.354v1.934H69.637v-3.868H65.769v3.868h-11.6v-3.868H50.3v3.868H46.427v-1.934a13.539,13.539,0,0,1,27.078,0ZM54.164,90.909V87.04a5.8,5.8,0,0,1,11.6,0v3.868a5.8,5.8,0,0,1-11.6,0Zm27.078-1.934a1.934,1.934,0,1,1,1.934-1.934A1.934,1.934,0,0,1,81.242,88.974Zm15.473,1.934V87.04a5.8,5.8,0,0,1,11.6,0v3.868a5.8,5.8,0,0,1-11.6,0Zm19.341,25.144h-3.868v-3.868H108.32v3.868h-11.6v-3.868H92.847v3.868H88.978v-1.934a13.539,13.539,0,1,1,27.078,0Zm0,0"/>
      <path id="Path_135232" data-name="Path 135232" d="M232.008,192.012h7.737v3.868h-7.737Zm0,0" transform="translate(-175.91 -145.589)"/>
      <path id="Path_135233" data-name="Path 135233" d="M203.613,71.026V75.09h3.868V71.026a9.589,9.589,0,0,0,3.39-1.416l2.979,2.979,2.734-2.735-2.978-2.979a9.617,9.617,0,0,0,1.416-3.39h4.064V59.617h-4.064a9.616,9.616,0,0,0-1.416-3.39l2.978-2.979-2.734-2.735-2.979,2.979a9.589,9.589,0,0,0-3.39-1.416V48.012h-3.868v4.064a9.594,9.594,0,0,0-3.391,1.416l-2.979-2.979-2.734,2.735,2.979,2.979a9.6,9.6,0,0,0-1.417,3.39h-4.063v3.868h4.063a9.6,9.6,0,0,0,1.417,3.39l-2.979,2.979,2.734,2.735,2.979-2.979A9.594,9.594,0,0,0,203.613,71.026Zm1.934-15.278a5.8,5.8,0,1,1-5.8,5.8A5.81,5.81,0,0,1,205.547,55.748Zm0,0" transform="translate(-145.581 -36.403)"/>
    </g>
  </g>
</svg>
