<svg xmlns="http://www.w3.org/2000/svg" xmlns:xlink="http://www.w3.org/1999/xlink" width="186.633" height="184.099" viewBox="0 0 186.633 184.099">
  <defs>
    <linearGradient id="linear-gradient" y1="0.5" x2="1" y2="0.5" gradientUnits="objectBoundingBox">
      <stop offset="0.188" stop-color="#ffd234"/>
      <stop offset="0.986" stop-color="#ffb000"/>
    </linearGradient>
  </defs>
  <g id="t1-i25" transform="translate(-1987.092 -7550.107)">
    <ellipse id="Ellipse_4181" data-name="Ellipse 4181" cx="88.208" cy="8.504" rx="88.208" ry="8.504" transform="translate(1992.218 7708.2)" fill="#f2fff9"/>
    <ellipse id="Ellipse_4182" data-name="Ellipse 4182" cx="21.271" cy="5.858" rx="21.271" ry="5.858" transform="translate(2131.182 7722.489)" fill="#f2fff9"/>
    <g id="Group_92322" data-name="Group 92322" transform="translate(1987.092 7550.107)">
      <g id="Group_92294" data-name="Group 92294" transform="translate(40.309 139.796)">
        <g id="Group_92293" data-name="Group 92293">
          <path id="Path_134902" data-name="Path 134902" d="M2200.321,8041.786h-88.983a3.729,3.729,0,0,1-3.73-3.729h0a3.729,3.729,0,0,1,3.73-3.729h88.983a3.729,3.729,0,0,1,3.73,3.729h0A3.729,3.729,0,0,1,2200.321,8041.786Z" transform="translate(-2107.608 -8012.166)" fill="#c8cad7"/>
          <path id="Path_134903" data-name="Path 134903" d="M2221.292,7992.788h-61.6c11.35-4.389,12.3-13.984,11.681-19.846a24.187,24.187,0,0,0-.983-4.874h34.469a30.821,30.821,0,0,0-.827,4.874C2202.539,7990.894,2221.292,7992.788,2221.292,7992.788Z" transform="translate(-2142.269 -7968.068)" fill="#c8cad7"/>
        </g>
        <path id="Path_134904" data-name="Path 134904" d="M2226.143,7968.068a30.819,30.819,0,0,0-.826,4.874h-32.66a24.187,24.187,0,0,0-.983-4.874Z" transform="translate(-2163.556 -7968.068)" fill="#babecc"/>
      </g>
      <path id="Path_134905" data-name="Path 134905" d="M2164.153,7560.217V7682.11a10.111,10.111,0,0,1-10.109,10.112H1997.2a10.113,10.113,0,0,1-10.112-10.112V7560.217a10.111,10.111,0,0,1,10.112-10.11h156.84A10.109,10.109,0,0,1,2164.153,7560.217Z" transform="translate(-1987.092 -7550.107)" fill="#c8cad7"/>
      <path id="Path_134906" data-name="Path 134906" d="M2164.153,7560.217v109.4H1987.092v-109.4a10.111,10.111,0,0,1,10.112-10.11h156.84A10.109,10.109,0,0,1,2164.153,7560.217Z" transform="translate(-1987.092 -7550.107)" fill="#0a5936"/>
      <rect id="Rectangle_31836" data-name="Rectangle 31836" width="166.809" height="107.634" rx="5" transform="translate(5.126 7.102)" fill="#f2fff9"/>
      <path id="Path_134907" data-name="Path 134907" d="M2169.227,7576.237v2.669H2002.418v-2.669a4.9,4.9,0,0,1,4.9-4.9H2164.33A4.9,4.9,0,0,1,2169.227,7576.237Z" transform="translate(-1997.292 -7564.238)" fill="#c3ecfe"/>
      <path id="Path_134908" data-name="Path 134908" d="M2035.918,7579.835a2.278,2.278,0,1,1-2.278-2.278A2.278,2.278,0,0,1,2035.918,7579.835Z" transform="translate(-2016.555 -7568.376)" fill="#17c878"/>
      <path id="Path_134909" data-name="Path 134909" d="M2055.422,7579.835a2.278,2.278,0,1,1-2.278-2.278A2.278,2.278,0,0,1,2055.422,7579.835Z" transform="translate(-2029.535 -7568.376)" fill="#17c878"/>
      <path id="Path_134910" data-name="Path 134910" d="M2074.175,7579.835a2.278,2.278,0,1,1-2.278-2.278A2.278,2.278,0,0,1,2074.175,7579.835Z" transform="translate(-2042.016 -7568.376)" fill="#17c878"/>
      <g id="Group_92297" data-name="Group 92297" transform="translate(17.072 21.736)">
        <path id="Rectangle_31837" data-name="Rectangle 31837" d="M4.475,0H63.658a4.474,4.474,0,0,1,4.474,4.474V12.3a4.475,4.475,0,0,1-4.475,4.475H4.474A4.474,4.474,0,0,1,0,12.3V4.475A4.475,4.475,0,0,1,4.475,0Z" fill="#c3ecfe"/>
        <g id="Group_92296" data-name="Group 92296" transform="translate(2.136 2.398)">
          <g id="Group_92295" data-name="Group 92295">
            <path id="Path_134911" data-name="Path 134911" d="M2054.876,7634.241h-8.739a1.621,1.621,0,0,1-1.619-1.619v-8.739a1.621,1.621,0,0,1,1.619-1.619h8.739a1.621,1.621,0,0,1,1.619,1.619v8.739A1.621,1.621,0,0,1,2054.876,7634.241Zm-8.739-11.647a1.291,1.291,0,0,0-1.29,1.289v8.739a1.292,1.292,0,0,0,1.29,1.29h8.739a1.292,1.292,0,0,0,1.29-1.29v-8.739a1.291,1.291,0,0,0-1.29-1.289Z" transform="translate(-2044.518 -7622.264)" fill="#17c878"/>
          </g>
          <path id="Path_134912" data-name="Path 134912" d="M2140.978,7632.258h-43.287a1.575,1.575,0,0,1-1.576-1.575h0a1.576,1.576,0,0,1,1.576-1.576h43.287a1.576,1.576,0,0,1,1.576,1.576h0A1.575,1.575,0,0,1,2140.978,7632.258Z" transform="translate(-2078.857 -7626.818)" fill="#17c878"/>
          <path id="Path_134913" data-name="Path 134913" d="M2115,7644.96h-17.309a1.576,1.576,0,0,1-1.576-1.576h0a1.576,1.576,0,0,1,1.576-1.576H2115a1.576,1.576,0,0,1,1.576,1.576h0A1.576,1.576,0,0,1,2115,7644.96Z" transform="translate(-2078.857 -7635.272)" fill="#17c878"/>
        </g>
      </g>
      <g id="Group_92300" data-name="Group 92300" transform="translate(17.072 44.549)">
        <path id="Rectangle_31838" data-name="Rectangle 31838" d="M4.475,0H63.658a4.474,4.474,0,0,1,4.474,4.474V12.3a4.475,4.475,0,0,1-4.475,4.475H4.474A4.474,4.474,0,0,1,0,12.3V4.475A4.475,4.475,0,0,1,4.475,0Z" fill="#c3ecfe"/>
        <g id="Group_92299" data-name="Group 92299" transform="translate(2.136 2.398)">
          <g id="Group_92298" data-name="Group 92298">
            <path id="Path_134914" data-name="Path 134914" d="M2054.876,7702.448h-8.739a1.621,1.621,0,0,1-1.619-1.62v-8.739a1.621,1.621,0,0,1,1.619-1.619h8.739a1.621,1.621,0,0,1,1.619,1.619v8.739A1.621,1.621,0,0,1,2054.876,7702.448Zm-8.739-11.648a1.292,1.292,0,0,0-1.29,1.29v8.739a1.292,1.292,0,0,0,1.29,1.291h8.739a1.292,1.292,0,0,0,1.29-1.291v-8.739a1.292,1.292,0,0,0-1.29-1.29Z" transform="translate(-2044.518 -7690.47)" fill="#17c878"/>
          </g>
          <path id="Path_134915" data-name="Path 134915" d="M2140.978,7700.464h-43.287a1.575,1.575,0,0,1-1.576-1.575h0a1.576,1.576,0,0,1,1.576-1.576h43.287a1.575,1.575,0,0,1,1.576,1.576h0A1.575,1.575,0,0,1,2140.978,7700.464Z" transform="translate(-2078.857 -7695.024)" fill="#17c878"/>
          <path id="Path_134916" data-name="Path 134916" d="M2115,7713.167h-17.309a1.576,1.576,0,0,1-1.576-1.576h0a1.576,1.576,0,0,1,1.576-1.575H2115a1.576,1.576,0,0,1,1.576,1.575h0A1.576,1.576,0,0,1,2115,7713.167Z" transform="translate(-2078.857 -7703.479)" fill="#17c878"/>
        </g>
      </g>
      <g id="Group_92303" data-name="Group 92303" transform="translate(91.857 44.549)">
        <path id="Rectangle_31839" data-name="Rectangle 31839" d="M4.475,0H63.658a4.474,4.474,0,0,1,4.474,4.474V12.3a4.475,4.475,0,0,1-4.475,4.475H4.474A4.474,4.474,0,0,1,0,12.3V4.475A4.475,4.475,0,0,1,4.475,0Z" fill="#c3ecfe"/>
        <g id="Group_92302" data-name="Group 92302" transform="translate(2.136 2.398)">
          <g id="Group_92301" data-name="Group 92301">
            <path id="Path_134917" data-name="Path 134917" d="M2278.468,7702.448h-8.739a1.621,1.621,0,0,1-1.619-1.62v-8.739a1.621,1.621,0,0,1,1.619-1.619h8.739a1.621,1.621,0,0,1,1.619,1.619v8.739A1.621,1.621,0,0,1,2278.468,7702.448Zm-8.739-11.648a1.292,1.292,0,0,0-1.29,1.29v8.739a1.292,1.292,0,0,0,1.29,1.291h8.739a1.292,1.292,0,0,0,1.29-1.291v-8.739a1.292,1.292,0,0,0-1.29-1.29Z" transform="translate(-2268.11 -7690.47)" fill="#17c878"/>
          </g>
          <path id="Path_134918" data-name="Path 134918" d="M2364.57,7700.464h-43.287a1.575,1.575,0,0,1-1.576-1.575h0a1.575,1.575,0,0,1,1.576-1.576h43.287a1.576,1.576,0,0,1,1.576,1.576h0A1.575,1.575,0,0,1,2364.57,7700.464Z" transform="translate(-2302.449 -7695.024)" fill="#17c878"/>
          <path id="Path_134919" data-name="Path 134919" d="M2338.591,7713.167h-17.309a1.576,1.576,0,0,1-1.576-1.576h0a1.576,1.576,0,0,1,1.576-1.575h17.309a1.576,1.576,0,0,1,1.576,1.575h0A1.576,1.576,0,0,1,2338.591,7713.167Z" transform="translate(-2302.449 -7703.479)" fill="#17c878"/>
        </g>
      </g>
      <g id="Group_92306" data-name="Group 92306" transform="translate(17.072 91.205)">
        <path id="Rectangle_31840" data-name="Rectangle 31840" d="M4.475,0H63.658a4.474,4.474,0,0,1,4.474,4.474V12.3a4.475,4.475,0,0,1-4.475,4.475H4.474A4.474,4.474,0,0,1,0,12.3V4.475A4.475,4.475,0,0,1,4.475,0Z" fill="#c3ecfe"/>
        <g id="Group_92305" data-name="Group 92305" transform="translate(2.136 2.398)">
          <g id="Group_92304" data-name="Group 92304">
            <path id="Path_134920" data-name="Path 134920" d="M2054.876,7841.938h-8.739a1.62,1.62,0,0,1-1.619-1.619v-8.739a1.621,1.621,0,0,1,1.619-1.619h8.739a1.621,1.621,0,0,1,1.619,1.619v8.739A1.62,1.62,0,0,1,2054.876,7841.938Zm-8.739-11.648a1.291,1.291,0,0,0-1.29,1.291v8.739a1.291,1.291,0,0,0,1.29,1.29h8.739a1.291,1.291,0,0,0,1.29-1.29v-8.739a1.292,1.292,0,0,0-1.29-1.291Z" transform="translate(-2044.518 -7829.961)" fill="#17c878"/>
          </g>
          <path id="Path_134921" data-name="Path 134921" d="M2140.978,7839.955h-43.287a1.575,1.575,0,0,1-1.576-1.575h0a1.576,1.576,0,0,1,1.576-1.576h43.287a1.576,1.576,0,0,1,1.576,1.576h0A1.575,1.575,0,0,1,2140.978,7839.955Z" transform="translate(-2078.857 -7834.516)" fill="#17c878"/>
          <path id="Path_134922" data-name="Path 134922" d="M2115,7852.658h-17.309a1.576,1.576,0,0,1-1.576-1.576h0a1.575,1.575,0,0,1,1.576-1.575H2115a1.575,1.575,0,0,1,1.576,1.575h0A1.576,1.576,0,0,1,2115,7852.658Z" transform="translate(-2078.857 -7842.969)" fill="#17c878"/>
        </g>
      </g>
      <g id="Group_92309" data-name="Group 92309" transform="translate(91.857 91.205)">
        <path id="Rectangle_31841" data-name="Rectangle 31841" d="M4.475,0H63.658a4.474,4.474,0,0,1,4.474,4.474V12.3a4.475,4.475,0,0,1-4.475,4.475H4.474A4.474,4.474,0,0,1,0,12.3V4.475A4.475,4.475,0,0,1,4.475,0Z" fill="#c3ecfe"/>
        <g id="Group_92308" data-name="Group 92308" transform="translate(2.136 2.398)">
          <g id="Group_92307" data-name="Group 92307">
            <path id="Path_134923" data-name="Path 134923" d="M2278.468,7841.938h-8.739a1.62,1.62,0,0,1-1.619-1.619v-8.739a1.621,1.621,0,0,1,1.619-1.619h8.739a1.621,1.621,0,0,1,1.619,1.619v8.739A1.62,1.62,0,0,1,2278.468,7841.938Zm-8.739-11.648a1.292,1.292,0,0,0-1.29,1.291v8.739a1.292,1.292,0,0,0,1.29,1.29h8.739a1.291,1.291,0,0,0,1.29-1.29v-8.739a1.291,1.291,0,0,0-1.29-1.291Z" transform="translate(-2268.11 -7829.961)" fill="#17c878"/>
          </g>
          <path id="Path_134924" data-name="Path 134924" d="M2364.57,7839.955h-43.287a1.575,1.575,0,0,1-1.576-1.575h0a1.576,1.576,0,0,1,1.576-1.576h43.287a1.576,1.576,0,0,1,1.576,1.576h0A1.575,1.575,0,0,1,2364.57,7839.955Z" transform="translate(-2302.449 -7834.516)" fill="#17c878"/>
          <path id="Path_134925" data-name="Path 134925" d="M2338.591,7852.658h-17.309a1.576,1.576,0,0,1-1.576-1.576h0a1.575,1.575,0,0,1,1.576-1.575h17.309a1.575,1.575,0,0,1,1.576,1.575h0A1.576,1.576,0,0,1,2338.591,7852.658Z" transform="translate(-2302.449 -7842.969)" fill="#17c878"/>
        </g>
      </g>
      <g id="Group_92312" data-name="Group 92312" transform="translate(17.072 68.021)">
        <path id="Rectangle_31842" data-name="Rectangle 31842" d="M4.475,0H63.658a4.474,4.474,0,0,1,4.474,4.474V12.3a4.475,4.475,0,0,1-4.475,4.475H4.474A4.474,4.474,0,0,1,0,12.3V4.475A4.475,4.475,0,0,1,4.475,0Z" fill="#c3ecfe"/>
        <g id="Group_92311" data-name="Group 92311" transform="translate(2.136 2.398)">
          <g id="Group_92310" data-name="Group 92310">
            <path id="Path_134926" data-name="Path 134926" d="M2054.876,7772.623h-8.739a1.621,1.621,0,0,1-1.619-1.62v-8.739a1.621,1.621,0,0,1,1.619-1.619h8.739a1.621,1.621,0,0,1,1.619,1.619V7771A1.621,1.621,0,0,1,2054.876,7772.623Zm-8.739-11.648a1.291,1.291,0,0,0-1.29,1.289V7771a1.291,1.291,0,0,0,1.29,1.291h8.739a1.292,1.292,0,0,0,1.29-1.291v-8.739a1.291,1.291,0,0,0-1.29-1.289Z" transform="translate(-2044.518 -7760.645)" fill="#17c878"/>
          </g>
          <path id="Path_134927" data-name="Path 134927" d="M2140.978,7770.64h-43.287a1.576,1.576,0,0,1-1.576-1.576h0a1.576,1.576,0,0,1,1.576-1.576h43.287a1.576,1.576,0,0,1,1.576,1.576h0A1.576,1.576,0,0,1,2140.978,7770.64Z" transform="translate(-2078.857 -7765.199)" fill="#17c878"/>
          <path id="Path_134928" data-name="Path 134928" d="M2115,7783.341h-17.309a1.575,1.575,0,0,1-1.576-1.575h0a1.576,1.576,0,0,1,1.576-1.576H2115a1.576,1.576,0,0,1,1.576,1.576h0A1.575,1.575,0,0,1,2115,7783.341Z" transform="translate(-2078.857 -7773.652)" fill="#17c878"/>
        </g>
        <path id="Path_134929" data-name="Path 134929" d="M2051.25,7769.327l-1.311,1.136,3.146,4.108,5.943-6.817-1.136-1.224-4.6,5.681Z" transform="translate(-2045.99 -7762.164)" fill="#fb9e36"/>
      </g>
      <g id="Group_92315" data-name="Group 92315" transform="translate(91.857 68.021)">
        <path id="Rectangle_31843" data-name="Rectangle 31843" d="M4.475,0H63.658a4.474,4.474,0,0,1,4.474,4.474V12.3a4.475,4.475,0,0,1-4.475,4.475H4.474A4.474,4.474,0,0,1,0,12.3V4.475A4.475,4.475,0,0,1,4.475,0Z" fill="#c3ecfe"/>
        <g id="Group_92314" data-name="Group 92314" transform="translate(2.136 2.398)">
          <g id="Group_92313" data-name="Group 92313">
            <path id="Path_134930" data-name="Path 134930" d="M2278.468,7772.623h-8.739a1.621,1.621,0,0,1-1.619-1.62v-8.739a1.621,1.621,0,0,1,1.619-1.619h8.739a1.621,1.621,0,0,1,1.619,1.619V7771A1.621,1.621,0,0,1,2278.468,7772.623Zm-8.739-11.648a1.291,1.291,0,0,0-1.29,1.289V7771a1.292,1.292,0,0,0,1.29,1.291h8.739a1.291,1.291,0,0,0,1.29-1.291v-8.739a1.291,1.291,0,0,0-1.29-1.289Z" transform="translate(-2268.11 -7760.645)" fill="#17c878"/>
          </g>
          <path id="Path_134931" data-name="Path 134931" d="M2364.57,7770.64h-43.287a1.576,1.576,0,0,1-1.576-1.576h0a1.576,1.576,0,0,1,1.576-1.576h43.287a1.576,1.576,0,0,1,1.576,1.576h0A1.576,1.576,0,0,1,2364.57,7770.64Z" transform="translate(-2302.449 -7765.199)" fill="#17c878"/>
          <path id="Path_134932" data-name="Path 134932" d="M2338.591,7783.341h-17.309a1.575,1.575,0,0,1-1.576-1.575h0a1.576,1.576,0,0,1,1.576-1.576h17.309a1.576,1.576,0,0,1,1.576,1.576h0A1.575,1.575,0,0,1,2338.591,7783.341Z" transform="translate(-2302.449 -7773.652)" fill="#17c878"/>
        </g>
        <path id="Path_134933" data-name="Path 134933" d="M2274.842,7769.327l-1.311,1.136,3.146,4.108,5.943-6.817-1.136-1.224-4.6,5.681Z" transform="translate(-2269.582 -7762.164)" fill="#fb9e36"/>
      </g>
      <g id="Group_92321" data-name="Group 92321" transform="translate(90.135 18.428)">
        <g id="Group_92320" data-name="Group 92320">
          <rect id="Rectangle_31844" data-name="Rectangle 31844" width="81.57" height="20.082" rx="5.357" transform="translate(0 2.543)" fill="#c3ecfe"/>
          <rect id="Rectangle_31845" data-name="Rectangle 31845" width="81.57" height="20.082" rx="5.357" transform="translate(1.722)" fill="#17c878"/>
          <g id="Group_92319" data-name="Group 92319" transform="translate(4.279 2.871)">
            <g id="Group_92316" data-name="Group 92316">
              <path id="Path_134934" data-name="Path 134934" d="M2281.77,7628.126h-10.462a1.941,1.941,0,0,1-1.939-1.939v-10.462a1.941,1.941,0,0,1,1.939-1.938h10.462a1.941,1.941,0,0,1,1.939,1.938v10.462A1.941,1.941,0,0,1,2281.77,7628.126Zm-10.462-13.946a1.546,1.546,0,0,0-1.545,1.544v10.462a1.546,1.546,0,0,0,1.545,1.544h10.462a1.546,1.546,0,0,0,1.544-1.544v-10.462a1.546,1.546,0,0,0-1.544-1.544Z" transform="translate(-2269.369 -7613.786)" fill="#d2f6e6"/>
            </g>
            <g id="Group_92317" data-name="Group 92317" transform="translate(20.662 2.741)">
              <path id="Path_134935" data-name="Path 134935" d="M2384.854,7625.753H2333.03a1.886,1.886,0,0,1-1.886-1.887h0a1.886,1.886,0,0,1,1.886-1.886h51.824a1.887,1.887,0,0,1,1.886,1.886h0A1.887,1.887,0,0,1,2384.854,7625.753Z" transform="translate(-2331.143 -7621.98)" fill="#d2f6e6"/>
            </g>
            <g id="Group_92318" data-name="Group 92318" transform="translate(20.662 7.827)">
              <path id="Path_134936" data-name="Path 134936" d="M2353.751,7640.96H2333.03a1.886,1.886,0,0,1-1.886-1.886h0a1.886,1.886,0,0,1,1.886-1.886h20.722a1.886,1.886,0,0,1,1.886,1.886h0A1.886,1.886,0,0,1,2353.751,7640.96Z" transform="translate(-2331.143 -7637.188)" fill="#d2f6e6"/>
            </g>
          </g>
        </g>
        <path id="Path_134937" data-name="Path 134937" d="M2277.429,7624.181l-1.57,1.36,3.767,4.917,7.115-8.162-1.36-1.464-5.512,6.8Z" transform="translate(-2269.41 -7615.605)" fill="#f1d54e"/>
      </g>
    </g>
    <g id="Group_92330" data-name="Group 92330" transform="translate(2125.221 7592.904)">
      <rect id="Rectangle_31846" data-name="Rectangle 31846" width="4.862" height="10.233" transform="translate(25.055 17.868)" fill="#ffb69b"/>
      <path id="Path_134938" data-name="Path 134938" d="M2479.839,7733.429v3.343a25.351,25.351,0,0,1-4.862,1.053v-2.908l3.359-2.094S2479,7733.082,2479.839,7733.429Z" transform="translate(-2449.922 -7714.506)" opacity="0.05"/>
      <g id="Group_92324" data-name="Group 92324" transform="translate(23.147 118.319)">
        <path id="Path_134939" data-name="Path 134939" d="M2495.565,8057.629s4.4-1.972,6.609-.688C2502.174,8056.941,2500.7,8060.355,2495.565,8057.629Z" transform="translate(-2486.771 -8048.245)" fill="#75524f"/>
        <path id="Path_134940" data-name="Path 134940" d="M2493.9,8033.647l1.423,9.036s5.308-1.037,5.334-1.3-1.762-9.58-1.762-9.58Z" transform="translate(-2485.666 -8031.808)" fill="#eba88f"/>
        <g id="Group_92323" data-name="Group 92323" transform="translate(0 8.695)">
          <path id="Path_134941" data-name="Path 134941" d="M2470.008,8063.355a1.316,1.316,0,0,1-.719-1.3c.141-.841,1.348-1.542,2.486-1.538a7.256,7.256,0,0,0,1.817-.348l.364-.109c.276-.085.555-.18.835-.277l.362-.127.639-.235c.121-.046.239-.093.356-.139,1.086-.422,1.917-.792,1.917-.792,4.836,1.631,6.609-.688,6.609-.688a3.444,3.444,0,0,1,1.353,3.891.819.819,0,0,0,.079.463C2487.965,8065.532,2471.811,8064.618,2470.008,8063.355Z" transform="translate(-2469.273 -8057.805)" fill="#05301d"/>
          <path id="Path_134942" data-name="Path 134942" d="M2470.008,8071.1a1.318,1.318,0,0,1-.719-1.3c.174.1.344.213.523.306a10.01,10.01,0,0,0,2.167.816,19.4,19.4,0,0,0,4.719.507,23.846,23.846,0,0,0,3.65-.208c1.052-.156,2.088-.416,3.12-.677a6.463,6.463,0,0,0,1.481-.5c.315-.169.6-.386.92-.539.05-.022.1-.044.16-.066a.82.82,0,0,0,.079.463C2487.965,8073.272,2471.811,8072.358,2470.008,8071.1Z" transform="translate(-2469.273 -8065.545)" fill="#05301d"/>
        </g>
      </g>
      <g id="Group_92326" data-name="Group 92326" transform="translate(14.657 122.075)">
        <path id="Path_134943" data-name="Path 134943" d="M2468.922,8069.067s4.174-2.409,6.5-1.357C2475.427,8067.709,2474.308,8071.256,2468.922,8069.067Z" transform="translate(-2460.549 -8059.281)" fill="#89605c"/>
        <path id="Path_134944" data-name="Path 134944" d="M2464.974,8045.375l2.334,8.845s5.175-1.572,5.175-1.832-2.728-9.351-2.728-9.351Z" transform="translate(-2457.922 -8043.038)" fill="#ffb69b"/>
        <g id="Group_92325" data-name="Group 92325" transform="translate(0 8.429)">
          <path id="Path_134945" data-name="Path 134945" d="M2444.74,8075.254c-.643-.357-.881-.793-.847-1.218.054-.851,1.184-1.67,2.317-1.782a7.234,7.234,0,0,0,1.773-.531l.35-.146c.266-.112.534-.234.8-.36l.347-.163.612-.3c.116-.058.228-.115.34-.174,1.038-.53,1.827-.982,1.827-.982,4.977,1.129,6.5-1.358,6.5-1.358a3.445,3.445,0,0,1,1.742,3.733.818.818,0,0,0,.126.452C2462.826,8075.591,2446.662,8076.325,2444.74,8075.254Z" transform="translate(-2443.89 -8068.238)" fill="#0a5936"/>
          <path id="Path_134946" data-name="Path 134946" d="M2444.74,8082.681c-.643-.357-.881-.793-.847-1.218.184.082.364.177.551.252a10.07,10.07,0,0,0,2.239.591,19.413,19.413,0,0,0,4.746.024,23.786,23.786,0,0,0,3.61-.578c1.031-.262,2.034-.626,3.035-.99a6.5,6.5,0,0,0,1.422-.654c.3-.2.558-.445.861-.629.047-.027.1-.054.153-.082a.816.816,0,0,0,.126.453C2462.826,8083.018,2446.662,8083.752,2444.74,8082.681Z" transform="translate(-2443.89 -8075.665)" fill="#0a5936"/>
        </g>
      </g>
      <path id="Path_134947" data-name="Path 134947" d="M2453.013,7925.453l-1.293.254-6.675,1.3s-6.514-14.521-7.967-21.993a76.187,76.187,0,0,1-1-13.938l1.781-30.479,12.252,1.73-.324,2.382-4.308,31.819Z" transform="translate(-2424.024 -7799.547)" fill="#05301d"/>
      <path id="Path_134948" data-name="Path 134948" d="M2467.548,7933.636l-1.293.254a3,3,0,0,1-.317-.469,26.085,26.085,0,0,1-2.078-6.644,78.778,78.778,0,0,0-3.726-11.458,31.055,31.055,0,0,1-1.687-4.757,25.374,25.374,0,0,1-.481-4.987,90.392,90.392,0,0,1,.938-17.771,57.1,57.1,0,0,1,2.519-9.577,39.369,39.369,0,0,0,1.238-3.933,1.446,1.446,0,0,1,.605-1.042,4.357,4.357,0,0,1,1.055-.355l-4.308,31.818Z" transform="translate(-2438.559 -7807.729)" fill="#0a5936"/>
      <path id="Path_134949" data-name="Path 134949" d="M2488.238,7920.26l-.605.122-6.581,1.308-4.761-29.135s-.609-31.517-.695-32.038l11.341-1.21-.175,3.6-1.469,30.428Z" transform="translate(-2450.334 -7798.684)" fill="#05301d"/>
      <path id="Path_134950" data-name="Path 134950" d="M2504.515,7927.425l-.605.121a4.318,4.318,0,0,1-.6-1.085,11.664,11.664,0,0,1-.7-2.613c-.176-1.207-.156-2.433-.278-3.648-.137-1.371-.445-2.714-.715-4.065a80.1,80.1,0,0,1-1.375-10.737,129.017,129.017,0,0,1,.461-19.617c.3-3.316.672-6.62,1.078-9.92a40.083,40.083,0,0,1,.617-4.894,1.3,1.3,0,0,1,.637-.894l-1.468,30.428Z" transform="translate(-2466.611 -7805.85)" fill="#0a5936"/>
      <g id="Group_92327" data-name="Group 92327" transform="translate(31.089 25.679)">
        <path id="Path_134951" data-name="Path 134951" d="M2503.54,7782.106c-3.9,2.468-8.7,9.22-8.7,9.22l-1.82-8.053,6.155-5.284a.475.475,0,0,0,.047-.039l-2.23-2.636-2.933-3.468s-.012-.066-.035-.191c-.324-1.777-2.664-15.365,1.464-16.821,0,0,3.9.776,5.065,7.01.394,2.125.793,4.152,1.172,5.964a50.228,50.228,0,0,0,1.816,7.155C2504.188,7776.392,2507.433,7779.638,2503.54,7782.106Z" transform="translate(-2493.018 -7754.834)" fill="#eba88f"/>
        <path id="Path_134952" data-name="Path 134952" d="M2501.82,7767.808c-.5.281-1.015.539-1.535.781-1.558.734-3.172,1.355-4.671,2.21a5.693,5.693,0,0,1-1.5.855c-.324-1.777-2.664-15.365,1.465-16.821,0,0,3.9.776,5.066,7.01C2501.042,7763.969,2501.44,7766,2501.82,7767.808Z" transform="translate(-2493.116 -7754.834)" fill="url(#linear-gradient)"/>
      </g>
      <path id="Path_134953" data-name="Path 134953" d="M2505.923,7794.378c-.008.34-.019.684-.027,1.028a1.4,1.4,0,0,1-.063.46,7.9,7.9,0,0,1-.351,1.363l-2.23-2.636c-.105-.68-.148-1.375-.226-2.054-.106-.965-.281-1.937-.414-2.906a11.725,11.725,0,0,1,.023-4.257,1.84,1.84,0,0,1,.344-.789,1.87,1.87,0,0,1,.6-.422c.438-.226,1.293-.633,1.582-.1a7.606,7.606,0,0,1,.477,2.246c.1.609.168,1.222.218,1.835A57.056,57.056,0,0,1,2505.923,7794.378Z" transform="translate(-2468.191 -7748.434)" opacity="0.1"/>
      <path id="Path_134954" data-name="Path 134954" d="M2459.965,7758.343s-1.289,17.316-.078,28.92c1.14,10.9-10.271,8.651-19.126,6.9-.562-.109-1.117-.219-1.656-.324-6.253-1.2-5.823-5.331-4.979-7.736a43.371,43.371,0,0,0,1.71-6.694l2.875-15.9,1.437-7.944c1.73-4.331,5.019-3.464,12.467-3.292S2459.965,7758.343,2459.965,7758.343Z" transform="translate(-2422.416 -7727.333)" fill="url(#linear-gradient)"/>
      <rect id="Rectangle_31847" data-name="Rectangle 31847" width="8.226" height="2.553" rx="1.12" transform="translate(29.998 121.331) rotate(-11.661)" fill="#0a5936"/>
      <g id="Group_92328" data-name="Group 92328" transform="translate(0 0.133)">
        <path id="Path_134955" data-name="Path 134955" d="M2424.49,7722.667l-2.34,14.158-11.24-8.135-3.672-2.656s-4.237-2.921-3.917-18.3h3.5s3.249,7.924,2.988,10.78a22.9,22.9,0,0,0,6.014,2.815A28.5,28.5,0,0,0,2424.49,7722.667Z" transform="translate(-2402.221 -7697.94)" fill="#ffb69b"/>
        <path id="Path_134956" data-name="Path 134956" d="M2439.624,7749.72l-2.34,14.157-11.24-8.135c1.426-2.449,3.4-4.62,4.776-7.092.051-.09.1-.183.141-.27A28.513,28.513,0,0,0,2439.624,7749.72Z" transform="translate(-2417.355 -7724.993)" fill="url(#linear-gradient)"/>
        <path id="Path_134957" data-name="Path 134957" d="M2402.558,7682.028a.35.35,0,0,0,.538.151.28.28,0,0,0,.1-.129.445.445,0,0,0-.021-.268c-.033-.109-.083-.232-.192-.268a.336.336,0,0,0-.119-.011.354.354,0,0,0-.308.125.333.333,0,0,0-.027.207c.007.06.022.118.031.177a.66.66,0,0,0-.174-.1.414.414,0,0,0-.2.009.4.4,0,0,0-.18.106c-.012.013-.111.161-.082.172l-.117-.045a.514.514,0,0,0-.7.428c0,.008,0,.016,0,.024-.3-.3-.8.114-.926.522-.483,1.568.786,3.124.924,4.759.037.435.027.95.382,1.207a1.267,1.267,0,0,0,.785.152l1.33-.032c.406-.01.906-.083,1.045-.465a1.845,1.845,0,0,0,.014-.633,2.956,2.956,0,0,1,.824-1.6,3.064,3.064,0,0,0,.328-3.511,32.388,32.388,0,0,1-2.314-3.914c-.177-.321-.429-.684-.812-.637a.648.648,0,0,0-.522.679,2.506,2.506,0,0,0,.626,1.294,1.587,1.587,0,0,1,.277.728.811.811,0,0,1-.053.368c-.052.128-.29.085-.4.092a.03.03,0,0,0-.024.008.031.031,0,0,0-.005.019c-.008.127-.017.253-.024.38" transform="translate(-2400.067 -7678.457)" fill="#ffb69b"/>
      </g>
      <rect id="Rectangle_31848" data-name="Rectangle 31848" width="9.374" height="2.553" rx="1.195" transform="translate(19.924 125.968) rotate(-14.588)" fill="#0a5936"/>
      <path id="Path_134958" data-name="Path 134958" d="M2440.761,7816.895c-.562-.109-1.117-.219-1.656-.324-6.253-1.2-5.823-5.331-4.979-7.736a43.385,43.385,0,0,0,1.71-6.694l2.875-15.9a15.54,15.54,0,0,1,.636,4.933,25.636,25.636,0,0,1-.261,3.242c-.473,3.276-1.437,6.463-2,9.725a7.894,7.894,0,0,0-.137,2.5,10.393,10.393,0,0,0,1.574,3.511,15.7,15.7,0,0,1,2.218,6.284A4.494,4.494,0,0,1,2440.761,7816.895Z" transform="translate(-2422.416 -7750.06)" fill="url(#linear-gradient)"/>
      <g id="Group_92329" data-name="Group 92329" transform="translate(20.23)">
        <path id="Path_134959" data-name="Path 134959" d="M2477.911,7678.613a5.406,5.406,0,0,0-2.593-.553,4.4,4.4,0,0,0-3.778,1.494,4.2,4.2,0,0,0-.508,2.759,4.94,4.94,0,0,0,2.254,4.067c1.1.566,2.539.5,3.417,1.372a3.861,3.861,0,0,1,.783,1.366,24.9,24.9,0,0,1,1.665,7.639c1.744-2.216,4.065-3.827,5.809-6.043a9.507,9.507,0,0,0,1.6-4.895,4.868,4.868,0,0,0-2.344-4.327,7.827,7.827,0,0,0-4-.914c-1.1-.072-.55.1-1.117-.719A3.526,3.526,0,0,0,2477.911,7678.613Z" transform="translate(-2467.504 -7678.06)" fill="#0a5936"/>
        <path id="Path_134960" data-name="Path 134960" d="M2471.339,7708.766c-3.533.427-4.587.864-5.068-3.023-.047-.392-.087-.826-.128-1.314q-.029-.395-.059-.835c-.4-6.169,3.245-12.619,3.245-12.619,9.269.676,8.586,6.182,8.577,8.947S2475.425,7708.273,2471.339,7708.766Z" transform="translate(-2464.213 -7686.655)" fill="#ffb69b"/>
        <path id="Path_134961" data-name="Path 134961" d="M2473.247,7692.4a5.769,5.769,0,0,0,1.842.571c1.461.3,3.045.822,3.772,2.123a11.487,11.487,0,0,1,.731,2.968c.244.995.957,2.046,1.98,2.042.886,0,1.55-.786,2.047-1.519a5.235,5.235,0,0,0,1.042-2.394,3.664,3.664,0,0,0-.171-1.387c-.725-2.363-3.037-3.836-5.259-4.921a8.358,8.358,0,0,0-3.708-1.082C2473.846,7688.825,2470.854,7690.971,2473.247,7692.4Z" transform="translate(-2468.406 -7685.207)" fill="#0a5936"/>
        <path id="Path_134962" data-name="Path 134962" d="M2495.686,7716.023a1.79,1.79,0,1,1-1.4-2.112A1.789,1.789,0,0,1,2495.686,7716.023Z" transform="translate(-2481.576 -7701.896)" fill="#ffb69b"/>
        <path id="Path_134963" data-name="Path 134963" d="M2461.082,7715.772a1.122,1.122,0,0,0-.531.729c-.033.463.47.767.912.909a6.676,6.676,0,0,0,1.231.27,1.223,1.223,0,0,0,1.494-1.49,5.717,5.717,0,0,0-.25-1.858c-.249-.811-.618-.7-1.092-.219A16.159,16.159,0,0,1,2461.082,7715.772Z" transform="translate(-2460.55 -7701.802)" fill="#ffb69b"/>
      </g>
    </g>
  </g>
</svg>
