<svg xmlns="http://www.w3.org/2000/svg" width="65" height="65" viewBox="0 0 65 65">
  <g id="t2-ic3" transform="translate(-10 -10)">
    <path id="Path_136339" data-name="Path 136339" d="M203.673,410.35h-1.482a1.038,1.038,0,0,1-1.016-1.037l-.97,1.037h-2.312l-.935-1.05-.013.013a1.037,1.037,0,0,1-1.037,1.037h-1.482a4.046,4.046,0,0,0-4.045,4.046v6.358h17.339V414.4a4.045,4.045,0,0,0-4.045-4.045Z" transform="translate(-156.549 -346.547)" fill="#e5e5e5"/>
    <path id="Path_136340" data-name="Path 136340" d="M194.425,417.247a4.046,4.046,0,0,0-4.045,4.046v6.358h2.642v-6.357a4.046,4.046,0,0,1,2.117-3.558l.034-.489Z" transform="translate(-156.549 -353.443)" fill="#c9c9c9"/>
    <path id="Path_136341" data-name="Path 136341" d="M378.045,251.38h-1.484a1.038,1.038,0,0,1-1.016-1.037l-.968,1.037h-2.313l-.934-1.05-.013.013a1.037,1.037,0,0,1-1.037,1.037H368.8a4.047,4.047,0,0,0-4.047,4.046v6.358h17.34v-6.357A4.047,4.047,0,0,0,378.045,251.38Z" transform="translate(-307.883 -208.579)" fill="#a0eaea"/>
    <path id="Path_136342" data-name="Path 136342" d="M368.8,258.277a4.047,4.047,0,0,0-4.047,4.046v6.358h2.642v-6.357a4.043,4.043,0,0,1,1.784-3.356l.029-.691Z" transform="translate(-307.883 -215.476)" fill="#88ced8"/>
    <path id="Path_136343" data-name="Path 136343" d="M29.293,251.38H27.811a1.038,1.038,0,0,1-1.016-1.037l-.968,1.037H23.515l-.935-1.05-.013.013a1.037,1.037,0,0,1-1.037,1.037H20.045A4.047,4.047,0,0,0,16,255.427v6.357H33.34v-6.357a4.047,4.047,0,0,0-4.046-4.047Z" transform="translate(-5.207 -208.579)" fill="#17c878"/>
    <path id="Path_136344" data-name="Path 136344" d="M21.529,258.28H20.045A4.047,4.047,0,0,0,16,262.327v6.357h3.963v-6.357a4.043,4.043,0,0,1,1.784-3.356Z" transform="translate(-5.207 -215.479)" fill="#12a160"/>
    <path id="Path_136345" data-name="Path 136345" d="M203.673,99.92h-1.482a1.038,1.038,0,0,1-1.016-1.037l-.97,1.037h-2.312l-.935-1.05-.013.013a1.037,1.037,0,0,1-1.037,1.037h-1.482a4.045,4.045,0,0,0-4.045,4.045v6.359h17.339v-6.359a4.045,4.045,0,0,0-4.045-4.045Z" transform="translate(-156.549 -77.129)" fill="#f1d54e"/>
    <path id="Path_136346" data-name="Path 136346" d="M194.425,106.82a4.045,4.045,0,0,0-4.045,4.045v6.359h2.642v-6.359A4.047,4.047,0,0,1,195.865,107l.043-.182Z" transform="translate(-156.549 -84.029)" fill="#fb9e36"/>
    <path id="Path_136347" data-name="Path 136347" d="M236.686,19.468V21.78a3.468,3.468,0,0,1-6.936,0V19.468a3.468,3.468,0,0,1,6.936,0Z" transform="translate(-190.718 -5.207)" fill="#c1a084"/>
    <path id="Path_136348" data-name="Path 136348" d="M232.79,21.78V19.468a3.467,3.467,0,0,1,1.949-3.118,3.469,3.469,0,0,0-4.987,3.118V21.78a3.469,3.469,0,0,0,4.987,3.118A3.467,3.467,0,0,1,232.79,21.78Z" transform="translate(-190.72 -5.208)" fill="#af9079"/>
    <path id="Path_136349" data-name="Path 136349" d="M411.057,170.938v2.312a3.469,3.469,0,0,1-3.468,3.468h0a3.469,3.469,0,0,1-3.468-3.468v-2.312a3.468,3.468,0,0,1,3.468-3.468h0a3.468,3.468,0,0,1,3.468,3.468Z" transform="translate(-342.051 -136.666)" fill="#ffd39f"/>
    <path id="Path_136350" data-name="Path 136350" d="M407.154,173.252V170.94a3.468,3.468,0,0,1,1.949-3.118,3.453,3.453,0,0,0-1.519-.35h0a3.468,3.468,0,0,0-3.468,3.468v2.312a3.469,3.469,0,0,0,3.468,3.468h0a3.451,3.451,0,0,0,1.519-.35,3.469,3.469,0,0,1-1.949-3.118Z" transform="translate(-342.047 -136.668)" fill="#efc597"/>
    <path id="Path_136351" data-name="Path 136351" d="M236.686,329.9v2.312a3.468,3.468,0,1,1-6.936,0V329.9a3.468,3.468,0,1,1,6.936,0Z" transform="translate(-190.718 -274.625)" fill="#ffd39f"/>
    <path id="Path_136352" data-name="Path 136352" d="M232.789,332.21V329.9a3.467,3.467,0,0,1,1.948-3.118,3.469,3.469,0,0,0-4.987,3.118v2.312a3.469,3.469,0,0,0,4.987,3.118,3.467,3.467,0,0,1-1.949-3.118Z" transform="translate(-190.718 -274.625)" fill="#efc597"/>
    <path id="Path_136353" data-name="Path 136353" d="M62.307,170.938v2.312a3.469,3.469,0,0,1-3.468,3.468h0a3.469,3.469,0,0,1-3.468-3.468v-2.312a3.468,3.468,0,0,1,3.468-3.468h0a3.468,3.468,0,0,1,3.468,3.468Z" transform="translate(-39.376 -136.666)" fill="#f5cac1"/>
    <path id="Path_136354" data-name="Path 136354" d="M58.4,173.252V170.94a3.468,3.468,0,0,1,1.949-3.118,3.453,3.453,0,0,0-1.519-.35h0a3.468,3.468,0,0,0-3.468,3.468v2.312a3.469,3.469,0,0,0,3.468,3.468h0a3.451,3.451,0,0,0,1.519-.35,3.469,3.469,0,0,1-1.949-3.118Z" transform="translate(-39.372 -136.668)" fill="#fdddd8"/>
    <path id="Path_136355" data-name="Path 136355" d="M421.279,276.231l.925,4.681-1.485,1.733-1.449-1.733,1.041-4.682h.968Z" transform="translate(-355.2 -231.057)" fill="#49c160"/>
    <path id="Path_136356" data-name="Path 136356" d="M423.933,258.28l-.535,2.2a.229.229,0,0,1-.225.174h-.823a.23.23,0,0,1-.2-.173l-.535-2.2Z" transform="translate(-357.239 -215.479)" fill="#49c160"/>
    <g id="Group_94620" data-name="Group 94620" transform="translate(41.034 22.684)">
      <path id="Path_136357" data-name="Path 136357" d="M389.411,106.01l-.668,5.242-5.242-.667,2.938-2.275Z" transform="translate(-365.189 -106.01)" fill="#fff655"/>
      <path id="Path_136358" data-name="Path 136358" d="M338.688,403.23l4.574,5.909-5.242-.667Z" transform="translate(-325.718 -363.963)" fill="#fff655"/>
      <path id="Path_136359" data-name="Path 136359" d="M246.908,124.763l.925,4.679-1.484,1.735-1.449-1.735,1.04-4.682a.1.1,0,0,0,.029,0Z" transform="translate(-244.9 -122.283)" fill="#fff655"/>
    </g>
    <path id="Path_136360" data-name="Path 136360" d="M246.908,435.193l.925,4.679-1.484,1.735-1.449-1.735,1.04-4.682a.1.1,0,0,0,.029,0Z" transform="translate(-203.866 -369.017)" fill="#e8a467"/>
    <path id="Path_136361" data-name="Path 136361" d="M249.562,106.82l-.534,2.2a.233.233,0,0,1-.225.176h-.8a.1.1,0,0,1-.029,0,.231.231,0,0,1-.2-.173l-.534-2.2Z" transform="translate(-205.906 -84.029)" fill="#fff655"/>
    <path id="Path_136362" data-name="Path 136362" d="M249.562,417.25l-.534,2.2a.233.233,0,0,1-.225.176h-.8a.1.1,0,0,1-.029,0,.231.231,0,0,1-.2-.173l-.534-2.2Z" transform="translate(-205.906 -353.447)" fill="#e8a467"/>
    <path id="Path_136363" data-name="Path 136363" d="M173.118,48.423,171.63,45.17l4.953,1.844-1.844,4.953Z" transform="translate(-140.276 -30.524)" fill="#fff655"/>
    <path id="Path_136364" data-name="Path 136364" d="M81.666,358.793l-3.072,1.933-3.254,2.046,1.173-5.152Z" transform="translate(-56.708 -301.695)" fill="#fff655"/>
    <path id="Path_136365" data-name="Path 136365" d="M72.529,276.231l.925,4.681-1.485,1.733-1.449-1.733,1.041-4.682h.968Z" transform="translate(-52.524 -231.057)" fill="#50dd5a"/>
    <path id="Path_136366" data-name="Path 136366" d="M75.192,258.28l-.535,2.2a.229.229,0,0,1-.225.174h-.823a.23.23,0,0,1-.2-.173l-.534-2.2Z" transform="translate(-54.573 -215.479)" fill="#50dd5a"/>
    <g id="Group_94621" data-name="Group 94621" transform="translate(10 10)">
      <path id="Path_136367" data-name="Path 136367" d="M53.636,172.3a4.265,4.265,0,0,0,4.261-4.261v-2.312a4.261,4.261,0,1,0-8.521,0v2.312A4.265,4.265,0,0,0,53.636,172.3Zm-2.675-6.573a2.675,2.675,0,1,1,5.351,0v2.312a2.675,2.675,0,1,1-5.351,0Z" transform="translate(-44.173 -141.454)"/>
      <path id="Path_136368" data-name="Path 136368" d="M24.087,245.38H22.625a.245.245,0,0,1-.245-.245.793.793,0,0,0-1.372-.542l-.734.786H18.663l-.7-.785a.793.793,0,0,0-.569-.265.8.8,0,0,0-.584.232l-.013.013a.793.793,0,0,0-.232.561.245.245,0,0,1-.245.245H14.839A4.844,4.844,0,0,0,10,250.219v6.358a.793.793,0,0,0,.793.793h17.34a.793.793,0,0,0,.793-.793v-6.358A4.844,4.844,0,0,0,24.087,245.38Zm-4.476,1.585-.148.607-.148-.607ZM19.5,250.1,20.077,253l-.625.729-.6-.716Zm7.837,5.688H11.585v-5.566a3.257,3.257,0,0,1,3.253-3.253h1.483a1.823,1.823,0,0,0,1.217-.464l.045.051.584,2.247-.945,4.254a.793.793,0,0,0,.166.68l1.449,1.734a.793.793,0,0,0,.6.284h0a.793.793,0,0,0,.6-.277l1.485-1.734a.793.793,0,0,0,.175-.669l-.878-4.441.51-2.069.062-.066a1.822,1.822,0,0,0,1.161.469h1.523a3.257,3.257,0,0,1,3.253,3.253Z" transform="translate(-10 -213.371)"/>
      <path id="Path_136369" data-name="Path 136369" d="M104.894,285.27h-2.226a.793.793,0,1,0,0,1.585h2.226a.793.793,0,1,0,0-1.585Z" transform="translate(-89.737 -248.903)"/>
      <path id="Path_136370" data-name="Path 136370" d="M398.125,165.726v2.312a4.261,4.261,0,1,0,8.521,0v-2.312a4.261,4.261,0,1,0-8.521,0Zm6.936,0v2.312a2.675,2.675,0,1,1-5.351,0v-2.312a2.675,2.675,0,1,1,5.351,0Z" transform="translate(-346.848 -141.454)"/>
      <path id="Path_136371" data-name="Path 136371" d="M372.837,245.38h-1.462a.245.245,0,0,1-.245-.245.793.793,0,0,0-1.372-.542l-.734.786h-1.612l-.7-.785a.793.793,0,0,0-1.153-.034l-.013.013a.793.793,0,0,0-.232.561.245.245,0,0,1-.245.245h-1.483a4.844,4.844,0,0,0-4.839,4.839v6.358a.793.793,0,0,0,.793.793h17.34a.793.793,0,0,0,.793-.793v-6.358A4.844,4.844,0,0,0,372.837,245.38Zm-4.476,1.585-.148.607-.148-.607Zm-.107,3.131.574,2.906-.625.729-.6-.716Zm7.837,5.688H360.335v-5.565a3.257,3.257,0,0,1,3.253-3.253h1.483a1.823,1.823,0,0,0,1.217-.464l.045.051.584,2.247-.945,4.254a.793.793,0,0,0,.166.68l1.449,1.734a.793.793,0,0,0,.6.284h0a.793.793,0,0,0,.6-.277l1.485-1.734a.793.793,0,0,0,.175-.669l-.877-4.441.51-2.069.062-.066a1.822,1.822,0,0,0,1.161.469h1.523a3.257,3.257,0,0,1,3.253,3.253Z" transform="translate(-312.675 -213.371)"/>
      <path id="Path_136372" data-name="Path 136372" d="M453.644,285.27h-2.226a.793.793,0,0,0,0,1.585h2.226a.793.793,0,1,0,0-1.585Z" transform="translate(-392.412 -248.903)"/>
      <path id="Path_136373" data-name="Path 136373" d="M228.011,20.833a4.265,4.265,0,0,0,4.261-4.261V14.261a4.261,4.261,0,1,0-8.521,0v2.312A4.265,4.265,0,0,0,228.011,20.833Zm-2.675-6.573a2.675,2.675,0,1,1,5.351,0v2.312a2.675,2.675,0,1,1-5.351,0Z" transform="translate(-195.511 -10)"/>
      <path id="Path_136374" data-name="Path 136374" d="M198.462,93.918H197a.245.245,0,0,1-.245-.245.793.793,0,0,0-1.372-.541l-.734.786h-1.612l-.7-.785a.793.793,0,0,0-1.153-.033l-.013.013a.793.793,0,0,0-.232.56.245.245,0,0,1-.245.245h-1.483a4.844,4.844,0,0,0-4.839,4.839v6.358a.793.793,0,0,0,.793.793h17.34a.793.793,0,0,0,.793-.793V98.757A4.844,4.844,0,0,0,198.462,93.918ZM193.985,95.5l-.148.607-.148-.607Zm-.107,3.131.574,2.907-.625.73-.6-.716Zm7.837,5.688H185.96V98.757a3.257,3.257,0,0,1,3.253-3.253H190.7a1.823,1.823,0,0,0,1.217-.464l.045.051.585,2.247-.945,4.254a.793.793,0,0,0,.166.68l1.449,1.734a.793.793,0,0,0,.6.284h0a.793.793,0,0,0,.6-.277l1.485-1.734a.793.793,0,0,0,.175-.669l-.878-4.441.51-2.069.062-.066a1.822,1.822,0,0,0,1.161.469h1.523a3.257,3.257,0,0,1,3.253,3.253Z" transform="translate(-161.338 -81.92)"/>
      <path id="Path_136375" data-name="Path 136375" d="M279.269,133.8h-2.226a.793.793,0,1,0,0,1.585h2.226a.793.793,0,1,0,0-1.585Z" transform="translate(-241.075 -117.444)"/>
      <path id="Path_136376" data-name="Path 136376" d="M228.011,331.264A4.266,4.266,0,0,0,232.271,327v-2.312a4.261,4.261,0,1,0-8.521,0V327A4.266,4.266,0,0,0,228.011,331.264Zm-2.675-6.573a2.675,2.675,0,1,1,5.351,0V327a2.675,2.675,0,0,1-5.351,0Z" transform="translate(-195.511 -279.419)"/>
      <path id="Path_136377" data-name="Path 136377" d="M198.462,404.348H197a.245.245,0,0,1-.245-.245.793.793,0,0,0-1.372-.541l-.734.786h-1.612l-.7-.785a.793.793,0,0,0-1.151-.035l-.013.013a.793.793,0,0,0-.234.562.245.245,0,0,1-.245.245h-1.483a4.844,4.844,0,0,0-4.839,4.839v6.358a.793.793,0,0,0,.793.793h17.34a.793.793,0,0,0,.793-.793v-6.358A4.844,4.844,0,0,0,198.462,404.348Zm-4.476,1.585-.148.607-.148-.607Zm-.107,3.131.574,2.906-.625.73-.6-.715Zm7.837,5.688H185.96v-5.565a3.257,3.257,0,0,1,3.253-3.253H190.7a1.823,1.823,0,0,0,1.217-.464l.045.051.584,2.247-.945,4.254a.793.793,0,0,0,.166.68l1.449,1.734a.793.793,0,0,0,.6.284h0a.793.793,0,0,0,.6-.277l1.485-1.734a.793.793,0,0,0,.175-.669L195.2,407.6l.51-2.069.062-.066a1.821,1.821,0,0,0,1.161.469h1.523a3.257,3.257,0,0,1,3.253,3.253Z" transform="translate(-161.338 -351.337)"/>
      <path id="Path_136378" data-name="Path 136378" d="M279.269,444.235h-2.226a.793.793,0,1,0,0,1.585h2.226a.793.793,0,1,0,0-1.585Z" transform="translate(-241.075 -386.867)"/>
      <path id="Path_136379" data-name="Path 136379" d="M83.188,362.226a25.849,25.849,0,0,1-8.613-6.526l2.3-1.449a.793.793,0,0,0-.246-1.444l-5.152-1.174a.793.793,0,0,0-.949.6l-1.174,5.152a.793.793,0,0,0,1.195.847l2.664-1.675a27.444,27.444,0,0,0,9.3,7.11.793.793,0,1,0,.67-1.437ZM71.9,353.355l2.514.573-3.086,1.941Z" transform="translate(-61.499 -306.481)"/>
      <path id="Path_136380" data-name="Path 136380" d="M84.712,53.661a.793.793,0,0,0,1.1-.211,25.577,25.577,0,0,1,11.164-9.21l1.3,2.852a.793.793,0,0,0,.721.462h.029a.793.793,0,0,0,.714-.515l1.844-4.952a.793.793,0,0,0-.466-1.02L96.17,39.223a.793.793,0,0,0-1,1.072l1.145,2.5A27.155,27.155,0,0,0,84.5,52.56a.793.793,0,0,0,.211,1.1ZM99.826,42.277l-.9,2.416-.777-1.7c-.007-.023-.014-.046-.023-.068a.789.789,0,0,0-.074-.144l-.642-1.4Z" transform="translate(-74.54 -35.319)"/>
      <path id="Path_136381" data-name="Path 136381" d="M298.751,57.395A25.482,25.482,0,0,1,311.2,64.662l-2.257,1.747a.793.793,0,0,0,.385,1.414l5.242.668a.793.793,0,0,0,.887-.686l.668-5.242a.793.793,0,0,0-1.271-.727l-2.394,1.853a27.063,27.063,0,0,0-13.325-7.833.793.793,0,1,0-.38,1.539Zm15.23,9.423-2.558-.326,2.883-2.232Z" transform="translate(-260.079 -49.777)"/>
      <path id="Path_136382" data-name="Path 136382" d="M345.4,348.111a.793.793,0,0,0-1.08.3,25.837,25.837,0,0,1-8.3,8.881l-1.916-2.474a.793.793,0,0,0-1.414.385l-.668,5.242a.793.793,0,0,0,.686.887l5.242.668a.806.806,0,0,0,.1.006.793.793,0,0,0,.627-1.278l-1.687-2.18a27.43,27.43,0,0,0,8.71-9.359A.793.793,0,0,0,345.4,348.111ZM333.7,359.86l.326-2.558,2.232,2.883Z" transform="translate(-289.473 -303.353)"/>
    </g>
  </g>
</svg>
