<svg xmlns="http://www.w3.org/2000/svg" xmlns:xlink="http://www.w3.org/1999/xlink" width="396.544" height="229.662" viewBox="0 0 396.544 229.662">
  <defs>
    <linearGradient id="linear-gradient" y1="0.5" x2="1" y2="0.5" gradientUnits="objectBoundingBox">
      <stop offset="0" stop-color="#40d5e6"/>
      <stop offset="1" stop-color="#57f"/>
    </linearGradient>
    <linearGradient id="linear-gradient-3" y1="0.5" x2="1" y2="0.5" gradientUnits="objectBoundingBox">
      <stop offset="0" stop-color="#96cbff"/>
      <stop offset="1" stop-color="#59f"/>
    </linearGradient>
    <linearGradient id="linear-gradient-4" x1="0.5" y1="0.625" x2="0.5" y2="0.258" gradientUnits="objectBoundingBox">
      <stop offset="0" stop-color="#ff9f55"/>
      <stop offset="1" stop-color="#ffd255"/>
    </linearGradient>
  </defs>
  <g id="t2-i4" transform="translate(3173.488 -264.132)">
    <g id="Group_92518" data-name="Group 92518" transform="translate(-3178.312 261.098)">
      <path id="Path_135426" data-name="Path 135426" d="M-2971.068,386.586l-183.027-105.671a6.456,6.456,0,0,0-9.684,5.591V497.848a6.456,6.456,0,0,0,9.684,5.591l183.027-105.671A6.456,6.456,0,0,0-2971.068,386.586Z" transform="translate(3194.786 -277.007)" fill="#fff"/>
      <g id="Group_92468" data-name="Group 92468" transform="translate(10.268 58.055)">
        <path id="Path_135427" data-name="Path 135427" d="M-3089.077,664.946a22.815,22.815,0,0,0,3.248,5.481l-1.931,4.05,3.9,2.925,3.9,2.925,3.348-2.988a22.821,22.821,0,0,0,6.171,1.584l1.5,4.227,4.826-.689,4.826-.689.254-4.477a22.827,22.827,0,0,0,5.481-3.248l4.05,1.932,2.925-3.9,2.925-3.9-2.988-3.348a22.81,22.81,0,0,0,1.584-6.171l4.227-1.5-.689-4.826-.689-4.826-4.476-.254a22.825,22.825,0,0,0-3.248-5.48l1.932-4.051-3.9-2.925-3.9-2.925-3.348,2.988a22.817,22.817,0,0,0-6.17-1.584l-1.5-4.227-4.826.689-4.826.689-.254,4.477a22.827,22.827,0,0,0-5.481,3.248l-4.05-1.932-2.926,3.9-2.925,3.9,2.988,3.348a22.828,22.828,0,0,0-1.585,6.17l-4.226,1.5.689,4.826.689,4.826Zm18.78-25.755a17.082,17.082,0,0,1,19.325,14.5,17.082,17.082,0,0,1-14.5,19.325,17.082,17.082,0,0,1-19.325-14.5A17.082,17.082,0,0,1-3070.3,639.191Z" transform="translate(3094.932 -629.053)" fill="url(#linear-gradient)"/>
      </g>
      <g id="Group_92469" data-name="Group 92469" transform="translate(13.445 27.569)">
        <path id="Path_135428" data-name="Path 135428" d="M-3072.09,452.126a10.454,10.454,0,0,0,1.489,2.512l-.885,1.857,1.788,1.341,1.788,1.341,1.535-1.37a10.46,10.46,0,0,0,2.829.726l.686,1.938,2.212-.316,2.213-.316.116-2.052a10.463,10.463,0,0,0,2.513-1.489l1.856.885,1.341-1.788,1.341-1.788-1.37-1.535a10.457,10.457,0,0,0,.727-2.829l1.938-.686-.316-2.213-.316-2.212-2.052-.117a10.474,10.474,0,0,0-1.489-2.513l.885-1.857-1.788-1.341-1.787-1.341-1.535,1.37a10.456,10.456,0,0,0-2.828-.726l-.687-1.937-2.213.316-2.212.316-.117,2.052a10.463,10.463,0,0,0-2.512,1.489l-1.857-.885-1.341,1.788-1.341,1.788,1.37,1.535a10.446,10.446,0,0,0-.726,2.829l-1.938.686.316,2.212.316,2.212Zm8.609-11.807a7.832,7.832,0,0,1,8.86,6.646,7.831,7.831,0,0,1-6.646,8.86,7.831,7.831,0,0,1-8.859-6.646A7.831,7.831,0,0,1-3063.481,440.319Z" transform="translate(3074.774 -435.671)" fill="url(#linear-gradient)"/>
      </g>
      <g id="Group_92481" data-name="Group 92481" transform="translate(4.824 3.034)">
        <g id="Group_92470" data-name="Group 92470" transform="translate(187.871 83.083)">
          <path id="Path_135429" data-name="Path 135429" d="M-2109.568,899.419s13.952-4.533,15.086-4.027,1.286,1.305,0,1.786-13.378,4.785-13.378,4.785,17.24-2.484,18.264-2.288c.6.115.985,1.64.314,1.963s-17.671,3.809-17.671,3.809,16.1-2.289,16.9-1.854a1.209,1.209,0,0,1-.472,2.146c-1.187.256-16.055,3.265-16.055,3.265s11.782-.895,12.232-.1c.275.488.667,1.787-2.376,1.918s-10.225,1.233-10.225,1.233Z" transform="translate(2109.568 -895.352)" fill="#eea886"/>
        </g>
        <g id="Group_92472" data-name="Group 92472" transform="translate(172.498 78.868)">
          <g id="Group_92471" data-name="Group 92471">
            <path id="Path_135430" data-name="Path 135430" d="M-2193.024,888.567s4.515-1.794,4.839-4.643c.275-2.423,2.286-5.427,2.9-6.353.826-1.238,2.059-5.968,3.505-4.96s-1.68,7.882-2.068,9.448,5.775-1.771,7.317-1.47,5.739,11.109,1.281,12.9-10.205.651-10.937,1.127a29.451,29.451,0,0,1-3.2,1.433Z" transform="translate(2193.024 -872.471)" fill="#eea886"/>
          </g>
        </g>
        <g id="Group_92473" data-name="Group 92473" transform="translate(14.888 59.916)">
          <path id="Path_135431" data-name="Path 135431" d="M-2945.456,885.632c.1,1.305.21,2.549.311,3.66h-64.606c.023-1.088.055-2.324.078-3.66.217-10.772.536-28.429.4-35.1-.179-9.521-2.184-34.258-2.58-35.688,0,0-14.176-20.595-29.043,20.059-3.07,8.378,25.071,29.369,21.574,30.014s-3.35,7.282-3.35,7.282-26.5-23.082-25.958-29.882c.3-3.777,21.054-58.661,24.224-60.93,2.161-1.554,15.73-6.995,22.763-9.66a49.634,49.634,0,0,1,6.249-2.137c1.608-.1,21.458,1.8,21.458,1.8s2.845.971,5.759,2.308c4.967,2.277,12.707,5.844,18.256,8.487,1.8.855,4.041,2,5.906,2.992q-.338,10.119-1.2,21.714s-1.034,16.888-1.127,33.947c-.894,3.863-.738,12.839-.738,12.839-.249,8.51.7,17.245.948,22.126C-2945.976,878.863-2945.72,882.438-2945.456,885.632Z" transform="translate(3048.641 -769.589)" fill="#dbd8e3"/>
        </g>
        <g id="Group_92474" data-name="Group 92474" transform="translate(92.792 62.936)">
          <path id="Path_135432" data-name="Path 135432" d="M-2597.653,899c-.933-6.039-1.819-12.326-2.549-18.341v-.047q-.175-1.469-.35-2.914a.889.889,0,0,0-.016-.147c-.466-4.073-.847-7.966-1.127-11.534a36.161,36.161,0,0,1,.358-8.02c1.1-18.24,1.655-37.475,1.655-37.475.583-7.88.917-15.232,1.143-22.095,0,0-24.924-11.774-27.185-12.45,0,0,4.725,11.1,8.269,35.913,1.368,9.528,3.894,25.569,5.728,41.944.723,6.458,1.912,12.995,3.046,19.15,1.073,5.805,2.1,11.277,2.65,16.018.039.287.07.575.1.863.086.816.187,1.756.3,2.8h8.549C-2597.272,901.459-2597.467,900.231-2597.653,899Z" transform="translate(2625.724 -785.979)" fill="#323657"/>
        </g>
        <g id="Group_92475" data-name="Group 92475" transform="translate(0 61.016)">
          <path id="Path_135433" data-name="Path 135433" d="M-3052.5,861.482c-1.134,11-2.378,19.911-3.38,29.02-.132,1.212-.264,2.432-.389,3.66h-26.214c.342-1.212.676-2.433.995-3.66,2.813-10.608,5.059-21.435,5.059-28,0,0-5.456-39.232-7.282-45.55,0,0-16.5,12.2-20.354,20.649-3.451,7.554,21.831,30.628,21.536,31.406-1.718,4.547-8.3,12.854-8.3,12.854s-39.146-42.045-38.625-47.229c.373-3.769,33.193-45.674,36.356-47.944,1.833-1.314,15.387-6.116,22.04-8.743,1.22-.482,5.184-1.974,6.272-2.386,1.406,1.57,11.323,12.241,14.758,52.793C-3049.447,835.19-3051.273,849.661-3052.5,861.482Z" transform="translate(3129.461 -775.558)" fill="#323657"/>
        </g>
        <g id="Group_92476" data-name="Group 92476" transform="translate(67.185 40.788)">
          <path id="Path_135434" data-name="Path 135434" d="M-2761.955,686.989s-.136-6.814-2.762-20.6c-.7-3.69,21.423,9.71,21.423,9.71s-.068,1.292-.112,3.038c-.024.922-.039,1.968-.033,3.018,0,.37.006.738.015,1.1.021.975.065,1.909.148,2.7a12.69,12.69,0,0,0,.738,2.659C-2741.625,690.724-2754.5,692.322-2761.955,686.989Z" transform="translate(2764.734 -665.747)" fill="#eea987"/>
        </g>
        <path id="Path_135435" data-name="Path 135435" d="M-2684.849,819.825l3.668,4.928s-2.149,2.878-5.965.753Z" transform="translate(2768.624 -750.655)" fill="#d44040"/>
        <path id="Path_135436" data-name="Path 135436" d="M-2673.519,847.08s13.91,53.556,11.044,95.245l-4.68,8.248-4.381-8.64s-1.2-74.57-5.014-94.984Z" transform="translate(2759.979 -772.782)" fill="#d44040"/>
        <path id="Path_135437" data-name="Path 135437" d="M-2707.605,788.67l-3.928,4.594s-6.3-1.221-8.153-4.513S-2707.605,788.67-2707.605,788.67Z" transform="translate(2795.307 -724.094)" fill="#eea987"/>
        <path id="Path_135438" data-name="Path 135438" d="M-2669.849,773.057s-.456,3.5-4.828,8.615l4.772,6.411,2.582-13.3Z" transform="translate(2758.451 -712.502)" fill="#c4c1cc"/>
        <path id="Path_135439" data-name="Path 135439" d="M-2767.661,754.968s7.8,9.428,14.172,11.947l-2.963,7.33-14.832-15.945Z" transform="translate(2837.262 -697.745)" fill="#c4c1cc"/>
        <g id="Group_92477" data-name="Group 92477" transform="translate(105.918 73.747)">
          <path id="Path_135440" data-name="Path 135440" d="M-2476.16,873.534s-33.619,36.524-41.553,34.573c-3.667-.9-9.222-7.233-13.813-13.185-1.513-1.96-3-4.017-4.41-6.053a.014.014,0,0,1,0-.008c-5.632-8.131-10.045-15.926-10.045-15.926s-16.647-19.509-3.289-28.205c0,0,5.63-.568,8.833,1.794,2.957,2.181,10.15,15.915,11.318,18.461s10.252,20.492,11.1,21.023,9.769-4.824,14.539-8.034c7.706-5.187,17.388-14.227,17.388-14.227Z" transform="translate(2554.464 -844.669)" fill="#323657"/>
        </g>
        <g id="Group_92478" data-name="Group 92478" transform="translate(65.174 6.209)">
          <path id="Path_135441" data-name="Path 135441" d="M-2740.55,489.038s4.862,9.012,2.452,10.414c-1.99,1.158,2.333,10,2.9,11.447s-3.606,2.495-4.492,3.425-3.512,12.373-6.948,12.719-18.916-5.039-23.131-9.422-7.674-24.179-4.861-32.53S-2749.129,473.3-2740.55,489.038Z" transform="translate(2775.652 -478.029)" fill="#eea886"/>
        </g>
        <g id="Group_92479" data-name="Group 92479" transform="translate(61.057)">
          <path id="Path_135442" data-name="Path 135442" d="M-2757.813,463.493s4.962-9.733-4.051-16.953-25.633,5.452-27.505,5.935-12.5,1.213-7.134,19.874c4.608,16.024,5.251,16.7,5.251,16.7s3.439-9.282,5.388-10.7c3.043-2.21,9.716-1.679,9.716-1.679s-3.18-8.441,1.79-9.637S-2762.84,461.627-2757.813,463.493Z" transform="translate(2798.002 -444.322)" fill="#d88a51"/>
        </g>
        <g id="Group_92480" data-name="Group 92480" transform="translate(70.112 23.396)">
          <path id="Path_135443" data-name="Path 135443" d="M-2741.341,575.451c-.438-1.158-1.855-6.134-6.125-3.212s2.66,12.3,3.4,12.422S-2737.653,585.195-2741.341,575.451Z" transform="translate(2748.846 -571.333)" fill="#eea886"/>
        </g>
        <path id="Path_135444" data-name="Path 135444" d="M-2715.972,712.581c0,.37.006.738.015,1.1-12.656-4.247-15.107-10.641-15.107-10.641,3.948,2.792,15.125,6.521,15.125,6.521C-2715.963,710.486-2715.978,711.532-2715.972,712.581Z" transform="translate(2804.452 -655.385)" fill="#a77860"/>
        <path id="Path_135445" data-name="Path 135445" d="M-2925.456,1281.443a4.45,4.45,0,0,0,2.467.993c2.191-.019,4.685-2.4,6.976-.237s-2.531,11.364-4.268,12.442-5.684-.859-9.908-5.965S-2925.456,1281.443-2925.456,1281.443Z" transform="translate(2967.819 -1127.116)" fill="#eea886"/>
        <path id="Path_135446" data-name="Path 135446" d="M-2890.687,1282.873a90.936,90.936,0,0,1,9.155,3.828c4.144,2.022,9.006,5.11,8.51,6.159-.753,1.593-4.45-1.395-8.693-3.121-3.907-1.589-3.4-.613-3.4-.613s-.128-.286,3.791,2.283c4.213,2.762,8.624,5.906,8.235,6.773-.484,1.074-.635,1.167-2.328.418.88.642.828.978.595,1.375-1.209,2.056-8.035-1.027-10.746-2.252,2.076.954,3.5,1.879,1.944,2.658-1.777.891-11.229-3.908-14.781-5.3C-2902.284,1293.569-2890.687,1282.873-2890.687,1282.873Z" transform="translate(2941.618 -1128.407)" fill="#eea886"/>
        <path id="Path_135447" data-name="Path 135447" d="M-2999.186,1208.456s-.964,5.64-8.3,12.852c0,0-16.814-18.549-19.814-22.022l13.156-7.633Z" transform="translate(3046.118 -1053.99)" fill="#323657"/>
      </g>
      <rect id="Rectangle_31945" data-name="Rectangle 31945" width="358.985" height="3.133" transform="translate(12.593 179.522)" fill="url(#linear-gradient-3)"/>
      <path id="Rectangle_31946" data-name="Rectangle 31946" d="M8.4,0h0a8.4,8.4,0,0,1,8.4,8.4v0a8.4,8.4,0,0,1-8.4,8.4h0A8.4,8.4,0,0,1,0,8.4v0A8.4,8.4,0,0,1,8.4,0Z" transform="translate(131.453 43.842)" fill="#4ca1f4"/>
      <g id="Group_92482" data-name="Group 92482" transform="translate(154.527 21.6)" opacity="0.69">
        <path id="Rectangle_31947" data-name="Rectangle 31947" d="M2.608,0H55.5a2.608,2.608,0,0,1,2.608,2.608v0A2.608,2.608,0,0,1,55.5,5.215H2.607A2.607,2.607,0,0,1,0,2.608v0A2.608,2.608,0,0,1,2.608,0Z" transform="translate(0 0.001)" fill="#d9d9d9" opacity="0.72"/>
        <path id="Rectangle_31948" data-name="Rectangle 31948" d="M2.607,0H63.6a2.608,2.608,0,0,1,2.608,2.608v0A2.608,2.608,0,0,1,63.6,5.215H2.608A2.608,2.608,0,0,1,0,2.608v0A2.607,2.607,0,0,1,2.607,0Z" transform="translate(0 8.433)" fill="#d9d9d9" opacity="0.72"/>
      </g>
      <rect id="Rectangle_31949" data-name="Rectangle 31949" width="16.793" height="16.793" rx="8.396" transform="translate(131.453 20.028)" fill="#4ca1f4"/>
      <g id="Group_92483" data-name="Group 92483" transform="translate(154.527 45.415)" opacity="0.69">
        <path id="Rectangle_31950" data-name="Rectangle 31950" d="M2.608,0H41.066a2.608,2.608,0,0,1,2.608,2.608v0a2.608,2.608,0,0,1-2.608,2.608H2.607A2.607,2.607,0,0,1,0,2.608v0A2.608,2.608,0,0,1,2.608,0Z" transform="translate(0 0)" fill="#d9d9d9" opacity="0.72"/>
        <rect id="Rectangle_31951" data-name="Rectangle 31951" width="53.719" height="5.215" rx="2.608" transform="translate(0 8.432)" fill="#d9d9d9" opacity="0.72"/>
      </g>
      <g id="Group_92484" data-name="Group 92484" transform="translate(154.527 69.228)" opacity="0.69">
        <rect id="Rectangle_31952" data-name="Rectangle 31952" width="63.366" height="5.215" rx="2.608" transform="translate(0 0.001)" fill="#d9d9d9" opacity="0.72"/>
        <path id="Rectangle_31953" data-name="Rectangle 31953" d="M2.608,0H55.5a2.608,2.608,0,0,1,2.608,2.608v0A2.608,2.608,0,0,1,55.5,5.215H2.608A2.608,2.608,0,0,1,0,2.608v0A2.608,2.608,0,0,1,2.608,0Z" transform="translate(0 8.433)" fill="#d9d9d9" opacity="0.72"/>
      </g>
      <path id="Rectangle_31954" data-name="Rectangle 31954" d="M8.4,0h0a8.4,8.4,0,0,1,8.4,8.4v0a8.4,8.4,0,0,1-8.4,8.4h0A8.4,8.4,0,0,1,0,8.4v0A8.4,8.4,0,0,1,8.4,0Z" transform="translate(131.453 67.655)" fill="#4ca1f4"/>
      <g id="Group_92489" data-name="Group 92489" transform="translate(134.301 48.179)">
        <g id="Group_92488" data-name="Group 92488" transform="translate(0 0)">
          <g id="Group_92487" data-name="Group 92487">
            <g id="Group_92486" data-name="Group 92486">
              <g id="Group_92485" data-name="Group 92485">
                <path id="Path_135448" data-name="Path 135448" d="M-2465.881,627.036l-4.66-4.049a.917.917,0,0,1-.091-1.293.917.917,0,0,1,1.293-.091l3.3,2.863,4.684-5.242a.917.917,0,0,1,1.294-.073.918.918,0,0,1,.073,1.294Z" transform="translate(2470.856 -618.919)" fill="#fff"/>
              </g>
            </g>
          </g>
        </g>
      </g>
      <g id="Group_92494" data-name="Group 92494" transform="translate(134.301 71.993)">
        <g id="Group_92493" data-name="Group 92493" transform="translate(0 0.001)">
          <g id="Group_92492" data-name="Group 92492">
            <g id="Group_92491" data-name="Group 92491">
              <g id="Group_92490" data-name="Group 92490">
                <path id="Path_135449" data-name="Path 135449" d="M-2465.881,743.621l-4.66-4.049a.917.917,0,0,1-.091-1.293.918.918,0,0,1,1.293-.091l3.3,2.863,4.684-5.242a.916.916,0,0,1,1.294-.073.917.917,0,0,1,.073,1.294Z" transform="translate(2470.856 -735.504)" fill="#fff"/>
              </g>
            </g>
          </g>
        </g>
      </g>
      <g id="Group_92495" data-name="Group 92495" transform="translate(138.258 23.454)">
        <path id="Path_135450" data-name="Path 135450" d="M-2450.2,504.887l-.028-.369a3.257,3.257,0,0,1,.881-2.458,3.125,3.125,0,0,0,.994-1.946c0-.724-.455-1.208-1.35-1.222a2.525,2.525,0,0,0-1.435.44l-.341-.9a3.724,3.724,0,0,1,2.031-.568,2.1,2.1,0,0,1,2.373,2.088,3.847,3.847,0,0,1-1.222,2.472,2.806,2.806,0,0,0-.81,2.088l.014.369Zm-.313,1.989a.84.84,0,0,1,.852-.9.829.829,0,0,1,.838.9.827.827,0,0,1-.852.881A.833.833,0,0,1-2450.517,506.876Z" transform="translate(2451.483 -497.869)" fill="#fff"/>
      </g>
      <g id="Group_92500" data-name="Group 92500" transform="translate(229.384 36.821)">
        <g id="Group_92496" data-name="Group 92496">
          <path id="Path_135451" data-name="Path 135451" d="M-2597.075,280.717a3.659,3.659,0,0,1-1.879-1.293,2.742,2.742,0,0,1-.524-2.265,16.643,16.643,0,0,0-.039-4.392,7.348,7.348,0,0,1-1.308-6.761,7.367,7.367,0,0,1,9.185-4.892,7.366,7.366,0,0,1,4.892,9.184,7.327,7.327,0,0,1-4.22,4.65,15.819,15.819,0,0,0-1.844,3.751,3.218,3.218,0,0,1-3.994,2.091Q-2596.942,280.758-2597.075,280.717Zm5.26-19.027a6.764,6.764,0,0,0-8.433,4.492,6.746,6.746,0,0,0,1.251,6.27l.054.067.011.085a17.35,17.35,0,0,1,.046,4.656l0,.023a2.149,2.149,0,0,0,.417,1.782,3.1,3.1,0,0,0,1.8,1.138,2.619,2.619,0,0,0,3.275-1.651l0-.011,0-.011a16.543,16.543,0,0,1,1.968-3.989l.052-.08.088-.035a6.729,6.729,0,0,0,3.958-4.3A6.764,6.764,0,0,0-2591.815,261.69Z" transform="translate(2601.145 -260.794)" fill="#4ca1ad"/>
        </g>
        <g id="Group_92497" data-name="Group 92497" transform="translate(3.287 9.141)">
          <path id="Path_135452" data-name="Path 135452" d="M-2580.292,326.816l.812-8.036,1.33,1.715,1.263-.9.639,1.249,1.813-.95-2.682,7.63-.568-.2,2.175-6.187-1,.523-.6-1.171-1.166.827-.76-.98-.66,6.536Z" transform="translate(2580.292 -318.78)" fill="#4ca1ad"/>
        </g>
        <g id="Group_92498" data-name="Group 92498" transform="translate(1.484 18.692)">
          <rect id="Rectangle_31955" data-name="Rectangle 31955" width="5.219" height="2.103" transform="matrix(0.974, 0.225, -0.225, 0.974, 0.473, 0)" fill="#4ca1ad"/>
        </g>
        <g id="Group_92499" data-name="Group 92499" transform="translate(0.861 16.41)">
          <rect id="Rectangle_31956" data-name="Rectangle 31956" width="6.898" height="3.386" transform="matrix(0.974, 0.225, -0.225, 0.974, 0.762, 0)" fill="#4ca1ad"/>
        </g>
      </g>
      <g id="Group_92517" data-name="Group 92517" transform="translate(227.017 4.528)">
        <g id="Group_92504" data-name="Group 92504" transform="translate(11.909 0)">
          <g id="Group_92503" data-name="Group 92503" transform="translate(0)">
            <g id="Group_92502" data-name="Group 92502">
              <g id="Group_92501" data-name="Group 92501">
                <rect id="Rectangle_31957" data-name="Rectangle 31957" width="2.136" height="16.256" transform="translate(0 0.405) rotate(-10.919)" fill="#4ca1ad"/>
              </g>
            </g>
          </g>
        </g>
        <g id="Group_92508" data-name="Group 92508" transform="translate(8.11 2.588)">
          <g id="Group_92507" data-name="Group 92507" transform="translate(0 0)">
            <g id="Group_92506" data-name="Group 92506">
              <g id="Group_92505" data-name="Group 92505">
                <rect id="Rectangle_31958" data-name="Rectangle 31958" width="2.136" height="14.434" transform="translate(0 0.405) rotate(-10.922)" fill="#4ca1ad"/>
              </g>
            </g>
          </g>
        </g>
        <g id="Group_92512" data-name="Group 92512" transform="translate(4.057 5.783)">
          <g id="Group_92511" data-name="Group 92511" transform="translate(0 0)">
            <g id="Group_92510" data-name="Group 92510">
              <g id="Group_92509" data-name="Group 92509">
                <rect id="Rectangle_31959" data-name="Rectangle 31959" width="2.136" height="12.064" transform="translate(0 0.405) rotate(-10.92)" fill="#4ca1ad"/>
              </g>
            </g>
          </g>
        </g>
        <g id="Group_92516" data-name="Group 92516" transform="translate(0 9.609)">
          <g id="Group_92515" data-name="Group 92515" transform="translate(0 0)">
            <g id="Group_92514" data-name="Group 92514">
              <g id="Group_92513" data-name="Group 92513">
                <rect id="Rectangle_31960" data-name="Rectangle 31960" width="2.136" height="9.077" transform="matrix(0.982, -0.189, 0.189, 0.982, 0, 0.405)" fill="#4ca1ad"/>
              </g>
            </g>
          </g>
        </g>
      </g>
    </g>
    <g id="Group_92611" data-name="Group 92611" transform="translate(-2896.268 364.801)">
      <g id="Group_92519" data-name="Group 92519" transform="translate(58.127 49.856)">
        <rect id="Rectangle_31961" data-name="Rectangle 31961" width="23.32" height="1.384" transform="translate(23.32 1.384) rotate(180)" fill="#e2d2ca"/>
      </g>
      <g id="Group_92520" data-name="Group 92520" transform="translate(76.279 54.843)">
        <rect id="Rectangle_31962" data-name="Rectangle 31962" width="2.044" height="62.957" fill="#706865"/>
      </g>
      <g id="Group_92521" data-name="Group 92521" transform="translate(45.567 49.463)">
        <rect id="Rectangle_31963" data-name="Rectangle 31963" width="16.21" height="1.977" transform="translate(16.21 1.977) rotate(180)" fill="#ccbdb7"/>
      </g>
      <g id="Group_92522" data-name="Group 92522" transform="translate(50.603 32.596)">
        <rect id="Rectangle_31964" data-name="Rectangle 31964" width="6.138" height="18.644" transform="translate(6.138 18.644) rotate(180)" fill="#4667a8"/>
      </g>
      <g id="Group_92523" data-name="Group 92523" transform="translate(0 51.263)">
        <rect id="Rectangle_31965" data-name="Rectangle 31965" width="89.813" height="3.579" transform="translate(89.813 3.579) rotate(180)" fill="#b59074"/>
      </g>
      <g id="Group_92524" data-name="Group 92524" transform="translate(97.127 23.584)">
        <path id="Path_135453" data-name="Path 135453" d="M-1236.687,1261.63s.982,13.776-1.709,15.424c-1.686,1.033-8.409,4.516-8.21,5.17s3.8,5.812,3.8,5.812,12.913-8.5,13.33-11.183c.406-2.618-.636-20.17-2.41-20.979-1.33-.605-2.031-.1-3.707,1.139C-1237.949,1258.758-1236.687,1261.63-1236.687,1261.63Z" transform="translate(1246.611 -1255.617)" fill="#4e94f7"/>
      </g>
      <g id="Group_92527" data-name="Group 92527" transform="translate(82.377 29.857)">
        <g id="Group_92526" data-name="Group 92526">
          <g id="Group_92525" data-name="Group 92525">
            <path id="Path_135454" data-name="Path 135454" d="M-1338.2,1298.723l-1.138-.421s1.419-3.332,2.039-3.251a15.4,15.4,0,0,1,1.6.329Z" transform="translate(1339.335 -1295.05)" fill="#ead8cf"/>
          </g>
        </g>
      </g>
      <g id="Group_92530" data-name="Group 92530" transform="translate(83.255 29.634)">
        <g id="Group_92529" data-name="Group 92529">
          <g id="Group_92528" data-name="Group 92528">
            <path id="Path_135455" data-name="Path 135455" d="M-1333.814,1298.12c.146-.108,2.419-4.471,2.419-4.471l4.858.66-2.625,5.167Z" transform="translate(1333.814 -1293.649)" fill="#da9b5b"/>
          </g>
        </g>
      </g>
      <g id="Group_92533" data-name="Group 92533" transform="translate(91.162 108.844)">
        <g id="Group_92532" data-name="Group 92532">
          <g id="Group_92531" data-name="Group 92531">
            <path id="Path_135456" data-name="Path 135456" d="M-1284.108,1791.953s.4,2.788.452,3.206,4.467-.247,4.467-.247l.357-3.318S-1283.556,1791.56-1284.108,1791.953Z" transform="translate(1284.108 -1791.593)" fill="#424773"/>
          </g>
        </g>
      </g>
      <g id="Group_92536" data-name="Group 92536" transform="translate(83.902 111.866)">
        <g id="Group_92535" data-name="Group 92535">
          <g id="Group_92534" data-name="Group 92534">
            <path id="Path_135457" data-name="Path 135457" d="M-1322.083,1810.783a11.931,11.931,0,0,1-2.753,2.412c-1.353.732-3.48,1.022-4.281,1.78-.578.547-2.1,2.9,3.517,2.855s8.332.333,8.934-.57-.872-6.664-.872-6.664A11.9,11.9,0,0,1-1322.083,1810.783Z" transform="translate(1329.748 -1810.594)" fill="#292c47"/>
          </g>
        </g>
      </g>
      <g id="Group_92539" data-name="Group 92539" transform="translate(62.864 108.87)">
        <g id="Group_92538" data-name="Group 92538">
          <g id="Group_92537" data-name="Group 92537">
            <path id="Path_135458" data-name="Path 135458" d="M-1462,1792.119s.4,2.787.452,3.206,4.467-.247,4.467-.247l.358-3.318S-1461.45,1791.726-1462,1792.119Z" transform="translate(1462.002 -1791.759)" fill="#424773"/>
          </g>
        </g>
      </g>
      <g id="Group_92542" data-name="Group 92542" transform="translate(53.007 111.893)">
        <g id="Group_92541" data-name="Group 92541">
          <g id="Group_92540" data-name="Group 92540">
            <path id="Path_135459" data-name="Path 135459" d="M-1513.705,1810.949a11.933,11.933,0,0,1-2.753,2.412c-1.354.732-6.335,1.333-7.135,2.091-.578.547-1.539,2.749,6.371,2.543,5.619-.146,8.332.333,8.934-.57s-.872-6.664-.872-6.664S-1510.414,1811.272-1513.705,1810.949Z" transform="translate(1523.967 -1810.76)" fill="#292c47"/>
          </g>
        </g>
      </g>
      <g id="Group_92545" data-name="Group 92545" transform="translate(59.316 61.057)">
        <g id="Group_92544" data-name="Group 92544">
          <g id="Group_92543" data-name="Group 92543">
            <path id="Path_135460" data-name="Path 135460" d="M-1438.212,1491.184s-16.058,2.717-19.685,3.287-23.292,5.463-25.752,6.954c-1.958,1.187,1.027,29.693,1.724,40.569h7.746l.561-32.624c9.3.232,15.928-2.174,22.7-1.146s12.412,2.489,16.713-3.28C-1434.208,1504.944-1434.048,1492.444-1438.212,1491.184Z" transform="translate(1484.304 -1491.184)" fill="#292c47"/>
          </g>
        </g>
      </g>
      <g id="Group_92548" data-name="Group 92548" transform="translate(87.182 64.529)">
        <g id="Group_92547" data-name="Group 92547">
          <g id="Group_92546" data-name="Group 92546">
            <path id="Path_135461" data-name="Path 135461" d="M-1306.73,1560.378l7.548-.467.736-32.184a45.879,45.879,0,0,0,8.612-.546l6.094-14.166c-5.341,1.068-22.455,5.384-24.736,6.768C-1310.434,1520.97-1307.427,1549.5-1306.73,1560.378Z" transform="translate(1309.129 -1513.015)" fill="#292c47"/>
          </g>
        </g>
      </g>
      <g id="Group_92551" data-name="Group 92551" transform="translate(88.665 0.583)">
        <g id="Group_92550" data-name="Group 92550">
          <g id="Group_92549" data-name="Group 92549">
            <path id="Path_135462" data-name="Path 135462" d="M-1290.456,1111.307s-5.887-1.627-8.132,2.943-1.228,13.233,1.739,14.047,7.233-.123,8.465-2.967,2.214-6.886,1.92-9.5S-1288.893,1111.933-1290.456,1111.307Z" transform="translate(1299.807 -1111.026)" fill="#eea886"/>
          </g>
        </g>
      </g>
      <g id="Group_92554" data-name="Group 92554" transform="translate(92.83 12.938)">
        <g id="Group_92553" data-name="Group 92553">
          <g id="Group_92552" data-name="Group 92552">
            <path id="Path_135463" data-name="Path 135463" d="M-1273.291,1192.7s.065,3.475-.318,4.216,8.2.555,8.2.555a17.414,17.414,0,0,1-.585-7.729C-1265.238,1186.223-1273.291,1192.7-1273.291,1192.7Z" transform="translate(1273.621 -1188.694)" fill="#eea886"/>
          </g>
        </g>
      </g>
      <g id="Group_92557" data-name="Group 92557" transform="translate(88.482 0.001)">
        <g id="Group_92556" data-name="Group 92556">
          <g id="Group_92555" data-name="Group 92555">
            <path id="Path_135464" data-name="Path 135464" d="M-1288.523,1120.035s-.458.932-2.679.782-5.15-2.83-6.093-3.069-1-.776-1-.776l-.5.887-.966.147s.657-2.685-.774-3.631.644-8.561,7.886-6.724c0,0,5.527,1.012,5.6,4.1S-1287.45,1118.4-1288.523,1120.035Z" transform="translate(1300.957 -1107.366)" fill="#3a3f47"/>
          </g>
        </g>
      </g>
      <g id="Group_92560" data-name="Group 92560" transform="translate(92.392 18.785)">
        <g id="Group_92559" data-name="Group 92559">
          <g id="Group_92558" data-name="Group 92558">
            <path id="Path_135465" data-name="Path 135465" d="M-1276.379,1227.737s.024-1.416.666-1.551,6.745-.975,7.532-.666l.338,1.869S-1269.361,1228.323-1276.379,1227.737Z" transform="translate(1276.379 -1225.452)" fill="#e2d2ca"/>
          </g>
        </g>
      </g>
      <g id="Group_92563" data-name="Group 92563" transform="translate(90.549 7.402)">
        <g id="Group_92562" data-name="Group 92562">
          <g id="Group_92561" data-name="Group 92561">
            <path id="Path_135466" data-name="Path 135466" d="M-1287.885,1155.464c.164-1.16,1.484-2.493,2.239-.686s-.51,4.439-1.358,4.3S-1288.108,1157.039-1287.885,1155.464Z" transform="translate(1287.962 -1153.893)" fill="#eea886"/>
          </g>
        </g>
      </g>
      <g id="Group_92566" data-name="Group 92566" transform="translate(66.803 37.795)">
        <g id="Group_92565" data-name="Group 92565">
          <g id="Group_92564" data-name="Group 92564">
            <path id="Path_135467" data-name="Path 135467" d="M-1437.212,1344.952a.017.017,0,0,1,.01,0C-1437.246,1344.97-1437.252,1344.972-1437.212,1344.952Z" transform="translate(1437.239 -1344.95)" fill="#323657"/>
          </g>
        </g>
      </g>
      <g id="Group_92569" data-name="Group 92569" transform="translate(99.733 1.692)">
        <g id="Group_92568" data-name="Group 92568">
          <g id="Group_92567" data-name="Group 92567">
            <path id="Path_135468" data-name="Path 135468" d="M-1230.226,1118s7.177-.338,1.253,10.866Z" transform="translate(1230.226 -1117.997)" fill="#3a3f47"/>
          </g>
        </g>
      </g>
      <g id="Group_92571" data-name="Group 92571" transform="translate(92.632 107.181)">
        <g id="Group_92570" data-name="Group 92570">
          <path id="Path_135469" data-name="Path 135469" d="M-1251.776,1789.669l-.534,1.5-22.559-6.99,1.081-3.041Z" transform="translate(1274.87 -1781.14)" fill="#918783"/>
        </g>
      </g>
      <g id="Group_92573" data-name="Group 92573" transform="translate(91.858 84.626)">
        <g id="Group_92572" data-name="Group 92572" transform="translate(0 0)">
          <rect id="Rectangle_31966" data-name="Rectangle 31966" width="2.564" height="24.527" transform="translate(2.564 24.527) rotate(180)" fill="#918783"/>
        </g>
      </g>
      <g id="Group_92575" data-name="Group 92575" transform="translate(85.578 83.322)">
        <g id="Group_92574" data-name="Group 92574" transform="translate(0 0)">
          <rect id="Rectangle_31967" data-name="Rectangle 31967" width="15.124" height="1.445" transform="translate(15.124 1.445) rotate(180)" fill="#5e5854"/>
        </g>
      </g>
      <g id="Group_92577" data-name="Group 92577" transform="translate(70.356 106.99)">
        <g id="Group_92576" data-name="Group 92576">
          <path id="Path_135470" data-name="Path 135470" d="M-1414.9,1788.66l.534,1.5,22.559-6.99-.992-3.232Z" transform="translate(1414.901 -1779.939)" fill="#918783"/>
        </g>
      </g>
      <g id="Group_92579" data-name="Group 92579" transform="translate(86.251 106.99)">
        <g id="Group_92578" data-name="Group 92578">
          <path id="Path_135471" data-name="Path 135471" d="M-1314.981,1790v1.747l7.2-8.577-.991-3.232Z" transform="translate(1314.981 -1779.939)" fill="#918783"/>
        </g>
      </g>
      <g id="Group_92581" data-name="Group 92581" transform="translate(68.248 115.691)">
        <g id="Group_92580" data-name="Group 92580">
          <path id="Path_135472" data-name="Path 135472" d="M-1428.155,1836.746a2.108,2.108,0,0,0,2.108,2.108,2.108,2.108,0,0,0,2.109-2.108,2.108,2.108,0,0,0-2.109-2.108A2.108,2.108,0,0,0-1428.155,1836.746Z" transform="translate(1428.155 -1834.638)" fill="#bfb2ac"/>
        </g>
      </g>
      <g id="Group_92583" data-name="Group 92583" transform="translate(86.072 115.691)">
        <g id="Group_92582" data-name="Group 92582">
          <path id="Path_135473" data-name="Path 135473" d="M-1316.107,1836.746a2.108,2.108,0,0,0,2.108,2.108,2.108,2.108,0,0,0,2.108-2.108,2.108,2.108,0,0,0-2.108-2.108A2.108,2.108,0,0,0-1316.107,1836.746Z" transform="translate(1316.107 -1834.638)" fill="#bfb2ac"/>
        </g>
      </g>
      <g id="Group_92585" data-name="Group 92585" transform="translate(113.617 115.691)">
        <g id="Group_92584" data-name="Group 92584">
          <path id="Path_135474" data-name="Path 135474" d="M-1142.95,1836.746a2.108,2.108,0,0,0,2.108,2.108,2.108,2.108,0,0,0,2.108-2.108,2.108,2.108,0,0,0-2.108-2.108A2.108,2.108,0,0,0-1142.95,1836.746Z" transform="translate(1142.95 -1834.638)" fill="#bfb2ac"/>
        </g>
      </g>
      <g id="Group_92586" data-name="Group 92586" transform="translate(75.127 77.848)">
        <path id="Rectangle_31968" data-name="Rectangle 31968" d="M2.737,0H33.091a2.737,2.737,0,0,1,2.737,2.737v0a2.737,2.737,0,0,1-2.737,2.737H2.737A2.737,2.737,0,0,1,0,2.737v0A2.737,2.737,0,0,1,2.737,0Z" transform="translate(35.828 5.474) rotate(180)" fill="#e2d2ca"/>
      </g>
      <g id="Group_92587" data-name="Group 92587" transform="translate(11.491 54.843)">
        <rect id="Rectangle_31969" data-name="Rectangle 31969" width="2.044" height="62.957" transform="translate(2.044 62.957) rotate(180)" fill="#706865"/>
      </g>
      <g id="Group_92588" data-name="Group 92588" transform="translate(27.17 4.185)">
        <rect id="Rectangle_31970" data-name="Rectangle 31970" width="53.005" height="37.392" rx="16.948" transform="translate(53.005 37.392) rotate(180)" fill="#5f8be3"/>
      </g>
      <g id="Group_92589" data-name="Group 92589" transform="translate(29.245 6.206)">
        <rect id="Rectangle_31971" data-name="Rectangle 31971" width="48.853" height="29.511" transform="translate(48.853 29.511) rotate(180)" fill="#f5f7ff"/>
      </g>
      <g id="Group_92590" data-name="Group 92590" transform="translate(29.245 6.206)">
        <rect id="Rectangle_31972" data-name="Rectangle 31972" width="48.853" height="2.348" transform="translate(48.853 2.348) rotate(180)" fill="#cecfd6"/>
      </g>
      <g id="Group_92591" data-name="Group 92591" transform="translate(65.972 10.321)">
        <path id="Rectangle_31973" data-name="Rectangle 31973" d="M1.092,0h8.56a1.092,1.092,0,0,1,1.092,1.092v0A1.092,1.092,0,0,1,9.653,2.184H1.092A1.092,1.092,0,0,1,0,1.092v0A1.092,1.092,0,0,1,1.092,0Z" transform="translate(10.745 2.184) rotate(180)" fill="#cecfd6"/>
      </g>
      <g id="Group_92592" data-name="Group 92592" transform="translate(65.972 13.969)">
        <path id="Rectangle_31974" data-name="Rectangle 31974" d="M5.372,0h0a5.372,5.372,0,0,1,5.372,5.372V15.16a5.372,5.372,0,0,1-5.372,5.372h0A5.373,5.373,0,0,1,0,15.16V5.372A5.372,5.372,0,0,1,5.372,0Z" transform="translate(10.745 20.533) rotate(180)" fill="#cecfd6"/>
      </g>
      <g id="Group_92593" data-name="Group 92593" transform="translate(42.699 46.507)">
        <path id="Path_135475" data-name="Path 135475" d="M-1588.766,1404.523v-.665s.935-4.139,7.552-4.139,6.483,4.8,6.483,4.8Z" transform="translate(1588.766 -1399.719)" fill="#2e436e"/>
      </g>
      <g id="Group_92595" data-name="Group 92595" transform="translate(44.934 44.558)">
        <g id="Group_92594" data-name="Group 92594">
          <path id="Path_135476" data-name="Path 135476" d="M-1562.836,1390.031a6.521,6.521,0,0,1-1.964-.429c-.527-.318-3.677-2.437-4.418-2.1s-5.665,1.848-5.494,2.568.627.651.974.523a25.321,25.321,0,0,1,4.24-.751s-3.513,1.281-3.527,2.217.735,1.163,1.068,1.517.733,1.231,1.638,1.3,5.323-1.47,6.232-1.54a22.236,22.236,0,0,0,2.707-.092A25.1,25.1,0,0,0-1562.836,1390.031Z" transform="translate(1574.716 -1387.468)" fill="#eea886"/>
        </g>
      </g>
      <g id="Group_92598" data-name="Group 92598" transform="translate(55.328 20.722)">
        <g id="Group_92597" data-name="Group 92597">
          <g id="Group_92596" data-name="Group 92596">
            <path id="Path_135477" data-name="Path 135477" d="M-1481.717,1239.939c4.583-.805,9.407-1.962,9.407-1.962l8.536-.348s7.834,1.724,10.919,3.118c.293.132.294,6.989,1.1,8.787l-2.558,5.4s-1.478,10.69-1.784,15.444c-.141,2.182.4,21.092.4,21.092s-.767.379-6.592,1.021-20.381-.232-20.473-.92,2.819-25.621,2.948-26.912c.2-1.982-.572-11.138-.572-11.138-1.1,1.474-3.9,8.133-6.813,11.3-1.716,1.863-10.211,3.006-11.812,3.059-3.486.116-9.845.81-10.031.471-.148-.2-.554-5.644-.155-5.777.349-.116,12.157-.8,15.182-2.4,1.107-.587,4.415-7.8,4.415-7.8S-1484.245,1241.075-1481.717,1239.939Z" transform="translate(1509.373 -1237.629)" fill="#4e94f7"/>
          </g>
        </g>
      </g>
      <g id="Group_92599" data-name="Group 92599" transform="translate(94.617 39.793)">
        <rect id="Rectangle_31975" data-name="Rectangle 31975" width="24.708" height="34.22" rx="12.354" transform="translate(24.708 34.22) rotate(180)" fill="#e2d2ca"/>
      </g>
      <g id="Group_92600" data-name="Group 92600" transform="translate(97.62 61.64)">
        <path id="Path_135478" data-name="Path 135478" d="M-1242.135,1515.17a11.319,11.319,0,0,0,8.782-3.636c4.939-5.453,4.052-15.039,4.012-15.444a1.375,1.375,0,0,0-1.5-1.232,1.375,1.375,0,0,0-1.232,1.5c.01.109.8,8.8-3.318,13.334a8.573,8.573,0,0,1-6.739,2.727,1.375,1.375,0,0,0-1.375,1.375A1.375,1.375,0,0,0-1242.135,1515.17Z" transform="translate(1243.509 -1494.85)" fill="#e2d2ca"/>
      </g>
      <g id="Group_92610" data-name="Group 92610" transform="translate(43.656 10.946)">
        <path id="Path_135479" data-name="Path 135479" d="M-1562.719,1186.184a9.976,9.976,0,0,1-2.348,6.443,10.1,10.1,0,0,1-1.119,1.135c-.115.1-.232.2-.352.29q-.2.16-.412.309a9.961,9.961,0,0,1-4.555,1.763q-.445.055-.9.07c-.109,0-.219.005-.329.005q-.486,0-.96-.045a9.975,9.975,0,0,1-1.042-.155,9.964,9.964,0,0,1-4.094-1.868,9.974,9.974,0,0,1-1.011-.89c-.062-.062-.122-.125-.182-.188q-.337-.356-.636-.744a9.97,9.97,0,0,1-2.091-6.124,10.016,10.016,0,0,1,10.016-10.016A10.016,10.016,0,0,1-1562.719,1186.184Z" transform="translate(1582.751 -1176.168)" fill="#eef0f7"/>
        <g id="Group_92609" data-name="Group 92609" transform="translate(2.09 4.394)">
          <g id="Group_92601" data-name="Group 92601" transform="translate(1.402 8.819)">
            <path id="Path_135480" data-name="Path 135480" d="M-1547.751,1261.558l-.739,2.651a9.963,9.963,0,0,1-4.555,1.763q-.444.055-.9.07c-.109,0-.219.005-.329.005q-.486,0-.96-.045a9.879,9.879,0,0,1-1.042-.155,9.963,9.963,0,0,1-4.094-1.868c-.141-.876-.294-1.846-.427-2.754.736-.274,3.079-1.071,4.558-1.571l.061-.021.1-.033.251-.085.23-.078.593-.2h0l.03-.01h.017l1.988.149.333.025.1.008.046.012c.12.03.468.122.929.262h0C-1550.381,1260.045-1548.471,1260.73-1547.751,1261.558Z" transform="translate(1560.799 -1259.228)" fill="#d9c7c1"/>
          </g>
          <g id="Group_92602" data-name="Group 92602" transform="translate(5.556 0.622)">
            <path id="Path_135481" data-name="Path 135481" d="M-1531.793,1207.726s2.384.4,1.98,4.135-2.509,3.4-2.65,3.4-2.117.045-2.221-4.519C-1534.684,1210.74-1534.715,1207.366-1531.793,1207.726Z" transform="translate(1534.684 -1207.699)" fill="#eea987"/>
          </g>
          <g id="Group_92603" data-name="Group 92603" transform="translate(6.36 6.669)">
            <path id="Path_135482" data-name="Path 135482" d="M-1526.5,1246.145a8.58,8.58,0,0,0,.063,1.871c.145.334-1.915,1.392-3.195.187a13.217,13.217,0,0,0,.178-2.272C-1529.529,1245.337-1526.5,1246.145-1526.5,1246.145Z" transform="translate(1529.627 -1245.713)" fill="#eea987"/>
          </g>
          <g id="Group_92604" data-name="Group 92604" transform="translate(10.32 3.608)">
            <path id="Path_135483" data-name="Path 135483" d="M-1504.58,1226.594s.265-.276.357.007-.423,1.542-.39,1.6c0,0-.049.109-.111.048A13.737,13.737,0,0,1-1504.58,1226.594Z" transform="translate(1504.736 -1226.473)" fill="#eea987"/>
          </g>
          <g id="Group_92605" data-name="Group 92605" transform="translate(5.208 3.499)">
            <path id="Path_135484" data-name="Path 135484" d="M-1536.5,1225.914s-.253-.287-.358-.007a4.793,4.793,0,0,0,.325,1.614s.082.129.147.071A13.78,13.78,0,0,0-1536.5,1225.914Z" transform="translate(1536.874 -1225.784)" fill="#eea987"/>
          </g>
          <g id="Group_92606" data-name="Group 92606" transform="translate(5.389)">
            <path id="Path_135485" data-name="Path 135485" d="M-1530.5,1207.2c-.083.511-.16.891-.16.891l-.347.453a9.106,9.106,0,0,0-.032-1.16c-.02-.059-.044-.166-.068-.28-.04-.189-.08-.4-.108-.473a5.106,5.106,0,0,0-3.824.123s.015.154.014.326c0,.2-.023.424-.114.458-.171.063-.1,1.173-.1,1.173l-.277-.32s-.08-.58-.16-1.247v0c-.018-.155-.036-.315-.053-.474a3.118,3.118,0,0,1,.9-2.6,4.3,4.3,0,0,1,3.1.013,1.079,1.079,0,0,1,.46.121A4.427,4.427,0,0,1-1530.5,1207.2Z" transform="translate(1535.735 -1203.791)" fill="#e8734d"/>
          </g>
          <path id="Path_135486" data-name="Path 135486" d="M-1527.478,1252.094a1.518,1.518,0,0,0,1.265.508,1.721,1.721,0,0,0,1.268-.481,1.543,1.543,0,0,1-1.272.866A1.561,1.561,0,0,1-1527.478,1252.094Z" transform="translate(1534.18 -1244.41)" fill="#c78d71"/>
          <path id="Path_135487" data-name="Path 135487" d="M-1531.157,1259.178a2.6,2.6,0,0,0,1.852,1.218c.769.066,1.435-.908,1.747-1.387A4.657,4.657,0,0,0-1531.157,1259.178Z" transform="translate(1537.274 -1249.987)" fill="#eea987"/>
          <path id="Path_135488" data-name="Path 135488" d="M-1517.99,1258.29a6.61,6.61,0,0,1-1.526,1.322l.646.995,1.1-1.965Z" transform="translate(1527.484 -1249.621)" fill="#eddad3"/>
          <path id="Path_135489" data-name="Path 135489" d="M-1531.374,1259.228a4.43,4.43,0,0,0,1.56,1.173l-.709,1.025-1.239-1.793Z" transform="translate(1537.783 -1250.409)" fill="#eddad3"/>
          <path id="Path_135490" data-name="Path 135490" d="M-1522.519,1266.6l.553.842a1.153,1.153,0,0,1-1.121-.021Z" transform="translate(1530.488 -1256.61)" fill="#5073ab"/>
          <path id="Path_135491" data-name="Path 135491" d="M-1506.12,1262.473l-.016.055c-.061.217-.295,1.048-.6,2.153-.115.1-.232.2-.352.29q-.2.16-.412.309a9.962,9.962,0,0,1-4.555,1.763c.148-3.467.56-6.542.56-6.542q.487.128.924.254h0a21.235,21.235,0,0,1,4.27,1.612l.01.005C-1506.173,1262.438-1506.12,1262.473-1506.12,1262.473Z" transform="translate(1521.209 -1251.481)" fill="#323657"/>
          <path id="Path_135492" data-name="Path 135492" d="M-1561.912,1268.085a9.964,9.964,0,0,1-4.094-1.868,10,10,0,0,1-1.011-.89c-.061-.062-.122-.125-.182-.189-.175-.745-.292-1.231-.3-1.262h0s1.239-.814,5.623-1.984v0C-1561.876,1261.993-1561.873,1264.805-1561.912,1268.085Z" transform="translate(1567.835 -1252.648)" fill="#323657"/>
          <path id="Path_135493" data-name="Path 135493" d="M-1524.5,1270.863c-.041.913-.045,2.685-.031,4.706-.109,0-.219.005-.329.005q-.486,0-.96-.045a30.708,30.708,0,0,1,.665-4.668c.049-.2.078-.3.078-.3l.588.1Q-1524.5,1270.75-1524.5,1270.863Z" transform="translate(1532.788 -1259.937)" fill="#5073ab"/>
          <g id="Group_92607" data-name="Group 92607" transform="translate(14.123 10.887)">
            <path id="Path_135494" data-name="Path 135494" d="M-1479.354,1273.408a10.066,10.066,0,0,1-1.119,1.135q-.172.149-.352.29l.788-2.6h0l.009.006a.669.669,0,0,1,.152.154A4.889,4.889,0,0,1-1479.354,1273.408Z" transform="translate(1480.825 -1272.23)" fill="#323657"/>
          </g>
          <g id="Group_92608" data-name="Group 92608" transform="translate(0 11.226)">
            <path id="Path_135495" data-name="Path 135495" d="M-1568.792,1275.815c-.062-.062-.123-.125-.182-.188a9.732,9.732,0,0,1-.636-.744,1.159,1.159,0,0,1,.336-.52v0Z" transform="translate(1569.61 -1274.363)" fill="#323657"/>
          </g>
        </g>
      </g>
    </g>
    <g id="Group_92614" data-name="Group 92614" transform="translate(-2912.948 348.09)">
      <path id="Path_135496" data-name="Path 135496" d="M-1986,1851.22h-1.058s.353-4-.627-4.036-3.408,3.252-4.859,3.762-8.894.94-8.933-.431,2.86-1.92,3.761-2.312,5.29-4.663,6.073-5.172,2.121-4.051,2.121-4.051l4.156-.185s.235,3.31.487,5.063a15.6,15.6,0,0,1,.172,1.642A30.312,30.312,0,0,1-1986,1851.22Z" transform="translate(2005.208 -1705.732)" fill="#eea886"/>
      <path id="Path_135497" data-name="Path 135497" d="M-1857.787,1847.8h-.882v-3.72c-.735.062-3.2,2.4-3.968,3.075s-1.812.646-5.03.85-3.521-1.722-3.012-2.378,2.156-.943,3.012-1.352,4.237-4.222,5.138-5.123,1.45-3.484,1.45-3.484l3.761.328a23.021,23.021,0,0,0,.4,4.344h0a.109.109,0,0,1,0,.015q.055.253.121.5C-1856.229,1842.911-1857.787,1847.8-1857.787,1847.8Z" transform="translate(1895.379 -1703.101)" fill="#eea886"/>
      <path id="Path_135498" data-name="Path 135498" d="M-1921.123,1367.59a37.582,37.582,0,0,0-1.547,4.211c-.126.849-4.583,11.946-4.893,15.193-.314,3.283-1.255,12.043-1.589,13.3s.752,6.858.92,8.113.083,21.745-1.422,31.865c0,0,3.513,1.505,6.189,0,0,0,4.433-15.807,4.181-24.923s-1.407-12.963.008-16.643,9.694-14.719,10.531-15.891,6.076-7.641,1.114-14.651S-1921.123,1367.59-1921.123,1367.59Z" transform="translate(1944.807 -1307.213)" fill="#1d3b54"/>
      <path id="Path_135499" data-name="Path 135499" d="M-1842.631,1388.707c-.454,3.018.023,6.982.971,18.017s-1.659,24.395-1.659,24.395a13.239,13.239,0,0,1-7.047,0c.087-.776,0-26.9,0-29.223s-.668-4.969-.841-7.641a54.44,54.44,0,0,0-1.918-8.6c-.286-1.027-.581-2.058-.867-3.058h0c-.162-.56-.32-1.111-.473-1.644-1.342-4.655-3.147-22.63-3.147-22.63s10-8.058,14.875-.472,2.37,13.1,2.2,14.05S-1842.178,1385.69-1842.631,1388.707Z" transform="translate(1884.226 -1298.554)" fill="#1d3b54"/>
      <path id="Path_135500" data-name="Path 135500" d="M-1827.64,1467.136c-.078.172-5.062,11.237-6.345,13.155-.286-1.027-.58-2.059-.867-3.058h0S-1827.807,1467.379-1827.64,1467.136Z" transform="translate(1865.086 -1393.194)" fill="#122536"/>
      <path id="Path_135501" data-name="Path 135501" d="M-1857.787,1868.739h-.882v-3.72c-.735.062-3.2,2.4-3.968,3.075s-1.812.646-5.03.85-3.521-1.722-3.012-2.378,2.156-.942,3.012-1.352c3.443.184,7.644-4.656,9.66-4.646,1.071.005,1.061.6,1.094.711h0a.1.1,0,0,1,0,.015q.055.253.121.5C-1856.229,1863.851-1857.787,1868.739-1857.787,1868.739Z" transform="translate(1895.379 -1724.041)" fill="#132738"/>
      <path id="Path_135502" data-name="Path 135502" d="M-1986,1877.335h-1.058s.353-4-.627-4.036-3.408,3.252-4.859,3.762-8.894.939-8.933-.432,2.86-1.92,3.761-2.312c3.071-.007,8.064-3.386,9.613-4.072a5.589,5.589,0,0,1,3.224-.273,15.6,15.6,0,0,1,.172,1.641A30.311,30.311,0,0,1-1986,1877.335Z" transform="translate(2005.208 -1731.847)" fill="#132738"/>
      <g id="Group_92612" data-name="Group 92612" transform="translate(8.32 72.55)">
        <path id="Path_135503" data-name="Path 135503" d="M-1964.34,1465.36h-6.982a1.287,1.287,0,0,1-1.286-1.286v-4.4a1.287,1.287,0,0,1,1.286-1.286h6.982a1.287,1.287,0,0,1,1.286,1.286v4.4A1.287,1.287,0,0,1-1964.34,1465.36Zm-6.982-6.111a.424.424,0,0,0-.423.423v4.4a.424.424,0,0,0,.423.423h6.982a.423.423,0,0,0,.423-.423v-4.4a.423.423,0,0,0-.423-.423Z" transform="translate(1972.608 -1458.386)" fill="#cfbeb8"/>
      </g>
      <g id="Group_92613" data-name="Group 92613" transform="translate(0 77.635)">
        <rect id="Rectangle_31976" data-name="Rectangle 31976" width="26.194" height="18.767" fill="#cfbeb8"/>
      </g>
      <path id="Path_135504" data-name="Path 135504" d="M-1762.951,1208.982l-4.242-1.022s.738-14.963,3.287-21.3c.022-.056.116.02.172.03-.025-.143-.051-.286-.077-.429-.054-.3-.109-.6-.167-.889-.648-3.372-1.4-6.317-1.4-6.317s-5.35-13.464,1.157-12.412a9.17,9.17,0,0,1,4.1,6.194,85.259,85.259,0,0,1,1.343,13.177,61.165,61.165,0,0,1-1.491,8.581S-1762.781,1208.073-1762.951,1208.982Z" transform="translate(1808.399 -1140.453)" fill="#eb4747"/>
      <path id="Path_135505" data-name="Path 135505" d="M-1820.5,1101.131s1.6,4.223.355,7.488c0,0,5.853-.381,6.075-1.064s-.235-7.011.57-8.882S-1820.5,1101.131-1820.5,1101.131Z" transform="translate(1853.018 -1082.949)" fill="#eea886"/>
      <path id="Path_135506" data-name="Path 135506" d="M-1874.829,1152.039s-3.459,1.23-5.022,1.572-4.833,1.891-4.568,7.722a121.788,121.788,0,0,0,1.6,13.394,52.847,52.847,0,0,1-.444,11.982,43.839,43.839,0,0,0,18.048,0s-1.729-5.285-1.685-6.652,5.765-12.62,6.031-14.4,1.419-9.613-1.2-11.344-4.745-1.5-5.853-2.278S-1873.211,1151.483-1874.829,1152.039Z" transform="translate(1906.78 -1127.798)" fill="#eb4747"/>
      <path id="Path_135507" data-name="Path 135507" d="M-1874.646,1224.511a48.487,48.487,0,0,1-25.441.014,35.059,35.059,0,0,0,2.332-6.263v0a37.452,37.452,0,0,0,.872-4.2h0a38.062,38.062,0,0,0-.35-13.628c1.635-13.459,22-17.475,23.631-13.209s-3.161,22.6-3.4,24.172S-1874.646,1224.511-1874.646,1224.511Z" transform="translate(1919.943 -1156.437)" fill="#eb4747"/>
      <path id="Path_135508" data-name="Path 135508" d="M-1845.257,1007.669c-2.353-.807-8.714-1.667-10.343,8.1s1.92,9.931,5.566,9.653,9.349-6.868,9.785-8.871S-1838.543,1009.972-1845.257,1007.669Z" transform="translate(1882.876 -1006.433)" fill="#eea886"/>
      <path id="Path_135509" data-name="Path 135509" d="M-1845.208,1007.3s1.943,4.156,4.491,5.605c0,0,1.6,4.416,5.054,6.2,0,0,9.175-6.078,3.851-13.3S-1844.607,1004.337-1845.208,1007.3Z" transform="translate(1873.794 -1002.315)" fill="#fccca2"/>
      <path id="Path_135510" data-name="Path 135510" d="M-1821.171,1056.074a1.2,1.2,0,0,1,2.2.06c.617,1.394-1.6,3.849-2.2,3.716S-1821.955,1058-1821.171,1056.074Z" transform="translate(1854.024 -1046.924)" fill="#eea886"/>
      <path id="Path_135511" data-name="Path 135511" d="M-1781.972,1026.286c.2-.313,6.276-3.126,7.54,2.751s-4.893,12.711-5.972,15.65.487,9.826.487,9.826-3.7-3.5-4.825-7.167C-1785.973,1043.32-1786.386,1033.17-1781.972,1026.286Z" transform="translate(1823.644 -1021.677)" fill="#fccca2"/>
      <path id="Path_135512" data-name="Path 135512" d="M-1772.548,1029.917a6.131,6.131,0,0,0-2.1,3.793,4.56,4.56,0,0,1,.4-2.917A1.677,1.677,0,0,1-1772.548,1029.917Z" transform="translate(1814.527 -1025.509)" fill="#285173"/>
      <path id="Path_135513" data-name="Path 135513" d="M-1966.375,1431.226s-.3,1.245-.489,1.876-.3,1.4.14,1.734,1.394,1.474,2.035,2,4.286-1.057,4.691-1.678-.39-4.1-1.5-4.8-2.782-1.672-2.782-1.672Z" transform="translate(1976.238 -1360.86)" fill="#eea886"/>
      <path id="Path_135514" data-name="Path 135514" d="M-1936.9,1166.584s-4.851,1.922-5.138,8.666-.551,10.263-.814,11.3-.766,5.224-1.987,7.741c-1.185,2.442-6.271,14.3-6.271,14.3l4.425,2.564s7.486-14.026,8.145-16.014,3.367-15.825,3.583-18.157C-1934.779,1175.1-1932.3,1166.724-1936.9,1166.584Z" transform="translate(1962.847 -1140.452)" fill="#eb4747"/>
      <path id="Path_135515" data-name="Path 135515" d="M-1937.093,1302.2a8.74,8.74,0,0,1-5.537-1.21,66.764,66.764,0,0,1-2.206,6.328c-.767,1.619-6.271,14.3-6.271,14.3l4.425,2.564s7.5-13.547,8.145-16.014S-1937.093,1302.2-1937.093,1302.2Z" transform="translate(1962.847 -1253.481)" fill="#eb4747"/>
      <path id="Path_135516" data-name="Path 135516" d="M-1885.422,1286.533a37.511,37.511,0,0,0,.872-4.2h0s.933-1.986,1.249-2.935,2.661-12.616,2.661-12.616S-1878.159,1277.736-1885.422,1286.533Z" transform="translate(1907.611 -1224.708)" fill="#8f2b2b"/>
      <path id="Path_135517" data-name="Path 135517" d="M-1752.167,1264.012s-2.805,12.925-2.819,13.326.792,5.68,1.033,6.868Z" transform="translate(1797.924 -1222.382)" fill="#8f2b2b"/>
    </g>
    <g id="Group_92619" data-name="Group 92619" transform="translate(-2993.99 346.661)">
      <g id="Group_92616" data-name="Group 92616" transform="translate(46.95 49.559)">
        <g id="Group_92615" data-name="Group 92615">
          <path id="Path_135518" data-name="Path 135518" d="M-2255.687,1292.54s1.709.376,2.318-.416a5.607,5.607,0,0,1,2.029-1.323c.475-.205,1.7-1.379,1.964-.781s-1.926,2.031-2.325,2.424,2.092.638,2.512,1.042-.221,4.508-1.912,4.141-3.254-1.874-3.564-1.88a10.612,10.612,0,0,1-1.24-.218Z" transform="translate(2255.905 -1289.853)" fill="#eea886"/>
        </g>
      </g>
      <g id="Group_92618" data-name="Group 92618" transform="translate(51.835 53.013)">
        <g id="Group_92617" data-name="Group 92617">
          <path id="Path_135519" data-name="Path 135519" d="M-2223.734,1311.57s5.1,1.466,5.359,1.849.163.654-.32.537-4.969-1.274-4.969-1.274,5.745,2.749,6.026,3.016c.164.156.01.693-.254.654s-6.115-2.438-6.115-2.438,5.36,2.577,5.528,2.87a.409.409,0,0,1-.529.55c-.411-.164-5.521-2.274-5.521-2.274s3.783,2.121,3.779,2.453c0,.2-.114.673-1.073.1s-3.365-1.7-3.365-1.7Z" transform="translate(2225.19 -1311.57)" fill="#eea886"/>
        </g>
      </g>
      <path id="Path_135520" data-name="Path 135520" d="M-2335.475,1800.4s1.781,3.186,2.839,3.832c1.318.8,3.877,3.385,4.77,3.5s4.106.689,3.485,2.5c-.508,1.486-8.17,1.273-9.034.528s-3.448-3.417-4.491-3.358-.655,3.855-.655,3.855h-1.132s-.4-3.693-.443-4.328c-.141-1.879,1.2-3.262,1.259-4.334s.121-1.873.121-1.873Z" transform="translate(2373.696 -1669.628)" fill="#292c47"/>
      <path id="Path_135521" data-name="Path 135521" d="M-2325.15,1806.62a6.108,6.108,0,0,1-4.469-.245c-1.944-1.117-5.674-2.813-6.992-2.825,0,0,.719-2.2.734-2.446s.094-1.4.094-1.4l3.261-.523a28.219,28.219,0,0,0,3.048,3.837A52.918,52.918,0,0,1-2325.15,1806.62Z" transform="translate(2370.723 -1668.598)" fill="#eea886"/>
      <path id="Path_135522" data-name="Path 135522" d="M-2527.824,1815.046a13.656,13.656,0,0,0,.658,2.806c.344.6,1.289,3.665,1.718,4.238s1.375,4.867,0,5.383-4.609,1.375-5.7-.344a7.065,7.065,0,0,1-1.059-4.753c.172-1.317,1.478-7.362,1.46-7.96S-2527.824,1815.046-2527.824,1815.046Z" transform="translate(2535.253 -1681.275)" fill="#eea886"/>
      <path id="Path_135523" data-name="Path 135523" d="M-2526.63,1856.043s.148,3.337-2.372,3.337-3.636-3.036-3.636-3.036-.859,1.49,0,4.669,4.438,2.52,5.239,2.405S-2522.8,1862.3-2526.63,1856.043Z" transform="translate(2535.888 -1716.418)" fill="#292c47"/>
      <path id="Path_135524" data-name="Path 135524" d="M-2530.287,1333.822a40.742,40.742,0,0,0-4.407,6.9c-1.15,2.746-3.065,8.765-2.81,13.427s1.788,13.411,1.341,15.391-.894,6.067-1.373,7.472-2.4,5.492-2.587,9.707,1.364,22.7,1.236,24.428,5.58.67,5.58.67.145-16.668.784-19.542,1.405-12.645,1.98-13.347,2.188-8.112,2.291-9.32c.1-1.171,6.932-21.424,7.315-24.873s8.939-10.91,8.939-10.91A29.859,29.859,0,0,0-2530.287,1333.822Z" transform="translate(2541.874 -1276.069)" fill="#292c47"/>
      <path id="Path_135525" data-name="Path 135525" d="M-2428.538,1402.073c-1.213-.191-4.463-18.871-4.08-22.191s.767-10.4-.32-13.279c-.712-1.889-5.164-11.5-8.159-18.247-.422-.953-.816-1.847-1.167-2.655a30.007,30.007,0,0,1-1.6-4.072c-.064-1.277-4.228-23.278,12.223-13.491a19.627,19.627,0,0,0,.358,2.379c.192.638,4.6,16.923,5.044,23.182a123.718,123.718,0,0,0,1.788,12.9,27.673,27.673,0,0,1-.574,6.957c-.383,1.15,2.491,27.1,2.684,27.742S-2427.325,1402.264-2428.538,1402.073Z" transform="translate(2461.343 -1270.385)" fill="#292c47"/>
      <path id="Path_135526" data-name="Path 135526" d="M-2395.507,1133.76a6.006,6.006,0,0,1,3.718,3.148c1.039,2.45.794,5.767.884,6.9s2.443,12.214,2.694,12.536,4.567,1.154,7.121,1.828c3.588.946,6.752,2.018,6.752,2.018l-1.434,4.71s-16.412-3.43-17.284-5.055c-1.925-3.589-5.418-15.348-5.418-15.348S-2401.84,1135.221-2395.507,1133.76Z" transform="translate(2423.496 -1109.032)" fill="#ba3838"/>
      <path id="Path_135527" data-name="Path 135527" d="M-2490.314,1121.982a32.57,32.57,0,0,0,4.194,1.685c1.081.216,5.276,5.662,6.011,7.65s0,4.971-1.511,8.474-.085,4.669-.776,8.171a81.435,81.435,0,0,0-1.164,12.862c.13,1.945-17.485,2.317-21.507-1.227,0,0,4.039-6.053,4.558-6.918s.085-5.577-.39-6.787-5.454-10.948-5.454-10.948-.781-8.461,1.558-10.278c2.031-1.578,7.569-2.142,8.563-2.488A17,17,0,0,1-2490.314,1121.982Z" transform="translate(2513.569 -1098.99)" fill="#eddad3"/>
      <path id="Path_135528" data-name="Path 135528" d="M-2399.082,1123.923l1.891-2.215-1.643-5.83A38.436,38.436,0,0,0-2399.082,1123.923Z" transform="translate(2423.333 -1093.993)" fill="#d6c5be"/>
      <path id="Path_135529" data-name="Path 135529" d="M-2434.663,1077.744a74.308,74.308,0,0,0-.49,7.569s-3.233,3.242-6.914-3.782a9.644,9.644,0,0,0,.381-6.84C-2442.851,1070.746-2434.663,1077.744-2434.663,1077.744Z" transform="translate(2459.402 -1058.345)" fill="#eea886"/>
      <path id="Path_135530" data-name="Path 135530" d="M-2418.281,1147.84v2.961l-3.723-2.781Z" transform="translate(2442.531 -1120.872)" fill="#eea886"/>
      <path id="Path_135531" data-name="Path 135531" d="M-2443.2,1128.923l-1.546-1.913-5.207-5.187-1.684,1.622Z" transform="translate(2467.45 -1098.994)" fill="#d6c5be"/>
      <path id="Path_135532" data-name="Path 135532" d="M-2506.417,1166.257c-1.465,7.017-12.069-.789-12.069-.789s6.876-11.553,4.14-20.786c-.021-.074-.043-.146-.065-.219q-.262-.877-.523-1.667c-2.512-7.636-4.767-9.419-4.767-9.419s3.186-7.01,6.142-7.466,5.646-.965,5.646-.965,4.371,6.628,4.579,9.547S-2504.951,1159.24-2506.417,1166.257Z" transform="translate(2524.688 -1101.621)" fill="#ba3838"/>
      <path id="Path_135533" data-name="Path 135533" d="M-2382.012,1138.927a18.733,18.733,0,0,1-2.435,9.307s.059,7.074.146,9.538.673,11.78.673,11.78l-3.036,1.779a.856.856,0,0,1-1.283-.842c.858-7.091,3.648-33.99-2.395-41.219l2.424.714S-2382.012,1136.112-2382.012,1138.927Z" transform="translate(2415.905 -1105.256)" fill="#ba3838"/>
      <path id="Path_135534" data-name="Path 135534" d="M-2395.4,1121.708l2.383.658-4.027-6.489Z" transform="translate(2421.543 -1093.993)" fill="#fae6de"/>
      <path id="Path_135535" data-name="Path 135535" d="M-2443.353,1127.01l-2.176,2.854-4.451-7.415,1.42-.626Z" transform="translate(2466.057 -1098.994)" fill="#fae6de"/>
      <path id="Path_135536" data-name="Path 135536" d="M-2447.968,984.244a7.743,7.743,0,0,1,8.464,6.7,18.858,18.858,0,0,1-.44,2.94c-.335,1.3.993,5.024.7,5.225a8.292,8.292,0,0,1-1.518.5s-1.135,4.192-2.586,4.225a12.027,12.027,0,0,1-9.819-5.851C-2455.993,992.969-2457.165,985.128-2447.968,984.244Z" transform="translate(2470.453 -983.275)" fill="#eea886"/>
      <path id="Path_135537" data-name="Path 135537" d="M-2442.394,985.98a20.543,20.543,0,0,1-7.24,3.388c-3.654.685-5.63,7.041-5.63,7.041s-6.128-9.21-1.884-15.107S-2441.928,978.891-2442.394,985.98Z" transform="translate(2473.343 -978.31)" fill="#d88a51"/>
      <path id="Path_135538" data-name="Path 135538" d="M-2424.259,1041.153a1.133,1.133,0,0,0-2.017-.714c-1.121,1.028.609,4.339,1.55,3.962S-2424.2,1041.888-2424.259,1041.153Z" transform="translate(2446.431 -1030.191)" fill="#eea886"/>
      <path id="Path_135539" data-name="Path 135539" d="M-2421.43,1092.427c-.083.444-.167.964-.237,1.513a15.893,15.893,0,0,1-4.673-3.974A18.074,18.074,0,0,0-2421.43,1092.427Z" transform="translate(2446.177 -1072.203)" fill="#a77860"/>
      <path id="Path_135540" data-name="Path 135540" d="M-2487.065,1191.533a30.8,30.8,0,0,1-2.147,8.925q-.263-.876-.524-1.667C-2488.616,1195.658-2487.065,1191.533-2487.065,1191.533Z" transform="translate(2499.489 -1157.614)" fill="#912b2b"/>
      <path id="Path_135541" data-name="Path 135541" d="M-2375.624,1076.655c7.267-9.944,3.656-24.949-8.065-33.515s-27.114-7.449-34.381,2.495a19.408,19.408,0,0,0-3.528,8.7c0,.018-2.778,17.406-10.635,30.083-4.1,5.614-2.064,14.085,4.553,18.921s15.308,4.205,19.411-1.408c9.7-11.343,25.432-19.27,25.432-19.27h0A19.406,19.406,0,0,0-2375.624,1076.655Z" transform="translate(2452.914 -1027.984)" opacity="0.89" fill="url(#linear-gradient-4)"/>
      <rect id="Rectangle_31977" data-name="Rectangle 31977" width="0.975" height="33.874" transform="translate(42.894 31.884) rotate(29.228)" fill="#fff"/>
      <rect id="Rectangle_31978" data-name="Rectangle 31978" width="0.975" height="33.874" transform="translate(38.155 70.068) rotate(-136.931)" fill="#fff"/>
      <path id="Path_135542" data-name="Path 135542" d="M-2271.281,1199.926l-.795-5.108-5.023.782-.769-4.938-4.853.755-.833-5.354.662-.1.73,4.692,4.853-.755.769,4.938,5.023-.782.795,5.108,4.734-.737.1.662Z" transform="translate(2326.105 -1152.928)" fill="#fff"/>
      <rect id="Rectangle_31979" data-name="Rectangle 31979" width="23.59" height="10.004" transform="translate(16.908 66.715) rotate(36.159)" fill="#d46946"/>
      <rect id="Rectangle_31980" data-name="Rectangle 31980" width="31.177" height="16.104" transform="matrix(0.807, 0.59, -0.59, 0.807, 19.875, 56.226)" fill="#e8734d"/>
      <path id="Path_135543" data-name="Path 135543" d="M-2462.817,1351.507a1.684,1.684,0,0,0,.913.26c.78-.069,1.585-.935,2.477-.28s-.5,3.863-1.085,4.273-2.054-.123-3.738-1.7S-2462.817,1351.507-2462.817,1351.507Z" transform="translate(2478.476 -1291.919)" fill="#eea886"/>
      <path id="Path_135544" data-name="Path 135544" d="M-2447.4,1351.644a34.441,34.441,0,0,1,3.4,1.012c1.547.555,3.236,1.473,3.247,1.808.013.374-1.634-.337-3.206-.79-1.447-.417-1.234-.106-1.234-.106s-.055-.092,1.43.652c1.6.8,3.151,1.771,3.116,2.169-.017.193-.131.26-.761.059.336.188.33.3.26.441-.359.72-2.9-.11-3.906-.441.773.258,1.312.526.786.83-.6.349-4.137-.979-5.45-1.34C-2451.156,1355.545-2447.4,1351.644-2447.4,1351.644Z" transform="translate(2466.115 -1292.256)" fill="#eea886"/>
      <path id="Path_135545" data-name="Path 135545" d="M-2538.26,1130.166a6.7,6.7,0,0,0-6.523,3.775,19.7,19.7,0,0,0-2.532,8.268c-.282,1.991-1.56,7.426-1.69,7.987s-3.024,7.255-1.7,9.594,14.9,9.269,14.812,9.787,2.347-5.233,2.347-5.233-5.488-3.057-6.386-4c-1.46-1.529-4.541-3.177-3.908-5.074.742-2.229,2.973-9.75,3.491-10.851S-2534.957,1131.568-2538.26,1130.166Z" transform="translate(2551.049 -1105.991)" fill="#ba3838"/>
      <path id="Path_135546" data-name="Path 135546" d="M-2473.461,1021.663c1.12,2.549.443,5.313-1.513,6.172s-4.449-.511-5.569-3.06-.443-5.313,1.513-6.172S-2474.582,1019.114-2473.461,1021.663Z" transform="translate(2492.213 -1011.978)" fill="#d88a51"/>
    </g>
    <g id="Group_92624" data-name="Group 92624" transform="translate(-2806.734 336.192)">
      <g id="Group_92620" data-name="Group 92620" transform="translate(0 0)">
        <path id="Path_135547" data-name="Path 135547" d="M-1830.384,799.6a3.5,3.5,0,0,1-2.088-.63,2.624,2.624,0,0,1-1.137-1.91,15.929,15.929,0,0,0-1.316-3.988,7.026,7.026,0,0,1-3.162-5.776,7.044,7.044,0,0,1,6.938-7.133,7.044,7.044,0,0,1,7.133,6.938,7.006,7.006,0,0,1-2.487,5.465,15.149,15.149,0,0,0-.586,3.954,3.076,3.076,0,0,1-3.028,3.069Q-1830.251,799.6-1830.384,799.6Zm-.758-18.862a6.468,6.468,0,0,0-6.37,6.55,6.452,6.452,0,0,0,2.968,5.345l.069.045.035.074a16.6,16.6,0,0,1,1.4,4.227l0,.022a2.055,2.055,0,0,0,.9,1.5,2.963,2.963,0,0,0,1.973.512,2.5,2.5,0,0,0,2.5-2.459v-.022a15.8,15.8,0,0,1,.63-4.207l.024-.088.07-.058a6.434,6.434,0,0,0,2.349-5.072A6.468,6.468,0,0,0-1831.142,780.736Z" transform="translate(1838.089 -780.16)" fill="#64b888"/>
      </g>
      <g id="Group_92621" data-name="Group 92621" transform="translate(4.587 9.157)">
        <path id="Path_135548" data-name="Path 135548" d="M-1803.856,853.307l-1.6-7.555,1.71,1.174.889-1.184.946.951,1.375-1.395-.218,7.731-.575-.016.177-6.269-.756.767-.887-.892-.821,1.094-.978-.671,1.3,6.145Z" transform="translate(1805.459 -845.299)" fill="#64b888"/>
      </g>
      <g id="Group_92622" data-name="Group 92622" transform="translate(5.421 18.52)">
        <rect id="Rectangle_31981" data-name="Rectangle 31981" width="4.991" height="2.011" transform="translate(0 0.413) rotate(-4.748)" fill="#64b888"/>
      </g>
      <g id="Group_92623" data-name="Group 92623" transform="translate(4.452 16.406)">
        <rect id="Rectangle_31982" data-name="Rectangle 31982" width="6.596" height="3.238" transform="translate(0 0.546) rotate(-4.747)" fill="#64b888"/>
      </g>
    </g>
    <path id="Path_135549" data-name="Path 135549" d="M-1396.625,961.736l.213,4.57,1.814-.084-.357-7.667-7.829.364.084,1.814,4.732-.22-8.342,9.157-8.68-7.908-1.223,1.343,10.023,9.131Z" transform="translate(-1501.898 -599.672)" fill="#64b888"/>
  </g>
</svg>
