<svg xmlns="http://www.w3.org/2000/svg" xmlns:xlink="http://www.w3.org/1999/xlink" width="227.268" height="226" viewBox="0 0 227.268 226">
  <defs>
    <clipPath id="clip-path">
      <circle id="Ellipse_4213" data-name="Ellipse 4213" cx="48.945" cy="48.945" r="48.945" fill="none"/>
    </clipPath>
    <linearGradient id="linear-gradient" x1="0.632" y1="0.817" x2="0.28" y2="-0.029" gradientUnits="objectBoundingBox">
      <stop offset="0.004" stop-color="#e38ddd"/>
      <stop offset="1" stop-color="#9571f6"/>
    </linearGradient>
    <linearGradient id="linear-gradient-2" x1="0" y1="0.5" x2="1" y2="0.5" xlink:href="#linear-gradient"/>
    <linearGradient id="linear-gradient-3" x1="-0.052" y1="0.5" x2="0.948" y2="0.5" gradientUnits="objectBoundingBox">
      <stop offset="0" stop-color="#d8dee8"/>
      <stop offset="1" stop-color="#fff"/>
    </linearGradient>
    <linearGradient id="linear-gradient-4" x1="-0.054" y1="0.5" x2="0.946" y2="0.5" gradientUnits="objectBoundingBox">
      <stop offset="0" stop-color="#ffc444"/>
      <stop offset="0.996" stop-color="#f36f56"/>
    </linearGradient>
    <linearGradient id="linear-gradient-5" x1="0.644" y1="1.285" x2="0.641" y2="2.603" xlink:href="#linear-gradient-3"/>
    <linearGradient id="linear-gradient-6" x1="-3.328" y1="0.5" x2="-2.328" y2="0.5" xlink:href="#linear-gradient-3"/>
    <linearGradient id="linear-gradient-7" x1="-2.87" y1="2.758" x2="-2.823" y2="0.853" xlink:href="#linear-gradient-3"/>
    <linearGradient id="linear-gradient-8" x1="-17.87" y1="-0.11" x2="-18.241" y2="1.762" xlink:href="#linear-gradient"/>
    <linearGradient id="linear-gradient-9" x1="-11.444" y1="-0.111" x2="-11.79" y2="1.761" xlink:href="#linear-gradient"/>
    <linearGradient id="linear-gradient-10" x1="-0.175" y1="0.528" x2="0.962" y2="0.528" gradientUnits="objectBoundingBox">
      <stop offset="0" stop-color="#aa80f9"/>
      <stop offset="0.996" stop-color="#6165d7"/>
    </linearGradient>
    <linearGradient id="linear-gradient-11" x1="-0.323" y1="-5.194" x2="0.956" y2="3.969" gradientUnits="objectBoundingBox">
      <stop offset="0" stop-color="#311944"/>
      <stop offset="1" stop-color="#893976"/>
    </linearGradient>
    <linearGradient id="linear-gradient-12" x1="0.464" y1="2.445" x2="0.527" y2="-1.732" xlink:href="#linear-gradient-4"/>
    <linearGradient id="linear-gradient-13" x1="-0.52" y1="-6.601" x2="0.759" y2="2.562" xlink:href="#linear-gradient-11"/>
    <linearGradient id="linear-gradient-14" x1="0.474" y1="1.793" x2="0.536" y2="-2.385" xlink:href="#linear-gradient-4"/>
    <linearGradient id="linear-gradient-15" y1="0.5" x2="1" y2="0.5" gradientUnits="objectBoundingBox">
      <stop offset="0" stop-color="#444b8c"/>
      <stop offset="0.996" stop-color="#26264f"/>
    </linearGradient>
    <linearGradient id="linear-gradient-16" x1="-0.448" y1="0.5" x2="1" y2="0.5" xlink:href="#linear-gradient-15"/>
    <linearGradient id="linear-gradient-18" x1="0.685" y1="1.043" x2="2.119" y2="4.344" xlink:href="#linear-gradient-4"/>
    <linearGradient id="linear-gradient-19" x1="1.499" y1="-0.7" x2="-0.142" y2="1.481" gradientUnits="objectBoundingBox">
      <stop offset="0.004" stop-color="#6165d7"/>
      <stop offset="1" stop-color="#aa80f9"/>
    </linearGradient>
    <linearGradient id="linear-gradient-20" x1="1.494" y1="1.504" x2="0.284" y2="0.252" xlink:href="#linear-gradient-19"/>
    <linearGradient id="linear-gradient-21" x1="1.588" y1="1.578" x2="0.146" y2="0.143" xlink:href="#linear-gradient-10"/>
    <linearGradient id="linear-gradient-22" x1="0" y1="0.5" x2="1" y2="0.5" xlink:href="#linear-gradient-4"/>
    <linearGradient id="linear-gradient-23" x1="0.443" y1="3.193" x2="0.515" y2="-0.318" gradientUnits="objectBoundingBox">
      <stop offset="0.1" stop-color="#311944"/>
      <stop offset="0.267" stop-color="#361b47"/>
      <stop offset="0.48" stop-color="#462050"/>
      <stop offset="0.719" stop-color="#602a5f"/>
      <stop offset="0.974" stop-color="#843773"/>
      <stop offset="1" stop-color="#893976"/>
    </linearGradient>
    <linearGradient id="linear-gradient-24" x1="0.963" y1="0.557" x2="17.578" y2="2.461" xlink:href="#linear-gradient-23"/>
    <linearGradient id="linear-gradient-26" x1="0.862" y1="7.195" x2="-0.865" y2="-22.66" gradientUnits="objectBoundingBox">
      <stop offset="0.1" stop-color="#311944"/>
      <stop offset="0.685" stop-color="#6d2e66"/>
      <stop offset="1" stop-color="#893976"/>
    </linearGradient>
    <linearGradient id="linear-gradient-27" x1="2.395" y1="0.84" x2="-0.529" y2="0.306" xlink:href="#linear-gradient-11"/>
    <linearGradient id="linear-gradient-28" x1="-0.666" y1="0.097" x2="0.515" y2="0.582" xlink:href="#linear-gradient-11"/>
    <linearGradient id="linear-gradient-29" x1="0.441" y1="-0.481" x2="0.531" y2="0.934" xlink:href="#linear-gradient-26"/>
    <linearGradient id="linear-gradient-30" x1="0.202" y1="0.317" x2="0.936" y2="0.922" xlink:href="#linear-gradient-11"/>
    <linearGradient id="linear-gradient-31" x1="0.152" y1="0.495" x2="0.441" y2="0.471" xlink:href="#linear-gradient-26"/>
    <linearGradient id="linear-gradient-32" x1="0.588" y1="2.525" x2="0.488" y2="0.163" xlink:href="#linear-gradient-23"/>
    <linearGradient id="linear-gradient-33" x1="0.637" y1="3.156" x2="0.467" y2="-0.19" xlink:href="#linear-gradient-11"/>
    <linearGradient id="linear-gradient-34" x1="2.587" y1="1.551" x2="-0.601" y2="-0.027" xlink:href="#linear-gradient-4"/>
    <linearGradient id="linear-gradient-35" x1="-0.32" y1="0.224" x2="2.935" y2="1.315" xlink:href="#linear-gradient-4"/>
    <linearGradient id="linear-gradient-36" x1="0.782" y1="2.342" x2="0.467" y2="0.22" xlink:href="#linear-gradient-4"/>
    <linearGradient id="linear-gradient-37" x1="2.144" y1="1.677" x2="-0.112" y2="0.087" xlink:href="#linear-gradient-19"/>
    <linearGradient id="linear-gradient-38" x1="0.5" y1="1.122" x2="0.5" y2="-0.088" xlink:href="#linear-gradient-4"/>
    <linearGradient id="linear-gradient-39" x1="1.021" y1="1.739" x2="0.319" y2="0.126" gradientUnits="objectBoundingBox">
      <stop offset="0" stop-color="#444b8c"/>
      <stop offset="0.996" stop-color="#3e4177"/>
    </linearGradient>
    <linearGradient id="linear-gradient-40" x1="-40.037" y1="6.871" x2="-38.913" y2="4.493" xlink:href="#linear-gradient-4"/>
    <linearGradient id="linear-gradient-41" x1="2.969" y1="-2.676" x2="3.266" y2="2.001" xlink:href="#linear-gradient-15"/>
    <linearGradient id="linear-gradient-42" x1="0.73" y1="0.663" x2="0.73" y2="-0.546" xlink:href="#linear-gradient-15"/>
    <linearGradient id="linear-gradient-44" x1="0.263" y1="0.95" x2="0.533" y2="-0.004" gradientUnits="objectBoundingBox">
      <stop offset="0" stop-color="#ff9085"/>
      <stop offset="1" stop-color="#fb6fbb"/>
    </linearGradient>
    <linearGradient id="linear-gradient-45" x1="-5.414" y1="-4.245" x2="-4.362" y2="-2.795" xlink:href="#linear-gradient-15"/>
    <linearGradient id="linear-gradient-46" x1="-36.743" y1="-0.525" x2="-36.743" y2="-1.877" xlink:href="#linear-gradient-4"/>
    <linearGradient id="linear-gradient-47" x1="-6.356" y1="-5.701" x2="-5.023" y2="-3.912" xlink:href="#linear-gradient-15"/>
    <linearGradient id="linear-gradient-48" x1="-12.554" y1="-0.515" x2="-11.459" y2="0.793" xlink:href="#linear-gradient-15"/>
    <linearGradient id="linear-gradient-49" x1="-57.381" y1="1.222" x2="-57.381" y2="-0.193" xlink:href="#linear-gradient-4"/>
    <linearGradient id="linear-gradient-50" x1="1.126" y1="-0.124" x2="-0.326" y2="1.359" xlink:href="#linear-gradient-15"/>
    <linearGradient id="linear-gradient-51" x1="1.374" y1="0.975" x2="-0.546" y2="-0.04" xlink:href="#linear-gradient-44"/>
    <linearGradient id="linear-gradient-52" x1="-15.08" y1="-1.298" x2="-13.72" y2="0.479" xlink:href="#linear-gradient-15"/>
    <linearGradient id="linear-gradient-55" x1="0" y1="0.5" x2="1" y2="0.5" xlink:href="#linear-gradient-44"/>
    <linearGradient id="linear-gradient-57" x1="-0.067" y1="1.522" x2="-1.732" y2="0.051" xlink:href="#linear-gradient-44"/>
    <linearGradient id="linear-gradient-59" x1="0.208" y1="0.03" x2="1.346" y2="2.549" xlink:href="#linear-gradient-4"/>
    <linearGradient id="linear-gradient-60" x1="13.847" y1="0.069" x2="12.749" y2="1.106" gradientUnits="objectBoundingBox">
      <stop offset="0" stop-color="#ffc444"/>
      <stop offset="0.314" stop-color="#fba94a"/>
      <stop offset="0.996" stop-color="#f36f56"/>
    </linearGradient>
    <linearGradient id="linear-gradient-61" x1="11.355" y1="0.094" x2="10.422" y2="1.17" xlink:href="#linear-gradient-60"/>
    <linearGradient id="linear-gradient-62" x1="8.689" y1="0.061" x2="7.723" y2="1.175" xlink:href="#linear-gradient-60"/>
    <linearGradient id="linear-gradient-63" x1="0.995" y1="0.063" x2="-0.1" y2="1.101" xlink:href="#linear-gradient-60"/>
    <linearGradient id="linear-gradient-64" x1="0.329" y1="0.554" x2="-0.255" y2="0.738" gradientUnits="objectBoundingBox">
      <stop offset="0" stop-color="#fcb148"/>
      <stop offset="0.052" stop-color="#fdb946"/>
      <stop offset="0.142" stop-color="#fec144"/>
      <stop offset="0.318" stop-color="#ffc444"/>
      <stop offset="0.485" stop-color="#fdb946"/>
      <stop offset="0.775" stop-color="#f99c4c"/>
      <stop offset="0.866" stop-color="#f8924f"/>
      <stop offset="1" stop-color="#f8924f"/>
    </linearGradient>
    <linearGradient id="linear-gradient-65" x1="0.727" y1="0.007" x2="0.207" y2="1.135" gradientUnits="objectBoundingBox">
      <stop offset="0" stop-color="#ffdb44"/>
      <stop offset="1" stop-color="#feef06"/>
    </linearGradient>
    <linearGradient id="linear-gradient-66" x1="0.636" y1="1.231" x2="0.531" y2="0.666" xlink:href="#linear-gradient-64"/>
    <linearGradient id="linear-gradient-67" x1="0.409" y1="0.31" x2="0.858" y2="1.247" xlink:href="#linear-gradient-64"/>
    <linearGradient id="linear-gradient-68" x1="0.253" y1="0.019" x2="0.711" y2="1.039" xlink:href="#linear-gradient-65"/>
    <linearGradient id="linear-gradient-69" x1="0.464" y1="0.369" x2="1.215" y2="1.306" xlink:href="#linear-gradient-64"/>
    <linearGradient id="linear-gradient-76" x1="0" y1="0.5" x2="1" y2="0.5" xlink:href="#linear-gradient-26"/>
    <linearGradient id="linear-gradient-77" x1="0.869" y1="-0.737" x2="0.041" y2="2.037" xlink:href="#linear-gradient-44"/>
  </defs>
  <g id="t2-i11" transform="translate(-447.148 -455)">
    <path id="Path_136383" data-name="Path 136383" d="M671.074,551.531c-6.16-40.32-31.416-89.856-81.312-95.04,0,0-37.883-4.608-75.228,2.376-22.164,4.145-41.6,16.483-53.9,34.217a74.206,74.206,0,0,0-11.42,59.972c3.238,13.39,5.426,27.248,4.825,41.007-1.045,23.946-.444,46.3,22.8,60.578,20.75,12.751,46.864,24,71.776,25.967,16.931,1.339,35.917-.828,52.235-5.235C684.01,652.908,677.234,591.852,671.074,551.531Z" transform="translate(0)" fill="#f4f7fa"/>
    <g id="Group_94623" data-name="Group 94623" transform="translate(458.557 583.384)">
      <g id="Group_94622" data-name="Group 94622" transform="translate(0)">
        <path id="Path_136384" data-name="Path 136384" d="M624.16,2109.873a26.331,26.331,0,0,0,12.395-4.1c4.7-3.07,10.81-9.378,9.214-13.353a4.244,4.244,0,0,0-3.82-2.634c-2.228.179-2.487,3.274-6.357,6.64-.715.622-4.412,3.839-6.25,2.755-.914-.539-1.184-2.032-1.035-3.167.436-3.319,4.488-3.829,8.384-7.422,3.95-3.643,7.242-10,5.36-14.294-1.082-2.469-3.942-4.419-5.823-3.871-.8.234-1.313.891-3.753,6.163-2,4.327-2.448,5.588-3.739,6a3.92,3.92,0,0,1-4.181-1.417c-2.045-3.41,6.795-8.445,7.6-17.989.36-4.277-.8-10.616-4.67-11.974a7,7,0,0,0-7.7,2.886c-1.216,2.165.261,3.794-.666,8.659-.281,1.476-.861,4.514-2.083,4.673-1.435.187-3.04-3.686-3.411-4.629-2.793-7.1.41-10.753-2.224-14.2-2.054-2.688-6.523-3.768-10.063-2.41a9.008,9.008,0,0,0-5.742,7.48c-.168,3.258,2.572,6.5,8.052,12.987,2.6,3.076,4.666,5.154,4.549,8.212-.057,1.49-.648,3.587-1.716,3.778-2.356.423-3.516-9.065-9.1-10.53a7.619,7.619,0,0,0-7.971,3.3c-1.912,3.157-.631,7.631,1.771,9.984,3.134,3.07,6.349.737,12.247,4.034,2.616,1.463,6.728,4.574,6.126,7.147a3.341,3.341,0,0,1-2.725,2.364c-2.889.328-3.843-4.406-8.487-6.487-3.346-1.5-7.972-1.337-9.071.55-1.551,2.664,3.959,8.712,6.888,11.384C599.7,2103.62,608.056,2109.746,624.16,2109.873Z" transform="translate(-588.488 -2045.601)" fill="#d8dee8"/>
        <path id="Path_136385" data-name="Path 136385" d="M826.658,2241.667c.467-7.918-4.777-24.045-8.593-31.669-3.734-7.46-7.305-19.263-7.341-19.381l-.232.07c.036.119,3.613,11.941,7.356,19.42,3.8,7.6,9.032,23.668,8.568,31.546Z" transform="translate(-792.573 -2178.911)" fill="#fff" opacity="0.5" style="mix-blend-mode: soft-light;isolation: isolate"/>
      </g>
      <path id="Path_136386" data-name="Path 136386" d="M865.706,2366.222a38.3,38.3,0,0,0,7.264-19.279c.289-3.675.852-10.852-3.539-17.043-2.189-3.086-6.83-7.65-9.965-6.333-2.018.847-3.27,4.069-2.7,6.519.574,2.471,2.662,2.7,4.936,6.892.841,1.551,1.8,3.373,1.064,4.4-.617.859-2.311,1.015-3.581.5-2.624-1.064-1.8-4.332-4.641-6.675-2.017-1.667-5.38-2.45-6.831-1.085-1.26,1.185-1.04,3.954.073,5.8,1.783,2.955,4.98,2.088,7.064,5.319.925,1.433,1.582,3.6.773,4.454-.922.975-3.636.132-5.375-.946-2.3-1.423-2.381-2.938-3.893-3.128a4.2,4.2,0,0,0-4.125,3.172c-.462,2.489,2.592,5.173,5.01,6.34,3.1,1.493,5.4.617,6.908,2.657.555.749,1.063,1.97.608,2.712-.649,1.058-3,.709-4.553.477-3.792-.564-4.836-1.939-6.194-1.271-1.376.676-2.085,2.961-1.49,4.563.331.891,1.324,2.27,6.245,3.134A37.34,37.34,0,0,0,865.706,2366.222Z" transform="translate(-821.704 -2300.917)" fill="#97a6b7"/>
    </g>
    <g id="Group_94628" data-name="Group 94628" transform="translate(557.194 475.39)">
      <g id="Group_94627" data-name="Group 94627" transform="translate(0 0)" clip-path="url(#clip-path)">
        <g id="Group_94626" data-name="Group 94626" transform="translate(-0.625 -0.582)">
          <path id="Path_136387" data-name="Path 136387" d="M1901.908,749.98a49.192,49.192,0,0,1-8.879,28.226c-.022.033-.1.065-.1.1h0a49.068,49.068,0,0,1-40.625,21.159,29.184,29.184,0,0,1-4.046-.251h0c-.005,0-.008.082-.014.082-.664-.055-1.323-.08-1.979-.161-.233-.028-.467-.037-.7-.07-.206-.027-.41-.046-.615-.077-.178-.026-.355-.048-.531-.077-.04-.007-.08-.011-.119-.017-.432-.071-.863-.146-1.293-.228H1843a49.723,49.723,0,0,1-38.026-63.369c.225-.727.505-1.446.692-2.158h0c.559-1.187.934-2.352,1.449-3.5.207-.457.436-.911.655-1.361a49.572,49.572,0,0,1,4.2-7.052c.144-.2.294-.4.441-.6q.881-1.2,1.835-2.34,1.426-1.713,3-3.292a49.772,49.772,0,0,1,9.084-7.2q1.534-.949,3.141-1.787a49.608,49.608,0,0,1,54.036,5.415,49.94,49.94,0,0,1,14.555,19.127c.716,1.677,1.2,3.4,1.946,5.165h0c0,.008-.085.014-.083.022A49.483,49.483,0,0,1,1901.908,749.98Z" transform="translate(-1802.794 -700.412)" fill="url(#linear-gradient)"/>
          <g id="Group_94625" data-name="Group 94625" transform="translate(2.182 1.836)" style="mix-blend-mode: soft-light;isolation: isolate">
            <path id="Path_136388" data-name="Path 136388" d="M2366.043,1926.559h0Z" transform="translate(-2322.763 -1829.426)" fill="#fff"/>
            <path id="Path_136389" data-name="Path 136389" d="M1888.018,787.6c-1.063,1.5-4.354,3.422-2.121,7.2,2.214,3.77-.154,4.476-1.677,4.124s-6.286-.543-5.493,1.618,2.153,2.975.41,3.811-2.478,3-4.261,5.994-5.978.4-4.732,3.407,2.214,2.713,2.1,4.806a2.608,2.608,0,0,0,.87,1.726c-.664-.055-1.331-.122-1.993-.2-.233-.027-.466-.058-.7-.091-.206-.027-.41-.056-.615-.088q-.268-.039-.531-.082c-.04-.007-.03-.014-.069-.019-.425-.071-.646-.148-1.206-.229h0c-.373-.354-.139-.738-.083-1.153.556-3.864-4.776-6.52-5.669-9.227-.878-2.7-.011-4.312-.214-6.55s.522-5.2-.764-7.08-6.469-2.5-7.456-6.291,1.317-9.436,2.215-10.4-4.292-5.346-6.757-5.486-1.485-5.135-5.671-4.376c-4.193.736-11.728-1.6-10.171-4.121,1.284-2.073,3.44-6.647-3.6-8.687.225-.727.5-1.446.69-2.158h0c.559-1.187.934-2.352,1.449-3.5.207-.457.436-.911.654-1.361a49.848,49.848,0,0,1,4.2-7.052c.144-.2.294-.4.441-.6q.883-1.2,1.835-2.34,1.426-1.713,3-3.292a49.775,49.775,0,0,1,9.084-7.2c1.394.977,2.986,1.579,4.361.837,3.372-1.887,1.149-2.176-.232-2.246a1.781,1.781,0,0,1-.988-.377,49.082,49.082,0,0,1,8.154-3.364c-.21,1.9-2.8,4.961-.893,4.588,2.215-.421,3.119-6.406,4.745-4.417,1.649,2-1.8,4.614,1.439,3.1,3.248-1.5,3.682-4.852,7.3-3.222,3.638,1.651,3.306,3.6,4.321,3.412s4.283,2.008,2.3,3.816c-2,1.814-3.827-.5-6.82-1.194s-2.922,1.761-4.3,2.321c-1.4.541-8.16-2.725-9.819.226-1.677,2.928-2.391,4.972.1,4.9s2.647-.714,2.452,1.125.254,3.218,2.507,1.488,1.743-3.413,3.5-2.589,1.965.078,3.834-1.279,4.326-1.5,4.969,1.547-.457,3.73-3.742,3.884-3.658-.877-4.705,1.87-5.389,6.278-9.205,7.733-5.3,3.61-5.215,6.516-1.342,5.98-2.3,3.582-3.653-6.457-6.4-3.749-7.543,7.509-2.249,8.386c5.283.893,2.526-4.057,5.2-3.067s-1.689,3.178.093,3.966,2.533.423,2.52,2.856.591,4.793,2.758,3.761,4.947-5.8,8.08-2.975,2.915,2.459,4.56,1.636,2.691,1.643,3.365,2.765,3.317-.023,5.459,3.317,2.981,3.936,5.422,2.734,3.436-.309,4.073,1.378,2.138.038,2.863,2.267S1889.075,786.1,1888.018,787.6Z" transform="translate(-1829.831 -723.157)" fill="#fff"/>
            <g id="Group_94624" data-name="Group 94624" transform="translate(63.824 9.17)">
              <path id="Path_136390" data-name="Path 136390" d="M2651.693,851.573c-1.73-3.713,6.844-3.3,8.359-3.011,1.524.254,5.1-2.542,5.555-3.841s1.232-.687,3.945-.724.316-.642-2.669-1.626-.432-1.08-3.178-3.248c-1.181-.95-.81-1.756-.022-2.356a49.725,49.725,0,0,1,14.465,19.127.949.949,0,0,0-.255-.044c-1.9-.011-2.318-4.21-3.3-5.028s.028,2.307.263,3.59-.52.2-1.467,1.383-2.668,1.2-2.823-.568-1.4-3.5-3.929-4.308-4.712-.144-6.765.648S2653.436,855.257,2651.693,851.573Z" transform="translate(-2648.969 -836.766)" fill="#fff"/>
              <path id="Path_136391" data-name="Path 136391" d="M2644.814,1122.065c.172-1.275.452-2.592-.081-3.074-1.294-1.2-1.577-4.472-1.128-6.13s3.934-1.567,1.568-4.327-4.51-6.053-3.514-7.932.694-2.013-1.173-2-2.689.093-4.552-1.57c-1.864-1.685-4.427,3.977-11.441-.564-7.012-4.586-3.019-12.316-.391-12.335,2.644-.044,5.734-1.379,3.567-4.6s1.216-3.694,2.865-2.959,4.582-1.227,7.568-2.108,2.862,4,4.523,4.974,4.8.2,6.431-1.36c1.162-1.114,1.416.185,2.565,1.419a49.67,49.67,0,0,1-6.807,42.571Z" transform="translate(-2620.566 -1055.179)" fill="#fff"/>
              <path id="Path_136392" data-name="Path 136392" d="M2744.3,854.794s2.187-.989,1.395-2.579-2.03-6.462-2.939-4.927.434,4.537.139,5.829S2742.593,855.092,2744.3,854.794Z" transform="translate(-2732.599 -846.168)" fill="#fff"/>
              <path id="Path_136393" data-name="Path 136393" d="M2707.094,896.414c-.031-.512.292-2.592-1.345-2.527,0,0-2.368.986-.981,2.667S2707.13,896.925,2707.094,896.414Z" transform="translate(-2697.572 -889.275)" fill="#fff"/>
            </g>
          </g>
        </g>
        <path id="Path_136394" data-name="Path 136394" d="M1903.574,751.328a49.138,49.138,0,0,1-8.813,28.226.176.176,0,0,0-.035.1h0a49.407,49.407,0,0,1-40.69,21.12,30.161,30.161,0,0,1-4.112-.291h0c-.005,0-.008.123-.014.123-.664-.055-1.323-.062-1.979-.143-.233-.027-.466-.027-.7-.06-.206-.027-.41-.041-.615-.072-.178-.026-.355-.045-.531-.074-.04-.007-.08-.01-.119-.016-.432-.071-.863-.145-1.293-.227h-.007a49.608,49.608,0,0,1-39.917-43.312,43.035,43.035,0,0,0,32.345,27.932h.005a3.518,3.518,0,0,0,1.116.211c.034,0,.07.016.1.022.151.025.3.05.458.072.176.027.353.05.531.073.2.029.4.046.6.069.567.07,1.135.2,1.708.246.005,0,.008.054.012.054h0c1.165,0,2.326.094,3.516.094a42.734,42.734,0,0,0,35.1-18.374c0-.029.047-.067.064-.1a42.8,42.8,0,0,0,5.849-36.685c0-.007-.017-.015-.017-.022h0a29.262,29.262,0,0,0-1.591-4.46,42.87,42.87,0,0,0-25.917-23.861,49.322,49.322,0,0,1,26.537,10.793,49.874,49.874,0,0,1,14.527,19.127c.716,1.677,1.173,3.4,1.919,5.165h0c0,.008-.058.014-.055.022A49.492,49.492,0,0,1,1903.574,751.328Z" transform="translate(-1805.217 -702.429)" opacity="0.3" fill="url(#linear-gradient-2)" style="mix-blend-mode: multiply;isolation: isolate"/>
      </g>
    </g>
    <g id="Group_94639" data-name="Group 94639" transform="translate(492.226 548.797)">
      <path id="Path_136395" data-name="Path 136395" d="M1029.4,1638.748l-.191,50.869,127.848,2.165,25.043-74.689-123.242,5.306.479,2.156Z" transform="translate(-1027.302 -1617.093)" fill="url(#linear-gradient-3)"/>
      <path id="Path_136396" data-name="Path 136396" d="M1031.575,1638.748l29.7-17.387,123-4.268-27.33,17.592Z" transform="translate(-1029.481 -1617.093)" fill="url(#linear-gradient-4)"/>
      <path id="Path_136397" data-name="Path 136397" d="M1005.659,1828.4l129.693-5.346v-4.282l-129.717,5.42Z" transform="translate(-1005.636 -1802.494)" fill="url(#linear-gradient-5)"/>
      <g id="Group_94634" data-name="Group 94634" transform="translate(129.717 0)">
        <path id="Path_136398" data-name="Path 136398" d="M2638.2,1617.093l22.18,21.519.386,47.4-47.609,5.768,0-58.41Z" transform="translate(-2613.125 -1617.093)" fill="url(#linear-gradient-6)"/>
        <path id="Path_136399" data-name="Path 136399" d="M2612.744,1638.29l25.2-17.674,22.466,21.238-.021-3.09-22.549-21.568-25.1,16.27Z" transform="translate(-2612.744 -1617.187)" fill="url(#linear-gradient-7)"/>
        <g id="Group_94633" data-name="Group 94633" transform="translate(8.984 20.964)">
          <g id="Group_94630" data-name="Group 94630" transform="translate(22.784 2.214)">
            <path id="Path_136400" data-name="Path 136400" d="M3017.968,1941.944l-.272-36.613-11.369-1.074.211,38.639Z" transform="translate(-3006.327 -1904.256)" fill="#fff"/>
            <path id="Path_136401" data-name="Path 136401" d="M3016.29,1957.732l9.852-.664-.249-34.107-9.8-.9Z" transform="translate(-3015.302 -1920.625)" fill="url(#linear-gradient-8)"/>
            <path id="Path_136402" data-name="Path 136402" d="M3070.519,1947.634l-.244-37.537-.98-.1.239,37.7Z" transform="translate(-3064.212 -1909.536)" fill="#fff"/>
            <g id="Group_94629" data-name="Group 94629" transform="translate(0.063 11.558)">
              <path id="Path_136403" data-name="Path 136403" d="M3008.048,2217.073l11.412-.327-.01-1.331-11.409.252Z" transform="translate(-3007.966 -2201.859)" fill="#fff"/>
              <path id="Path_136404" data-name="Path 136404" d="M3007.115,2048.846l11.39.4-.01-1.325-11.387-.471Z" transform="translate(-3007.108 -2047.448)" fill="#fff"/>
            </g>
          </g>
          <g id="Group_94632" data-name="Group 94632">
            <path id="Path_136405" data-name="Path 136405" d="M2738.25,1918.342l-.158-40.151-14.041-1.361.064,42.594Z" transform="translate(-2724.051 -1876.83)" fill="#fff"/>
            <path id="Path_136406" data-name="Path 136406" d="M2740.739,1936.82l11.81-.827-.141-37.417-11.737-1.065Z" transform="translate(-2739.329 -1895.841)" fill="url(#linear-gradient-9)"/>
            <path id="Path_136407" data-name="Path 136407" d="M2808.455,1926.321l-.118-41.237-1.154-.112.111,41.438Z" transform="translate(-2800.473 -1884.315)" fill="#fff"/>
            <g id="Group_94631" data-name="Group 94631" transform="translate(0.019 12.734)">
              <path id="Path_136408" data-name="Path 136408" d="M2724.573,2222.033l14.106-.328-.006-1.46-14.1.239Z" transform="translate(-2724.548 -2205.261)" fill="#fff"/>
              <path id="Path_136409" data-name="Path 136409" d="M2724.29,2036.142l14.072.546-.006-1.453-14.069-.634Z" transform="translate(-2724.288 -2034.601)" fill="#fff"/>
            </g>
          </g>
        </g>
      </g>
      <g id="Group_94636" data-name="Group 94636" transform="translate(62.482 32.597)">
        <path id="Path_136410" data-name="Path 136410" d="M1799.158,2049.366l-.184,37.645,42.484.532.4-39.01Z" transform="translate(-1797.422 -2046.306)" fill="#fff"/>
        <path id="Path_136411" data-name="Path 136411" d="M1810.979,2065.84l-.182,36.406,40.3.5.384-37.658Z" transform="translate(-1808.291 -2061.53)" fill="#97a6b7"/>
        <path id="Path_136412" data-name="Path 136412" d="M1779.752,2026.787l46.058-.792.053-5.044-46.089.983Z" transform="translate(-1779.752 -2020.952)" fill="#d8dee8"/>
        <path id="Path_136413" data-name="Path 136413" d="M1786.621,2088.355l44.842-.617.044-4.16-44.866.771Z" transform="translate(-1786.067 -2078.523)" fill="#fff"/>
        <g id="Group_94635" data-name="Group 94635" transform="translate(0.56 5.712)" opacity="0.5" style="mix-blend-mode: multiply;isolation: isolate">
          <path id="Path_136414" data-name="Path 136414" d="M1786.782,2093.1l44.859-.723.007-.657-44.862.747Z" transform="translate(-1786.775 -2091.719)" fill="#d8dee8"/>
          <path id="Path_136415" data-name="Path 136415" d="M1786.7,2112.033l44.849-.666.007-.657-44.853.69Z" transform="translate(-1786.695 -2109.177)" fill="#d8dee8"/>
        </g>
      </g>
      <g id="Group_94638" data-name="Group 94638" transform="translate(8.354 33.838)">
        <path id="Path_136416" data-name="Path 136416" d="M1128.613,2063.371l.075,35.908,38.6.483.107-37.149Z" transform="translate(-1127.041 -2060.492)" fill="#fff"/>
        <path id="Path_136417" data-name="Path 136417" d="M1139.451,2079.007l.068,34.726,36.8.461.1-35.869Z" transform="translate(-1137.005 -2074.935)" fill="#97a6b7"/>
        <path id="Path_136418" data-name="Path 136418" d="M1109.152,2041.852l42.018-.722.015-4.8-42.043.9Z" transform="translate(-1109.142 -2036.327)" fill="#d8dee8"/>
        <path id="Path_136419" data-name="Path 136419" d="M1117.9,2100.508l40.554-.559.012-3.96-40.574.7Z" transform="translate(-1117.185 -2091.173)" fill="#fff"/>
        <g id="Group_94637" data-name="Group 94637" transform="translate(0.838 5.434)" opacity="0.5" style="mix-blend-mode: multiply;isolation: isolate">
          <path id="Path_136420" data-name="Path 136420" d="M1119.52,2104.92l40.5-.648.032-.628-40.532.672Z" transform="translate(-1119.519 -2103.645)" fill="#d8dee8"/>
          <path id="Path_136421" data-name="Path 136421" d="M1119.565,2122.948l40.49-.6.032-.628-40.524.621Z" transform="translate(-1119.56 -2120.264)" fill="#d8dee8"/>
        </g>
      </g>
    </g>
    <g id="Group_94641" data-name="Group 94641" transform="translate(449.378 475.787)">
      <path id="Path_136422" data-name="Path 136422" d="M594.33,1035.536l-119.557,10.93c7.223,4.462,18.4,13.406,25.13,31.526,13.248,35.675-1.471,68.9,14.451,92.9,4.236,6.385,13.371,17.947,27.482,20.781l114.18-15.567c-37.388-10.84-47.529-31.335-49.48-48.808-1.957-17.536,3.611-38.509-3.059-66.733A107.2,107.2,0,0,0,594.33,1035.536Z" transform="translate(-474.773 -1009.466)" fill="url(#linear-gradient-10)"/>
      <path id="Path_136423" data-name="Path 136423" d="M657.882,719.153l105.324-6.613c4.727,4,11.365,11.125,15.691,23.441,9.955,28.344-1.641,56.378,1.71,83.928,2.137,17.569,10.951,39.58,42.525,54.293L710.033,889a41.312,41.312,0,0,1-24.179-23.617c-6.369-15.3-1.91-25.65-4.1-73.743-1.544-33.847-4.582-47.2-10.908-57.9A48.53,48.53,0,0,0,657.882,719.153Z" transform="translate(-643.103 -712.54)" fill="#fff"/>
      <g id="Group_94640" data-name="Group 94640" transform="translate(32.083 7.979)">
        <path id="Path_136424" data-name="Path 136424" d="M1135.694,2005.633q.034.416.071.833a.481.481,0,0,1-.426.522l-82.351,9.045a.48.48,0,0,1-.534-.481q0-.419.007-.845a.484.484,0,0,1,.429-.477l82.272-9.036A.481.481,0,0,1,1135.694,2005.633Z" transform="translate(-1037.91 -1908.833)" fill="#d8dee8"/>
        <path id="Path_136425" data-name="Path 136425" d="M1135.628,1895.355q0,.42,0,.841a.481.481,0,0,1-.43.481l-81.921,8.725a.48.48,0,0,1-.532-.475q0-.419,0-.844a.483.483,0,0,1,.43-.483l81.925-8.725A.481.481,0,0,1,1135.628,1895.355Z" transform="translate(-1038.174 -1807.42)" fill="#d8dee8"/>
        <path id="Path_136426" data-name="Path 136426" d="M1135.587,2114.905q.078.412.16.822a.48.48,0,0,1-.417.573l-83.737,9.469a.481.481,0,0,1-.536-.484q.005-.418.011-.846a.483.483,0,0,1,.427-.473l83.565-9.449A.481.481,0,0,1,1135.587,2114.905Z" transform="translate(-1036.627 -2009.333)" fill="#d8dee8"/>
        <path id="Path_136427" data-name="Path 136427" d="M1928.638,2637.778l37.973-4.864a.479.479,0,0,1,.434.175,2.432,2.432,0,0,0,.74.6.482.482,0,0,1-.155.908l-37.266,4.773Z" transform="translate(-1843.374 -2485.888)" fill="#d8dee8"/>
        <path id="Path_136428" data-name="Path 136428" d="M1276.016,2713.621l42.89-5.494q.834.807,1.677,1.6l-43.132,5.524a.49.49,0,0,1-.277-.046q-.677-.333-1.331-.689A.482.482,0,0,1,1276.016,2713.621Z" transform="translate(-1243.04 -2555.033)" fill="#d8dee8"/>
        <path id="Path_136429" data-name="Path 136429" d="M1134.61,1784.453q-.026.425-.051.85a.48.48,0,0,1-.43.451l-82.285,8.482a.481.481,0,0,1-.531-.469q-.008-.418-.016-.842a.483.483,0,0,1,.432-.49l82.352-8.489A.48.48,0,0,1,1134.61,1784.453Z" transform="translate(-1036.847 -1705.444)" fill="#d8dee8"/>
        <path id="Path_136430" data-name="Path 136430" d="M1182.553,2433.269q.256.39.518.776a.481.481,0,0,1-.338.749l-90.758,11.1a.482.482,0,0,1-.5-.276q-.184-.4-.361-.809a.482.482,0,0,1,.382-.673l90.6-11.081A.479.479,0,0,1,1182.553,2433.269Z" transform="translate(-1073.415 -2302.161)" fill="#d8dee8"/>
        <path id="Path_136431" data-name="Path 136431" d="M1148.25,2329.1q.187.4.379.794a.481.481,0,0,1-.375.689l-88.735,10.587a.481.481,0,0,1-.532-.392q-.074-.419-.14-.844a.482.482,0,0,1,.42-.55l88.491-10.558A.48.48,0,0,1,1148.25,2329.1Z" transform="translate(-1043.784 -2206.347)" fill="#d8dee8"/>
        <path id="Path_136432" data-name="Path 136432" d="M1137.507,2222.842q.129.405.262.809a.48.48,0,0,1-.4.629l-86.038,10a.481.481,0,0,1-.537-.467q-.009-.418-.015-.848a.483.483,0,0,1,.426-.487l85.79-9.972A.48.48,0,0,1,1137.507,2222.842Z" transform="translate(-1036.37 -2108.608)" fill="#d8dee8"/>
        <path id="Path_136433" data-name="Path 136433" d="M1132.466,1673.308q-.04.426-.079.852a.481.481,0,0,1-.431.435l-83.213,8.285a.481.481,0,0,1-.529-.462q-.014-.418-.028-.84a.483.483,0,0,1,.433-.5l83.322-8.3A.481.481,0,0,1,1132.466,1673.308Z" transform="translate(-1033.985 -1603.256)" fill="#d8dee8"/>
        <path id="Path_136434" data-name="Path 136434" d="M1060.954,1018.968a.481.481,0,0,1,.488.312q.153.411.3.827l0,.006a.48.48,0,0,1-.419.635l-87.478,6.663a.482.482,0,0,1-.5-.353q-.115-.413-.232-.819a.48.48,0,0,1,.425-.613Z" transform="translate(-964.957 -1002.212)" fill="#d8dee8"/>
        <path id="Path_136435" data-name="Path 136435" d="M1087.936,1125.545q.087.418.168.836a.482.482,0,0,1-.436.572l-87.767,7.053a.483.483,0,0,1-.512-.4q-.076-.416-.153-.826a.48.48,0,0,1,.434-.568l87.754-7.052A.484.484,0,0,1,1087.936,1125.545Z" transform="translate(-988.98 -1099.836)" fill="#d8dee8"/>
        <path id="Path_136436" data-name="Path 136436" d="M964.533,821l-86.54,6.579a.481.481,0,0,1-.476-.288,58.229,58.229,0,0,0-3.274-6.407q-.91-1.539-1.891-3a.482.482,0,0,1,.366-.751l85.161-5.739a.484.484,0,0,1,.378.143,43.936,43.936,0,0,1,6.66,8.741A.482.482,0,0,1,964.533,821Z" transform="translate(-872.267 -811.393)" fill="#d8dee8"/>
        <path id="Path_136437" data-name="Path 136437" d="M1129.036,1562.28q-.041.426-.083.852a.483.483,0,0,1-.434.433l-84.452,8.1a.482.482,0,0,1-.527-.458q-.02-.422-.04-.839a.481.481,0,0,1,.435-.5l84.574-8.114A.481.481,0,0,1,1129.036,1562.28Z" transform="translate(-1029.679 -1501.188)" fill="#d8dee8"/>
        <path id="Path_136438" data-name="Path 136438" d="M1124.024,1451.716q-.03.424-.061.849a.484.484,0,0,1-.437.446l-85.733,7.906a.482.482,0,0,1-.525-.451q-.026-.421-.053-.838a.48.48,0,0,1,.436-.509l85.847-7.916A.483.483,0,0,1,1124.024,1451.716Z" transform="translate(-1023.9 -1399.559)" fill="#d8dee8"/>
        <path id="Path_136439" data-name="Path 136439" d="M1116.535,1341.907q0,.424-.012.848a.482.482,0,0,1-.44.471l-86.831,7.674a.482.482,0,0,1-.522-.44q-.036-.42-.073-.835a.48.48,0,0,1,.437-.521l86.917-7.682A.482.482,0,0,1,1116.535,1341.907Z" transform="translate(-1016.031 -1298.64)" fill="#d8dee8"/>
        <path id="Path_136440" data-name="Path 136440" d="M1105.2,1233.122q.035.421.065.842a.482.482,0,0,1-.441.514l-87.552,7.392a.483.483,0,0,1-.518-.422q-.052-.419-.1-.831a.48.48,0,0,1,.437-.54l87.592-7.4A.483.483,0,0,1,1105.2,1233.122Z" transform="translate(-1004.991 -1198.677)" fill="#d8dee8"/>
      </g>
      <path id="Path_136441" data-name="Path 136441" d="M1332.927,2510.245l-15.206-9.418c-5.054-3.158-10.123-6.3-15.078-9.594-1.229-.827-2.475-1.66-3.616-2.55-.14-.112-.278-.225-.4-.336-.061-.055-.12-.111-.165-.159a.661.661,0,0,1-.044-.053c-.008-.009.006.006.006.013a.223.223,0,0,1,.023.055.435.435,0,0,1,.021.152.51.51,0,0,1-.269.441.68.68,0,0,1-.082.033c-.013,0-.036.006-.032.007s-.011,0,0,0h.031a1.848,1.848,0,0,1,.207.029c.155.029.324.072.49.119a14.32,14.32,0,0,1,2,.766,15.655,15.655,0,0,1,3.625,2.293,7.544,7.544,0,0,1,2.364,3.316,5.03,5.03,0,0,1-.382,3.853,20.984,20.984,0,0,1-2.46,3.55,20.043,20.043,0,0,0-1.348,1.881,6.326,6.326,0,0,0-.929,2.325,4.164,4.164,0,0,0,.016,1.351,4.589,4.589,0,0,0,.447,1.259,6.243,6.243,0,0,0,1.631,1.91,12.791,12.791,0,0,0,4.212,2.145,20.076,20.076,0,0,0,4.56.856,19.821,19.821,0,0,0,9.125-1.406,18.1,18.1,0,0,0,4.008-2.391,19.813,19.813,0,0,0,3.317-3.262,13.873,13.873,0,0,0,1.325-1.966,7.38,7.38,0,0,0,.866-2.35,3.551,3.551,0,0,0-.043-1.437,2.232,2.232,0,0,0-.128-.378l-.083-.186c-.033-.064-.08-.135-.122-.2a1.942,1.942,0,0,0-.688-.624,3.192,3.192,0,0,0-1.44-.354,7.535,7.535,0,0,0-1.239.061,34.972,34.972,0,0,0-4.463.96c-1.442.393-2.874.787-4.313,1.15s-2.884.7-4.34.992c-1.458.277-2.924.517-4.4.7a77.783,77.783,0,0,1-8.884.576,69.21,69.21,0,0,1-8.879-.477h0a.774.774,0,1,0-.185,1.537.8.8,0,0,0,.09.005c3.009.01,6.008-.019,9-.164,1.5-.081,2.991-.156,4.482-.294.746-.057,1.491-.131,2.236-.2.743-.084,1.489-.154,2.23-.254,2.97-.362,5.942-.756,8.894-1.286,1.475-.264,2.944-.56,4.4-.85.729-.148,1.454-.305,2.176-.441s1.436-.274,2.129-.344a6.964,6.964,0,0,1,.992-.042,1.678,1.678,0,0,1,.717.147c.189.038.36.572.251,1.154a5.831,5.831,0,0,1-.682,1.822,12.261,12.261,0,0,1-1.169,1.739,18.213,18.213,0,0,1-3.04,3,16.512,16.512,0,0,1-3.646,2.188,19.329,19.329,0,0,1-12.606.567,11.337,11.337,0,0,1-3.733-1.846,3.483,3.483,0,0,1-1.6-3.157,4.945,4.945,0,0,1,.718-1.8,19.731,19.731,0,0,1,1.239-1.763,22.016,22.016,0,0,0,2.565-3.826,7.053,7.053,0,0,0,.676-2.357,5.932,5.932,0,0,0-.281-2.47,7.385,7.385,0,0,0-1.148-2.146,10.624,10.624,0,0,0-1.641-1.709,16.846,16.846,0,0,0-3.938-2.427,15.465,15.465,0,0,0-2.182-.8c-.192-.052-.386-.1-.6-.136a2.9,2.9,0,0,0-.348-.042c-.032,0-.067,0-.109,0a1.1,1.1,0,0,0-.139.01.827.827,0,0,0-.1.021.635.635,0,0,0-.147.056.617.617,0,0,0-.223.186.636.636,0,0,0-.124.36.737.737,0,0,0,.034.22,1.08,1.08,0,0,0,.05.12,1.173,1.173,0,0,0,.082.129,1.732,1.732,0,0,0,.136.161c.083.087.161.158.239.227.155.136.307.258.46.376,1.222.928,2.469,1.737,3.722,2.558,2.508,1.628,5.043,3.2,7.583,4.767s5.089,3.114,7.647,4.647c5.117,3.065,10.233,6.129,15.394,9.119a.239.239,0,0,0,.246-.41Z" transform="translate(-1225.399 -2344.417)" fill="#fc79ab"/>
    </g>
    <g id="Group_94654" data-name="Group 94654" transform="translate(472.345 561.945)">
      <g id="Group_94648" data-name="Group 94648" transform="translate(52.978)">
        <path id="Path_136442" data-name="Path 136442" d="M1855.574,3048.055a17.493,17.493,0,0,1,.425,2.273c.013.6-6.641,1.448-6.744,1s1.01-1.256,1.814-1.575,3.163-1.188,3.163-1.188Z" transform="translate(-1814.253 -2945.704)" fill="url(#linear-gradient-11)"/>
        <path id="Path_136443" data-name="Path 136443" d="M1905.867,3026.154l.382,2.085a1.523,1.523,0,0,0,1.469,0l.159-2.316Z" transform="translate(-1866.302 -2925.358)" fill="url(#linear-gradient-12)"/>
        <path id="Path_136444" data-name="Path 136444" d="M2005.918,3070.188a17.49,17.49,0,0,1,.425,2.273c.013.6-6.641,1.447-6.744,1s1.01-1.256,1.814-1.575,3.163-1.188,3.163-1.188Z" transform="translate(-1952.461 -2966.05)" fill="url(#linear-gradient-13)"/>
        <path id="Path_136445" data-name="Path 136445" d="M2056.209,3048.285l.382,2.085a1.522,1.522,0,0,0,1.469,0l.159-2.316Z" transform="translate(-2004.509 -2945.704)" fill="url(#linear-gradient-14)"/>
        <path id="Path_136446" data-name="Path 136446" d="M1844.295,2329.485l-1.94,4.881c.095,8.981.564,18.717,1.595,29.087.767,7.715,1.766,15,2.91,21.825l3.128-.4a31.421,31.421,0,0,0,2.409-13.449c-.3-5.873-2.137-6.509-2.474-12.128-.437-7.283,2.457-9.468,3.381-18.344a46.988,46.988,0,0,0-.5-13.058Z" transform="translate(-1807.916 -2283.678)" fill="url(#linear-gradient-15)"/>
        <path id="Path_136447" data-name="Path 136447" d="M1892.213,2327.9l-4.6.855c-2.393,5.062-2.766,10.16-2.1,12.349.943,3.1,2.85,3.96,3,7.133.152,3.139-1.628,4.1-2.5,7.883-.605,2.62-.2,4.953.626,9.51,1.67,9.181,4.131,11.832,2.5,15.016a6.854,6.854,0,0,1-3.154,2.943c.091.564.182,1.129.276,1.687l3.128-.4a31.421,31.421,0,0,0,2.409-13.45c-.3-5.873-2.137-6.509-2.474-12.128-.437-7.283,2.457-9.468,3.381-18.344A46.988,46.988,0,0,0,1892.213,2327.9Z" transform="translate(-1847.325 -2283.678)" opacity="0.3" fill="url(#linear-gradient-16)" style="mix-blend-mode: multiply;isolation: isolate"/>
        <path id="Path_136448" data-name="Path 136448" d="M1920.635,2344.836c2.082,7.785,4.04,16.14,5.757,25.028,2.073,10.732,3.535,20.89,4.548,30.348l3.454-.178c3.809-9.318,3.6-15.412,2.63-19.312a57.333,57.333,0,0,1-1.81-8.886,63.327,63.327,0,0,1-.329-8.353c.043-6.285.594-7.7.306-12.482-.27-4.487-.433-6.756-1.818-7.977C1929.724,2339.807,1921.275,2344.474,1920.635,2344.836Z" transform="translate(-1879.878 -2296.544)" fill="url(#linear-gradient-15)"/>
        <path id="Path_136449" data-name="Path 136449" d="M1423,2135.736s-2.53-.217-2.9-.627-.6-.432-.657-.807-1.12-.2-.677.62-.557.388-.753.368a9.45,9.45,0,0,0-2.122.011c.05.107-.771,1.178.451,1.732,1.07.485.756.271,1.452.3a14.516,14.516,0,0,0,2.849-.67l1.844.141Z" transform="translate(-1415.675 -2105.531)" fill="url(#linear-gradient-18)"/>
        <path id="Path_136450" data-name="Path 136450" d="M1484.3,1951.352q-.167,1.265-.334,2.53a18.981,18.981,0,0,0,10.533,4.478c9.085.708,18.094-6.015,19.771-13.577.831-3.745.152-9-2.175-9.845-.646-.235-1.617-.2-3.618,1.143-5.34,3.587-5.794,8.3-8.745,11.485C1497.608,1949.86,1493.433,1952.183,1484.3,1951.352Z" transform="translate(-1478.453 -1922.329)" fill="url(#linear-gradient-19)"/>
        <path id="Path_136451" data-name="Path 136451" d="M1769.25,1959.34c-1.247-1.738-.006-3.61.032-7.1.042-3.95-1.521-4.482-3.535-10.861-1.34-4.243-2.626-8.316-1.877-13.264.359-2.372.968-6.394,4.083-8.563,1.607-1.119,3.917-1.205,8.472-1.332,5.633-.156,8.449-.234,10.629.7.319.137,6.959,3.088,7.849,8.694.906,5.706-5.286,6.979-5.506,14.7-.1,3.467.992,8.7,1.7,12.095.679,3.259,1.033,4.079.463,5.128-1.373,2.528-6.223,2.228-15.921,1.627C1771.834,1960.935,1770.181,1960.636,1769.25,1959.34Z" transform="translate(-1735.562 -1906.979)" fill="url(#linear-gradient-20)"/>
        <path id="Path_136452" data-name="Path 136452" d="M1840.03,2004.425c.525,1.46,2.073,2.458,3.379,6.006.282.766,2.29,6.223.375,7.759-1.106.887-2.276-.532-5.13-.5-4.946.054-6.958,4.375-10.261,3.5a4.413,4.413,0,0,1-2.154-1.411,3.257,3.257,0,0,0,.527,2.349c.931,1.3,2.584,1.6,6.388,1.831,9.7.6,14.548.9,15.921-1.626.57-1.049.216-1.869-.463-5.128-.708-3.394-1.8-8.628-1.7-12.095.22-7.724,6.412-9,5.506-14.7a8.933,8.933,0,0,0-1.767-3.976C1842.977,1990.28,1838.38,1999.837,1840.03,2004.425Z" transform="translate(-1793.078 -1969.771)" opacity="0.3" fill="url(#linear-gradient-21)" style="mix-blend-mode: multiply;isolation: isolate"/>
        <g id="Group_94644" data-name="Group 94644" transform="translate(46.808 51.603)">
          <path id="Path_136453" data-name="Path 136453" d="M2189.21,2427.911s1.544.519,1.708,3.077c-.252-.023-.84-.009-.84-.009s.109-1.86-.991-2.237A4.03,4.03,0,0,0,2189.21,2427.911Z" transform="translate(-2173.47 -2427.217)" fill="url(#linear-gradient-22)"/>
          <path id="Path_136454" data-name="Path 136454" d="M2119.625,2419.762l.118,1.413a11.7,11.7,0,0,1,2.534-.465,11.562,11.562,0,0,1,3.21.342,1.031,1.031,0,0,0,.174-.428,1.451,1.451,0,0,0-.066-.736,9.9,9.9,0,0,0-1.581-.438A9.358,9.358,0,0,0,2119.625,2419.762Z" transform="translate(-2109.615 -2419.312)" fill="url(#linear-gradient-23)"/>
          <path id="Path_136455" data-name="Path 136455" d="M2118.712,2425.27c0-.17.016-.382.073-.406s.128.132.16.218a1.428,1.428,0,0,1,.06.4,2.08,2.08,0,0,1-.029.634c-.015.064-.039.162-.073.164s-.052-.061-.089-.18A2.7,2.7,0,0,1,2118.712,2425.27Z" transform="translate(-2108.775 -2424.414)" fill="url(#linear-gradient-24)"/>
          <path id="Path_136456" data-name="Path 136456" d="M2100.9,2430.675c.328.064,1.123.255,1.123.255s-.518-1.661.458-2.411a1.725,1.725,0,0,0,.02-.561,1.7,1.7,0,0,0-.116-.436C2101.97,2427.749,2101.066,2428.521,2100.9,2430.675Z" transform="translate(-2092.401 -2426.859)" fill="url(#linear-gradient-22)"/>
          <path id="Path_136457" data-name="Path 136457" d="M2016.037,2461.313s.041-.879,1.433-.863c.219.163.23.88.23.88Z" transform="translate(-2014.388 -2457.13)" fill="url(#linear-gradient-26)"/>
          <path id="Path_136458" data-name="Path 136458" d="M1996.008,2484.955l3.811,2.248,2.288-8.491-3.779-11.365-1.079.306-1.644,16.406A.927.927,0,0,0,1996.008,2484.955Z" transform="translate(-1995.6 -2463.471)" fill="url(#linear-gradient-27)"/>
          <path id="Path_136459" data-name="Path 136459" d="M2020.9,2478.712l-3.779-11.365-1.079.306a22.369,22.369,0,0,1,.454,3.561c.255,3.881,1.1,4.958.691,7.664-.341,2.252-1.086,2.565-1.021,4.08a6.077,6.077,0,0,0,2.166,4.079l.28.165Z" transform="translate(-2014.388 -2463.471)" opacity="0.3" fill="url(#linear-gradient-28)" style="mix-blend-mode: multiply;isolation: isolate"/>
          <path id="Path_136460" data-name="Path 136460" d="M2029.408,2467.348l20.27.212,3.081,17.458-21.86,2.185Z" transform="translate(-2026.679 -2463.471)" fill="url(#linear-gradient-29)"/>
          <g id="Group_94642" data-name="Group 94642" transform="translate(5.066 4.019)" opacity="0.2" style="mix-blend-mode: multiply;isolation: isolate">
            <path id="Path_136461" data-name="Path 136461" d="M2076.293,2469.177l-6.691-.07a12.343,12.343,0,0,1-.593,1.427c-3.042,6.183-10.114,6.981-9.984,8.012.193,1.54,15.723-.691,16.11,1.375.187,1-3.027,3.3-6.419,4.2-4.108,1.095-7.159-.185-9.2,2.2a5.669,5.669,0,0,0-1.153,2.4l21.014-2.087Z" transform="translate(-2058.36 -2469.107)" fill="url(#linear-gradient-30)"/>
          </g>
          <path id="Path_136462" data-name="Path 136462" d="M2020.963,2460.413a1.605,1.605,0,0,0-.923.171,1.453,1.453,0,0,0-.2.143l.165-.057a.686.686,0,0,1,.768.3,5.4,5.4,0,0,1,.265,1.466c.1,1.07.744,7.721.744,7.721a1,1,0,0,0,.97.969l18.777-1.071a.647.647,0,0,0,.39-.14.873.873,0,0,0,.29-.831l-.924-7.685a.872.872,0,0,0-.8-.768Z" transform="translate(-2017.881 -2457.092)" fill="url(#linear-gradient-31)"/>
          <path id="Path_136463" data-name="Path 136463" d="M2023.8,2460.368a2.882,2.882,0,0,0-.826.042.859.859,0,0,0-.278.112.813.813,0,0,1,.91.4,6.153,6.153,0,0,1,.265,1.465c.1,1.07.744,7.719.744,7.719a1,1,0,0,0,.969.969l18.971-.5a.647.647,0,0,0,.389-.14.873.873,0,0,0,.29-.83l-1.129-8.253a.871.871,0,0,0-.8-.768Z" transform="translate(-2020.511 -2457.044)" fill="url(#linear-gradient-32)"/>
          <path id="Path_136464" data-name="Path 136464" d="M2045.235,2469.608l-1.129-8.253a.871.871,0,0,0-.8-.768l-19.5-.22a2.883,2.883,0,0,0-.826.042.859.859,0,0,0-.278.112.813.813,0,0,1,.91.4,1.446,1.446,0,0,1,.066.189c1.9.095,3.795.06,5.676.2,3.688.271,7.376.307,10.782,1.827a2.987,2.987,0,0,1,1.529,2.979c-.211.568-.932.521-1.184,1.268-.266.785.37,1.319.1,1.87-.28.578-1.13.305-2.512.723a6.6,6.6,0,0,0-1.718.812l8.205-.216a.647.647,0,0,0,.389-.14A.873.873,0,0,0,2045.235,2469.608Z" transform="translate(-2020.511 -2457.044)" opacity="0.1" fill="url(#linear-gradient-33)" style="mix-blend-mode: multiply;isolation: isolate"/>
          <g id="Group_94643" data-name="Group 94643" transform="translate(12.584 11.887)">
            <path id="Path_136465" data-name="Path 136465" d="M2154.719,2570.284l-2.376.6-.252.023a.475.475,0,0,1-.484-.492l-.1-2.778a.493.493,0,0,1,.445-.542l.253,0,2.389.3c.228,0,.419-.127.429.146l.1,2.591C2155.127,2570.406,2154.946,2570.264,2154.719,2570.284Z" transform="translate(-2151.503 -2567.049)" fill="url(#linear-gradient-34)"/>
            <path id="Path_136466" data-name="Path 136466" d="M2156.906,2570.206l-2.632.238a.474.474,0,0,1-.484-.492l-.1-2.777a.493.493,0,0,1,.445-.542l2.64-.044a.474.474,0,0,1,.43.491l.1,2.591A.492.492,0,0,1,2156.906,2570.206Z" transform="translate(-2153.509 -2566.589)" fill="url(#linear-gradient-35)"/>
          </g>
        </g>
        <path id="Path_136467" data-name="Path 136467" d="M2140.085,2380.992s-.221,1.466-.442,1.6-.913.913-.774,1.411-.387,1.634.594,1.909,2.11.57,2.224-.31a24.836,24.836,0,0,0-.136-2.623,4.089,4.089,0,0,1,.415-1.493Z" transform="translate(-2080.479 -2332.482)" fill="url(#linear-gradient-36)"/>
        <path id="Path_136468" data-name="Path 136468" d="M2032.624,1922.519c-1.312,6.4-.18,10.544,1.189,13.2,2.771,5.381,7.532,6.65,8.325,11.423.572,3.443.82,10.232-.86,12.434a5.323,5.323,0,0,0,2.816.57c1.532-.875,4.8-6.715,6.174-14.166C2051.938,1936.943,2044.949,1926.27,2032.624,1922.519Z" transform="translate(-1982.292 -1911.015)" fill="url(#linear-gradient-37)"/>
        <path id="Path_136469" data-name="Path 136469" d="M1861.671,1854.808c-.65-.266-3.806-.908-4.505-2.276a12.835,12.835,0,0,1-1.036-3.6s-2.177.578-1.858,1.7-.224,3.7-1.474,4.278a17.119,17.119,0,0,0-2.194.835.168.168,0,0,0-.047.011c-.18.112.38.977,2.63,2.231,7.761-1.169,8.579-2.5,8.613-2.955C1861.833,1854.941,1861.8,1854.86,1861.671,1854.808Z" transform="translate(-1815.427 -1843.372)" fill="url(#linear-gradient-38)"/>
        <g id="Group_94646" data-name="Group 94646" transform="translate(36.362)">
          <path id="Path_136470" data-name="Path 136470" d="M1867.6,1785.024c-1.01-.845-1.149-.942-1.276-1.251a3.072,3.072,0,0,1,1.6-3.6c.066-.028.914-.376,1.276-.025.308.3-.072.774.175,1.377.231.564.736.567,1.727,1.251.816.563,1.323.914,1.476,1.452a2.673,2.673,0,0,1-2.127,2.9C1870.019,1787.145,1869.884,1786.932,1867.6,1785.024Z" transform="translate(-1866.174 -1779.988)" fill="url(#linear-gradient-39)"/>
          <g id="Group_94645" data-name="Group 94645" transform="translate(0.681 4.168)">
            <path id="Path_136471" data-name="Path 136471" d="M1878.1,1834.783a2.667,2.667,0,0,1-2.45.955c-1.384-.225-1.287-3.367-.334-3.944a1.767,1.767,0,0,1,1.391-.045c.278.108.363.236.82.4.422.154.548.118.668.24.15.153.237.5-.123,1.388a.761.761,0,0,1,.836-.188.479.479,0,0,1,.168.2C1879.238,1834.167,1878.868,1834.591,1878.1,1834.783Z" transform="translate(-1874.605 -1831.63)" fill="url(#linear-gradient-40)"/>
          </g>
        </g>
        <g id="Group_94647" data-name="Group 94647" transform="translate(36.749 14.02)">
          <path id="Path_136472" data-name="Path 136472" d="M1874.762,1954.029s-.439,2.342-1.125,2.387a11.726,11.726,0,0,0-1.188.137l-.767-2.864A3.693,3.693,0,0,0,1874.762,1954.029Z" transform="translate(-1871.625 -1953.69)" fill="url(#linear-gradient-41)"/>
          <path id="Path_136473" data-name="Path 136473" d="M1873.311,1985.051s1.526,17.131,6.874,19.873c-.137.548,0,5.005,0,5.005s-4.985-1.5-5.27-1.4-6.038-9.437-3.118-23.144Z" transform="translate(-1870.973 -1982.52)" fill="url(#linear-gradient-42)"/>
        </g>
      </g>
      <g id="Group_94653" data-name="Group 94653" transform="translate(0 3.621)">
        <g id="Group_94652" data-name="Group 94652">
          <path id="Path_136474" data-name="Path 136474" d="M1392.626,2130.217a23.132,23.132,0,0,0,2.492-2.492c.42-.667.431.64.011.9s5.925-.614,4.807.486-1.924,2.137-3.426,2.207a11.553,11.553,0,0,0-3.58.726C1392.623,2132.248,1392.626,2130.217,1392.626,2130.217Z" transform="translate(-1341.509 -2103.106)" fill="url(#linear-gradient-22)"/>
          <path id="Path_136475" data-name="Path 136475" d="M769.421,2003.177c-.509.192-8.268,3.278-9.863,11.376-.129.654-1.375,7.612,3.343,12.527,5.291,5.512,15.479,5.375,19.524.767a8.264,8.264,0,0,0,1.719-3.266h0l-1.066-2.831a6.938,6.938,0,0,0-4.016-2.175c-2.331-.574-4.091.464-5.425-.66a3.515,3.515,0,0,1-1.016-2.316c-.446-2.723,1.091-4.4,1.2-6.079.084-1.255.523-4.006-1.115-5.8A5.291,5.291,0,0,0,769.421,2003.177Z" transform="translate(-759.315 -1988.783)" fill="url(#linear-gradient-44)"/>
          <path id="Path_136476" data-name="Path 136476" d="M812.663,3114.333c-.091-.5-1.7-.95-2.5-.282-.4.332-.668,1-.439,1.307.083.11-.258.3.069.308C810.88,3115.68,812.753,3114.829,812.663,3114.333Z" transform="translate(-805.58 -3009.685)" fill="url(#linear-gradient-45)"/>
          <path id="Path_136477" data-name="Path 136477" d="M807.3,3076.938l-1.656-.234c.767-.924.625-3.865.625-3.865l1.761.393s-.2.807-.542,2A7.8,7.8,0,0,0,807.3,3076.938Z" transform="translate(-801.906 -2972.109)" fill="url(#linear-gradient-46)"/>
          <path id="Path_136478" data-name="Path 136478" d="M801.115,3118.538s-1.994-.459-2.209-.064-.383,1.454.882,1.42S801.227,3118.873,801.115,3118.538Z" transform="translate(-795.573 -3013.912)" fill="url(#linear-gradient-47)"/>
          <path id="Path_136479" data-name="Path 136479" d="M1095.572,3139.563c-.159-.481-1.817-.7-2.513.07-.345.384-.521,1.087-.252,1.356.1.1-.213.338.112.3C1093.994,3141.145,1095.73,3140.04,1095.572,3139.563Z" transform="translate(-1065.769 -3033.045)" fill="url(#linear-gradient-48)"/>
          <path id="Path_136480" data-name="Path 136480" d="M1089.12,3105.106h-1.672c.63-1.022.078-3.914.078-3.914l1.8.143s-.086.827-.257,2.054A7.826,7.826,0,0,0,1089.12,3105.106Z" transform="translate(-1060.963 -2998.173)" fill="url(#linear-gradient-49)"/>
          <path id="Path_136481" data-name="Path 136481" d="M837.9,2350.729a77.382,77.382,0,0,1,2.593,11.867c2.031,14.776-2.286,15.247-1.48,31.62.257,5.227-4.528,17.278-4.95,17.544a5.2,5.2,0,0,1-.662.026,6.616,6.616,0,0,1-1.685-.281c-.758-.131-3.491-7.533-2.858-11.934.448-3.115.318-6.458.058-13.144-.042-1.083-2.814-21.078-2.814-21.078h0c-.843,7.4-1.813,13.689-2.653,18.564-2.7,15.664-11.482,25.145-11.94,25.3a1.858,1.858,0,0,1-1.588-.108,1.1,1.1,0,0,1-.4-.453c-.235-.184.069-15.638,2.748-27.269,3.888-16.882,2.195-20.832,3.427-28.373C816.757,2346.483,837.9,2350.729,837.9,2350.729Z" transform="translate(-805.406 -2307.035)" fill="url(#linear-gradient-50)"/>
          <path id="Path_136482" data-name="Path 136482" d="M872.579,2017.834a27.191,27.191,0,0,1-15.511,2.277,24.175,24.175,0,0,1-7.735-2.547c.224-.679.4-1.321.536-1.929.982-4.424-.218-7.048-.824-9.489-.98-3.96-1-3.661-1.8-6.806-1.334-5.189-1.552-10.491-.637-11.577,2.47-2.925,6.92-3.03,9.232-3.1,2.58-.075,8.513-.985,11.781,1.954.057.051-.613.409-.283.795a21.3,21.3,0,0,1,2.307,3.31,22.24,22.24,0,0,1,1.94,4.8,41.43,41.43,0,0,1,1.426,7.217c.048.46.081.85.1,1.152C873.709,2011.745,873.116,2015.369,872.579,2017.834Z" transform="translate(-839.048 -1971.589)" fill="url(#linear-gradient-51)"/>
          <path id="Path_136483" data-name="Path 136483" d="M1083.743,3146.517s-2.038-.176-2.2.246-.176,1.494,1.072,1.283S1083.9,3146.834,1083.743,3146.517Z" transform="translate(-1055.469 -3039.806)" fill="url(#linear-gradient-52)"/>
          <g id="Group_94649" data-name="Group 94649" transform="translate(12.869)">
            <path id="Path_136484" data-name="Path 136484" d="M929.283,1886.06a4.224,4.224,0,0,0,.342-3.04c-.317-1.315-.434-1.515-.678-1.793l-.345-.365-.044-.031a4.94,4.94,0,0,0-1.329-.443c-.618-.031-1.875,2.185-2.6,5.6q-.088.183-.174.37c-.357.775-.664,1.537-.927,2.28-4.176.353-4.756.843-4.774,1.126-.039.6,2.34,1.284,4.13,1.546,3.9.571,7.914-.458,7.9-1.186-.008-.317-.784-.73-4.092-1.163l.232-1.642A3.72,3.72,0,0,0,929.283,1886.06Z" transform="translate(-918.757 -1875.904)" fill="url(#linear-gradient-22)"/>
            <path id="Path_136485" data-name="Path 136485" d="M971.32,1829.171a4.055,4.055,0,0,1-1.368,2.138,1.8,1.8,0,0,0-.488.312.549.549,0,0,0-.092.107c-.4.6.435,1.649.155,1.889-.2.175-.838-.3-.971-.139s.369.669.223.853c-.11.139-.435-.1-.728.078-.146.089-.138.193-.356.527a3.421,3.421,0,0,1-.388.5c-.524.516-1.6.468-1.736.17-.036-.083.026-.128.031-.372a1.9,1.9,0,0,0-.078-.511,4.914,4.914,0,0,0-.976-1.3,3.5,3.5,0,0,1-.9-1.812c-.009-.078-.012-.135-.014-.177a4.013,4.013,0,0,1,.788-2.567c.889-1.009,2.048-.109,3.425-.976,1.588-1,1.338-3.015,2.061-3.038C970.707,1824.822,971.841,1827.244,971.32,1829.171Z" transform="translate(-960.009 -1824.847)" fill="#26264f"/>
            <path id="Path_136486" data-name="Path 136486" d="M1023.151,1926.656c-.162-.42-.7-.209-.823.245a.858.858,0,0,0,.642,1.068C1023.421,1927.992,1023.369,1927.22,1023.151,1926.656Z" transform="translate(-1013.943 -1918.23)" fill="url(#linear-gradient-22)"/>
          </g>
          <g id="Group_94650" data-name="Group 94650" transform="translate(8.217 28.162)">
            <path id="Path_136487" data-name="Path 136487" d="M864.006,2188.047h-.012a.11.11,0,0,1-.1-.122,15.561,15.561,0,0,0-.765-6.487c-.124-.434-.241-.844-.343-1.255-.557-2.247-.8-3.114-1.059-4.032-.168-.6-.342-1.217-.611-2.251a.111.111,0,1,1,.214-.056c.269,1.032.442,1.649.61,2.246.259.92.5,1.789,1.06,4.039.1.407.217.816.341,1.248a15.749,15.749,0,0,1,.772,6.572A.111.111,0,0,1,864.006,2188.047Z" transform="translate(-861.115 -2173.76)" fill="url(#linear-gradient-55)"/>
          </g>
          <path id="Path_136488" data-name="Path 136488" d="M1026.6,1919.129l.387.93s.387,1.116.9.7c.418-.342.494-.311.508-.289a.018.018,0,0,1,0,.01c.007,0,.012-.223.016-.419a3.59,3.59,0,0,1,.217,1.224,1.994,1.994,0,0,1-.4,1.488,1.531,1.531,0,0,1-1.054.45,4.05,4.05,0,0,1-1.116-.418,5.386,5.386,0,0,0,1.271-.635c.168-.464-.422-.9-.651-2A4.049,4.049,0,0,1,1026.6,1919.129Z" transform="translate(-1004.527 -1911.519)" fill="#26264f"/>
          <path id="Path_136489" data-name="Path 136489" d="M909.986,2212.42a27.188,27.188,0,0,1-15.511,2.278,24.18,24.18,0,0,1-7.735-2.547c.224-.679.4-1.321.536-1.928,4.766,3.338,6.758.092,9.836-.674,3.2-.794,7.32.857,4.813-6.538s1.652-6.858,1.652-6.858l6.837,1.171c.048.461.081.85.1,1.152C911.116,2206.332,910.524,2209.956,909.986,2212.42Z" transform="translate(-876.455 -2166.176)" opacity="0.3" fill="url(#linear-gradient-55)" style="mix-blend-mode: multiply;isolation: isolate"/>
          <path id="Path_136490" data-name="Path 136490" d="M1069.75,2019.717a5.168,5.168,0,0,1,1.694,2.107,15.645,15.645,0,0,1-5.464,6.806,16.086,16.086,0,0,1-18.422-.386c-6.445-4.924-7.522-14.367-4.815-18.411a4.511,4.511,0,0,1,2.927-2.172c1-.111,2.372.3,4.532,2.832,4.5,5.27,2.911,8.561,5.57,10.1C1059.759,2022.908,1065.684,2016.872,1069.75,2019.717Z" transform="translate(-1018.591 -1992.891)" fill="url(#linear-gradient-57)"/>
          <g id="Group_94651" data-name="Group 94651" transform="translate(23.729 28.137)">
            <path id="Path_136491" data-name="Path 136491" d="M1062.591,2182.927l-.024,0c-.064-.014-6.407-1.471-9.257-9.332a.111.111,0,1,1,.208-.075c2.806,7.74,9.033,9.177,9.1,9.191a.111.111,0,0,1-.023.219Z" transform="translate(-1053.304 -2173.444)" fill="url(#linear-gradient-55)"/>
          </g>
        </g>
      </g>
      <path id="Path_136492" data-name="Path 136492" d="M1441.267,2133.715s-.47-.9-1.125-.461-1.573.747-.962.9A5.254,5.254,0,0,0,1441.267,2133.715Z" transform="translate(-1384.121 -2104.629)" fill="url(#linear-gradient-59)"/>
    </g>
    <g id="Group_94660" data-name="Group 94660" transform="translate(611.356 590.96)">
      <g id="Group_94656" data-name="Group 94656" transform="translate(10.052)">
        <path id="Path_136493" data-name="Path 136493" d="M2625.126,2173.418l-19.008-2.324v-28.034l19.008-3.6Z" transform="translate(-2606.118 -2139.459)" fill="url(#linear-gradient-60)"/>
        <g id="Group_94655" data-name="Group 94655" transform="translate(19.008)">
          <path id="Path_136494" data-name="Path 136494" d="M2864.806,2171.94l-23.186,1.477v-33.959l23.186,3.2Z" transform="translate(-2841.62 -2139.459)" fill="url(#linear-gradient-61)"/>
        </g>
      </g>
      <g id="Group_94657" data-name="Group 94657" transform="translate(0 27.587)">
        <path id="Path_136495" data-name="Path 136495" d="M2830.475,2524.7l-31.161,2.192v-45.639l31.161,2.192Z" transform="translate(-2773.668 -2481.248)" fill="url(#linear-gradient-62)"/>
        <path id="Path_136496" data-name="Path 136496" d="M2507.207,2481.244v45.64l-25.632-3.124v-39.6l7.6-.862,10.459-1.19Z" transform="translate(-2481.574 -2481.244)" fill="url(#linear-gradient-63)"/>
        <path id="Path_136497" data-name="Path 136497" d="M2585.362,2491.919v7.537l-10.587.53v-6.877Z" transform="translate(-2567.251 -2491.057)" fill="#fff" style="mix-blend-mode: soft-light;isolation: isolate"/>
      </g>
      <g id="Group_94658" data-name="Group 94658" transform="translate(44.021 4.031)">
        <path id="Path_136498" data-name="Path 136498" d="M3033.374,2194.824l-6.408-.4V2189.4l6.408.583Z" transform="translate(-3026.966 -2189.399)" fill="#fff"/>
      </g>
      <g id="Group_94659" data-name="Group 94659" transform="translate(47.086 32.454)">
        <path id="Path_136499" data-name="Path 136499" d="M3071.623,2547.111h-6.687v-5.571l6.687.4Z" transform="translate(-3064.937 -2541.54)" fill="#fff"/>
      </g>
    </g>
    <g id="Group_94662" data-name="Group 94662" transform="translate(457.414 492.464)">
      <path id="Path_136500" data-name="Path 136500" d="M628.04,963.829c0,14.53-11.361,25.959-25.882,25.513-15.112-.464-27.822-13.516-27.822-29.134s12.71-26.956,27.822-25.382C616.678,936.338,628.04,949.3,628.04,963.829Z" transform="translate(-574.336 -933.427)" fill="url(#linear-gradient-64)"/>
      <path id="Path_136501" data-name="Path 136501" d="M676.653,948.307c0,14.529-11.361,25.959-25.882,25.513-15.112-.464-27.822-13.516-27.822-29.134s12.71-26.956,27.822-25.382C665.292,920.816,676.653,933.778,676.653,948.307Z" transform="translate(-619.025 -919.158)" fill="url(#linear-gradient-65)"/>
      <path id="Path_136502" data-name="Path 136502" d="M690.463,962.5c0,13.89-10.871,24.8-24.742,24.348-14.41-.467-26.509-12.922-26.509-27.8s12.1-25.706,26.509-24.229C679.593,936.236,690.463,948.609,690.463,962.5Z" transform="translate(-633.976 -933.427)" fill="url(#linear-gradient-66)"/>
      <path id="Path_136503" data-name="Path 136503" d="M700.294,972.632c0,13.431-10.519,23.967-23.926,23.516-13.91-.467-25.574-12.5-25.574-26.854s11.664-24.814,25.574-23.405C689.776,947.247,700.294,959.2,700.294,972.632Z" transform="translate(-644.623 -943.615)" fill="url(#linear-gradient-67)"/>
      <g id="Group_94661" data-name="Group 94661" transform="translate(19.335 6.838)">
        <path id="Path_136504" data-name="Path 136504" d="M826.157,1003.884h0a1.462,1.462,0,0,1,1.291,1.435v2.473a36.347,36.347,0,0,1,4.286.744q1.582.372,3.143.885a1.446,1.446,0,0,1,.985,1.484l-.3,3.1a1.163,1.163,0,0,1-1.66.965,17.891,17.891,0,0,0-2.109-.786,19.127,19.127,0,0,0-3.978-.743l-.365-.03v7.082c3.722,1.041,6.455,2.442,8.222,4.2a8.888,8.888,0,0,1,2.634,6.563,8.64,8.64,0,0,1-2.913,6.823q-2.932,2.584-8.239,2.9v2.729a1.241,1.241,0,0,1-1.292,1.261h-.023a1.372,1.372,0,0,1-1.3-1.369v-2.692l-.575-.026a37.847,37.847,0,0,1-4.773-.509,31.042,31.042,0,0,1-3.3-.759,1.421,1.421,0,0,1-1.035-1.47l.357-3.986a1.26,1.26,0,0,1,1.762-1.04,25.918,25.918,0,0,0,2.9.952,25.433,25.433,0,0,0,4.638.775l.023-7.878c-3.573-.884-6.247-2.193-8-3.928a8.993,8.993,0,0,1-2.651-6.684,7.813,7.813,0,0,1,2.875-6.492c1.9-1.512,4.611-2.265,8.1-2.263v-2.528A1.168,1.168,0,0,1,826.157,1003.884Zm-1.3,9.454a4.363,4.363,0,0,0-2.581.91,2.654,2.654,0,0,0-.926,2.126,2.854,2.854,0,0,0,.857,2.113,6.07,6.07,0,0,0,2.651,1.352Zm2.29,14.265v7.224a4,4,0,0,0,2.763-.859,3.093,3.093,0,0,0,.962-2.432,3.322,3.322,0,0,0-.894-2.378A6.56,6.56,0,0,0,827.151,1027.6Z" transform="translate(-813.884 -1003.878)" fill="url(#linear-gradient-68)"/>
      </g>
      <path id="Path_136505" data-name="Path 136505" d="M672.038,977.415c.808-7.984,8.146-11.364,7.188-18.708-.59-4.527-4.021-8.341-7.848-11.32-11.608,1.217-20.585,10.829-20.585,23.4,0,14.357,11.664,26.387,25.574,26.854a24.143,24.143,0,0,0,3.952-.193C674.8,991.952,671.343,984.274,672.038,977.415Z" transform="translate(-644.622 -945.109)" opacity="0.3" fill="url(#linear-gradient-69)" style="mix-blend-mode: multiply;isolation: isolate"/>
    </g>
    <g id="Group_94664" data-name="Group 94664" transform="translate(503.725 466.463)">
      <path id="Path_136506" data-name="Path 136506" d="M1180.164,623.7a14.94,14.94,0,0,1-15.456,15.236,17.493,17.493,0,0,1-16.615-17.4,14.9,14.9,0,0,1,16.615-15.158A17.607,17.607,0,0,1,1180.164,623.7Z" transform="translate(-1148.093 -605.547)" fill="url(#linear-gradient-64)"/>
      <path id="Path_136507" data-name="Path 136507" d="M1209.195,614.433a14.94,14.94,0,0,1-15.456,15.236,17.493,17.493,0,0,1-16.615-17.4,14.9,14.9,0,0,1,16.615-15.158A17.607,17.607,0,0,1,1209.195,614.433Z" transform="translate(-1174.781 -597.026)" fill="url(#linear-gradient-65)"/>
      <path id="Path_136508" data-name="Path 136508" d="M1217.442,622.908a14.257,14.257,0,0,1-14.776,14.54,16.7,16.7,0,0,1-15.831-16.6,14.219,14.219,0,0,1,15.831-14.469A16.8,16.8,0,0,1,1217.442,622.908Z" transform="translate(-1183.709 -605.547)" fill="url(#linear-gradient-66)"/>
      <path id="Path_136509" data-name="Path 136509" d="M1223.313,628.96A13.77,13.77,0,0,1,1209.024,643a16.129,16.129,0,0,1-15.272-16.036,13.734,13.734,0,0,1,15.272-13.977A16.226,16.226,0,0,1,1223.313,628.96Z" transform="translate(-1190.067 -611.631)" fill="url(#linear-gradient-67)"/>
      <g id="Group_94663" data-name="Group 94663" transform="translate(11.546 4.084)">
        <path id="Path_136510" data-name="Path 136510" d="M1298.475,647.621h0a.873.873,0,0,1,.771.857v1.477a21.686,21.686,0,0,1,2.559.444q.945.222,1.877.529a.863.863,0,0,1,.588.886l-.181,1.852a.694.694,0,0,1-.991.576,10.688,10.688,0,0,0-1.259-.469,11.418,11.418,0,0,0-2.375-.444l-.218-.018v4.229a11.109,11.109,0,0,1,4.91,2.511,5.308,5.308,0,0,1,1.573,3.919,5.16,5.16,0,0,1-1.739,4.074,7.936,7.936,0,0,1-4.92,1.732v1.63a.741.741,0,0,1-.771.753h-.014a.819.819,0,0,1-.774-.817v-1.608l-.344-.016a22.548,22.548,0,0,1-2.85-.3,18.55,18.55,0,0,1-1.97-.453.849.849,0,0,1-.618-.878l.214-2.38a.753.753,0,0,1,1.052-.621,15.443,15.443,0,0,0,1.732.569,15.18,15.18,0,0,0,2.77.463l.014-4.7a10.191,10.191,0,0,1-4.78-2.345,5.371,5.371,0,0,1-1.583-3.991,4.666,4.666,0,0,1,1.717-3.877,7.613,7.613,0,0,1,4.839-1.351v-1.51A.7.7,0,0,1,1298.475,647.621Zm-.774,5.646a2.605,2.605,0,0,0-1.542.544,1.585,1.585,0,0,0-.553,1.27,1.7,1.7,0,0,0,.512,1.262,3.626,3.626,0,0,0,1.583.808Zm1.367,8.519V666.1a2.388,2.388,0,0,0,1.65-.513,1.847,1.847,0,0,0,.574-1.452,1.984,1.984,0,0,0-.534-1.42A3.916,3.916,0,0,0,1299.069,661.786Z" transform="translate(-1291.146 -647.618)" fill="url(#linear-gradient-68)"/>
      </g>
      <path id="Path_136511" data-name="Path 136511" d="M1206.439,631.815c.483-4.768,4.865-6.786,4.293-11.172-.352-2.7-2.4-4.981-4.687-6.76a13.736,13.736,0,0,0-12.293,13.975,16.129,16.129,0,0,0,15.272,16.036,14.435,14.435,0,0,0,2.36-.115C1208.085,640.5,1206.024,635.911,1206.439,631.815Z" transform="translate(-1190.067 -612.522)" opacity="0.3" fill="url(#linear-gradient-69)" style="mix-blend-mode: multiply;isolation: isolate"/>
    </g>
    <g id="Group_94667" data-name="Group 94667" transform="translate(613.839 498.427)">
      <g id="Group_94665" data-name="Group 94665">
        <path id="Path_136512" data-name="Path 136512" d="M2554.812,1013.057a23.014,23.014,0,0,1-21.173,22.68,19.728,19.728,0,0,1-21.3-19.972,23,23,0,0,1,21.3-22.689A19.731,19.731,0,0,1,2554.812,1013.057Z" transform="translate(-2512.334 -993.036)" fill="url(#linear-gradient-76)"/>
      </g>
      <g id="Group_94666" data-name="Group 94666" transform="translate(1.778)">
        <path id="Path_136513" data-name="Path 136513" d="M2576.846,1013.057a23.014,23.014,0,0,1-21.173,22.68,19.728,19.728,0,0,1-21.3-19.972,23,23,0,0,1,21.3-22.689A19.732,19.732,0,0,1,2576.846,1013.057Z" transform="translate(-2534.368 -993.036)" fill="url(#linear-gradient-77)"/>
        <path id="Path_136514" data-name="Path 136514" d="M2667.886,1120.774a2.44,2.44,0,0,1-2.254-1.134l-8.007-12.857a2.743,2.743,0,0,1,.9-3.686,2.548,2.548,0,0,1,3.616.677l5.552,8.924,7.327-14.921a2.743,2.743,0,0,1,3.527-1.373,2.529,2.529,0,0,1,1.147,3.474l-9.468,19.3a2.854,2.854,0,0,1-2.25,1.588Z" transform="translate(-2647.33 -1087.861)" fill="#fff"/>
      </g>
    </g>
  </g>
</svg>
