<svg xmlns="http://www.w3.org/2000/svg" width="295.347" height="274.713" viewBox="0 0 295.347 274.713">
  <g id="t2-i3" transform="translate(-153 -87)">
    <path id="Path_135281" data-name="Path 135281" d="M651.848,551.418c-6.156,5-14.9,10.557-22.106,12.948l10.7,2.015-44.206,52.127L508.13,643.866l-104.269,111.2L486,755.034l41.85-67.192,83.847-49.815,32.564-69.4,6.937,8.4C649.807,569.568,650.443,559.226,651.848,551.418Z" transform="translate(-212.786 -393.931)" fill="#f7cc7f"/>
    <path id="Path_135282" data-name="Path 135282" d="M222.1,1178.379s-4.775-8.56-5.937-10.379-4.188-9.05-4.3-9.335,2.084-3.707,1.595-3.824-1.031,1.8-1.553,1.574-2.047-4.854-2.345-4.625c-.557.429.822,2.869.525,3.023s-1.2-2.684-1.779-2.6,1.108,2.6.945,2.824-1.919-2.15-2.236-1.644c-.173.274,1.614,2.071,1.271,2.239s-1.933-.991-2.1-.657,1.47.792,1.96,1.693,1.324,1.291,1.671,2.96.864,7.709,2.639,10.722,5.678,9.683,5.678,9.683Z" transform="translate(-45.102 -903.174)" fill="#f79c8d"/>
    <path id="Path_135283" data-name="Path 135283" d="M281.431,1308.744s5.282,5.693,6.068,7.987-.766,5.577-2.907,5.72-6.908-10.1-6.908-10.1Z" transform="translate(-105.759 -1036.314)" fill="#355389"/>
    <path id="Path_135284" data-name="Path 135284" d="M400.025,1443.965c-.384-.321-.849-.176-2.184-.793a8.147,8.147,0,0,0-1.243-.371.153.153,0,0,1-.117-.111c-.406-1.535-2.183-8.631-2.378-10.677-.2-2.093-1.549-10.964-1.755-12.313a.155.155,0,0,0-.195-.125l-3.877,1.081a.155.155,0,0,0-.109.183c.24,1.057,1.73,7.7,2.168,11.057.349,2.679,4.34,11.272,4.42,11.822l0,.015a.336.336,0,0,0,.333.288h4.321C399.575,1444.022,400.145,1444.065,400.025,1443.965Z" transform="translate(-199.472 -1130.318)" fill="#f48c7f"/>
    <path id="Path_135285" data-name="Path 135285" d="M385.006,1361.709c-2.063-6.259-4.371-5.992-4.371-5.992l1.784,13.158c1.274-.348,2.933-1.124,4.206-1.483A57.327,57.327,0,0,0,385.006,1361.709Z" transform="translate(-193.086 -1076.156)" fill="#13375b"/>
    <path id="Path_135286" data-name="Path 135286" d="M323.277,1256.024c-.632-4.116-4.355-7.076-8.25-5.079a9.238,9.238,0,0,0-2.667,2.137c-1.636,2.1-2.054,4.692-3.743,6.73a16.68,16.68,0,0,0,2.265,1.438l1.052-1.4-.362,1.75a25.675,25.675,0,0,0,11.358,2.254A21.834,21.834,0,0,0,323.277,1256.024Z" transform="translate(-131.998 -986.745)" fill="#f7cc7f"/>
    <path id="Path_135287" data-name="Path 135287" d="M358.884,1569.985a16.662,16.662,0,0,0-2.973-1.648c-.124-.06-.575-.347-.737-.447a5.73,5.73,0,0,1-1.183-1.047,5.907,5.907,0,0,1-.579-2.567c.2-2.167,3.335-36.918,4-40.679.684-3.883-.358-9.807-.358-9.807l-2.424-.914-4.6,15.948.363,12.14a32.468,32.468,0,0,0-1.219,5.59c-.137,2.091,1.564,19.064,1.564,19.064h0a8.854,8.854,0,0,1-.091,1.5c-.125.635-.82,1.942-.5,2.539a1.6,1.6,0,0,0,.684.747l8.268.134C359.545,1570.543,359.247,1570.253,358.884,1569.985Z" transform="translate(-166.391 -1209.463)" fill="#f48c7f"/>
    <path id="Path_135288" data-name="Path 135288" d="M261.388,1503.179s-2.871,4.331-3.555,7.916.5,14.6-.813,19.3c-.712,2.543-3.41,6.469-3.82,9.755s-1.837,12.769-1.837,12.769h0a8.371,8.371,0,0,1-.993,2.8,8.247,8.247,0,0,0-1.082,1.427,4.205,4.205,0,0,0,.146,3.262c.19.415-.014.414.419.547a2.654,2.654,0,0,0,3.188-1.5,7.629,7.629,0,0,0,.625-2.757,12.867,12.867,0,0,1,.452-2.914h0l9.177-22.512,6.644-19.428,1.7-10.006Z" transform="translate(-81.443 -1200.098)" fill="#f79c8d"/>
    <path id="Path_135289" data-name="Path 135289" d="M251.719,1867.851a4.07,4.07,0,0,1-4-1.673,4.4,4.4,0,0,0-.38,3.273c.327.715,1.283.694,2.035.722a1.965,1.965,0,0,0,1.806-1.108A6.642,6.642,0,0,0,251.719,1867.851Z" transform="translate(-79.873 -1509.143)" fill="#86b1f2"/>
    <path id="Path_135290" data-name="Path 135290" d="M360.08,1874.308a7.468,7.468,0,0,1-4.707-.185,3.813,3.813,0,0,0-.378,1.972c.2.587.486.719.739.726,2,.053,7.316.124,8.839.144a.25.25,0,0,0,.193-.41C364.388,1876.1,360.243,1874.408,360.08,1874.308Z" transform="translate(-171.298 -1515.882)" fill="#86b1f2"/>
    <path id="Path_135291" data-name="Path 135291" d="M306,1532.466l.518.033.027,0,.513.029.031,0,.517.024h.027q.264.012.528.02a34.183,34.183,0,0,0,5.934-.224c.792-7.927,1.087-15.162,1.38-16.763.711-3.883-.62-10.013-.62-10.013l-.635-.114.4-2.27-10.663,1.344s-2.986,4.331-3.7,7.916.522,14.6-.846,19.3C299.419,1531.751,302.463,1532.225,306,1532.466Z" transform="translate(-124.196 -1201.25)" fill="#f7cc7f"/>
    <path id="Path_135292" data-name="Path 135292" d="M314.581,1348.252s-3.8-.243-5.305,1.4,3.336,14.639,3.61,16.73-1.394,7.651-1.394,7.651,8.93,1.8,11.482.108c0,0,.273-15.036,0-16.529a44.254,44.254,0,0,0-3.1-8.165C319.327,1348.849,314.581,1348.252,314.581,1348.252Z" transform="translate(-132.311 -1069.814)" fill="#355389"/>
    <path id="Path_135293" data-name="Path 135293" d="M346.391,1314.3s-.02.112-.055.3a28.952,28.952,0,0,1-1.263,4.79c-.533,1.009,1.824,4.229,4.093,3.836.675-.117-.571-2.958-.511-3.259.115-.576.27-1.362.429-2.168l.266-1.349c.243-1.231.441-2.238.441-2.238Z" transform="translate(-162.856 -1040.958)" fill="#f7a491"/>
    <path id="Path_135294" data-name="Path 135294" d="M353.245,1314.608c.035-.191.055-.3.055-.3l3.4-.085s-.2,1.007-.441,2.238c-.085.431-.175.889-.265,1.341a3.184,3.184,0,0,1-1.623-.816,4.3,4.3,0,0,1-1.229-1.833C353.184,1314.936,353.219,1314.75,353.245,1314.608Z" transform="translate(-169.765 -1040.958)" fill="#f47458"/>
    <path id="Path_135295" data-name="Path 135295" d="M348.431,1263.7a3.061,3.061,0,0,0-2.607,1.116c-1,1.3-2.087,5.328.408,7.518s4.96-.289,5.326-2.916S352.066,1263.606,348.431,1263.7Z" transform="translate(-162.608 -998.099)" fill="#f7a491"/>
    <path id="Path_135296" data-name="Path 135296" d="M387.085,1293.146c-.3.58-.8.9-1.116.718s-.336-.8-.038-1.384.8-.9,1.116-.718S387.383,1292.566,387.085,1293.146Z" transform="translate(-197.397 -1021.865)" fill="#f7a491"/>
    <path id="Path_135297" data-name="Path 135297" d="M340.235,1260.688s-2.141,3.829-3.672,4.006-1.733,2.211-1.733,2.211.547-4.688,2.064-5.592A5.618,5.618,0,0,1,340.235,1260.688Z" transform="translate(-154.234 -995.517)" fill="#f7cc7f"/>
    <path id="Path_135298" data-name="Path 135298" d="M339.939,1287.61c.124.68-.126,1.3-.56,1.393s-.886-.39-1.01-1.07.126-1.3.559-1.393S339.815,1286.931,339.939,1287.61Z" transform="translate(-157.208 -1017.471)" fill="#f7a491"/>
    <path id="Path_135299" data-name="Path 135299" d="M361.266,1309.92l2.317.456a1.032,1.032,0,0,1-1.251.7C361.082,1310.866,361.266,1309.92,361.266,1309.92Z" transform="translate(-176.648 -1037.311)" fill="#fff"/>
    <g id="Group_92457" data-name="Group 92457" transform="translate(328.494 280.263)">
      <rect id="Rectangle_31939" data-name="Rectangle 31939" width="0.967" height="22.152" transform="translate(47.916 80.92) rotate(169.264)" fill="#3c8f7c"/>
      <path id="Path_135300" data-name="Path 135300" d="M1322.767,1772.148h-1.142l4.257-22.047.95.18Z" transform="translate(-1319.75 -1690.947)" fill="#3c8f7c"/>
      <path id="Path_135301" data-name="Path 135301" d="M1542.517,1772.148h-1.142l4.257-22.047.95.18Z" transform="translate(-1506.148 -1690.947)" fill="#3c8f7c"/>
      <path id="Path_135302" data-name="Path 135302" d="M1374.8,1772.7l.928.011-4.082-21.959-.95.18Z" transform="translate(-1361.374 -1691.499)" fill="#184655"/>
      <path id="Path_135303" data-name="Path 135303" d="M1339.14,1434.583c5.071.543,11.634,1.116,18.222,12.3,7.2,12.219,3.41,30.472-2.273,35.544s-24.245,11.335-39.848,1.959c0,0-9.421-5.682-4.586-15.112,7.441-14.511,6.389-17.537,9.716-23.224S1328.375,1433.43,1339.14,1434.583Z" transform="translate(-1309.274 -1423.209)" fill="#f47458"/>
      <path id="Path_135304" data-name="Path 135304" d="M1374.469,1452.423c-4.5-7.631-8.981-10.32-12.988-11.431a33.541,33.541,0,0,1,4.694,6.336c7.2,12.219,3.41,30.472-2.273,35.544-5.04,4.5-20.208,9.931-34.459,4.564a14.476,14.476,0,0,0,2.905,2.49c15.6,9.376,34.165,3.113,39.848-1.959S1381.67,1464.642,1374.469,1452.423Z" transform="translate(-1326.382 -1428.753)" fill="#b75742"/>
      <path id="Path_135305" data-name="Path 135305" d="M1391.5,1557.662l-1.3,3.91,3.972-1.562Z" transform="translate(-1377.912 -1527.715)" fill="#f79c8d"/>
      <path id="Path_135306" data-name="Path 135306" d="M1395.653,1480.994c-.265.011-.991.253-2.052,2.252-1.355,2.552-3.336,10.262-3.336,10.262l5.912,2.194.76-1.609,1.251-12.389S1395.727,1480.991,1395.653,1480.994Z" transform="translate(-1377.973 -1462.684)" fill="#6394db"/>
      <path id="Path_135307" data-name="Path 135307" d="M1431.481,1473.672a36.233,36.233,0,0,0-7.815,1.112s-1.426,12.217,1.284,21.5c.607,2.078-.5,8.614-.5,8.614l17.518-.23s-2.075-15.8-1.293-18.354.8-11.448.8-11.448-.12-.019-3.936-.676A39.755,39.755,0,0,0,1431.481,1473.672Z" transform="translate(-1405.986 -1456.473)" fill="#86b1f2"/>
      <path id="Path_135308" data-name="Path 135308" d="M1482.842,1828.805s-.387,4.458-1.1,5.692.037,3.333.075,3.621,1.5.7,3.825.453,2.288-.782,2.1-1.646-1.425-1.975-1.5-2.8a21.408,21.408,0,0,1,.712-3.786Z" transform="translate(-1455.306 -1757.706)" fill="#f7a491"/>
      <path id="Path_135309" data-name="Path 135309" d="M1355.2,1653.638s-12.093-.669-14.793.961.488,4.977.488,4.977,9.845,4.266,26.326,5.214c3.9.225,4.239-10.142,3.509-11S1355.2,1653.638,1355.2,1653.638Z" transform="translate(-1334.761 -1608.892)" fill="#e5b05c"/>
      <path id="Path_135310" data-name="Path 135310" d="M1484.525,1872.227c2.395-.254,2.1-1.427,1.905-2.316a7.886,7.886,0,0,0-1.217-1.835,4,4,0,0,1-1.6.776c-1.08.318-2.56-.311-3.5-.705a11.482,11.482,0,0,0-.32,3.078C1479.827,1871.521,1482.131,1872.481,1484.525,1872.227Z" transform="translate(-1453.899 -1791.015)" fill="#f47458"/>
      <path id="Path_135311" data-name="Path 135311" d="M1486.284,1662.929c-.483,3.644-2.875,21.781-2.875,21.781l5.55.686s6.825-23.674,6.475-27.3-2.905-3.926-2.905-3.926S1487.563,1653.284,1486.284,1662.929Z" transform="translate(-1456.98 -1609.562)" fill="#f7cc7f"/>
      <path id="Path_135312" data-name="Path 135312" d="M1430.612,1490.382c-1.638-.612-2.439,14.1-2.66,20.149a71.631,71.631,0,0,1-9.215-.092c-.592-.044-1.957-.543-2.546-.62a5.919,5.919,0,0,0-1.447-.068,27.389,27.389,0,0,0-3.391,1.521c-.321.335-1.188,1.18-1.042,1.546s1.667-1.018,1.667-1.018l.744-.416c-.925.9-2.691,2.088-2.437,2.52s1.84-.783,2.975-1.6c-.974.877-2.183,2.444-1.9,2.689.251.22,1.626-1.6,3.1-2.118.545-.194,1.088.343,1.516.408a3.1,3.1,0,0,0,1.11.062l1.592-.45c.542.049.556.369,1.1.485.636.135,1.679.277,2.488.474,4.662,1.135,6.217,1.662,7.644,1.661C1434.232,1515.508,1434.483,1491.83,1430.612,1490.382Z" transform="translate(-1394.934 -1470.631)" fill="#f7a491"/>
      <path id="Path_135313" data-name="Path 135313" d="M1527.693,1496.51c.307-6.2.262-13.844-3.226-15.148-1.376-.515-3.8,2.579-3.366,15.274A26.3,26.3,0,0,0,1527.693,1496.51Z" transform="translate(-1488.907 -1462.951)" fill="#86b1f2"/>
      <path id="Path_135314" data-name="Path 135314" d="M1351.548,1853.928a3,3,0,0,1-.383,2.571c-.867,1.023-4.471,2.027-4.944,2.582a1.551,1.551,0,0,0-.437,1.026l10.114-.277-.11-3.044-.466-2.188Z" transform="translate(-1340.243 -1779.016)" fill="#f7a491"/>
      <path id="Path_135315" data-name="Path 135315" d="M1341.815,1872.932s2.6,1.048,3.854.427,1.217-.792,1.581-.561.493,3.341.493,3.341l-11.373.077c-.791-.018-1.192-.6-.548-1.1a9.27,9.27,0,0,1,1.24-.735A35.635,35.635,0,0,1,1341.815,1872.932Z" transform="translate(-1331.521 -1794.938)" fill="#f47458"/>
      <path id="Path_135316" data-name="Path 135316" d="M1336.529,1657.88c-.781-1.64-2.559-3.774-5.688-2.488-2.984,1.226-3.784,4.239-2.843,7.325s7.138,21.226,7.354,23.72l4.948.033s-.9-14.363-1.12-17.835A33.534,33.534,0,0,0,1336.529,1657.88Z" transform="translate(-1324.84 -1610.278)" fill="#f7cc7f"/>
      <path id="Path_135317" data-name="Path 135317" d="M1327.333,1563.907h16.539a1.078,1.078,0,0,1,1,.669l5.093,12.421h9.118a.462.462,0,0,1,.462.461h0a.462.462,0,0,1-.462.461H1333.13a1.811,1.811,0,0,1-1.653-1.07l-5.128-11.423A1.079,1.079,0,0,1,1327.333,1563.907Z" transform="translate(-1323.676 -1533.012)" fill="#355389"/>
      <path id="Path_135318" data-name="Path 135318" d="M1391.909,1604.84a.91.91,0,1,0,.682-1.187A.973.973,0,0,0,1391.909,1604.84Z" transform="translate(-1379.348 -1566.713)" fill="#fff"/>
      <path id="Path_135319" data-name="Path 135319" d="M1463.909,1437.4l.809,5.334s-2.955,6.351-4.72,5.8c-1.48-.462-.569-6.081-.569-6.081a15.392,15.392,0,0,0,.565-4.528C1459.752,1436.416,1463.909,1437.4,1463.909,1437.4Z" transform="translate(-1436.404 -1425.44)" fill="#f7a491"/>
      <path id="Path_135320" data-name="Path 135320" d="M1464.121,1437.926c-.242-1.51,3.915-.525,3.915-.525l.067.442a2.456,2.456,0,0,1-.451.743,5.472,5.472,0,0,1-3.635,1.645A8.231,8.231,0,0,0,1464.121,1437.926Z" transform="translate(-1440.532 -1425.44)" fill="#f47458" opacity="0.2"/>
      <g id="Group_92456" data-name="Group 92456" transform="translate(21.088)">
        <path id="Path_135321" data-name="Path 135321" d="M1455.317,1380.14c.117-.043.942,6.075-.622,7.758s-4.612,2.234-5.7.908c-1.209-1.466-1.148-8.041,1.284-9.773S1455.317,1380.14,1455.317,1380.14Z" transform="translate(-1448.218 -1375.723)" fill="#f7a491"/>
        <path id="Path_135322" data-name="Path 135322" d="M1456.052,1360.391a6.753,6.753,0,0,1,3.545,2.022c.853.1,2.014.572,3.212,2.556a4.96,4.96,0,0,1-1.329,6.467,3.865,3.865,0,0,0-1.691,2.857l-.271-.792a4.421,4.421,0,0,1-.215-1.866,3.628,3.628,0,0,1,.277-1.122c.412-.885-.886-1.474-1.25-2.21-.28-.567-.294-1.865-.735-2.8l-.528-.716a3.352,3.352,0,0,0-2.407-.68C1453.469,1364.372,1453.641,1359.9,1456.052,1360.391Z" transform="translate(-1453.072 -1360.353)" fill="#f7cc7f"/>
        <path id="Path_135323" data-name="Path 135323" d="M1483.387,1412.423c-.012.746.327,1.357.758,1.365s.791-.592.8-1.338-.327-1.357-.758-1.365S1483.4,1411.676,1483.387,1412.423Z" transform="translate(-1478.049 -1403.385)" fill="#f7a491"/>
      </g>
      <path id="Path_135324" data-name="Path 135324" d="M1456.3,1432.85l-2.358-.122a1.032,1.032,0,0,0,1.043.982C1456.246,1433.812,1456.3,1432.85,1456.3,1432.85Z" transform="translate(-1431.983 -1421.743)" fill="#fff"/>
    </g>
    <g id="Group_92458" data-name="Group 92458" transform="translate(399.653 252.129)">
      <path id="Path_135325" data-name="Path 135325" d="M1778.245,1200.05c.257,1.057.721,2.728.721,2.728-.037.459-.172,2.37-.334,4.713l3.443-1.378a37.178,37.178,0,0,1,.113-4.05c.13-.2.348.049,1.4-1.461a2.948,2.948,0,0,0,.362-1.215s.063-.959-.153-1.048a.447.447,0,0,0-.54.219c-.078.166-.058.552-.136.717a1.193,1.193,0,0,1-.786.355c-.21-.01.026-2.836.026-2.836s.117-.8.176-1.063c.051-.224.254-.879.254-.879s.239-.951-.056-1.024c-.174-.043-.618.73-.922,1.55a16.548,16.548,0,0,1-.607,1.807c-.22-.03-.1-1.579-.1-1.579a4.973,4.973,0,0,0,.214-1.044c.207-.41.344-1.172-.02-1.234a6.325,6.325,0,0,0-.547.955s-.189.681-.3,1c-.194.561-.223,1.447-.324,1.838-.084.325-.16.191-.2.2a8.246,8.246,0,0,1,.074-1.054,6.246,6.246,0,0,1,.078-1.022,7.453,7.453,0,0,0,.148-1.079c.059-.8-.446-.719-.62.013-.066.279-.136.583-.206.892-.271,1.2-.263,2.358-.393,2.368a8.723,8.723,0,0,1-.057-2.094s-.258-1.166-.514-.084a9.431,9.431,0,0,0-.262,2.325A9.1,9.1,0,0,0,1778.245,1200.05Z" transform="translate(-1778.12 -1190.543)" fill="#f8a492"/>
      <path id="Path_135326" data-name="Path 135326" d="M1987.771,1181.7c-.257,1.057-.721,2.727-.721,2.727.037.459.172,2.37.334,4.713l-3.443-1.378a37.12,37.12,0,0,0-.113-4.05c-.13-.2-.348.049-1.4-1.461a2.947,2.947,0,0,1-.362-1.215s-.062-.958.153-1.048a.447.447,0,0,1,.54.219c.078.166.058.552.136.717a1.192,1.192,0,0,0,.786.355c.21-.01-.026-2.836-.026-2.836s-.117-.8-.176-1.063c-.051-.224-.254-.879-.254-.879s-.239-.951.056-1.024c.174-.043.618.73.922,1.55a16.537,16.537,0,0,0,.607,1.807c.22-.03.1-1.578.1-1.578a4.963,4.963,0,0,1-.213-1.045c-.207-.41-.344-1.171.02-1.234a6.316,6.316,0,0,1,.547.955s.188.681.3,1c.194.562.223,1.448.325,1.838.084.325.16.191.2.2a8.219,8.219,0,0,0-.074-1.054,6.189,6.189,0,0,0-.078-1.022,7.49,7.49,0,0,1-.147-1.079c-.059-.8.446-.719.62.013.067.279.136.583.206.892.271,1.2.263,2.358.393,2.368a8.717,8.717,0,0,0,.057-2.094s.258-1.166.514-.084a9.438,9.438,0,0,1,.262,2.325A9.111,9.111,0,0,1,1987.771,1181.7Z" transform="translate(-1951.102 -1174.981)" fill="#f8a492"/>
      <path id="Path_135327" data-name="Path 135327" d="M1942.151,1810.965a26.327,26.327,0,0,0,2.385,2.658c.476.291-.212,3.73-1.508,3.955-.73.127-1.136-.676-1.136-.676l.21-.99-2.728-2.81Z" transform="translate(-1914.9 -1714.438)" fill="#f7a491"/>
      <path id="Path_135328" data-name="Path 135328" d="M1875.958,1814.817a26.307,26.307,0,0,0,2.026,2.941c.435.349-.687,3.672-2,3.73-.74.033-1.04-.816-1.04-.816l.334-.956-2.346-3.135Z" transform="translate(-1858.541 -1717.706)" fill="#f7a491"/>
      <path id="Path_135329" data-name="Path 135329" d="M1876.569,1833.523a20.144,20.144,0,0,1-1.412,1.629,16.863,16.863,0,0,1-1.468,1.184s-.934,1.695-1.189,2.286a9.862,9.862,0,0,0-1.114,3.52c.03.236.561.487,1,.351,1.844-.567,6.559-4.88,7.154-6.038C1880.23,1835.12,1876.569,1833.523,1876.569,1833.523Z" transform="translate(-1857.223 -1733.573)" fill="#13375b"/>
      <path id="Path_135330" data-name="Path 135330" d="M1806.642,1565.991c.171-.479.336-.923.494-1.34,1.961.428,4.177.9,6.455,1.385l.278,8.353c0-.645-1.713,13.322-1.713,13.322s4.428,9.8,7.457,15.518a10.45,10.45,0,0,1-3.626,3.108c-4.7-5.636-10.854-15.949-11.109-17.664C1804.73,1587.686,1804.6,1571.742,1806.642,1565.991Z" transform="translate(-1800.753 -1505.509)" fill="#3c8f7c"/>
      <path id="Path_135331" data-name="Path 135331" d="M1873.262,1576.144c-.6,6.508-1.932,18.951-1.82,19.952.334,1.247,6.261,12.761,7.328,14.438a7.188,7.188,0,0,1-3.568,3.035c-.278.075-10.059-13.843-10.592-14.948-.6-1.249-1.607-8.061-1.625-16.495l-.278-8.353C1866.5,1574.582,1869.994,1575.376,1873.262,1576.144Z" transform="translate(-1849.868 -1513.246)" fill="#50bfa5"/>
      <path id="Path_135332" data-name="Path 135332" d="M1814.44,1393.921l4.469.614s3.575.065,4.018.065,3.258,16.326,4.071,22.461.183,7.222.183,7.222a39.333,39.333,0,0,1-9.859.9,32.149,32.149,0,0,1-9.264-2.74s3.726-11.79,4.465-15.472S1814.44,1393.921,1814.44,1393.921Z" transform="translate(-1803.515 -1360.691)" fill="#355389"/>
      <path id="Path_135333" data-name="Path 135333" d="M1778.209,1260.2s-.287,12.156.172,13.085c.667,1.352,8.171,10.942,8.171,10.942s-3.585,15-5.092,20.183c-.152.522-.823,3.892-.823,4.221,0,.728,3.171,1.653,3.548,1.6.337-.049,3.1-14.32,4.871-21.3a19.97,19.97,0,0,1,3.03-6.6l1.229-1.746-9.428-9.45s-1.162-10.519-1.162-11.39C1782.723,1259.519,1778.666,1259.347,1778.209,1260.2Z" transform="translate(-1778.12 -1246.724)" fill="#86b1f2"/>
      <path id="Path_135334" data-name="Path 135334" d="M1885.937,1261.506l11.757-11.979s1.638-11.328,1.754-11.755,3.034-.646,4.211-.76c.378-.037-.2,12.065-.76,14.094-.665,2.4-9.552,13.316-9.552,13.316s-1.593,5.914-1.209,10.252c.637,7.205,2.355,17.116,2.047,17.427-1.911,1.2-9.244,1.332-9.708.585C1879.352,1284.431,1885.937,1261.506,1885.937,1261.506Z" transform="translate(-1866.679 -1227.597)" fill="#86b1f2"/>
      <path id="Path_135335" data-name="Path 135335" d="M1949.845,1827.894a20.1,20.1,0,0,1-1.193,1.8,16.827,16.827,0,0,1-1.3,1.362s-.709,1.8-.887,2.419a10.451,10.451,0,0,0-.656,3.76c.059.231.567.672.986.4,1.617-1.053,5.937-5.984,6.379-7.208C1953.68,1829.01,1949.845,1827.894,1949.845,1827.894Z" transform="translate(-1920.317 -1728.798)" fill="#13375b"/>
      <path id="Path_135336" data-name="Path 135336" d="M1859.681,1295.1a12.017,12.017,0,0,0,1.5-.03,6.994,6.994,0,0,1,1.7,0,3.825,3.825,0,0,1,2.709,1.94c.573,1.42,2.625,1.208.195,6.593-2.75,6.1-5.963,4.1-6.008,3.962s-1.589-5.163-1.589-5.163-1.923,1.906-1.891,1.822S1853.674,1294.888,1859.681,1295.1Z" transform="translate(-1843.956 -1276.804)" fill="#0e2e35"/>
      <path id="Path_135337" data-name="Path 135337" d="M1876.672,1362.391l-.32,2.385s-.718,3.436.205,4.1,3.926-4.2,3.926-4.2l-.317-6.043Z" transform="translate(-1861.217 -1330.761)" fill="#f7a491"/>
      <path id="Path_135338" data-name="Path 135338" d="M1882.026,1360.593a6.841,6.841,0,0,1-3.868,3.819l.271-2.022,3.494-3.756Z" transform="translate(-1862.975 -1330.761)" fill="#f47458"/>
      <path id="Path_135339" data-name="Path 135339" d="M1864.968,1311.287a3.18,3.18,0,0,0-4.562,1.716,24.159,24.159,0,0,0-.829,2.957c-.574,2.726.327,5.657,1.565,5.893a5.968,5.968,0,0,0,5.869-4.742C1867.547,1314.728,1866.771,1312.323,1864.968,1311.287Z" transform="translate(-1847.063 -1290.248)" fill="#f7a491"/>
      <path id="Path_135340" data-name="Path 135340" d="M1903.011,1347.617a.926.926,0,1,0,1.1-.923A1.024,1.024,0,0,0,1903.011,1347.617Z" transform="translate(-1884.035 -1320.622)" fill="#f7a491"/>
      <path id="Path_135341" data-name="Path 135341" d="M1874.449,1311.943s-1.537-.181-1.717-1.282-1.308-3.754-3.983-3.84,2.827-1.178,3.017-1.107,2.47.914,2.47.914,1.209,2.1,1.213,2.287-.143,2.1-.143,2.1Z" transform="translate(-1854.373 -1285.87)" fill="#0e2e35"/>
      <path id="Path_135342" data-name="Path 135342" d="M1868.754,1362.555l-2.741-.476a1.216,1.216,0,0,0,1.08,1.3C1868.555,1363.676,1868.754,1362.555,1868.754,1362.555Z" transform="translate(-1852.671 -1333.682)" fill="#fff"/>
    </g>
    <g id="Group_92461" data-name="Group 92461" transform="translate(273.581 260.856)">
      <path id="Path_135343" data-name="Path 135343" d="M971.352,1429.869a2.8,2.8,0,0,0,.294.713,27.086,27.086,0,0,0,2.814,3.744l1.521-3.427s-.248-1.076-.678-2.614C973.834,1428.669,972.435,1428.891,971.352,1429.869Z" transform="translate(-967.728 -1398.567)" fill="#f8a492"/>
      <path id="Path_135344" data-name="Path 135344" d="M960.218,1352.17s-8.484,3.654-8.759,3.584a22.546,22.546,0,0,1-3.515-10.774c-.016-2.4,2.478-5.291,5.261-4.719,1.4.288,1.379.677,3.452,3.689A34.707,34.707,0,0,1,960.218,1352.17Z" transform="translate(-947.872 -1323.84)" fill="#13375b"/>
      <path id="Path_135345" data-name="Path 135345" d="M1073.359,1850.729s-.2,3.332-.2,3.339a18.232,18.232,0,0,0-.365,1.853c0,1.445,6.86-1.226,5.323-1.867-.139-.058-.868-.5-.914-.988-.07-.758-.249-2.291-.249-2.291Z" transform="translate(-1053.771 -1756.895)" fill="#f7a491"/>
      <path id="Path_135346" data-name="Path 135346" d="M1076.739,1872.215s-1.611.442-2.436.552-1.913-.82-2.5-.569c-.642.277-.617,2.766-.617,2.766s8.638.708,11.067-.024C1083.219,1874.651,1080.032,1873.245,1076.739,1872.215Z" transform="translate(-1052.413 -1775.069)" fill="#dd513a"/>
      <path id="Path_135347" data-name="Path 135347" d="M980.89,1850.729s-.2,3.332-.2,3.339a18.25,18.25,0,0,0-.365,1.853c0,1.445,6.861-1.226,5.323-1.867-.139-.058-1.084-.823-1.13-1.315-.071-.758-.033-1.964-.033-1.964Z" transform="translate(-975.336 -1756.895)" fill="#f7a491"/>
      <path id="Path_135348" data-name="Path 135348" d="M983.988,1872.215s-1.611.442-2.436.552-1.913-.82-2.5-.569c-.642.277-.668,2.766-.668,2.766s8.677.826,11.117-.024C990.453,1874.611,987.281,1873.245,983.988,1872.215Z" transform="translate(-973.696 -1775.069)" fill="#dd513a"/>
      <g id="Group_92459" data-name="Group 92459" transform="translate(7.65 6.987)">
        <path id="Path_135349" data-name="Path 135349" d="M997.879,1304.679l6.042-8.465c.025-.074.08-.226.164-.457.3-.84.938-2.588,1.489-4.326l.006-.018c.173-.608.541-1.668.9-2.694.4-1.14.885-2.555.9-2.8-.015-.041-.044-.115-.081-.214a19.484,19.484,0,0,1-.627-2.54c-.068-.379-.135-1.3.316-1.3.709,0,.371.921.7,1.5a14.552,14.552,0,0,0,.491-1.918l.118-1.8c.023-.136-.121-1.129.376-1.129h.024c.447.033.437,1.088.622,2.873.059-.205.117-.453.162-.681a6.551,6.551,0,0,1,.151-.942c-.09-.5-.038-1.282.492-1.208.265.037.244,1.132.244,1.132,0,.15-.019,1.308-.01,1.537.055-.389.267-2.045.683-2.045.345,0,.372.446.365.8,0,.209-.221,2-.233,2.212.162-.272.355-1.854.515-1.854.672,0,.429,2.249.182,2.835a2.592,2.592,0,0,0-.077.314,5.524,5.524,0,0,1-.576,1.673c-.422.722-1,1.87-1.093,2.045-.065.359-.267,1.648-.521,3.27-.109.694-.228,1.455-.353,2.243h-.007c-.023.171-.149.713-.627,2.748a24.225,24.225,0,0,1-.751,2.956c-.284.5-6.8,9.35-7.076,9.726l-.163.222Z" transform="translate(-997.879 -1278.517)" fill="#f7a491"/>
        <path id="Path_135350" data-name="Path 135350" d="M1064.307,1313.532s-.49-1.254-1.364-1.256a1,1,0,0,1,.906.155A1.729,1.729,0,0,1,1064.307,1313.532Z" transform="translate(-1053.068 -1307.112)" fill="#f47458"/>
      </g>
      <g id="Group_92460" data-name="Group 92460">
        <path id="Path_135351" data-name="Path 135351" d="M983.913,1303.24l-.778,4.919s2.964,2.38,4.692,1.878c1.45-.421.456-2.316.456-2.316a12.314,12.314,0,0,1-.535-4C987.984,1302.341,983.913,1303.24,983.913,1303.24Z" transform="translate(-977.722 -1292.256)" fill="#f7a491"/>
        <path id="Path_135352" data-name="Path 135352" d="M987.982,1304.729a12.113,12.113,0,0,0,3.355.945,6.52,6.52,0,0,1-.079-1.955c.109-.635-.7-.786-1.6-.764-1.181.1-2.233.286-2.233.286l-.15.945A2.442,2.442,0,0,0,987.982,1304.729Z" transform="translate(-981.233 -1292.259)" fill="#fe875e"/>
        <path id="Path_135353" data-name="Path 135353" d="M963.571,1252.688c-.122,0,1.172,5.5,3.174,6.441s4.989.453,5.549-1.027c.62-1.637-1.641-7.244-4.457-7.956S963.571,1252.688,963.571,1252.688Z" transform="translate(-961.121 -1247.378)" fill="#f7a491"/>
        <path id="Path_135354" data-name="Path 135354" d="M952.24,1232.743a6.306,6.306,0,0,0-2.581,2.851c-.751.356-1.659,1.127-2.095,3.2a4.5,4.5,0,0,0,3.391,5.113,3.072,3.072,0,0,1,2.333,1.929l.229-1.439a5.7,5.7,0,0,0-1.125-1.88c-.676-.627.32-1.541.408-2.286.067-.574-.355-1.689-.264-2.63a6.5,6.5,0,0,1,2.23-2.122C956.653,1234.764,954.293,1231.56,952.24,1232.743Z" transform="translate(-947.473 -1232.484)" fill="#13375b"/>
        <path id="Path_135355" data-name="Path 135355" d="M975.723,1284.707c.262.635.155,1.265-.239,1.407s-.925-.256-1.187-.891-.155-1.265.239-1.407S975.461,1284.073,975.723,1284.707Z" transform="translate(-970.104 -1276.001)" fill="#f7a491"/>
      </g>
      <path id="Path_135356" data-name="Path 135356" d="M1033.634,1422.508l11.655-1.9s-1.326-3.339-1.8-3.339-8.813,3.641-8.813,3.641l-.663,1.332Z" transform="translate(-1020.557 -1389.223)" fill="#f8a492"/>
      <path id="Path_135357" data-name="Path 135357" d="M983.2,1501.46a38.379,38.379,0,0,0-.689,9.883c.474,4.262.511,19.4.511,19.4l-1.808,24.224,4.29.094s5.087-24.212,4.993-23.591,1.706-17.048,1.706-17.048l-6.065-13.5Z" transform="translate(-976.094 -1460.184)" fill="#184655"/>
      <path id="Path_135358" data-name="Path 135358" d="M1000.188,1492.261s-.758,5.061.19,7.281,8.128,24,8.223,25.776,2.483,21.4,2.483,21.4l4.989-.14,1.079-21.823-2.26-27.428-2.194-6.935Z" transform="translate(-991.943 -1451.252)" fill="#13375b"/>
      <path id="Path_135359" data-name="Path 135359" d="M983.135,1328.364a4.481,4.481,0,0,0,2.377.714,7.905,7.905,0,0,0,2.77-1.152l-.225-.764s-2.968-.432-3.043-.386S983.135,1328.364,983.135,1328.364Z" transform="translate(-977.722 -1312.461)" fill="#f7a491"/>
      <path id="Path_135360" data-name="Path 135360" d="M1069.52,1393.132s4.409,4.16,6.4,3.45,2.813-3.139-2.042-6.691C1069.531,1386.712,1069.52,1393.132,1069.52,1393.132Z" transform="translate(-1050.996 -1365.251)" fill="#f8a492"/>
      <path id="Path_135361" data-name="Path 135361" d="M976.237,1351.477c-.655-3.563-5.4-14.651-5.781-16.693-.184-.993-2.745-1.015-5.183-.885-2.576.137-5.135.463-5.135.463a7.836,7.836,0,0,0-3.284,1.315c-1,.94-1.27,3.54.172,8.475,1.139,3.9,2.55,6.035,3.248,8.873.141.952.263,1.891.423,2.988.257,4.243,0,9.849,0,9.849s12.414,2.575,17.057-1.332C977.753,1364.529,976.908,1355.127,976.237,1351.477Z" transform="translate(-954.726 -1318.459)" fill="#355389"/>
      <path id="Path_135362" data-name="Path 135362" d="M1032.435,1344.611s-4.871,4.021-5.155,4.021c-.183,0-6.951-4.979-8.513-9.069a3.576,3.576,0,0,1,3.017-4.783c1.434.006,2.072.376,4.915,2.773A36.279,36.279,0,0,1,1032.435,1344.611Z" transform="translate(-1007.759 -1319.254)" fill="#466eb6"/>
    </g>
    <path id="Path_135363" data-name="Path 135363" d="M969.526,627.528c-1.191-.8-2.411-1.566-3.586-2.393a1.042,1.042,0,0,1-.38-.8c.155-1.658.4-3.306.547-4.965a.881.881,0,0,1,.614-.917c1.631-.638,3.245-1.319,4.865-1.986.263-.108.521-.225.974-.422l-2.322-7.463c-2.085.414-3.986.759-5.87,1.182a1.154,1.154,0,0,1-1.454-.544c-.874-1.259-1.923-2.395-2.864-3.609a.944.944,0,0,1-.122-.779c.64-1.657,1.279-3.319,2.018-4.933a1,1,0,0,0-.516-1.552,4.825,4.825,0,0,1-.723-.564l-3.594-1.932a2.456,2.456,0,0,1-.45-.094c-1.462-.6-1.18-.586-2.01.634-1.011,1.486-2,2.99-2.863,4.289l-6.493-.607-2.533-6.15a24.962,24.962,0,0,0-7.439,2.313c.411,2.05.807,4.05,1.217,6.047a.691.691,0,0,1-.3.838c-1.375,1.028-2.726,2.094-4.027,3.214a.813.813,0,0,1-1.019.155c-1.663-.7-3.342-1.36-5.007-2.052a.7.7,0,0,0-.988.245,22.259,22.259,0,0,0-3.081,5.971c-.152.42.05.6.368.809,1.469.955,2.915,1.946,4.391,2.89a.878.878,0,0,1,.47,1.056c-.294,1.9-.477,3.814-.72,5.876l-5.9,2.431a23.274,23.274,0,0,0,2.262,7.547l6.378-1.311c1.228,1.416,2.336,2.761,3.526,4.029a1.116,1.116,0,0,1,.266,1.432c-.7,1.577-1.34,3.181-1.987,4.781-.128.316-.38.684.114.945q3.011,1.59,6.022,3.181c.427.225.7.082.954-.32.961-1.5,1.988-2.95,2.923-4.461.361-.583.749-.605,1.354-.524a40.9,40.9,0,0,0,4.505.407.981.981,0,0,1,1.105.761c.7,1.853,1.48,3.679,2.212,5.477a22.308,22.308,0,0,0,7.565-2.353c-.413-1.973-.811-3.972-1.263-5.959a.846.846,0,0,1,.414-1.01c1.227-.965,2.385-2.017,3.6-2.995a1.03,1.03,0,0,1,.854-.164c1.485.581,2.949,1.214,4.414,1.847.818.354,1.147.5,1.462.289l3.429-6.377C970.845,628.424,970.49,628.179,969.526,627.528Zm-12.743-2.236a11.718,11.718,0,0,1-15.871,4.771h0a11.719,11.719,0,0,1-4.771-15.871h0a11.718,11.718,0,0,1,15.871-4.771h0a11.719,11.719,0,0,1,4.771,15.871Z" transform="translate(-651.204 -429.989)" fill="#cae1f9"/>
    <path id="Path_135364" data-name="Path 135364" d="M482.5,864.339c-1.927.188-3.848.443-5.778.592a1.4,1.4,0,0,1-1.077-.5c-1.262-1.854-2.418-3.78-3.693-5.625a1.186,1.186,0,0,1-.149-1.479c1.146-2.062,2.237-4.155,3.346-6.237.18-.338.348-.682.649-1.274l-8.816-5.756c-1.809,2.219-3.487,4.21-5.08,6.266a1.555,1.555,0,0,1-1.976.683c-1.988-.557-4.052-.836-6.071-1.289a1.272,1.272,0,0,1-.8-.7c-.758-2.27-1.521-4.543-2.139-6.854-.3-1.109-.838-1.39-1.868-1.168a6.532,6.532,0,0,1-1.235.035l-5.39,1.078a3.307,3.307,0,0,1-.548.289c-2.031.634-1.728.4-1.543,2.384.226,2.411.492,4.819.708,6.91l-7.262,4.942-7.908-4.211a33.628,33.628,0,0,0-5.738,8.786c2.186,1.776,4.313,3.512,6.453,5.233A.93.93,0,0,1,427,867.57c-.545,2.248-1.033,4.513-1.422,6.792a1.1,1.1,0,0,1-.925,1.036c-2.327.7-4.637,1.456-6.96,2.167a.943.943,0,0,0-.815,1.1,29.977,29.977,0,0,0,1.926,8.843c.2.567.569.583,1.076.524,2.345-.269,4.7-.482,7.039-.768a1.182,1.182,0,0,1,1.394.693c1.324,2.223,2.778,4.369,4.3,6.719l-4.041,7.588a31.346,31.346,0,0,0,8.825,5.894l5.5-6.835c2.49.416,4.795.862,7.118,1.157a1.5,1.5,0,0,1,1.506,1.258c.626,2.238,1.339,4.453,2.04,6.669.138.438.193,1.037.929.883q4.491-.934,8.982-1.865c.636-.132.793-.513.716-1.152-.286-2.378-.468-4.769-.794-7.141-.126-.915.258-1.271.956-1.706a55.052,55.052,0,0,0,5.027-3.444,1.322,1.322,0,0,1,1.8-.159c2.321,1.321,4.694,2.55,7,3.788,1.669-1.38,5.038-6.563,5.834-8.936-2.122-1.693-4.251-3.428-6.426-5.1a1.14,1.14,0,0,1-.436-1.4c.445-2.055.746-4.141,1.17-6.2a1.388,1.388,0,0,1,.746-.9c2.04-.671,4.1-1.271,6.168-1.87,1.154-.335,1.62-.466,1.766-.954l-1.913-9.564C484.638,864.136,484.058,864.187,482.5,864.339Zm-15.15,8.615a15.785,15.785,0,0,1-12.383,18.575h0a15.785,15.785,0,0,1-18.575-12.383h0a15.786,15.786,0,0,1,12.383-18.575h0a15.786,15.786,0,0,1,18.575,12.383Z" transform="translate(-223.823 -639.498)" fill="#9bc1f9"/>
    <path id="Path_135365" data-name="Path 135365" d="M658.615,568.972c-.772-.366-1.558-.706-2.322-1.087a.619.619,0,0,1-.294-.433c-.057-.988-.057-1.98-.121-2.968a.524.524,0,0,1,.279-.594c.9-.52,1.79-1.065,2.683-1.6.145-.087.286-.179.535-.335l-2.031-4.181c-1.189.429-2.276.8-3.346,1.219a.686.686,0,0,1-.9-.19c-.626-.662-1.344-1.237-2.006-1.867a.562.562,0,0,1-.141-.447c.229-1.032.456-2.066.747-3.081.14-.487,0-.716-.442-.866a2.881,2.881,0,0,1-.476-.267l-2.285-.816a1.459,1.459,0,0,1-.273-.015c-.913-.221-.746-.239-1.125.552-.462.964-.908,1.936-1.3,2.777l-3.872.222-2.038-3.39a14.844,14.844,0,0,0-4.168,2.024c.425,1.169.836,2.309,1.255,3.447a.411.411,0,0,1-.1.519c-.717.727-1.416,1.474-2.081,2.249a.484.484,0,0,1-.585.182c-1.04-.263-2.086-.5-3.127-.76a.416.416,0,0,0-.559.232,13.235,13.235,0,0,0-1.279,3.785c-.052.261.083.35.288.443.949.43,1.888.884,2.839,1.308a.522.522,0,0,1,.371.579c0,1.142.06,2.285.1,3.519l-3.253,1.956a13.834,13.834,0,0,0,2,4.235l3.633-1.34c.848.723,1.62,1.415,2.432,2.054a.664.664,0,0,1,.284.819c-.271.989-.5,1.99-.742,2.988-.047.2-.163.436.151.545l3.824,1.333c.271.094.417-.014.533-.273.432-.965.906-1.912,1.321-2.884.16-.375.386-.423.749-.429a24.273,24.273,0,0,0,2.685-.163.584.584,0,0,1,.718.349c.579,1.027,1.2,2.031,1.789,3.023a13.265,13.265,0,0,0,4.238-2.058c-.419-1.123-.831-2.263-1.274-3.391a.5.5,0,0,1,.154-.631c.635-.677,1.222-1.4,1.851-2.082a.613.613,0,0,1,.488-.172c.925.209,1.843.451,2.76.693.513.135.719.191.885.04l1.447-4.055C659.471,569.381,659.24,569.268,658.615,568.972Zm-7.692-.178a6.969,6.969,0,0,1-8.906,4.221h0a6.969,6.969,0,0,1-4.221-8.906h0a6.969,6.969,0,0,1,8.906-4.221h0a6.969,6.969,0,0,1,4.221,8.906Z" transform="translate(-403.946 -393.839)" fill="#9bc1f9" opacity="0.2"/>
    <path id="Path_135366" data-name="Path 135366" d="M729.216,1735.723l-2.294-.009c.3-10.008.569-25.207.064-26.06a.373.373,0,0,0,.153.115l1.861-.486c.3.151.482.243.545,4.5.032,2.19.02,5.215-.037,8.99C729.412,1729.2,729.218,1735.658,729.216,1735.723Z" transform="translate(-486.815 -1376.061)" fill="#355389"/>
    <path id="Path_135367" data-name="Path 135367" d="M692.618,1882.685H677.145a1.29,1.29,0,0,0-1.291,1.291h0a.226.226,0,0,0,.226.226h17.6a.226.226,0,0,0,.226-.226h0A1.29,1.29,0,0,0,692.618,1882.685Z" transform="translate(-443.498 -1523.145)" fill="#355389"/>
    <path id="Path_135368" data-name="Path 135368" d="M724.117,1874.3h-1.9a1.015,1.015,0,0,0-1.015,1.015h0a1.015,1.015,0,0,0,1.015,1.016h1.9a1.016,1.016,0,0,0,1.016-1.016h0A1.016,1.016,0,0,0,724.117,1874.3Z" transform="translate(-481.966 -1516.031)" fill="#355389"/>
    <rect id="Rectangle_31940" data-name="Rectangle 31940" width="0.916" height="45.622" transform="translate(186.373 315.405)" fill="#13375b"/>
    <path id="Path_135369" data-name="Path 135369" d="M682.882,1378.268a12.279,12.279,0,0,1,1.122-5.917,5.017,5.017,0,0,1,4.473-2.548c5.592-.007,6.3,7.382,9.863,10.232,1.088.871,2.3,1.58,3.333,2.519,3.8,3.468,2.089,9.887-1.4,12.928-2.422,2.11-6.228,3.308-9.213,1.659a9.387,9.387,0,0,1-3.583-3.86,52.75,52.75,0,0,1-2.817-7.165A26.733,26.733,0,0,1,682.882,1378.268Z" transform="translate(-449.448 -1088.105)" fill="#13375b"/>
    <path id="Path_135370" data-name="Path 135370" d="M562.278,1501.527l12.169-3.393s2.564-3.444,5.862-8.064c1.078,1.068,1.678,2.707,2.764,3.765l-8.055,8.91a1.539,1.539,0,0,1-1.136.507l-11.183.037-3.827.305v-2.449Z" transform="translate(-344.271 -1190.119)" fill="#f48c7f"/>
    <path id="Path_135371" data-name="Path 135371" d="M674.042,1489.874s4.176-4.282,5.251-6.143-.732-.649-2.577-1.139c-.7-.185-.522-4.281-1.843-2.949a60.762,60.762,0,0,0-4.892,6Z" transform="translate(-438.516 -1181.049)" fill="#96d9c9"/>
    <path id="Path_135372" data-name="Path 135372" d="M694.835,1467.68s3.748-.74,5.459.689-.366,14.134-.365,16.24a70.532,70.532,0,0,0,1.174,8.057s-11.36,1.988-13.165-1.173c0,0-.513-12.046-.437-13.561a42.008,42.008,0,0,1,2.226-8.373C690.193,1468.9,694.835,1467.68,694.835,1467.68Z" transform="translate(-453.371 -1170.964)" fill="#50bfa5"/>
    <path id="Path_135373" data-name="Path 135373" d="M716.961,1430.076s.02.112.055.3a28.831,28.831,0,0,0,1.267,4.784c.534,1.008-1.83,4.224-4.1,3.831-.677-.117.573-2.955.513-3.255-.115-.576-.271-1.361-.431-2.165l-.267-1.347c-.243-1.23-.442-2.235-.442-2.235Z" transform="translate(-475.473 -1139.158)" fill="#f7a491"/>
    <path id="Path_135374" data-name="Path 135374" d="M717.016,1430.379c-.036-.191-.055-.3-.055-.3l-3.41-.085s.2,1.006.442,2.235l.265,1.34a3.2,3.2,0,0,0,1.628-.815,4.288,4.288,0,0,0,1.233-1.83C717.077,1430.706,717.042,1430.52,717.016,1430.379Z" transform="translate(-475.473 -1139.158)" fill="#f47458"/>
    <path id="Path_135375" data-name="Path 135375" d="M702.372,1379.537a3.077,3.077,0,0,1,2.614,1.115c1.008,1.3,2.093,5.322-.409,7.508s-4.975-.288-5.342-2.912S698.727,1379.442,702.372,1379.537Z" transform="translate(-463.18 -1096.354)" fill="#f7a491"/>
    <path id="Path_135376" data-name="Path 135376" d="M694.161,1408.945c.3.579.8.9,1.12.717s.337-.8.038-1.382-.8-.9-1.12-.717S693.862,1408.366,694.161,1408.945Z" transform="translate(-458.845 -1120.091)" fill="#f7a491"/>
    <path id="Path_135377" data-name="Path 135377" d="M719.711,1376.529s2.147,3.824,3.683,4,1.738,2.209,1.738,2.209-.549-4.682-2.07-5.585A5.658,5.658,0,0,0,719.711,1376.529Z" transform="translate(-480.698 -1093.776)" fill="#13375b"/>
    <path id="Path_135378" data-name="Path 135378" d="M741.145,1403.416c-.125.679.126,1.3.561,1.391s.889-.389,1.014-1.068-.126-1.3-.561-1.391S741.27,1402.737,741.145,1403.416Z" transform="translate(-498.852 -1115.701)" fill="#f7a491"/>
    <g id="Group_92462" data-name="Group 92462" transform="translate(194.62 320.468)">
      <path id="Path_135379" data-name="Path 135379" d="M646.116,1810.008a53.171,53.171,0,0,1,3.471,4.494c.023.36-.137,4.286-.547,4.646s-1.615.615-1.228,1.02c.293.306,2.545.241,4.037.158.436-.024.982-3.5,1.155-4.011.251-.742.86-2.413.632-2.931a4.343,4.343,0,0,0-1.391-1.253c-.787-.509-3.8-4.7-3.8-4.7Z" transform="translate(-612.893 -1779.782)" fill="#f48c7f"/>
      <path id="Path_135380" data-name="Path 135380" d="M659,1838.225s-2.316,6.519-3.222,6.834c-.241.084-1.4.3-1.613.806a2.206,2.206,0,0,0,0,.668h4.826s.61-2.872.852-4.135a18.755,18.755,0,0,0,1.136-3.364C660.835,1838.754,659,1838.225,659,1838.225Z" transform="translate(-619.695 -1805.9)" fill="#b75742"/>
      <path id="Path_135381" data-name="Path 135381" d="M443.327,1826.381s-2.816,3.964-2.568,5.219c.133.672.723,1.551.384,2.183a1.7,1.7,0,0,1-.726.79l-8.784.141c-.478.008-.162-.3.224-.583a17.7,17.7,0,0,1,3.158-1.744c.132-.063.611-.367.783-.473a6.066,6.066,0,0,0,1.256-1.108c.631-.7,3.4-6.411,3.4-6.411Z" transform="translate(-430.759 -1794.17)" fill="#f7a491"/>
      <path id="Path_135382" data-name="Path 135382" d="M432.263,1872.836a7.966,7.966,0,0,0,5-.2,4.021,4.021,0,0,1,.4,2.087c-.213.621-.517.761-.785.768-2.122.056-7.773.131-9.39.152a.264.264,0,0,1-.205-.434C427.686,1874.735,432.089,1872.942,432.263,1872.836Z" transform="translate(-427.222 -1835.092)" fill="#b75742"/>
      <path id="Path_135383" data-name="Path 135383" d="M550.574,1633a62.863,62.863,0,0,0,4.376,4.61c.889.63,9.424,16.346,9.424,16.346l-3.041,2.22s-7.628-9.511-11.21-14.6c-3.029-4.3-1.913-4.029-3.694-6.647a3.5,3.5,0,0,1,.535-4.56q.241-.219.526-.456c2.636-2.2,20.709-4.67,20.709-4.67l11.559,1.132s-9.444,6.623-9.8,6.8-13.042,2.027-13.306,2.027S550.574,1633,550.574,1633Z" transform="translate(-527.82 -1625.246)" fill="#b75742"/>
      <path id="Path_135384" data-name="Path 135384" d="M525.252,1630.966s1.983,5.948-.991,8.724-20.643,2.468-26.459,2.468c0,0-2.379,6.521-2.644,7.578s-11.808,14.717-11.808,14.717l-3.172-2.027s12.425-24.146,13.395-25.2,14.8-5.287,18.242-6.257S525.252,1630.966,525.252,1630.966Z" transform="translate(-472.14 -1629.733)" fill="#f47458"/>
    </g>
    <path id="Path_135385" data-name="Path 135385" d="M606.653,1498.839,617.2,1496.5s3.816-4.9,7.48-9.122c1.078,1.068,1.678,2.708,2.764,3.765l-8.055,8.91a1.539,1.539,0,0,1-1.136.507l-11.183.037-3.827.3v-2.449Z" transform="translate(-381.911 -1187.839)" fill="#f7a491"/>
    <path id="Path_135386" data-name="Path 135386" d="M718.417,1480.841s4.176-4.282,5.251-6.143.278-4.978-1.568-5.467-7.745,7.382-7.745,7.382Z" transform="translate(-476.156 -1172.424)" fill="#96d9c9"/>
    <g id="Group_92463" data-name="Group 92463" transform="translate(201.93 298.989)">
      <path id="Path_135387" data-name="Path 135387" d="M476.522,1483.733h17.4a1.134,1.134,0,0,1,1.05.7l5.358,13.068h9.593a.485.485,0,0,1,.486.485h0a.485.485,0,0,1-.486.485h-27.3a1.906,1.906,0,0,1-1.739-1.125l-5.395-12.018A1.135,1.135,0,0,1,476.522,1483.733Z" transform="translate(-475.386 -1483.733)" fill="#b75742"/>
      <path id="Path_135388" data-name="Path 135388" d="M544.463,1526.8a.958.958,0,1,0,.718-1.249A1.024,1.024,0,0,0,544.463,1526.8Z" transform="translate(-533.958 -1519.19)" fill="#fff"/>
    </g>
    <path id="Path_135389" data-name="Path 135389" d="M418.325,1583.073H366.337a1.1,1.1,0,0,1-1.1-1.1h0a1.1,1.1,0,0,1,1.1-1.1h51.988a1.1,1.1,0,0,1,1.1,1.1h0A1.1,1.1,0,0,1,418.325,1583.073Z" transform="translate(-180.023 -1267.137)" fill="#184655"/>
    <path id="Path_135390" data-name="Path 135390" d="M714.524,1426.2l2.358-.122a1.032,1.032,0,0,1-1.043.982C714.576,1427.161,714.524,1426.2,714.524,1426.2Z" transform="translate(-476.299 -1135.838)" fill="#fff"/>
    <path id="Path_135391" data-name="Path 135391" d="M658.192,1645l1.065-4.432a7.19,7.19,0,0,1,6.675-5.484l13.485-.545.416-1.373-13.956.564a8.551,8.551,0,0,0-7.938,6.521l-1.131,4.71C657.191,1644.973,657.658,1644.986,658.192,1645Z" transform="translate(-427.342 -1311.493)" fill="#355389"/>
    <path id="Path_135392" data-name="Path 135392" d="M657.519,1549.768s-18.527.317-20.459,0-2.768,2.1-2.191,3.373,2.162,1.759,4.5,1.874,21.765.663,22.313.144c.447-.424,6.338-20.562,8.481-27.926a2.778,2.778,0,0,0-1.887-3.442h0a2.78,2.78,0,0,0-3.444,1.861Z" transform="translate(-408.582 -1218.626)" fill="#184655"/>
    <rect id="Rectangle_31941" data-name="Rectangle 31941" width="0.916" height="45.622" transform="translate(237.391 315.405)" fill="#13375b"/>
    <rect id="Rectangle_31942" data-name="Rectangle 31942" width="51.705" height="0.491" transform="translate(186.373 318.358)" fill="#13375b"/>
    <g id="Group_92465" data-name="Group 92465" transform="translate(315.562 87)">
      <path id="Path_135393" data-name="Path 135393" d="M1598.245,145.525s6.717,4.348,23.273,3.756c0,0-17.745,6.7-24.683,7.738l-2.855-11.278Z" transform="translate(-1537.836 -136.642)" fill="#e25a44"/>
      <path id="Path_135394" data-name="Path 135394" d="M1609.053,166.705a17.1,17.1,0,0,1-4.576,5.815l-1.488-5.877.1-2.843Z" transform="translate(-1545.479 -152.144)" fill="#b75742"/>
      <path id="Path_135395" data-name="Path 135395" d="M1474.717,99.514s19.4-1.311,22.415-.2l3.118,12.316a61.2,61.2,0,0,0-21.8,2.639Z" transform="translate(-1436.676 -97.065)" fill="#f47458"/>
      <path id="Path_135396" data-name="Path 135396" d="M1361.337,992.793s-.934,1.525-.85,1.977,1.208,5.234,1.827,5.55,2.187.254,1.835.876c-.266.469-3.069,1.093-4.938,1.458-.546.107-2.308-4.017-2.681-4.594-.542-.838-1.817-2.713-1.7-3.423a5.536,5.536,0,0,1,1.326-1.983,8.712,8.712,0,0,0,1.39-2.509Z" transform="translate(-1334.98 -853.07)" fill="#f48c7f"/>
      <path id="Path_135397" data-name="Path 135397" d="M1485.385,998.161s-.316,3.419-.315,3.427c.043.518.029,1.828.144,2.28.43,1.7,7.292-3.379,5.385-3.7a1.87,1.87,0,0,1-.995-1.014,4.1,4.1,0,0,1,.137-2.17Z" transform="translate(-1445.456 -858.873)" fill="#f7a491"/>
      <path id="Path_135398" data-name="Path 135398" d="M1406.285,599.723s1.982,5.484,2,5.567c2.3,9.1,8.608,26.416,8.7,28.214.22,4.385-3.4,27.95-3.4,27.95l-5.015.651-.109-27.091-4.931-9.667-8.437-19.44Z" transform="translate(-1369.139 -521.904)" fill="#3c8f7c"/>
      <path id="Path_135399" data-name="Path 135399" d="M1366.1,615.778l.426,5.565,3.056,22.574-4.088,23.854s2.129,2.781,4.215,2.72l9.573-25.852,2.276-30.555-1.915-6.175Z" transform="translate(-1344.026 -528.848)" fill="#50bfa5"/>
      <path id="Path_135400" data-name="Path 135400" d="M1351.7,1006.373s4.9,7.33,6.118,7.435c.323.028,1.817-.071,2.245.491a6.786,6.786,0,0,1,.4,1.018l-6.147,1.769s-1.661-3.811-2.354-5.294c0,0-2.543-3.41-2.455-3.8S1351.7,1006.373,1351.7,1006.373Z" transform="translate(-1330.47 -866.835)" fill="#13375b"/>
      <path id="Path_135401" data-name="Path 135401" d="M1484,1022.473l.187-3.191a7.853,7.853,0,0,0,2.927-.05,28.794,28.794,0,0,0,2.554-1.337c3.981.279,7.14.1,6.839,1.216h0Z" transform="translate(-1444.552 -876.608)" fill="#13375b"/>
      <path id="Path_135402" data-name="Path 135402" d="M1546.681,446.544l2.651,2.034c.511-.394,1.628-2.052,2.351-2.568l-2.422-2.642h0a.7.7,0,0,1-.283-.633,2.19,2.19,0,0,1,.067-.407c.075-.209.143-.458.219-.667s-.425-.629-.687-.7-.35.932-.464,1.232a32.653,32.653,0,0,0-.836,3.784Z" transform="translate(-1497.717 -387.232)" fill="#f48c7f"/>
      <path id="Path_135403" data-name="Path 135403" d="M1407.466,477.945c-.745-.794-1.8-1.24-2.575-2.065l-11.765,8.1s-9.1-10.756-14.034-6.945a82,82,0,0,0,6.108,8.789c3.021,3.74,7.632,5.525,8.533,5.112C1394.749,490.472,1407.2,478.266,1407.466,477.945Z" transform="translate(-1355.565 -416.858)" fill="#13375b"/>
      <path id="Path_135404" data-name="Path 135404" d="M1224.519,272.049c.389,1.036,1.062,2.668,1.062,2.668.019.468.116,2.416.239,4.8l3.31-1.813a37.809,37.809,0,0,1-.382-4.106c.107-.216.358.007,1.239-1.648a3,3,0,0,0,.217-1.271s-.054-.976-.282-1.04a.455.455,0,0,0-.519.288c-.059.177.009.564-.05.741a1.214,1.214,0,0,1-.75.455c-.213.015-.321-2.868-.321-2.868s.02-.824.048-1.1c.024-.232.149-.919.149-.919s.125-.99-.182-1.027c-.181-.022-.535.813-.742,1.678a16.821,16.821,0,0,1-.392,1.9c-.226,0-.3-1.582-.3-1.582a5.05,5.05,0,0,0,.088-1.081c.159-.44.2-1.226-.171-1.245a6.417,6.417,0,0,0-.436,1.032s-.107.711-.18,1.046c-.127.591-.048,1.49-.1,1.9-.045.339-.138.213-.172.231a8.3,8.3,0,0,1-.054-1.074,6.34,6.34,0,0,1-.046-1.042,7.6,7.6,0,0,0,.017-1.108c-.038-.817-.538-.672-.625.089-.033.29-.066.606-.1.927-.127,1.247.022,2.415-.107,2.44a8.867,8.867,0,0,1-.314-2.109s-.4-1.147-.53-.022a9.607,9.607,0,0,0,.019,2.381A9.26,9.26,0,0,0,1224.519,272.049Z" transform="translate(-1224.073 -237.885)" fill="#f8a492"/>
      <path id="Path_135405" data-name="Path 135405" d="M1334.409,374.32a1.918,1.918,0,0,0-3.146.791,1.426,1.426,0,0,0-1.809.707s-2.054-.357-2.177,2.665c0,0-1.043-.069-1.031,1.16a3.022,3.022,0,0,0,.726,1.963,1.465,1.465,0,0,0-.126,1.582,1.389,1.389,0,0,0,1.138.97s.4,1.572,1.156,1.969a2.276,2.276,0,0,0,1.666.052,1.076,1.076,0,0,0,1.154.661c.8-.175,1.707-1.066,2.653-.829a9.735,9.735,0,0,0,3.25-.413,3.3,3.3,0,0,0,1.38-4.092,1.985,1.985,0,0,0-.16-2.773s.6-2.455-1.318-3.629A4.6,4.6,0,0,0,1334.409,374.32Z" transform="translate(-1310.739 -330.248)" fill="#f47458"/>
      <path id="Path_135406" data-name="Path 135406" d="M1364.235,477.595l-4.062-2.09s-3.609.527-4.057.581-1.291,16.87-1.362,23.168.7,7.319.7,7.319a40.024,40.024,0,0,0,10.072-.293,32.717,32.717,0,0,0,9.025-3.9s-5.207-11.457-6.4-15.087S1364.235,477.595,1364.235,477.595Z" transform="translate(-1334.916 -416.54)" fill="#f7cc7f"/>
      <path id="Path_135407" data-name="Path 135407" d="M1247.739,352.623l-13.344-10.666s-3.04-11.245-3.21-11.662-3.145-.281-4.347-.253c-.386.009,1.675,12.167,2.491,14.148.965,2.34,11.279,12.286,11.279,12.286s2.333,5.781,2.475,10.211c.237,7.358-.286,17.582.063,17.859,2.077.982,9.5.216,9.88-.6C1257.195,374.982,1247.739,352.623,1247.739,352.623Z" transform="translate(-1226.377 -293.119)" fill="#13375b"/>
      <path id="Path_135408" data-name="Path 135408" d="M1366.091,442.548l.608,2.339s1.133,3.339.289,4.111-4.434-3.708-4.434-3.708l-.412-6.063Z" transform="translate(-1341.187 -385.767)" fill="#f7a491"/>
      <path id="Path_135409" data-name="Path 135409" d="M1362.276,441.191a6.885,6.885,0,0,0,4.331,3.34l-.516-1.983-3.949-3.322Z" transform="translate(-1341.187 -385.767)" fill="#f47458"/>
      <path id="Path_135410" data-name="Path 135410" d="M1326.391,406.057c.111.918.723,1.6,1.367,1.521s1.076-.885.965-1.8-.723-1.6-1.367-1.52S1326.28,405.14,1326.391,406.057Z" transform="translate(-1310.847 -356.098)" fill="#f47458"/>
      <path id="Path_135411" data-name="Path 135411" d="M1346.653,383.464c.064.527.751.878,1.534.783s1.366-.6,1.3-1.126-.75-.878-1.534-.783S1346.59,382.937,1346.653,383.464Z" transform="translate(-1328.045 -337.5)" fill="#f47458"/>
      <path id="Path_135412" data-name="Path 135412" d="M1356.961,394.043a3.2,3.2,0,0,1,4.465,2.029,24.2,24.2,0,0,1,.627,3.02c.386,2.771-.724,5.648-1.985,5.8a5.993,5.993,0,0,1-5.567-5.151C1354.128,397.316,1355.076,394.958,1356.961,394.043Z" transform="translate(-1334.637 -347.172)" fill="#f7a491"/>
      <path id="Path_135413" data-name="Path 135413" d="M1351.123,429.058a.932.932,0,1,1-1.041-1A1.031,1.031,0,0,1,1351.123,429.058Z" transform="translate(-1330.293 -376.289)" fill="#f7a491"/>
      <path id="Path_135414" data-name="Path 135414" d="M1383.881,379.015c1.427.874,2.074,2.387,1.443,3.379s-2.3,1.087-3.726.212-2.073-2.387-1.443-3.379S1382.453,378.14,1383.881,379.015Z" transform="translate(-1356.261 -334.187)" fill="#f47458"/>
      <path id="Path_135415" data-name="Path 135415" d="M1370.748,386.855c.054.448-.443.878-1.111.958s-1.253-.217-1.308-.666.443-.878,1.111-.958S1370.694,386.406,1370.748,386.855Z" transform="translate(-1346.431 -340.768)" fill="#f47458"/>
      <path id="Path_135416" data-name="Path 135416" d="M1399.168,405.338a1.04,1.04,0,1,1-1.159-.919A1.046,1.046,0,0,1,1399.168,405.338Z" transform="translate(-1370.835 -356.236)" fill="#f47458"/>
      <path id="Path_135417" data-name="Path 135417" d="M1399.362,480.959s5.641,13.333,7.647,18.032c.217.508,1.308,3.831,1.348,4.164.089.736-3,2.058-3.389,2.049-.346-.008-4.887-14.089-7.526-20.929a20.331,20.331,0,0,0-3.868-6.3l-1.281-1.058-.124-.4S1397.9,477.034,1399.362,480.959Z" transform="translate(-1366.655 -417.404)" fill="#13375b"/>
      <rect id="Rectangle_31943" data-name="Rectangle 31943" width="1.043" height="93.667" transform="translate(36.948 0.256) rotate(-14.208)" fill="#13375b"/>
      <g id="Group_92464" data-name="Group 92464" transform="translate(50.935 54.73)">
        <path id="Path_135418" data-name="Path 135418" d="M1563.2,450.46a3.183,3.183,0,0,0-.184-.611,1.744,1.744,0,0,0-.351-.56,1.065,1.065,0,0,1-.178-.37.662.662,0,0,0-.079-.147l0,0a1.483,1.483,0,0,0-.347-.335,1.565,1.565,0,0,1-.374-.406,1.122,1.122,0,0,0-.42-.37c-.167-.082-.3-.084-.356.019-.277.476-1.664,2-1.1,2.733a17.551,17.551,0,0,1,1.21,1.547c.173.4.783.372,1.148.232A1.389,1.389,0,0,0,1563.2,450.46Z" transform="translate(-1559.67 -447.599)" fill="#f7a491"/>
      </g>
    </g>
    <rect id="Rectangle_31944" data-name="Rectangle 31944" width="295.347" height="1.048" transform="translate(153 360.665)" fill="#184655"/>
    <g id="Group_92466" data-name="Group 92466" transform="translate(330.679 116.76)">
      <path id="Path_135419" data-name="Path 135419" d="M1441.8,340.607a.215.215,0,0,1,.335-.052c.146.152.295.3.443.451.326.332.329.355.378.347.117-.018.12-.229.115-.307a2.539,2.539,0,0,1-.048-.517.379.379,0,0,1,.637-.286c.256.209.5.434.746.659.02-.371.028-.743.053-1.114a.147.147,0,0,1,.245-.109l1.127.881c.058.045.3.287.372.243s.059-.3.065-.356c.035-.318.052-.43.189-1.462a.172.172,0,0,1,.286-.084c.793.95.914.851.985,1.135a.081.081,0,0,1-.1.1c-.152-.015-.187-.03-.584-.413q-.154-.149-.3-.3c-.143,1.257-.149,1.577-.464,1.672-.218.065-.255,0-1.532-1.006,0,.39-.024.778-.041,1.169a.167.167,0,0,1-.28.124c-.914-.753-.907-.809-1.006-.854,0,0,0-.068-.017.029-.027.165.13.522.014.821a.5.5,0,0,1-.669.328c-.162-.08-.206-.16-.7-.63a4.363,4.363,0,0,1-.554.866.676.676,0,0,1-.326.242.179.179,0,0,1-.224-.211C1441.069,341.615,1441.387,341.53,1441.8,340.607Z" transform="translate(-1423.149 -330.388)" fill="#f47458"/>
      <path id="Path_135420" data-name="Path 135420" d="M1412.369,301.6a5.866,5.866,0,0,0,1.039.089c.069,0,.2.014.24-.054.107-.165-.173-.421-.3-1.067-.054-.28-.191-.854.186-.969a2.1,2.1,0,0,1,.632-.008c.151,0,.3,0,.452,0-.269-1.049-.331-.991-.223-1.225a.133.133,0,0,1,.179-.053c.21.14.15.111.5,1.431a.206.206,0,0,1-.189.262c-.2-.005-1.127-.079-1.241-.07.007.011,0,.061,0,.071a3.394,3.394,0,0,0,.307,1.2c.126.327.118.767-.3.859a4.086,4.086,0,0,1-1.043-.024c.188.639.38,1.278.563,1.918a.227.227,0,0,1-.209.289c-.412-.037-.825-.06-1.238-.08a3.833,3.833,0,0,0,.509,1.058c.164.24-.172.532-.545-.1a3.71,3.71,0,0,1-.474-1.133.228.228,0,0,1,.209-.29c.41.008.819.034,1.228.068-.179-.639-.352-1.281-.531-1.92A.21.21,0,0,1,1412.369,301.6Z" transform="translate(-1397.923 -295.991)" fill="#66ccb2"/>
      <path id="Path_135421" data-name="Path 135421" d="M1354.065,285.128a.211.211,0,0,1-.209-.2,4.874,4.874,0,0,1,0-1.679c.059-.292.484-.182.444.1a5.949,5.949,0,0,0-.061,1.365,4.557,4.557,0,0,0,.985-.125.217.217,0,0,1,.275.2c-.022.362-.145,1.729-.16,1.741a.067.067,0,0,1,.036,0c.143.028.633-.073.855-.059.249.016.329.354.341.558.026.415-.284.871-.138,1.276.139.39.753-.039,1.211.279.353.246.231.659.085,1.312a.5.5,0,0,1-.231.4.108.108,0,0,1-.128-.014c-.174-.2-.085-.435.032-1.032.015-.076.064-.2.01-.273-.177-.228-.7.1-1.114-.176a.956.956,0,0,1-.32-.984c.042-.277.212-.617.123-.9-.238.013-.478.032-.714.026a.409.409,0,0,1-.447-.407,7.219,7.219,0,0,1,.058-.888c.015-.2.03-.393.047-.589A5.142,5.142,0,0,1,1354.065,285.128Z" transform="translate(-1349.212 -283.079)" fill="#07345a"/>
      <path id="Path_135422" data-name="Path 135422" d="M1457.165,386.646c.989,1.267.058,1.881-.356,1.514a.347.347,0,0,1,.022-.563c.1-.061.248.035.209.151-.033.1.077.122.122.02.06-.137-.037-.308-.1-.429-.141-.282-.319-.65-.667-.7-.519-.082-1.082.437-.8,1.229a1.4,1.4,0,0,0,2.6-.066,1.7,1.7,0,0,0-.605-1.773c-.1-.081.023-.218.127-.173a1.7,1.7,0,0,1,.781,2.132,1.726,1.726,0,0,1-1.942,1.028,1.641,1.641,0,0,1-1.417-1.765A1.129,1.129,0,0,1,1457.165,386.646Z" transform="translate(-1435.178 -370.245)" fill="#3c8f7c"/>
      <path id="Path_135423" data-name="Path 135423" d="M1325.252,319.5c.137.206.214.627-.065.757a.229.229,0,0,1-.332-.129c-.044-.147.037-.282-.095-.4a.307.307,0,0,0-.386.041c-.322.263-.239.838-.071,1.164a.777.777,0,0,0,1.355.078,1.757,1.757,0,0,0,.192-.564c.027-.107.2-.155.253-.04a1.045,1.045,0,0,1-.462,1.227,1.242,1.242,0,0,1-1.341-.02,1.6,1.6,0,0,1-.626-1.376C1323.709,319.182,1324.809,318.834,1325.252,319.5Z" transform="translate(-1323.671 -313.685)" fill="#f7cc7f"/>
    </g>
    <path id="Path_135424" data-name="Path 135424" d="M1003.649,1292.135a1.032,1.032,0,0,0,1.4.3c1.134-.564.682-1.415.682-1.415Z" transform="translate(-721.542 -1021.281)" fill="#fff"/>
    <path id="Path_135425" data-name="Path 135425" d="M1381.967,446.221a1.032,1.032,0,0,0,1.131.879c1.266-.018,1.227-.98,1.227-.98Z" transform="translate(-1042.44 -304.614)" fill="#fff"/>
  </g>
</svg>
