<svg xmlns="http://www.w3.org/2000/svg" xmlns:xlink="http://www.w3.org/1999/xlink" width="246.829" height="213" viewBox="0 0 246.829 213">
  <defs>
    <linearGradient id="linear-gradient" x1="11.901" y1="0.181" x2="13.092" y2="0.181" gradientUnits="objectBoundingBox">
      <stop offset="0.188" stop-color="#ffd234"/>
      <stop offset="0.986" stop-color="#ffb000"/>
    </linearGradient>
    <clipPath id="clip-path">
      <path id="Path_137515" data-name="Path 137515" d="M-2978.25-2689.5c.215-5.445-2.5-43.758,6.95-52.723,10.763-10.214,20.2-5.91,21.584-19.622,2.161-21.431,19.094-40.878,44.636-23.181,25.209,17.466.167,92.87-22.117,108.253-17.042,19.117-29.772,21.068-30.462,50.736C-2958.142-2605.258-2979.06-2669.03-2978.25-2689.5Z" transform="translate(2978.453 2791.932)" fill="none"/>
    </clipPath>
    <clipPath id="clip-path-2">
      <path id="Path_137521" data-name="Path 137521" d="M-3033.106-2340.62c11.489,9.36,24.417,20,37.028,4.379,10.5-13.008,16.868-22.192,36.147-21.719s36.445-10.453,34.109-29.555c-2.459-20.1,19.176-41.511,6.376-58.4-22.3-29.428-49,13.74-59.459,38.667s-24.389,9.823-40.825,5.281C-3042.169-2408.166-3042.388-2348.183-3033.106-2340.62Z" transform="translate(3038.877 2455.814)" fill="none"/>
    </clipPath>
    <linearGradient id="linear-gradient-2" y1="0.5" x2="1" y2="0.5" gradientUnits="objectBoundingBox">
      <stop offset="0" stop-color="#444b8c"/>
      <stop offset="0.996" stop-color="#26264f"/>
    </linearGradient>
    <linearGradient id="linear-gradient-3" x1="-0.085" y1="0.5" x2="1.065" y2="0.5" gradientUnits="objectBoundingBox">
      <stop offset="0" stop-color="#fcb148"/>
      <stop offset="0.052" stop-color="#fdb946"/>
      <stop offset="0.142" stop-color="#fec144"/>
      <stop offset="0.318" stop-color="#ffc444"/>
      <stop offset="0.485" stop-color="#fdb946"/>
      <stop offset="0.775" stop-color="#f99c4c"/>
      <stop offset="0.866" stop-color="#f8924f"/>
      <stop offset="1" stop-color="#f8924f"/>
    </linearGradient>
    <linearGradient id="linear-gradient-4" x1="0.495" y1="0.179" x2="0.556" y2="4.091" gradientUnits="objectBoundingBox">
      <stop offset="0" stop-color="#ffdb44"/>
      <stop offset="1" stop-color="#feef06"/>
    </linearGradient>
    <linearGradient id="linear-gradient-5" x1="0.492" y1="-0.777" x2="0.511" y2="1.295" xlink:href="#linear-gradient-4"/>
    <linearGradient id="linear-gradient-6" x1="31.733" y1="419.235" x2="31.752" y2="421.667" gradientUnits="objectBoundingBox">
      <stop offset="0.004" stop-color="#f36f56"/>
      <stop offset="0.306" stop-color="#f99c4c"/>
      <stop offset="0.545" stop-color="#fdb946"/>
      <stop offset="0.682" stop-color="#ffc444"/>
      <stop offset="0.804" stop-color="#fec144"/>
      <stop offset="0.867" stop-color="#fdb946"/>
      <stop offset="0.916" stop-color="#fbac49"/>
      <stop offset="0.958" stop-color="#f8994d"/>
      <stop offset="0.995" stop-color="#f58152"/>
      <stop offset="1" stop-color="#f57e53"/>
    </linearGradient>
    <linearGradient id="linear-gradient-10" x1="32.015" y1="422.879" x2="32.034" y2="425.31" xlink:href="#linear-gradient-6"/>
    <linearGradient id="linear-gradient-12" x1="0.495" y1="0.179" x2="0.556" y2="4.091" xlink:href="#linear-gradient-4"/>
    <linearGradient id="linear-gradient-14" x1="31.772" y1="426.514" x2="31.791" y2="428.946" xlink:href="#linear-gradient-6"/>
    <linearGradient id="linear-gradient-18" x1="31.624" y1="430.16" x2="31.643" y2="432.592" xlink:href="#linear-gradient-6"/>
    <linearGradient id="linear-gradient-21" x1="0.492" y1="-0.777" x2="0.511" y2="1.295" xlink:href="#linear-gradient-4"/>
    <linearGradient id="linear-gradient-22" x1="31.733" y1="434.097" x2="31.752" y2="436.528" xlink:href="#linear-gradient-6"/>
    <linearGradient id="linear-gradient-26" x1="32.015" y1="437.74" x2="32.034" y2="440.171" xlink:href="#linear-gradient-6"/>
    <linearGradient id="linear-gradient-30" x1="31.772" y1="441.378" x2="31.791" y2="443.81" xlink:href="#linear-gradient-6"/>
    <linearGradient id="linear-gradient-34" x1="31.899" y1="445.021" x2="31.917" y2="447.453" xlink:href="#linear-gradient-6"/>
    <linearGradient id="linear-gradient-35" x1="-6.668" y1="22.052" x2="-4.963" y2="22.052" xlink:href="#linear-gradient-3"/>
    <linearGradient id="linear-gradient-36" x1="-6.804" y1="23.581" x2="-6.702" y2="24.201" xlink:href="#linear-gradient-4"/>
    <linearGradient id="linear-gradient-37" x1="-6.794" y1="23.511" x2="-6.762" y2="23.701" xlink:href="#linear-gradient-4"/>
    <linearGradient id="linear-gradient-38" x1="58.875" y1="11.028" x2="58.907" y2="11.221" xlink:href="#linear-gradient-6"/>
    <linearGradient id="linear-gradient-39" x1="46.254" y1="0.5" x2="47.254" y2="0.5" gradientUnits="objectBoundingBox">
      <stop offset="0" stop-color="#444b8c"/>
      <stop offset="0.996" stop-color="#3e4177"/>
    </linearGradient>
    <linearGradient id="linear-gradient-40" x1="137.702" y1="21.502" x2="138.126" y2="25.037" xlink:href="#linear-gradient-2"/>
    <linearGradient id="linear-gradient-41" x1="54.415" y1="0.5" x2="55.58" y2="0.5" gradientUnits="objectBoundingBox">
      <stop offset="0" stop-color="#311944"/>
      <stop offset="1" stop-color="#a03976"/>
    </linearGradient>
    <linearGradient id="linear-gradient-42" y1="0.5" x2="1" y2="0.5" gradientUnits="objectBoundingBox">
      <stop offset="0" stop-color="#ffc444"/>
      <stop offset="0.996" stop-color="#f36f56"/>
    </linearGradient>
    <linearGradient id="linear-gradient-43" x1="45.486" y1="-0.037" x2="46.351" y2="0.548" xlink:href="#linear-gradient-39"/>
    <linearGradient id="linear-gradient-44" x1="25.953" y1="0.708" x2="25.367" y2="1.441" xlink:href="#linear-gradient-39"/>
    <linearGradient id="linear-gradient-46" x1="0.557" y1="0.035" x2="-2.36" y2="13.563" xlink:href="#linear-gradient-42"/>
    <linearGradient id="linear-gradient-47" x1="0.378" y1="0.658" x2="1.102" y2="-0.034" gradientUnits="objectBoundingBox">
      <stop offset="0" stop-color="#ff9085"/>
      <stop offset="1" stop-color="#fb6fbb"/>
    </linearGradient>
    <linearGradient id="linear-gradient-50" x1="70.579" y1="-0.105" x2="71.183" y2="0.95" xlink:href="#linear-gradient-2"/>
    <linearGradient id="linear-gradient-52" x1="26.321" y1="0.5" x2="27.321" y2="0.5" gradientUnits="objectBoundingBox">
      <stop offset="0" stop-color="#aa80f9"/>
      <stop offset="0.996" stop-color="#6165d7"/>
    </linearGradient>
    <linearGradient id="linear-gradient-53" x1="26.336" y1="0.5" x2="27.336" y2="0.5" xlink:href="#linear-gradient-52"/>
    <linearGradient id="linear-gradient-54" x1="1408.522" y1="-0.475" x2="1407.828" y2="5.033" xlink:href="#linear-gradient-41"/>
    <linearGradient id="linear-gradient-55" x1="1431.879" y1="-0.475" x2="1431.177" y2="5.032" xlink:href="#linear-gradient-41"/>
    <linearGradient id="linear-gradient-56" x1="1408.772" y1="-0.475" x2="1408.029" y2="5.031" xlink:href="#linear-gradient-41"/>
    <linearGradient id="linear-gradient-57" x1="1432.145" y1="-0.475" x2="1431.343" y2="5.031" xlink:href="#linear-gradient-41"/>
    <linearGradient id="linear-gradient-58" x1="348.566" y1="-753.4" x2="348.324" y2="-739.008" xlink:href="#linear-gradient-41"/>
    <linearGradient id="linear-gradient-59" x1="347.027" y1="-757.974" x2="346.785" y2="-743.413" xlink:href="#linear-gradient-41"/>
    <linearGradient id="linear-gradient-60" x1="323.239" y1="-748.895" x2="322.997" y2="-733.495" xlink:href="#linear-gradient-41"/>
    <linearGradient id="linear-gradient-61" x1="138.243" y1="-4.205" x2="130.037" y2="4.457" xlink:href="#linear-gradient-39"/>
    <linearGradient id="linear-gradient-62" x1="144.627" y1="-3.128" x2="136.395" y2="5.421" xlink:href="#linear-gradient-39"/>
    <linearGradient id="linear-gradient-63" x1="150.921" y1="-2.079" x2="142.664" y2="6.364" xlink:href="#linear-gradient-39"/>
    <linearGradient id="linear-gradient-64" x1="157.632" y1="-1.056" x2="149.35" y2="7.281" xlink:href="#linear-gradient-39"/>
    <linearGradient id="linear-gradient-65" x1="138.725" y1="-4.558" x2="130.474" y2="4" xlink:href="#linear-gradient-39"/>
    <linearGradient id="linear-gradient-66" x1="145.105" y1="-3.489" x2="136.829" y2="4.959" xlink:href="#linear-gradient-39"/>
    <linearGradient id="linear-gradient-67" x1="151.394" y1="-2.449" x2="143.094" y2="5.897" xlink:href="#linear-gradient-39"/>
    <linearGradient id="linear-gradient-68" x1="158.1" y1="-1.433" x2="149.774" y2="6.811" xlink:href="#linear-gradient-39"/>
    <linearGradient id="linear-gradient-69" x1="139.209" y1="-4.904" x2="130.915" y2="3.555" xlink:href="#linear-gradient-39"/>
    <linearGradient id="linear-gradient-70" x1="145.586" y1="-3.844" x2="137.267" y2="4.509" xlink:href="#linear-gradient-39"/>
    <linearGradient id="linear-gradient-71" x1="151.871" y1="-2.811" x2="143.528" y2="5.443" xlink:href="#linear-gradient-39"/>
    <linearGradient id="linear-gradient-72" x1="158.574" y1="-1.802" x2="150.205" y2="6.352" xlink:href="#linear-gradient-39"/>
    <linearGradient id="linear-gradient-73" x1="139.697" y1="-5.245" x2="131.362" y2="3.121" xlink:href="#linear-gradient-39"/>
    <linearGradient id="linear-gradient-74" x1="146.069" y1="-4.192" x2="137.708" y2="4.071" xlink:href="#linear-gradient-39"/>
    <linearGradient id="linear-gradient-75" x1="152.349" y1="-3.167" x2="143.964" y2="5" xlink:href="#linear-gradient-39"/>
    <linearGradient id="linear-gradient-76" x1="140.194" y1="-5.573" x2="131.813" y2="2.695" xlink:href="#linear-gradient-39"/>
    <linearGradient id="linear-gradient-77" x1="146.562" y1="-4.529" x2="138.156" y2="3.64" xlink:href="#linear-gradient-39"/>
    <linearGradient id="linear-gradient-78" x1="152.835" y1="-3.512" x2="144.405" y2="4.564" xlink:href="#linear-gradient-39"/>
    <linearGradient id="linear-gradient-79" x1="158.877" y1="-0.581" x2="150.516" y2="2.465" xlink:href="#linear-gradient-39"/>
    <linearGradient id="linear-gradient-80" x1="3.698" y1="0.554" x2="3.114" y2="0.738" xlink:href="#linear-gradient-3"/>
    <linearGradient id="linear-gradient-81" x1="4.096" y1="0.007" x2="3.576" y2="1.135" xlink:href="#linear-gradient-4"/>
    <linearGradient id="linear-gradient-82" x1="4.166" y1="1.231" x2="4.061" y2="0.666" xlink:href="#linear-gradient-3"/>
    <linearGradient id="linear-gradient-83" x1="4.064" y1="0.31" x2="4.513" y2="1.247" xlink:href="#linear-gradient-3"/>
    <linearGradient id="linear-gradient-84" x1="7.662" y1="0.019" x2="8.12" y2="1.039" xlink:href="#linear-gradient-4"/>
    <linearGradient id="linear-gradient-85" x1="6.591" y1="0.369" x2="7.343" y2="1.306" xlink:href="#linear-gradient-3"/>
  </defs>
  <g id="t3-i14" transform="translate(3677.286 2791.933)">
    <path id="Path_137509" data-name="Path 137509" d="M-3440.955-2689.635c6.507-48.92-50.952-65.915-91.686-53.39-41.064,12.627-50.585-8.3-108.328-2.324-58.468,6.055-28.783,81.811-28.783,81.811s9.3,65.874,20.325,96.239c10.962,30.2,115.893,19.274,141.419,18.373,25.379-.9,47.432.833,69.513-32.326C-3416.453-2614.351-3447.44-2640.877-3440.955-2689.635Z" transform="translate(0 -36.278)" fill="#fff"/>
    <g id="Group_95406" data-name="Group 95406" transform="translate(-3578.395 -2791.933)">
      <g id="Group_95405" data-name="Group 95405" transform="translate(0 0)">
        <g id="Group_95404" data-name="Group 95404">
          <g id="Group_95399" data-name="Group 95399">
            <path id="Path_137510" data-name="Path 137510" d="M-3107.475-2627.417c.1,4.841.732,8.81,1.053,13.534-19.05-7.3-38.753-10.84-58.081-18.2,19.575-18.1,34.577-24.028,35.911-54.916.626-14.5-2.388-43.248,7.1-54.567,10.811-12.9,20.232-5.77,21.608-19.952,2.15-22.167,19.11-40.957,44.631-23.377,25.188,17.351.237,92.721-22.169,108.354C-3093.822-2659.424-3108.014-2652.7-3107.475-2627.417Z" transform="translate(3164.503 2791.856)" fill="url(#linear-gradient)"/>
            <g id="Group_95398" data-name="Group 95398" transform="translate(35.88)">
              <g id="Group_95397" data-name="Group 95397" clip-path="url(#clip-path)">
                <g id="Group_95396" data-name="Group 95396" transform="translate(-7.458 -14.043)">
                  <path id="Path_137511" data-name="Path 137511" d="M-3016.8-2684.452c3.672-6.571,7.905-12.931,12-19.083l1.55-2.331c3.284-4.948,6.134-9.433,8.648-13.39,1.414-2.226,2.75-4.329,4.061-6.356,4.008-6.2,6.826-10.525,8.228-12.68.474-.728.786-1.207.928-1.427,10.988-17,19.668-44.143,24.331-58.727.506-1.581.958-2.994,1.353-4.205a309.853,309.853,0,0,1,28.383-61.91l-.316-.189a310.256,310.256,0,0,0-28.417,61.985c-.4,1.212-.847,2.626-1.353,4.207-4.658,14.567-13.328,41.682-24.29,58.638-.142.22-.454.7-.927,1.426-1.4,2.155-4.22,6.485-8.228,12.681-1.312,2.029-2.648,4.132-4.063,6.358-2.513,3.956-5.361,8.439-8.644,13.385l-1.549,2.331c-4.1,6.157-8.334,12.523-12.014,19.106Z" transform="translate(3017.123 2864.749)" fill="#fcfdfe"/>
                  <path id="Path_137512" data-name="Path 137512" d="M-2910.132-2491.449c6.726-11.577,9.963-27.887,9.361-47.167a168.5,168.5,0,0,0-8.829-48.277l-.348.121a168.1,168.1,0,0,1,8.808,48.167c.6,19.211-2.619,35.453-9.311,46.97Z" transform="translate(2931.022 2640.478)" fill="#fcfdfe"/>
                  <path id="Path_137513" data-name="Path 137513" d="M-2719.478-2752.673c.666-11.56-.126-23.272-.892-34.6-.524-7.753-1.067-15.771-1.137-23.674l-.368,0c.071,7.915.613,15.937,1.138,23.7.765,11.315,1.557,23.016.893,34.553Z" transform="translate(2778.815 2821.323)" fill="#fcfdfe"/>
                  <path id="Path_137514" data-name="Path 137514" d="M-2776.936-2432.491c10.4-12.3,29.912-24.048,41.745-25.148l-.034-.366c-11.916,1.1-31.539,12.916-41.993,25.277Z" transform="translate(2823.483 2536.447)" fill="#fcfdfe"/>
                </g>
              </g>
            </g>
          </g>
          <g id="Group_95403" data-name="Group 95403" transform="translate(24.227 64.723)">
            <path id="Path_137516" data-name="Path 137516" d="M-2921.644-2408.029c-10,22.744-22.615,14.638-39.18,4.994-1.808,23.068-4.418,45.462-7.145,68.18,11.181,6.29,19.308,10.587,29-1.6,10.966-13.786,16.838-22.106,36.236-21.867s36.444-10.349,34.13-29.606c-2.434-20.265,19.191-41.248,6.39-58.405C-2884.512-2476.232-2911.236-2431.713-2921.644-2408.029Z" transform="translate(2981.644 2456.321)" fill="#bbf0d7"/>
            <g id="Group_95402" data-name="Group 95402" transform="translate(0 0.098)">
              <g id="Group_95401" data-name="Group 95401" clip-path="url(#clip-path-2)">
                <g id="Group_95400" data-name="Group 95400" transform="translate(19.613 -12.921)">
                  <path id="Path_137517" data-name="Path 137517" d="M-2927.822-2361.466c20.353-4.942,37.175-9.625,52.94-20.992,15.088-10.878,24.191-24.15,30.437-44.377,3.238-10.485,6.743-17.633,11.723-27.342l-.328-.168c-4.988,9.726-8.5,16.888-11.747,27.4-6.22,20.144-15.282,33.359-30.3,44.187-15.712,11.328-32.5,16-52.812,20.933Z" transform="translate(2929.696 2467.549)" fill="#98d8c9"/>
                  <path id="Path_137518" data-name="Path 137518" d="M-2918.388-1886.76l.328-.167a66.55,66.55,0,0,0-11.218-16.008,43.008,43.008,0,0,0-7.7-6.156l-.2.307a42.661,42.661,0,0,1,7.635,6.1A66.192,66.192,0,0,1-2918.388-1886.76Z" transform="translate(2937.179 2027.448)" fill="#98d8c9"/>
                  <path id="Path_137519" data-name="Path 137519" d="M-2655.52-2051.864l.153-.335c-16.708-7.621-34.419-9.736-49.871-5.954l.087.358C-2689.78-2061.559-2672.153-2059.452-2655.52-2051.864Z" transform="translate(2749.968 2149.242)" fill="#98d8c9"/>
                  <path id="Path_137520" data-name="Path 137520" d="M-2542.928-2461.021c.607-1.765,1.49-17.414,2.114-31.47.626-14.113,1.115-29.314.849-30.323l-.356.094c.227.859-.159,14.412-.86,30.212-.623,14.031-1.5,29.638-2.094,31.367Z" transform="translate(2619.241 2522.813)" fill="#98d8c9"/>
                </g>
              </g>
            </g>
          </g>
        </g>
      </g>
    </g>
    <g id="Group_95424" data-name="Group 95424" transform="translate(-3624.122 -2763.552)">
      <path id="Path_137522" data-name="Path 137522" d="M-3283.036-2457.682a3.5,3.5,0,0,1-3.178,3.553l-111.682,5.8a3.475,3.475,0,0,1-3.717-3.48V-2617.5a3.437,3.437,0,0,1,3.717-3.446l1.5-.08,110.187,6.894a3.541,3.541,0,0,1,3.178,3.583Z" transform="translate(3401.614 2625.607)" fill="#97a6b7"/>
      <path id="Path_137523" data-name="Path 137523" d="M-3271.627-2457.775a3.5,3.5,0,0,1-3.178,3.554l-111.683,5.8a3.474,3.474,0,0,1-3.717-3.48v-165.695a3.437,3.437,0,0,1,3.717-3.446l111.683,6.813a3.541,3.541,0,0,1,3.178,3.583Z" transform="translate(3392.405 2625.622)" fill="#d8dee8"/>
      <path id="Path_137524" data-name="Path 137524" d="M-3229.274-2594.1c-2.776,3.569-3.173,10.311,1.586,13.086,10.311,6.345,23.793,4.362,33.707-2.379,7.3-5.108,4.189-14.577,2.1-22.236l-21.965-1.34C-3215.734-2601.681-3225.793-2598.737-3229.274-2594.1Z" transform="translate(3264.165 2614.255)" fill="#d8dee8" style="mix-blend-mode: multiply;isolation: isolate"/>
      <path id="Path_137525" data-name="Path 137525" d="M-3251.249-2395.214a3.086,3.086,0,0,1-2.824,3.132l-101.124,4.733a3.066,3.066,0,0,1-3.253-3.075v-141.832a3.052,3.052,0,0,1,3.253-3.063l101.124,5.094a3.1,3.1,0,0,1,2.824,3.142Z" transform="translate(3366.774 2556.43)" fill="#fff"/>
      <path id="Path_137526" data-name="Path 137526" d="M-3157.675-2623.075a1.8,1.8,0,0,0-1.69-1.53l-5.322-.286a4.292,4.292,0,0,1-4.031-4.655l.264-5.839a1.859,1.859,0,0,0-1.732-2.009l-1.718-.107a2.191,2.191,0,0,1-2-2.614,3.9,3.9,0,0,0-3.546-4.646,4.806,4.806,0,0,0-4.9,4.106,2.8,2.8,0,0,1-.969,1.711,2.588,2.588,0,0,1-1.811.621l-1.754-.109a2.364,2.364,0,0,0-2.359,1.782l-1.523,5.851a5.6,5.6,0,0,1-5.549,4.208l-5.6-.3a2.427,2.427,0,0,0-2.249,1.365l-4.019,8.064.345.441,51.546,2.005Zm-20.529-16.665a1.144,1.144,0,0,1-1.044-1.362,1.408,1.408,0,0,1,1.432-1.2,1.144,1.144,0,0,1,1.042,1.362A1.408,1.408,0,0,1-3178.2-2639.74Z" transform="translate(3245.477 2644.77)" fill="url(#linear-gradient-2)"/>
      <path id="Path_137527" data-name="Path 137527" d="M-3155.885-2620.787a1.8,1.8,0,0,0-1.69-1.53l-5.322-.286a4.291,4.291,0,0,1-4.03-4.655l.264-5.839a1.859,1.859,0,0,0-1.732-2.01l-1.718-.107a2.19,2.19,0,0,1-1.995-2.614,3.9,3.9,0,0,0-3.546-4.646,4.806,4.806,0,0,0-4.9,4.107,2.8,2.8,0,0,1-.969,1.71,2.588,2.588,0,0,1-1.811.621l-1.754-.109a2.364,2.364,0,0,0-2.359,1.782l-1.523,5.852a5.6,5.6,0,0,1-5.549,4.208l-5.6-.3a2.428,2.428,0,0,0-2.249,1.365l-4.019,8.063,51.892,2.447Zm-20.529-16.665a1.144,1.144,0,0,1-1.044-1.363,1.408,1.408,0,0,1,1.432-1.2,1.144,1.144,0,0,1,1.042,1.363A1.408,1.408,0,0,1-3176.413-2637.451Z" transform="translate(3244.031 2642.923)" fill="#97a6b7"/>
      <path id="Path_137528" data-name="Path 137528" d="M-3157.574-2548.923l-5.322-.286a4.163,4.163,0,0,1-3.559-2.343c-4.932,1.032-10.127-.046-15.323.993-3.569.793-3.173,6.345-7.138,6.742a134.966,134.966,0,0,1-16.885.877l-.579,1.162,51.892,2.447-1.4-8.06A1.8,1.8,0,0,0-3157.574-2548.923Z" transform="translate(3244.031 2569.529)" fill="#97a6b7" opacity="0.3" style="mix-blend-mode: multiply;isolation: isolate"/>
      <g id="Group_95423" data-name="Group 95423" transform="translate(17.633 35.003)">
        <path id="Path_137529" data-name="Path 137529" d="M-3219.708-2449.219l-90.471-2.2v-11.853l90.471,2.82Z" transform="translate(3310.179 2463.269)" fill="#d8dee8"/>
        <g id="Group_95414" data-name="Group 95414" transform="translate(0 20.803)">
          <g id="Group_95412" data-name="Group 95412">
            <g id="Group_95407" data-name="Group 95407">
              <path id="Path_137530" data-name="Path 137530" d="M-3219.708-2325.022l-90.471-.136V-2355.4l90.471,1.726Zm-88.778-1.824,87.084.216V-2352.1l-87.084-1.574Z" transform="translate(3310.179 2355.396)" fill="#d8dee8"/>
            </g>
            <g id="Group_95408" data-name="Group 95408" transform="translate(19.11 1.086)">
              <path id="Path_137531" data-name="Path 137531" d="M-3209.151-2321.583h-1.935v-28.184l1.935.031Z" transform="translate(3211.086 2349.767)" fill="#d8dee8"/>
            </g>
            <g id="Group_95411" data-name="Group 95411" transform="translate(20.078 9.944)">
              <g id="Group_95409" data-name="Group 95409">
                <path id="Path_137532" data-name="Path 137532" d="M-3136.643-2301.291l-69.426-.868v-1.674l69.426.937Z" transform="translate(3206.069 2303.833)" fill="#d8dee8"/>
              </g>
              <g id="Group_95410" data-name="Group 95410" transform="translate(0 9.085)">
                <path id="Path_137533" data-name="Path 137533" d="M-3136.643-2254.552l-69.426-.5v-1.674l69.426.566Z" transform="translate(3206.069 2256.723)" fill="#d8dee8"/>
              </g>
            </g>
          </g>
          <g id="Group_95413" data-name="Group 95413" transform="translate(69.91 2.03)">
            <path id="Path_137534" data-name="Path 137534" d="M-2945.739-2316.788l-1.935,0v-28.08l1.935.031Z" transform="translate(2947.674 2344.87)" fill="#d8dee8"/>
          </g>
        </g>
        <g id="Group_95422" data-name="Group 95422" transform="translate(0 76.388)">
          <g id="Group_95420" data-name="Group 95420">
            <g id="Group_95415" data-name="Group 95415">
              <path id="Path_137535" data-name="Path 137535" d="M-3219.708-2038.526l-90.471,2.853v-30.238l90.471-1.263Zm-88.778,1.105,87.084-2.658v-25.465l-87.084,1.3Z" transform="translate(3310.179 2067.174)" fill="#d8dee8"/>
            </g>
            <g id="Group_95416" data-name="Group 95416" transform="translate(19.11 1.684)">
              <path id="Path_137536" data-name="Path 137536" d="M-3209.151-2030.248l-1.935.063v-28.227l1.935-.031Z" transform="translate(3211.086 2058.443)" fill="#d8dee8"/>
            </g>
            <g id="Group_95419" data-name="Group 95419" transform="translate(20.078 9.186)">
              <g id="Group_95417" data-name="Group 95417">
                <path id="Path_137537" data-name="Path 137537" d="M-3136.643-2017.935l-69.426,1.426v-1.674l69.426-1.358Z" transform="translate(3206.069 2019.54)" fill="#d8dee8"/>
              </g>
              <g id="Group_95418" data-name="Group 95418" transform="translate(0 8.714)">
                <path id="Path_137538" data-name="Path 137538" d="M-3136.643-1972.75l-69.426,1.8v-1.674l69.426-1.729Z" transform="translate(3206.069 1974.355)" fill="#d8dee8"/>
              </g>
            </g>
          </g>
          <g id="Group_95421" data-name="Group 95421" transform="translate(69.91 0.956)">
            <path id="Path_137539" data-name="Path 137539" d="M-2945.739-2034.167l-1.935.053v-28.079l1.935-.025Z" transform="translate(2947.674 2062.218)" fill="#d8dee8"/>
          </g>
        </g>
        <path id="Path_137540" data-name="Path 137540" d="M-3219.708-2163.332l-90.471.4v-3.87l90.471-.195Z" transform="translate(3310.179 2224.135)" fill="#d8dee8"/>
        <path id="Path_137541" data-name="Path 137541" d="M-3219.708-2118.173l-90.471.882v-3.871l90.471-.678Z" transform="translate(3310.179 2187.685)" fill="#d8dee8"/>
        <path id="Path_137542" data-name="Path 137542" d="M-3219.708-1884.059l-90.471,3.387v-3.87l90.471-3.183Z" transform="translate(3310.179 1998.72)" fill="#d8dee8"/>
      </g>
    </g>
    <g id="Group_95443" data-name="Group 95443" transform="translate(-3637.044 -2640.963)">
      <g id="Group_95426" data-name="Group 95426" transform="translate(8.099 48.008)">
        <path id="Path_137543" data-name="Path 137543" d="M-3426.535-1740.567v6.462c0,2.088,13.043,3.781,29.133,3.781s29.133-1.693,29.133-3.781v-6.462Z" transform="translate(3426.552 1744.348)" fill="url(#linear-gradient-3)"/>
        <path id="Path_137544" data-name="Path 137544" d="M-3368.269-1756.39c0,2.088-13.043,3.781-29.133,3.781s-29.133-1.693-29.133-3.781,13.043-3.781,29.133-3.781S-3368.269-1758.478-3368.269-1756.39Z" transform="translate(3426.552 1760.171)" fill="url(#linear-gradient-4)"/>
        <path id="Path_137545" data-name="Path 137545" d="M-3397.473-1737.958c-14.25,0-29.15-1.361-29.15-3.986,0-.144.051-.4.2-.4s.082.2.082.342c0,1.665,11.857,3.52,28.872,3.52s28.872-1.855,28.872-3.52c0-.144.025-.279.169-.279s.109.192.109.337C-3368.323-1739.317-3383.224-1737.958-3397.473-1737.958Z" transform="translate(3426.623 1745.78)" fill="url(#linear-gradient-5)"/>
        <g id="Group_95425" data-name="Group 95425" transform="translate(10.798 2.348)">
          <path id="Path_137546" data-name="Path 137546" d="M-3355.033-1746.351c.286-.2.59-.393.916-.585a5.733,5.733,0,0,1,1.251-.522,11.955,11.955,0,0,1,1.92-.38,24.376,24.376,0,0,1,2.877-.155q1.688-.008,3.17.107a21.542,21.542,0,0,1,2.608.345,8.087,8.087,0,0,1,1.831.568,1.449,1.449,0,0,1,.836.776l3.28.033a3.21,3.21,0,0,1,.629.058c.184.037.272.084.272.142v.27l-4.217-.041a2.127,2.127,0,0,1-1.13.908,11.461,11.461,0,0,1-2.312.714l-1.536-.214a1.771,1.771,0,0,1-.339-.08c-.089-.032-.132-.067-.132-.106s.118-.111.356-.177.506-.149.8-.248a8.077,8.077,0,0,0,.88-.348,1.2,1.2,0,0,0,.578-.479l-9.954-.1a9.447,9.447,0,0,1-.879.567,5.724,5.724,0,0,1-1.291.5,13.518,13.518,0,0,1-2,.362,28.338,28.338,0,0,1-3.02.148c-.913,0-1.8-.03-2.67-.1a18.249,18.249,0,0,1-2.317-.331,7.212,7.212,0,0,1-1.663-.544q-.647-.324-.724-.745l-2.7-.028a3.516,3.516,0,0,1-.638-.056c-.187-.036-.281-.084-.282-.144v-.27l3.692.035a1.984,1.984,0,0,1,1.01-.744,11.546,11.546,0,0,1,1.874-.564l1.236.17c.376.053.563.114.563.185,0,.038-.076.086-.231.142s-.341.125-.555.2a5.069,5.069,0,0,0-.615.277,1.3,1.3,0,0,0-.45.36Zm-9.109.368a.975.975,0,0,0,.49.458,3.891,3.891,0,0,0,.938.317,9.58,9.58,0,0,0,1.265.182q.7.058,1.474.055a15.391,15.391,0,0,0,1.565-.077,9.054,9.054,0,0,0,1.171-.2,5.454,5.454,0,0,0,.88-.291,4.864,4.864,0,0,0,.672-.359Zm21.669-.242a1.015,1.015,0,0,0-.536-.472,4.814,4.814,0,0,0-1.079-.341,11.878,11.878,0,0,0-1.53-.205q-.869-.067-1.922-.062a14.728,14.728,0,0,0-1.61.083,8.306,8.306,0,0,0-1.171.213,4.271,4.271,0,0,0-.841.311,6.04,6.04,0,0,0-.645.38Z" transform="translate(3370.632 1747.994)" fill="#fcb048"/>
        </g>
        <path id="Path_137547" data-name="Path 137547" d="M-3395.48-1758.049c-12.99,0-26.515,1.143-28.679,3.356a2.6,2.6,0,0,1,.237.249c1.823-1.536,12.992-3.083,28.442-3.083,15.847,0,27.195,1.627,28.569,3.2a2.693,2.693,0,0,1,.218-.247C-3368.48-1756.864-3382.26-1758.049-3395.48-1758.049Z" transform="translate(3424.634 1758.458)" fill="url(#linear-gradient-6)"/>
      </g>
      <g id="Group_95428" data-name="Group 95428" transform="translate(0 41.22)">
        <path id="Path_137548" data-name="Path 137548" d="M-3468.53-1775.762v6.462c0,2.088,13.043,3.781,29.133,3.781s29.133-1.693,29.133-3.781v-6.462Z" transform="translate(3468.547 1779.543)" fill="url(#linear-gradient-3)"/>
        <path id="Path_137549" data-name="Path 137549" d="M-3410.264-1791.585c0,2.088-13.043,3.781-29.133,3.781s-29.133-1.693-29.133-3.781,13.043-3.781,29.133-3.781S-3410.264-1793.673-3410.264-1791.585Z" transform="translate(3468.547 1795.366)" fill="url(#linear-gradient-4)"/>
        <path id="Path_137550" data-name="Path 137550" d="M-3439.468-1773.153c-14.25,0-29.15-1.361-29.15-3.986,0-.144.051-.4.2-.4s.082.2.082.342c0,1.665,11.857,3.52,28.872,3.52s28.872-1.855,28.872-3.52c0-.144.024-.279.169-.279s.109.192.109.336C-3410.318-1774.512-3425.219-1773.153-3439.468-1773.153Z" transform="translate(3468.618 1780.975)" fill="url(#linear-gradient-5)"/>
        <g id="Group_95427" data-name="Group 95427" transform="translate(10.798 2.348)">
          <path id="Path_137551" data-name="Path 137551" d="M-3397.029-1781.546c.286-.2.59-.393.916-.586a5.761,5.761,0,0,1,1.251-.522,11.981,11.981,0,0,1,1.92-.38,24.394,24.394,0,0,1,2.877-.155q1.689-.008,3.171.107a21.578,21.578,0,0,1,2.608.345,8.07,8.07,0,0,1,1.83.568,1.449,1.449,0,0,1,.837.776l3.28.033a3.228,3.228,0,0,1,.629.058c.183.037.272.084.272.142v.27l-4.217-.041a2.124,2.124,0,0,1-1.131.908,11.457,11.457,0,0,1-2.312.713l-1.536-.214a1.782,1.782,0,0,1-.339-.08c-.088-.032-.132-.067-.132-.105s.119-.111.356-.177.506-.15.8-.248a8.118,8.118,0,0,0,.88-.348,1.194,1.194,0,0,0,.577-.48l-9.954-.1a9.41,9.41,0,0,1-.879.567,5.726,5.726,0,0,1-1.291.5,13.567,13.567,0,0,1-2,.362,28.36,28.36,0,0,1-3.02.148c-.912,0-1.8-.03-2.67-.1a18.283,18.283,0,0,1-2.318-.33,7.21,7.21,0,0,1-1.663-.544q-.647-.325-.724-.745l-2.7-.028a3.544,3.544,0,0,1-.638-.056c-.186-.036-.281-.084-.282-.144v-.27l3.692.035a1.983,1.983,0,0,1,1.01-.744,11.515,11.515,0,0,1,1.874-.564l1.237.17c.375.053.562.115.563.185,0,.038-.076.086-.231.143s-.341.124-.554.2a5.075,5.075,0,0,0-.615.278,1.306,1.306,0,0,0-.45.36Zm-9.11.368a.981.981,0,0,0,.49.458,3.926,3.926,0,0,0,.938.317,9.59,9.59,0,0,0,1.264.182q.7.058,1.474.054a15.4,15.4,0,0,0,1.565-.077,9.064,9.064,0,0,0,1.171-.2,5.426,5.426,0,0,0,.88-.291,4.912,4.912,0,0,0,.673-.359Zm21.669-.242a1.013,1.013,0,0,0-.536-.472,4.816,4.816,0,0,0-1.079-.341,11.9,11.9,0,0,0-1.53-.205q-.87-.067-1.922-.062a14.773,14.773,0,0,0-1.611.083,8.3,8.3,0,0,0-1.171.213,4.245,4.245,0,0,0-.841.311,5.884,5.884,0,0,0-.645.38Z" transform="translate(3412.628 1783.189)" fill="#fcb048"/>
        </g>
        <path id="Path_137552" data-name="Path 137552" d="M-3437.475-1793.244c-12.99,0-26.516,1.143-28.679,3.356a2.584,2.584,0,0,1,.237.249c1.823-1.536,12.992-3.083,28.442-3.083,15.847,0,27.195,1.627,28.569,3.2a2.674,2.674,0,0,1,.218-.247C-3410.475-1792.059-3424.255-1793.244-3437.475-1793.244Z" transform="translate(3466.629 1793.653)" fill="url(#linear-gradient-10)"/>
      </g>
      <g id="Group_95430" data-name="Group 95430" transform="translate(6.988 34.453)">
        <path id="Path_137553" data-name="Path 137553" d="M-3432.294-1810.854v6.462c0,2.088,13.043,3.781,29.133,3.781s29.133-1.693,29.133-3.781v-6.462Z" transform="translate(3432.311 1814.635)" fill="url(#linear-gradient-3)"/>
        <path id="Path_137554" data-name="Path 137554" d="M-3374.028-1826.677c0,2.088-13.043,3.781-29.133,3.781s-29.133-1.693-29.133-3.781,13.043-3.781,29.133-3.781S-3374.028-1828.765-3374.028-1826.677Z" transform="translate(3432.311 1830.458)" fill="url(#linear-gradient-12)"/>
        <path id="Path_137555" data-name="Path 137555" d="M-3403.232-1808.245c-14.25,0-29.15-1.361-29.15-3.986,0-.144.052-.4.2-.4s.082.2.082.342c0,1.665,11.857,3.52,28.872,3.52s28.872-1.855,28.872-3.52c0-.144.025-.279.169-.279s.109.193.109.337C-3374.082-1809.6-3388.983-1808.245-3403.232-1808.245Z" transform="translate(3432.382 1816.067)" fill="url(#linear-gradient-5)"/>
        <g id="Group_95429" data-name="Group 95429" transform="translate(10.798 2.348)">
          <path id="Path_137556" data-name="Path 137556" d="M-3360.792-1816.638c.286-.2.59-.393.916-.586a5.77,5.77,0,0,1,1.252-.522,11.973,11.973,0,0,1,1.92-.38,24.312,24.312,0,0,1,2.877-.155q1.689-.008,3.171.107a21.616,21.616,0,0,1,2.607.345,8.071,8.071,0,0,1,1.831.568,1.45,1.45,0,0,1,.837.776l3.28.033a3.224,3.224,0,0,1,.629.058c.183.037.272.084.272.142v.27l-4.217-.041a2.127,2.127,0,0,1-1.131.908,11.447,11.447,0,0,1-2.312.713l-1.536-.214a1.766,1.766,0,0,1-.339-.08c-.089-.032-.132-.067-.132-.105s.118-.111.356-.178.506-.15.8-.248a8.143,8.143,0,0,0,.88-.348,1.194,1.194,0,0,0,.577-.48l-9.954-.1a9.46,9.46,0,0,1-.879.567,5.736,5.736,0,0,1-1.291.5,13.531,13.531,0,0,1-2,.362,28.319,28.319,0,0,1-3.02.148c-.912,0-1.8-.03-2.67-.1a18.258,18.258,0,0,1-2.317-.33,7.2,7.2,0,0,1-1.663-.544c-.431-.216-.674-.465-.724-.745l-2.7-.028a3.541,3.541,0,0,1-.638-.056c-.186-.036-.281-.084-.281-.144v-.27l3.692.035a1.984,1.984,0,0,1,1.009-.744,11.532,11.532,0,0,1,1.874-.564l1.237.17c.375.053.562.115.562.185,0,.038-.076.086-.231.143s-.341.125-.554.2a5.075,5.075,0,0,0-.615.277,1.306,1.306,0,0,0-.45.36Zm-9.109.368a.979.979,0,0,0,.49.458,3.909,3.909,0,0,0,.938.317,9.6,9.6,0,0,0,1.264.182q.705.058,1.474.054a15.482,15.482,0,0,0,1.565-.077,9.105,9.105,0,0,0,1.171-.2,5.478,5.478,0,0,0,.88-.291,4.908,4.908,0,0,0,.672-.359Zm21.669-.242a1.014,1.014,0,0,0-.536-.472,4.81,4.81,0,0,0-1.079-.34,11.9,11.9,0,0,0-1.53-.205q-.87-.067-1.923-.062a14.787,14.787,0,0,0-1.611.084,8.284,8.284,0,0,0-1.171.213,4.266,4.266,0,0,0-.841.311,6.059,6.059,0,0,0-.645.38Z" transform="translate(3376.391 1818.281)" fill="#fcb048"/>
        </g>
        <path id="Path_137557" data-name="Path 137557" d="M-3401.239-1828.336c-12.99,0-26.516,1.143-28.679,3.356a2.615,2.615,0,0,1,.237.249c1.824-1.536,12.992-3.083,28.442-3.083,15.847,0,27.194,1.627,28.569,3.2a2.686,2.686,0,0,1,.218-.247C-3374.239-1827.151-3388.019-1828.336-3401.239-1828.336Z" transform="translate(3430.393 1828.745)" fill="url(#linear-gradient-14)"/>
      </g>
      <g id="Group_95432" data-name="Group 95432" transform="translate(11.229 27.665)">
        <path id="Path_137558" data-name="Path 137558" d="M-3410.3-1846.049v6.462c0,2.088,13.043,3.781,29.133,3.781s29.133-1.693,29.133-3.781v-6.462Z" transform="translate(3410.322 1849.83)" fill="url(#linear-gradient-3)"/>
        <ellipse id="Ellipse_4235" data-name="Ellipse 4235" cx="29.133" cy="3.781" rx="29.133" ry="3.781" transform="translate(0.017)" fill="url(#linear-gradient-4)"/>
        <path id="Path_137559" data-name="Path 137559" d="M-3381.243-1843.44c-14.25,0-29.15-1.361-29.15-3.986,0-.144.052-.4.2-.4s.082.2.082.342c0,1.665,11.858,3.52,28.872,3.52s28.872-1.855,28.872-3.52c0-.144.025-.279.169-.279s.109.192.109.337C-3352.093-1844.8-3366.993-1843.44-3381.243-1843.44Z" transform="translate(3410.393 1851.262)" fill="url(#linear-gradient-5)"/>
        <g id="Group_95431" data-name="Group 95431" transform="translate(10.798 2.348)">
          <path id="Path_137560" data-name="Path 137560" d="M-3338.8-1851.833c.286-.2.59-.393.916-.586a5.749,5.749,0,0,1,1.251-.522,11.951,11.951,0,0,1,1.921-.38,24.281,24.281,0,0,1,2.876-.155q1.689-.008,3.171.107a21.635,21.635,0,0,1,2.608.345,8.09,8.09,0,0,1,1.83.568,1.449,1.449,0,0,1,.837.776l3.28.033a3.24,3.24,0,0,1,.629.058c.183.037.272.085.272.142v.27l-4.217-.041a2.126,2.126,0,0,1-1.131.908,11.464,11.464,0,0,1-2.312.714l-1.536-.214a1.784,1.784,0,0,1-.339-.08c-.089-.032-.132-.067-.132-.105s.119-.111.356-.178.506-.149.8-.248a8,8,0,0,0,.88-.348,1.193,1.193,0,0,0,.577-.479l-9.954-.1a9.465,9.465,0,0,1-.879.567,5.741,5.741,0,0,1-1.291.5,13.515,13.515,0,0,1-2,.362,28.324,28.324,0,0,1-3.02.148c-.912,0-1.8-.03-2.67-.1a18.27,18.27,0,0,1-2.318-.33,7.227,7.227,0,0,1-1.663-.544q-.647-.325-.724-.745l-2.7-.028a3.537,3.537,0,0,1-.638-.056c-.186-.036-.281-.084-.281-.144v-.27l3.693.035a1.983,1.983,0,0,1,1.009-.744,11.564,11.564,0,0,1,1.874-.564l1.237.17c.376.053.562.115.562.186,0,.038-.076.086-.231.142s-.341.125-.554.2a5.111,5.111,0,0,0-.615.277,1.3,1.3,0,0,0-.45.36Zm-9.11.368a.979.979,0,0,0,.49.458,3.908,3.908,0,0,0,.938.317,9.611,9.611,0,0,0,1.264.182q.705.058,1.474.054a15.289,15.289,0,0,0,1.565-.077,9.054,9.054,0,0,0,1.171-.2,5.474,5.474,0,0,0,.88-.291,4.911,4.911,0,0,0,.673-.359Zm21.669-.241a1.015,1.015,0,0,0-.536-.472,4.835,4.835,0,0,0-1.079-.341,11.958,11.958,0,0,0-1.53-.205q-.87-.067-1.923-.062a14.68,14.68,0,0,0-1.611.083,8.26,8.26,0,0,0-1.17.213,4.256,4.256,0,0,0-.841.311,5.913,5.913,0,0,0-.645.38Z" transform="translate(3354.402 1853.476)" fill="#fcb048"/>
        </g>
        <path id="Path_137561" data-name="Path 137561" d="M-3379.25-1863.531c-12.99,0-26.516,1.143-28.679,3.356a2.6,2.6,0,0,1,.237.249c1.823-1.536,12.992-3.083,28.443-3.083,15.847,0,27.194,1.628,28.569,3.2a2.709,2.709,0,0,1,.218-.247C-3352.25-1862.346-3366.029-1863.531-3379.25-1863.531Z" transform="translate(3408.404 1863.94)" fill="url(#linear-gradient-18)"/>
      </g>
      <g id="Group_95434" data-name="Group 95434" transform="translate(8.099 20.342)">
        <path id="Path_137562" data-name="Path 137562" d="M-3426.535-1884.02v6.462c0,2.088,13.043,3.781,29.133,3.781s29.133-1.693,29.133-3.781v-6.462Z" transform="translate(3426.552 1887.801)" fill="url(#linear-gradient-3)"/>
        <path id="Path_137563" data-name="Path 137563" d="M-3368.269-1899.843c0,2.088-13.043,3.781-29.133,3.781s-29.133-1.693-29.133-3.781,13.043-3.781,29.133-3.781S-3368.269-1901.931-3368.269-1899.843Z" transform="translate(3426.552 1903.624)" fill="url(#linear-gradient-4)"/>
        <path id="Path_137564" data-name="Path 137564" d="M-3397.473-1881.412c-14.25,0-29.15-1.361-29.15-3.986,0-.144.051-.4.2-.4s.082.2.082.342c0,1.665,11.857,3.52,28.872,3.52s28.872-1.855,28.872-3.52c0-.144.025-.279.169-.279s.109.192.109.336C-3368.323-1882.771-3383.224-1881.412-3397.473-1881.412Z" transform="translate(3426.623 1889.234)" fill="url(#linear-gradient-21)"/>
        <g id="Group_95433" data-name="Group 95433" transform="translate(10.798 2.348)">
          <path id="Path_137565" data-name="Path 137565" d="M-3355.033-1889.8c.286-.2.59-.393.916-.586a5.745,5.745,0,0,1,1.251-.522,11.93,11.93,0,0,1,1.92-.38,24.392,24.392,0,0,1,2.877-.155q1.688-.008,3.17.107a21.615,21.615,0,0,1,2.608.345,8.086,8.086,0,0,1,1.831.568,1.449,1.449,0,0,1,.836.776l3.28.033a3.231,3.231,0,0,1,.629.058c.184.038.272.085.272.142v.27l-4.217-.041a2.126,2.126,0,0,1-1.13.908,11.493,11.493,0,0,1-2.312.713l-1.536-.214a1.781,1.781,0,0,1-.339-.08c-.089-.032-.132-.067-.132-.106s.118-.111.356-.177.506-.149.8-.248a8.1,8.1,0,0,0,.88-.348,1.2,1.2,0,0,0,.578-.479l-9.954-.1a9.4,9.4,0,0,1-.879.567,5.724,5.724,0,0,1-1.291.5,13.55,13.55,0,0,1-2,.362,28.342,28.342,0,0,1-3.02.148c-.913,0-1.8-.03-2.67-.1a18.252,18.252,0,0,1-2.317-.33,7.205,7.205,0,0,1-1.663-.544q-.647-.324-.724-.745l-2.7-.028a3.528,3.528,0,0,1-.638-.056c-.187-.036-.281-.084-.282-.144v-.27l3.692.035a1.985,1.985,0,0,1,1.01-.744,11.56,11.56,0,0,1,1.874-.564l1.236.17c.376.053.563.114.563.185,0,.038-.076.086-.231.142s-.341.125-.555.2a5.069,5.069,0,0,0-.615.277,1.3,1.3,0,0,0-.45.36Zm-9.109.368a.976.976,0,0,0,.49.458,3.913,3.913,0,0,0,.938.317,9.6,9.6,0,0,0,1.265.182q.7.058,1.474.054a15.43,15.43,0,0,0,1.565-.077,9.1,9.1,0,0,0,1.171-.2,5.477,5.477,0,0,0,.88-.291,4.838,4.838,0,0,0,.672-.359Zm21.669-.242a1.016,1.016,0,0,0-.536-.472,4.84,4.84,0,0,0-1.079-.34,11.858,11.858,0,0,0-1.53-.205q-.869-.068-1.922-.062a14.817,14.817,0,0,0-1.61.084,8.344,8.344,0,0,0-1.171.212,4.294,4.294,0,0,0-.841.311,6.04,6.04,0,0,0-.645.38Z" transform="translate(3370.632 1891.448)" fill="#fcb048"/>
        </g>
        <path id="Path_137566" data-name="Path 137566" d="M-3395.48-1901.5c-12.99,0-26.515,1.143-28.679,3.356a2.631,2.631,0,0,1,.237.249c1.823-1.536,12.992-3.083,28.442-3.083,15.847,0,27.195,1.627,28.569,3.2a2.658,2.658,0,0,1,.218-.247C-3368.48-1900.317-3382.26-1901.5-3395.48-1901.5Z" transform="translate(3424.634 1901.911)" fill="url(#linear-gradient-22)"/>
      </g>
      <g id="Group_95436" data-name="Group 95436" transform="translate(0 13.555)">
        <path id="Path_137567" data-name="Path 137567" d="M-3468.53-1919.215v6.462c0,2.088,13.043,3.781,29.133,3.781s29.133-1.693,29.133-3.781v-6.462Z" transform="translate(3468.547 1922.996)" fill="url(#linear-gradient-3)"/>
        <ellipse id="Ellipse_4236" data-name="Ellipse 4236" cx="29.133" cy="3.781" rx="29.133" ry="3.781" transform="translate(0.017)" fill="url(#linear-gradient-4)"/>
        <path id="Path_137568" data-name="Path 137568" d="M-3439.468-1916.606c-14.25,0-29.15-1.361-29.15-3.986,0-.144.051-.4.2-.4s.082.2.082.342c0,1.665,11.857,3.52,28.872,3.52s28.872-1.855,28.872-3.52c0-.144.024-.279.169-.279s.109.192.109.337C-3410.318-1917.965-3425.219-1916.606-3439.468-1916.606Z" transform="translate(3468.618 1924.428)" fill="url(#linear-gradient-5)"/>
        <g id="Group_95435" data-name="Group 95435" transform="translate(10.798 2.348)">
          <path id="Path_137569" data-name="Path 137569" d="M-3397.029-1925c.286-.2.59-.393.916-.586a5.773,5.773,0,0,1,1.251-.522,11.968,11.968,0,0,1,1.92-.38,24.315,24.315,0,0,1,2.877-.155q1.689-.008,3.171.107a21.581,21.581,0,0,1,2.608.345,8.063,8.063,0,0,1,1.83.568,1.449,1.449,0,0,1,.837.776l3.28.033a3.219,3.219,0,0,1,.629.058c.183.037.272.084.272.142v.27l-4.217-.041a2.125,2.125,0,0,1-1.131.908,11.45,11.45,0,0,1-2.312.713l-1.536-.214a1.792,1.792,0,0,1-.339-.08c-.088-.032-.132-.067-.132-.105s.119-.111.356-.178.506-.15.8-.248a8.146,8.146,0,0,0,.88-.348,1.192,1.192,0,0,0,.577-.479l-9.954-.1a9.385,9.385,0,0,1-.879.567,5.714,5.714,0,0,1-1.291.5,13.5,13.5,0,0,1-2,.362,28.2,28.2,0,0,1-3.02.148c-.912,0-1.8-.03-2.67-.1a18.283,18.283,0,0,1-2.318-.33,7.221,7.221,0,0,1-1.663-.544q-.647-.324-.724-.746l-2.7-.027a3.532,3.532,0,0,1-.638-.056c-.186-.036-.281-.084-.282-.144v-.27l3.692.035a1.985,1.985,0,0,1,1.01-.744,11.53,11.53,0,0,1,1.874-.563l1.237.17c.375.053.562.114.563.185,0,.038-.076.086-.231.142s-.341.125-.554.2a5.093,5.093,0,0,0-.615.277,1.307,1.307,0,0,0-.45.36Zm-9.11.368a.98.98,0,0,0,.49.458,3.91,3.91,0,0,0,.938.317,9.629,9.629,0,0,0,1.264.182q.7.058,1.474.054a15.407,15.407,0,0,0,1.565-.077,9.105,9.105,0,0,0,1.171-.2,5.45,5.45,0,0,0,.88-.291,4.9,4.9,0,0,0,.673-.359Zm21.669-.241a1.014,1.014,0,0,0-.536-.472,4.836,4.836,0,0,0-1.079-.34,12.011,12.011,0,0,0-1.53-.205q-.87-.067-1.922-.062a14.773,14.773,0,0,0-1.611.083,8.323,8.323,0,0,0-1.171.213,4.284,4.284,0,0,0-.841.311,5.984,5.984,0,0,0-.645.38Z" transform="translate(3412.628 1926.642)" fill="#fcb048"/>
        </g>
        <path id="Path_137570" data-name="Path 137570" d="M-3437.475-1936.7c-12.99,0-26.516,1.143-28.679,3.356a2.631,2.631,0,0,1,.237.249c1.823-1.536,12.992-3.083,28.442-3.083,15.847,0,27.195,1.627,28.569,3.2a2.655,2.655,0,0,1,.218-.247C-3410.475-1935.512-3424.255-1936.7-3437.475-1936.7Z" transform="translate(3466.629 1937.106)" fill="url(#linear-gradient-26)"/>
      </g>
      <g id="Group_95438" data-name="Group 95438" transform="translate(6.988 6.787)">
        <path id="Path_137571" data-name="Path 137571" d="M-3432.294-1954.307v6.462c0,2.088,13.043,3.781,29.133,3.781s29.133-1.693,29.133-3.781v-6.462Z" transform="translate(3432.311 1958.088)" fill="url(#linear-gradient-3)"/>
        <ellipse id="Ellipse_4237" data-name="Ellipse 4237" cx="29.133" cy="3.781" rx="29.133" ry="3.781" transform="translate(0.017)" fill="url(#linear-gradient-4)"/>
        <path id="Path_137572" data-name="Path 137572" d="M-3403.232-1951.7c-14.25,0-29.15-1.361-29.15-3.986,0-.144.052-.4.2-.4s.082.2.082.342c0,1.665,11.857,3.52,28.872,3.52s28.872-1.855,28.872-3.52c0-.144.025-.279.169-.279s.109.192.109.337C-3374.082-1953.057-3388.983-1951.7-3403.232-1951.7Z" transform="translate(3432.382 1959.52)" fill="url(#linear-gradient-5)"/>
        <g id="Group_95437" data-name="Group 95437" transform="translate(10.798 2.348)">
          <path id="Path_137573" data-name="Path 137573" d="M-3360.792-1960.091c.286-.2.59-.393.916-.586a5.77,5.77,0,0,1,1.252-.522,12.014,12.014,0,0,1,1.92-.38,24.417,24.417,0,0,1,2.877-.155q1.689-.008,3.171.107a21.512,21.512,0,0,1,2.607.346,8.041,8.041,0,0,1,1.831.568,1.45,1.45,0,0,1,.837.776l3.28.033a3.235,3.235,0,0,1,.629.058c.183.038.272.085.272.142v.27l-4.217-.041a2.127,2.127,0,0,1-1.131.908,11.462,11.462,0,0,1-2.312.713l-1.536-.214a1.749,1.749,0,0,1-.339-.08c-.089-.032-.132-.067-.132-.105s.118-.111.356-.178.506-.149.8-.248a8.142,8.142,0,0,0,.88-.348,1.2,1.2,0,0,0,.577-.479l-9.954-.1a9.36,9.36,0,0,1-.879.567,5.7,5.7,0,0,1-1.291.5,13.514,13.514,0,0,1-2,.362,28.351,28.351,0,0,1-3.02.148c-.912,0-1.8-.03-2.67-.1a18.255,18.255,0,0,1-2.317-.331,7.208,7.208,0,0,1-1.663-.544c-.431-.216-.674-.465-.724-.746l-2.7-.028a3.519,3.519,0,0,1-.638-.056c-.186-.036-.281-.084-.281-.144v-.27l3.692.035a1.983,1.983,0,0,1,1.009-.744,11.542,11.542,0,0,1,1.874-.564l1.237.17c.375.053.562.114.562.186,0,.038-.076.085-.231.142s-.341.125-.554.2a5.094,5.094,0,0,0-.615.278,1.306,1.306,0,0,0-.45.36Zm-9.109.368a.978.978,0,0,0,.49.458,3.893,3.893,0,0,0,.938.317,9.562,9.562,0,0,0,1.264.182q.705.058,1.474.054a15.407,15.407,0,0,0,1.565-.077,9.107,9.107,0,0,0,1.171-.2,5.454,5.454,0,0,0,.88-.291,4.868,4.868,0,0,0,.672-.359Zm21.669-.242a1.013,1.013,0,0,0-.536-.472,4.8,4.8,0,0,0-1.079-.341,11.919,11.919,0,0,0-1.53-.205q-.87-.067-1.923-.062a14.729,14.729,0,0,0-1.611.083,8.357,8.357,0,0,0-1.171.212,4.273,4.273,0,0,0-.841.311,6,6,0,0,0-.645.38Z" transform="translate(3376.391 1961.734)" fill="#fcb048"/>
        </g>
        <path id="Path_137574" data-name="Path 137574" d="M-3401.239-1971.789c-12.99,0-26.516,1.143-28.679,3.356a2.631,2.631,0,0,1,.237.249c1.824-1.536,12.992-3.083,28.442-3.083,15.847,0,27.194,1.627,28.569,3.2a2.688,2.688,0,0,1,.218-.247C-3374.239-1970.6-3388.019-1971.789-3401.239-1971.789Z" transform="translate(3430.393 1972.198)" fill="url(#linear-gradient-30)"/>
      </g>
      <g id="Group_95440" data-name="Group 95440" transform="translate(3.353 0)">
        <path id="Path_137575" data-name="Path 137575" d="M-3451.142-1989.5v6.462c0,2.088,13.043,3.781,29.133,3.781s29.133-1.693,29.133-3.781v-6.462Z" transform="translate(3451.159 1993.283)" fill="url(#linear-gradient-3)"/>
        <ellipse id="Ellipse_4238" data-name="Ellipse 4238" cx="29.133" cy="3.781" rx="29.133" ry="3.781" transform="translate(0.017)" fill="url(#linear-gradient-4)"/>
        <path id="Path_137576" data-name="Path 137576" d="M-3422.08-1986.893c-14.249,0-29.15-1.361-29.15-3.986,0-.144.051-.4.2-.4s.082.2.082.342c0,1.665,11.857,3.52,28.872,3.52s28.873-1.855,28.873-3.52c0-.144.025-.279.169-.279s.109.192.109.336C-3392.93-1988.252-3407.831-1986.893-3422.08-1986.893Z" transform="translate(3451.23 1994.715)" fill="url(#linear-gradient-5)"/>
        <g id="Group_95439" data-name="Group 95439" transform="translate(10.798 2.348)">
          <path id="Path_137577" data-name="Path 137577" d="M-3379.64-1995.286c.286-.2.59-.393.916-.586a5.766,5.766,0,0,1,1.251-.522,11.971,11.971,0,0,1,1.921-.38,24.365,24.365,0,0,1,2.877-.155q1.689-.008,3.171.107a21.547,21.547,0,0,1,2.607.345,8.077,8.077,0,0,1,1.831.568,1.449,1.449,0,0,1,.837.776l3.28.033a3.239,3.239,0,0,1,.629.058c.183.037.272.084.272.142v.27l-4.217-.041a2.125,2.125,0,0,1-1.13.908,11.485,11.485,0,0,1-2.312.713l-1.536-.214a1.789,1.789,0,0,1-.339-.08c-.089-.032-.131-.067-.131-.105s.118-.111.356-.178.506-.149.8-.248a8.1,8.1,0,0,0,.88-.348,1.2,1.2,0,0,0,.578-.479l-9.954-.1a9.41,9.41,0,0,1-.879.567,5.73,5.73,0,0,1-1.291.5,13.565,13.565,0,0,1-2,.362,28.356,28.356,0,0,1-3.02.148c-.912,0-1.8-.03-2.671-.1a18.243,18.243,0,0,1-2.317-.33,7.215,7.215,0,0,1-1.663-.544c-.431-.216-.674-.464-.724-.745l-2.7-.028a3.519,3.519,0,0,1-.638-.056c-.186-.036-.281-.084-.281-.144l0-.27,3.692.035a1.984,1.984,0,0,1,1.01-.744,11.543,11.543,0,0,1,1.874-.564l1.236.17c.376.053.562.115.563.186,0,.038-.076.086-.231.142s-.341.124-.554.2a5.076,5.076,0,0,0-.615.277,1.305,1.305,0,0,0-.45.36Zm-9.11.368a.98.98,0,0,0,.491.458,3.9,3.9,0,0,0,.938.317,9.605,9.605,0,0,0,1.264.182q.705.058,1.474.054a15.364,15.364,0,0,0,1.565-.077,9.047,9.047,0,0,0,1.171-.2,5.446,5.446,0,0,0,.88-.291,4.889,4.889,0,0,0,.673-.359Zm21.669-.242a1.014,1.014,0,0,0-.536-.472,4.82,4.82,0,0,0-1.079-.341,11.94,11.94,0,0,0-1.529-.205q-.87-.067-1.923-.062a14.809,14.809,0,0,0-1.611.083,8.338,8.338,0,0,0-1.171.213,4.256,4.256,0,0,0-.841.311,5.975,5.975,0,0,0-.645.38Z" transform="translate(3395.239 1996.929)" fill="#fcb048"/>
        </g>
        <path id="Path_137578" data-name="Path 137578" d="M-3420.087-2006.984c-12.99,0-26.515,1.143-28.679,3.356a2.707,2.707,0,0,1,.237.249c1.823-1.536,12.992-3.083,28.442-3.083,15.847,0,27.195,1.627,28.569,3.2a2.676,2.676,0,0,1,.218-.247C-3393.087-2005.8-3406.867-2006.984-3420.087-2006.984Z" transform="translate(3449.241 2007.393)" fill="url(#linear-gradient-34)"/>
      </g>
      <g id="Group_95442" data-name="Group 95442" transform="translate(64.376 8.231)">
        <path id="Path_137579" data-name="Path 137579" d="M-3129.259-1965.881l-5.266,3.745c-1.7,1.21,4.479,12.82,13.805,25.931s18.266,22.759,19.967,21.549l5.266-3.745Z" transform="translate(3134.807 1965.986)" fill="url(#linear-gradient-35)"/>
        <path id="Path_137580" data-name="Path 137580" d="M-3073.448-1918.83c-1.7,1.21-10.641-8.437-19.967-21.548s-15.507-24.721-13.805-25.932,10.641,8.438,19.967,21.549S-3071.746-1920.04-3073.448-1918.83Z" transform="translate(3112.768 1966.415)" fill="url(#linear-gradient-36)"/>
        <path id="Path_137581" data-name="Path 137581" d="M-3094.219-1940.239c-8.26-11.612-15.787-24.543-13.648-26.064.117-.084.354-.189.437-.071s-.114.182-.231.265c-1.356.965,4,11.7,13.867,25.568s18.247,22.452,19.6,21.487c.117-.083.241-.142.325-.024s-.094.2-.211.284C-3076.215-1917.272-3085.959-1928.627-3094.219-1940.239Z" transform="translate(3113.36 1966.427)" fill="url(#linear-gradient-37)"/>
        <g id="Group_95441" data-name="Group 95441" transform="translate(11.505 8.922)">
          <path id="Path_137582" data-name="Path 137582" d="M-3065.987-1907.362q.491.177,1.008.407a5.755,5.755,0,0,1,1.15.717,11.98,11.98,0,0,1,1.423,1.345,24.425,24.425,0,0,1,1.794,2.254q.986,1.371,1.75,2.646a21.65,21.65,0,0,1,1.23,2.325,8.051,8.051,0,0,1,.6,1.821,1.447,1.447,0,0,1-.147,1.131l1.875,2.693a3.207,3.207,0,0,1,.317.546c.076.171.089.271.042.3l-.219.158-2.411-3.46a2.125,2.125,0,0,1-1.4-.4,11.441,11.441,0,0,1-1.922-1.471l-.716-1.375a1.8,1.8,0,0,1-.131-.323c-.025-.091-.021-.146.009-.169s.16.032.352.187.415.326.668.512a8.127,8.127,0,0,0,.794.515,1.194,1.194,0,0,0,.726.193l-5.689-8.168a9.333,9.333,0,0,1-.972-.388,5.724,5.724,0,0,1-1.158-.761,13.562,13.562,0,0,1-1.455-1.422,28.237,28.237,0,0,1-1.871-2.375q-.8-1.111-1.464-2.236a18.289,18.289,0,0,1-1.074-2.08,7.232,7.232,0,0,1-.521-1.67,1.164,1.164,0,0,1,.188-1.022l-1.542-2.217a3.546,3.546,0,0,1-.324-.552c-.079-.173-.094-.278-.046-.313l.219-.157,2.112,3.029a1.984,1.984,0,0,1,1.191.392,11.523,11.523,0,0,1,1.545,1.2l.579,1.106c.175.337.232.524.175.566-.031.022-.114-.012-.25-.106s-.3-.206-.487-.334a5.108,5.108,0,0,0-.583-.34,1.306,1.306,0,0,0-.555-.158Zm-5.58-7.21a.98.98,0,0,0-.089.665,3.934,3.934,0,0,0,.286.948,9.508,9.508,0,0,0,.584,1.135q.361.608.81,1.233a15.416,15.416,0,0,0,.97,1.23,9.1,9.1,0,0,0,.84.839,5.472,5.472,0,0,0,.747.549,4.888,4.888,0,0,0,.683.34Zm12.757,17.518a1.018,1.018,0,0,0,.074-.711,4.842,4.842,0,0,0-.348-1.076,11.788,11.788,0,0,0-.719-1.366q-.45-.748-1.063-1.6a14.823,14.823,0,0,0-1-1.264,8.34,8.34,0,0,0-.852-.831,4.284,4.284,0,0,0-.741-.5,6,6,0,0,0-.684-.305Z" transform="translate(3075.147 1920.164)" fill="#fcb048"/>
        </g>
        <path id="Path_137583" data-name="Path 137583" d="M-3085.516-1942.567c-7.529-10.585-16.3-20.944-19.357-21.425a2.6,2.6,0,0,1-.066.337c2.309.6,10.043,8.8,19,21.39,9.185,12.914,14.436,23.1,13.95,25.136a2.644,2.644,0,0,1,.327.034C-3070.833-1919.878-3077.853-1931.794-3085.516-1942.567Z" transform="translate(3110.7 1964.462)" fill="url(#linear-gradient-38)"/>
      </g>
    </g>
    <g id="Group_95446" data-name="Group 95446" transform="translate(-3661.456 -2692.226)">
      <path id="Path_137584" data-name="Path 137584" d="M-3283.653-2208.672c1.989-.581,4.647,3.071,6.857,6.107,3.306,4.542,7.168,9.849,6.128,16.221-1.024,6.27-6.4,11.152-7.93,10.453-1.31-.6,1.209-4.813-.721-10.453-1.557-4.551-4.137-4.552-5.867-9.014C-3287.333-2200.9-3286.1-2207.958-3283.653-2208.672Z" transform="translate(3345.866 2221.497)" fill="#17c878"/>
      <path id="Path_137585" data-name="Path 137585" d="M-3291.175-2058.677a59.5,59.5,0,0,1,20.932,9.3c2.135,1.531,3.122,2.485,3.655,3.876,3.034,7.929-12.556,19.917-14.217,21.173l-2.177-5.077c1.611-8.842,4.293-11.616,6.537-12.441.628-.231,1.682-.478,1.661-.775-.049-.7-5.97.3-11.629-1.772-5.643-2.065-11.312-7.289-10.3-10.743C-3296.528-2055.763-3295.754-2057.586-3291.175-2058.677Z" transform="translate(3354.372 2100.379)" fill="url(#linear-gradient-39)"/>
      <path id="Path_137586" data-name="Path 137586" d="M-3220-1758.167s-.954.34-.957,1.094a12.7,12.7,0,0,0,2.019,5.256c1.053,1.18,1.147-.58,1.082-1.715a20.5,20.5,0,0,0-.6-4.165C-3218.721-1758.188-3220-1758.167-3220-1758.167Z" transform="translate(3293.133 1857.824)" fill="url(#linear-gradient-40)"/>
      <path id="Path_137587" data-name="Path 137587" d="M-3278.1-2028.242c1.861-.037,6.222-.384,7.384,1.772.968,1.8-.729,4.525-1.772,6.2-2.837,4.559-5.591,5.025-7.531,7.827a9.877,9.877,0,0,0-1.647,4.762l-1.235-2.88c1.611-8.842,4.293-11.616,6.537-12.441.628-.231,1.681-.478,1.661-.775-.048-.7-5.97.3-11.629-1.772-5.144-1.882-10.292-6.386-10.4-9.785C-3288.587-2029.49-3282.456-2028.157-3278.1-2028.242Z" transform="translate(3354.292 2081.537)" fill="url(#linear-gradient-41)"/>
      <path id="Path_137588" data-name="Path 137588" d="M-3218.854-1774.782c.056,1.162.155,2.134.244,2.855a9.5,9.5,0,0,0,.625,2.8c.216.5.756,1.595,1.015,1.519s-.008-1.288-.212-4.658c-.03-.489-.12-2.046-.12-2.046h0Z" transform="translate(3291.433 1871.234)" fill="url(#linear-gradient-42)"/>
      <path id="Path_137589" data-name="Path 137589" d="M-3345.44-2056.857a46.04,46.04,0,0,1,11.961,10.337c2.63,3.225,6.63,8.132,8.078,15.447.772,3.9.392,7.4-.4,14.234a143.389,143.389,0,0,1-2.793,16.094l-1.362.547a29.181,29.181,0,0,1-3.376-10.29c-.933-7.4,1.834-9.748.506-14.994-1.151-4.544-4.485-7.331-11.152-12.9-5.479-4.579-10.53-7.3-12.4-13.007a4.348,4.348,0,0,1-.07-3.249C-3355.333-2056.99-3351.053-2057.809-3345.44-2056.857Z" transform="translate(3402.731 2099.224)" fill="url(#linear-gradient-43)"/>
      <path id="Path_137590" data-name="Path 137590" d="M-3542.623-2261.67c1.532-.33,4.051-.264,6.453-2.156.723-.57,3.285-2.587,2.974-5.473a5.79,5.79,0,0,0-2.978-4.069c-1.7-.938-3.4-.73-5.289-.472-2.444.334-3.256,1-4.955,1.46-4.2,1.133-5.623-1.231-9.854-1.032-5.407.255-5.875,4.248-10.424,4.348-5.107.111-6.086-4.887-11.128-5.734-7-1.175-17.588,6.359-17.375,15.045.123,5.017,3.858,10.766,8.63,12.492,2.781,1.006,5.782.687,6.639,2.5.61,1.287-.761,2.279-.632,4.521.167,2.891,2.656,4.92,3.058,5.247,3.731,3.041,12.1,1.505,17.809-2.8C-3549.394-2245.555-3550.953-2259.878-3542.623-2261.67Z" transform="translate(3595.202 2274.919)" fill="url(#linear-gradient-44)"/>
      <path id="Path_137591" data-name="Path 137591" d="M-3452.229-2215.011a109.649,109.649,0,0,1,11.918-.813c9.4-.127,10.742,1.064,11.086,1.946.642,1.644-.458,2.468.167,5.335.373,1.714.021,2.5.742,4.337.7,1.8.151,2.76-.47,6.969-.8,5.382-1.162,8.117.344,10.287,1.046,1.508,2.217,1.635,2.105,2.351-.238,1.526-5.513.684-12.191,3.613a49.867,49.867,0,0,0-5.206,2.769c-3.494,2.052-4.141,2.836-5.759,3.766-5.118,2.94-12.805,3.223-16.834-.332-1.5-1.325-2.6-3.274-2.1-3.987.671-.971,3.671,1.235,6.424-.111,1.824-.892,1.477-2.333,3.585-4.032,2.538-2.045,4.3-.974,6.029-2.3,2.694-2.076,1.468-7.044.712-15.376A139.167,139.167,0,0,1-3452.229-2215.011Z" transform="translate(3492.975 2227.228)" fill="#17c878"/>
      <path id="Path_137592" data-name="Path 137592" d="M-3346.2-2231.792c-1.281.8-3.353,1.834-3.582,2.116s6.276,1.4,10.323-.647c0,0,.627-.349-1.812-.837-.52-.1-.418-1.115-.349-2.161l-.488-.906S-3344.922-2232.587-3346.2-2231.792Z" transform="translate(3397.118 2242.073)" fill="url(#linear-gradient-42)"/>
      <path id="Path_137593" data-name="Path 137593" d="M-3315.4-2248.023a2.969,2.969,0,0,0,1.376,3.187c1.682.944,4.527-2.925,4-4.364a2.542,2.542,0,0,0-1.472-1.3,2.82,2.82,0,0,0-2.981,1.394c-.2-.434-.551-.661-.789-.59-.3.09-.346.639-.356.764A1.54,1.54,0,0,0-3315.4-2248.023Z" transform="translate(3369.545 2255.255)" fill="url(#linear-gradient-46)"/>
      <path id="Path_137594" data-name="Path 137594" d="M-3435.914-2163.516c-1.935.8-2.2,2.535-4.872,3.519-2.552.938-3.409-.238-5.955.541-3.823,1.17-5.285,4.859-5.864,4.511-.53-.319-.022-3.848,2.436-6.135,2.823-2.626,5.863-1.423,7.668-4.15a4.455,4.455,0,0,0,.632-4.06c-.831-1.768-3-1.155-4.15-2.616-2.065-2.626,2.768-7.364,1.443-11.368-.529-1.6-2.212-3.6-7.641-4.942.074,4.014.3,7.368.536,9.915.756,8.331,1.982,13.3-.712,15.375-1.727,1.331-3.491.259-6.029,2.3-2.108,1.7-1.762,3.141-3.585,4.032-2.753,1.345-5.753-.86-6.424.111-.492.713.6,2.662,2.1,3.987,4.029,3.555,11.717,3.272,16.834.332,1.618-.93,2.265-1.714,5.759-3.766a49.867,49.867,0,0,1,5.206-2.769c4.687-2.056,8.68-2.254,10.729-2.718C-3431.866-2164.122-3434.343-2164.167-3435.914-2163.516Z" transform="translate(3492.975 2204.936)" opacity="0.3" fill="url(#linear-gradient-47)" style="mix-blend-mode: multiply;isolation: isolate"/>
      <g id="Group_95444" data-name="Group 95444" transform="translate(51.173 33.03)">
        <path id="Path_137595" data-name="Path 137595" d="M-3307.19-2042.276l-21.253,1.034a.893.893,0,0,0-.714.42l-.588.944a.69.69,0,0,0,.612,1.055l22.512-.858Z" transform="translate(3329.851 2054.111)" fill="url(#linear-gradient-2)"/>
        <path id="Path_137596" data-name="Path 137596" d="M-3228-2103.647l-21.957.426a1.842,1.842,0,0,0-1.566.931l-7.6,13.378,23.189-.924a1.887,1.887,0,0,0,1.544-.917l7.044-11.769A.743.743,0,0,0-3228-2103.647Z" transform="translate(3272.762 2103.647)" fill="url(#linear-gradient-2)"/>
        <path id="Path_137597" data-name="Path 137597" d="M-3251.519-2100.547a1.843,1.843,0,0,1,1.566-.931l.481-.009a3.423,3.423,0,0,0,.723,1.88c1.354,1.635,3.6.626,5.28,2.356,1.842,1.9.141,4.161,1.787,5.93,1.733,1.861,4.536.346,7.758,1.537l-.464.775a1.886,1.886,0,0,1-1.544.917l-23.189.924Z" transform="translate(3272.762 2101.905)" opacity="0.3" fill="url(#linear-gradient-50)" style="mix-blend-mode: multiply;isolation: isolate"/>
      </g>
      <g id="Group_95445" data-name="Group 95445" transform="translate(30.085 12.083)">
        <path id="Path_137598" data-name="Path 137598" d="M-3414.077-2180.191l.83-2.191c-3.058-.838-7.286-2.077-11.623-3.626a3.328,3.328,0,0,1-1.751-1.258c-2.223-2.949,3.435-8.152,3.334-14.9-.07-4.679-2.907-10.032-5.407-10.093-5.081-.124-16.285,21.437-6.849,30.639C-3430.86-2177.055-3422.109-2176.525-3414.077-2180.191Z" transform="translate(3439.202 2212.262)" fill="#17c878"/>
      </g>
      <path id="Path_137599" data-name="Path 137599" d="M-3308.863-2059.182a5.375,5.375,0,0,1,4.365.1,5.733,5.733,0,0,1,1.656,1.187c.07.1.9,1.249.6,1.619-.243.3-1.185.051-2.316-.653a8.781,8.781,0,0,0-2.026-.05c-1.554.143-2.265.634-2.829.211a1.4,1.4,0,0,1-.405-1.453A1.73,1.73,0,0,1-3308.863-2059.182Z" transform="translate(3364.902 2101.146)" fill="url(#linear-gradient-42)"/>
    </g>
    <g id="Group_95463" data-name="Group 95463" transform="translate(-3511.875 -2653.58)">
      <path id="Path_137600" data-name="Path 137600" d="M-2804.247-2069.321l.168,57.026a5.8,5.8,0,0,0,5.1,5.63l41.69,4.268a5.055,5.055,0,0,0,5.838-4.9v-61.381a5.682,5.682,0,0,0-5.29-5.485c-.189-.018-.381-.024-.574-.025l-41.845-.2A5.035,5.035,0,0,0-2804.247-2069.321Z" transform="translate(2807.203 2074.415)" fill="#0a5936"/>
      <path id="Path_137601" data-name="Path 137601" d="M-2819.573-2069.474l.175,56.849a5.661,5.661,0,0,0,4.953,5.6l41.4,4.239a5.131,5.131,0,0,0,5.929-4.872l-.009-61.176a5.715,5.715,0,0,0-5.319-5.467c-.187-.018-.444-.025-.635-.026l-41.56-.2A4.912,4.912,0,0,0-2819.573-2069.474Z" transform="translate(2819.573 2074.526)" fill="#17c878"/>
      <g id="Group_95447" data-name="Group 95447" transform="translate(0 0)" opacity="0.3" style="mix-blend-mode: multiply;isolation: isolate">
        <path id="Path_137602" data-name="Path 137602" d="M-2819.574-2069.554l.044,14.288,52.412,1.722,0-15.378a5.657,5.657,0,0,0-5.111-5.4,7.235,7.235,0,0,0-.843-.007l-41.56-.2A4.845,4.845,0,0,0-2819.574-2069.554Z" transform="translate(2819.574 2074.526)" fill="url(#linear-gradient-52)"/>
        <path id="Path_137603" data-name="Path 137603" d="M-2819.416-2005.066l.018,5.937c5.085,1.609,14.444,2.909,25.182,3.323,4.743.183,9.328.177,13.471.005a88.459,88.459,0,0,0,13.755-1.488v-6.39c-1.346-.331-2.584-.638-4.052-.928-3.191-.63-7.033-1.161-11.232-1.552-3.751-.35-7.822-.587-12.021-.683-5.4-.125-10.42,0-14.732.313-.335.024-.67.05-1,.077-1.031.084-2.022.18-2.963.288q-.5.056-.982.117c-.738.093-1.373.194-2.045.3C-2817.3-2005.543-2818.445-2005.316-2819.416-2005.066Z" transform="translate(2819.447 2019.934)" fill="url(#linear-gradient-53)"/>
      </g>
      <path id="Path_137604" data-name="Path 137604" d="M-2806.386-2036.964a1.6,1.6,0,0,0,1.547,1.585l43.016,1.316a1.636,1.636,0,0,0,1.748-1.588l0-10.273a1.726,1.726,0,0,0-1.75-1.665l-43.046-.523a1.513,1.513,0,0,0-1.539,1.521Z" transform="translate(2808.952 2053.205)" fill="#fff"/>
      <path id="Path_137605" data-name="Path 137605" d="M-2801.312-2035.488a1.013,1.013,0,0,0,.979,1l42.8,1.261a1.034,1.034,0,0,0,1.1-1l0-10.226a1.09,1.09,0,0,0-1.105-1.051l-42.832-.545a.957.957,0,0,0-.974.962Z" transform="translate(2804.856 2051.543)" fill="#f1d54e"/>
      <g id="Group_95453" data-name="Group 95453" transform="translate(5.489 6.702)">
        <g id="Group_95450" data-name="Group 95450" transform="translate(0 1.153)">
          <g id="Group_95448" data-name="Group 95448">
            <path id="Path_137606" data-name="Path 137606" d="M-2770.538-2031.013a.459.459,0,0,0,.489.445h.022a.437.437,0,0,0,.487-.426l-.005-1.982a.482.482,0,0,0-.49-.473h-.022a.459.459,0,0,0-.487.457Z" transform="translate(2774.51 2033.516)" fill="url(#linear-gradient-54)"/>
            <path id="Path_137607" data-name="Path 137607" d="M-2791.108-2031.365a.461.461,0,0,0,.483.451h.022a.439.439,0,0,0,.481-.432l-.005-1.976a.483.483,0,0,0-.484-.476h-.022a.46.46,0,0,0-.481.46Z" transform="translate(2791.114 2033.798)" fill="url(#linear-gradient-55)"/>
          </g>
          <g id="Group_95449" data-name="Group 95449" transform="translate(0.012 4.12)">
            <path id="Path_137608" data-name="Path 137608" d="M-2770.481-2008.492a.541.541,0,0,0,.489.539h.022a.509.509,0,0,0,.487-.514l0-2.039a.536.536,0,0,0-.49-.534H-2770a.507.507,0,0,0-.487.511Z" transform="translate(2774.452 2011.308)" fill="url(#linear-gradient-56)"/>
            <path id="Path_137609" data-name="Path 137609" d="M-2791.046-2009.7c0,.265.217.349.483.559h.022a.526.526,0,0,0,.481-.534l-.005-2.129c0-.265-.218-.629-.484-.633h-.022c-.267,0-.482.346-.481.611Z" transform="translate(2791.052 2012.434)" fill="url(#linear-gradient-57)"/>
          </g>
        </g>
        <g id="Group_95452" data-name="Group 95452" transform="translate(0.97)">
          <path id="Path_137610" data-name="Path 137610" d="M-2786.084-2017.858a.509.509,0,0,0,.5.493l1.857.044c.269.006.334-.205.334-.472v-.022c0-.266-.062-.486-.331-.492l-1.942-.042a.416.416,0,0,0-.416.469Z" transform="translate(2786.084 2022.481)" opacity="0.3" fill="url(#linear-gradient-58)"/>
          <g id="Group_95451" data-name="Group 95451">
            <path id="Path_137611" data-name="Path 137611" d="M-2786.084-2039.281a.5.5,0,0,0,.492.49l1.86.032c.269,0,.337-.209.337-.475v-.022c0-.266-.067-.485-.336-.489l-1.94-.03a.418.418,0,0,0-.413.473Z" transform="translate(2786.084 2039.775)" fill="url(#linear-gradient-59)"/>
            <path id="Path_137612" data-name="Path 137612" d="M-2786.084-1995.427a.517.517,0,0,0,.5.5l1.966.056a.434.434,0,0,0,.444-.469v-.022a.458.458,0,0,0-.437-.494l-2-.055a.459.459,0,0,0-.475.466Z" transform="translate(2786.084 2004.374)" fill="url(#linear-gradient-60)"/>
          </g>
        </g>
      </g>
      <path id="Path_137613" data-name="Path 137613" d="M-2706.265-2008.321a11.6,11.6,0,0,0,.871,2.823c.149.323.319.661.5,1.006l23.136,2.368a5.131,5.131,0,0,0,5.929-4.872l-.009-61.263a5.7,5.7,0,0,0-5.112-5.445c-.069.02-.171.041-.241.062a14.089,14.089,0,0,0-8.181,5.74,13.282,13.282,0,0,0-1.773,7.814,22.385,22.385,0,0,0,.3,2.72q.144.837.29,1.709.183,1.089.36,2.224c.187,1.208.358,2.449.5,3.7.132,1.2.232,2.415.283,3.625.009.234.017.468.023.7.02.757.018,1.51-.01,2.256q-.027.767-.093,1.522a19.061,19.061,0,0,1-2.247,7.86,15.369,15.369,0,0,1-4.119,4.346c-.42.326-.845.646-1.268.965a33.956,33.956,0,0,0-4.057,3.5l-.09.094a19.638,19.638,0,0,0-1.663,1.986,14.6,14.6,0,0,0-1.443,2.472c-.154.332-.3.67-.428,1.012-.227.587-.422,1.191-.592,1.808q-.115.415-.223.841a.168.168,0,0,0-.009.033,29.068,29.068,0,0,0-.69,3.5A16.21,16.21,0,0,0-2706.265-2008.321Z" transform="translate(2728.288 2073.863)" fill="#fff" opacity="0.3" style="mix-blend-mode: soft-light;isolation: isolate"/>
      <g id="Group_95462" data-name="Group 95462" transform="translate(2.403 26.014)">
        <g id="Group_95457" data-name="Group 95457" transform="translate(0.391 0.017)" style="mix-blend-mode: multiply;isolation: isolate">
          <g id="Group_95454" data-name="Group 95454">
            <path id="Path_137614" data-name="Path 137614" d="M-2618.449-1927.8a1.191,1.191,0,0,0,1.151,1.146l7.763.383a1.078,1.078,0,0,0,1.178-1.046v-2.786a1.205,1.205,0,0,0-1.179-1.155l-7.765-.33a1.065,1.065,0,0,0-1.15,1.041Z" transform="translate(2654.445 1933.126)" fill="url(#linear-gradient-61)"/>
            <path id="Path_137615" data-name="Path 137615" d="M-2683.512-1930.639a1.16,1.16,0,0,0,1.112,1.125l7.495.369a1.048,1.048,0,0,0,1.137-1.029l0-2.737a1.173,1.173,0,0,0-1.139-1.134l-7.5-.318a1.036,1.036,0,0,0-1.11,1.024Z" transform="translate(2706.963 1935.364)" fill="url(#linear-gradient-62)"/>
            <path id="Path_137616" data-name="Path 137616" d="M-2744.266-1933.289a1.133,1.133,0,0,0,1.077,1.106l7.249.357a1.02,1.02,0,0,0,1.1-1.013l0-2.692a1.145,1.145,0,0,0-1.1-1.114l-7.25-.308a1.009,1.009,0,0,0-1.073,1.008Z" transform="translate(2756.001 1937.454)" fill="url(#linear-gradient-63)"/>
            <path id="Path_137617" data-name="Path 137617" d="M-2805.083-1935.941a1.1,1.1,0,0,0,1.042,1.087l7.006.345a.994.994,0,0,0,1.061-1l-.006-2.646a1.116,1.116,0,0,0-1.066-1.095l-7.008-.3a.982.982,0,0,0-1.036.992Z" transform="translate(2805.09 1939.546)" fill="url(#linear-gradient-64)"/>
          </g>
          <g id="Group_95455" data-name="Group 95455" transform="translate(0.025 8.401)">
            <path id="Path_137618" data-name="Path 137618" d="M-2618.408-1881.982a1.209,1.209,0,0,0,1.151,1.159l7.759.477a1.062,1.062,0,0,0,1.177-1.031v-2.783a1.223,1.223,0,0,0-1.179-1.168l-7.761-.424a1.049,1.049,0,0,0-1.149,1.026Z" transform="translate(2654.388 1887.727)" fill="url(#linear-gradient-65)"/>
            <path id="Path_137619" data-name="Path 137619" d="M-2683.44-1885.611a1.178,1.178,0,0,0,1.112,1.138l7.491.46a1.033,1.033,0,0,0,1.136-1.014l0-2.735a1.19,1.19,0,0,0-1.139-1.147l-7.493-.41a1.02,1.02,0,0,0-1.109,1.009Z" transform="translate(2706.879 1890.605)" fill="url(#linear-gradient-66)"/>
            <path id="Path_137620" data-name="Path 137620" d="M-2744.166-1889a1.149,1.149,0,0,0,1.077,1.118l7.245.445a1,1,0,0,0,1.1-1l0-2.689a1.161,1.161,0,0,0-1.1-1.127l-7.247-.4a.994.994,0,0,0-1.072.994Z" transform="translate(2755.896 1893.292)" fill="url(#linear-gradient-67)"/>
            <path id="Path_137621" data-name="Path 137621" d="M-2804.955-1892.393a1.121,1.121,0,0,0,1.042,1.1l7,.43a.978.978,0,0,0,1.06-.983l-.006-2.644a1.132,1.132,0,0,0-1.065-1.107l-7.005-.383a.968.968,0,0,0-1.036.978Z" transform="translate(2804.963 1895.982)" fill="url(#linear-gradient-68)"/>
          </g>
          <g id="Group_95456" data-name="Group 95456" transform="translate(0.048 16.599)">
            <path id="Path_137622" data-name="Path 137622" d="M-2618.369-1837.271a1.226,1.226,0,0,0,1.15,1.172l7.755.568a1.047,1.047,0,0,0,1.177-1.016v-2.781a1.24,1.24,0,0,0-1.178-1.181l-7.757-.516a1.034,1.034,0,0,0-1.148,1.011Z" transform="translate(2654.332 1843.428)" fill="url(#linear-gradient-69)"/>
            <path id="Path_137623" data-name="Path 137623" d="M-2683.37-1841.673a1.194,1.194,0,0,0,1.112,1.15l7.488.549a1.017,1.017,0,0,0,1.135-1l0-2.732a1.207,1.207,0,0,0-1.138-1.159l-7.49-.5a1,1,0,0,0-1.108,1Z" transform="translate(2706.799 1846.93)" fill="url(#linear-gradient-70)"/>
            <path id="Path_137624" data-name="Path 137624" d="M-2744.068-1845.783a1.166,1.166,0,0,0,1.076,1.13l7.242.531a.99.99,0,0,0,1.1-.985l0-2.687a1.177,1.177,0,0,0-1.1-1.139l-7.244-.482a.979.979,0,0,0-1.072.98Z" transform="translate(2755.793 1850.199)" fill="url(#linear-gradient-71)"/>
            <path id="Path_137625" data-name="Path 137625" d="M-2804.832-1849.9a1.137,1.137,0,0,0,1.041,1.11l7,.513a.964.964,0,0,0,1.06-.969l-.006-2.641A1.148,1.148,0,0,0-2796.8-1853l-7-.466a.954.954,0,0,0-1.035.965Z" transform="translate(2804.839 1853.472)" fill="url(#linear-gradient-72)"/>
          </g>
          <path id="Path_137626" data-name="Path 137626" d="M-2618.329-1793.669a1.243,1.243,0,0,0,1.15,1.184l7.751.658a1.032,1.032,0,0,0,1.177-1v-2.778a1.257,1.257,0,0,0-1.178-1.194l-7.754-.606a1.019,1.019,0,0,0-1.148,1Z" transform="translate(2654.348 1824.821)" fill="url(#linear-gradient-73)"/>
          <path id="Path_137627" data-name="Path 137627" d="M-2683.3-1798.823a1.211,1.211,0,0,0,1.111,1.162l7.484.635a1,1,0,0,0,1.135-.986l0-2.729a1.224,1.224,0,0,0-1.137-1.172l-7.486-.585a.991.991,0,0,0-1.108.981Z" transform="translate(2706.792 1828.93)" fill="url(#linear-gradient-74)"/>
          <path id="Path_137628" data-name="Path 137628" d="M-2743.973-1803.635a1.182,1.182,0,0,0,1.075,1.141l7.239.615a.977.977,0,0,0,1.1-.971l0-2.684a1.193,1.193,0,0,0-1.1-1.15l-7.241-.566a.965.965,0,0,0-1.071.967Z" transform="translate(2755.764 1832.766)" fill="url(#linear-gradient-75)"/>
          <path id="Path_137629" data-name="Path 137629" d="M-2618.287-1746.922a1.262,1.262,0,0,0,1.149,1.2l7.748.754a1.017,1.017,0,0,0,1.176-.986v-2.775a1.276,1.276,0,0,0-1.177-1.208l-7.75-.7a1,1,0,0,0-1.147.982Z" transform="translate(2654.314 1787.076)" fill="url(#linear-gradient-76)"/>
          <path id="Path_137630" data-name="Path 137630" d="M-2683.227-1752.881a1.229,1.229,0,0,0,1.11,1.174l7.481.728a.988.988,0,0,0,1.134-.97l0-2.727a1.242,1.242,0,0,0-1.137-1.184l-7.482-.677a.976.976,0,0,0-1.107.967Z" transform="translate(2706.732 1791.835)" fill="url(#linear-gradient-77)"/>
          <path id="Path_137631" data-name="Path 137631" d="M-2743.871-1758.446a1.2,1.2,0,0,0,1.075,1.153l7.236.7a.963.963,0,0,0,1.1-.956l-.005-2.682a1.211,1.211,0,0,0-1.1-1.163l-7.238-.655a.951.951,0,0,0-1.071.952Z" transform="translate(2755.682 1796.279)" fill="url(#linear-gradient-78)"/>
          <path id="Path_137632" data-name="Path 137632" d="M-2803.646-1811.991l7,.547a1.293,1.293,0,0,1,1.029,1.286l0,1.486,0,1.241.013,5.6,0,1.649,0,1.077a.982.982,0,0,1-1.023,1.038l-7-.681a1.3,1.3,0,0,1-1.075-1.228l0-1.063,0-1.627-.016-5.531,0-1.225,0-1.467A1.1,1.1,0,0,1-2803.646-1811.991Z" transform="translate(2804.788 1836.592)" fill="url(#linear-gradient-79)"/>
        </g>
        <g id="Group_95461" data-name="Group 95461">
          <g id="Group_95458" data-name="Group 95458">
            <path id="Path_137633" data-name="Path 137633" d="M-2620.693-1927.9a1.19,1.19,0,0,0,1.15,1.145l7.753.382a1.077,1.077,0,0,0,1.177-1.046v-2.785a1.2,1.2,0,0,0-1.178-1.154l-7.756-.33a1.064,1.064,0,0,0-1.148,1.041Z" transform="translate(2656.647 1933.22)" fill="#0a5936"/>
            <path id="Path_137634" data-name="Path 137634" d="M-2683.512-1930.639a1.16,1.16,0,0,0,1.112,1.125l7.495.369a1.048,1.048,0,0,0,1.137-1.029l0-2.737a1.173,1.173,0,0,0-1.139-1.134l-7.5-.318a1.036,1.036,0,0,0-1.11,1.024Z" transform="translate(2707.353 1935.38)" fill="#0a5936"/>
            <path id="Path_137635" data-name="Path 137635" d="M-2746.362-1933.38a1.132,1.132,0,0,0,1.076,1.105l7.24.357a1.019,1.019,0,0,0,1.1-1.012l0-2.69a1.144,1.144,0,0,0-1.1-1.114l-7.242-.307a1.008,1.008,0,0,0-1.071,1.007Z" transform="translate(2758.083 1937.542)" fill="#0a5936"/>
            <path id="Path_137636" data-name="Path 137636" d="M-2807.108-1936.03a1.1,1.1,0,0,0,1.041,1.086l7,.345a.993.993,0,0,0,1.06-1l-.007-2.645a1.115,1.115,0,0,0-1.065-1.094l-7-.3a.982.982,0,0,0-1.035.991Z" transform="translate(2807.116 1939.633)" fill="#0a5936"/>
          </g>
          <g id="Group_95459" data-name="Group 95459" transform="translate(0.025 8.397)">
            <path id="Path_137637" data-name="Path 137637" d="M-2620.65-1882.107a1.208,1.208,0,0,0,1.149,1.158l7.749.476a1.061,1.061,0,0,0,1.177-1.031v-2.782a1.222,1.222,0,0,0-1.177-1.168l-7.752-.424a1.048,1.048,0,0,0-1.148,1.025Z" transform="translate(2656.588 1887.848)" fill="#0a5936"/>
            <path id="Path_137638" data-name="Path 137638" d="M-2683.44-1885.611a1.178,1.178,0,0,0,1.112,1.138l7.491.46a1.033,1.033,0,0,0,1.136-1.014l0-2.735a1.19,1.19,0,0,0-1.139-1.147l-7.493-.41a1.02,1.02,0,0,0-1.109,1.009Z" transform="translate(2707.27 1890.626)" fill="#0a5936"/>
            <path id="Path_137639" data-name="Path 137639" d="M-2746.26-1889.117a1.148,1.148,0,0,0,1.075,1.117l7.237.445a1,1,0,0,0,1.1-1l0-2.688a1.16,1.16,0,0,0-1.1-1.126l-7.239-.4a.992.992,0,0,0-1.071.993Z" transform="translate(2757.977 1893.407)" fill="#0a5936"/>
            <path id="Path_137640" data-name="Path 137640" d="M-2806.981-1892.506a1.12,1.12,0,0,0,1.041,1.1l7,.43a.978.978,0,0,0,1.059-.982l-.007-2.643a1.131,1.131,0,0,0-1.064-1.106l-7-.382a.966.966,0,0,0-1.034.977Z" transform="translate(2806.988 1896.093)" fill="#0a5936"/>
          </g>
          <g id="Group_95460" data-name="Group 95460" transform="translate(0.049 16.59)">
            <path id="Path_137641" data-name="Path 137641" d="M-2620.609-1837.423a1.224,1.224,0,0,0,1.149,1.171l7.746.568a1.046,1.046,0,0,0,1.176-1.016v-2.779a1.239,1.239,0,0,0-1.177-1.181l-7.748-.516a1.033,1.033,0,0,0-1.147,1.011Z" transform="translate(2656.531 1843.575)" fill="#0a5936"/>
            <path id="Path_137642" data-name="Path 137642" d="M-2683.37-1841.673a1.194,1.194,0,0,0,1.112,1.15l7.488.549a1.017,1.017,0,0,0,1.135-1l0-2.732a1.207,1.207,0,0,0-1.138-1.159l-7.49-.5a1,1,0,0,0-1.108,1Z" transform="translate(2707.189 1846.956)" fill="#0a5936"/>
            <path id="Path_137643" data-name="Path 137643" d="M-2746.162-1845.925a1.164,1.164,0,0,0,1.075,1.129l7.234.53a.99.99,0,0,0,1.1-.984l0-2.685a1.177,1.177,0,0,0-1.1-1.138l-7.235-.481a.978.978,0,0,0-1.071.979Z" transform="translate(2757.873 1850.338)" fill="#0a5936"/>
            <path id="Path_137644" data-name="Path 137644" d="M-2806.856-1850.035a1.136,1.136,0,0,0,1.04,1.109l6.992.513a.964.964,0,0,0,1.059-.969l-.007-2.64a1.147,1.147,0,0,0-1.064-1.118l-6.994-.465a.953.953,0,0,0-1.034.965Z" transform="translate(2806.864 1853.607)" fill="#0a5936"/>
          </g>
          <path id="Path_137645" data-name="Path 137645" d="M-2620.568-1793.847a1.241,1.241,0,0,0,1.148,1.183l7.742.657a1.031,1.031,0,0,0,1.175-1v-2.776a1.256,1.256,0,0,0-1.177-1.193l-7.744-.605a1.018,1.018,0,0,0-1.147,1Z" transform="translate(2656.546 1824.98)" fill="#0a5936"/>
          <path id="Path_137646" data-name="Path 137646" d="M-2683.3-1798.823a1.211,1.211,0,0,0,1.111,1.162l7.484.635a1,1,0,0,0,1.135-.986l0-2.729a1.224,1.224,0,0,0-1.137-1.172l-7.486-.585a.991.991,0,0,0-1.108.981Z" transform="translate(2707.182 1828.947)" fill="#0a5936"/>
          <path id="Path_137647" data-name="Path 137647" d="M-2746.065-1803.8a1.181,1.181,0,0,0,1.074,1.141l7.23.614a.976.976,0,0,0,1.1-.97l0-2.683a1.193,1.193,0,0,0-1.1-1.15l-7.232-.565a.965.965,0,0,0-1.07.966Z" transform="translate(2757.844 1832.916)" fill="#0a5936"/>
          <path id="Path_137648" data-name="Path 137648" d="M-2620.525-1747.127a1.26,1.26,0,0,0,1.148,1.2l7.738.753a1.016,1.016,0,0,0,1.175-.985v-2.773a1.274,1.274,0,0,0-1.176-1.207l-7.74-.7a1,1,0,0,0-1.146.981Z" transform="translate(2656.512 1787.256)" fill="#0a5936"/>
          <path id="Path_137649" data-name="Path 137649" d="M-2683.227-1752.881a1.229,1.229,0,0,0,1.11,1.174l7.481.728a.988.988,0,0,0,1.134-.97l0-2.727a1.242,1.242,0,0,0-1.137-1.184l-7.482-.677a.976.976,0,0,0-1.107.967Z" transform="translate(2707.122 1791.852)" fill="#0a5936"/>
          <path id="Path_137650" data-name="Path 137650" d="M-2745.962-1758.637a1.2,1.2,0,0,0,1.074,1.153l7.227.7a.962.962,0,0,0,1.1-.956l0-2.68a1.211,1.211,0,0,0-1.1-1.162l-7.229-.654a.95.95,0,0,0-1.069.952Z" transform="translate(2757.76 1796.449)" fill="#0a5936"/>
          <path id="Path_137651" data-name="Path 137651" d="M-2805.685-1812.156l6.992.546a1.306,1.306,0,0,1,1.042,1.286l0,1.486,0,1.241.014,5.6,0,1.647,0,1.076a.991.991,0,0,1-1.036,1.036l-6.987-.68a1.284,1.284,0,0,1-1.061-1.226l0-1.062,0-1.626-.016-5.528,0-1.224,0-1.466A1.084,1.084,0,0,1-2805.685-1812.156Z" transform="translate(2806.811 1836.742)" fill="#0a5936"/>
        </g>
      </g>
    </g>
    <g id="Group_95465" data-name="Group 95465" transform="translate(-3651.227 -2783.266)">
      <path id="Path_137652" data-name="Path 137652" d="M-3480.507-2706.072c0,16.681-13.043,29.8-29.714,29.291-17.349-.533-31.941-15.517-31.941-33.447s14.592-30.947,31.941-29.141C-3493.551-2737.633-3480.507-2722.752-3480.507-2706.072Z" transform="translate(3542.162 2740.974)" fill="url(#linear-gradient-80)"/>
      <path id="Path_137653" data-name="Path 137653" d="M-3457.148-2713.529c0,16.681-13.043,29.8-29.714,29.291-17.349-.533-31.941-15.517-31.941-33.447s14.591-30.947,31.941-29.141C-3470.191-2745.091-3457.148-2730.21-3457.148-2713.529Z" transform="translate(3523.308 2746.994)" fill="url(#linear-gradient-81)"/>
      <path id="Path_137654" data-name="Path 137654" d="M-3452.15-2707.6c0,15.946-12.48,28.469-28.406,27.953-16.544-.535-30.434-14.835-30.434-31.92s13.89-29.511,30.434-27.816C-3464.63-2737.75-3452.15-2723.544-3452.15-2707.6Z" transform="translate(3517.001 2740.975)" fill="url(#linear-gradient-82)"/>
      <path id="Path_137655" data-name="Path 137655" d="M-3448.595-2703.363c0,15.42-12.076,27.516-27.469,27-15.969-.536-29.36-14.348-29.36-30.83s13.391-28.488,29.36-26.871C-3460.671-2732.506-3448.595-2718.783-3448.595-2703.363Z" transform="translate(3512.509 2736.676)" fill="url(#linear-gradient-83)"/>
      <g id="Group_95464" data-name="Group 95464" transform="translate(22.198 7.851)">
        <path id="Path_137656" data-name="Path 137656" d="M-3412.97-2706.28h0a1.679,1.679,0,0,1,1.482,1.647v2.839a41.847,41.847,0,0,1,4.92.854q1.816.427,3.609,1.016a1.66,1.66,0,0,1,1.131,1.7l-.349,3.56a1.335,1.335,0,0,1-1.905,1.107,20.634,20.634,0,0,0-2.421-.9,21.949,21.949,0,0,0-4.567-.853l-.418-.034v8.131c4.273,1.2,7.411,2.8,9.439,4.827a10.2,10.2,0,0,1,3.024,7.534,9.919,9.919,0,0,1-3.344,7.833q-3.366,2.966-9.459,3.331v3.134a1.425,1.425,0,0,1-1.483,1.448h-.026a1.575,1.575,0,0,1-1.489-1.571v-3.091l-.66-.03a43.4,43.4,0,0,1-5.48-.584,35.667,35.667,0,0,1-3.787-.871,1.632,1.632,0,0,1-1.188-1.687l.41-4.576a1.447,1.447,0,0,1,2.023-1.194,29.727,29.727,0,0,0,3.33,1.093,29.188,29.188,0,0,0,5.325.889l.026-9.044q-6.152-1.522-9.19-4.509a10.325,10.325,0,0,1-3.044-7.673,8.971,8.971,0,0,1,3.3-7.453c2.186-1.736,5.294-2.6,9.3-2.6v-2.9A1.34,1.34,0,0,1-3412.97-2706.28Zm-1.487,10.853a5.01,5.01,0,0,0-2.964,1.045,3.046,3.046,0,0,0-1.063,2.44,3.277,3.277,0,0,0,.983,2.426,6.972,6.972,0,0,0,3.043,1.552Zm2.629,16.377v8.294a4.589,4.589,0,0,0,3.172-.986,3.55,3.55,0,0,0,1.1-2.792,3.815,3.815,0,0,0-1.026-2.73A7.532,7.532,0,0,0-3411.828-2679.049Z" transform="translate(3427.06 2706.286)" fill="url(#linear-gradient-84)"/>
      </g>
      <path id="Path_137657" data-name="Path 137657" d="M-3481.034-2698.957c.928-9.166,9.352-13.046,8.253-21.478-.678-5.2-4.617-9.576-9.01-13-13.327,1.4-23.632,12.433-23.632,26.866,0,16.482,13.391,30.293,29.36,30.829a27.7,27.7,0,0,0,4.537-.221C-3477.868-2682.267-3481.832-2691.082-3481.034-2698.957Z" transform="translate(3512.509 2736.046)" opacity="0.3" fill="url(#linear-gradient-85)" style="mix-blend-mode: multiply;isolation: isolate"/>
    </g>
  </g>
</svg>
