<svg xmlns="http://www.w3.org/2000/svg" xmlns:xlink="http://www.w3.org/1999/xlink" width="505" height="350" viewBox="0 0 505 350">
  <defs>
    <linearGradient id="linear-gradient" x1="-1.159" y1="0.5" x2="-0.159" y2="0.5" gradientUnits="objectBoundingBox">
      <stop offset="0.188" stop-color="#ffd234"/>
      <stop offset="0.986" stop-color="#ffb000"/>
    </linearGradient>
    <clipPath id="clip-path">
      <path id="Path_137097" data-name="Path 137097" d="M1131.543-1446.206c1.279-5.412,6.047-44.319,17.261-51.453,12.776-8.129,21.39-1.974,25.454-15.438,6.351-21.045,27.112-37.217,49.24-14.5,21.84,22.42-17.975,93.059-43.3,104.115-20.8,15.82-33.938,15.287-40.425,44.87C1135.228-1357.893,1126.732-1425.859,1131.543-1446.206Z" transform="translate(-1130.113 1538.621)" fill="none"/>
    </clipPath>
    <clipPath id="clip-path-2">
      <path id="Path_137103" data-name="Path 137103" d="M1042.014-1147.8c9.679,11.621,20.55,24.807,36.235,11.62,13.057-10.979,21.232-18.934,40.451-14.693s38.548-3.351,39.939-22.942c1.464-20.616,27.317-37.834,17.8-57.252-16.591-33.834-51.766,4.191-67.113,27.117s-26.349,5.075-41.925-2.685C1046.13-1217.232,1034.193-1157.192,1042.014-1147.8Z" transform="translate(-1039.604 1244.501)" fill="none"/>
    </clipPath>
    <linearGradient id="linear-gradient-2" x1="0" y1="0.5" x2="1" y2="0.5" xlink:href="#linear-gradient"/>
    <clipPath id="clip-path-3">
      <path id="Path_137110" data-name="Path 137110" d="M261.683-921.245c-4.963,13.1-9.473,26.625-14.4,39.839-7.986.261-17.387.374-18.676-9.492-1.791-13.717-25.146-20.1-36.281-20.906-13.781-1-43.368-5.932-36.152-24.925,6.007-15.812,15.979-23.173-1.506-34.191s-23.982-25.3-14.757-41.814c9.708-17.382-6.587-42.353,11.164-52.9,30.931-18.372,50.954,34.492,47.606,62.744s12.45,22.87,30.417,29.328c24.528,8.817,2.221,30.777,10.844,42.3C246.7-922.227,252.438-923.541,261.683-921.245Z" transform="translate(-135.724 1069.423)" fill="none"/>
    </clipPath>
    <clipPath id="clip-path-4">
      <path id="Path_137119" data-name="Path 137119" d="M296.153-1219.59q14.559.407,29.2.156c.129.166,6.845-19.855-1.029-32.358-15.646-24.289.662-40.755,6.326-51.214,8.694-14.625,9-34.2-8.888-33.67-17.353.117-13.82-34.945-6.232-61.1,4.758-12.543-4.72-30.443-16.308-36.189-11.774-6.179-25.658-.206-34.019,24.993-11.04,28.938,7.645,50.842,13.1,67.282,5.374,16.142-15.25,24.813-2.633,40.5,10.5,13.811,24.847,24.932,16.5,38.495C283.694-1249.329,283.045-1237.3,296.153-1219.59Z" transform="translate(-261.772 1436.216)" fill="none"/>
    </clipPath>
    <linearGradient id="linear-gradient-3" x1="0.172" y1="1.012" x2="1.174" y2="-0.878" gradientUnits="objectBoundingBox">
      <stop offset="0.004" stop-color="#d2f6e6"/>
      <stop offset="1" stop-color="#17c878"/>
    </linearGradient>
    <linearGradient id="linear-gradient-4" x1="0.015" y1="0.5" x2="1.015" y2="0.5" gradientUnits="objectBoundingBox">
      <stop offset="0" stop-color="#444b8c"/>
      <stop offset="0.996" stop-color="#26264f"/>
    </linearGradient>
    <linearGradient id="linear-gradient-5" x1="2.116" y1="0.5" x2="3.116" y2="0.5" gradientUnits="objectBoundingBox">
      <stop offset="0" stop-color="#aa80f9"/>
      <stop offset="0.996" stop-color="#6165d7"/>
    </linearGradient>
    <linearGradient id="linear-gradient-6" x1="2.117" y1="0.5" x2="3.117" y2="0.5" xlink:href="#linear-gradient-5"/>
    <linearGradient id="linear-gradient-7" x1="143.616" y1="-0.475" x2="142.922" y2="5.033" gradientUnits="objectBoundingBox">
      <stop offset="0" stop-color="#311944"/>
      <stop offset="1" stop-color="#a03976"/>
    </linearGradient>
    <linearGradient id="linear-gradient-8" x1="153.182" y1="-0.475" x2="152.48" y2="5.033" xlink:href="#linear-gradient-7"/>
    <linearGradient id="linear-gradient-9" x1="143.621" y1="-0.475" x2="142.878" y2="5.031" xlink:href="#linear-gradient-7"/>
    <linearGradient id="linear-gradient-10" x1="153.215" y1="-0.475" x2="152.413" y2="5.031" xlink:href="#linear-gradient-7"/>
    <linearGradient id="linear-gradient-11" x1="146.911" y1="-282.008" x2="146.669" y2="-267.618" xlink:href="#linear-gradient-7"/>
    <linearGradient id="linear-gradient-12" x1="145.372" y1="-281.23" x2="145.13" y2="-266.668" xlink:href="#linear-gradient-7"/>
    <linearGradient id="linear-gradient-13" x1="137.104" y1="-283.047" x2="136.863" y2="-267.645" xlink:href="#linear-gradient-7"/>
    <linearGradient id="linear-gradient-14" x1="12.461" y1="-4.205" x2="4.255" y2="4.457" gradientUnits="objectBoundingBox">
      <stop offset="0" stop-color="#444b8c"/>
      <stop offset="0.996" stop-color="#3e4177"/>
    </linearGradient>
    <linearGradient id="linear-gradient-15" x1="14.374" y1="-3.128" x2="6.142" y2="5.421" xlink:href="#linear-gradient-14"/>
    <linearGradient id="linear-gradient-16" x1="16.272" y1="-2.079" x2="8.016" y2="6.364" xlink:href="#linear-gradient-14"/>
    <linearGradient id="linear-gradient-17" x1="18.358" y1="-1.056" x2="10.076" y2="7.281" xlink:href="#linear-gradient-14"/>
    <linearGradient id="linear-gradient-18" x1="12.882" y1="-4.558" x2="4.632" y2="4" xlink:href="#linear-gradient-14"/>
    <linearGradient id="linear-gradient-19" x1="14.791" y1="-3.489" x2="6.515" y2="4.959" xlink:href="#linear-gradient-14"/>
    <linearGradient id="linear-gradient-20" x1="16.685" y1="-2.449" x2="8.384" y2="5.897" xlink:href="#linear-gradient-14"/>
    <linearGradient id="linear-gradient-21" x1="18.767" y1="-1.433" x2="10.441" y2="6.811" xlink:href="#linear-gradient-14"/>
    <linearGradient id="linear-gradient-22" x1="13.307" y1="-4.904" x2="5.013" y2="3.555" xlink:href="#linear-gradient-14"/>
    <linearGradient id="linear-gradient-23" x1="15.211" y1="-3.844" x2="6.892" y2="4.51" xlink:href="#linear-gradient-14"/>
    <linearGradient id="linear-gradient-24" x1="17.101" y1="-2.811" x2="8.758" y2="5.443" xlink:href="#linear-gradient-14"/>
    <linearGradient id="linear-gradient-25" x1="19.179" y1="-1.802" x2="10.81" y2="6.353" xlink:href="#linear-gradient-14"/>
    <linearGradient id="linear-gradient-26" x1="13.735" y1="-5.245" x2="5.399" y2="3.121" xlink:href="#linear-gradient-14"/>
    <linearGradient id="linear-gradient-27" x1="15.635" y1="-4.192" x2="7.275" y2="4.071" xlink:href="#linear-gradient-14"/>
    <linearGradient id="linear-gradient-28" x1="17.522" y1="-3.167" x2="9.136" y2="5" xlink:href="#linear-gradient-14"/>
    <linearGradient id="linear-gradient-29" x1="14.17" y1="-5.573" x2="5.789" y2="2.695" xlink:href="#linear-gradient-14"/>
    <linearGradient id="linear-gradient-30" x1="16.066" y1="-4.529" x2="7.66" y2="3.64" xlink:href="#linear-gradient-14"/>
    <linearGradient id="linear-gradient-31" x1="17.947" y1="-3.512" x2="9.517" y2="4.564" xlink:href="#linear-gradient-14"/>
    <linearGradient id="linear-gradient-32" x1="19.736" y1="-0.581" x2="11.375" y2="2.465" xlink:href="#linear-gradient-14"/>
    <linearGradient id="linear-gradient-33" x1="5.954" y1="0.554" x2="5.371" y2="0.738" gradientUnits="objectBoundingBox">
      <stop offset="0" stop-color="#fcb148"/>
      <stop offset="0.052" stop-color="#fdb946"/>
      <stop offset="0.142" stop-color="#fec144"/>
      <stop offset="0.318" stop-color="#ffc444"/>
      <stop offset="0.485" stop-color="#fdb946"/>
      <stop offset="0.775" stop-color="#f99c4c"/>
      <stop offset="0.866" stop-color="#f8924f"/>
      <stop offset="1" stop-color="#f8924f"/>
    </linearGradient>
    <linearGradient id="linear-gradient-34" x1="6.353" y1="0.007" x2="5.832" y2="1.135" gradientUnits="objectBoundingBox">
      <stop offset="0" stop-color="#ffdb44"/>
      <stop offset="1" stop-color="#feef06"/>
    </linearGradient>
    <linearGradient id="linear-gradient-35" x1="6.531" y1="1.231" x2="6.426" y2="0.666" xlink:href="#linear-gradient-33"/>
    <linearGradient id="linear-gradient-36" x1="6.512" y1="0.31" x2="6.961" y2="1.247" xlink:href="#linear-gradient-33"/>
    <linearGradient id="linear-gradient-37" x1="12.625" y1="0.019" x2="13.083" y2="1.039" xlink:href="#linear-gradient-34"/>
    <linearGradient id="linear-gradient-38" x1="10.696" y1="0.369" x2="11.447" y2="1.306" xlink:href="#linear-gradient-33"/>
    <linearGradient id="linear-gradient-39" x1="30.353" y1="-2.297" x2="30.533" y2="2.74" xlink:href="#linear-gradient-7"/>
    <linearGradient id="linear-gradient-40" x1="112.101" y1="1.273" x2="111.979" y2="-4.944" gradientUnits="objectBoundingBox">
      <stop offset="0" stop-color="#ffc444"/>
      <stop offset="0.996" stop-color="#f36f56"/>
    </linearGradient>
    <linearGradient id="linear-gradient-41" x1="47.811" y1="-1.412" x2="48.096" y2="1.539" xlink:href="#linear-gradient-7"/>
    <linearGradient id="linear-gradient-42" x1="79.511" y1="1.452" x2="79.425" y2="-2.931" xlink:href="#linear-gradient-40"/>
    <linearGradient id="linear-gradient-43" x1="17.121" y1="0.507" x2="18.123" y2="0.507" xlink:href="#linear-gradient-14"/>
    <linearGradient id="linear-gradient-44" x1="18.285" y1="0.507" x2="19.359" y2="0.507" xlink:href="#linear-gradient-14"/>
    <linearGradient id="linear-gradient-45" x1="8.461" y1="0.507" x2="9.457" y2="0.507" xlink:href="#linear-gradient-14"/>
    <linearGradient id="linear-gradient-46" x1="-1.45" y1="2.459" x2="-1.45" y2="0.316" xlink:href="#linear-gradient"/>
    <linearGradient id="linear-gradient-47" x1="12.296" y1="1.099" x2="12.04" y2="4.328" xlink:href="#linear-gradient-40"/>
    <linearGradient id="linear-gradient-48" x1="56.608" y1="14.52" x2="55.858" y2="12.845" xlink:href="#linear-gradient-14"/>
    <linearGradient id="linear-gradient-49" x1="29.706" y1="-0.008" x2="30.204" y2="4.489" xlink:href="#linear-gradient-40"/>
    <linearGradient id="linear-gradient-50" x1="-4.28" y1="0.5" x2="-3.28" y2="0.5" xlink:href="#linear-gradient-40"/>
    <linearGradient id="linear-gradient-51" x1="-5.303" y1="2.953" x2="-5.303" y2="0.326" xlink:href="#linear-gradient"/>
    <linearGradient id="linear-gradient-52" x1="2.968" y1="0.5" x2="3.968" y2="0.5" xlink:href="#linear-gradient-40"/>
    <linearGradient id="linear-gradient-53" x1="-1.98" y1="0.5" x2="-0.98" y2="0.5" xlink:href="#linear-gradient-4"/>
    <linearGradient id="linear-gradient-54" x1="-0.312" y1="0.657" x2="0.688" y2="0.657" xlink:href="#linear-gradient-4"/>
    <linearGradient id="linear-gradient-55" x1="-15.731" y1="2.845" x2="-16.234" y2="2.302" xlink:href="#linear-gradient-4"/>
    <linearGradient id="linear-gradient-56" x1="-17.49" y1="2.145" x2="-16.766" y2="2.913" xlink:href="#linear-gradient-4"/>
    <linearGradient id="linear-gradient-57" x1="-26.806" y1="-0.904" x2="-24.78" y2="8.313" xlink:href="#linear-gradient-40"/>
    <linearGradient id="linear-gradient-58" x1="-141.905" y1="132.797" x2="-145.21" y2="140.978" xlink:href="#linear-gradient-40"/>
    <linearGradient id="linear-gradient-59" x1="4.723" y1="0.554" x2="4.139" y2="0.738" xlink:href="#linear-gradient-33"/>
    <linearGradient id="linear-gradient-60" x1="5.121" y1="0.007" x2="4.601" y2="1.135" xlink:href="#linear-gradient-34"/>
    <linearGradient id="linear-gradient-61" x1="5.24" y1="1.231" x2="5.135" y2="0.666" xlink:href="#linear-gradient-33"/>
    <linearGradient id="linear-gradient-62" x1="5.176" y1="0.31" x2="5.625" y2="1.247" xlink:href="#linear-gradient-33"/>
    <linearGradient id="linear-gradient-63" x1="9.916" y1="0.019" x2="10.374" y2="1.039" xlink:href="#linear-gradient-34"/>
    <linearGradient id="linear-gradient-64" x1="8.456" y1="0.369" x2="9.207" y2="1.306" xlink:href="#linear-gradient-33"/>
  </defs>
  <g id="t3-i1" transform="translate(-915 -404)">
    <rect id="Rectangle_5141" data-name="Rectangle 5141" width="505" height="350" transform="translate(915 404)" fill="none"/>
    <g id="Group_95054" data-name="Group 95054" transform="translate(867.941 1942.675)">
      <path id="Path_137091" data-name="Path 137091" d="M513.041-1534.288c55.186.722,140.57,16.251,165.146,56.159,8.584,13.939,8,34.43,6.84,75.412a322.672,322.672,0,0,1-4.886,51.387c-8.263,45.253-13.889,76.059-35.179,94-53.347,44.947-246.049,43.649-328.338-37.271-44.889-44.142-51.795-106.936-10.749-158.832C351.066-1510.572,439.16-1535.254,513.041-1534.288Z" transform="translate(-166.968 -3.289)" fill="#f2fff9"/>
      <g id="Group_95015" data-name="Group 95015" transform="translate(362.049 -1522.798)">
        <g id="Group_95014" data-name="Group 95014" transform="translate(0 0)">
          <g id="Group_95013" data-name="Group 95013">
            <g id="Group_95008" data-name="Group 95008">
              <path id="Path_137092" data-name="Path 137092" d="M999.393-1380.043c-.843,4.87-.988,8.967-1.589,13.763-17.657-11.032-36.7-18.429-54.622-29.581,23.145-14.311,39.329-17.313,46.7-47.993,3.459-14.4,6.057-43.786,17.773-53.272,13.349-10.807,21.393-1.827,25.542-15.764,6.484-21.784,27.143-37.293,49.272-14.7,21.841,22.3-17.876,92.922-43.373,104.2C1019.321-1409.436,1003.792-1405.47,999.393-1380.043Z" transform="translate(-943.181 1538.675)" fill="url(#linear-gradient)"/>
              <g id="Group_95007" data-name="Group 95007" transform="translate(45.915 0.013)">
                <g id="Group_95006" data-name="Group 95006" clip-path="url(#clip-path)">
                  <g id="Group_95005" data-name="Group 95005" transform="translate(-18.676 -8.269)">
                    <path id="Path_137093" data-name="Path 137093" d="M1054.364-1409.107c4.962-5.864,10.445-11.409,15.747-16.771l2.008-2.032c4.257-4.315,7.987-8.251,11.278-11.723,1.851-1.953,3.6-3.8,5.31-5.573,5.225-5.424,8.893-9.21,10.719-11.094l1.208-1.248c14.327-14.88,28.325-40.375,35.844-54.072.815-1.485,1.544-2.812,2.176-3.948a316.217,316.217,0,0,1,40.525-56.469l-.28-.251a316.6,316.6,0,0,0-40.573,56.538c-.633,1.137-1.362,2.464-2.177,3.95-7.511,13.681-21.493,39.148-35.786,53.992l-1.207,1.247c-1.826,1.884-5.494,5.671-10.719,11.094-1.711,1.776-3.46,3.621-5.312,5.575-3.29,3.471-7.019,7.406-11.273,11.718l-2.007,2.031c-5.307,5.367-10.8,10.917-15.766,16.792Z" transform="translate(-1054.077 1572.288)" fill="#fcfdfe"/>
                    <path id="Path_137094" data-name="Path 137094" d="M1163.128-1312.394c9-10.283,15.427-25.988,18.59-45.417a171.943,171.943,0,0,0,.588-50.083l-.372.053a171.562,171.562,0,0,1-.587,49.969c-3.151,19.36-9.549,35-18.5,45.23Z" transform="translate(-1136.129 1448.273)" fill="#fcfdfe"/>
                    <path id="Path_137095" data-name="Path 137095" d="M1383.6-1497.01c2.925-11.449,4.42-23.336,5.865-34.832.989-7.869,2.012-16.005,3.486-23.936l-.37-.069c-1.475,7.942-2.5,16.084-3.489,23.958-1.444,11.484-2.937,23.359-5.856,34.785Z" transform="translate(-1302.384 1559.885)" fill="#fcfdfe"/>
                    <path id="Path_137096" data-name="Path 137096" d="M1303.754-1236.344c12.823-10.288,34.66-18.245,46.728-17.035l.038-.374c-12.15-1.225-34.114,6.776-47,17.116Z" transform="translate(-1242.25 1332.086)" fill="#fcfdfe"/>
                  </g>
                </g>
              </g>
            </g>
            <g id="Group_95012" data-name="Group 95012" transform="translate(23.684 72.183)">
              <path id="Path_137098" data-name="Path 137098" d="M1137.435-1204.547c-14.455,20.83-25.513,10.245-40.221-2.651-6.317,22.753-13.307,44.676-20.476,66.9,9.972,8.485,17.272,14.377,29.366,4.061,13.678-11.667,21.184-18.854,40.569-14.825s38.526-3.247,39.971-22.989c1.52-20.774,27.281-37.568,17.81-57.255C1187.952-1265.61,1152.487-1226.237,1137.435-1204.547Z" transform="translate(-1067.616 1244.799)" fill="#bbf0d7"/>
              <g id="Group_95011" data-name="Group 95011" transform="translate(0 0.073)">
                <g id="Group_95010" data-name="Group 95010" clip-path="url(#clip-path-2)">
                  <g id="Group_95009" data-name="Group 95009" transform="translate(18.121 -13.441)">
                    <path id="Path_137099" data-name="Path 137099" d="M1130.977-1157.039c21.353-.974,39.118-2.38,57.13-10.686,17.239-7.949,28.949-19.465,39.157-38.506,5.292-9.87,10.2-16.345,17.084-25.1l-.3-.233c-6.9,8.768-11.814,15.256-17.12,25.152-10.166,18.963-21.825,30.43-38.983,38.342-17.951,8.277-35.679,9.679-56.99,10.651Z" transform="translate(-1126.642 1248.18)" fill="#98d8c9"/>
                    <path id="Path_137100" data-name="Path 137100" d="M1127.9-853.437l.361-.1a67.926,67.926,0,0,0-8.11-18.227,43.872,43.872,0,0,0-6.508-7.67l-.264.268a43.521,43.521,0,0,1,6.456,7.6A67.56,67.56,0,0,1,1127.9-853.437Z" transform="translate(-1113.379 982.546)" fill="#98d8c9"/>
                    <path id="Path_137101" data-name="Path 137101" d="M1366.3-939.429l.218-.305c-15.247-10.9-32.574-16.476-48.791-15.706l.018.376C1333.874-955.833,1351.119-950.278,1366.3-939.429Z" transform="translate(-1267.533 1039.935)" fill="#98d8c9"/>
                    <path id="Path_137102" data-name="Path 137102" d="M1468.825-1237.906c.954-1.65,4.895-17.152,8.265-31.11,3.384-14.015,6.844-29.146,6.774-30.208l-.375.024c.059.9-2.975,14.406-6.764,30.1-3.365,13.932-7.292,29.395-8.225,31.01Z" transform="translate(-1381.274 1299.223)" fill="#98d8c9"/>
                  </g>
                </g>
              </g>
            </g>
          </g>
        </g>
      </g>
      <g id="Group_95020" data-name="Group 95020" transform="matrix(0.891, -0.454, 0.454, 0.891, 75.059, -1445.742)">
        <g id="Group_95019" data-name="Group 95019" transform="translate(0 0)">
          <path id="Path_137104" data-name="Path 137104" d="M232.193-887.439a16.792,16.792,0,0,0,7.188-3.328c5.879-6.779,17.711-18.757,17.61-28.242-.017-1.62-7.164-3.468-8.1-5-4.271-2.284-5.894-2.812-8.887-6.978-8.837-12.3,13.693-33.506-10.895-42.529-18.011-6.609-33.76-1.055-30.423-29.348s-16.678-81.111-47.61-62.755c-17.752,10.535-1.453,35.519-11.164,52.9-9.228,16.515-2.727,30.792,14.758,41.814s7.506,18.366,1.506,34.194c-7.207,19.013,22.341,23.869,36.174,24.948C203.484-910.9,231.263-901.17,232.193-887.439Z" transform="translate(-135.718 1069.411)" fill="url(#linear-gradient-2)"/>
          <g id="Group_95018" data-name="Group 95018" transform="translate(0.001)">
            <g id="Group_95017" data-name="Group 95017" clip-path="url(#clip-path-3)">
              <g id="Group_95016" data-name="Group 95016" transform="translate(-3.789 -4.461)">
                <path id="Path_137105" data-name="Path 137105" d="M319-917.793l.212-.387a165.709,165.709,0,0,1-68.433-71.41c-14.628-29.11-21.605-62.989-20.178-97.975l-.441-.018c-1.43,35.06,5.563,69.014,20.225,98.191A166.146,166.146,0,0,0,319-917.793Z" transform="translate(-203.034 1087.583)" fill="#fff"/>
                <path id="Path_137106" data-name="Path 137106" d="M267.345-506.036l.147-.416c-18.1-6.4-47.192-7.648-64.861-2.781l.117.426C220.343-513.655,249.321-512.412,267.345-506.036Z" transform="translate(-182.408 653.529)" fill="#fff"/>
                <path id="Path_137107" data-name="Path 137107" d="M515.755-619.442l.311-.313c-7.047-7.006-10.281-17.305-9.613-30.612.49-9.757,3.028-20.875,7.543-33.044l-.413-.153c-4.531,12.211-7.078,23.373-7.571,33.175C505.338-636.952,508.616-626.54,515.755-619.442Z" transform="translate(-411.207 782.8)" fill="#fff"/>
                <path id="Path_137108" data-name="Path 137108" d="M165.725-766.373l.326-.3c-12.606-13.892-31.816-18.372-45.711-19.684l-.042.439C134.117-784.609,153.214-780.159,165.725-766.373Z" transform="translate(-120.299 860.342)" fill="#fff"/>
                <path id="Path_137109" data-name="Path 137109" d="M248.72-1018.552l.441-.011c-.219-9.067,2.127-27.349,20.3-47.917l-.33-.292C250.858-1046.091,248.5-1027.684,248.72-1018.552Z" transform="translate(-217.167 1071.884)" fill="#fff"/>
              </g>
            </g>
          </g>
        </g>
      </g>
      <g id="Group_95024" data-name="Group 95024" transform="translate(150.718 -1533.302)">
        <g id="Group_95023" data-name="Group 95023">
          <g id="Group_95022" data-name="Group 95022" clip-path="url(#clip-path-4)">
            <path id="Path_137111" data-name="Path 137111" d="M296.153-1219.59q14.559.407,29.2.156c.129.166,6.845-19.855-1.029-32.358-15.646-24.289.662-40.755,6.326-51.214,8.632-14.624,8.519-32.122-7.373-35.173-17.565-3.73-15.628-33.548-7.748-59.6,4.758-12.543-4.72-30.443-16.308-36.189-11.774-6.179-25.658-.206-34.019,24.993-11.04,28.938,7.645,50.842,13.1,67.282,5.374,16.142-15.25,24.813-2.633,40.5,10.5,13.811,24.847,24.932,16.5,38.495C283.694-1249.329,283.045-1237.3,296.153-1219.59Z" transform="translate(-261.772 1436.216)" fill="#bbf0d7"/>
            <g id="Group_95021" data-name="Group 95021" transform="translate(1.316 -4.521)">
              <path id="Path_137112" data-name="Path 137112" d="M395.908-1229.965c.035-.182-1.4-45.042-9.593-89.9-.954-7.2-2.085-14.483-3.178-21.531-2.927-18.871-5.955-38.385-5.707-57.241.277-21.074,4.7-39.321,13.536-55.781l-.389-.208c-8.866,16.525-13.311,34.837-13.589,55.984-.248,18.892,2.782,38.425,5.712,57.314,1.093,7.046,2.223,14.331,3.179,21.532,8.194,44.872,9.613,89.5,9.593,89.76Z" transform="translate(-349.994 1454.624)" fill="#98d8c9"/>
              <path id="Path_137113" data-name="Path 137113" d="M294.96-1298.492l.374-.234c-8.487-13.571-18.286-32.462-23.551-42.61-4.242-8.178-4.275-8.179-4.525-8.183l-.009.441,0-.22-.126.175c.25.253,2.021,3.668,4.264,7.991C276.659-1330.979,286.464-1312.078,294.96-1298.492Z" transform="translate(-267.128 1375.335)" fill="#98d8c9"/>
              <path id="Path_137114" data-name="Path 137114" d="M377.868-1307.871c4.536-13.029,11.607-20.884,16.739-25.18,5.61-4.695,10.385-6.4,10.885-6.4h.007l.006-.163.2-.206c-.1-.1-.255-.084-.5-.025-3.843.925-19.813,9.038-27.749,31.833Z" transform="translate(-350.354 1368.075)" fill="#98d8c9"/>
              <path id="Path_137115" data-name="Path 137115" d="M431.739-965.817c.708-12.753,5.981-25.679,15.672-38.418A118.031,118.031,0,0,1,465.442-1023c.5-.421.678-.571.74-.644l-.337-.284c-.045.052-.342.3-.686.59a118.455,118.455,0,0,0-18.1,18.835c-9.746,12.811-15.049,25.818-15.762,38.661Z" transform="translate(-390.975 1129.716)" fill="#98d8c9"/>
              <path id="Path_137116" data-name="Path 137116" d="M306.937-943.93a51.85,51.85,0,0,0-13.037-5.3l.02-.216-.1.192-.111-.24.2-.175h0c.29,0,23.941,5.483,32.058,25.787l-.409.164C321.417-934.06,313.147-940.418,306.937-943.93Zm-13.016-5.518.105-.193Z" transform="translate(-287.176 1073.698)" fill="#98d8c9"/>
              <path id="Path_137117" data-name="Path 137117" d="M451.342-651.96c.756-5.471,4.329-14.4,17.059-25.85.7-.629.7-.629.7-.751l-.221-.007-.183-.119c-.041.05-.3.281-.594.548-12.829,11.542-16.435,20.574-17.2,26.118Z" transform="translate(-405.765 869.274)" fill="#98d8c9"/>
              <path id="Path_137118" data-name="Path 137118" d="M384.564-689.207l.439-.047c-.473-4.353-3.77-13.3-20.542-24.3-.232-.151-.38-.249-.433-.289l-.267.352c.055.042.212.146.457.306C380.84-702.284,384.1-693.483,384.564-689.207Z" transform="translate(-340.026 895.797)" fill="#98d8c9"/>
            </g>
          </g>
        </g>
      </g>
      <g id="Group_95029" data-name="Group 95029" transform="translate(204.768 -1536.48)">
        <path id="Path_137120" data-name="Path 137120" d="M439.528-1399.568l227.609-13.167c5.242-.256,9.961,5.464,9.961,10.268v293.089c0,6.662-6.8,8-12.047,7.467l-225.524-23.032a8.559,8.559,0,0,1-7.446-8.422v-258.178A8.014,8.014,0,0,1,439.528-1399.568Z" transform="translate(-428.339 1441.479)" fill="#0a5936"/>
        <path id="Path_137121" data-name="Path 137121" d="M424.287-1403.076,652.346-1414.3c5.242-.258,9.511,3.456,9.511,8.3v295.379c0,4.841-4.269,8.326-9.511,7.786l-228.059-23.473a8.6,8.6,0,0,1-7.445-8.488v-260.2A8.05,8.05,0,0,1,424.287-1403.076Z" transform="translate(-416.842 1442.66)" fill="#d8dee8"/>
        <path id="Path_137122" data-name="Path 137122" d="M662.822-1094.516a4.4,4.4,0,0,0,5.134-4.212v-294.751a4.681,4.681,0,0,0-5.134-4.488l-228.059,10.773a4.358,4.358,0,0,0-4.035,4.375v260.685a4.657,4.657,0,0,0,4.035,4.591Z" transform="translate(-427.317 1430.338)" fill="url(#linear-gradient-3)"/>
        <path id="Path_137123" data-name="Path 137123" d="M507-1062.183l195.06,18.794v-271.932L507-1307.975Z" transform="translate(-484.853 1367.987)" fill="#fff"/>
        <path id="Path_137124" data-name="Path 137124" d="M824.63-1369l77.957.975-1.749-17.581a4.764,4.764,0,0,0-3.957-4.494l-13.2-2.029a4.75,4.75,0,0,1-3.572-2.741l-1.432-3.109-34.532,2.132Z" transform="translate(-724.468 1430.338)" fill="#97a6b7" opacity="0.3" style="mix-blend-mode: multiply;isolation: isolate"/>
        <path id="Path_137125" data-name="Path 137125" d="M643.1-1464.012a2.2,2.2,0,0,0,2.159,2.535l118.5-3.936a1.89,1.89,0,0,0,1.626-2.833l-8.234-16.339a5.936,5.936,0,0,0-5.465-3.249l-13.665.613a13.406,13.406,0,0,1-13.326-9.923l-3.51-13.685a5.6,5.6,0,0,0-5.637-4.169l-4.222.252a6.407,6.407,0,0,1-5.745-3.066,6.266,6.266,0,0,1-.866-2.4,11.216,11.216,0,0,0-11.585-9.5,9.243,9.243,0,0,0-8.565,10.734,5.181,5.181,0,0,1-4.761,6.119l-4.093.245a4.375,4.375,0,0,0-4.139,4.637l.481,13.482a10,10,0,0,1-9.591,10.665l-12.457.558a4.172,4.172,0,0,0-3.971,3.475Zm48.334-56.828a2.712,2.712,0,0,1,2.518-3.169,3.285,3.285,0,0,1,3.386,2.793,2.712,2.712,0,0,1-2.527,3.169A3.287,3.287,0,0,1,691.429-1520.84Z" transform="translate(-587.497 1529.738)" fill="url(#linear-gradient-4)"/>
        <path id="Path_137126" data-name="Path 137126" d="M640.237-1462.524a2.2,2.2,0,0,0,2.159,2.535l118.5-3.936a1.89,1.89,0,0,0,1.625-2.833l-8.234-16.339a5.936,5.936,0,0,0-5.465-3.249l-13.665.612a13.406,13.406,0,0,1-13.325-9.923l-3.51-13.685a5.6,5.6,0,0,0-5.637-4.169l-4.222.252a6.406,6.406,0,0,1-5.745-3.066,6.266,6.266,0,0,1-.866-2.4,11.216,11.216,0,0,0-11.585-9.5,9.243,9.243,0,0,0-8.565,10.734,5.181,5.181,0,0,1-4.761,6.119l-4.093.244a4.375,4.375,0,0,0-4.139,4.637l.481,13.482a10,10,0,0,1-9.591,10.665l-12.456.558a4.171,4.171,0,0,0-3.971,3.475Zm48.333-56.828a2.713,2.713,0,0,1,2.519-3.168,3.286,3.286,0,0,1,3.386,2.793,2.712,2.712,0,0,1-2.528,3.169A3.287,3.287,0,0,1,688.57-1519.352Z" transform="translate(-585.341 1528.616)" fill="#97a6b7"/>
        <g id="Group_95025" data-name="Group 95025" transform="translate(67.862 21.547)">
          <path id="Path_137127" data-name="Path 137127" d="M703.376-1405.751c10.57-6.525,18.681-1.9,25.269-9.258,7.053-7.879,2.3-18.251,9.593-23.145,4.672-3.133,8.839-.37,14.272-1.218a14.987,14.987,0,0,0,6.319-2.643l2.927,11.413a13.407,13.407,0,0,0,13.326,9.923l13.665-.613a5.937,5.937,0,0,1,5.465,3.249l8.234,16.339a1.89,1.89,0,0,1-1.626,2.832l-107.691,3.577A32.131,32.131,0,0,1,703.376-1405.751Z" transform="translate(-693.128 1442.015)" fill="#fff" opacity="0.5" style="mix-blend-mode: soft-light;isolation: isolate"/>
        </g>
        <g id="Group_95028" data-name="Group 95028" transform="translate(37.197 85.815)">
          <path id="Path_137128" data-name="Path 137128" d="M731.042-1170.8l72.985-.8v-8.757l-72.985,1.123Z" transform="translate(-691.065 1180.362)" fill="#97a6b7"/>
          <g id="Group_95027" data-name="Group 95027" transform="translate(0 25.117)">
            <g id="Group_95026" data-name="Group 95026" transform="translate(0 0.429)">
              <path id="Path_137129" data-name="Path 137129" d="M1030.538-997.866l8.94.332v-78.822l-8.94.022Z" transform="translate(-916.998 1076.356)" fill="#17c878"/>
              <path id="Path_137130" data-name="Path 137130" d="M961.09-923.577l8.786.326v-53.7l-8.786-.087Z" transform="translate(-864.608 1001.434)" fill="#17c878"/>
              <path id="Path_137131" data-name="Path 137131" d="M892.828-967.6l8.637.321v-67.268l-8.637-.024Z" transform="translate(-813.112 1044.836)" fill="#17c878"/>
              <path id="Path_137132" data-name="Path 137132" d="M825.721-926.79l8.491.315v-53.1l-8.491-.083Z" transform="translate(-762.488 1003.412)" fill="#17c878"/>
              <path id="Path_137133" data-name="Path 137133" d="M759.74-883.787l8.348.31v-38.239l-8.348-.144Z" transform="translate(-712.714 959.808)" fill="#17c878"/>
              <path id="Path_137134" data-name="Path 137134" d="M694.859-1000.293l8.21.3v-75.527l-8.21.02Z" transform="translate(-663.769 1075.722)" fill="#d8dee8"/>
              <path id="Path_137135" data-name="Path 137135" d="M631.048-840.446l8.074.3v-22.5l-8.074-.2Z" transform="translate(-615.631 915.293)" fill="#d8dee8"/>
              <path id="Path_137136" data-name="Path 137136" d="M568.282-956.272l7.943.295v-59.611l-7.943-.042Z" transform="translate(-568.282 1030.547)" fill="#d8dee8"/>
            </g>
            <path id="Path_137137" data-name="Path 137137" d="M568.282-666.8l156.041,8.472v-8.232l-156.041-7.837Z" transform="translate(-568.282 773.554)" fill="#d8dee8"/>
            <path id="Path_137138" data-name="Path 137138" d="M568.282-725.964l156.041,7.258v-8.232l-156.041-6.623Z" transform="translate(-568.282 818.188)" fill="#d8dee8"/>
            <path id="Path_137139" data-name="Path 137139" d="M568.282-427.437l156.041,13.384v-8.232l-156.041-12.75Z" transform="translate(-568.282 592.987)" fill="#d8dee8"/>
            <path id="Path_137140" data-name="Path 137140" d="M959.958-576.481v31.258l61.777,4.691v-32.241Z" transform="translate(-863.753 699.691)" fill="#d8dee8" opacity="0.5"/>
            <path id="Path_137141" data-name="Path 137141" d="M1021.735-535.2v13.419l-61.777-4.691v-24.221c3.531-1.122,7.776-1.6,11.017.725,6.793,4.872,5.927,7.383,13.011,6.572,5.547-.638,11.72-1.159,16.48,2.871,2.95,2.5,4.468,5.067,8.722,4.988C1013.192-535.611,1017.857-538.1,1021.735-535.2Z" transform="translate(-863.754 680.939)" fill="#d8dee8"/>
            <path id="Path_137142" data-name="Path 137142" d="M568.282-594.371l81.7,5.149v-5.861l-81.7-4.9Z" transform="translate(-568.282 717.422)" fill="#d8dee8"/>
            <path id="Path_137143" data-name="Path 137143" d="M568.282-544.947l81.7,5.669v-5.516l-81.7-5.438Z" transform="translate(-568.282 679.889)" fill="#d8dee8"/>
            <path id="Path_137144" data-name="Path 137144" d="M568.282-496.207l81.7,6.2v-5.861l-81.7-5.958Z" transform="translate(-568.282 643.37)" fill="#d8dee8"/>
            <path id="Path_137145" data-name="Path 137145" d="M1126.177-1070.63l19.406.018v-7.492l-19.406.054Z" transform="translate(-989.146 1078.103)" fill="#d8dee8"/>
            <path id="Path_137146" data-name="Path 137146" d="M1126.177-995.832l19.406.2v-7.491l-19.406-.123Z" transform="translate(-989.146 1021.637)" fill="#d8dee8"/>
            <path id="Path_137147" data-name="Path 137147" d="M1126.177-922.978l19.406.369V-930.1l-19.406-.3Z" transform="translate(-989.146 966.678)" fill="#d8dee8"/>
            <path id="Path_137148" data-name="Path 137148" d="M1126.177-848.347l19.406.546v-7.492l-19.406-.474Z" transform="translate(-989.146 910.378)" fill="#d8dee8"/>
            <path id="Path_137149" data-name="Path 137149" d="M1126.177-775.493l19.406.72v-7.492l-19.406-.648Z" transform="translate(-989.146 855.419)" fill="#d8dee8"/>
          </g>
        </g>
      </g>
      <g id="Group_95046" data-name="Group 95046" transform="translate(131.601 -1343.409)">
        <path id="Path_137150" data-name="Path 137150" d="M264.944-712.038l.332,112.241a11.424,11.424,0,0,0,10.043,11.081l82.057,8.4c6.32.647,11.492-3.722,11.492-9.644V-710.773c0-5.608-4.589-10.235-10.412-10.8-.371-.036-.749-.048-1.13-.05l-82.362-.393A9.91,9.91,0,0,0,264.944-712.038Z" transform="translate(-259.126 722.064)" fill="#0a5936"/>
        <path id="Path_137151" data-name="Path 137151" d="M241.26-712.28l.344,111.894a11.142,11.142,0,0,0,9.749,11.019l81.5,8.343c6.276.643,11.671-3.687,11.671-9.589l-.017-120.41c0-5.589-4.686-10.2-10.47-10.759-.369-.036-.873-.049-1.251-.051l-81.8-.39A9.668,9.668,0,0,0,241.26-712.28Z" transform="translate(-241.259 722.225)" fill="#17c878"/>
        <g id="Group_95030" data-name="Group 95030" transform="translate(0 0)" opacity="0.3" style="mix-blend-mode: multiply;isolation: isolate">
          <path id="Path_137152" data-name="Path 137152" d="M241.258-712.439l.087,28.122,103.161,3.39,0-30.268c0-5.455-4.473-9.9-10.061-10.625a14.2,14.2,0,0,0-1.66-.013l-81.8-.39A9.536,9.536,0,0,0,241.258-712.439Z" transform="translate(-241.258 722.225)" fill="url(#linear-gradient-5)"/>
          <path id="Path_137153" data-name="Path 137153" d="M241.5-614.111l.036,11.685c10.008,3.166,28.428,5.726,49.564,6.541,9.335.36,18.359.348,26.515.01A174.171,174.171,0,0,0,344.69-598.8l0-12.577c-2.65-.652-5.085-1.257-7.975-1.827-6.282-1.241-13.844-2.285-22.108-3.054-7.383-.689-15.4-1.155-23.66-1.345-10.635-.245-20.509-.005-29,.617-.66.047-1.319.1-1.962.151-2.03.167-3.979.355-5.832.566-.656.074-1.3.15-1.934.231-1.453.183-2.7.382-4.025.591C245.661-615.05,243.413-614.6,241.5-614.111Z" transform="translate(-241.442 643.375)" fill="url(#linear-gradient-6)"/>
        </g>
        <path id="Path_137154" data-name="Path 137154" d="M261.652-659.462a3.156,3.156,0,0,0,3.045,3.12l84.665,2.59a3.221,3.221,0,0,0,3.441-3.125L352.8-677.1a3.4,3.4,0,0,0-3.445-3.276l-84.725-1.03a2.979,2.979,0,0,0-3.029,2.994Z" transform="translate(-256.6 691.431)" fill="#fff"/>
        <path id="Path_137155" data-name="Path 137155" d="M269.492-657.429a1.994,1.994,0,0,0,1.927,1.971l84.25,2.482a2.036,2.036,0,0,0,2.172-1.975l-.007-20.127a2.146,2.146,0,0,0-2.175-2.07l-84.3-1.072a1.884,1.884,0,0,0-1.917,1.893Z" transform="translate(-262.516 689.028)" fill="#f1d54e"/>
        <g id="Group_95036" data-name="Group 95036" transform="translate(10.803 13.191)">
          <g id="Group_95033" data-name="Group 95033" transform="translate(0 2.269)">
            <g id="Group_95031" data-name="Group 95031">
              <path id="Path_137156" data-name="Path 137156" d="M317.04-653.95a.9.9,0,0,0,.963.877h.044a.861.861,0,0,0,.959-.839l-.01-3.9a.948.948,0,0,0-.964-.931h-.044a.9.9,0,0,0-.958.9Z" transform="translate(-309.222 658.877)" fill="url(#linear-gradient-7)"/>
              <path id="Path_137157" data-name="Path 137157" d="M285.251-654.5a.908.908,0,0,0,.952.887h.044a.864.864,0,0,0,.948-.85l-.011-3.889a.95.95,0,0,0-.953-.937h-.044a.906.906,0,0,0-.947.905Z" transform="translate(-285.24 659.285)" fill="url(#linear-gradient-8)"/>
            </g>
            <g id="Group_95032" data-name="Group 95032" transform="translate(0.024 8.11)">
              <path id="Path_137158" data-name="Path 137158" d="M317.128-619.1a1.065,1.065,0,0,0,.962,1.061h.044a1,1,0,0,0,.959-1.011l-.01-4.013a1.055,1.055,0,0,0-.964-1.051h-.044a1,1,0,0,0-.958,1.007Z" transform="translate(-309.312 624.643)" fill="url(#linear-gradient-9)"/>
              <path id="Path_137159" data-name="Path 137159" d="M285.347-620.882c0,.521.427.688.952,1.1h.044a1.035,1.035,0,0,0,.948-1.051l-.011-4.191c0-.522-.428-1.237-.953-1.245h-.044c-.524-.008-.948.68-.946,1.2Z" transform="translate(-285.336 626.268)" fill="url(#linear-gradient-10)"/>
            </g>
          </g>
          <g id="Group_95035" data-name="Group 95035" transform="translate(1.909)">
            <path id="Path_137160" data-name="Path 137160" d="M293.013-634.442a1,1,0,0,0,.98.969l3.655.086c.529.011.658-.4.658-.929v-.044c0-.525-.121-.957-.651-.968l-3.823-.083a.819.819,0,0,0-.819.924Z" transform="translate(-293.013 643.543)" opacity="0.3" fill="url(#linear-gradient-11)"/>
            <g id="Group_95034" data-name="Group 95034">
              <path id="Path_137161" data-name="Path 137161" d="M293.013-667.548a.985.985,0,0,0,.969.964l3.661.062c.529.008.663-.411.663-.935v-.044c0-.525-.132-.955-.661-.962l-3.818-.059a.822.822,0,0,0-.813.93Z" transform="translate(-293.013 668.521)" fill="url(#linear-gradient-12)"/>
              <path id="Path_137162" data-name="Path 137162" d="M293.013-599.78a1.019,1.019,0,0,0,.991.975l3.87.11a.854.854,0,0,0,.873-.923v-.044a.9.9,0,0,0-.86-.972l-3.939-.107a.9.9,0,0,0-.935.918Z" transform="translate(-293.013 617.39)" fill="url(#linear-gradient-13)"/>
            </g>
          </g>
        </g>
        <path id="Path_137163" data-name="Path 137163" d="M416.452-592.264a22.867,22.867,0,0,0,1.714,5.557c.295.636.628,1.3.993,1.979l45.536,4.662c6.276.643,11.671-3.687,11.671-9.589l-.017-120.582c0-5.455-4.473-9.987-10.061-10.717-.136.039-.337.08-.475.122-5.878,1.778-12.28,5.093-16.1,11.3-2.388,3.871-3.807,8.88-3.49,15.381a43.911,43.911,0,0,0,.6,5.354q.284,1.648.571,3.365.361,2.144.709,4.376c.367,2.379.705,4.82.978,7.286.26,2.364.458,4.753.557,7.134.018.46.034.921.045,1.381.038,1.489.034,2.972-.021,4.441q-.054,1.509-.183,3a37.515,37.515,0,0,1-4.423,15.47c-1.985,3.472-4.972,6.115-8.107,8.554-.827.642-1.663,1.272-2.5,1.9a66.781,66.781,0,0,0-7.985,6.889c-.06.061-.119.125-.177.186a38.5,38.5,0,0,0-3.274,3.908,28.715,28.715,0,0,0-2.842,4.866c-.3.653-.583,1.318-.841,1.992-.447,1.156-.831,2.345-1.166,3.558q-.226.816-.438,1.656a.4.4,0,0,0-.017.066,57.3,57.3,0,0,0-1.357,6.894A31.915,31.915,0,0,0,416.452-592.264Z" transform="translate(-373.107 721.266)" fill="#fff" opacity="0.3" style="mix-blend-mode: soft-light;isolation: isolate"/>
        <g id="Group_95045" data-name="Group 95045" transform="translate(4.729 51.203)">
          <g id="Group_95040" data-name="Group 95040" transform="translate(0.769 0.033)" style="mix-blend-mode: multiply;isolation: isolate">
            <g id="Group_95037" data-name="Group 95037">
              <path id="Path_137164" data-name="Path 137164" d="M552.072-493.877a2.345,2.345,0,0,0,2.266,2.256l15.279.753a2.122,2.122,0,0,0,2.319-2.06l0-5.484a2.373,2.373,0,0,0-2.321-2.274l-15.283-.649a2.1,2.1,0,0,0-2.263,2.049Z" transform="translate(-481.223 504.356)" fill="url(#linear-gradient-14)"/>
              <path id="Path_137165" data-name="Path 137165" d="M451.528-498.29a2.284,2.284,0,0,0,2.189,2.215l14.751.727a2.062,2.062,0,0,0,2.237-2.026l-.006-5.388a2.31,2.31,0,0,0-2.242-2.232L453.7-505.62a2.038,2.038,0,0,0-2.183,2.015Z" transform="translate(-405.372 507.589)" fill="url(#linear-gradient-15)"/>
              <path id="Path_137166" data-name="Path 137166" d="M357.64-502.41a2.229,2.229,0,0,0,2.119,2.177l14.267.7a2.008,2.008,0,0,0,2.162-1.994l-.009-5.3a2.253,2.253,0,0,0-2.17-2.194l-14.271-.606a1.986,1.986,0,0,0-2.111,1.984Z" transform="translate(-334.543 510.608)" fill="url(#linear-gradient-16)"/>
              <path id="Path_137167" data-name="Path 137167" d="M263.656-506.534a2.175,2.175,0,0,0,2.051,2.139l13.791.68a1.955,1.955,0,0,0,2.088-1.962l-.013-5.209a2.2,2.2,0,0,0-2.1-2.155l-13.794-.586a1.934,1.934,0,0,0-2.039,1.952Z" transform="translate(-263.641 513.629)" fill="url(#linear-gradient-17)"/>
            </g>
            <g id="Group_95038" data-name="Group 95038" transform="translate(0.048 16.536)">
              <path id="Path_137168" data-name="Path 137168" d="M552.136-423.074a2.379,2.379,0,0,0,2.265,2.281l15.271.938a2.091,2.091,0,0,0,2.318-2.03l0-5.478a2.407,2.407,0,0,0-2.32-2.3l-15.276-.835a2.064,2.064,0,0,0-2.262,2.02Z" transform="translate(-481.32 434.383)" fill="url(#linear-gradient-18)"/>
              <path id="Path_137169" data-name="Path 137169" d="M451.639-428.711a2.318,2.318,0,0,0,2.189,2.24l14.744.906a2.032,2.032,0,0,0,2.236-2l-.006-5.383a2.343,2.343,0,0,0-2.241-2.257l-14.748-.806a2.008,2.008,0,0,0-2.183,1.987Z" transform="translate(-405.504 438.54)" fill="url(#linear-gradient-19)"/>
              <path id="Path_137170" data-name="Path 137170" d="M357.8-433.974a2.262,2.262,0,0,0,2.118,2.2l14.261.876a1.978,1.978,0,0,0,2.161-1.965l-.009-5.293a2.285,2.285,0,0,0-2.169-2.218l-14.264-.78a1.956,1.956,0,0,0-2.11,1.956Z" transform="translate(-334.708 442.421)" fill="url(#linear-gradient-20)"/>
              <path id="Path_137171" data-name="Path 137171" d="M263.853-439.242a2.206,2.206,0,0,0,2.05,2.162l13.785.847a1.926,1.926,0,0,0,2.087-1.935l-.013-5.2a2.229,2.229,0,0,0-2.1-2.178l-13.788-.754a1.9,1.9,0,0,0-2.038,1.925Z" transform="translate(-263.838 446.307)" fill="url(#linear-gradient-21)"/>
            </g>
            <g id="Group_95039" data-name="Group 95039" transform="translate(0.095 32.672)">
              <path id="Path_137172" data-name="Path 137172" d="M552.2-353.988a2.413,2.413,0,0,0,2.264,2.306l15.264,1.119a2.061,2.061,0,0,0,2.317-2l0-5.473a2.441,2.441,0,0,0-2.319-2.325l-15.268-1.016a2.034,2.034,0,0,0-2.26,1.991Z" transform="translate(-481.414 366.105)" fill="url(#linear-gradient-22)"/>
              <path id="Path_137173" data-name="Path 137173" d="M451.748-360.817a2.351,2.351,0,0,0,2.188,2.263l14.737,1.08a2,2,0,0,0,2.235-1.968l-.006-5.377a2.377,2.377,0,0,0-2.24-2.282l-14.741-.981a1.978,1.978,0,0,0-2.181,1.959Z" transform="translate(-405.634 371.162)" fill="url(#linear-gradient-23)"/>
              <path id="Path_137174" data-name="Path 137174" d="M357.946-367.194a2.293,2.293,0,0,0,2.118,2.224l14.254,1.045a1.95,1.95,0,0,0,2.16-1.938l-.009-5.288a2.318,2.318,0,0,0-2.168-2.242l-14.258-.949a1.927,1.927,0,0,0-2.109,1.929Z" transform="translate(-334.869 375.885)" fill="url(#linear-gradient-24)"/>
              <path id="Path_137175" data-name="Path 137175" d="M264.044-373.577a2.238,2.238,0,0,0,2.049,2.184l13.779,1.01a1.9,1.9,0,0,0,2.086-1.908l-.013-5.2a2.26,2.26,0,0,0-2.1-2.2l-13.782-.917a1.877,1.877,0,0,0-2.038,1.9Z" transform="translate(-264.029 380.612)" fill="url(#linear-gradient-25)"/>
            </g>
            <path id="Path_137176" data-name="Path 137176" d="M552.26-286.611a2.446,2.446,0,0,0,2.263,2.33l15.257,1.3a2.032,2.032,0,0,0,2.316-1.971l0-5.468a2.475,2.475,0,0,0-2.318-2.35l-15.261-1.192A2.006,2.006,0,0,0,552.255-292Z" transform="translate(-481.365 347.926)" fill="url(#linear-gradient-26)"/>
            <path id="Path_137177" data-name="Path 137177" d="M451.855-294.6a2.383,2.383,0,0,0,2.187,2.287l14.731,1.25a1.975,1.975,0,0,0,2.234-1.94L471-298.378a2.409,2.409,0,0,0-2.239-2.306l-14.735-1.151a1.951,1.951,0,0,0-2.18,1.932Z" transform="translate(-405.619 353.861)" fill="url(#linear-gradient-27)"/>
            <path id="Path_137178" data-name="Path 137178" d="M358.094-302.064a2.325,2.325,0,0,0,2.117,2.246l14.248,1.209a1.922,1.922,0,0,0,2.159-1.911l-.009-5.283a2.35,2.35,0,0,0-2.167-2.265l-14.252-1.113a1.9,1.9,0,0,0-2.108,1.9Z" transform="translate(-334.885 359.403)" fill="url(#linear-gradient-28)"/>
            <path id="Path_137179" data-name="Path 137179" d="M552.325-214.377a2.482,2.482,0,0,0,2.262,2.356l15.249,1.484a2,2,0,0,0,2.315-1.94l0-5.462a2.511,2.511,0,0,0-2.317-2.376L554.579-221.7a1.976,1.976,0,0,0-2.259,1.932Z" transform="translate(-481.414 293.409)" fill="url(#linear-gradient-29)"/>
            <path id="Path_137180" data-name="Path 137180" d="M451.969-223.612a2.418,2.418,0,0,0,2.186,2.312l14.724,1.432a1.945,1.945,0,0,0,2.233-1.91l-.006-5.367a2.445,2.445,0,0,0-2.238-2.331l-14.728-1.333a1.921,1.921,0,0,0-2.179,1.9Z" transform="translate(-405.705 300.284)" fill="url(#linear-gradient-30)"/>
            <path id="Path_137181" data-name="Path 137181" d="M358.252-232.237a2.36,2.36,0,0,0,2.116,2.271l14.241,1.386a1.894,1.894,0,0,0,2.158-1.882l-.009-5.278a2.385,2.385,0,0,0-2.166-2.289l-14.245-1.29a1.872,1.872,0,0,0-2.107,1.875Z" transform="translate(-335.004 306.703)" fill="url(#linear-gradient-31)"/>
            <path id="Path_137182" data-name="Path 137182" d="M266.325-316.508l13.778,1.076a2.546,2.546,0,0,1,2.026,2.531l.007,2.926.006,2.443.027,11.029.008,3.244.005,2.119a1.932,1.932,0,0,1-2.013,2.044l-13.768-1.34a2.558,2.558,0,0,1-2.117-2.417l-.006-2.092-.01-3.2-.032-10.886-.007-2.411-.008-2.888A2.156,2.156,0,0,1,266.325-316.508Z" transform="translate(-264.078 364.929)" fill="url(#linear-gradient-32)"/>
          </g>
          <g id="Group_95044" data-name="Group 95044">
            <g id="Group_95041" data-name="Group 95041">
              <path id="Path_137183" data-name="Path 137183" d="M548.606-494.029a2.343,2.343,0,0,0,2.263,2.255l15.261.752a2.12,2.12,0,0,0,2.316-2.059l0-5.481a2.37,2.37,0,0,0-2.319-2.272l-15.264-.649a2.094,2.094,0,0,0-2.26,2.048Z" transform="translate(-477.839 504.501)" fill="#0a5936"/>
              <path id="Path_137184" data-name="Path 137184" d="M451.528-498.29a2.284,2.284,0,0,0,2.189,2.215l14.751.727a2.062,2.062,0,0,0,2.237-2.026l-.006-5.388a2.31,2.31,0,0,0-2.242-2.232L453.7-505.62a2.038,2.038,0,0,0-2.183,2.015Z" transform="translate(-404.603 507.622)" fill="#0a5936"/>
              <path id="Path_137185" data-name="Path 137185" d="M354.4-502.552a2.227,2.227,0,0,0,2.117,2.176l14.251.7a2.006,2.006,0,0,0,2.159-1.993l-.009-5.3a2.251,2.251,0,0,0-2.167-2.192L356.5-509.76a1.984,1.984,0,0,0-2.108,1.983Z" transform="translate(-331.331 510.745)" fill="#0a5936"/>
              <path id="Path_137186" data-name="Path 137186" d="M260.525-506.672a2.173,2.173,0,0,0,2.048,2.138l13.775.679a1.953,1.953,0,0,0,2.085-1.961l-.013-5.206a2.195,2.195,0,0,0-2.1-2.153l-13.778-.586a1.932,1.932,0,0,0-2.037,1.951Z" transform="translate(-260.51 513.763)" fill="#0a5936"/>
            </g>
            <g id="Group_95042" data-name="Group 95042" transform="translate(0.049 16.527)">
              <path id="Path_137187" data-name="Path 137187" d="M548.672-423.269a2.377,2.377,0,0,0,2.262,2.28l15.253.937a2.089,2.089,0,0,0,2.315-2.028l0-5.475a2.4,2.4,0,0,0-2.317-2.3l-15.257-.834a2.062,2.062,0,0,0-2.259,2.018Z" transform="translate(-477.938 434.568)" fill="#0a5936"/>
              <path id="Path_137188" data-name="Path 137188" d="M451.639-428.711a2.318,2.318,0,0,0,2.189,2.24l14.744.906a2.032,2.032,0,0,0,2.236-2l-.006-5.383a2.343,2.343,0,0,0-2.241-2.257l-14.748-.806a2.008,2.008,0,0,0-2.183,1.987Z" transform="translate(-404.735 438.582)" fill="#0a5936"/>
              <path id="Path_137189" data-name="Path 137189" d="M354.558-434.155a2.259,2.259,0,0,0,2.116,2.2l14.244.875a1.977,1.977,0,0,0,2.158-1.964l-.009-5.29a2.284,2.284,0,0,0-2.166-2.216l-14.248-.779a1.954,1.954,0,0,0-2.107,1.955Z" transform="translate(-331.497 442.597)" fill="#0a5936"/>
              <path id="Path_137190" data-name="Path 137190" d="M260.723-439.417a2.2,2.2,0,0,0,2.047,2.161l13.769.846a1.924,1.924,0,0,0,2.085-1.934l-.013-5.2a2.227,2.227,0,0,0-2.095-2.177l-13.772-.753a1.9,1.9,0,0,0-2.036,1.924Z" transform="translate(-260.708 446.478)" fill="#0a5936"/>
            </g>
            <g id="Group_95043" data-name="Group 95043" transform="translate(0.096 32.654)">
              <path id="Path_137191" data-name="Path 137191" d="M548.736-354.223a2.411,2.411,0,0,0,2.261,2.3l15.246,1.118a2.058,2.058,0,0,0,2.314-2l0-5.47a2.439,2.439,0,0,0-2.316-2.324l-15.25-1.015a2.032,2.032,0,0,0-2.258,1.989Z" transform="translate(-478.033 366.331)" fill="#0a5936"/>
              <path id="Path_137192" data-name="Path 137192" d="M451.748-360.817a2.351,2.351,0,0,0,2.188,2.263l14.737,1.08a2,2,0,0,0,2.235-1.968l-.006-5.377a2.377,2.377,0,0,0-2.24-2.282l-14.741-.981a1.978,1.978,0,0,0-2.181,1.959Z" transform="translate(-404.866 371.214)" fill="#0a5936"/>
              <path id="Path_137193" data-name="Path 137193" d="M354.711-367.413a2.292,2.292,0,0,0,2.116,2.222l14.238,1.044a1.948,1.948,0,0,0,2.158-1.937l-.009-5.285a2.316,2.316,0,0,0-2.165-2.24l-14.241-.948a1.926,1.926,0,0,0-2.106,1.928Z" transform="translate(-331.66 376.099)" fill="#0a5936"/>
              <path id="Path_137194" data-name="Path 137194" d="M260.916-373.789a2.236,2.236,0,0,0,2.047,2.183l13.763,1.009a1.9,1.9,0,0,0,2.083-1.907l-.012-5.2a2.258,2.258,0,0,0-2.094-2.2l-13.766-.916a1.875,1.875,0,0,0-2.035,1.9Z" transform="translate(-260.901 380.821)" fill="#0a5936"/>
            </g>
            <path id="Path_137195" data-name="Path 137195" d="M548.8-286.887a2.444,2.444,0,0,0,2.26,2.329l15.239,1.293a2.03,2.03,0,0,0,2.313-1.97l0-5.464a2.472,2.472,0,0,0-2.315-2.348l-15.243-1.191a2,2,0,0,0-2.257,1.961Z" transform="translate(-477.984 348.164)" fill="#0a5936"/>
            <path id="Path_137196" data-name="Path 137196" d="M451.855-294.6a2.383,2.383,0,0,0,2.187,2.287l14.731,1.25a1.975,1.975,0,0,0,2.234-1.94L471-298.378a2.409,2.409,0,0,0-2.239-2.306l-14.735-1.151a1.951,1.951,0,0,0-2.18,1.932Z" transform="translate(-404.849 353.894)" fill="#0a5936"/>
            <path id="Path_137197" data-name="Path 137197" d="M354.86-302.322a2.323,2.323,0,0,0,2.115,2.245l14.231,1.208a1.92,1.92,0,0,0,2.156-1.91l-.009-5.28a2.348,2.348,0,0,0-2.164-2.263l-14.235-1.112a1.9,1.9,0,0,0-2.105,1.9Z" transform="translate(-331.676 359.627)" fill="#0a5936"/>
            <path id="Path_137198" data-name="Path 137198" d="M548.865-214.695a2.48,2.48,0,0,0,2.259,2.355l15.231,1.482a2,2,0,0,0,2.312-1.939l0-5.459a2.509,2.509,0,0,0-2.314-2.375l-15.235-1.379a1.974,1.974,0,0,0-2.256,1.931Z" transform="translate(-478.035 293.679)" fill="#0a5936"/>
            <path id="Path_137199" data-name="Path 137199" d="M451.969-223.612a2.418,2.418,0,0,0,2.186,2.312l14.724,1.432a1.945,1.945,0,0,0,2.233-1.91l-.006-5.367a2.445,2.445,0,0,0-2.238-2.331l-14.728-1.333a1.921,1.921,0,0,0-2.179,1.9Z" transform="translate(-404.936 300.317)" fill="#0a5936"/>
            <path id="Path_137200" data-name="Path 137200" d="M355.019-232.534a2.357,2.357,0,0,0,2.113,2.269l14.225,1.384a1.892,1.892,0,0,0,2.155-1.881l-.009-5.275a2.383,2.383,0,0,0-2.163-2.288l-14.229-1.288a1.87,1.87,0,0,0-2.1,1.874Z" transform="translate(-331.796 306.958)" fill="#0a5936"/>
            <path id="Path_137201" data-name="Path 137201" d="M263.168-316.762l13.762,1.075a2.571,2.571,0,0,1,2.052,2.532l.007,2.924.006,2.442.027,11.023.008,3.243.005,2.118a1.951,1.951,0,0,1-2.039,2.04L263.243-290.7a2.527,2.527,0,0,1-2.087-2.413l-.006-2.091-.009-3.2-.032-10.88-.007-2.41-.009-2.886A2.133,2.133,0,0,1,263.168-316.762Z" transform="translate(-260.95 365.153)" fill="#0a5936"/>
          </g>
        </g>
      </g>
      <g id="Group_95048" data-name="Group 95048" transform="translate(188.049 -1416.598)">
        <path id="Path_137202" data-name="Path 137202" d="M450.939-1063.667c0,13.54-10.587,24.191-24.119,23.775-14.083-.432-25.926-12.595-25.926-27.149s11.844-25.12,25.926-23.653C440.352-1089.286,450.939-1077.207,450.939-1063.667Z" transform="translate(-400.894 1091.998)" fill="url(#linear-gradient-33)"/>
        <path id="Path_137203" data-name="Path 137203" d="M463.805-1067.775c0,13.54-10.587,24.191-24.119,23.775-14.082-.432-25.926-12.595-25.926-27.149s11.844-25.12,25.926-23.653C453.218-1093.393,463.805-1081.315,463.805-1067.775Z" transform="translate(-410.103 1094.938)" fill="url(#linear-gradient-34)"/>
        <path id="Path_137204" data-name="Path 137204" d="M465.823-1064.907c0,12.944-10.13,23.108-23.057,22.69-13.428-.435-24.7-12.042-24.7-25.91s11.275-23.954,24.7-22.578C455.693-1089.381,465.823-1077.85,465.823-1064.907Z" transform="translate(-413.183 1091.998)" fill="url(#linear-gradient-35)"/>
        <path id="Path_137205" data-name="Path 137205" d="M467.257-1062.859c0,12.516-9.8,22.334-22.3,21.914-12.962-.435-23.832-11.646-23.832-25.024s10.87-23.123,23.832-21.811C457.455-1086.514,467.257-1075.375,467.257-1062.859Z" transform="translate(-415.378 1089.899)" fill="url(#linear-gradient-36)"/>
        <g id="Group_95047" data-name="Group 95047" transform="translate(18.018 6.372)">
          <path id="Path_137206" data-name="Path 137206" d="M475.726-1072.513h0a1.363,1.363,0,0,1,1.2,1.337v2.3a33.891,33.891,0,0,1,3.994.693q1.475.347,2.929.825a1.346,1.346,0,0,1,.918,1.382l-.283,2.89a1.083,1.083,0,0,1-1.546.9,16.66,16.66,0,0,0-1.965-.732,17.806,17.806,0,0,0-3.706-.693l-.34-.028v6.6c3.468.97,6.015,2.276,7.662,3.918a8.284,8.284,0,0,1,2.454,6.116,8.051,8.051,0,0,1-2.714,6.358,12.383,12.383,0,0,1-7.678,2.7v2.543a1.157,1.157,0,0,1-1.2,1.175h-.021a1.279,1.279,0,0,1-1.208-1.275v-2.509l-.536-.024a35.253,35.253,0,0,1-4.448-.474,28.869,28.869,0,0,1-3.074-.707,1.324,1.324,0,0,1-.964-1.369l.333-3.715a1.175,1.175,0,0,1,1.642-.969,24.111,24.111,0,0,0,2.7.888,23.677,23.677,0,0,0,4.322.722l.022-7.341a15.9,15.9,0,0,1-7.459-3.66,8.38,8.38,0,0,1-2.471-6.228,7.281,7.281,0,0,1,2.679-6.049q2.662-2.114,7.551-2.109v-2.356A1.088,1.088,0,0,1,475.726-1072.513Zm-1.207,8.81a4.066,4.066,0,0,0-2.406.848,2.473,2.473,0,0,0-.863,1.981,2.66,2.66,0,0,0,.8,1.969,5.659,5.659,0,0,0,2.47,1.26Zm2.134,13.293v6.733a3.726,3.726,0,0,0,2.575-.8,2.882,2.882,0,0,0,.9-2.266,3.1,3.1,0,0,0-.833-2.216A6.119,6.119,0,0,0,476.653-1050.41Z" transform="translate(-464.289 1072.518)" fill="url(#linear-gradient-37)"/>
        </g>
        <path id="Path_137207" data-name="Path 137207" d="M440.925-1059.486c.753-7.44,7.591-10.59,6.7-17.434-.55-4.218-3.747-7.773-7.313-10.549-10.818,1.135-19.183,10.092-19.183,21.807,0,13.379,10.87,24.589,23.832,25.024a22.462,22.462,0,0,0,3.683-.18C443.5-1045.939,440.278-1053.094,440.925-1059.486Z" transform="translate(-415.377 1089.591)" opacity="0.3" fill="url(#linear-gradient-38)" style="mix-blend-mode: multiply;isolation: isolate"/>
      </g>
      <g id="Group_95051" data-name="Group 95051" transform="translate(272.683 -1444.171)">
        <path id="Path_137208" data-name="Path 137208" d="M1233.854-148.106s-11.162,5.105-11.343,5.917,7.185-.289,10.194-.18,5.481-.785,5.206-2.059-1.336-4.476-1.336-4.476Z" transform="translate(-1092.532 395.759)" fill="url(#linear-gradient-39)"/>
        <path id="Path_137209" data-name="Path 137209" d="M1266.995-164.312l.692,5.029a3.944,3.944,0,0,0,2.957-.122l.494-5.519Z" transform="translate(-1126.093 407.845)" fill="url(#linear-gradient-40)"/>
        <path id="Path_137210" data-name="Path 137210" d="M1456.544-162.456l1.3,2.083a2.489,2.489,0,0,1,.3,1.951c-.45,1.736-1.35,5.12-1.744,6-.536,1.2-7.766,1.933-7.766,1.933s-.647-.906.852-2.006,2.463-1.274,2.989-2.893a42.335,42.335,0,0,0,.869-6.194Z" transform="translate(-1263.018 405.983)" fill="url(#linear-gradient-41)"/>
        <path id="Path_137211" data-name="Path 137211" d="M1459.163-185.872c.476.378,2.815,7.421,2.815,7.421s.754.959,2.179-.463.645-.638.645-.638l-.285-6.933Z" transform="translate(-1271.06 424.109)" fill="url(#linear-gradient-42)"/>
        <path id="Path_137212" data-name="Path 137212" d="M1239.83-595.5c-.553,15.009-.538,31.314.367,48.73,1.019,19.613,3.016,37.737,5.518,54.165.916.027,1.877.029,2.882,0,.679-.02,1.336-.055,1.971-.1a124.794,124.794,0,0,0,4.109-13.251,127.39,127.39,0,0,0,2.853-15.512c2.111-17-.414-18.48,1.3-31.081,1.52-11.16,3.718-11.6,6.262-27.448,2.76-17.194.668-19.767-.348-20.7C1260.42-604.647,1250.285-601.924,1239.83-595.5Z" transform="translate(-1105.319 737.968)" fill="url(#linear-gradient-43)"/>
        <path id="Path_137213" data-name="Path 137213" d="M1270.332-600.686c-4.127-3.772-13.539-1.46-23.471,4.336,11.472,12.335,12.739,20.352,11.38,25.559-1.536,5.885-6.245,7.59-6.212,14.021.041,7.9,7.178,9.979,7.047,18.342-.087,5.53-3.221,5.48-3.945,12.312-.856,8.083,3.245,10.858,1.933,16.84-.564,2.573-2.185,5.938-6.814,9.412.34,2.454.689,4.884,1.052,7.268.915.027,1.877.029,2.882,0,.679-.02,1.336-.055,1.971-.1a124.667,124.667,0,0,0,4.109-13.251,127.4,127.4,0,0,0,2.853-15.512c2.111-17-.414-18.48,1.3-31.081,1.52-11.16,3.718-11.6,6.262-27.448C1273.44-597.184,1271.349-599.757,1270.332-600.686Z" transform="translate(-1110.904 737.962)" opacity="0.3" fill="url(#linear-gradient-44)" style="mix-blend-mode: multiply;isolation: isolate"/>
        <path id="Path_137214" data-name="Path 137214" d="M1269.83-600.766a337.341,337.341,0,0,1,30.112,53.76A337.129,337.129,0,0,1,1316.265-502a6.022,6.022,0,0,0,3.3.5,6.136,6.136,0,0,0,3.731-2.028,97.079,97.079,0,0,0,.8-23.932,82.47,82.47,0,0,0-3.408-17.978c-2.741-8.767-4.612-9.255-8.183-18.529-3.706-9.625-2.82-12.031-6.376-24.079a159.091,159.091,0,0,0-7.928-21.121Z" transform="translate(-1128.231 742.968)" fill="url(#linear-gradient-45)"/>
        <path id="Path_137215" data-name="Path 137215" d="M1113.424-818.161a27.1,27.1,0,0,0,3.789,1.777c9.84,3.753,20.319-.551,26.445-8.494.132-.163.256-.331.375-.5.075-.1.146-.2.216-.3.1-.141.2-.282.3-.423,1.173-1.707,2.474-3.784,2.787-3.621.022.009.1.035.108.075,0,.009.068.022.068.035v0c0,1.221-6.045,11.5-8.743,23.124-1.443,6.228-1.1,9.143-3.8,13.289-.613.94-1.383,1.919-1.119,3.03.666,2.783,7.022,3.506,11.437,4.009a102.633,102.633,0,0,0,13.3.415c6.876-.1,7.416-.459,8.986.313,4.785,2.346,4.458,7.969,8.061,8.724,3.021.626,6.09-2.748,7.061-3.819,5.054-5.562,4.785-12.27,5.681-19.035,2.086-15.732,10.629-32.968,18.991-43.88,2.536-3.308,4.3-5.045,4.41-8.124.322-9.024-13.981-18.991-25.885-20.133a89.062,89.062,0,0,0-14.59.3c-2.188.207-4.521.512-7.026.948-6.078,1.063-10.307,1.8-14.616,3.775-17.386,7.952-9.28,18.634-28.095,30.877-6.47,4.208-17.082-9.037-16.98-5.368C1104.665-837.951,1101.137-825.2,1113.424-818.161Z" transform="translate(-1003.264 941.149)" fill="url(#linear-gradient-46)"/>
        <path id="Path_137216" data-name="Path 137216" d="M1364.077-909.27a25.878,25.878,0,0,0,2.465,7.133c1.553,2.681,7.975,3.642,9.313,4.108s-2.019,2.8-5.588,3.642-14.01,1.4-16.055.274,1.328-1.467,3.784-2.759,3.278-6.541,2.517-8.772S1364.077-909.27,1364.077-909.27Z" transform="translate(-1191.412 969.362)" fill="url(#linear-gradient-47)"/>
        <g id="Group_95049" data-name="Group 95049" transform="translate(163.279 50.779)">
          <path id="Path_137217" data-name="Path 137217" d="M1360.7-939.08c-2.59-1.851-3.307-6.857-1.869-7.981.411-.321.8-.174,6.65,2.171,2.9,1.165,4.331,1.785,4.8,3.067a4.067,4.067,0,0,1-.076,2.673,10.249,10.249,0,0,1-1.189,1.981c-.628.9-.586.873-.778,1.136a14.243,14.243,0,0,1-2.989,2.925,9.941,9.941,0,0,0-.475-1.656,8.764,8.764,0,0,0-1.058-1.968A9.9,9.9,0,0,0,1360.7-939.08Z" transform="translate(-1358.098 947.187)" fill="url(#linear-gradient-48)"/>
          <path id="Path_137218" data-name="Path 137218" d="M1373.721-913.651a5.38,5.38,0,0,1-4.834,2.182c-2.811-.307-2.947-6.646-1.088-7.909a3.561,3.561,0,0,1,2.8-.237c.571.187.755.436,1.694.723.865.265,1.117.179,1.372.413.318.293.53.985-.1,2.809a1.535,1.535,0,0,1,1.664-.466.963.963,0,0,1,.359.382C1375.946-915.013,1375.247-914.12,1373.721-913.651Z" transform="translate(-1364.483 926.519)" fill="url(#linear-gradient-49)"/>
        </g>
        <path id="Path_137219" data-name="Path 137219" d="M1141.835-713.17a27.085,27.085,0,0,0,3.789,1.777c9.84,3.753,20.318-.551,26.445-8.494.132-.163.256-.331.375-.5.075-.1.146-.2.216-.3.1-.141.2-.283.3-.423,1.173-1.707,2.474-3.784,2.787-3.621.022.009.035.035.044.075,0,.009,0,.022,0,.035q1.416-2.223,2.836-4.441c-1.024-1.778-2.47-3.59-4.243-3.639-3.762-.093-4.732,7.837-11.2,13.05-3.886,3.131-7.013,3.074-14.872,4.843C1146.417-714.375,1144.252-713.846,1141.835-713.17Z" transform="translate(-1031.675 836.159)" opacity="0.3" fill="url(#linear-gradient-50)" style="mix-blend-mode: multiply;isolation: isolate"/>
        <path id="Path_137220" data-name="Path 137220" d="M1436-775.035c4.76.425,15.474.618,23.052-6.392,12.615-11.671,6.357-33.886,1.966-43.44-5.035-10.954-13.048-17.086-17.918-20.812-6.042-4.623-9.729-7.445-14.166-6.813-11.474,1.634-19.421,25.15-13.122,31.883,2.062,2.2,4.1.956,10.072,2.857,1.943.619,16.448,5.239,18.974,15.922,1.768,7.477-2.733,16.233-10.742,22.113Z" transform="translate(-1236.684 926.596)" fill="url(#linear-gradient-51)"/>
        <path id="Path_137221" data-name="Path 137221" d="M1241.642-709.742c5.389-3.405,6.186-6.857,12.22-9.189,7.839-3.03,11.606.819,15.493-2.289,4.625-3.7.531-10.14,3.992-21.32.588-1.9,5.05-16.31,15.288-18.147,4.774-.856,11.08.973,13.51,5.019,1.9,3.166.13,5.526,2.442,9.022s5.074,2.639,8.019,5.552c4.677,4.626,5.393,14.381,1.171,19.9-1.969,2.573-4.528,3.591-9.344,5.505a45.377,45.377,0,0,1-8.03,2.359c5.9-5.659,8.956-12.958,7.449-19.333-1.574-6.659-7.8-10.962-12.742-13.409-4.943,9.3-8.983,20.082-10.328,30.237-.9,6.766-.626,13.475-5.681,19.038-.972,1.07-4.039,4.447-7.062,3.816-3.6-.75-3.276-6.376-8.06-8.724-1.57-.771-2.112-.413-8.99-.313a101.775,101.775,0,0,1-13.3-.415c-3.926-.446-9.384-1.07-11.012-3.16C1233.759-705.785,1238.489-707.75,1241.642-709.742Z" transform="translate(-1095.673 857.43)" opacity="0.3" fill="url(#linear-gradient-52)" style="mix-blend-mode: multiply;isolation: isolate"/>
        <g id="Group_95050" data-name="Group 95050" transform="translate(0 0)">
          <path id="Path_137222" data-name="Path 137222" d="M1103.283-780.43l94.8,64.9a5.172,5.172,0,0,0,7.079-1.147l1.014-1.389a4.836,4.836,0,0,0-1.253-6.876l-1.9-1.288-77.161-52.458-15.86-10.784Z" transform="translate(-1002.592 878.989)" fill="url(#linear-gradient-53)"/>
          <path id="Path_137223" data-name="Path 137223" d="M713.635-1125.792c17.1-27.852,52.789-36.709,79.788-18.9,27.494,18.134,34.568,56.269,15.753,84.258-18.374,27.332-54.189,33.988-79.969,15.734C703.872-1062.643,696.924-1098.574,713.635-1125.792Zm87.66,59.964c15.651-23.454,9.718-55.325-13.218-70.543-22.589-14.988-52.571-7.7-67.015,15.659-14.167,22.91-8.323,53.227,13.09,68.307C755.882-1037.1,785.952-1042.836,801.294-1065.828Z" transform="translate(-701.786 1153.922)" fill="url(#linear-gradient-54)"/>
          <path id="Path_137224" data-name="Path 137224" d="M1103.283-780.43l94.8,64.9a5.172,5.172,0,0,0,7.079-1.147l1.014-1.389a4.836,4.836,0,0,0-1.253-6.876l-1.892-1.292,0,0c-4.658,4.679-7.732,5.341-9.791,4.82-4.825-1.222-3.4-8.7-10.713-14.651-7.237-5.884-13.081-2.192-21.289-8.737-4.966-3.961-3.193-5.606-8.239-10.633-10.056-10.021-20.486-6.876-25.267-14.237-1.257-1.936-2.223-4.754-1.861-9.019l-15.86-10.784Z" transform="translate(-1002.592 878.989)" fill="#d8dee8" opacity="0.6" style="mix-blend-mode: multiply;isolation: isolate"/>
          <path id="Path_137225" data-name="Path 137225" d="M702.442-1117.7c17.1-27.852,52.789-36.709,79.788-18.9,27.494,18.133,34.568,56.268,15.753,84.258-18.374,27.333-54.189,33.988-79.969,15.733C692.679-1054.549,685.731-1090.48,702.442-1117.7Zm87.66,59.964c15.651-23.454,9.718-55.325-13.218-70.543-22.59-14.988-52.571-7.7-67.015,15.659-14.167,22.91-8.323,53.227,13.09,68.307C744.689-1029.007,774.759-1034.743,790.1-1057.734Z" transform="translate(-693.342 1147.816)" fill="url(#linear-gradient-55)"/>
          <path id="Path_137226" data-name="Path 137226" d="M714.592-1105.321c16.164-26.261,49.835-34.557,75.271-17.746,25.875,17.1,32.545,53.014,14.855,79.4-17.3,25.8-51.081,32.135-75.432,14.926C705.333-1045.673,698.775-1079.625,714.592-1105.321Zm85.038,58.17c15.651-23.454,9.718-55.325-13.218-70.542-22.589-14.988-52.571-7.7-67.015,15.658-14.167,22.91-8.323,53.227,13.09,68.307C754.217-1018.424,784.287-1024.159,799.629-1047.151Z" transform="translate(-702.87 1137.233)" fill="url(#linear-gradient-56)"/>
        </g>
        <path id="Path_137227" data-name="Path 137227" d="M1470.431-553.829l-1.06-2.635a5.423,5.423,0,0,1-3.151-.913,4.1,4.1,0,0,0-2.546-.609c-.4.111-1.906.045-.188.865s1.7,1.428.988,2.1a12.453,12.453,0,0,1-4.421,2.189c-.981.07.792,1.587,1.781,1.78a6.1,6.1,0,0,0,4.618-.743C1467.184-552.224,1470.431-553.829,1470.431-553.829Z" transform="translate(-1271.515 704.386)" fill="url(#linear-gradient-57)"/>
        <path id="Path_137228" data-name="Path 137228" d="M1119.889-741.508c-2.61-1.8-3.015-5.7-6.85-5.977,0,0-3.191-.771-1.579,2.762S1120.867-738.5,1119.889-741.508Z" transform="translate(-1008.417 847.369)" fill="url(#linear-gradient-58)"/>
      </g>
      <g id="Group_95053" data-name="Group 95053" transform="translate(150.718 -1495.057)">
        <path id="Path_137229" data-name="Path 137229" d="M293.029-1290.6c0,18.105-14.158,32.348-32.252,31.792-18.831-.578-34.669-16.842-34.669-36.3s15.838-33.59,34.669-31.629C278.872-1324.853,293.029-1308.7,293.029-1290.6Z" transform="translate(-226.108 1328.48)" fill="url(#linear-gradient-59)"/>
        <path id="Path_137230" data-name="Path 137230" d="M310.94-1296.315c0,18.106-14.157,32.348-32.252,31.792-18.831-.578-34.669-16.842-34.669-36.3s15.838-33.59,34.669-31.63C296.783-1330.572,310.94-1314.421,310.94-1296.315Z" transform="translate(-239.129 1332.638)" fill="url(#linear-gradient-60)"/>
        <path id="Path_137231" data-name="Path 137231" d="M313.875-1292.253c0,17.308-13.546,30.9-30.832,30.341-17.957-.581-33.033-16.1-33.033-34.647s15.076-32.032,33.033-30.192C300.329-1324.98,313.875-1309.561,313.875-1292.253Z" transform="translate(-243.485 1328.48)" fill="url(#linear-gradient-61)"/>
        <path id="Path_137232" data-name="Path 137232" d="M315.96-1289.354c0,16.737-13.107,29.865-29.815,29.3-17.333-.582-31.868-15.573-31.868-33.463s14.535-30.921,31.868-29.166C302.853-1320.986,315.96-1306.091,315.96-1289.354Z" transform="translate(-246.587 1325.512)" fill="url(#linear-gradient-62)"/>
        <g id="Group_95052" data-name="Group 95052" transform="translate(24.094 8.521)">
          <path id="Path_137233" data-name="Path 137233" d="M329.657-1301.419h0a1.822,1.822,0,0,1,1.609,1.788v3.082a45.375,45.375,0,0,1,5.341.926q1.972.463,3.917,1.1a1.8,1.8,0,0,1,1.227,1.849l-.378,3.864a1.448,1.448,0,0,1-2.068,1.2,22.329,22.329,0,0,0-2.628-.979,23.829,23.829,0,0,0-4.956-.926l-.455-.037v8.825c4.638,1.3,8.044,3.043,10.245,5.239a11.076,11.076,0,0,1,3.282,8.178,10.767,10.767,0,0,1-3.63,8.5q-3.654,3.22-10.267,3.615v3.4a1.547,1.547,0,0,1-1.61,1.572h-.029a1.71,1.71,0,0,1-1.616-1.706v-3.355l-.717-.032a47.059,47.059,0,0,1-5.948-.634,38.728,38.728,0,0,1-4.11-.945,1.772,1.772,0,0,1-1.29-1.832l.446-4.967a1.571,1.571,0,0,1,2.2-1.3,32.274,32.274,0,0,0,3.615,1.187,31.691,31.691,0,0,0,5.78.966l.029-9.817q-6.678-1.653-9.975-4.895a11.206,11.206,0,0,1-3.3-8.329,9.736,9.736,0,0,1,3.582-8.09q3.559-2.827,10.1-2.82v-3.15A1.455,1.455,0,0,1,329.657-1301.419Zm-1.614,11.78a5.438,5.438,0,0,0-3.217,1.134,3.307,3.307,0,0,0-1.154,2.649,3.555,3.555,0,0,0,1.068,2.633,7.562,7.562,0,0,0,3.3,1.685Zm2.853,17.777v9a4.981,4.981,0,0,0,3.443-1.07,3.854,3.854,0,0,0,1.2-3.03,4.14,4.14,0,0,0-1.114-2.963A8.175,8.175,0,0,0,330.9-1271.862Z" transform="translate(-314.363 1301.426)" fill="url(#linear-gradient-63)"/>
        </g>
        <path id="Path_137234" data-name="Path 137234" d="M280.75-1284.819c1.007-9.949,10.151-14.161,8.958-23.312-.736-5.641-5.011-10.394-9.78-14.105-14.465,1.517-25.651,13.495-25.651,29.161,0,17.89,14.535,32.881,31.868,33.463a30.094,30.094,0,0,0,4.925-.24C284.187-1266.7,279.885-1276.272,280.75-1284.819Z" transform="translate(-246.587 1325.077)" opacity="0.3" fill="url(#linear-gradient-64)" style="mix-blend-mode: multiply;isolation: isolate"/>
      </g>
    </g>
  </g>
</svg>
