<svg xmlns="http://www.w3.org/2000/svg" width="919" height="390" viewBox="0 0 919 390">
  <g id="t4-i2" transform="translate(-954.783 536.608)">
    <rect id="Rectángulo_32775" data-name="Rectángulo 32775" width="919" height="390" transform="translate(954.783 -536.608)" fill="#fff"/>
    <g id="Group_96713" data-name="Group 96713">
      <g id="Group_96690" data-name="Group 96690">
        <g id="Group_96689" data-name="Group 96689">
          <path id="Path_140368" data-name="Path 140368" d="M1186.878-285.852h498.128v94.627a23.767,23.767,0,0,1-23.767,23.767H1163.111v-94.628a23.766,23.766,0,0,1,23.767-23.766" fill="#17c878"/>
          <g id="Group_96687" data-name="Group 96687">
            <g id="Group_96682" data-name="Group 96682">
              <path id="Path_140369" data-name="Path 140369" d="M1689.24-268.307a.529.529,0,0,1-.529-.529v-2.117a.529.529,0,0,1,.529-.53.529.529,0,0,1,.529.53v2.117A.529.529,0,0,1,1689.24-268.307Z" fill="#17c878"/>
            </g>
            <g id="Group_96683" data-name="Group 96683">
              <path id="Path_140370" data-name="Path 140370" d="M1689.24-273.827a.529.529,0,0,1-.529-.53v-3.4a.529.529,0,0,1,.529-.529.529.529,0,0,1,.529.529v3.4A.529.529,0,0,1,1689.24-273.827Zm0-6.807a.529.529,0,0,1-.529-.529v-3.4a.529.529,0,0,1,.529-.529.529.529,0,0,1,.529.529v3.4A.529.529,0,0,1,1689.24-280.634Z" fill="#17c878"/>
            </g>
            <g id="Group_96684" data-name="Group 96684">
              <path id="Path_140371" data-name="Path 140371" d="M1689.24-287.44a.529.529,0,0,1-.529-.529v-1.588h-1.588a.529.529,0,0,1-.529-.529.529.529,0,0,1,.529-.53h2.117a.529.529,0,0,1,.529.53v2.117A.529.529,0,0,1,1689.24-287.44Z" fill="#17c878"/>
            </g>
            <g id="Group_96685" data-name="Group 96685">
              <path id="Path_140372" data-name="Path 140372" d="M1683.176-289.557h-3.947a.529.529,0,0,1-.529-.529.529.529,0,0,1,.529-.53h3.947a.529.529,0,0,1,.529.53A.529.529,0,0,1,1683.176-289.557Zm-7.893,0h-3.947a.529.529,0,0,1-.53-.529.53.53,0,0,1,.53-.53h3.947a.529.529,0,0,1,.529.53A.529.529,0,0,1,1675.283-289.557Zm-7.894,0h-3.947a.529.529,0,0,1-.529-.529.529.529,0,0,1,.529-.53h3.947a.529.529,0,0,1,.529.53A.529.529,0,0,1,1667.389-289.557Zm-7.893,0h-3.947a.529.529,0,0,1-.53-.529.53.53,0,0,1,.53-.53h3.947a.529.529,0,0,1,.529.53A.529.529,0,0,1,1659.5-289.557Zm-7.894,0h-3.947a.529.529,0,0,1-.529-.529.529.529,0,0,1,.529-.53h3.947a.529.529,0,0,1,.529.53A.529.529,0,0,1,1651.6-289.557Zm-7.893,0h-3.947a.529.529,0,0,1-.529-.529.529.529,0,0,1,.529-.53h3.947a.529.529,0,0,1,.529.53A.529.529,0,0,1,1643.709-289.557Zm-7.894,0h-3.947a.529.529,0,0,1-.529-.529.529.529,0,0,1,.529-.53h3.947a.529.529,0,0,1,.529.53A.529.529,0,0,1,1635.815-289.557Z" fill="#17c878"/>
            </g>
            <g id="Group_96686" data-name="Group 96686">
              <path id="Path_140373" data-name="Path 140373" d="M1627.922-289.557h-2.117a.529.529,0,0,1-.529-.529.529.529,0,0,1,.529-.53h2.117a.529.529,0,0,1,.529.53A.529.529,0,0,1,1627.922-289.557Z" fill="#17c878"/>
            </g>
          </g>
          <g id="Group_96688" data-name="Group 96688">
            <path id="Path_140374" data-name="Path 140374" d="M1661.239-162.7H1158.877a.529.529,0,0,1-.529-.529v-98.862a28.562,28.562,0,0,1,28.53-28.53h433.71a.529.529,0,0,1,.529.53.529.529,0,0,1-.529.529h-433.71a27.5,27.5,0,0,0-27.472,27.471v98.332h501.833a27.5,27.5,0,0,0,27.472-27.471v-73.359a.529.529,0,0,1,.529-.529.529.529,0,0,1,.529.529v73.359A28.562,28.562,0,0,1,1661.239-162.7Z" fill="#17c878"/>
          </g>
          <path id="Path_140375" data-name="Path 140375" d="M1186.878-282.589h494.864v91.364a20.527,20.527,0,0,1-20.5,20.5H1166.375v-91.364a20.526,20.526,0,0,1,20.5-20.5" fill="#fff"/>
        </g>
      </g>
      <g id="Group_96698" data-name="Group 96698">
        <g id="Group_96696" data-name="Group 96696">
          <g id="Group_96691" data-name="Group 96691">
            <path id="Path_140376" data-name="Path 140376" d="M1589.121-489.393a.53.53,0,0,1-.53-.53v-2.117a.529.529,0,0,1,.53-.529.529.529,0,0,1,.529.529v2.117A.529.529,0,0,1,1589.121-489.393Z" fill="#17c878"/>
          </g>
          <g id="Group_96692" data-name="Group 96692">
            <path id="Path_140377" data-name="Path 140377" d="M1589.121-494.914a.529.529,0,0,1-.53-.529v-3.4a.529.529,0,0,1,.53-.529.529.529,0,0,1,.529.529v3.4A.529.529,0,0,1,1589.121-494.914Zm0-6.806a.529.529,0,0,1-.53-.529v-3.4a.53.53,0,0,1,.53-.53.529.529,0,0,1,.529.53v3.4A.529.529,0,0,1,1589.121-501.72Z" fill="#17c878"/>
          </g>
          <g id="Group_96693" data-name="Group 96693">
            <path id="Path_140378" data-name="Path 140378" d="M1589.121-508.527a.529.529,0,0,1-.53-.529v-1.588H1587a.529.529,0,0,1-.53-.529.529.529,0,0,1,.53-.529h2.117a.529.529,0,0,1,.529.529v2.117A.529.529,0,0,1,1589.121-508.527Z" fill="#17c878"/>
          </g>
          <g id="Group_96694" data-name="Group 96694">
            <path id="Path_140379" data-name="Path 140379" d="M1583.057-510.644h-3.947a.529.529,0,0,1-.529-.529.529.529,0,0,1,.529-.529h3.947a.529.529,0,0,1,.529.529A.529.529,0,0,1,1583.057-510.644Zm-7.894,0h-3.946a.529.529,0,0,1-.53-.529.529.529,0,0,1,.53-.529h3.946a.529.529,0,0,1,.53.529A.529.529,0,0,1,1575.163-510.644Zm-7.893,0h-3.947a.529.529,0,0,1-.529-.529.529.529,0,0,1,.529-.529h3.947a.529.529,0,0,1,.529.529A.529.529,0,0,1,1567.27-510.644Zm-7.894,0h-3.946a.529.529,0,0,1-.53-.529.529.529,0,0,1,.53-.529h3.946a.529.529,0,0,1,.53.529A.529.529,0,0,1,1559.376-510.644Zm-7.893,0h-3.947a.529.529,0,0,1-.529-.529.529.529,0,0,1,.529-.529h3.947a.529.529,0,0,1,.529.529A.529.529,0,0,1,1551.483-510.644Zm-7.893,0h-3.947a.529.529,0,0,1-.529-.529.529.529,0,0,1,.529-.529h3.947a.529.529,0,0,1,.529.529A.529.529,0,0,1,1543.59-510.644Zm-7.894,0h-3.947a.529.529,0,0,1-.529-.529.529.529,0,0,1,.529-.529h3.947a.529.529,0,0,1,.529.529A.529.529,0,0,1,1535.7-510.644Z" fill="#17c878"/>
          </g>
          <g id="Group_96695" data-name="Group 96695">
            <path id="Path_140380" data-name="Path 140380" d="M1527.8-510.644h-2.117a.529.529,0,0,1-.529-.529.529.529,0,0,1,.529-.529h2.117a.529.529,0,0,1,.529.529A.529.529,0,0,1,1527.8-510.644Z" fill="#17c878"/>
          </g>
        </g>
        <g id="Group_96697" data-name="Group 96697">
          <path id="Path_140381" data-name="Path 140381" d="M1561.12-378.214H1258.353a.529.529,0,0,1-.529-.53V-483.172a28.562,28.562,0,0,1,28.53-28.53h234.115a.529.529,0,0,1,.529.529.529.529,0,0,1-.529.529H1286.354a27.5,27.5,0,0,0-27.471,27.472v103.9H1561.12a27.5,27.5,0,0,0,27.471-27.471V-485.67a.529.529,0,0,1,.53-.529.529.529,0,0,1,.529.529v78.926A28.563,28.563,0,0,1,1561.12-378.214Z" fill="#17c878"/>
        </g>
        <path id="Path_140382" data-name="Path 140382" d="M1286.354-506.939h298.533v100.2a23.766,23.766,0,0,1-23.767,23.766H1262.587V-483.172a23.767,23.767,0,0,1,23.767-23.767" fill="#f1d54e"/>
        <rect id="Rectangle_32853" data-name="Rectangle 32853" width="123.961" height="1.588" transform="translate(1424.533 -506.939) rotate(90)" fill="#fff"/>
        <rect id="Rectangle_32854" data-name="Rectangle 32854" width="161.941" height="1.588" transform="translate(1422.945 -445.752)" fill="#fff"/>
        <text id="Producción_fábrica" data-name="Producción
fábrica" transform="translate(1342.766 -449.899)" fill="#12263f" font-size="20" font-family="Roboto-Bold, Roboto" font-weight="700"><tspan x="-51.143" y="0">Producción</tspan><tspan x="-31.45" y="24">fábrica</tspan></text>
        <text id="Administración" transform="translate(1503.916 -470.392)" fill="#12263f" font-size="20" font-family="Roboto-Bold, Roboto" font-weight="700"><tspan x="-68.428" y="0">Administración</tspan></text>
        <text id="Ventas" transform="translate(1503.916 -409.523)" fill="#12263f" font-size="20" font-family="Roboto-Bold, Roboto" font-weight="700"><tspan x="-31.211" y="0">Ventas</tspan></text>
      </g>
      <text id="Inversión" transform="translate(1423.737 -328.534)" fill="#12263f" font-size="20" font-family="Roboto-Bold, Roboto" font-weight="700"><tspan x="-41.606" y="0">Inversión</tspan></text>
      <g id="Group_96705" data-name="Group 96705">
        <rect id="Rectangle_32855" data-name="Rectangle 32855" width="130.848" height="1.906" transform="translate(1137.214 -510.383) rotate(90)" fill="#17c878"/>
        <rect id="Rectangle_32856" data-name="Rectangle 32856" width="19.074" height="1.906" transform="translate(1135.308 -445.912)" fill="#17c878"/>
        <rect id="Rectangle_32857" data-name="Rectangle 32857" width="27.128" height="1.906" transform="translate(1231.755 -445.912)" fill="#17c878"/>
        <g id="Group_96699" data-name="Group 96699">
          <circle id="Ellipse_4344" data-name="Ellipse 4344" cx="4.588" cy="4.588" r="4.588" transform="translate(1131.67 -514.97)" fill="#17c878"/>
          <circle id="Ellipse_4345" data-name="Ellipse 4345" cx="3.715" cy="3.715" r="3.715" transform="translate(1132.543 -514.098)" fill="#fff"/>
          <circle id="Ellipse_4346" data-name="Ellipse 4346" cx="2.342" cy="2.342" r="2.342" transform="translate(1133.916 -512.724)" fill="#17c878"/>
        </g>
        <g id="Group_96700" data-name="Group 96700">
          <circle id="Ellipse_4347" data-name="Ellipse 4347" cx="4.588" cy="4.588" r="4.588" transform="translate(1148.738 -449.546)" fill="#17c878"/>
          <circle id="Ellipse_4348" data-name="Ellipse 4348" cx="3.715" cy="3.715" r="3.715" transform="translate(1149.611 -448.674)" fill="#fff"/>
          <circle id="Ellipse_4349" data-name="Ellipse 4349" cx="2.342" cy="2.342" r="2.342" transform="translate(1150.984 -447.3)" fill="#17c878"/>
        </g>
        <g id="Group_96701" data-name="Group 96701">
          <circle id="Ellipse_4350" data-name="Ellipse 4350" cx="4.588" cy="4.588" r="4.588" transform="translate(1227.167 -449.546)" fill="#17c878"/>
          <circle id="Ellipse_4351" data-name="Ellipse 4351" cx="3.715" cy="3.715" r="3.715" transform="translate(1228.039 -448.674)" fill="#fff"/>
          <circle id="Ellipse_4352" data-name="Ellipse 4352" cx="2.342" cy="2.342" r="2.342" transform="translate(1229.413 -447.3)" fill="#17c878"/>
        </g>
        <g id="Group_96702" data-name="Group 96702">
          <circle id="Ellipse_4353" data-name="Ellipse 4353" cx="4.588" cy="4.588" r="4.588" transform="translate(1131.67 -471.354)" fill="#17c878"/>
          <circle id="Ellipse_4354" data-name="Ellipse 4354" cx="3.715" cy="3.715" r="3.715" transform="translate(1132.543 -470.482)" fill="#fff"/>
          <circle id="Ellipse_4355" data-name="Ellipse 4355" cx="2.342" cy="2.342" r="2.342" transform="translate(1133.916 -469.108)" fill="#17c878"/>
        </g>
        <g id="Group_96703" data-name="Group 96703">
          <circle id="Ellipse_4356" data-name="Ellipse 4356" cx="4.588" cy="4.588" r="4.588" transform="translate(1131.67 -427.738)" fill="#17c878"/>
          <circle id="Ellipse_4357" data-name="Ellipse 4357" cx="3.715" cy="3.715" r="3.715" transform="translate(1132.543 -426.865)" fill="#fff"/>
          <circle id="Ellipse_4358" data-name="Ellipse 4358" cx="2.342" cy="2.342" r="2.342" transform="translate(1133.916 -425.492)" fill="#17c878"/>
        </g>
        <g id="Group_96704" data-name="Group 96704">
          <circle id="Ellipse_4359" data-name="Ellipse 4359" cx="4.588" cy="4.588" r="4.588" transform="translate(1131.67 -384.122)" fill="#17c878"/>
          <circle id="Ellipse_4360" data-name="Ellipse 4360" cx="3.715" cy="3.715" r="3.715" transform="translate(1132.543 -383.249)" fill="#fff"/>
          <circle id="Ellipse_4361" data-name="Ellipse 4361" cx="2.342" cy="2.342" r="2.342" transform="translate(1133.916 -381.876)" fill="#17c878"/>
        </g>
        <text id="Costos" transform="translate(1163.738 -439.698)" fill="#12263f" font-size="18" font-family="Roboto-Regular, Roboto"><tspan x="0" y="0">Costos</tspan></text>
        <text id="Materia_prima" data-name="Materia prima" transform="translate(1013.369 -505.122)" fill="#12263f" font-size="18" font-family="Roboto-Regular, Roboto"><tspan x="0" y="0">Materia prima</tspan></text>
        <text id="Mano_de_obra" data-name="Mano de obra" transform="translate(1014.923 -461.506)" fill="#12263f" font-size="18" font-family="Roboto-Regular, Roboto"><tspan x="0" y="0">Mano de obra</tspan></text>
        <text id="Servicios" transform="translate(1052.234 -417.89)" fill="#12263f" font-size="18" font-family="Roboto-Regular, Roboto"><tspan x="0" y="0">Servicios</tspan></text>
        <text id="Costos_indirectos" data-name="Costos indirectos" transform="translate(985.199 -374.274)" fill="#12263f" font-size="18" font-family="Roboto-Regular, Roboto"><tspan x="0" y="0">Costos indirectos</tspan></text>
      </g>
      <rect id="Rectangle_32858" data-name="Rectangle 32858" width="43.616" height="1.906" transform="translate(1712.167 -466.767) rotate(90)" fill="#17c878"/>
      <rect id="Rectangle_32859" data-name="Rectangle 32859" width="19.074" height="1.906" transform="translate(1712.163 -444.006) rotate(180)" fill="#17c878"/>
      <rect id="Rectangle_32860" data-name="Rectangle 32860" width="27.128" height="1.906" transform="translate(1615.716 -444.006) rotate(180)" fill="#17c878"/>
      <rect id="Rectangle_32861" data-name="Rectangle 32861" width="27.128" height="1.906" transform="translate(1422.784 -352.085) rotate(-90)" fill="#17c878"/>
      <rect id="Rectangle_32862" data-name="Rectangle 32862" width="27.128" height="1.906" transform="translate(1422.784 -289.544) rotate(-90)" fill="#17c878"/>
      <g id="Group_96706" data-name="Group 96706">
        <circle id="Ellipse_4362" data-name="Ellipse 4362" cx="4.588" cy="4.588" r="4.588" transform="translate(1689.557 -449.546)" fill="#17c878"/>
        <circle id="Ellipse_4363" data-name="Ellipse 4363" cx="3.715" cy="3.715" r="3.715" transform="translate(1690.43 -448.674)" fill="#fff"/>
        <circle id="Ellipse_4364" data-name="Ellipse 4364" cx="2.342" cy="2.342" r="2.342" transform="translate(1691.803 -447.3)" fill="#17c878"/>
      </g>
      <g id="Group_96707" data-name="Group 96707">
        <circle id="Ellipse_4365" data-name="Ellipse 4365" cx="4.588" cy="4.588" r="4.588" transform="translate(1611.129 -449.546)" fill="#17c878"/>
        <circle id="Ellipse_4366" data-name="Ellipse 4366" cx="3.715" cy="3.715" r="3.715" transform="translate(1612.001 -448.674)" fill="#fff"/>
        <circle id="Ellipse_4367" data-name="Ellipse 4367" cx="2.342" cy="2.342" r="2.342" transform="translate(1613.375 -447.3)" fill="#17c878"/>
      </g>
      <g id="Group_96708" data-name="Group 96708">
        <circle id="Ellipse_4368" data-name="Ellipse 4368" cx="4.588" cy="4.588" r="4.588" transform="translate(1419.149 -358.918)" fill="#17c878"/>
        <circle id="Ellipse_4369" data-name="Ellipse 4369" cx="3.715" cy="3.715" r="3.715" transform="translate(1420.022 -358.046)" fill="#fff"/>
        <circle id="Ellipse_4370" data-name="Ellipse 4370" cx="2.342" cy="2.342" r="2.342" transform="translate(1421.395 -356.672)" fill="#17c878"/>
      </g>
      <g id="Group_96709" data-name="Group 96709">
        <circle id="Ellipse_4371" data-name="Ellipse 4371" cx="4.588" cy="4.588" r="4.588" transform="translate(1419.149 -321.26)" fill="#17c878"/>
        <circle id="Ellipse_4372" data-name="Ellipse 4372" cx="3.715" cy="3.715" r="3.715" transform="translate(1420.022 -320.388)" fill="#fff"/>
        <circle id="Ellipse_4373" data-name="Ellipse 4373" cx="2.342" cy="2.342" r="2.342" transform="translate(1421.395 -319.014)" fill="#17c878"/>
      </g>
      <g id="Group_96710" data-name="Group 96710">
        <circle id="Ellipse_4374" data-name="Ellipse 4374" cx="4.588" cy="4.588" r="4.588" transform="translate(1706.625 -471.354)" fill="#17c878"/>
        <circle id="Ellipse_4375" data-name="Ellipse 4375" cx="3.715" cy="3.715" r="3.715" transform="translate(1707.498 -470.482)" fill="#fff"/>
        <circle id="Ellipse_4376" data-name="Ellipse 4376" cx="2.342" cy="2.342" r="2.342" transform="translate(1708.871 -469.108)" fill="#17c878"/>
      </g>
      <g id="Group_96711" data-name="Group 96711">
        <circle id="Ellipse_4377" data-name="Ellipse 4377" cx="4.588" cy="4.588" r="4.588" transform="translate(1706.625 -427.738)" fill="#17c878"/>
        <circle id="Ellipse_4378" data-name="Ellipse 4378" cx="3.715" cy="3.715" r="3.715" transform="translate(1707.498 -426.865)" fill="#fff"/>
        <circle id="Ellipse_4379" data-name="Ellipse 4379" cx="2.342" cy="2.342" r="2.342" transform="translate(1708.871 -425.492)" fill="#17c878"/>
      </g>
      <text id="Gastos" transform="translate(1627.221 -439.698)" fill="#12263f" font-size="18" font-family="Roboto-Regular, Roboto"><tspan x="0" y="0">Gastos</tspan></text>
      <text id="Administración-2" data-name="Administración" transform="translate(1722.35 -461.506)" fill="#12263f" font-size="18" font-family="Roboto-Regular, Roboto"><tspan x="0" y="0">Administración</tspan></text>
      <text id="Ventas-2" data-name="Ventas" transform="translate(1722.35 -417.89)" fill="#12263f" font-size="18" font-family="Roboto-Regular, Roboto"><tspan x="0" y="0">Ventas</tspan></text>
      <g id="Group_96712" data-name="Group 96712">
        <text id="Bienes_tangibles_Bienes_intangibles_Dinero_Recurso_humano" data-name="Bienes tangibles
Bienes intangibles
Dinero
Recurso humano" transform="translate(1213.533 -253.795)" fill="#12263f" font-size="18" font-family="Roboto-Regular, Roboto"><tspan x="0" y="0">Bienes tangibles</tspan><tspan x="0" y="21.6">Bienes intangibles</tspan><tspan x="0" y="43.2">Dinero</tspan><tspan x="0" y="64.8">Recurso humano</tspan></text>
        <path id="comprobado" d="M1193.988-258.285l4.482,4.49,8.606-8.6-1.236-1.218-7.37,7.359-3.264-3.258Z" fill="#f1d54e"/>
        <path id="comprobado-2" data-name="comprobado" d="M1193.988-236.685l4.482,4.49,8.606-8.6-1.236-1.218-7.37,7.359-3.264-3.258Z" fill="#f1d54e"/>
        <path id="comprobado-3" data-name="comprobado" d="M1193.988-215.085l4.482,4.49,8.606-8.6-1.236-1.218-7.37,7.359-3.264-3.258Z" fill="#f1d54e"/>
        <path id="comprobado-4" data-name="comprobado" d="M1193.988-193.485l4.482,4.49,8.606-8.6-1.236-1.218-7.37,7.359-3.264-3.258Z" fill="#f1d54e"/>
        <text id="Materiales_Uso_de_equipos_Servicios_de_otras_empresas:_maquila_-_outsourcing" data-name="Materiales
Uso de equipos
Servicios de otras empresas: 
maquila - outsourcing" transform="translate(1419.189 -253.795)" fill="#12263f" font-size="18" font-family="Roboto-Regular, Roboto"><tspan x="0" y="0">Materiales</tspan><tspan x="0" y="21.6">Uso de equipos</tspan><tspan x="0" y="43.2">Servicios de otras empresas: </tspan><tspan x="0" y="64.8">maquila - outsourcing</tspan></text>
        <path id="comprobado-5" data-name="comprobado" d="M1399.644-258.285l4.482,4.49,8.606-8.6-1.236-1.218-7.37,7.359-3.264-3.258Z" fill="#f1d54e"/>
        <path id="comprobado-6" data-name="comprobado" d="M1399.644-236.685l4.482,4.49,8.606-8.6-1.236-1.218-7.37,7.359-3.264-3.258Z" fill="#f1d54e"/>
        <path id="comprobado-7" data-name="comprobado" d="M1399.644-215.085l4.482,4.49,8.606-8.6-1.236-1.218-7.37,7.359-3.264-3.258Z" fill="#f1d54e"/>
      </g>
    </g>
  </g>
</svg>
