<svg xmlns="http://www.w3.org/2000/svg" width="458.769" height="295.08" viewBox="0 0 458.769 295.08">
  <g id="t4-i4" transform="translate(-900 -2353)">
    <path id="Path_137886" data-name="Path 137886" d="M917.721,539.316c12.094-71.918-94.7-96.9-170.412-78.489-76.324,18.563-94.019-12.209-201.343-3.417-108.671,8.9-53.5,120.273-53.5,120.273s17.291,96.843,37.777,141.482c20.375,44.4,215.4,28.335,262.848,27.01,47.171-1.317,88.16,1.225,129.2-47.523C963.26,649.992,905.666,610.995,917.721,539.316Z" transform="translate(421.537 1898)" fill="#effcf6"/>
    <g id="Group_95513" data-name="Group 95513" transform="translate(709.632 2345.162)">
      <g id="Group_95475" data-name="Group 95475" transform="translate(454.791 165.287)">
        <g id="Group_95467" data-name="Group 95467" transform="translate(0 48.083)">
          <path id="Path_137659" data-name="Path 137659" d="M450.793,169.407c-29.548,0-53.5,12.739-53.5,28.457s23.952,28.458,53.5,28.458,53.5-12.743,53.5-28.458S480.337,169.407,450.793,169.407Z" transform="translate(-393.464 -144.068)" fill="#e84d76"/>
          <path id="Path_137660" data-name="Path 137660" d="M508.783,187.643c-.02-.081-.03-.158-.054-.241l-.012-.035a18.089,18.089,0,0,0-.615-1.892c-3.657-10.32-12.859-22.991-12.859-22.991l-1.174,8.533c-10.472-6.023-25.45-9.8-42.088-9.8-16.607,0-31.555,3.758-42.025,9.761l-1.242-8.5s-10,13.018-13.076,23.611l0,.014a16.912,16.912,0,0,0-.983,5.6c0,16.84,25.667,30.494,57.329,30.494s57.325-13.653,57.325-30.494A16.652,16.652,0,0,0,508.783,187.643Z" transform="translate(-394.652 -147.75)" fill="#ceb5b3"/>
          <path id="Path_137661" data-name="Path 137661" d="M448.973,151.93c-26.309,0-47.637,11.344-47.637,25.339s21.328,25.338,47.637,25.338,47.637-11.345,47.637-25.338S475.281,151.93,448.973,151.93Z" transform="translate(-391.645 -151.93)" fill="#ddc6c3"/>
          <path id="Path_137662" data-name="Path 137662" d="M442.161,153.832c-14.183,0-25.682,6.116-25.682,13.661s11.5,13.659,25.682,13.659,25.68-6.116,25.68-13.659S456.343,153.832,442.161,153.832Z" transform="translate(-384.833 -151.074)" fill="#ceb5b3"/>
          <path id="Path_137663" data-name="Path 137663" d="M470.145,171.579a27.463,27.463,0,0,1,5.24,13.684c.563,6.343-3.074,12.962-5.918,9.672-2-2.315-4.189-7.882-4.621-11.732C467.466,180.555,469.983,175.083,470.145,171.579Z" transform="translate(-363.074 -143.09)" fill="#a37d7c"/>
          <path id="Path_137664" data-name="Path 137664" d="M401.644,171.579a27.448,27.448,0,0,0-5.241,13.684c-.563,6.343,3.074,12.962,5.918,9.672,2-2.315,4.19-7.882,4.621-11.732C404.324,180.555,401.807,175.083,401.644,171.579Z" transform="translate(-393.89 -143.09)" fill="#a37d7c"/>
          <path id="Path_137665" data-name="Path 137665" d="M408.484,182.01s-3.293,6.933-3.981,10.135-.361,6.208,4.384,9.078,8.051,0,10.037-4.2a38.828,38.828,0,0,0,2.763-8.164,71.849,71.849,0,0,1-7.945-3.31A34.761,34.761,0,0,1,408.484,182.01Z" transform="translate(-390.343 -138.398)" fill="#a37d7c"/>
          <path id="Path_137666" data-name="Path 137666" d="M465.325,182.01s3.294,6.933,3.981,10.135.361,6.208-4.383,9.078-8.051,0-10.037-4.2a38.885,38.885,0,0,1-2.765-8.164,71.844,71.844,0,0,0,7.945-3.31A34.667,34.667,0,0,0,465.325,182.01Z" transform="translate(-368.798 -138.398)" fill="#a37d7c"/>
          <path id="Path_137667" data-name="Path 137667" d="M421.58,187.893s-1.876,7.5-2.539,11.309,2.105,6.049,7.284,6.458c5.518.436,8.569.358,9.12-5.159s.592-10.181.592-10.181A105.6,105.6,0,0,1,421.58,187.893Z" transform="translate(-383.724 -135.751)" fill="#a37d7c"/>
          <path id="Path_137668" data-name="Path 137668" d="M451.608,187.893s1.876,7.5,2.539,11.309-2.105,6.049-7.284,6.458c-5.518.436-8.569.358-9.12-5.159s-.591-10.181-.591-10.181A105.6,105.6,0,0,0,451.608,187.893Z" transform="translate(-375.533 -135.751)" fill="#a37d7c"/>
        </g>
        <g id="Group_95469" data-name="Group 95469" transform="translate(8.05 30.908)">
          <path id="Path_137669" data-name="Path 137669" d="M498.311,171.394c-.019-.071-.026-.136-.046-.207l-.01-.03a15.4,15.4,0,0,0-.529-1.625c-3.142-8.873-11.054-19.763-11.054-19.763l-1.008,7.335c-9-5.179-21.877-8.422-36.18-8.422-14.275,0-27.126,3.23-36.125,8.39l-1.069-7.3s-8.593,11.19-11.239,20.3l0,.012a14.549,14.549,0,0,0-.844,4.816c0,14.475,22.063,26.212,49.28,26.212s49.277-11.737,49.277-26.212A14.352,14.352,0,0,0,498.311,171.394Z" transform="translate(-400.204 -136.217)" fill="#ceb5b3"/>
          <path id="Path_137670" data-name="Path 137670" d="M446.9,140.693c-22.615,0-40.949,9.752-40.949,21.783s18.334,21.781,40.949,21.781,40.949-9.753,40.949-21.781S469.513,140.693,446.9,140.693Z" transform="translate(-397.62 -139.81)" fill="#ddc6c3"/>
          <path id="Path_137671" data-name="Path 137671" d="M441.042,142.328c-12.192,0-22.076,5.257-22.076,11.743s9.884,11.742,22.076,11.742,22.076-5.257,22.076-11.742S453.234,142.328,441.042,142.328Z" transform="translate(-391.764 -139.074)" fill="#ceb5b3"/>
          <g id="Group_95468" data-name="Group 95468" transform="translate(12.953)">
            <path id="Path_137672" data-name="Path 137672" d="M445.463,179.555c-20.03,0-36.325-8.853-36.325-19.736s16.3-19.736,36.325-19.736,36.324,8.853,36.324,19.736S465.493,179.555,445.463,179.555Zm0-37.705c-19.056,0-34.559,8.061-34.559,17.97s15.5,17.97,34.559,17.97,34.558-8.061,34.558-17.97S464.519,141.85,445.463,141.85Z" transform="translate(-409.138 -140.084)" fill="#efdcda"/>
          </g>
          <path id="Path_137673" data-name="Path 137673" d="M465.1,157.584a23.593,23.593,0,0,1,4.5,11.763c.483,5.452-2.642,11.141-5.088,8.314-1.72-1.989-3.6-6.774-3.971-10.084A18.462,18.462,0,0,0,465.1,157.584Z" transform="translate(-373.059 -132.211)" fill="#a37d7c"/>
          <path id="Path_137674" data-name="Path 137674" d="M406.213,157.584a23.593,23.593,0,0,0-4.5,11.763c-.483,5.452,2.642,11.141,5.088,8.314,1.721-1.989,3.6-6.774,3.973-10.084A18.466,18.466,0,0,1,406.213,157.584Z" transform="translate(-399.55 -132.211)" fill="#a37d7c"/>
          <path id="Path_137675" data-name="Path 137675" d="M412.094,166.55s-2.832,5.96-3.423,8.712-.31,5.337,3.768,7.8,6.922,0,8.628-3.607a33.383,33.383,0,0,0,2.376-7.017,61.691,61.691,0,0,1-6.83-2.846A29.768,29.768,0,0,1,412.094,166.55Z" transform="translate(-396.501 -128.178)" fill="#a37d7c"/>
          <path id="Path_137676" data-name="Path 137676" d="M460.954,166.55s2.832,5.96,3.423,8.712.31,5.337-3.768,7.8-6.92,0-8.628-3.607a33.381,33.381,0,0,1-2.376-7.017,61.686,61.686,0,0,0,6.83-2.846A29.771,29.771,0,0,0,460.954,166.55Z" transform="translate(-377.98 -128.178)" fill="#a37d7c"/>
          <path id="Path_137677" data-name="Path 137677" d="M423.349,171.607s-1.612,6.448-2.181,9.723,1.808,5.2,6.261,5.55c4.743.374,7.365.309,7.839-4.435s.509-8.75.509-8.75A90.853,90.853,0,0,1,423.349,171.607Z" transform="translate(-390.81 -125.903)" fill="#a37d7c"/>
          <path id="Path_137678" data-name="Path 137678" d="M449.163,171.607s1.612,6.448,2.182,9.723-1.809,5.2-6.262,5.55c-4.743.374-7.365.309-7.839-4.435s-.507-8.75-.507-8.75A90.846,90.846,0,0,0,449.163,171.607Z" transform="translate(-383.769 -125.903)" fill="#a37d7c"/>
        </g>
        <g id="Group_95470" data-name="Group 95470" transform="translate(9.691)">
          <path id="Path_137679" data-name="Path 137679" d="M444.676,156.735l6.842-13.278-41.93-24.271a3.065,3.065,0,0,0-3.345.165c-2.71,1.564-4.906,5.76-4.906,9.373,0,1.973.658,3.358,1.693,3.96h0c.041.025.081.051.123.071Z" transform="translate(-401.336 -118.766)" fill="#baa2a0"/>
          <path id="Path_137680" data-name="Path 137680" d="M430.343,145.522c0,3.613,2.2,5.273,4.906,3.709s4.906-5.76,4.906-9.373-2.2-5.273-4.906-3.709S430.343,141.909,430.343,145.522Z" transform="translate(-388.287 -111.211)" fill="#ceb5b3"/>
        </g>
        <g id="Group_95471" data-name="Group 95471" transform="translate(45.904 18.156)">
          <path id="Path_137681" data-name="Path 137681" d="M437.086,131.7c-.025-.013-.046-.029-.071-.042l-.007,0h0a4.252,4.252,0,0,0-4.139.412c-3.6,2.082-6.555,7.719-6.555,12.527v14.873l8.8,5.1,11.074-27.579Z" transform="translate(-426.313 -131.289)" fill="#d64370"/>
          <path id="Path_137682" data-name="Path 137682" d="M432.382,162.986V148.113c0-4.808,2.951-10.445,6.556-12.527s6.555.149,6.555,4.957v14.871Z" transform="translate(-423.583 -129.707)" fill="#e84d76"/>
        </g>
        <g id="Group_95472" data-name="Group 95472" transform="translate(57.325 27.589)">
          <path id="Path_137683" data-name="Path 137683" d="M477.53,175.764l6.843-13.278-41.93-24.272a3.073,3.073,0,0,0-3.346.165c-2.71,1.564-4.906,5.762-4.906,9.375,0,1.973.658,3.358,1.695,3.958h0c.042.023.081.049.123.071Z" transform="translate(-434.19 -137.795)" fill="#baa2a0"/>
          <path id="Path_137684" data-name="Path 137684" d="M463.2,164.552c0,3.613,2.2,5.273,4.906,3.709s4.906-5.762,4.906-9.375-2.2-5.273-4.906-3.709S463.2,160.939,463.2,164.552Z" transform="translate(-421.141 -130.24)" fill="#ceb5b3"/>
        </g>
        <g id="Group_95473" data-name="Group 95473" transform="translate(8.549 56.555)">
          <path id="Path_137685" data-name="Path 137685" d="M453.249,195.8c-.033-.393-.687-.558-.75-.1a12.957,12.957,0,0,1-.584,2.534,22.33,22.33,0,0,0-1.048,2.378c-.081.361.335.792.692.531C453.023,200.067,453.39,197.482,453.249,195.8Z" transform="translate(-377.916 -140.836)" fill="#baa2a0"/>
          <path id="Path_137686" data-name="Path 137686" d="M458.091,197.9c-.69-.329-1.482-.148-2.212-.394a5.1,5.1,0,0,1-1.071-.554c-.281-.177-.592-.3-.857-.468a.2.2,0,0,0-.29.223,2.12,2.12,0,0,0,.547,1.206,3.818,3.818,0,0,0,1.274.829c.8.344,2.033.621,2.707-.093A.482.482,0,0,0,458.091,197.9Z" transform="translate(-376.657 -140.373)" fill="#baa2a0"/>
          <path id="Path_137687" data-name="Path 137687" d="M434.5,197.737a.173.173,0,0,0-.313-.041,8.961,8.961,0,0,1-2.053,3.193c-.455.4-1.882,1.134-.938,1.788a.618.618,0,0,0,.625,0A5.281,5.281,0,0,0,434.5,197.737Z" transform="translate(-386.902 -139.85)" fill="#baa2a0"/>
          <path id="Path_137688" data-name="Path 137688" d="M418.557,200.078A17.9,17.9,0,0,1,416.8,198.7a3.852,3.852,0,0,1-.944-2.347.382.382,0,0,0-.764,0,4.294,4.294,0,0,0,.751,2.942,3.091,3.091,0,0,0,2.41,1.508A.432.432,0,0,0,418.557,200.078Z" transform="translate(-394.015 -140.581)" fill="#baa2a0"/>
          <path id="Path_137689" data-name="Path 137689" d="M403.8,188.755a13.025,13.025,0,0,1-1.3,1.256,5.3,5.3,0,0,1-1.695.66.358.358,0,0,0,0,.686,2.807,2.807,0,0,0,2.411-.355,2.586,2.586,0,0,0,1.337-1.937A.444.444,0,0,0,403.8,188.755Z" transform="translate(-400.548 -143.887)" fill="#baa2a0"/>
          <path id="Path_137690" data-name="Path 137690" d="M466.414,188.682a.379.379,0,0,0-.7.19c-.067.8.113,1.592.02,2.4a16.965,16.965,0,0,0-.232,2.21.315.315,0,0,0,.532.22A4.24,4.24,0,0,0,466.414,188.682Z" transform="translate(-371.327 -143.946)" fill="#baa2a0"/>
          <path id="Path_137691" data-name="Path 137691" d="M449.5,159.926a3.549,3.549,0,0,0-2.256-2.149c-.261-.039-.529.212-.365.476a10.769,10.769,0,0,1,1.482,2.292c.244.751.106,1.606.6,2.247a.365.365,0,0,0,.5,0C450.311,162.133,449.873,160.736,449.5,159.926Z" transform="translate(-379.727 -157.773)" fill="#ceb5b3"/>
          <path id="Path_137692" data-name="Path 137692" d="M447.188,160.47a9.346,9.346,0,0,1-1.647,2.61,6.426,6.426,0,0,1-1.177.993c-.4.264-.776.383-1,.816a.476.476,0,0,0,.281.692c1.067.23,2.207-1.016,2.808-1.778a5.144,5.144,0,0,0,1.153-3.22C447.606,160.375,447.28,160.259,447.188,160.47Z" transform="translate(-381.314 -156.61)" fill="#ceb5b3"/>
        </g>
        <g id="Group_95474" data-name="Group 95474" transform="translate(11.894 14.22)">
          <path id="Path_137693" data-name="Path 137693" d="M435.9,147.653c-4.815-2.968-10.372-6.305-15.853-9.588-5.521-3.307-11.2-7.028-17.149-9.488-.043-.019-.061.046-.029.07,5.222,3.816,26.395,16.127,32.625,19.43C436.421,148.566,436.2,147.837,435.9,147.653Z" transform="translate(-402.856 -128.574)" fill="#a37d7c"/>
          <path id="Path_137694" data-name="Path 137694" d="M461.376,162.132c-3.048-2.273-6.64-3.891-9.93-5.8-3.411-1.978-6.787-4.277-10.478-5.686-.1-.039-.2.122-.112.191,3.307,2.6,7.283,4.4,10.944,6.459,3.113,1.75,6.123,3.829,9.424,5.192C461.447,162.584,461.538,162.254,461.376,162.132Z" transform="translate(-385.776 -118.645)" fill="#a37d7c"/>
          <path id="Path_137695" data-name="Path 137695" d="M477.729,176.577c-.051-.075-.036-.083,0,0,3.187,7.13,1.3,14.629-3.561,20.578-3.838,4.692-8.244,7.486-13.613,10.008-.218.1-.064.449.161.383,6.941-2.037,12.16-6.645,15.883-12.839C479.759,189.452,481.476,181.964,477.729,176.577Z" transform="translate(-376.945 -107.005)" fill="#a37d7c"/>
          <path id="Path_137696" data-name="Path 137696" d="M433.949,176.141c-12.2-3.394-24.962-6.39-27.806-19.808-.058-.273-.289-.1-.268.138,1.177,13.134,16.789,18.532,28.043,19.9C434.049,176.382,434.07,176.174,433.949,176.141Z" transform="translate(-401.498 -116.148)" fill="#fff"/>
          <path id="Path_137697" data-name="Path 137697" d="M420.048,187c-3.033-1.561-6.2-2.775-9.1-4.608a36.148,36.148,0,0,1-7.784-7.2c-.029-.033-.081.01-.059.046,3.423,6.116,10.426,9.808,16.8,12.1C420.1,187.409,420.234,187.1,420.048,187Z" transform="translate(-402.747 -107.606)" fill="#fff"/>
        </g>
      </g>
      <g id="Group_95500" data-name="Group 95500" transform="translate(417.06 15.357)">
        <g id="Group_95486" data-name="Group 95486" transform="translate(0.317)">
          <g id="Group_95479" data-name="Group 95479" transform="translate(0 38.304)">
            <g id="Group_95476" data-name="Group 95476" transform="translate(0 0)">
              <path id="Path_137698" data-name="Path 137698" d="M438.181,127.036l20.03-46.512-67.2-38.748L368.847,54.57V83.232c0,2.575.88,4.419,2.256,5.175a.128.128,0,0,1,.068,0Z" transform="translate(-368.847 -41.776)" fill="#ceb5b3"/>
              <path id="Path_137699" data-name="Path 137699" d="M437.359,68.5V97.164c0,4.637-2.846,10.074-6.324,12.082l-9.513,5.492c-3.478,2.008-6.323-.144-6.323-4.78V81.295Z" transform="translate(-347.994 -29.753)" fill="#ddc6c3"/>
              <path id="Path_137700" data-name="Path 137700" d="M458.211,80.524l-67.2-38.748L368.847,54.57l67.2,38.748Z" transform="translate(-368.847 -41.776)" fill="#ead8d6"/>
            </g>
            <g id="Group_95477" data-name="Group 95477" transform="translate(2.006 1.141)">
              <path id="Path_137701" data-name="Path 137701" d="M381.1,54.342c1.838-2.3,5.179-4.306,7.542-2.721a4.994,4.994,0,0,1,5-1.618,5.342,5.342,0,0,1,3.533,3.407,2.326,2.326,0,0,1,2.507-.17,2.631,2.631,0,0,1,1.244,2.885,2.858,2.858,0,0,1,2.734.7,2.928,2.928,0,0,1,.89,2.234,5.389,5.389,0,0,1,4.931-.37,4.707,4.707,0,0,1,2.268,2.955,2.638,2.638,0,0,1,2.244-.335,3.01,3.01,0,0,1,2.03,2.563,3.083,3.083,0,0,1,4.174-.1,4.59,4.59,0,0,1,1.238,4.067c1.432-.844,3.488-1.25,4.656-.045a3.594,3.594,0,0,1,.825,2.173,4.741,4.741,0,0,1,4.482.767,6.022,6.022,0,0,1,1.66,2.34,3.052,3.052,0,0,1,3.675,1.88,4.684,4.684,0,0,1,5.237,1.715,5.9,5.9,0,0,1,.625,2.8,3.443,3.443,0,0,1,2.63.3c.7.283.478.492,1.174.567.895.094,1.934-.507,2.95-.381a5.3,5.3,0,0,1,3.349,1.721l2.884-1.666L390.676,42.563l-20.446,11.8,4.1,2.366a6.264,6.264,0,0,1,1.438-1.753A4.487,4.487,0,0,1,381.1,54.342Z" transform="translate(-370.23 -42.563)" fill="#ceb5b3"/>
              <path id="Path_137702" data-name="Path 137702" d="M448.078,77.7c-1.016-.126-2.056.476-2.95.381-.7-.075-.474-.284-1.174-.567a3.437,3.437,0,0,0-2.63-.3,5.9,5.9,0,0,0-.625-2.8,4.684,4.684,0,0,0-5.237-1.715,3.052,3.052,0,0,0-3.675-1.88,6.022,6.022,0,0,0-1.66-2.34,4.741,4.741,0,0,0-4.482-.767,3.594,3.594,0,0,0-.825-2.173c-1.167-1.2-3.223-.8-4.656.045a4.59,4.59,0,0,0-1.238-4.067,3.083,3.083,0,0,0-4.174.1,3.01,3.01,0,0,0-2.03-2.563,2.638,2.638,0,0,0-2.244.335,4.707,4.707,0,0,0-2.268-2.955,5.389,5.389,0,0,0-4.931.37,2.928,2.928,0,0,0-.89-2.234,2.858,2.858,0,0,0-2.734-.7,2.631,2.631,0,0,0-1.244-2.885,2.326,2.326,0,0,0-2.507.17,5.342,5.342,0,0,0-3.533-3.407,4.994,4.994,0,0,0-5,1.618c-2.363-1.585-5.7.42-7.542,2.721a4.487,4.487,0,0,0-5.336.639,6.264,6.264,0,0,0-1.438,1.753l60.809,35.088,17.561-10.139A5.3,5.3,0,0,0,448.078,77.7Z" transform="translate(-368.958 -40.301)" fill="#f7c169"/>
            </g>
            <g id="Group_95478" data-name="Group 95478" transform="translate(16.866 11.992)">
              <path id="Path_137703" data-name="Path 137703" d="M386.163,50.247a1.21,1.21,0,0,0-1.5.142,1.053,1.053,0,0,0-.5.806c-.043.976,1,1.135,1.686.758C386.513,51.587,386.93,50.789,386.163,50.247Z" transform="translate(-378.825 -50.047)" fill="#e8ac54"/>
              <path id="Path_137704" data-name="Path 137704" d="M400.421,60.287a1.208,1.208,0,0,0-1.5.142,1.053,1.053,0,0,0-.5.806c-.044.976,1,1.135,1.688.758C400.771,61.626,401.188,60.83,400.421,60.287Z" transform="translate(-372.411 -45.53)" fill="#e8ac54"/>
              <path id="Path_137705" data-name="Path 137705" d="M416.37,72.232a1.21,1.21,0,0,0-1.5.142,1.053,1.053,0,0,0-.5.806c-.044.977,1,1.135,1.688.758C416.72,73.572,417.137,72.774,416.37,72.232Z" transform="translate(-365.236 -40.156)" fill="#e8ac54"/>
              <path id="Path_137706" data-name="Path 137706" d="M382.263,53.072c-.168-.542-.94-1.05-1.476-.715-.022.013-.026.036-.045.052a.272.272,0,0,0-.219.171,1.3,1.3,0,0,0,.863,1.461A.739.739,0,0,0,382.263,53.072Z" transform="translate(-380.48 -49.056)" fill="#e8ac54"/>
              <path id="Path_137707" data-name="Path 137707" d="M392.99,60.373c-.167-.544-.938-1.05-1.474-.715-.022.013-.028.036-.046.051a.279.279,0,0,0-.219.173,1.3,1.3,0,0,0,.863,1.461A.739.739,0,0,0,392.99,60.373Z" transform="translate(-375.654 -45.771)" fill="#e8ac54"/>
              <path id="Path_137708" data-name="Path 137708" d="M404.816,67.48c-.167-.542-.938-1.05-1.476-.715-.02.013-.026.036-.045.052a.272.272,0,0,0-.219.171,1.307,1.307,0,0,0,.863,1.463A.74.74,0,0,0,404.816,67.48Z" transform="translate(-370.334 -42.574)" fill="#e8ac54"/>
              <path id="Path_137709" data-name="Path 137709" d="M413.954,65.569c-.167-.542-.938-1.05-1.474-.715-.022.013-.028.036-.046.052a.274.274,0,0,0-.219.171,1.3,1.3,0,0,0,.863,1.461A.739.739,0,0,0,413.954,65.569Z" transform="translate(-366.223 -43.434)" fill="#e8ac54"/>
              <path id="Path_137710" data-name="Path 137710" d="M384.947,54.552c-.178-.773-1.224-.607-1.746-.332-.035.017-.048.051-.073.078a.643.643,0,0,0-.377.406c-.231.708.476.9,1.013.874C384.335,55.548,385.12,55.3,384.947,54.552Z" transform="translate(-379.478 -48.273)" fill="#e8ac54"/>
              <path id="Path_137711" data-name="Path 137711" d="M390.74,59.016c-.178-.774-1.222-.609-1.744-.333-.035.019-.049.052-.074.078a.647.647,0,0,0-.377.406c-.231.708.477.9,1.015.876C390.128,60.01,390.913,59.764,390.74,59.016Z" transform="translate(-376.871 -46.265)" fill="#e8ac54"/>
              <path id="Path_137712" data-name="Path 137712" d="M402.686,60.1c-.178-.774-1.224-.609-1.746-.333-.035.017-.048.051-.072.078a.64.64,0,0,0-.377.406c-.232.708.476.9,1.013.874C402.073,61.1,402.857,60.847,402.686,60.1Z" transform="translate(-371.497 -45.777)" fill="#e8ac54"/>
              <path id="Path_137713" data-name="Path 137713" d="M407.708,63.816c-.178-.773-1.222-.609-1.744-.333-.035.019-.049.052-.074.078a.645.645,0,0,0-.375.406c-.232.709.476.9,1.013.876C407.1,64.812,407.88,64.564,407.708,63.816Z" transform="translate(-369.238 -44.106)" fill="#e8ac54"/>
              <path id="Path_137714" data-name="Path 137714" d="M416.658,66.018c-.178-.773-1.224-.607-1.744-.333-.036.019-.049.052-.074.078a.649.649,0,0,0-.377.407c-.23.708.476.9,1.013.874C416.046,67.014,416.831,66.766,416.658,66.018Z" transform="translate(-365.212 -43.114)" fill="#e8ac54"/>
              <path id="Path_137715" data-name="Path 137715" d="M391.687,53.264a1.064,1.064,0,0,0-1.577.054.656.656,0,0,0-.4.458c-.142.742.7,1.109,1.3.924C391.631,54.509,392.2,53.861,391.687,53.264Z" transform="translate(-376.334 -48.746)" fill="#e8ac54"/>
              <path id="Path_137716" data-name="Path 137716" d="M397.66,62.88a1.066,1.066,0,0,0-1.579.054.663.663,0,0,0-.4.458c-.141.742.7,1.109,1.3.924C397.6,64.124,398.175,63.477,397.66,62.88Z" transform="translate(-373.647 -44.42)" fill="#e8ac54"/>
              <path id="Path_137717" data-name="Path 137717" d="M409.225,69.871a1.063,1.063,0,0,0-1.577.054.659.659,0,0,0-.4.457c-.141.744.7,1.109,1.3.924C409.169,71.115,409.74,70.467,409.225,69.871Z" transform="translate(-368.444 -41.275)" fill="#e8ac54"/>
              <path id="Path_137718" data-name="Path 137718" d="M420.931,69.871a1.063,1.063,0,0,0-1.577.054.654.654,0,0,0-.4.457c-.142.744.7,1.109,1.3.924C420.875,71.115,421.447,70.467,420.931,69.871Z" transform="translate(-363.178 -41.275)" fill="#e8ac54"/>
              <path id="Path_137719" data-name="Path 137719" d="M397.958,55.756a1.063,1.063,0,0,0-1.577.054.66.66,0,0,0-.4.457c-.142.744.7,1.111,1.3.925C397.9,57,398.474,56.353,397.958,55.756Z" transform="translate(-373.513 -47.625)" fill="#e8ac54"/>
            </g>
          </g>
          <g id="Group_95480" data-name="Group 95480" transform="translate(66.844 38.677)">
            <path id="Path_137720" data-name="Path 137720" d="M424.956,46.215l3.19-1.841a6.511,6.511,0,0,1,3.207-.973,3.9,3.9,0,0,1,1.978.512c1.766,1.019,2.776,3.448,2.776,6.662V80.192l1.364.216V50.574c0-3.716-1.261-6.574-3.458-7.842-1.854-1.071-4.18-.906-6.549.461l-3.19,1.84C419.133,48,414.95,55.968,414.95,62.789v29.3h1.363v-29.3C416.313,56.4,420.191,48.966,424.956,46.215Z" transform="translate(-414.95 -42.033)" fill="#efdcda"/>
          </g>
          <g id="Group_95481" data-name="Group 95481" transform="translate(44.394 25.514)">
            <path id="Path_137721" data-name="Path 137721" d="M409.473,37.135l3.188-1.84a6.5,6.5,0,0,1,3.207-.974,3.91,3.91,0,0,1,1.979.512c1.764,1.019,2.775,3.448,2.775,6.664V71.115l1.364.834V41.5c0-3.716-1.26-6.575-3.458-7.844-1.854-1.07-4.18-.906-6.549.461l-3.19,1.841c-5.141,2.969-9.324,10.935-9.324,17.757V83.639l1.364.974v-30.9C400.83,47.324,404.707,39.887,409.473,37.135Z" transform="translate(-399.466 -32.954)" fill="#efdcda"/>
          </g>
          <g id="Group_95482" data-name="Group 95482" transform="translate(22.069 12.718)">
            <path id="Path_137722" data-name="Path 137722" d="M394.075,28.31l3.188-1.841a6.511,6.511,0,0,1,3.207-.973,3.91,3.91,0,0,1,1.979.512c1.765,1.019,2.775,3.448,2.775,6.662V62.29l1.364.822V32.67c0-3.716-1.26-6.574-3.458-7.842-1.854-1.071-4.18-.906-6.549.461l-3.19,1.841c-5.141,2.968-9.324,10.933-9.324,17.755V74.672l1.364.628V44.885C385.432,38.5,389.309,31.062,394.075,28.31Z" transform="translate(-384.068 -24.129)" fill="#efdcda"/>
          </g>
          <g id="Group_95483" data-name="Group 95483" transform="translate(0)">
            <path id="Path_137723" data-name="Path 137723" d="M378.853,19.538l3.19-1.841a6.506,6.506,0,0,1,3.206-.973,3.9,3.9,0,0,1,1.979.512C388.992,18.255,390,20.684,390,23.9V54.8l1.363-.451V23.9c0-3.716-1.26-6.574-3.456-7.842-1.854-1.071-4.181-.906-6.551.461l-3.188,1.841c-5.141,2.968-9.324,10.933-9.324,17.755V66.455l1.363.561v-30.9C370.21,29.727,374.087,22.29,378.853,19.538Z" transform="translate(-368.847 -15.357)" fill="#efdcda"/>
          </g>
          <g id="Group_95484" data-name="Group 95484" transform="translate(4.037 8.262)">
            <rect id="Rectangle_32416" data-name="Rectangle 32416" width="1.385" height="77.576" transform="matrix(0.499, -0.866, 0.866, 0.499, 0, 1.2)" fill="#efdcda"/>
          </g>
          <g id="Group_95485" data-name="Group 95485" transform="translate(18.16 0.503)">
            <path id="Path_137724" data-name="Path 137724" d="M448.427,55.776,381.372,16.9l.691-1.2,67.055,38.872Z" transform="translate(-381.372 -15.704)" fill="#efdcda"/>
          </g>
        </g>
        <g id="Group_95497" data-name="Group 95497" transform="translate(72.582 41.401)">
          <g id="Group_95490" data-name="Group 95490" transform="translate(0 38.304)">
            <g id="Group_95487" data-name="Group 95487">
              <path id="Path_137725" data-name="Path 137725" d="M488.023,155.589l20.03-46.51-67.2-38.748-22.16,12.794v28.663c0,2.575.88,4.419,2.256,5.175a.128.128,0,0,1,.068,0Z" transform="translate(-418.689 -70.33)" fill="#ceb5b3"/>
              <path id="Path_137726" data-name="Path 137726" d="M487.2,97.056v28.663c0,4.637-2.846,10.074-6.323,12.082l-9.513,5.492c-3.478,2.008-6.324-.144-6.324-4.78V109.85Z" transform="translate(-397.837 -58.308)" fill="#ddc6c3"/>
              <path id="Path_137727" data-name="Path 137727" d="M508.053,109.079l-67.2-38.748-22.16,12.794,67.2,38.748Z" transform="translate(-418.689 -70.331)" fill="#ead8d6"/>
            </g>
            <g id="Group_95488" data-name="Group 95488" transform="translate(2.005 1.142)">
              <path id="Path_137728" data-name="Path 137728" d="M430.945,82.9c1.84-2.3,5.179-4.306,7.542-2.721a4.992,4.992,0,0,1,5-1.618,5.333,5.333,0,0,1,3.533,3.407,2.325,2.325,0,0,1,2.508-.17,2.631,2.631,0,0,1,1.243,2.884,2.858,2.858,0,0,1,2.734.7,2.929,2.929,0,0,1,.892,2.234,5.389,5.389,0,0,1,4.931-.37,4.711,4.711,0,0,1,2.266,2.953,2.643,2.643,0,0,1,2.244-.333,3.011,3.011,0,0,1,2.03,2.563,3.081,3.081,0,0,1,4.174-.1,4.586,4.586,0,0,1,1.238,4.067c1.434-.844,3.488-1.25,4.656-.046a3.6,3.6,0,0,1,.825,2.175,4.74,4.74,0,0,1,4.482.767,6.011,6.011,0,0,1,1.66,2.34,3.053,3.053,0,0,1,3.677,1.88,4.683,4.683,0,0,1,5.235,1.715,5.9,5.9,0,0,1,.626,2.8,3.434,3.434,0,0,1,2.629.3c.7.283.478.492,1.174.567.895.094,1.936-.509,2.951-.381a5.292,5.292,0,0,1,3.349,1.721l2.885-1.666L440.518,71.118l-20.446,11.8,4.1,2.365a6.3,6.3,0,0,1,1.437-1.751A4.487,4.487,0,0,1,430.945,82.9Z" transform="translate(-420.072 -71.118)" fill="#ceb5b3"/>
              <path id="Path_137729" data-name="Path 137729" d="M497.919,106.256c-1.015-.128-2.056.476-2.951.381-.7-.075-.474-.284-1.174-.567a3.434,3.434,0,0,0-2.629-.3,5.9,5.9,0,0,0-.626-2.8,4.683,4.683,0,0,0-5.235-1.715,3.053,3.053,0,0,0-3.677-1.88,6.011,6.011,0,0,0-1.66-2.34,4.74,4.74,0,0,0-4.482-.767,3.6,3.6,0,0,0-.825-2.175c-1.167-1.2-3.222-.8-4.656.046a4.586,4.586,0,0,0-1.238-4.067,3.081,3.081,0,0,0-4.174.1,3.011,3.011,0,0,0-2.03-2.563,2.643,2.643,0,0,0-2.244.333,4.711,4.711,0,0,0-2.266-2.953,5.389,5.389,0,0,0-4.931.37,2.929,2.929,0,0,0-.892-2.234,2.859,2.859,0,0,0-2.734-.7,2.631,2.631,0,0,0-1.243-2.884,2.325,2.325,0,0,0-2.508.17,5.333,5.333,0,0,0-3.533-3.407,4.992,4.992,0,0,0-5,1.618c-2.363-1.585-5.7.42-7.542,2.721a4.487,4.487,0,0,0-5.336.639,6.3,6.3,0,0,0-1.437,1.751l60.808,35.09,17.561-10.139A5.292,5.292,0,0,0,497.919,106.256Z" transform="translate(-418.8 -68.857)" fill="#f7c169"/>
            </g>
            <g id="Group_95489" data-name="Group 95489" transform="translate(16.866 11.992)">
              <path id="Path_137730" data-name="Path 137730" d="M436.005,78.8a1.21,1.21,0,0,0-1.5.142,1.053,1.053,0,0,0-.5.806c-.043.976,1,1.135,1.688.758C436.355,80.14,436.772,79.344,436.005,78.8Z" transform="translate(-428.667 -78.602)" fill="#e8ac54"/>
              <path id="Path_137731" data-name="Path 137731" d="M450.265,88.841a1.212,1.212,0,0,0-1.5.144,1.051,1.051,0,0,0-.5.806c-.044.976,1,1.135,1.688.758C450.613,90.181,451.03,89.385,450.265,88.841Z" transform="translate(-422.253 -74.085)" fill="#e8ac54"/>
              <path id="Path_137732" data-name="Path 137732" d="M466.214,100.787a1.212,1.212,0,0,0-1.5.142,1.053,1.053,0,0,0-.5.806c-.044.976,1,1.135,1.688.758C466.562,102.125,466.979,101.329,466.214,100.787Z" transform="translate(-415.078 -68.711)" fill="#e8ac54"/>
              <path id="Path_137733" data-name="Path 137733" d="M432.105,81.627c-.167-.542-.938-1.05-1.476-.715-.02.013-.026.036-.045.052a.272.272,0,0,0-.219.171,1.3,1.3,0,0,0,.863,1.461A.739.739,0,0,0,432.105,81.627Z" transform="translate(-430.322 -77.611)" fill="#e8ac54"/>
              <path id="Path_137734" data-name="Path 137734" d="M442.833,88.927c-.168-.542-.94-1.05-1.476-.713-.022.013-.026.036-.046.051a.274.274,0,0,0-.218.173,1.3,1.3,0,0,0,.863,1.461A.74.74,0,0,0,442.833,88.927Z" transform="translate(-425.496 -74.326)" fill="#e8ac54"/>
              <path id="Path_137735" data-name="Path 137735" d="M454.658,96.035c-.167-.542-.938-1.05-1.475-.715-.022.013-.028.036-.046.052a.274.274,0,0,0-.219.171,1.3,1.3,0,0,0,.863,1.461A.739.739,0,0,0,454.658,96.035Z" transform="translate(-420.176 -71.129)" fill="#e8ac54"/>
              <path id="Path_137736" data-name="Path 137736" d="M463.8,94.124c-.168-.542-.94-1.05-1.476-.715-.022.013-.026.036-.046.052a.272.272,0,0,0-.217.171,1.3,1.3,0,0,0,.863,1.461A.739.739,0,0,0,463.8,94.124Z" transform="translate(-416.065 -71.989)" fill="#e8ac54"/>
              <path id="Path_137737" data-name="Path 137737" d="M434.789,83.107c-.178-.773-1.222-.607-1.744-.333-.035.019-.049.052-.074.078a.649.649,0,0,0-.377.407c-.23.708.477.9,1.013.874C434.177,84.1,434.962,83.855,434.789,83.107Z" transform="translate(-429.32 -76.828)" fill="#e8ac54"/>
              <path id="Path_137738" data-name="Path 137738" d="M440.583,87.571c-.178-.774-1.224-.609-1.746-.333-.035.019-.048.052-.072.078a.64.64,0,0,0-.377.406c-.232.708.476.9,1.013.876C439.97,88.565,440.754,88.317,440.583,87.571Z" transform="translate(-426.714 -74.82)" fill="#e8ac54"/>
              <path id="Path_137739" data-name="Path 137739" d="M452.528,88.654c-.178-.773-1.224-.607-1.744-.332-.036.017-.049.051-.074.078a.643.643,0,0,0-.377.406c-.231.708.476.9,1.013.874C451.916,89.65,452.7,89.4,452.528,88.654Z" transform="translate(-421.34 -74.332)" fill="#e8ac54"/>
              <path id="Path_137740" data-name="Path 137740" d="M457.551,92.371c-.178-.774-1.224-.609-1.746-.333-.035.019-.048.052-.073.078a.647.647,0,0,0-.377.406c-.232.708.476.9,1.013.876C456.939,93.365,457.722,93.119,457.551,92.371Z" transform="translate(-419.08 -72.661)" fill="#e8ac54"/>
              <path id="Path_137741" data-name="Path 137741" d="M466.5,94.574c-.178-.774-1.222-.607-1.744-.333-.035.019-.049.052-.074.078a.65.65,0,0,0-.377.406c-.231.709.477.9,1.015.876C465.888,95.57,466.673,95.322,466.5,94.574Z" transform="translate(-415.054 -71.67)" fill="#e8ac54"/>
              <path id="Path_137742" data-name="Path 137742" d="M441.529,81.819a1.064,1.064,0,0,0-1.577.054.659.659,0,0,0-.4.458c-.142.742.7,1.109,1.3.924S442.045,82.416,441.529,81.819Z" transform="translate(-426.176 -77.301)" fill="#e8ac54"/>
              <path id="Path_137743" data-name="Path 137743" d="M447.5,91.435a1.063,1.063,0,0,0-1.577.054.656.656,0,0,0-.4.458c-.142.742.7,1.109,1.3.924C447.446,92.679,448.017,92.032,447.5,91.435Z" transform="translate(-423.489 -72.975)" fill="#e8ac54"/>
              <path id="Path_137744" data-name="Path 137744" d="M459.067,98.425a1.064,1.064,0,0,0-1.577.054.656.656,0,0,0-.4.458c-.142.742.7,1.109,1.3.924C459.011,99.67,459.583,99.022,459.067,98.425Z" transform="translate(-418.287 -69.83)" fill="#e8ac54"/>
              <path id="Path_137745" data-name="Path 137745" d="M470.775,98.425a1.066,1.066,0,0,0-1.579.054.66.66,0,0,0-.4.458c-.142.742.7,1.109,1.3.924S471.289,99.022,470.775,98.425Z" transform="translate(-413.02 -69.83)" fill="#e8ac54"/>
              <path id="Path_137746" data-name="Path 137746" d="M447.8,84.311a1.065,1.065,0,0,0-1.579.054.661.661,0,0,0-.4.457c-.141.744.7,1.111,1.3.925C447.745,85.555,448.316,84.908,447.8,84.311Z" transform="translate(-423.355 -76.18)" fill="#e8ac54"/>
            </g>
          </g>
          <g id="Group_95491" data-name="Group 95491" transform="translate(66.843 38.677)">
            <path id="Path_137747" data-name="Path 137747" d="M474.8,74.77l3.188-1.841a6.51,6.51,0,0,1,3.207-.973,3.91,3.91,0,0,1,1.979.512c1.765,1.019,2.775,3.446,2.775,6.662v29.618l1.364.216V79.129c0-3.716-1.26-6.574-3.458-7.842-1.854-1.071-4.18-.906-6.549.46l-3.188,1.841c-5.143,2.969-9.326,10.935-9.326,17.757v29.3h1.364v-29.3C466.156,84.958,470.033,77.521,474.8,74.77Z" transform="translate(-464.792 -70.588)" fill="#efdcda"/>
          </g>
          <g id="Group_95492" data-name="Group 95492" transform="translate(44.394 25.513)">
            <path id="Path_137748" data-name="Path 137748" d="M459.315,65.69l3.188-1.841a6.511,6.511,0,0,1,3.207-.973,3.906,3.906,0,0,1,1.979.512c1.765,1.019,2.777,3.448,2.777,6.662V99.67l1.363.834V70.05c0-3.716-1.26-6.574-3.458-7.842-1.854-1.071-4.18-.906-6.549.461l-3.188,1.841c-5.143,2.968-9.326,10.935-9.326,17.755v29.928l1.364.974v-30.9C450.672,75.879,454.549,68.442,459.315,65.69Z" transform="translate(-449.308 -61.509)" fill="#efdcda"/>
          </g>
          <g id="Group_95493" data-name="Group 95493" transform="translate(22.069 12.718)">
            <path id="Path_137749" data-name="Path 137749" d="M443.917,56.865l3.188-1.841a6.51,6.51,0,0,1,3.207-.973,3.906,3.906,0,0,1,1.979.512c1.764,1.019,2.776,3.448,2.776,6.662V90.843l1.363.824V61.225c0-3.716-1.26-6.574-3.458-7.842-1.854-1.071-4.18-.906-6.549.461l-3.188,1.84c-5.143,2.969-9.326,10.935-9.326,17.757v29.786l1.364.628V73.44C435.274,67.054,439.151,59.617,443.917,56.865Z" transform="translate(-433.91 -52.684)" fill="#efdcda"/>
          </g>
          <g id="Group_95494" data-name="Group 95494">
            <path id="Path_137750" data-name="Path 137750" d="M428.7,48.094l3.188-1.841a6.511,6.511,0,0,1,3.207-.973,3.91,3.91,0,0,1,1.979.512c1.765,1.019,2.775,3.448,2.775,6.662v30.9l1.364-.451V52.453c0-3.716-1.261-6.574-3.458-7.842-1.854-1.071-4.18-.906-6.549.461l-3.19,1.84c-5.141,2.969-9.324,10.935-9.324,17.757V95.01l1.363.561v-30.9C420.052,58.282,423.93,50.845,428.7,48.094Z" transform="translate(-418.689 -43.912)" fill="#efdcda"/>
          </g>
          <g id="Group_95495" data-name="Group 95495" transform="translate(4.037 8.262)">
            <rect id="Rectangle_32417" data-name="Rectangle 32417" width="1.385" height="77.576" transform="translate(0 1.2) rotate(-60.033)" fill="#efdcda"/>
          </g>
          <g id="Group_95496" data-name="Group 95496" transform="translate(18.16 0.503)">
            <path id="Path_137751" data-name="Path 137751" d="M498.27,84.331,431.214,45.459l.691-1.2,67.055,38.872Z" transform="translate(-431.214 -44.259)" fill="#efdcda"/>
          </g>
        </g>
        <g id="Group_95498" data-name="Group 95498" transform="translate(3.366 72.826)">
          <path id="Path_137752" data-name="Path 137752" d="M424.465,103.51c-.6-.947-1.582-1.573-2.159-2.587a10.1,10.1,0,0,1-1.056-3.448.23.23,0,0,0-.441,0,5.985,5.985,0,0,0,.541,3.8c.5,1.07,1.45,2.526,2.669,2.816A.4.4,0,0,0,424.465,103.51Z" transform="translate(-348.569 -51.313)" fill="#baa2a0"/>
          <path id="Path_137753" data-name="Path 137753" d="M423.259,99.319a.217.217,0,0,0-.261.341c.642.826,1.34,1.591,1.9,2.481a12.665,12.665,0,0,0,1.443,2.3.386.386,0,0,0,.651-.27C426.947,102.294,424.83,100.147,423.259,99.319Z" transform="translate(-347.558 -50.424)" fill="#baa2a0"/>
          <path id="Path_137754" data-name="Path 137754" d="M462.041,108.547a7.131,7.131,0,0,0-1.84-2.616c-.1-.093-.316,0-.255.149.357.9.745,1.8,1.077,2.705a10.182,10.182,0,0,0,.867,2.6.426.426,0,0,0,.767-.1A4.444,4.444,0,0,0,462.041,108.547Z" transform="translate(-330.917 -47.452)" fill="#baa2a0"/>
          <path id="Path_137755" data-name="Path 137755" d="M464.09,107.162c-.055-.383-.632-.331-.723,0-.236.853-.347,1.735-.594,2.589a6.1,6.1,0,0,0-.539,2.34c.026.216.267.441.489.28C464.062,111.4,464.31,108.684,464.09,107.162Z" transform="translate(-329.89 -47.003)" fill="#baa2a0"/>
          <path id="Path_137756" data-name="Path 137756" d="M464.678,120.714c-.725.3-1.3.842-2.041,1.125a11.422,11.422,0,0,1-2.6.481.122.122,0,0,0-.086.206c1.36,1.35,4.809.658,5.12-1.421C465.1,120.9,464.93,120.609,464.678,120.714Z" transform="translate(-330.927 -40.795)" fill="#baa2a0"/>
          <path id="Path_137757" data-name="Path 137757" d="M413.464,91.382c-.284.464-.454.987-.739,1.457a12.94,12.94,0,0,1-1.067,1.414.535.535,0,0,0,0,.737.937.937,0,0,0,.106.081.523.523,0,0,0,.632-.081,5.727,5.727,0,0,0,1.722-3.43A.354.354,0,0,0,413.464,91.382Z" transform="translate(-352.702 -54.055)" fill="#baa2a0"/>
          <path id="Path_137758" data-name="Path 137758" d="M411.114,95.151c-.244-.676-.7-1.241-.94-1.918a7.132,7.132,0,0,1-.29-2.3.192.192,0,0,0-.355-.1c-.731,1.373-.439,3.951,1.127,4.663C410.878,95.6,411.215,95.432,411.114,95.151Z" transform="translate(-353.765 -54.266)" fill="#baa2a0"/>
          <path id="Path_137759" data-name="Path 137759" d="M411.168,76.5c-.342-.336-.792.155-.512.512A13.52,13.52,0,0,1,412,79.1a5,5,0,0,0,1.095,1.8c.157.128.47.116.51-.133C413.852,79.2,412.206,77.51,411.168,76.5Z" transform="translate(-353.126 -60.728)" fill="#baa2a0"/>
          <path id="Path_137760" data-name="Path 137760" d="M372.051,68.922c-.847,1.261-1.431,3.39-.79,4.837.173.386.742.236.848-.112a9.8,9.8,0,0,0,.17-2.233c.055-.792.174-1.577.222-2.371C372.516,68.789,372.174,68.737,372.051,68.922Z" transform="translate(-370.932 -64.135)" fill="#baa2a0"/>
          <path id="Path_137761" data-name="Path 137761" d="M376.82,74.625a5.524,5.524,0,0,0-1.635-1.914,9.917,9.917,0,0,0-2.146-1.612c-.2-.1-.46.112-.322.322a14.727,14.727,0,0,0,1.62,1.923,7.3,7.3,0,0,0,1.84,1.776C376.481,75.272,376.974,75.011,376.82,74.625Z" transform="translate(-370.171 -63.117)" fill="#baa2a0"/>
          <path id="Path_137762" data-name="Path 137762" d="M375.678,69.289a7.219,7.219,0,0,0-2.007-2.124A11.438,11.438,0,0,0,371.2,65.6a.173.173,0,0,0-.209.27,26.944,26.944,0,0,0,2.03,2.159,10.265,10.265,0,0,0,2.1,1.812A.41.41,0,0,0,375.678,69.289Z" transform="translate(-370.949 -65.586)" fill="#baa2a0"/>
        </g>
        <g id="Group_95499" data-name="Group 95499" transform="translate(0 54.188)">
          <path id="Path_137763" data-name="Path 137763" d="M411.462,74.929c-6.044-4.242-12.817-7.6-19.225-11.267-6.446-3.686-12.839-7.5-19.431-10.916a.114.114,0,0,0-.116.2c6.275,3.971,12.786,7.573,19.217,11.284,6.4,3.69,12.711,7.847,19.421,10.932A.134.134,0,0,0,411.462,74.929Z" transform="translate(-366.825 -52.731)" fill="#fff"/>
          <path id="Path_137764" data-name="Path 137764" d="M461.535,103.649c-6.044-4.244-12.817-7.6-19.225-11.267-6.446-3.686-12.84-7.5-19.431-10.918a.115.115,0,0,0-.116.2c6.275,3.97,12.786,7.573,19.217,11.283,6.4,3.69,12.711,7.848,19.421,10.933A.134.134,0,0,0,461.535,103.649Z" transform="translate(-344.299 -39.811)" fill="#fff"/>
          <path id="Path_137765" data-name="Path 137765" d="M483.419,107.088a.032.032,0,0,0-.064,0c-.386,4.679-.2,9.415-.51,14.107-.467,7.012-3.591,10.161-9.121,13.906a.165.165,0,0,0,.167.286c4.125-1.96,8.045-5.2,9.191-9.819.642-2.591.416-5.436.477-8.084A66.689,66.689,0,0,0,483.419,107.088Z" transform="translate(-321.384 -28.291)" fill="#a37d7c"/>
          <path id="Path_137766" data-name="Path 137766" d="M389,85.118a93.74,93.74,0,0,0-9.982-5.875c-3.925-2.185-8.743-3.884-10.227-8.5a.083.083,0,0,0-.162.023c.03,3.536,3.264,5.231,6.011,6.793,4.658,2.647,9.334,5.685,14.3,7.7C389.028,85.292,389.064,85.165,389,85.118Z" transform="translate(-368.628 -44.655)" fill="#a37d7c"/>
          <path id="Path_137767" data-name="Path 137767" d="M439.074,114.088a93.638,93.638,0,0,0-9.982-5.873c-3.926-2.185-8.744-3.884-10.229-8.5a.083.083,0,0,0-.162.022c.032,3.538,3.264,5.231,6.013,6.793,4.657,2.647,9.334,5.686,14.3,7.7C439.1,114.263,439.137,114.136,439.074,114.088Z" transform="translate(-346.102 -31.622)" fill="#a37d7c"/>
        </g>
      </g>
      <g id="Group_95512" data-name="Group 95512" transform="translate(260.972 63.702)">
        <path id="Path_137768" data-name="Path 137768" d="M424.657,114.3H382.608l-74.162-6.511H266.4l8.756,39.695h.028c.046,1.113.853,2.278,2.429,3.188L345.552,189.9c2.968,1.714,7.5,1.9,10.068.418l58.84-33.972a2.77,2.77,0,0,0,1.62-3.156Z" transform="translate(-258.531 -22.118)" fill="#ff6485"/>
        <path id="Path_137769" data-name="Path 137769" d="M431.821,131.912a11.353,11.353,0,0,0-1.314-.9l-80.92-46.721a16.651,16.651,0,0,0-8.211-2.07,13.3,13.3,0,0,0-6.627,1.575l-70.055,40.446h-3.513v5.485c0,2.462,1.586,4.789,4.35,6.385l80.92,46.719a16.647,16.647,0,0,0,8.211,2.07,13.294,13.294,0,0,0,6.627-1.573l70.078-40.46a6.373,6.373,0,0,0,3.49-5.472v-5.486Z" transform="translate(-260.878 -33.621)" fill="#e84d76"/>
        <path id="Path_137770" data-name="Path 137770" d="M354.661,181.12a16.646,16.646,0,0,1-8.211-2.07l-80.92-46.719c-2.765-1.6-4.35-3.923-4.35-6.385a6.377,6.377,0,0,1,3.49-5.472l70.078-40.459a13.279,13.279,0,0,1,6.627-1.575,16.651,16.651,0,0,1,8.211,2.07l80.92,46.721c2.763,1.595,4.35,3.922,4.35,6.382a6.373,6.373,0,0,1-3.49,5.473l-70.078,40.46A13.294,13.294,0,0,1,354.661,181.12Z" transform="translate(-260.878 -35.323)" fill="#ff6485"/>
        <g id="Group_95501" data-name="Group 95501" transform="translate(3.153 45.967)">
          <path id="Path_137771" data-name="Path 137771" d="M428.2,128.813,347.279,82.094c-3.535-2.04-8.93-2.263-11.989-.5l-70.08,40.46c-3.061,1.767-2.672,4.882.861,6.922l3.617,2.089a4.313,4.313,0,0,1,.494-.647,4.2,4.2,0,0,1,2.861-1.187c-.245-1.738-.048-3.539,1.682-4.237a5.649,5.649,0,0,1,5.293.925,6.147,6.147,0,0,1,2.752-3.512,3.109,3.109,0,0,1,3.214-.151,5.225,5.225,0,0,1,2.716-3.99,3.467,3.467,0,0,1,1.78-.323,9.493,9.493,0,0,1,4.022-6.319c1.431-.963,3.876-1.5,5.166-.621a3.674,3.674,0,0,1,5.122-1.77c.152-2.969,1.8-5.625,4.922-6.292,2.284-.487,2.536.671,3.639-1.344.753-1.373,1.009-2.559,2.308-3.6a4.918,4.918,0,0,1,4.016-.87,4.21,4.21,0,0,1,3.683-2.9,5.248,5.248,0,0,1,3.287.664,4.717,4.717,0,0,1,3.583-2.671c1.567-.187,3.945.158,4.927,1.518,1.058-1.772,3.858-1.448,5.473.116,1.1-1.557,3.659-2.1,5.546-1.744a4.138,4.138,0,0,1,3.268,3.726c1.421-1,4.013-.219,4.915,1.289a3.83,3.83,0,0,1,4.931-.278,3.494,3.494,0,0,1,1.35,3.011,4.29,4.29,0,0,1,4.3.017,4.205,4.205,0,0,1,1.983,3.111,3.8,3.8,0,0,1,5.762.386,5.085,5.085,0,0,1,1.234,4.176c1.721-.544,3.586,1.009,3.987,2.9a4.612,4.612,0,0,1,5.594.376,7.67,7.67,0,0,1,2.082,4.068c1.1-1.092,2.676-.1,3.428,1.308,1.915-1.441,5.085-.393,6.561,1.4a9.277,9.277,0,0,1,1.849,5.686c1.949-1.051,3.5.468,4.077,2.391,1.879-2.163,5.336-3.2,7.581-.947,1.364,1.372,1.823,3.661,1.682,5.968a3.309,3.309,0,0,1,5.031,1.96c2.527-2.134,6.785-.294,8.891,2.076a6.348,6.348,0,0,1,1.408,2.7l2.966-1.712C432.12,133.967,431.733,130.853,428.2,128.813Z" transform="translate(-263.146 -80.405)" fill="#d64370"/>
          <path id="Path_137772" data-name="Path 137772" d="M413.764,129.066a3.309,3.309,0,0,0-5.031-1.96c.141-2.307-.318-4.6-1.682-5.968-2.246-2.255-5.7-1.216-7.581.947-.576-1.923-2.128-3.442-4.077-2.391a9.277,9.277,0,0,0-1.849-5.686c-1.476-1.793-4.645-2.842-6.561-1.4-.751-1.412-2.329-2.4-3.428-1.308a7.67,7.67,0,0,0-2.082-4.068,4.612,4.612,0,0,0-5.594-.376c-.4-1.895-2.266-3.448-3.987-2.9a5.085,5.085,0,0,0-1.234-4.176,3.8,3.8,0,0,0-5.762-.386,4.205,4.205,0,0,0-1.983-3.111,4.29,4.29,0,0,0-4.3-.017,3.494,3.494,0,0,0-1.35-3.011,3.83,3.83,0,0,0-4.931.278c-.9-1.508-3.494-2.292-4.915-1.289a4.138,4.138,0,0,0-3.268-3.726c-1.886-.354-4.45.187-5.546,1.744-1.615-1.564-4.415-1.888-5.473-.116-.982-1.36-3.359-1.705-4.927-1.518a4.717,4.717,0,0,0-3.583,2.671,5.248,5.248,0,0,0-3.287-.664,4.21,4.21,0,0,0-3.683,2.9,4.918,4.918,0,0,0-4.016.87c-1.3,1.038-1.556,2.224-2.308,3.6-1.1,2.015-1.356.857-3.639,1.344-3.126.667-4.77,3.323-4.922,6.292a3.674,3.674,0,0,0-5.122,1.77c-1.29-.882-3.735-.342-5.166.621a9.493,9.493,0,0,0-4.022,6.319,3.467,3.467,0,0,0-1.78.323,5.225,5.225,0,0,0-2.716,3.99,3.109,3.109,0,0,0-3.214.151,6.147,6.147,0,0,0-2.752,3.512,5.649,5.649,0,0,0-5.293-.925c-1.73.7-1.927,2.5-1.682,4.237a4.2,4.2,0,0,0-2.861,1.187,4.312,4.312,0,0,0-.494.647l77.3,44.63c3.533,2.04,8.928,2.265,11.989.5l67.112-38.748a6.348,6.348,0,0,0-1.408-2.7C420.549,128.772,416.291,126.932,413.764,129.066Z" transform="translate(-261.116 -76.805)" fill="#f7c169"/>
        </g>
        <g id="Group_95502" data-name="Group 95502" transform="translate(18.128 68.319)">
          <path id="Path_137773" data-name="Path 137773" d="M295.3,119.948a1.212,1.212,0,0,0-1.5.144,1.05,1.05,0,0,0-.5.806c-.043.976,1,1.135,1.688.758C295.651,121.288,296.068,120.492,295.3,119.948Z" transform="translate(-264.558 -85.058)" fill="#e8ac54"/>
          <path id="Path_137774" data-name="Path 137774" d="M309.56,129.988a1.21,1.21,0,0,0-1.5.144,1.042,1.042,0,0,0-.5.806c-.044.976,1,1.135,1.686.757C309.91,131.328,310.326,130.532,309.56,129.988Z" transform="translate(-258.143 -80.542)" fill="#e8ac54"/>
          <path id="Path_137775" data-name="Path 137775" d="M325.509,141.934a1.212,1.212,0,0,0-1.5.142,1.047,1.047,0,0,0-.5.806c-.044.976,1,1.135,1.686.758C325.859,143.272,326.275,142.476,325.509,141.934Z" transform="translate(-250.968 -75.168)" fill="#e8ac54"/>
          <path id="Path_137776" data-name="Path 137776" d="M293,125.587c-.167-.542-.938-1.05-1.475-.715-.022.015-.028.038-.046.052a.276.276,0,0,0-.219.173,1.306,1.306,0,0,0,.863,1.461A.74.74,0,0,0,293,125.587Z" transform="translate(-265.493 -82.801)" fill="#e8ac54"/>
          <path id="Path_137777" data-name="Path 137777" d="M288.305,105.21c-.168-.542-.938-1.051-1.476-.715-.022.013-.026.036-.045.052a.272.272,0,0,0-.219.171,1.3,1.3,0,0,0,.863,1.461A.739.739,0,0,0,288.305,105.21Z" transform="translate(-267.605 -91.969)" fill="#e8ac54"/>
          <path id="Path_137778" data-name="Path 137778" d="M286.294,115.021c-.167-.542-.938-1.05-1.476-.715-.022.013-.026.036-.045.052a.272.272,0,0,0-.219.171,1.3,1.3,0,0,0,.863,1.461A.739.739,0,0,0,286.294,115.021Z" transform="translate(-268.51 -87.555)" fill="#e8ac54"/>
          <path id="Path_137779" data-name="Path 137779" d="M288.305,108.422c-.168-.542-.938-1.05-1.476-.715-.022.014-.026.038-.045.052a.274.274,0,0,0-.219.173,1.3,1.3,0,0,0,.863,1.461A.74.74,0,0,0,288.305,108.422Z" transform="translate(-267.605 -90.523)" fill="#e8ac54"/>
          <path id="Path_137780" data-name="Path 137780" d="M279.322,117.355c-.168-.542-.938-1.05-1.476-.715-.022.013-.026.036-.045.052a.272.272,0,0,0-.219.171,1.3,1.3,0,0,0,.863,1.461A.739.739,0,0,0,279.322,117.355Z" transform="translate(-271.647 -86.505)" fill="#e8ac54"/>
          <path id="Path_137781" data-name="Path 137781" d="M293,112.644c-.167-.542-.938-1.05-1.475-.715-.022.013-.028.038-.046.052a.276.276,0,0,0-.219.173,1.306,1.306,0,0,0,.863,1.461A.74.74,0,0,0,293,112.644Z" transform="translate(-265.493 -88.624)" fill="#e8ac54"/>
          <path id="Path_137782" data-name="Path 137782" d="M302.13,96.644c-.168-.542-.938-1.05-1.476-.715-.022.013-.026.038-.045.052a.274.274,0,0,0-.219.173,1.3,1.3,0,0,0,.863,1.461A.74.74,0,0,0,302.13,96.644Z" transform="translate(-261.386 -95.822)" fill="#e8ac54"/>
          <path id="Path_137783" data-name="Path 137783" d="M302.13,130.074c-.168-.542-.938-1.05-1.476-.715-.022.014-.026.038-.045.052a.274.274,0,0,0-.219.173,1.3,1.3,0,0,0,.863,1.461A.74.74,0,0,0,302.13,130.074Z" transform="translate(-261.386 -80.783)" fill="#e8ac54"/>
          <path id="Path_137784" data-name="Path 137784" d="M313.956,137.182c-.168-.542-.94-1.05-1.476-.715-.022.013-.026.036-.045.052a.272.272,0,0,0-.219.171,1.3,1.3,0,0,0,.863,1.461A.739.739,0,0,0,313.956,137.182Z" transform="translate(-256.066 -77.585)" fill="#e8ac54"/>
          <path id="Path_137785" data-name="Path 137785" d="M323.094,135.271c-.168-.544-.938-1.051-1.476-.715-.022.013-.026.036-.045.052a.272.272,0,0,0-.219.171,1.3,1.3,0,0,0,.863,1.461A.74.74,0,0,0,323.094,135.271Z" transform="translate(-251.955 -78.445)" fill="#e8ac54"/>
          <path id="Path_137786" data-name="Path 137786" d="M329.233,144.533c-.167-.542-.938-1.05-1.475-.715-.022.013-.028.036-.046.052a.274.274,0,0,0-.219.171,1.3,1.3,0,0,0,.863,1.461A.739.739,0,0,0,329.233,144.533Z" transform="translate(-249.193 -74.278)" fill="#e8ac54"/>
          <path id="Path_137787" data-name="Path 137787" d="M294.866,127.62c-.178-.774-1.222-.609-1.744-.333-.035.019-.049.052-.074.078a.647.647,0,0,0-.377.406c-.231.708.477.9,1.015.876C294.254,128.614,295.039,128.368,294.866,127.62Z" transform="translate(-264.859 -81.77)" fill="#e8ac54"/>
          <path id="Path_137788" data-name="Path 137788" d="M297.2,102.357c-.178-.773-1.224-.607-1.746-.333-.035.019-.048.052-.072.078a.646.646,0,0,0-.377.407c-.231.708.476.9,1.013.874C296.592,103.353,297.377,103.105,297.2,102.357Z" transform="translate(-263.807 -93.135)" fill="#e8ac54"/>
          <path id="Path_137789" data-name="Path 137789" d="M299.879,128.718c-.178-.774-1.224-.609-1.744-.333-.036.017-.049.052-.074.078a.643.643,0,0,0-.377.406c-.231.708.476.9,1.013.874C299.267,129.712,300.052,129.464,299.879,128.718Z" transform="translate(-262.604 -81.276)" fill="#e8ac54"/>
          <path id="Path_137790" data-name="Path 137790" d="M311.824,129.8c-.178-.773-1.222-.607-1.744-.332-.035.017-.049.051-.074.077a.649.649,0,0,0-.377.407c-.231.708.477.9,1.015.874C311.212,130.8,312,130.549,311.824,129.8Z" transform="translate(-257.23 -80.788)" fill="#e8ac54"/>
          <path id="Path_137791" data-name="Path 137791" d="M294.755,105.66c-.178-.774-1.222-.609-1.744-.333-.035.019-.048.052-.072.078a.643.643,0,0,0-.377.406c-.232.709.476.9,1.013.876C294.143,106.656,294.927,106.408,294.755,105.66Z" transform="translate(-264.909 -91.65)" fill="#e8ac54"/>
          <path id="Path_137792" data-name="Path 137792" d="M316.847,133.518c-.178-.774-1.224-.609-1.744-.333-.036.019-.049.052-.074.078a.65.65,0,0,0-.377.406c-.231.708.476.9,1.013.876C316.235,134.512,317.02,134.266,316.847,133.518Z" transform="translate(-254.97 -79.117)" fill="#e8ac54"/>
          <path id="Path_137793" data-name="Path 137793" d="M275.714,115.472c-.178-.774-1.222-.609-1.744-.333-.035.017-.048.051-.073.078a.636.636,0,0,0-.377.406c-.232.708.476.9,1.013.874C275.1,116.466,275.886,116.218,275.714,115.472Z" transform="translate(-273.475 -87.235)" fill="#e8ac54"/>
          <path id="Path_137794" data-name="Path 137794" d="M316.847,128.169c-.178-.774-1.224-.609-1.744-.333-.036.019-.049.052-.074.078a.643.643,0,0,0-.377.406c-.231.708.476.9,1.013.874C316.235,129.163,317.02,128.915,316.847,128.169Z" transform="translate(-254.97 -81.523)" fill="#e8ac54"/>
          <path id="Path_137795" data-name="Path 137795" d="M300.66,119.613c-.178-.774-1.224-.607-1.746-.333-.035.019-.048.052-.072.078a.647.647,0,0,0-.377.406c-.232.709.476.9,1.013.876C300.047,120.609,300.831,120.361,300.66,119.613Z" transform="translate(-262.253 -85.372)" fill="#e8ac54"/>
          <path id="Path_137796" data-name="Path 137796" d="M325.8,135.721c-.178-.774-1.222-.609-1.744-.333-.035.019-.048.052-.073.078a.643.643,0,0,0-.377.406c-.232.709.476.9,1.013.876C325.184,136.717,325.968,136.469,325.8,135.721Z" transform="translate(-250.944 -78.126)" fill="#e8ac54"/>
          <path id="Path_137797" data-name="Path 137797" d="M300.826,122.966a1.065,1.065,0,0,0-1.579.054.663.663,0,0,0-.4.458c-.141.742.7,1.109,1.3.924C300.77,124.21,301.341,123.563,300.826,122.966Z" transform="translate(-262.067 -83.757)" fill="#e8ac54"/>
          <path id="Path_137798" data-name="Path 137798" d="M296.982,107.932a1.065,1.065,0,0,0-1.579.054.661.661,0,0,0-.4.457c-.141.742.7,1.109,1.3.924C296.925,109.176,297.5,108.529,296.982,107.932Z" transform="translate(-263.796 -90.521)" fill="#e8ac54"/>
          <path id="Path_137799" data-name="Path 137799" d="M288.385,121.525a1.063,1.063,0,0,0-1.577.054.66.66,0,0,0-.4.458c-.142.742.7,1.109,1.3.924C288.329,122.769,288.9,122.122,288.385,121.525Z" transform="translate(-267.663 -84.405)" fill="#e8ac54"/>
          <path id="Path_137800" data-name="Path 137800" d="M307.556,134.86a1.065,1.065,0,0,0-1.579.054.66.66,0,0,0-.4.457c-.142.744.7,1.111,1.3.925S308.07,135.457,307.556,134.86Z" transform="translate(-259.04 -78.406)" fill="#e8ac54"/>
          <path id="Path_137801" data-name="Path 137801" d="M318.363,139.572a1.064,1.064,0,0,0-1.577.054.66.66,0,0,0-.4.458c-.142.742.7,1.109,1.3.924C318.308,140.816,318.879,140.169,318.363,139.572Z" transform="translate(-254.177 -76.286)" fill="#e8ac54"/>
          <path id="Path_137802" data-name="Path 137802" d="M330.07,139.572a1.066,1.066,0,0,0-1.579.054.663.663,0,0,0-.4.458c-.141.742.7,1.109,1.3.924C330.014,140.816,330.585,140.169,330.07,139.572Z" transform="translate(-248.911 -76.286)" fill="#e8ac54"/>
          <path id="Path_137803" data-name="Path 137803" d="M310.82,125.1a1.063,1.063,0,0,0-1.577.055.655.655,0,0,0-.4.457c-.142.742.7,1.109,1.3.924C310.765,126.341,311.336,125.693,310.82,125.1Z" transform="translate(-257.57 -82.799)" fill="#e8ac54"/>
        </g>
        <g id="Group_95503" data-name="Group 95503" transform="translate(99.488 98.212)">
          <path id="Path_137804" data-name="Path 137804" d="M364.628,116.64a1.208,1.208,0,0,1,1.5.142,1.049,1.049,0,0,1,.5.806c.043.976-1,1.135-1.686.758C364.278,117.979,363.862,117.183,364.628,116.64Z" transform="translate(-314.013 -116.439)" fill="#e8ac54"/>
          <path id="Path_137805" data-name="Path 137805" d="M350.37,126.679a1.208,1.208,0,0,1,1.5.144,1.048,1.048,0,0,1,.5.806c.044.976-1,1.135-1.686.757C350.021,128.019,349.6,127.223,350.37,126.679Z" transform="translate(-320.427 -111.923)" fill="#e8ac54"/>
          <path id="Path_137806" data-name="Path 137806" d="M334.421,138.625a1.21,1.21,0,0,1,1.5.142,1.053,1.053,0,0,1,.5.806c.043.976-1,1.135-1.686.758C334.072,139.963,333.654,139.167,334.421,138.625Z" transform="translate(-327.602 -106.549)" fill="#e8ac54"/>
          <path id="Path_137807" data-name="Path 137807" d="M368.342,119.465c.168-.542.94-1.051,1.476-.715.022.013.026.036.045.051a.276.276,0,0,1,.219.173,1.3,1.3,0,0,1-.863,1.461A.739.739,0,0,1,368.342,119.465Z" transform="translate(-312.173 -115.448)" fill="#e8ac54"/>
          <path id="Path_137808" data-name="Path 137808" d="M357.615,126.765c.167-.542.938-1.05,1.474-.715.022.014.028.038.046.052a.274.274,0,0,1,.219.173,1.3,1.3,0,0,1-.863,1.461A.74.74,0,0,1,357.615,126.765Z" transform="translate(-316.999 -112.164)" fill="#e8ac54"/>
          <path id="Path_137809" data-name="Path 137809" d="M345.789,133.873c.167-.542.938-1.05,1.476-.715.022.013.026.036.045.052a.272.272,0,0,1,.219.171,1.3,1.3,0,0,1-.863,1.461A.739.739,0,0,1,345.789,133.873Z" transform="translate(-322.319 -108.966)" fill="#e8ac54"/>
          <path id="Path_137810" data-name="Path 137810" d="M336.651,131.962c.167-.542.938-1.051,1.475-.715.022.013.027.036.046.051a.276.276,0,0,1,.219.173,1.3,1.3,0,0,1-.863,1.461A.739.739,0,0,1,336.651,131.962Z" transform="translate(-326.43 -109.826)" fill="#e8ac54"/>
          <path id="Path_137811" data-name="Path 137811" d="M365.8,120.946c.178-.773,1.224-.609,1.746-.333.035.019.048.052.072.078a.646.646,0,0,1,.377.407c.23.708-.476.9-1.013.874C366.408,121.942,365.624,121.694,365.8,120.946Z" transform="translate(-313.313 -114.665)" fill="#e8ac54"/>
          <path id="Path_137812" data-name="Path 137812" d="M360,125.409c.178-.774,1.222-.609,1.744-.333.035.017.049.051.074.078a.643.643,0,0,1,.377.406c.23.708-.477.9-1.015.874C360.615,126.4,359.831,126.155,360,125.409Z" transform="translate(-315.919 -112.658)" fill="#e8ac54"/>
          <path id="Path_137813" data-name="Path 137813" d="M348.059,126.492c.178-.773,1.222-.607,1.744-.333.035.019.048.052.072.078a.642.642,0,0,1,.377.407c.232.708-.476.9-1.013.874C348.67,127.488,347.886,127.24,348.059,126.492Z" transform="translate(-321.293 -112.17)" fill="#e8ac54"/>
          <path id="Path_137814" data-name="Path 137814" d="M343.036,130.209c.178-.774,1.222-.609,1.744-.333.035.019.049.052.074.078a.65.65,0,0,1,.377.406c.231.708-.477.9-1.015.876C343.647,131.2,342.863,130.957,343.036,130.209Z" transform="translate(-323.552 -110.498)" fill="#e8ac54"/>
          <path id="Path_137815" data-name="Path 137815" d="M334.086,132.412c.178-.774,1.224-.609,1.746-.333.035.019.048.052.072.078a.65.65,0,0,1,.377.406c.23.708-.476.9-1.013.876C334.7,133.408,333.913,133.16,334.086,132.412Z" transform="translate(-327.579 -109.507)" fill="#e8ac54"/>
          <path id="Path_137816" data-name="Path 137816" d="M359.034,119.657a1.063,1.063,0,0,1,1.577.054.656.656,0,0,1,.4.458c.142.742-.7,1.109-1.3.924C359.091,120.9,358.519,120.254,359.034,119.657Z" transform="translate(-316.434 -115.138)" fill="#e8ac54"/>
          <path id="Path_137817" data-name="Path 137817" d="M353.061,129.273a1.065,1.065,0,0,1,1.579.054.663.663,0,0,1,.4.458c.141.742-.7,1.109-1.3.924C353.118,130.517,352.546,129.87,353.061,129.273Z" transform="translate(-319.121 -110.812)" fill="#e8ac54"/>
          <path id="Path_137818" data-name="Path 137818" d="M341.5,136.263a1.066,1.066,0,0,1,1.579.054.663.663,0,0,1,.4.458c.141.742-.7,1.109-1.3.924C341.553,137.507,340.981,136.86,341.5,136.263Z" transform="translate(-324.324 -107.668)" fill="#e8ac54"/>
          <path id="Path_137819" data-name="Path 137819" d="M329.79,136.263a1.064,1.064,0,0,1,1.577.054.656.656,0,0,1,.4.458c.142.742-.7,1.109-1.3.924C329.847,137.507,329.275,136.86,329.79,136.263Z" transform="translate(-329.59 -107.668)" fill="#e8ac54"/>
          <path id="Path_137820" data-name="Path 137820" d="M352.763,122.149a1.063,1.063,0,0,1,1.577.054.657.657,0,0,1,.4.457c.142.744-.7,1.111-1.3.925C352.818,123.393,352.247,122.746,352.763,122.149Z" transform="translate(-319.256 -114.017)" fill="#e8ac54"/>
        </g>
        <g id="Group_95504" data-name="Group 95504" transform="translate(27.076 86.309)">
          <path id="Path_137821" data-name="Path 137821" d="M352.141,108.43a1.212,1.212,0,0,1,1.5.142,1.053,1.053,0,0,1,.5.806c.042.976-1,1.135-1.688.758C351.791,109.768,351.375,108.972,352.141,108.43Z" transform="translate(-247.218 -108.23)" fill="#e8ac54"/>
          <path id="Path_137822" data-name="Path 137822" d="M339.642,120.348a1.212,1.212,0,0,1,1.5.142,1.053,1.053,0,0,1,.5.806c.042.977-1,1.135-1.688.758C339.294,121.688,338.876,120.89,339.642,120.348Z" transform="translate(-252.841 -102.868)" fill="#e8ac54"/>
          <path id="Path_137823" data-name="Path 137823" d="M323.693,132.293a1.212,1.212,0,0,1,1.5.144,1.048,1.048,0,0,1,.5.806c.042.976-1,1.134-1.688.757C323.343,133.633,322.927,132.837,323.693,132.293Z" transform="translate(-260.016 -97.494)" fill="#e8ac54"/>
          <path id="Path_137824" data-name="Path 137824" d="M355.343,113.763c.168-.544.94-1.051,1.476-.715.022.013.026.036.046.052a.272.272,0,0,1,.218.171,1.3,1.3,0,0,1-.863,1.461A.74.74,0,0,1,355.343,113.763Z" transform="translate(-245.608 -106.111)" fill="#e8ac54"/>
          <path id="Path_137825" data-name="Path 137825" d="M346.887,120.434c.168-.542.94-1.05,1.476-.715.022.013.026.038.045.052a.271.271,0,0,1,.219.173,1.3,1.3,0,0,1-.863,1.461A.74.74,0,0,1,346.887,120.434Z" transform="translate(-249.412 -103.109)" fill="#e8ac54"/>
          <path id="Path_137826" data-name="Path 137826" d="M335.061,127.542c.168-.542.94-1.051,1.476-.716.022.015.026.038.046.052a.274.274,0,0,1,.217.173,1.3,1.3,0,0,1-.863,1.461A.74.74,0,0,1,335.061,127.542Z" transform="translate(-254.733 -99.912)" fill="#e8ac54"/>
          <path id="Path_137827" data-name="Path 137827" d="M325.923,125.63c.168-.542.94-1.05,1.476-.715.022.014.026.038.045.052a.274.274,0,0,1,.219.173,1.3,1.3,0,0,1-.863,1.461A.74.74,0,0,1,325.923,125.63Z" transform="translate(-258.844 -100.772)" fill="#e8ac54"/>
          <path id="Path_137828" data-name="Path 137828" d="M354.4,117.176c.178-.774,1.224-.609,1.746-.333.035.019.048.052.073.078a.647.647,0,0,1,.377.406c.231.708-.476.9-1.013.876C355.009,118.172,354.225,117.924,354.4,117.176Z" transform="translate(-246.029 -104.459)" fill="#e8ac54"/>
          <path id="Path_137829" data-name="Path 137829" d="M349.276,119.076c.178-.773,1.224-.607,1.746-.333.035.019.048.052.073.078a.646.646,0,0,1,.377.407c.231.708-.476.9-1.013.874C349.887,120.072,349.1,119.824,349.276,119.076Z" transform="translate(-248.333 -103.603)" fill="#e8ac54"/>
          <path id="Path_137830" data-name="Path 137830" d="M359.59,113.013c.178-.773,1.224-.607,1.744-.333.036.019.049.052.074.078a.649.649,0,0,1,.377.407c.231.708-.476.9-1.013.874C360.2,114.009,359.417,113.761,359.59,113.013Z" transform="translate(-243.693 -106.331)" fill="#e8ac54"/>
          <path id="Path_137831" data-name="Path 137831" d="M337.331,120.162c.178-.774,1.222-.609,1.744-.333.035.019.049.052.074.078a.65.65,0,0,1,.377.406c.231.708-.477.9-1.013.876C337.942,121.156,337.158,120.91,337.331,120.162Z" transform="translate(-253.706 -103.115)" fill="#e8ac54"/>
          <path id="Path_137832" data-name="Path 137832" d="M332.308,123.878c.178-.774,1.224-.609,1.746-.333.035.019.048.052.073.078a.647.647,0,0,1,.377.406c.231.708-.476.9-1.013.874C332.919,124.872,332.135,124.624,332.308,123.878Z" transform="translate(-255.966 -101.444)" fill="#e8ac54"/>
          <path id="Path_137833" data-name="Path 137833" d="M323.359,126.081c.178-.774,1.222-.609,1.744-.333.035.019.049.052.074.078a.641.641,0,0,1,.376.406c.232.708-.476.9-1.013.876C323.97,127.075,323.186,126.829,323.359,126.081Z" transform="translate(-259.992 -100.452)" fill="#e8ac54"/>
          <path id="Path_137834" data-name="Path 137834" d="M350.257,113.326a1.063,1.063,0,0,1,1.577.054.654.654,0,0,1,.4.457c.142.744-.7,1.111-1.3.925C350.314,114.57,349.742,113.923,350.257,113.326Z" transform="translate(-247.97 -106.084)" fill="#e8ac54"/>
          <path id="Path_137835" data-name="Path 137835" d="M342.334,122.942a1.063,1.063,0,0,1,1.577.054.654.654,0,0,1,.4.457c.142.744-.7,1.111-1.3.925C342.391,124.186,341.818,123.539,342.334,122.942Z" transform="translate(-251.535 -101.758)" fill="#e8ac54"/>
          <path id="Path_137836" data-name="Path 137836" d="M330.769,129.932a1.063,1.063,0,0,1,1.577.054.657.657,0,0,1,.4.458c.142.742-.7,1.109-1.3.924C330.826,131.176,330.253,130.529,330.769,129.932Z" transform="translate(-256.738 -98.613)" fill="#e8ac54"/>
          <path id="Path_137837" data-name="Path 137837" d="M319.062,129.932a1.065,1.065,0,0,1,1.579.054.657.657,0,0,1,.4.458c.141.742-.7,1.109-1.3.924C319.119,131.176,318.547,130.529,319.062,129.932Z" transform="translate(-262.004 -98.613)" fill="#e8ac54"/>
          <path id="Path_137838" data-name="Path 137838" d="M281.358,120.085a1.066,1.066,0,0,1,1.579.054.66.66,0,0,1,.4.458c.141.742-.7,1.109-1.3.924C281.415,121.329,280.843,120.682,281.358,120.085Z" transform="translate(-278.966 -103.043)" fill="#e8ac54"/>
          <path id="Path_137839" data-name="Path 137839" d="M279.846,110.362a1.063,1.063,0,0,1,1.577.054.654.654,0,0,1,.4.458c.142.742-.7,1.109-1.3.924C279.9,111.606,279.331,110.959,279.846,110.362Z" transform="translate(-279.646 -107.417)" fill="#e8ac54"/>
          <path id="Path_137840" data-name="Path 137840" d="M342.035,115.818a1.063,1.063,0,0,1,1.577.054.657.657,0,0,1,.4.457c.141.744-.7,1.109-1.3.924C342.092,117.062,341.52,116.414,342.035,115.818Z" transform="translate(-251.669 -104.963)" fill="#e8ac54"/>
        </g>
        <g id="Group_95507" data-name="Group 95507" transform="translate(37.791)">
          <g id="Group_95505" data-name="Group 95505">
            <path id="Path_137841" data-name="Path 137841" d="M330.377,86.67l6.843-13.278L295.29,49.121a3.068,3.068,0,0,0-3.346.165c-2.71,1.564-4.906,5.76-4.906,9.373,0,1.973.658,3.358,1.695,3.96h0c.042.025.081.051.123.071Z" transform="translate(-287.037 -48.701)" fill="#baa2a0"/>
            <path id="Path_137842" data-name="Path 137842" d="M316.044,75.457c0,3.613,2.2,5.273,4.906,3.709s4.906-5.762,4.906-9.373-2.2-5.273-4.906-3.71S316.044,71.844,316.044,75.457Z" transform="translate(-273.988 -41.146)" fill="#ceb5b3"/>
          </g>
          <g id="Group_95506" data-name="Group 95506" transform="translate(13.755 58.15)">
            <path id="Path_137843" data-name="Path 137843" d="M368.947,112.22l-9.669-16.4H308.425L298.837,112.1a11.988,11.988,0,0,0-2.313,6.891c0,10.964,16.713,19.855,37.327,19.855s37.327-8.891,37.327-19.855A11.934,11.934,0,0,0,368.947,112.22Z" transform="translate(-296.524 -85.653)" fill="#ceb5b3"/>
            <path id="Path_137844" data-name="Path 137844" d="M330.482,88.808c-14.618,0-26.469,6.3-26.469,14.08s11.851,14.08,26.469,14.08,26.469-6.306,26.469-14.08S345.1,88.808,330.482,88.808Z" transform="translate(-293.155 -88.808)" fill="#ddc6c3"/>
          </g>
          <path id="Path_137845" data-name="Path 137845" d="M308.133,83.188v18.318c0,6.02,9.176,10.9,20.5,10.9s20.494-4.882,20.494-10.9V83.188Z" transform="translate(-277.546 -33.187)" fill="#ceb5b3"/>
          <path id="Path_137846" data-name="Path 137846" d="M328.628,75.669c-11.319,0-20.5,4.88-20.5,10.9s9.176,10.9,20.5,10.9,20.494-4.88,20.494-10.9S339.946,75.669,328.628,75.669Z" transform="translate(-277.546 -36.569)" fill="#ddc6c3"/>
          <path id="Path_137847" data-name="Path 137847" d="M311.2,65.126V88.905c0,4.69,7.148,8.493,15.967,8.493s15.967-3.8,15.967-8.493V65.126Z" transform="translate(-276.165 -41.312)" fill="#ceb5b3"/>
          <path id="Path_137848" data-name="Path 137848" d="M327.171,59.268c-8.82,0-15.967,3.8-15.967,8.493s7.148,8.493,15.967,8.493,15.967-3.8,15.967-8.493S335.99,59.268,327.171,59.268Z" transform="translate(-276.165 -43.948)" fill="#efd9d8"/>
        </g>
        <g id="Group_95508" data-name="Group 95508" transform="translate(94.539 33.301)">
          <path id="Path_137849" data-name="Path 137849" d="M369.515,109.639l6.843-13.279-41.93-24.271a3.068,3.068,0,0,0-3.345.165c-2.71,1.564-4.906,5.762-4.906,9.373,0,1.973.658,3.358,1.693,3.96h0c.041.023.081.049.123.071Z" transform="translate(-326.177 -71.67)" fill="#baa2a0"/>
          <path id="Path_137850" data-name="Path 137850" d="M355.184,98.425c0,3.613,2.2,5.273,4.906,3.709s4.9-5.76,4.9-9.373-2.2-5.273-4.9-3.709S355.184,94.812,355.184,98.425Z" transform="translate(-313.128 -64.115)" fill="#ceb5b3"/>
        </g>
        <g id="Group_95509" data-name="Group 95509" transform="translate(18.881 121.148)">
          <path id="Path_137851" data-name="Path 137851" d="M367.259,134.857a.179.179,0,0,0-.331.09c-.1.8.007,1.605-.139,2.41-.135.742-.46,1.418-.661,2.14a.568.568,0,0,0,1.034.436A5.219,5.219,0,0,0,367.259,134.857Z" transform="translate(-232.556 -131.129)" fill="#e84d76"/>
          <path id="Path_137852" data-name="Path 137852" d="M363.622,137.919a.231.231,0,0,0-.426.116,21.476,21.476,0,0,0,.075,2.4,16.14,16.14,0,0,0-.075,2.227.481.481,0,0,0,.871.113A6.036,6.036,0,0,0,363.622,137.919Z" transform="translate(-233.879 -129.762)" fill="#e84d76"/>
          <path id="Path_137853" data-name="Path 137853" d="M335.738,152.562a7.258,7.258,0,0,0-2.271,1.119c-.873.439-1.838.638-2.7,1.079a.141.141,0,0,0,.033.255,5.443,5.443,0,0,0,3.053-.428c.824-.318,1.866-.745,2.2-1.615A.327.327,0,0,0,335.738,152.562Z" transform="translate(-248.486 -123.125)" fill="#e84d76"/>
          <path id="Path_137854" data-name="Path 137854" d="M334,154.733a.1.1,0,0,0-.174-.023c-.393.581-.613,1.25-.963,1.856s-.935,1.127-1.221,1.767c-.2.439.229,1.015.713.713A4.658,4.658,0,0,0,334,154.733Z" transform="translate(-248.081 -122.179)" fill="#e84d76"/>
          <path id="Path_137855" data-name="Path 137855" d="M322.983,163.089a15.547,15.547,0,0,1-1.07-2.545c-.087-.233-.481-.3-.539,0a4.754,4.754,0,0,0,.5,3.029c.377.755,1.015,1.976,1.978,1.84a.415.415,0,0,0,.3-.393C324.227,164.281,323.34,163.692,322.983,163.089Z" transform="translate(-252.712 -119.623)" fill="#e84d76"/>
          <path id="Path_137856" data-name="Path 137856" d="M330.933,161.392a23.892,23.892,0,0,1-2.72.793c-.989.136-1.93-.229-2.9-.141a.2.2,0,0,0-.17.3c1.067,2.165,5.256,1.528,6.252-.349A.413.413,0,0,0,330.933,161.392Z" transform="translate(-250.996 -119.159)" fill="#e84d76"/>
          <path id="Path_137857" data-name="Path 137857" d="M361.655,142.376c-.767.2-1.182.844-1.815,1.28a12.64,12.64,0,0,0-1.876,1.1.14.14,0,0,0,.029.219,3.186,3.186,0,0,0,2.366-.431c.786-.4,1.625-.919,1.691-1.867A.314.314,0,0,0,361.655,142.376Z" transform="translate(-236.237 -127.712)" fill="#e84d76"/>
          <path id="Path_137858" data-name="Path 137858" d="M276.731,136.729c-.32-.75-.926-1.347-1.243-2.112-.291-.706-.246-1.517-.568-2.191a.348.348,0,0,0-.593,0c-.564.739-.3,2.062-.012,2.871a3.218,3.218,0,0,0,1.869,2.141A.49.49,0,0,0,276.731,136.729Z" transform="translate(-273.994 -132.259)" fill="#e84d76"/>
          <path id="Path_137859" data-name="Path 137859" d="M279.668,134.755a4.235,4.235,0,0,0-2.424-1.364.351.351,0,0,0-.268.639,9.375,9.375,0,0,1,1.836,1.582c.451.555.639,1.345,1.264,1.733a.413.413,0,0,0,.6-.244C280.97,136.247,280.218,135.343,279.668,134.755Z" transform="translate(-272.728 -131.752)" fill="#e84d76"/>
          <path id="Path_137860" data-name="Path 137860" d="M317.976,152.343a.392.392,0,0,0-.648.378,11.35,11.35,0,0,1,.4,1.807,6.23,6.23,0,0,0,.041,1.567.3.3,0,0,0,.5.132C319.307,155.391,318.892,153.139,317.976,152.343Z" transform="translate(-254.504 -123.271)" fill="#e84d76"/>
          <path id="Path_137861" data-name="Path 137861" d="M318.582,159.21a12.9,12.9,0,0,0-1.538-2.118,16.511,16.511,0,0,1-1.179-2.466c-.029-.064-.123-.041-.141.017-.477,1.633.49,4.693,2.365,5.06C318.353,159.754,318.707,159.519,318.582,159.21Z" transform="translate(-255.275 -122.214)" fill="#e84d76"/>
          <path id="Path_137862" data-name="Path 137862" d="M284.047,137.469a5.034,5.034,0,0,0-1.734.51c-.634.188-1.311.17-1.93.371-.315.1-.448.6-.1.767,1.1.521,3.575.178,4.1-1.066A.393.393,0,0,0,284.047,137.469Z" transform="translate(-271.258 -129.916)" fill="#e84d76"/>
          <path id="Path_137863" data-name="Path 137863" d="M283.986,134.981c-.13-.1-.262.064-.244.187.125.815.42,1.588.521,2.414a19.578,19.578,0,0,0,.086,2.189.534.534,0,0,0,.966.126C286.051,138.461,285.239,135.921,283.986,134.981Z" transform="translate(-269.61 -131.048)" fill="#e84d76"/>
        </g>
        <g id="Group_95510" data-name="Group 95510" transform="translate(56.67 33.581)">
          <path id="Path_137864" data-name="Path 137864" d="M346.178,109.338a3.684,3.684,0,0,0-1.435-2.268.219.219,0,0,0-.318.244c.142.8.613,1.493.821,2.281.18.679,0,1.637.434,2.2a.337.337,0,0,0,.521.067C346.749,111.211,346.4,110.082,346.178,109.338Z" transform="translate(-280.1 -56.037)" fill="#baa2a0"/>
          <path id="Path_137865" data-name="Path 137865" d="M346.217,113.579c-.861-.654-1.654-1.37-2.494-2.046a.376.376,0,0,0-.589.454,7.723,7.723,0,0,0,2.431,2.705C346.249,115.181,346.862,114.07,346.217,113.579Z" transform="translate(-280.7 -54.06)" fill="#baa2a0"/>
          <path id="Path_137866" data-name="Path 137866" d="M343.888,114.625a10.337,10.337,0,0,1-1.5,2.75c-.338.4-1.109,1.245-.323,1.624.8.387,1.474-.963,1.749-1.492a5.862,5.862,0,0,0,.731-2.707C344.536,114.481,344.033,114.288,343.888,114.625Z" transform="translate(-281.315 -52.705)" fill="#baa2a0"/>
          <path id="Path_137867" data-name="Path 137867" d="M325.211,122.378c-.609-.213-1.35.3-2.017.268a10.775,10.775,0,0,1-2.094-.621.226.226,0,0,0-.274.274c.175.912,1.314,1.421,2.147,1.544.753.11,2.381.007,2.53-.95A.433.433,0,0,0,325.211,122.378Z" transform="translate(-290.717 -49.299)" fill="#baa2a0"/>
          <path id="Path_137868" data-name="Path 137868" d="M324.471,119.857c-.218-.1-.49.113-.348.348a4.836,4.836,0,0,1,.835,3.209c-.1.815,1.195.818,1.285,0A3.466,3.466,0,0,0,324.471,119.857Z" transform="translate(-289.249 -50.283)" fill="#baa2a0"/>
          <path id="Path_137869" data-name="Path 137869" d="M302.929,112.65a.186.186,0,0,0-.277.159c-.025.465-.457.824-.732,1.156-.31.373-.6.76-.9,1.141-.432.555-1.011,1.145-.958,1.888a.354.354,0,0,0,.442.336c1.053-.286,1.725-1.857,2.244-2.727C303.062,114.074,303.716,113.075,302.929,112.65Z" transform="translate(-300.058 -53.524)" fill="#baa2a0"/>
          <path id="Path_137870" data-name="Path 137870" d="M331.261,99.71a17.95,17.95,0,0,0-2.375.406,5.028,5.028,0,0,1-2.162-.233.258.258,0,0,0-.287.374c1.042,1.763,3.8,1.219,5.083.083A.372.372,0,0,0,331.261,99.71Z" transform="translate(-288.205 -59.335)" fill="#baa2a0"/>
          <path id="Path_137871" data-name="Path 137871" d="M330.874,97.057a.369.369,0,0,0-.522.522,7.49,7.49,0,0,1,1.129,2.891c.236.9,1.5.5,1.36-.376A5.319,5.319,0,0,0,330.874,97.057Z" transform="translate(-286.471 -60.576)" fill="#baa2a0"/>
          <path id="Path_137872" data-name="Path 137872" d="M335.633,93.839a.213.213,0,0,0-.384-.051c-.454.687-.684,1.5-1.118,2.2-.373.6-1.2,1.142-1.192,1.886a.467.467,0,0,0,.458.457c.882.041,1.479-1.18,1.807-1.862A3.658,3.658,0,0,0,335.633,93.839Z" transform="translate(-285.265 -62.043)" fill="#baa2a0"/>
          <path id="Path_137873" data-name="Path 137873" d="M326.981,83.359c-.062-.168-.339-.257-.431-.057a12.548,12.548,0,0,1-.687,1.614,16.476,16.476,0,0,0-1.1,1.415.412.412,0,0,0,.46.6C326.564,86.708,327.412,84.542,326.981,83.359Z" transform="translate(-288.966 -66.768)" fill="#baa2a0"/>
          <path id="Path_137874" data-name="Path 137874" d="M323.495,86.114c-.648-.792-1.611-1.16-2.255-2-.145-.188-.51-.159-.5.135.058,1.3,1.113,2.887,2.578,2.52A.4.4,0,0,0,323.495,86.114Z" transform="translate(-290.752 -66.403)" fill="#baa2a0"/>
          <path id="Path_137875" data-name="Path 137875" d="M326.76,71.879c-1.19.458-2.623,2.3-2.463,3.619a.488.488,0,0,0,.9.244,19.171,19.171,0,0,0,.781-1.83c.307-.584.764-1.061,1.09-1.631C327.179,72.089,326.994,71.789,326.76,71.879Z" transform="translate(-289.159 -71.863)" fill="#baa2a0"/>
        </g>
        <g id="Group_95511" data-name="Group 95511" transform="translate(0 14.557)">
          <path id="Path_137876" data-name="Path 137876" d="M318.287,74.978c-9.568-5.543-19.086-11.229-28.951-16.233a.032.032,0,0,0-.032.055c9.308,5.971,19.031,11.3,28.655,16.739A.325.325,0,0,0,318.287,74.978Z" transform="translate(-248.233 -58.741)" fill="#a37d7c"/>
          <path id="Path_137877" data-name="Path 137877" d="M363.254,101.678c-4.727-3.262-11.215-6.574-16.556-9.814-5.826-3.533-11.74-6.935-17.8-10.043a.064.064,0,0,0-.064.11c5.6,3.4,11.247,6.722,16.83,10.149,5.552,3.409,11.808,7,17.565,10.045C363.377,102.2,363.409,101.785,363.254,101.678Z" transform="translate(-230.458 -48.362)" fill="#a37d7c"/>
          <path id="Path_137878" data-name="Path 137878" d="M335.572,92.638c-5.238.525-10.43,1.069-15.509-.229-4.946-1.263-8.047-3.948-11.5-7.493-.017-.017-.054,0-.043.025,2.314,5.65,8.566,8.466,14.968,9.1,4.379.436,8.795-.422,12.205-1C335.955,93,335.829,92.612,335.572,92.638Z" transform="translate(-239.584 -46.969)" fill="#fff"/>
          <path id="Path_137879" data-name="Path 137879" d="M335.183,111.095c-5.238.523-12.943-.432-18.815-2.186-4.892-1.461-8.047-3.948-11.506-7.493-.016-.017-.054,0-.042.025,2.42,5.141,6.353,6.909,13.2,8.954A48.6,48.6,0,0,0,335.3,111.5C335.567,111.458,335.44,111.068,335.183,111.095Z" transform="translate(-241.247 -39.547)" fill="#fff"/>
          <path id="Path_137880" data-name="Path 137880" d="M383.179,129.69c-1.09,3.88-1.593,7.883-2.565,11.785-1.287,5.176-7,7.232-11.241,9.772-7.932,4.748-16.163,9.194-23.81,14.39a.3.3,0,0,0,.3.516c9.852-5.082,19.27-11.219,28.793-16.891,2.659-1.583,5.354-2.723,6.445-5.786,1.469-4.123,1.875-9.421,2.127-13.778C383.231,129.669,383.188,129.664,383.179,129.69Z" transform="translate(-222.979 -26.831)" fill="#d13b6a"/>
          <path id="Path_137881" data-name="Path 137881" d="M302.709,155.857c-6.124-3.577-12.5-6.736-18.663-10.259-3.3-1.889-7.331-3.623-9.459-6.907-1.74-2.684-2.144-5.969-3.117-8.957a.076.076,0,0,0-.149.02c.064,6.12,2.408,10.98,7.729,14.065,7.589,4.4,15.47,8.759,23.46,12.378C302.737,156.3,302.934,155.988,302.709,155.857Z" transform="translate(-256.316 -26.828)" fill="#d13b6a"/>
          <path id="Path_137882" data-name="Path 137882" d="M379.043,109.925a.083.083,0,0,0-.084.142c3.023,2.192,8.219,4.213,8.72,8.134.592,4.635-3.149,7.038-6.827,8.883a99.636,99.636,0,0,0-16.34,9.79.114.114,0,0,0,.116.2c4.64-2.5,9.011-5.452,13.74-7.789,3.148-1.556,6.842-2.882,8.988-5.84C392.435,116.441,384.512,112.48,379.043,109.925Z" transform="translate(-214.415 -35.72)" fill="#d13b6a"/>
          <path id="Path_137883" data-name="Path 137883" d="M301.8,92.572c-8.25,3.858-18.2,10.085-26.609,14.877-3.765,2.146-7.977,4.138-11.386,6.833-2.165,1.711-3.414,3.7-2.562,6.445.039.129.268.115.249-.035-.71-5.407,6.187-8.054,10.043-10.306q4.674-2.727,9.418-5.333c6.759-3.712,14.406-8.345,20.726-11.872C302.472,92.738,301.967,92.492,301.8,92.572Z" transform="translate(-260.972 -43.529)" fill="#d13b6a"/>
          <path id="Path_137884" data-name="Path 137884" d="M292.32,131.637c-4.284-3.283-9.253-5.849-13.914-8.562a99.392,99.392,0,0,0-13.226-6.806c-.062-.025-.1.072-.044.1,4.413,2.716,9.136,4.973,13.667,7.5s8.78,5.6,13.343,8.064A.172.172,0,0,0,292.32,131.637Z" transform="translate(-259.11 -32.862)" fill="#fff"/>
          <path id="Path_137885" data-name="Path 137885" d="M311.619,142.728c-6.9-5.417-17.238-10.509-24.584-13.98a.077.077,0,0,0-.078.132c7.1,4.961,16.832,9.523,24.353,14.248C311.55,143.278,311.85,142.91,311.619,142.728Z" transform="translate(-249.298 -27.251)" fill="#fff"/>
        </g>
      </g>
    </g>
  </g>
</svg>
