<svg xmlns="http://www.w3.org/2000/svg" width="458.769" height="295.08" viewBox="0 0 458.769 295.08">
  <g id="t4-i5" transform="translate(-3160 9507)">
    <path id="Path_137887" data-name="Path 137887" d="M917.721,539.316c12.094-71.918-94.7-96.9-170.412-78.489-76.324,18.563-94.019-12.209-201.343-3.417-108.671,8.9-53.5,120.273-53.5,120.273s17.291,96.843,37.777,141.482c20.375,44.4,215.4,28.335,262.848,27.01,47.171-1.317,88.16,1.225,129.2-47.523C963.26,649.992,905.666,610.995,917.721,539.316Z" transform="translate(2681.537 -9962)" fill="#effcf6"/>
    <g id="Group_95538" data-name="Group 95538" transform="translate(2978.038 -9851.3)">
      <g id="Group_95522" data-name="Group 95522" transform="translate(361.676 503.285)">
        <g id="Group_95516" data-name="Group 95516" transform="translate(9.804 40.442)">
          <path id="Path_137889" data-name="Path 137889" d="M255.013,506.177c-.393-1.7-1.3-3.419-1.561-5.391a50.36,50.36,0,0,1,.043-5.055c-.027-1.467-.161-1.66,1.183-2.034.186-.051.362-.1.53-.156a25.01,25.01,0,0,0,.985,5.334c.774,2.732,2.4,3.876,4.5,5.614a24.477,24.477,0,0,1,4.134,4.452,8.375,8.375,0,0,1-2.118-.9,35.991,35.991,0,0,1-3.069-2.566c-.838-.744-1.205-.409-1.021-.186s.373.484.857,1.079a20.225,20.225,0,0,1,1.144,1.674c1.563,1.865,3,3.865,4.483,5.773a11.385,11.385,0,0,1-1.463-.682,24.934,24.934,0,0,1-5.6-5.355c-.291-.494-.8-1.639-1.055-1.93-.292-.328-.32.243-.262.539.113.557.327,2.021.327,2.021a5.47,5.47,0,0,1-.827,3.388,12.171,12.171,0,0,1-.52-1.763C255.479,509.131,255.317,507.488,255.013,506.177Z" transform="translate(-250.198 -486.995)" fill="#feb51c"/>
          <path id="Path_137890" data-name="Path 137890" d="M256.514,514.507a21.409,21.409,0,0,0-.756-4.349c-.156-.451-1.009-3.274-1.226-3.679a3.954,3.954,0,0,0-1.563-1.4c-.677-.292-1.339-.138-1.45-.668.446-1.339,2.248-.53,2.3-1.5.026-.5-.427-3.495-.388-4.522.1-2.605-.15-8.073.021-8.107,1.016-.193,2.028-.388,3.045-.573.424-.077.038,3.522,0,5.025-.015.516.005,1.019.036,1.52-.167.053-.344.1-.53.156-1.344.374-1.21.568-1.183,2.034a50.351,50.351,0,0,0-.043,5.055c.26,1.971,1.168,3.695,1.561,5.391.3,1.311.467,2.954.689,3.852a12.17,12.17,0,0,0,.52,1.763C257.085,515.177,256.635,515.211,256.514,514.507Z" transform="translate(-251.52 -489.712)" fill="#f4a00b"/>
          <path id="Path_137891" data-name="Path 137891" d="M255.608,500.778c.258.291.764,1.436,1.055,1.93a24.933,24.933,0,0,0,5.6,5.355,11.379,11.379,0,0,0,1.463.682l.186.244c.161.2.009.591-.265.515-3.727-1.05-7.1-4.768-7.974-6.167,0,0-.214-1.463-.327-2.021C255.288,501.021,255.316,500.45,255.608,500.778Z" transform="translate(-248.822 -481.93)" fill="#f4a00b"/>
          <path id="Path_137892" data-name="Path 137892" d="M256.464,500.523c-.185-.222.183-.557,1.021.186a35.987,35.987,0,0,0,3.069,2.566,8.374,8.374,0,0,0,2.118.9l.014.019c.171.232.029.662-.311.6a9.807,9.807,0,0,1-3.91-1.527,20.243,20.243,0,0,0-1.144-1.674C256.837,501.006,256.651,500.746,256.464,500.523Z" transform="translate(-248.044 -482.233)" fill="#f4a00b"/>
        </g>
        <g id="Group_95517" data-name="Group 95517" transform="translate(18.846 35.433)">
          <path id="Path_137893" data-name="Path 137893" d="M260.3,503.247c-.395-1.7-1.3-3.419-1.563-5.391a50.337,50.337,0,0,1,.043-5.055c-.027-1.469-.161-1.66,1.183-2.034.186-.051.362-.1.53-.156a25.007,25.007,0,0,0,.986,5.334c.773,2.732,2.4,3.876,4.5,5.614a24.421,24.421,0,0,1,4.134,4.452,8.39,8.39,0,0,1-2.116-.9,35.465,35.465,0,0,1-3.069-2.566c-.839-.744-1.207-.408-1.021-.186s.371.484.855,1.079a19.781,19.781,0,0,1,1.144,1.674c1.563,1.865,3,3.865,4.483,5.773a11.49,11.49,0,0,1-1.463-.682,24.925,24.925,0,0,1-5.6-5.355c-.292-.494-.8-1.64-1.056-1.93-.292-.328-.32.243-.26.539.111.557.325,2.021.325,2.021a5.462,5.462,0,0,1-.827,3.387,12.055,12.055,0,0,1-.52-1.761C260.768,506.2,260.608,504.558,260.3,503.247Z" transform="translate(-255.487 -484.065)" fill="#feb51c"/>
          <path id="Path_137894" data-name="Path 137894" d="M261.8,511.577a21.537,21.537,0,0,0-.757-4.349c-.154-.451-1.009-3.274-1.226-3.681a3.968,3.968,0,0,0-1.561-1.393c-.677-.294-1.339-.139-1.451-.668.446-1.339,2.248-.53,2.3-1.5.026-.5-.426-3.494-.388-4.522.1-2.605-.15-8.075.022-8.107,1.014-.193,2.028-.388,3.043-.573.424-.077.038,3.522,0,5.025-.014.515.005,1.019.036,1.52-.168.053-.344.1-.53.156-1.344.374-1.21.566-1.183,2.034a50.328,50.328,0,0,0-.043,5.055c.26,1.971,1.168,3.694,1.563,5.39.3,1.311.465,2.954.687,3.852a12.042,12.042,0,0,0,.52,1.761C262.374,512.247,261.924,512.281,261.8,511.577Z" transform="translate(-256.809 -486.782)" fill="#f4a00b"/>
          <path id="Path_137895" data-name="Path 137895" d="M260.9,497.848c.26.291.764,1.436,1.057,1.93a24.925,24.925,0,0,0,5.6,5.355,11.491,11.491,0,0,0,1.463.682c.063.08.125.162.188.243.159.205.007.593-.265.516-3.729-1.05-7.1-4.77-7.975-6.167,0,0-.214-1.463-.325-2.021C260.577,498.091,260.6,497.52,260.9,497.848Z" transform="translate(-254.111 -479)" fill="#f4a00b"/>
          <path id="Path_137896" data-name="Path 137896" d="M261.755,497.593c-.186-.222.181-.557,1.021.186a35.469,35.469,0,0,0,3.069,2.566,8.391,8.391,0,0,0,2.116.9l.014.019c.171.233.029.662-.311.6a9.811,9.811,0,0,1-3.91-1.527,19.772,19.772,0,0,0-1.144-1.674C262.126,498.076,261.941,497.816,261.755,497.593Z" transform="translate(-253.333 -479.303)" fill="#f4a00b"/>
        </g>
        <path id="Path_137897" data-name="Path 137897" d="M278.263,501.692c.721,2.048,3.3,3.546,5.192,2.153a.362.362,0,0,0,.455-.438,1.926,1.926,0,0,1,.306-1.764.366.366,0,0,0-.217-.533l-2.99-.872a4.954,4.954,0,0,0-2.067-.48C278.039,499.938,278.015,500.99,278.263,501.692Z" transform="translate(-222.834 -442.159)" fill="#ff6485"/>
        <g id="Group_95518" data-name="Group 95518" transform="translate(59.156 58.541)">
          <path id="Path_137898" data-name="Path 137898" d="M285.05,501.659a18.508,18.508,0,0,1-1.67,4.491.268.268,0,0,1-.258.145c-.058-.118-.111-.233-.171-.354C282.186,504.352,281.865,502.11,285.05,501.659Z" transform="translate(-278.931 -499.334)" fill="#feb51c"/>
          <path id="Path_137899" data-name="Path 137899" d="M280.431,502.332a.345.345,0,0,1,.121-.462c1.559-1.043,6.192-1.607,6.057-1.569a6.532,6.532,0,0,1-.1,2.323c-3.185.451-2.864,2.693-2.1,4.283.06.121.113.236.171.354a.355.355,0,0,1-.229-.082A18.651,18.651,0,0,1,280.431,502.332Z" transform="translate(-280.387 -500.299)" fill="#f4a00b"/>
        </g>
        <g id="Group_95521" data-name="Group 95521">
          <g id="Group_95519" data-name="Group 95519" transform="translate(2.634)">
            <path id="Path_137900" data-name="Path 137900" d="M247.509,469.623a5.557,5.557,0,0,1,1.7-.065,2.741,2.741,0,0,1,.5-1.154c1.32-1.72,3.453-1.229,5.076-.18a1.864,1.864,0,0,1,1.151-1.982c1.26-.556,2.86.26,3.985.771.61.277,1.221.574,1.824.887a30.656,30.656,0,0,1,14.462,2.113c4.336,3.176,8.654,7.868,9.138,10.745,1.8.773,7.495,3.185,6.854,10.089a10.389,10.389,0,0,1,1.578,9.921,2.315,2.315,0,0,1,2.684,2c.71.268,1.475.333,2.192.627.785.323,3.835,2.3,4.413,4.913,3.544.684,5.963,2.9,7.782,5.835a21.006,21.006,0,0,1,.884,2.982c.793,3.691.034,8.075-4.084,9.268a6.815,6.815,0,0,1-3.45.026l-.01-.012a7.769,7.769,0,0,1-2.532-1.857A7.643,7.643,0,0,1,300,521.7c0,.051-3.076,1.64-4.869.973-1.633-.607-3.563-3.594-3.631-3.734-.154-.306-.556-.07-.509.215a3.635,3.635,0,0,0,.109.405,6.827,6.827,0,0,1-6.719-1.086c-.014-.012-3.853,2.648-6.355,2.159-2.429-.477-3.848-2.1-4.86-4.2a3.428,3.428,0,0,0,2.262-.713c.048-.038-.005-.1-.055-.094a5.925,5.925,0,0,1-5.5-1.311,9.07,9.07,0,0,1-1.667-1.98c2.276-1.046,6.2-3.012,5.343-6.254a7.18,7.18,0,0,1-5.076,2.453c-2.279.185-5.667-.874-6.746-3.513a7.853,7.853,0,0,1-5.551-1.057c-1.725-1.248-1.537-4.642-1.54-4.645-.026-.036-2.667-.489-3.1-2.994a3.844,3.844,0,0,1,2.961-4.3,7.689,7.689,0,0,1,6.546,2.149c.274.292.66-.08.515-.4a7.52,7.52,0,0,0-8.042-4.224c-.985-.889-3-2.768-1.375-8.6C248.13,478.423,246.8,474.051,247.509,469.623Z" transform="translate(-247.326 -466.057)" fill="#ead9d6"/>
            <path id="Path_137901" data-name="Path 137901" d="M291.079,506.666c-.578-2.614-3.628-4.59-4.413-4.913-.716-.294-1.482-.359-2.192-.627a2.315,2.315,0,0,0-2.684-2,10.389,10.389,0,0,0-1.578-9.921c.641-6.9-5.057-9.316-6.854-10.089-.484-2.877-4.8-7.569-9.138-10.745.709.282,1.4.576,2.089.879a17.751,17.751,0,0,1,8.764,7.386,17.756,17.756,0,0,1,8.562,11.111,33.5,33.5,0,0,1,.624,5.939c.084,1.475.27,3.091.2,4.632,2.5.906,6.271,3.737,7.534,6.538,3.937,1.655,5.377,3.7,6.864,7.645C297.043,509.566,294.623,507.35,291.079,506.666Z" transform="translate(-235.337 -464.414)" fill="#f4e8e6"/>
          </g>
          <g id="Group_95520" data-name="Group 95520" transform="translate(0 3.566)">
            <path id="Path_137902" data-name="Path 137902" d="M287.413,520.61c-.947,1.089-4.071,2.426-6,1.4-1.882,1.5-7.387.137-8.119-2.238a9.049,9.049,0,0,1-3.961-.822c-1.294-.672-3.293-2.125-2.224-3.784.01-.015.01-.032.019-.048h0a3.674,3.674,0,0,1-3.589-3.818,4.067,4.067,0,0,0,2.874-1.289,16.6,16.6,0,0,1-3.865-.306,5.734,5.734,0,0,1-3.183-2.963,7.261,7.261,0,0,1-4.968-1.728c-1.569-1.357-2.007-2.978-2.219-5.385a4.559,4.559,0,0,1-1.872-3.857,6.425,6.425,0,0,1,1.3-4.548,8.011,8.011,0,0,1-3.009-3.335c-.137-2.658-.168-6.881-.45-9.678-2.342-4.035-3.178-7.512-1.45-9.056a4.01,4.01,0,0,1,1.9-1.016c-.713,4.428.621,8.8,4.631,11.333-1.621,5.835.39,7.714,1.375,8.6a7.52,7.52,0,0,1,8.042,4.224c.145.318-.241.691-.515.4a7.689,7.689,0,0,0-6.546-2.149,3.844,3.844,0,0,0-2.961,4.3c.434,2.5,3.076,2.958,3.1,2.994,0,0-.185,3.4,1.54,4.645a7.853,7.853,0,0,0,5.551,1.057c1.079,2.64,4.467,3.7,6.746,3.513a7.18,7.18,0,0,0,5.076-2.453c.855,3.241-3.067,5.208-5.343,6.254a9.072,9.072,0,0,0,1.667,1.98,5.925,5.925,0,0,0,5.5,1.311c.05-.01.1.057.055.094a3.428,3.428,0,0,1-2.262.713c1.012,2.1,2.431,3.722,4.86,4.2,2.5.489,6.341-2.171,6.355-2.159a6.827,6.827,0,0,0,6.719,1.086,3.642,3.642,0,0,1-.109-.405c-.046-.286.356-.521.509-.215.068.14,2,3.127,3.631,3.734,1.793.667,4.867-.922,4.869-.973a7.643,7.643,0,0,0,1.658,2.847,7.77,7.77,0,0,0,2.532,1.857l.01.012a8.152,8.152,0,0,1-3.8-2.06c-3.231,1.985-7.753,1.168-11.61-.292l-.058.029A6.638,6.638,0,0,1,287.413,520.61Z" transform="translate(-245.785 -468.143)" fill="#ddc6c3"/>
            <path id="Path_137903" data-name="Path 137903" d="M259.846,505.051c-3.469.053-6.859-2.954-7.977-7.543-2.4-1.992-5-9.576-4.4-17.813a8.011,8.011,0,0,0,3.009,3.335,6.425,6.425,0,0,0-1.3,4.548,4.56,4.56,0,0,0,1.872,3.857c.212,2.407.65,4.028,2.219,5.385a7.261,7.261,0,0,0,4.968,1.728,5.734,5.734,0,0,0,3.183,2.963,16.6,16.6,0,0,0,3.865.306,4.067,4.067,0,0,1-2.874,1.289A3.674,3.674,0,0,0,266,506.924h0c-.009.015-.009.032-.019.048-1.069,1.658.93,3.112,2.224,3.783a9.05,9.05,0,0,0,3.961.822c.732,2.375,6.237,3.734,8.119,2.238,1.925,1.022,5.048-.315,6-1.4a6.638,6.638,0,0,0,2.414,2.005C281.712,518.23,266.076,516.62,259.846,505.051Z" transform="translate(-244.652 -459.945)" fill="#ceb5b3"/>
          </g>
        </g>
        <path id="Path_137904" data-name="Path 137904" d="M284.146,505.056a.378.378,0,0,0,.361.473c1.051.079,2.339.118,2.951-.932.486-.834-.038-1.065-.075-1.787-.074-1.431,1.241-2.438.781-3.942-.323-1.053-1.039-.981-1.677-1.6-.981-.952-1.233-3.424-3.375-2.51-.494.212-.393.939-.084,1.433A11.532,11.532,0,0,1,284.146,505.056Z" transform="translate(-219.541 -445.829)" fill="#ff6485"/>
        <path id="Path_137905" data-name="Path 137905" d="M280.5,500.994a1.121,1.121,0,0,0,1.7.564.965.965,0,0,0,.32-.479,1.072,1.072,0,1,0-2.022-.086Z" transform="translate(-221.173 -442.235)" fill="#824030"/>
        <path id="Path_137906" data-name="Path 137906" d="M250.354,481.218c3.867-3.52,11.208-2.906,14.717,1.016,3.009-.518,6.9,1.939,7.664,4.828.024.087-.1.176-.162.094a11.222,11.222,0,0,0-3.147-3.124A8.771,8.771,0,0,0,265.679,483a7.607,7.607,0,0,1,.479.763.1.1,0,0,1-.159.123c-.4-.337-4.606-3.431-6.645-3.85-3.214-.662-5.741.409-8.574,1.737C250.441,481.93,250.037,481.506,250.354,481.218Z" transform="translate(-242.625 -456.942)" fill="#ddc6c3"/>
        <path id="Path_137907" data-name="Path 137907" d="M263.956,492.757a.177.177,0,0,1,.3-.123c.407.407.614.9,1.151,1.18a3.224,3.224,0,0,0,1.9.132c.065-.007.091.082.051.125a1.679,1.679,0,0,1-1.207.453c.234.615.333,1.231,1.075,1.482a1.98,1.98,0,0,0,.537.1,1.858,1.858,0,0,1,.424,0c.055.019.169.06.156.138-.051.291-.468.333-.716.342a1.861,1.861,0,0,1-1.087-.333,1.6,1.6,0,0,1-.716-1.737C264.849,494.391,263.888,493.728,263.956,492.757Z" transform="translate(-232.893 -447.233)" fill="#ddc6c3"/>
        <path id="Path_137908" data-name="Path 137908" d="M258.635,487.376a3.849,3.849,0,0,0,2.144.99,2.4,2.4,0,0,0,1.043-.253.155.155,0,0,1,.183-.087c.325-.173.633-.388.949-.6a.066.066,0,0,1,.1.074,1.886,1.886,0,0,1-.508.833,1.775,1.775,0,0,0,1.214.405,2.715,2.715,0,0,0,1.59-1,.06.06,0,0,1,.1.043,1.721,1.721,0,0,1-1.609,1.564,2.105,2.105,0,0,1-1.817-.651,2.641,2.641,0,0,1-3.587-1.171C258.4,487.422,258.54,487.306,258.635,487.376Z" transform="translate(-236.813 -450.944)" fill="#ddc6c3"/>
        <path id="Path_137909" data-name="Path 137909" d="M253.88,485.983a.124.124,0,0,1,.224.029,2.044,2.044,0,0,0,.759,1.479,3.686,3.686,0,0,0,.581.344.621.621,0,0,0,.793-.065c.149-.113.33.044.34.195.026.347-.265.554-.586.592a1.975,1.975,0,0,1-1.228-.451C254.16,487.693,253.4,486.737,253.88,485.983Z" transform="translate(-240.149 -451.958)" fill="#ddc6c3"/>
        <path id="Path_137910" data-name="Path 137910" d="M253.483,483.078a.175.175,0,0,1,.291.077,1.394,1.394,0,0,0,.863,1.26,2.769,2.769,0,0,0,1.587.01c.073-.015.164.051.133.133-.2.525-.807.641-1.373.585a1.854,1.854,0,0,0,.786.7c.5.214,1.019.072,1.506.241a.2.2,0,0,1,.087.333c-.482.564-1.491.27-2.009-.1a2.058,2.058,0,0,1-.853-1.26,2.589,2.589,0,0,1-.277-.1C253.542,484.668,252.873,483.75,253.483,483.078Z" transform="translate(-240.493 -454.013)" fill="#ddc6c3"/>
        <path id="Path_137911" data-name="Path 137911" d="M258.464,482.569a.074.074,0,0,1,.033.121,1.146,1.146,0,0,0-.436.713,2.544,2.544,0,0,0,.005.773,1.424,1.424,0,0,0,.191.537c.106.167.243.238.284.434a.188.188,0,0,1-.128.227c-.68.209-.918-.932-.932-1.39C257.468,483.5,257.7,482.251,258.464,482.569Z" transform="translate(-237.486 -454.376)" fill="#ddc6c3"/>
        <path id="Path_137912" data-name="Path 137912" d="M259.814,483.617c.132-.051.233.094.21.21-.109.571-.436,1-.183,1.6.234.569.783.723,1.248,1.041.08.056.109.205,0,.253-.766.335-1.571-.345-1.853-1.039C258.968,485.033,259.055,483.9,259.814,483.617Z" transform="translate(-236.338 -453.603)" fill="#ddc6c3"/>
        <path id="Path_137913" data-name="Path 137913" d="M267.968,489.963a.1.1,0,0,1,.12.091,2.668,2.668,0,0,1-.089.607,1.57,1.57,0,0,0,.161.834,2.578,2.578,0,0,0,.792,1.051c.015.008.021.026.034.038a2.868,2.868,0,0,1,.674-1.219.078.078,0,0,1,.128.075,9.9,9.9,0,0,0-.306,1.652,2.332,2.332,0,0,0,.053.747c.121.392.374.414.6.677a.157.157,0,0,1,0,.217l-.092.092a.294.294,0,0,1-.286.075c-.805-.214-1-1-.884-1.807-.595.089-1.1-.9-1.27-1.366C267.421,491.235,267.289,490.143,267.968,489.963Z" transform="translate(-230.406 -449.095)" fill="#ddc6c3"/>
        <path id="Path_137914" data-name="Path 137914" d="M264.813,485.331c.1-.255.274-.621.569-.689a.245.245,0,0,1,.332.224.08.08,0,0,1-.08.08c-.25.007-.361,1-.364,1.169-.005.374.2.745.109,1.111a.189.189,0,0,1-.275.111C264.455,487.039,264.6,485.861,264.813,485.331Z" transform="translate(-232.41 -452.875)" fill="#ddc6c3"/>
        <path id="Path_137915" data-name="Path 137915" d="M252.848,474.661a.06.06,0,0,1,.015.108c-.133.1-.171.494-.2.652a2.2,2.2,0,0,0,.007.915c.1.463.477.805.528,1.26.02.19-.19.292-.345.263C251.538,477.6,251.867,474.258,252.848,474.661Z" transform="translate(-241.386 -459.975)" fill="#ddc6c3"/>
        <path id="Path_137916" data-name="Path 137916" d="M251.533,470.843c.164-.2.52.072.361.279a1.2,1.2,0,0,0,.092,1.527,9.809,9.809,0,0,0,.817.742c.35-.487.906-1.123,1.44-1.068a.062.062,0,0,1,.06.079c-.087.479-.655.879-.916,1.284a2.805,2.805,0,0,0-.521,1.781.268.268,0,0,1-.453.188,1.454,1.454,0,0,1,.053-1.744,2.158,2.158,0,0,1-1.222-1.253A1.824,1.824,0,0,1,251.533,470.843Z" transform="translate(-241.999 -462.71)" fill="#ddc6c3"/>
        <path id="Path_137917" data-name="Path 137917" d="M257.043,475.124a.17.17,0,0,1,.246.19,3.526,3.526,0,0,0,.009,1.939,2.148,2.148,0,0,0,.391.867c.063.075.12.128.173.181a1.475,1.475,0,0,1,1.439-.732.062.062,0,0,1,.027.1,3.508,3.508,0,0,0-.952,1.115,3.8,3.8,0,0,0-.056,1.547.219.219,0,0,1-.369.152,1.433,1.433,0,0,1-.374-1.6C256.464,478.535,256.079,475.685,257.043,475.124Z" transform="translate(-238.186 -459.638)" fill="#ddc6c3"/>
        <path id="Path_137918" data-name="Path 137918" d="M248.43,468.765a16.02,16.02,0,0,1,3.093,1.508,23.787,23.787,0,0,0,2.19,1.412,9.007,9.007,0,0,0-2.19-3.419,3.843,3.843,0,0,0-2.181-1.091A2.364,2.364,0,0,0,248.43,468.765Z" transform="translate(-243.909 -465.264)" fill="#ddc6c3"/>
        <path id="Path_137919" data-name="Path 137919" d="M251.691,467.985a10.91,10.91,0,0,1,1.718,1.4,5.953,5.953,0,0,0,1.173,1.016,2.235,2.235,0,0,0-.238-2.414c-.937-1.174-1.942-1.778-2.151-1.537A2.7,2.7,0,0,0,251.691,467.985Z" transform="translate(-241.595 -465.817)" fill="#ddc6c3"/>
        <path id="Path_137920" data-name="Path 137920" d="M255.343,471.481c.138-.451.675-1.086,1.185-.735a.106.106,0,0,1,.021.164c-.164.145-.374.241-.489.439a1.487,1.487,0,0,0-.144.7,5.356,5.356,0,0,0,.256,1.332.322.322,0,0,1-.586.246A2.8,2.8,0,0,1,255.343,471.481Z" transform="translate(-239.081 -462.801)" fill="#ddc6c3"/>
        <path id="Path_137921" data-name="Path 137921" d="M258.731,472.08a.074.074,0,0,1,.015.115c-.275.3-.682.455-.961.775-.328.376-.328.791-.535,1.209a.339.339,0,0,1-.612-.08C256.356,473.2,257.768,471.513,258.731,472.08Z" transform="translate(-238.11 -461.864)" fill="#ddc6c3"/>
        <path id="Path_137922" data-name="Path 137922" d="M264.056,478.094a.079.079,0,0,1,.1.1c-.1.339-.262.653-.354.992a2.48,2.48,0,0,0,.031,1.18c.06.318-.415.583-.566.238C262.907,479.786,263.123,478.4,264.056,478.094Z" transform="translate(-233.497 -457.518)" fill="#ddc6c3"/>
        <path id="Path_137923" data-name="Path 137923" d="M264.7,480.273a2.144,2.144,0,0,1,1.205-.886.236.236,0,0,1,.265.108.278.278,0,0,1,.019.039l0,.015a.237.237,0,0,1-.106.263,2.885,2.885,0,0,0-.858.92c-.173.308-.154.756-.419.992a.267.267,0,0,1-.41-.053C264.106,481.287,264.468,480.617,264.7,480.273Z" transform="translate(-232.654 -456.604)" fill="#ddc6c3"/>
        <path id="Path_137924" data-name="Path 137924" d="M260.764,475.793a1.545,1.545,0,0,1,.212-.48c-.45-1.034.168-3.021,1.492-2.788a.085.085,0,0,1,.038.14,3.107,3.107,0,0,0-.843,1.053,1.894,1.894,0,0,0-.074.969,2.287,2.287,0,0,1,.371-.21c.429-.192,1.176-.349,1.5.1a.142.142,0,0,1-.051.195c-.345.185-.785.123-1.149.308a1.906,1.906,0,0,0-.841.993C261.241,476.452,260.675,476.176,260.764,475.793Z" transform="translate(-235.163 -461.481)" fill="#ddc6c3"/>
        <path id="Path_137925" data-name="Path 137925" d="M269.348,485.37a1.825,1.825,0,0,1,1.634-1.364.148.148,0,0,1,.1.25c-.439.433-.952.747-1.121,1.383a1.846,1.846,0,0,0,.012.9,1.288,1.288,0,0,1,.826-.306.209.209,0,0,1,.18.1.165.165,0,0,1,.026.075c.015.256-.4.429-.561.574a1.529,1.529,0,0,0-.509,1.109.349.349,0,0,1-.7,0,2.019,2.019,0,0,1,.233-.935A2.355,2.355,0,0,1,269.348,485.37Z" transform="translate(-229.148 -453.321)" fill="#ddc6c3"/>
        <path id="Path_137926" data-name="Path 137926" d="M271.873,492.708a1.981,1.981,0,0,1,.171-2.087c.058-.067.154-.009.161.067a6.8,6.8,0,0,0,.111,1.366,2.675,2.675,0,0,0,.764,1.219.364.364,0,0,1,.056.434.373.373,0,0,1-.128.13.36.36,0,0,1-.434-.056,3,3,0,0,1-.374-.468,3.248,3.248,0,0,0-.009.855c.062.431.386.85.35,1.272-.01.121-.132.267-.274.207-.465-.193-.607-.809-.675-1.274A2.434,2.434,0,0,1,271.873,492.708Z" transform="translate(-227.497 -448.646)" fill="#ddc6c3"/>
        <path id="Path_137927" data-name="Path 137927" d="M274.28,493.226a.1.1,0,0,1,.121.12,6.211,6.211,0,0,1-.523,1.051,5.38,5.38,0,0,0-.344,1.337c-.07.366-.6.253-.619-.085C272.866,494.831,273.38,493.424,274.28,493.226Z" transform="translate(-226.535 -446.779)" fill="#ddc6c3"/>
        <path id="Path_137928" data-name="Path 137928" d="M275.965,495.713a.156.156,0,0,1,.28-.038,4.465,4.465,0,0,0,.732,1.316,2.181,2.181,0,0,0,.7.46,1.474,1.474,0,0,1,.542.284.2.2,0,0,1-.041.313c-.545.277-1.262-.233-1.626-.627A1.905,1.905,0,0,1,275.965,495.713Z" transform="translate(-224.408 -445.091)" fill="#ddc6c3"/>
        <path id="Path_137929" data-name="Path 137929" d="M271.8,487.616c.344-.33,1.019-.653,1.446-.3a.08.08,0,0,1-.017.125c-.34.239-.756.256-1.033.615a2.431,2.431,0,0,0-.3,1.178c-.043.227-.349.226-.458.06A1.426,1.426,0,0,1,271.8,487.616Z" transform="translate(-227.69 -451.08)" fill="#ddc6c3"/>
        <path id="Path_137930" data-name="Path 137930" d="M268.281,478.119a1.25,1.25,0,0,1,1.465-.21.166.166,0,0,1-.084.306,1.565,1.565,0,0,0-1.224.716c-.183.263-.3.58-.651.614a.185.185,0,0,1-.166-.094C267.4,478.991,267.951,478.4,268.281,478.119Z" transform="translate(-230.326 -457.756)" fill="#ddc6c3"/>
        <path id="Path_137931" data-name="Path 137931" d="M260.695,470.222a.158.158,0,0,1,.135.236,2.918,2.918,0,0,0-.542.952c-.08.347,0,.7-.063,1.048a.216.216,0,0,1-.316.13C259.062,471.976,259.722,470.3,260.695,470.222Z" transform="translate(-236.039 -463.102)" fill="#ddc6c3"/>
      </g>
      <g id="Group_95530" data-name="Group 95530" transform="translate(232.643 360.406)">
        <g id="Group_95523" data-name="Group 95523" transform="translate(59.286 233.89)">
          <path id="Path_137932" data-name="Path 137932" d="M308.391,475.024c3.874-.42,6.26-.672,8.4-3.537.814-3.36-.6-6.158-3.22-10.219-3.129-4.849-7.628-12.166-7.628-12.166l-8.991.049a45.205,45.205,0,0,0-.428,10.329,37.373,37.373,0,0,0,1.381,6.294c.739,1.423,1.76,3.32,2.633,4.723C302.107,473.012,303.741,475.526,308.391,475.024Z" transform="translate(-296.375 -449.102)" fill="#ceb5b3"/>
          <path id="Path_137933" data-name="Path 137933" d="M315.333,465.3a10.226,10.226,0,0,0,.705-2.028c-2.142,2.865-4.528,3.117-8.4,3.537-4.65.5-6.284-2.012-7.85-4.526-.873-1.4-1.894-3.3-2.633-4.723a36.72,36.72,0,0,0,3.907,9.117C303.321,470,313.266,469.662,315.333,465.3Z" transform="translate(-295.62 -440.891)" fill="#4f3333"/>
        </g>
        <g id="Group_95524" data-name="Group 95524" transform="translate(0 210.364)">
          <path id="Path_137934" data-name="Path 137934" d="M272.6,461.341c6.286.14,8.8-3.269,10.434-5.657a16.777,16.777,0,0,1,2.891-3.393s4.156,1.383,6.788-.25a15.1,15.1,0,0,0,3.5-3.228c0-.27,0-.542-.006-.822a50.159,50.159,0,0,0-1.125-8.58l-12.765-2.248a19.583,19.583,0,0,1-6.678,9.762c-5.047,3.647-9.289,5.521-9.346,11.289a5.113,5.113,0,0,0,.051.587A8.857,8.857,0,0,0,272.6,461.341Z" transform="translate(-266.288 -437.163)" fill="#ceb5b3"/>
          <path id="Path_137935" data-name="Path 137935" d="M279.609,455.743a17.2,17.2,0,0,0,6.538-7.5,9.682,9.682,0,0,0,7.4-.705,4.515,4.515,0,0,0,2.641-4.463,15.107,15.107,0,0,1-3.5,3.228c-2.633,1.633-6.788.25-6.788.25a16.778,16.778,0,0,0-2.891,3.393c-1.634,2.388-4.148,5.8-10.434,5.657a8.856,8.856,0,0,1-6.26-2.54C266.85,458.252,275.081,458.5,279.609,455.743Z" transform="translate(-266.263 -431.425)" fill="#4f3333"/>
        </g>
        <path id="Path_137936" data-name="Path 137936" d="M305.7,367.526a14.629,14.629,0,0,1-6.554,3.905c-2.94.8-9.238,10.479-11.22,7.642-.847-1.212-1.49-8.365-1.809-9.811.863-.392,2.786-5.291,2.918-6.022.231-1.281,1.543-2.465,1.318-3.748-.311-1.785-.7-3.624-.881-5.458,2.621-1.427,4.966-3.374,7.978-4.083,1.653-.388,3.949-5.033,5.5-5.878-1.044,3.977.26,9.642.723,11.949a14.014,14.014,0,0,0,2.82,6.507C305.826,362.728,306.4,366.864,305.7,367.526Z" transform="translate(-247.048 -317.143)" fill="#ffb9a4"/>
        <path id="Path_137937" data-name="Path 137937" d="M278.336,398.847c2.646-5.2,7.456-7.89,9.054-13.592,1.665-5.941-.187-12.365-1.917-18.079a1,1,0,0,1,.95-1.245c10.662-.42,20.158,3.874,30.308,6.461a.336.336,0,0,1,.152.106c.187-.138.359-.3.552-.424.292-.193.723.205.5.5-2.853,3.76-5.275,7.445-5.947,12.085.189,6.394,10.1,19.729,10.757,22.7-4.526,5.025-17.307,8.792-28.314,5.025C286.622,410.341,278.324,404.44,278.336,398.847Z" transform="translate(-254.595 -295.958)" fill="#fff"/>
        <path id="Path_137938" data-name="Path 137938" d="M275.858,372c1.734-3.746,5.671-13.488,9.382-18.732,4-5.649,14.182-4.03,14.182-4.03l-5.685,24.9a141.428,141.428,0,0,0-11.2,12.8C279.661,382.25,277.141,377.538,275.858,372Z" transform="translate(-257 -312.343)" fill="#ff9d27"/>
        <g id="Group_95525" data-name="Group 95525" transform="translate(16.211 40.415)">
          <path id="Path_137939" data-name="Path 137939" d="M286.543,395.92c1.827-7.186-2.577-17.705-2.932-20.367-.735-5.5,2.9-9.994,4.467-12.932a65.6,65.6,0,0,1,8.434-11.687c.124-.14,2.288.636,4.213.906h0c-1.431,1.878-3.425,5.961-2.749,8.049,1.107,3.415,4.481,4.6,9.579,4.818,8.219.351,11.687-7.614,11.687-7.614s-.638-.439-1.653-1.076c.051-.043.108-.1.154-.13,2.16,2.079,7.009,4.333,9.62,5.906a5.54,5.54,0,0,1,1.894,3.62c-.168,2.284-.926,14.485-3.567,18.763-2.2,2.725-6.68,6.786-7.947,11.892-1.645,6.627,6.111,17.924,10.651,26.4-4.426,3.533-13.468,10.745-22.773,10.745-3.139,0-29.837-12.659-31.1-13.953C277.615,413.371,283.9,406.314,286.543,395.92Z" transform="translate(-274.515 -350.917)" fill="#feb51c"/>
          <path id="Path_137940" data-name="Path 137940" d="M296.067,364.469c-5.1-.219-8.471-1.4-9.579-4.818-.676-2.089,1.318-6.172,2.749-8.049h0c1.206.167,2.317.14,2.776-.439,0,1.655-5.488,7.872-.142,9.9,8.288,3.151,12.587-3.9,14.229-5.287,1.015.636,1.653,1.076,1.653,1.076S304.285,364.819,296.067,364.469Z" transform="translate(-263.027 -350.678)" fill="#ff9d27"/>
        </g>
        <path id="Path_137941" data-name="Path 137941" d="M319.584,359.544a85.276,85.276,0,0,0-8.256,11.025,49.206,49.206,0,0,0-5.023,11.043,118.084,118.084,0,0,0-3.372,17.114s-18.858-2.386-21.309-7.236-3.257-15.573-3.257-15.573,2.962-10.152,8.538-17.865a53.311,53.311,0,0,1,5.868-7.127l3.1,1.324a52.15,52.15,0,0,0-4.384,4.641,41.437,41.437,0,0,0-5.054,8l18.365,8.05s4.627-6.8,7.712-10.272a54.7,54.7,0,0,0,4.065-4.938Z" transform="translate(-254.565 -310.493)" fill="#ead9d6"/>
        <path id="Path_137942" data-name="Path 137942" d="M327.062,384.247s4.274,7.253,6.034,13.364c1.622,5.636,2.6,15.3,1.005,25.234a235.367,235.367,0,0,1-5.569,23.465,5.782,5.782,0,0,1,1.212,7.208c1.592,4.189.684,7.908,2.353,15.185s2.493,25.378,2.583,30.909-2.583,8.349-2.583,8.349,2.816,3.383.162,6.463c-4.16,4.826-7.135,6.254-11.232,3.291s-2.717-6.453-2.717-6.453-4.656-1.929-7-17.279c-1.253-8.2-1.228-20.2-1.545-22.99s.109-13.041.109-13.041a22.658,22.658,0,0,1-3.541-7.618c-.475-2.077-4.16-29.175-4.16-29.175s-2.617,13.819-3.675,16.842-3.446,8.477-3.446,8.477a28.834,28.834,0,0,1,1,12.907c-.56,3.965-1.961,8.938-2.467,11.9-.863,5.029,1.117,7.216,0,10.176a3.877,3.877,0,0,1-3.575,2.713,12.9,12.9,0,0,1,2.711,5.047c.457,2.489-1.348,4.3-5.293,6.369s-12.215.189-13.524-5.2-1.139-23.883-1.182-33.69c-.028-6.668-.826-24.18.085-26.462s.589-30.013,7.986-41.008c4.932-7.328,26.954-8.765,37.538-2.891C322.7,388.769,327.062,384.247,327.062,384.247Z" transform="translate(-260.382 -279.651)" fill="#ead9d6"/>
        <path id="Path_137943" data-name="Path 137943" d="M319.12,385.961s-6.083,3.906-10.27,4.871c-10.339,2.382-19.167,1.866-24.373-1.362s-1.33-4.81-1.33-4.81,12.209,3.978,17.293,3.728A36.948,36.948,0,0,0,317.7,383.1Z" transform="translate(-251.274 -279.271)" fill="#ddc6c3"/>
        <path id="Path_137944" data-name="Path 137944" d="M282.624,349.252c.167-3.992,1.031-9.007,4.1-11.856,3.033-2.816,8.245-3.092,12.184-2.818,6.107.428,10.4,7.181,9.322,14.992-1,7.212-5.815,18.328-13.858,19.835C285.426,371.079,282.37,355.323,282.624,349.252Z" transform="translate(-250.448 -326.438)" fill="#ffc9b6"/>
        <path id="Path_137945" data-name="Path 137945" d="M297.368,331.414c13.736,1.092,19.435,16.7,16.966,23.53-1.482,4.1-5.356,8.266-7.661,10.416,0-5.048-4.288-14.43-7.125-16.136-3.626-2.179-12.067-3.082-15.876-1.683C277.623,339.954,289.476,330.787,297.368,331.414Z" transform="translate(-251.027 -329.458)" fill="#4f3333"/>
        <path id="Path_137946" data-name="Path 137946" d="M291.851,344.588s2.593-4.193,4.479-1.6.118,7.9-2.24,7.78S291.851,344.588,291.851,344.588Z" transform="translate(-241.479 -319.016)" fill="#ffc9b6"/>
        <path id="Path_137947" data-name="Path 137947" d="M312.479,361.411s-5.232-6.96-13.512-9.683a49.713,49.713,0,0,0-14.521-2.688s-5.1-2.723-1.921-9.06,8.944-11.774,19.386-8.68,13.506,6.079,15.723,16.655S312.479,361.411,312.479,361.411Z" transform="translate(-251.541 -330.406)" fill="#efe1df"/>
        <path id="Path_137948" data-name="Path 137948" d="M311.528,352.974s-3.255-5.933-7.417-8.913c-4.964-3.557-16.4-6.589-21.358-3.98-.717.378.124,3.033.124,3.033,1.257-.063,5.772-1.316,15.139,2.152,4.645,1.718,11.654,8.986,11.654,8.986A5.753,5.753,0,0,0,311.528,352.974Z" transform="translate(-250.59 -321.969)" fill="#ddc6c3"/>
        <path id="Path_137949" data-name="Path 137949" d="M286.618,334.217a24.734,24.734,0,0,1-.808,4.107,31.743,31.743,0,0,1-1.425,3.184,7.947,7.947,0,0,1,.085-3.6A9.358,9.358,0,0,1,286.618,334.217Z" transform="translate(-248.883 -326.708)" fill="#ddc6c3"/>
        <path id="Path_137950" data-name="Path 137950" d="M292.455,336.429a11.152,11.152,0,0,1,0,2.932,5.332,5.332,0,0,1-1.117,2.851,12.355,12.355,0,0,1,0-3.222A6.186,6.186,0,0,1,292.455,336.429Z" transform="translate(-242.085 -324.561)" fill="#ddc6c3"/>
        <path id="Path_137951" data-name="Path 137951" d="M297.291,337.917s-.585,2.347-1.927,3.186a6.6,6.6,0,0,1-2.765.928s.67-.625,1.675-1.783A14.824,14.824,0,0,1,297.291,337.917Z" transform="translate(-240.753 -323.117)" fill="#ddc6c3"/>
        <path id="Path_137952" data-name="Path 137952" d="M299.415,340.98a9.52,9.52,0,0,1,0,3.87c-.227.747-2.01,2.225-2.01,2.225a32.36,32.36,0,0,1,.837-3.7A12.847,12.847,0,0,1,299.415,340.98Z" transform="translate(-236.089 -320.145)" fill="#ddc6c3"/>
        <g id="Group_95529" data-name="Group 95529" transform="translate(5.295 47.707)">
          <path id="Path_137953" data-name="Path 137953" d="M270.08,360.306a5.143,5.143,0,0,1,3.643-1.691,2.093,2.093,0,0,1,2.191,1.559c.329,1.336-1.415,3.068-2.514,2.922C271.931,362.9,270.035,361.211,270.08,360.306Z" transform="translate(-267.903 -350.738)" fill="#feb51c"/>
          <path id="Path_137954" data-name="Path 137954" d="M272.946,360.264c-.059-.093,3.888,1.537,4.871,3.18.632,1.06,1,3.039-.343,3.748a4.02,4.02,0,0,1-4.053-.627,1.919,1.919,0,0,1-.365-.575c-1.273.24-2.733.034-2.725-1.765A5.169,5.169,0,0,1,272.946,360.264Z" transform="translate(-267.659 -349.141)" fill="#ff6485"/>
          <g id="Group_95528" data-name="Group 95528" transform="translate(0 3.053)">
            <g id="Group_95526" data-name="Group 95526" transform="translate(4.051)">
              <path id="Path_137955" data-name="Path 137955" d="M271.238,364.58a7.162,7.162,0,0,1,.268-4.327,7.263,7.263,0,0,1,6.889-4.079c6.207.286,7.866,5.267,8.725,7.393.126.313.266.654.414,1.011v0c.213,4.152,2.656,10.889,2.94,13.131,2.97-.264,7.169,2.325,7.789,5.986a9.978,9.978,0,0,1,8.193,4.043c1.535,2.282,1.712,3.541,2.534,8a18.577,18.577,0,0,1,7.74-1.068,8.071,8.071,0,0,1,2.012,1.472,4.727,4.727,0,0,1-1.48,3.515,3.922,3.922,0,0,1-2.138,1.072,2.33,2.33,0,0,1-1.683-.487c.331-.5.69-1.655.231-1.758-1.377,2.449-5.206,2.908-6.822.936-.118,2.534-4.865,6.668-7.049,3.592-.571,1.238-2.339,3.025-4.209,2.763a6.155,6.155,0,0,0,.469-3.429,6.989,6.989,0,0,0-8.32-5.553,5.914,5.914,0,0,1,4.13,5.4c.13,3-1.647,4.3-4.16,3.332.246-.776-.792-2.3-1.645-2.018,1.082,1.419-.317,2.924-1.622,3.411a4.735,4.735,0,0,1-3.052-.008c-1.588-.506-3.612-1.9-4.03-3.636-2.372-.863-3.573-2.883-3.955-5.614a10.5,10.5,0,0,1,.765-6.118c-.713.2-1.123.562-1.888,1.785-2.339-4.706.134-9.724,3.09-13.683-1.655-.705-2.138-5.545-2.069-8.922a17.382,17.382,0,0,1,.441-3.509A6.813,6.813,0,0,1,271.238,364.58Z" transform="translate(-271.031 -356.166)" fill="#ead9d6"/>
              <path id="Path_137956" data-name="Path 137956" d="M300.863,391.6c-.822-4.461-1-5.72-2.534-8a9.977,9.977,0,0,0-8.193-4.043c-.621-3.661-4.82-6.25-7.789-5.986-.284-2.242-2.727-8.98-2.94-13.131v0c1,2.412,2.441,5.689,3.338,7.772.451,1.046.932,2.128,1.383,3.23,3.293-.134,7.145,2.843,8.469,5.988a13.169,13.169,0,0,1,6.828,5.1c1.73,2.536,2.4,3.689,2.5,6.974,2.6.473,4.544-.038,6.678,1.036A18.578,18.578,0,0,0,300.863,391.6Z" transform="translate(-262.903 -352.024)" fill="#f4e8e6"/>
            </g>
            <g id="Group_95527" data-name="Group 95527" transform="translate(0 8.413)">
              <path id="Path_137957" data-name="Path 137957" d="M315.551,399.466a6.6,6.6,0,0,1-5.364,2.991c.16-1.011.03-1.787-.585-2.187a7.733,7.733,0,0,1-1.909,3.959,6.11,6.11,0,0,1-3.8,2.1,1.61,1.61,0,0,0-.144-2.069,4.916,4.916,0,0,1-3.18,3.088,1.606,1.606,0,0,0-.341-1.951c-1.232.936-3.165,2.006-4.806,1.866a4.433,4.433,0,0,0,.631-1.172c.359-1.056.146-3.736-1.029-4.544a4.525,4.525,0,0,1-1.105,3.409,7.428,7.428,0,0,1-1.892,1.1c-.03-.337-.15-.979-.8-1.076-1.421,2.639-4.03,3.7-6.629,2.443-2.416,1.021-4.319.307-6.14-1.653a6.544,6.544,0,0,1-1.8-4.264c-.463-.24-.52.414-.6.7-2.177-.2-3.506-2.378-4.026-4.311a7.221,7.221,0,0,1,.57-4.727c-.386-.138-.92.447-1.1.747-1.224-2.075-.707-4.64-.589-5.588.006-.051-.067-.059-.091-.024a6.944,6.944,0,0,0-.891,1.947,23.582,23.582,0,0,1,.838-11.878,14.873,14.873,0,0,1,2.171-2.918c-.43-2.761.648-10.048,2.079-11.849-1.151-.305-1.937-1.634-2.286-3.175a6.813,6.813,0,0,0,2.51,2.64,17.388,17.388,0,0,0-.441,3.51c-.069,3.377.414,8.217,2.069,8.922-2.956,3.959-5.429,8.978-3.09,13.683.765-1.224,1.174-1.582,1.888-1.785a10.5,10.5,0,0,0-.765,6.118c.382,2.731,1.582,4.751,3.955,5.614.418,1.736,2.441,3.129,4.03,3.636a4.735,4.735,0,0,0,3.052.008c1.3-.487,2.7-1.992,1.622-3.411.853-.28,1.892,1.241,1.645,2.018,2.512.964,4.29-.333,4.16-3.332a5.914,5.914,0,0,0-4.13-5.4,6.989,6.989,0,0,1,8.319,5.553,6.155,6.155,0,0,1-.469,3.429c1.87.262,3.638-1.525,4.209-2.763,2.183,3.076,6.93-1.058,7.049-3.592,1.616,1.973,5.444,1.513,6.822-.936.459.1.1,1.261-.231,1.758a2.33,2.33,0,0,0,1.683.487,3.923,3.923,0,0,0,2.138-1.072,4.727,4.727,0,0,0,1.48-3.515c.177.173.357.355.54.556,1.547,1.7.532,4.276-1.273,5.89A7.32,7.32,0,0,1,315.551,399.466Z" transform="translate(-268.468 -360.436)" fill="#ddc6c3"/>
              <path id="Path_137958" data-name="Path 137958" d="M312.044,397.751c-1.354,1.216-3.537,5.025-10.615,5.841-2.9,2.5-9.317,3.151-14.125.977-9.206,1.318-16.7-9.644-17.5-15.571a10.7,10.7,0,0,1,.14-3.691c-1.553-5.19-1.342-11.118,1.32-15.766a23.581,23.581,0,0,0-.837,11.878,6.944,6.944,0,0,1,.891-1.947c.024-.035.1-.028.091.024-.118.948-.634,3.514.589,5.588.181-.3.715-.885,1.1-.747a7.221,7.221,0,0,0-.569,4.727c.52,1.933,1.848,4.11,4.026,4.311.081-.29.138-.944.6-.7a6.544,6.544,0,0,0,1.8,4.264c1.821,1.961,3.724,2.674,6.14,1.653,2.6,1.255,5.208.2,6.629-2.443.652.1.772.739.8,1.076a7.425,7.425,0,0,0,1.892-1.1,4.525,4.525,0,0,0,1.105-3.409c1.174.808,1.387,3.488,1.029,4.544a4.434,4.434,0,0,1-.631,1.172c1.641.14,3.574-.93,4.806-1.866a1.606,1.606,0,0,1,.341,1.951,4.916,4.916,0,0,0,3.18-3.088,1.61,1.61,0,0,1,.144,2.069,6.111,6.111,0,0,0,3.8-2.1,7.734,7.734,0,0,0,1.909-3.959c.615.4.745,1.176.585,2.187a6.6,6.6,0,0,0,5.364-2.991,7.32,7.32,0,0,0,3.947-1.017,6.243,6.243,0,0,1-2.042,1.241C318.111,391.7,317.213,394.19,312.044,397.751Z" transform="translate(-268.975 -351.6)" fill="#ceb5b3"/>
            </g>
          </g>
          <path id="Path_137959" data-name="Path 137959" d="M273.29,355.435a1.4,1.4,0,0,1,2.079.672,2.709,2.709,0,0,1,2.985-1.377,1.8,1.8,0,0,1,1.206,1.576,1.952,1.952,0,0,1,2.591,1.973,2.5,2.5,0,0,1,.914,2.711.434.434,0,0,1-.633.258A10.811,10.811,0,0,0,272.33,360,3.183,3.183,0,0,1,273.29,355.435Z" transform="translate(-266.301 -354.617)" fill="#ff6485"/>
          <path id="Path_137960" data-name="Path 137960" d="M279.443,374.432a3.733,3.733,0,0,1,1.517,2.353c1.972.843,3.811,2.7,4.03,4.56.028.242-.294.254-.406.11a15.366,15.366,0,0,0-2.623-3.253,14.984,14.984,0,0,0-3.476-1.7c-.091-.037-.031-.158.045-.165a4.532,4.532,0,0,1,1.683.187,3.556,3.556,0,0,0-.209-.528,4.154,4.154,0,0,0-.9-1.123,3.888,3.888,0,0,0-1.385-.812,4.489,4.489,0,0,1-1.033-.3.02.02,0,0,1,0-.033C277.447,373.244,278.822,373.967,279.443,374.432Z" transform="translate(-261.496 -336.226)" fill="#ddc6c3"/>
          <path id="Path_137961" data-name="Path 137961" d="M277.378,380.189c.623.339,1.535.776,2.242.388.646-.353.27-1.186.583-1.706a.113.113,0,0,1,.175-.022,1.347,1.347,0,0,1,.325,1.078,2.334,2.334,0,0,0,1.029-.485,1.026,1.026,0,0,0,.03-1.328c-.091-.1,0-.29.14-.24a1.174,1.174,0,0,1,.56,1.7,1.785,1.785,0,0,1-1.856.9,1.384,1.384,0,0,1-.763.818c-.891.39-2.422.15-2.705-.918A.166.166,0,0,1,277.378,380.189Z" transform="translate(-261.059 -332.054)" fill="#ddc6c3"/>
          <path id="Path_137962" data-name="Path 137962" d="M274.574,377.2c.365.558.769,1.141,1.513,1.157.648.012,1.056-.424,1.559-.751a.052.052,0,0,1,.077.045c.051.891-1.056,1.415-1.819,1.37a1.8,1.8,0,0,1-1.734-1.712A.218.218,0,0,1,274.574,377.2Z" transform="translate(-263.935 -332.805)" fill="#ddc6c3"/>
          <path id="Path_137963" data-name="Path 137963" d="M273.975,375.653c.562.144.837.766,1.476.834a1.332,1.332,0,0,0,.729-.138.958.958,0,0,0,.126-.085,2.4,2.4,0,0,1-.5-1.176c-.008-.106.122-.136.189-.081.408.333,1.947,2.572,2.292,1.18a.167.167,0,0,1,.2-.116.552.552,0,0,1,.258.753.9.9,0,0,1-.991.512,2.173,2.173,0,0,1-1.1-.656,1.912,1.912,0,0,1-1.135.451c-.65,0-1.807-.56-1.734-1.336A.149.149,0,0,1,273.975,375.653Z" transform="translate(-264.306 -334.856)" fill="#ddc6c3"/>
          <path id="Path_137964" data-name="Path 137964" d="M284.354,377.081a4.466,4.466,0,0,0,2.166.449,2.058,2.058,0,0,0,1.45-1.391.116.116,0,0,1,.221,0,1.284,1.284,0,0,1-.059,1.046,1.691,1.691,0,0,0,.207.063,1.372,1.372,0,0,0,.855-.1c.282-.132,1.135-.686.881-1.105a.142.142,0,0,1,.158-.207c.926.244.075,1.366-.327,1.671a2.161,2.161,0,0,1-1.373.489,1.267,1.267,0,0,1-.767-.3,2.282,2.282,0,0,1-.749.491,2.788,2.788,0,0,1-2.918-.658A.267.267,0,0,1,284.354,377.081Z" transform="translate(-254.368 -334.03)" fill="#ddc6c3"/>
          <path id="Path_137965" data-name="Path 137965" d="M281.5,373.332a12.71,12.71,0,0,0,2.1.686,3.842,3.842,0,0,0,1.651-.459c.077-.028.132.055.12.122a.96.96,0,0,1-.339.575,1.744,1.744,0,0,0,.749.2c.3,0,1.383-.248,1.3-.727a.062.062,0,0,1,.057-.077c.25-.014.341.27.292.481a1.508,1.508,0,0,1-.92.867,2,2,0,0,1-2.146-.4,2.5,2.5,0,0,1-.546.091,3.762,3.762,0,0,1-2.554-.942A.251.251,0,0,1,281.5,373.332Z" transform="translate(-257.127 -336.461)" fill="#ddc6c3"/>
          <path id="Path_137966" data-name="Path 137966" d="M287.665,374.806c.44-.12.9-.169,1.153-.6a1.3,1.3,0,0,0-.211-1.429c-.047-.057,0-.179.085-.144a1.343,1.343,0,0,1,.735,1.738c-.246.652-1.157,1.222-1.807.792A.2.2,0,0,1,287.665,374.806Z" transform="translate(-250.97 -337.142)" fill="#ddc6c3"/>
          <path id="Path_137967" data-name="Path 137967" d="M285.331,373.771c.418-.2.944-.169,1.3-.5a.833.833,0,0,0,.061-1.176.141.141,0,0,1,.136-.234,1.11,1.11,0,0,1,.532,1.58,1.69,1.69,0,0,1-2.034.759A.246.246,0,0,1,285.331,373.771Z" transform="translate(-253.218 -337.894)" fill="#ddc6c3"/>
          <path id="Path_137968" data-name="Path 137968" d="M278.659,371.382a6.4,6.4,0,0,0,1.541.8,1.6,1.6,0,0,0,1.472-.522.132.132,0,0,1,.219.126c-.288,1.785-2.891.948-3.537-.1C278.227,371.484,278.469,371.293,278.659,371.382Z" transform="translate(-259.908 -338.368)" fill="#ddc6c3"/>
          <path id="Path_137969" data-name="Path 137969" d="M274.517,371.986c.453.124.717.418,1.232.367a5.121,5.121,0,0,0,1.153-.455c.051-.018.091.03.1.075.169,1.263-2.53,1.5-2.806.339A.268.268,0,0,1,274.517,371.986Z" transform="translate(-263.92 -337.851)" fill="#ddc6c3"/>
          <path id="Path_137970" data-name="Path 137970" d="M273.873,370.072a.2.2,0,0,1,.321.085c.077.4.041.82.406,1.092.282.211.668.148.922.41a.16.16,0,0,1,.024.189C275.075,372.912,272.844,371.136,273.873,370.072Z" transform="translate(-264.482 -339.67)" fill="#ddc6c3"/>
          <path id="Path_137971" data-name="Path 137971" d="M277.182,369.192a2.586,2.586,0,0,0,1.322-.292,2.047,2.047,0,0,0,.753-1.186.19.19,0,0,1,.363,0,1.68,1.68,0,0,1-2.566,1.787C276.926,369.4,277.036,369.2,277.182,369.192Z" transform="translate(-261.19 -342.035)" fill="#ddc6c3"/>
          <path id="Path_137972" data-name="Path 137972" d="M274.107,365.238a.062.062,0,0,1,.11.016,2.472,2.472,0,0,0,.979,1.35,1.5,1.5,0,0,0,.812.351c.264,0,.38-.213.623-.246a.2.2,0,0,1,.217.089c.2.313-.085.621-.374.743a1.026,1.026,0,0,1-.422.073,1.366,1.366,0,0,0,.469.376,1.951,1.951,0,0,0,1.312.093.1.1,0,0,1,.095.166,1.469,1.469,0,0,1-1.649.313c-.471-.177-1.05-.643-1.009-1.194-.035-.02-.073-.037-.106-.059C274.609,366.949,273.549,365.973,274.107,365.238Z" transform="translate(-264.148 -344.336)" fill="#ddc6c3"/>
          <path id="Path_137973" data-name="Path 137973" d="M281.677,370.022c.384.183.635.562,1.035.733a1.594,1.594,0,0,0,1.1-.037.121.121,0,0,1,.146.146c-.1.477-.745.6-1.155.538a2.057,2.057,0,0,1-1.45-1.052A.241.241,0,0,1,281.677,370.022Z" transform="translate(-256.991 -339.695)" fill="#ddc6c3"/>
          <path id="Path_137974" data-name="Path 137974" d="M274.728,363.85c.406.006.782.166,1.194.15a3.763,3.763,0,0,0,1.214-.382c.128-.049.207.108.162.211-.392.859-2.235,1.145-2.672.2A.12.12,0,0,1,274.728,363.85Z" transform="translate(-263.504 -345.891)" fill="#ddc6c3"/>
        </g>
        <path id="Path_137975" data-name="Path 137975" d="M308.967,355.994s9.76,1.572,11.218,10.357-3.779,15.315-6.034,23.343-4.966,13.6-8.349,17.65-11.214,4.887-12.519,1.578-2.788-14.578,1.163-22.649S302.106,364.294,308.967,355.994Z" transform="translate(-241.438 -305.574)" fill="#ff9d27"/>
        <path id="Path_137976" data-name="Path 137976" d="M305.17,390.035s5.1-1.86,3.165-6.449-8.5-11.283-14.521-9.445S305.17,390.035,305.17,390.035Z" transform="translate(-240.805 -288.265)" fill="#efe1df"/>
        <path id="Path_137977" data-name="Path 137977" d="M294.675,374.827s8.31,10.523,12.026,13.93,11.041,4.962,13.407,10.272.94,8.688-2.928,11.468c-5.293,3.8-9.622,2.672-14.992-1.4S290.635,381.9,288.4,378.463c-4.747-2.552-9.776-8.56-10.792-12.3s-2.266-9.36,2.189-8.049C285.949,359.917,290.6,366.553,294.675,374.827Z" transform="translate(-256.242 -303.709)" fill="#fff"/>
        <path id="Path_137978" data-name="Path 137978" d="M293.1,386.622c3.649-1.582,5.746.041,5.088,2.414-.366,1.324-2.355,3.448-9.092,5.072-11.376,2.743-14.932-4.985-14.932-4.985s3.586.96,4.885-.65c1.226-1.519,4.6-3.314,6.044-4.455,1.088-.863,3.18-.717,2.294.765a38.309,38.309,0,0,1-3.015,3.809A22.4,22.4,0,0,0,293.1,386.622Z" transform="translate(-258.64 -278.892)" fill="#efe1df"/>
        <path id="Path_137979" data-name="Path 137979" d="M302.874,415.609a8.524,8.524,0,0,0-3.645-.881c-2.01,0-3.772.755-3.393.881a8.827,8.827,0,0,0,3.494,1A9.049,9.049,0,0,0,302.874,415.609Z" transform="translate(-237.662 -248.572)" fill="#ddc6c3"/>
        <path id="Path_137980" data-name="Path 137980" d="M302.944,419.385s-.376,2.767-2.138,3.772a8.429,8.429,0,0,1-2.891,1.131S300.534,419.633,302.944,419.385Z" transform="translate(-235.594 -244.053)" fill="#ddc6c3"/>
        <path id="Path_137981" data-name="Path 137981" d="M304.775,446.688c.5.126-1.131,1.76-2.388,2.264s-3.9-.5-3.9-.5S301.975,445.986,304.775,446.688Z" transform="translate(-235.037 -217.677)" fill="#ddc6c3"/>
        <path id="Path_137982" data-name="Path 137982" d="M296.644,448.093s3.762,1.007,5.4,1.383,3.645.6,3.645.6-3.017,1.411-5.405.467A9.619,9.619,0,0,1,296.644,448.093Z" transform="translate(-236.827 -216.191)" fill="#ddc6c3"/>
        <path id="Path_137983" data-name="Path 137983" d="M284.845,434.7a9.876,9.876,0,0,1-3.519,3.143,7.842,7.842,0,0,1-4.4,0,25.537,25.537,0,0,0,3.961-1.4C282.709,435.577,284.845,434.7,284.845,434.7Z" transform="translate(-255.964 -229.193)" fill="#ddc6c3"/>
        <path id="Path_137984" data-name="Path 137984" d="M286.1,434.3a9.247,9.247,0,0,1-5.216,0,20.011,20.011,0,0,1-3.961-1.886,15.368,15.368,0,0,1,4.589,0A11.241,11.241,0,0,1,286.1,434.3Z" transform="translate(-255.964 -231.566)" fill="#ddc6c3"/>
        <path id="Path_137985" data-name="Path 137985" d="M286.357,416.227a12.658,12.658,0,0,0-3.772-2.765,5.118,5.118,0,0,0-3.33,0s1.257,2.512,3.551,2.765A12.828,12.828,0,0,0,286.357,416.227Z" transform="translate(-253.703 -250.071)" fill="#ddc6c3"/>
      </g>
      <g id="Group_95537" data-name="Group 95537" transform="translate(448.937 403.277)">
        <path id="Path_137986" data-name="Path 137986" d="M328.338,453.713l-.026-.24c-.034-.31-.261-.667-.628-.63-2.46.254-5.03,2-7.109,3.24a42.4,42.4,0,0,0-7.409,5.38c-.013.009-.009.023-.017.034-6.607,5.56-10.936,14.523-12.736,22.667-.616,2.788-1.92,7.39.823,9.489a2.9,2.9,0,0,0,3.961-.1c-1.776,4.78-2.165,10.639,1.253,14.493,2.858,3.224,5.662,1.642,7.456-1.056.464,2.8,1.768,5.476,4.128,6.594,4.391,2.08,6.372-3.788,6.849-6.951,1.281-8.486-1.516-17.543-1.712-26.07-.214-9.427,2.167-17.677,4.946-26.544A.33.33,0,0,0,328.338,453.713Z" transform="translate(-299.558 -357.042)" fill="#f7c169"/>
        <g id="Group_95531" data-name="Group 95531" transform="translate(6.304 94.627)">
          <path id="Path_137987" data-name="Path 137987" d="M318.3,452.754c-4.906,1.079-10.848,5.556-13.911,8.86-2.345,2.526-1.827,5.564,1.026,5.7-1.385,1.578-2.952,5.494-1.251,7.11,3.065,2.913,5.91-3.151,7.069-5.889,1.475-3.486,3.931-8.257,7.067-10.589,1.409-1.049,4.737-3.042,4.747-4.279C323.064,451.676,321.195,452.117,318.3,452.754Z" transform="translate(-302.913 -452.217)" fill="#ffd385"/>
          <path id="Path_137988" data-name="Path 137988" d="M313.327,458.08c-1.088-1.142-3.634,2.48-3.508,3.982.049.6.2,1.7.855,1.967.7.289,1.276-.43,1.652-.906C313.171,462.049,314.532,459.345,313.327,458.08Z" transform="translate(-296.846 -447.256)" fill="#ffd385"/>
          <path id="Path_137989" data-name="Path 137989" d="M312.983,463.665c-1.447-.629-2.386,3.7-1.687,5.032.282.537.842,1.486,1.554,1.483.754-.006,1.009-.894,1.169-1.479C314.381,467.384,314.584,464.364,312.983,463.665Z" transform="translate(-295.752 -442.208)" fill="#ffd385"/>
          <path id="Path_137990" data-name="Path 137990" d="M309.217,470.087c-.686,1.225-.1,3.737-.56,5.025-.408,1.129-2.131,3.281-2.71,4.358-1.2,2.236-2.223,7.424,2.191,6.391,1.766-.413,2.6-2.206,2.9-3.811a61.1,61.1,0,0,1,2.345-9.989C314.328,469.446,311.38,466.222,309.217,470.087Z" transform="translate(-301.154 -438.079)" fill="#ffd385"/>
        </g>
        <g id="Group_95536" data-name="Group 95536" transform="translate(19.759)">
          <path id="Path_137991" data-name="Path 137991" d="M345.762,424.179s8.21-13.531,18.505-4.41c7.982,7.073,7.977,16.521,3.709,22.271S345.762,424.179,345.762,424.179Z" transform="translate(-278.701 -388.892)" fill="#ff9d27"/>
          <g id="Group_95532" data-name="Group 95532" transform="translate(89.09 163.848)">
            <path id="Path_137992" data-name="Path 137992" d="M385.278,503.881c-3.83,2.738-6.81,2.108-6.81,2.108A13.865,13.865,0,0,1,367.9,510.4c-6.376-.179-8.381-2.255-10.311-4.4-.785-4.35,2.961-6.725,7.349-8.364,2.084-.778,2.913-1.135,2.638-2,6.522.673,13.629-1.109,16.008-6.581a35.019,35.019,0,0,1,1.236,4.8A12.964,12.964,0,0,1,389,498.167C388.777,498.841,387.542,502.261,385.278,503.881Z" transform="translate(-357.485 -489.055)" fill="#ceb5b3"/>
            <path id="Path_137993" data-name="Path 137993" d="M389.534,496.067c-2.065,4.4-6.917,8.465-10.123,7.377-2.512,1.813-6.058,5.446-14.591,4.14-1.6-.244-6.252-2.82-6.795-4.172a8.469,8.469,0,0,1-.485-1.676c1.93,2.146,3.935,4.222,10.311,4.4a13.865,13.865,0,0,0,10.568-4.41s2.98.63,6.81-2.108c2.264-1.62,3.5-5.04,3.726-5.714C389.472,494.778,389.762,495.582,389.534,496.067Z" transform="translate(-357.436 -484.792)" fill="#4f3333"/>
          </g>
          <g id="Group_95533" data-name="Group 95533" transform="translate(29.296 177.026)">
            <path id="Path_137994" data-name="Path 137994" d="M355.529,516.266c-3.189.975-8.672-1.218-8.672-1.218a67.091,67.091,0,0,1-7.552-1.34c-2.557-.731-8.283-3.29-11.7-7.187-.8-.919-1.432-1.712-1.943-2.4a6.7,6.7,0,0,1,3.51-5.814c3.555-2.161,9.369,1.276,13.516,2.695a45.461,45.461,0,0,0,.073-4.931c4.7,4.3,10.562,6.56,16.517,3.713-1.259,5.568-1.082,7.144.194,11.919a8.093,8.093,0,0,1,.173.893A6.74,6.74,0,0,1,355.529,516.266Z" transform="translate(-325.662 -496.068)" fill="#ceb5b3"/>
            <path id="Path_137995" data-name="Path 137995" d="M355.658,514.5a8.039,8.039,0,0,1-9.407-1.879c-2.176.609-8.7-1.178-13.313-3.407a20.071,20.071,0,0,1-6.87-5.605,11.335,11.335,0,0,1-.4-3.258c.511.692,1.141,1.484,1.943,2.4,3.412,3.9,9.138,6.456,11.7,7.187a67.091,67.091,0,0,0,7.552,1.34s5.483,2.193,8.672,1.218a6.74,6.74,0,0,0,4.121-3.674C360.092,511.683,358.538,512.991,355.658,514.5Z" transform="translate(-325.664 -492.302)" fill="#4f3333"/>
          </g>
          <path id="Path_137996" data-name="Path 137996" d="M381.74,448.565s.842.039,2.161,8.4a21.634,21.634,0,0,1-4.812,17.15,49.979,49.979,0,0,1-5.229,13.514,26.712,26.712,0,0,1-6.844,7.449s2.195-.4,2.971,2.477c1.2.212,10.664,6.853,14.056,11.979,5.72,6.126,9.018,13.422,9.8,16.649.9,3.7-5.97,11.887-18.533,5.974-2.142-1.007-2.2-4.13-1.729-5.66-4.249-1.028-5.182-5.654-8.091-9.829-3.456-4.959-10.718-8.809-13.2-10.352-4.884-3.031-6.372-4.651-4.848-11.757.823-3.845,7.1-26.159,7.1-26.159Z" transform="translate(-277.727 -360.801)" fill="#ddc6c3"/>
          <path id="Path_137997" data-name="Path 137997" d="M357.126,453.239s-7.537,6.543-13.355,12.248-9.536,13.071-11.594,17.248c-1.282,2.6-4.367,5.927-2.518,11.553s6.464,13.434,7.328,21.876c.492,4.814-1.325,13.428,1.4,19.1-2.892,1.364-.782,5.12,1.263,7.067,5.588,5.323,14.681,3.876,16.992,1.1s-.893-27.536-.676-32.034c.244-5.04-.043-10.78-3.5-13.016,2.026-2.922-1.575-4.093-1.575-4.093s3.925-2.578,9.307-5.585,12.22-4.925,15.694-8.862c3.841.964,12.791-3.123,14.886-11.932,2.627-11.049-.68-16.8-2.065-16.4S357.126,453.239,357.126,453.239Z" transform="translate(-293.362 -358.233)" fill="#ead9d6"/>
          <g id="Group_95534" data-name="Group 95534" transform="translate(33.297 7.235)">
            <path id="Path_137998" data-name="Path 137998" d="M346.332,434.919l7.526,6.171c4.059-1.443,7.148-6.239,8.888-10.831-1.484-1.189-6.748-4.2-7.118-5.791,1.565-4.376-.8-8.063-4.867-11.994-4.258-4.119-11.938-4.078-16.547-.442a7.246,7.246,0,0,0-3.649,6.913c.513,4.658,4.688,13.142,8.646,15.157C341.969,435.507,343.673,435.925,346.332,434.919Z" transform="translate(-325.394 -402.515)" fill="#ffc9b6"/>
            <path id="Path_137999" data-name="Path 137999" d="M359.562,415.6a10.264,10.264,0,0,0-6.143-8.486c-4.294-1.967-11.957-2.247-15.414,1.625a2.361,2.361,0,0,0-.178-.374c-1.067-1.372-2.822-1.159-4.079-.2a7.085,7.085,0,0,0-2.219,3.065,3.359,3.359,0,0,0-2.285.039c-2.494,1.034-2.078,4.016,3.677,6.269-1.039,4.038,3.394,9.332,8.379,8.163-.248,2.5.968,3.848,2.965,5.481,3.121,2.554,9.925,2.892,13.813,2.217,4.839-.838,4.094-5.03,2.475-11.522C360.021,419.745,361.364,416.63,359.562,415.6Z" transform="translate(-327.793 -405.709)" fill="#4f3333"/>
            <path id="Path_138000" data-name="Path 138000" d="M334.043,417.737s.9-2.918,3.655-1.09-.539,7.268-.539,7.268Z" transform="translate(-322.299 -396.624)" fill="#ffc9b6"/>
          </g>
          <path id="Path_138001" data-name="Path 138001" d="M362.67,418.275c-4.615,2-4.29,2.832-13.884,10.213-3.023,2.326-7.041,5.081-8.913,7.109-4.066,4.408-3.94,7.554-3.341,10.686.874,4.574,1.928,8.176,5.662,17.09,4.754,11.352,9.583,13.988,9.583,13.988s-1.041,2.845-1.992,4.756c-.776,1.558,1.7,2.262,4.365,3.845,5.575,3.3,21.421,9.4,35.639-8.46,2.477-3.112,2.946-5.669,2.309-9.643-1.911-11.923-7.035-21.621-9.472-29.135C378.948,427.394,366.717,416.524,362.67,418.275Z" transform="translate(-287.089 -387.592)" fill="#feb51c"/>
          <path id="Path_138002" data-name="Path 138002" d="M340.171,431.479s4.649.4,11.746-4.989S356,419.081,356,419.081a20.558,20.558,0,0,0-7.9,4.995C344,428.031,340.171,431.479,340.171,431.479Z" transform="translate(-283.615 -386.719)" fill="#ff9d27"/>
          <path id="Path_138003" data-name="Path 138003" d="M342.347,456.29a43.421,43.421,0,0,0,14.232,5.8c11.387,2.18,18.1-1.246,21.158-2.924a18.675,18.675,0,0,0,5.34-4.329l-1.009-3.69s-12.535,7.071-17.971,7.334-21.053-3.514-21.053-3.514Z" transform="translate(-281.703 -358.531)" fill="#ddc6c3"/>
          <path id="Path_138004" data-name="Path 138004" d="M329.559,475.937c.3-.1.6-.209.891-.336l17.333-6.554L344.1,436.88,323.123,438c-7.535.862-12.657,10.162-11.444,20.771s8.307,18.511,15.841,17.648a9.855,9.855,0,0,0,1.92-.44v0Z" transform="translate(-308.819 -371.073)" fill="#e84d76"/>
          <path id="Path_138005" data-name="Path 138005" d="M346.662,451.682c1.017,8.882-3.273,16.667-9.58,17.389s-12.244-5.893-13.261-14.775,3.271-16.667,9.579-17.391S345.645,442.8,346.662,451.682Z" transform="translate(-298.119 -371.098)" fill="#ff6485"/>
          <path id="Path_138006" data-name="Path 138006" d="M348.3,433.3s-9.339,3.587-12.34,4.215-9.085,1.379-11.878,1.736-4.3.926-3.2,2.277c.577.71,2.5.079,4.4-.077,1.569-.13,5.968-.923,5.968-.923a31.673,31.673,0,0,1,4.919-.492,11.781,11.781,0,0,1,5.9,1.469,13.425,13.425,0,0,1,3.786,3.664s6.594-1.637,8.009-2.894S348.3,433.3,348.3,433.3Z" transform="translate(-300.888 -374.224)" fill="#efe1df"/>
          <path id="Path_138007" data-name="Path 138007" d="M344.226,468.442s7.035.545,12.18-4.072,9.234-11.694,5.538-21.784a190.817,190.817,0,0,0,14.646-12.556c2.851,4.634,4.217,8.5,7.64,13.792s4.713,16.669,2.565,21.036-5.985,8.473-15.8,11.671c-8.777,2.858-14.612,1.492-19.952.173-7.27-1.8-9-2.764-8.379-4.5S344.226,468.442,344.226,468.442Z" transform="translate(-281.53 -377.094)" fill="#efe1df"/>
          <path id="Path_138008" data-name="Path 138008" d="M339.1,427.734a22.586,22.586,0,0,1,13.764,5.523,65.747,65.747,0,0,1,12.9,16.154l2.469-2.586s-7.7-12.7-14.531-17.393-11.615-4.249-11.615-4.249Z" transform="translate(-284.56 -381.364)" fill="#efe1df"/>
          <path id="Path_138009" data-name="Path 138009" d="M348.6,419.718s4.737-.665,11.823,8.539S369.9,444,369.9,444l2.349-2.054s-5.62-11.288-10.5-16.82c-5.337-6.049-10.658-6.77-10.658-6.77Z" transform="translate(-276.209 -387.357)" fill="#efe1df"/>
          <path id="Path_138010" data-name="Path 138010" d="M343.056,443.261c-5.906,1.719-16.654,4.585-19.819,4.187s-9.659-5.825-10.953-3.922c-1.094,1.607,2.51,4.344,2.08,5.949s-4.8,2.5-4.241,7.7,5.325,3.754,10.209,1.678c1.875-.8,3.745-2.98,5.34-3.091,2.561-.179,4.831,1.64,6.9,1.885,3.354.393,7.71,3.6,15.927,3.6,3.743,0,7.975-2.394,7.971-5.8C356.458,440.931,348.96,441.541,343.056,443.261Z" transform="translate(-310.074 -366.234)" fill="#efe1df"/>
          <path id="Path_138011" data-name="Path 138011" d="M345.623,428.51c-3.211.329-4.747,4.14-5.6,7.518s1.252,12.712,1.252,12.712-3.724,1.359-3.364,4.017a12.306,12.306,0,0,0-9.457,5.027c-1.825,2.546-1.52,9.286.474,12.094,2.9,4.083,14.341,1.449,18.721.47,5.094-1.137,7.978-2.354,9.268-7.067,2.041-7.462,5.205-14.578,1.424-22.68S350.824,427.98,345.623,428.51Z" transform="translate(-294.981 -378.468)" fill="#ff9d27"/>
          <g id="Group_95535" data-name="Group 95535" transform="translate(32.261)">
            <path id="Path_138012" data-name="Path 138012" d="M360.578,415.654l-1.261,3.465s-3.807,3.805-12.635,3.07a47.066,47.066,0,0,1-15.433-4.012s-2.77-3.931-1.334-5.457S360.578,415.654,360.578,415.654Z" transform="translate(-325.255 -392.59)" fill="#ddc6c3"/>
            <path id="Path_138013" data-name="Path 138013" d="M351.5,401.921c7.9.661,11.117,4.384,13.655,9.036s2.029,7.1.474,11.164c-1.909,4.991-8.64,6.721-17.767,6.287-11.63-.554-18.107-4.081-20.037-9.4s1.052-11.258,7.693-13.92C340.713,403,346.886,401.534,351.5,401.921Z" transform="translate(-327.242 -401.859)" fill="#efe1df"/>
            <path id="Path_138014" data-name="Path 138014" d="M329.769,409.481a7.954,7.954,0,0,0,.549,2.77,4.968,4.968,0,0,1,.224,3.038s-1.766-2.507-1.751-3.752A2.992,2.992,0,0,1,329.769,409.481Z" transform="translate(-325.882 -395.159)" fill="#ddc6c3"/>
            <path id="Path_138015" data-name="Path 138015" d="M334.3,411.334a10.84,10.84,0,0,1,2.781,3.548,10.716,10.716,0,0,1,.635,3.209s-2.281-1.659-2.708-3.179A32.831,32.831,0,0,1,334.3,411.334Z" transform="translate(-321.037 -393.53)" fill="#ddc6c3"/>
            <path id="Path_138016" data-name="Path 138016" d="M340.952,411.736s.09,2.608-1.174,3.967-2.3,2.445-2.3,2.445a3.3,3.3,0,0,1,.77-3.014C339.526,413.384,340.952,411.736,340.952,411.736Z" transform="translate(-318.334 -393.176)" fill="#ddc6c3"/>
            <path id="Path_138017" data-name="Path 138017" d="M348.035,412s-1.2,2.612-2.388,3.334-2.762,1.531-2.762,1.531-.318-1.032,1.879-2.815A10.222,10.222,0,0,1,348.035,412Z" transform="translate(-313.505 -392.942)" fill="#ddc6c3"/>
          </g>
        </g>
      </g>
    </g>
  </g>
</svg>
