<svg xmlns="http://www.w3.org/2000/svg" width="919" height="380" viewBox="0 0 919 380">
  <g id="t4-i3" transform="translate(-769.833 996.206)">
    <rect id="Rectángulo_32775" data-name="Rectángulo 32775" width="919" height="380" transform="translate(769.833 -996.206)" fill="#fff"/>
    <g id="Group_96722" data-name="Group 96722">
      <path id="Path_140383" data-name="Path 140383" d="M826.609-970.889H982.6v51.606a28.608,28.608,0,0,1-28.608,28.608H798V-942.28a28.609,28.609,0,0,1,28.608-28.609" fill="#f1d54e"/>
      <g id="Group_96720" data-name="Group 96720">
        <g id="Group_96715" data-name="Group 96715">
          <path id="Path_140384" data-name="Path 140384" d="M987.694-949.769a.637.637,0,0,1-.637-.637v-2.548a.637.637,0,0,1,.637-.637.637.637,0,0,1,.637.637v2.548A.637.637,0,0,1,987.694-949.769Z" fill="#f1d54e"/>
        </g>
        <g id="Group_96716" data-name="Group 96716">
          <path id="Path_140385" data-name="Path 140385" d="M987.694-956.414a.637.637,0,0,1-.637-.637v-4.1a.637.637,0,0,1,.637-.637.637.637,0,0,1,.637.637v4.1A.637.637,0,0,1,987.694-956.414Zm0-8.193a.637.637,0,0,1-.637-.637v-4.1a.637.637,0,0,1,.637-.637.637.637,0,0,1,.637.637v4.1A.637.637,0,0,1,987.694-964.607Z" fill="#f1d54e"/>
        </g>
        <g id="Group_96717" data-name="Group 96717">
          <path id="Path_140386" data-name="Path 140386" d="M987.694-972.8a.637.637,0,0,1-.637-.637v-1.911h-1.911a.637.637,0,0,1-.637-.637.637.637,0,0,1,.637-.637h2.548a.637.637,0,0,1,.637.637v2.548A.637.637,0,0,1,987.694-972.8Z" fill="#f1d54e"/>
        </g>
        <g id="Group_96718" data-name="Group 96718">
          <path id="Path_140387" data-name="Path 140387" d="M980.4-975.348h-4.751a.637.637,0,0,1-.637-.637.637.637,0,0,1,.637-.637H980.4a.637.637,0,0,1,.637.637A.637.637,0,0,1,980.4-975.348Zm-9.5,0h-4.751a.637.637,0,0,1-.637-.637.637.637,0,0,1,.637-.637h4.751a.637.637,0,0,1,.637.637A.637.637,0,0,1,970.893-975.348Zm-9.5,0h-4.751a.637.637,0,0,1-.637-.637.637.637,0,0,1,.637-.637h4.751a.637.637,0,0,1,.637.637A.637.637,0,0,1,961.392-975.348Zm-9.5,0h-4.751a.637.637,0,0,1-.637-.637.637.637,0,0,1,.637-.637h4.751a.637.637,0,0,1,.637.637A.637.637,0,0,1,951.89-975.348Zm-9.5,0h-4.75a.637.637,0,0,1-.637-.637.637.637,0,0,1,.637-.637h4.75a.638.638,0,0,1,.638.637A.638.638,0,0,1,942.388-975.348Zm-9.5,0h-4.751a.637.637,0,0,1-.637-.637.637.637,0,0,1,.637-.637h4.751a.637.637,0,0,1,.637.637A.637.637,0,0,1,932.887-975.348Zm-9.5,0h-4.75a.637.637,0,0,1-.637-.637.637.637,0,0,1,.637-.637h4.75a.638.638,0,0,1,.638.637A.638.638,0,0,1,923.385-975.348Z" fill="#f1d54e"/>
        </g>
        <g id="Group_96719" data-name="Group 96719">
          <path id="Path_140388" data-name="Path 140388" d="M913.884-975.348h-2.548a.637.637,0,0,1-.637-.637.637.637,0,0,1,.637-.637h2.548a.637.637,0,0,1,.637.637A.637.637,0,0,1,913.884-975.348Z" fill="#f1d54e"/>
        </g>
      </g>
      <g id="Group_96721" data-name="Group 96721">
        <path id="Path_140389" data-name="Path 140389" d="M953.989-884.941H792.9a.637.637,0,0,1-.637-.637v-56.7a34.381,34.381,0,0,1,34.342-34.342h78.447a.637.637,0,0,1,.637.637.637.637,0,0,1-.637.637H826.609a33.106,33.106,0,0,0-33.068,33.068v56.065H953.989a33.1,33.1,0,0,0,33.068-33.068v-26a.637.637,0,0,1,.637-.637.637.637,0,0,1,.637.637v26A34.381,34.381,0,0,1,953.989-884.941Z" fill="#f1d54e"/>
      </g>
      <path id="Path_140390" data-name="Path 140390" d="M826.609-966.96H978.668v47.677A24.707,24.707,0,0,1,953.989-894.6H801.93V-942.28a24.707,24.707,0,0,1,24.679-24.68" fill="#fff"/>
    </g>
    <g id="Group_96730" data-name="Group 96730">
      <path id="Path_140391" data-name="Path 140391" d="M1168.065-970.889h155.988v51.606a28.608,28.608,0,0,1-28.608,28.608H1139.457V-942.28a28.608,28.608,0,0,1,28.608-28.609" fill="#f1d54e"/>
      <g id="Group_96728" data-name="Group 96728">
        <g id="Group_96723" data-name="Group 96723">
          <path id="Path_140392" data-name="Path 140392" d="M1329.149-949.769a.637.637,0,0,1-.637-.637v-2.548a.637.637,0,0,1,.637-.637.638.638,0,0,1,.638.637v2.548A.638.638,0,0,1,1329.149-949.769Z" fill="#f1d54e"/>
        </g>
        <g id="Group_96724" data-name="Group 96724">
          <path id="Path_140393" data-name="Path 140393" d="M1329.149-956.414a.637.637,0,0,1-.637-.637v-4.1a.637.637,0,0,1,.637-.637.638.638,0,0,1,.638.637v4.1A.638.638,0,0,1,1329.149-956.414Zm0-8.193a.637.637,0,0,1-.637-.637v-4.1a.637.637,0,0,1,.637-.637.638.638,0,0,1,.638.637v4.1A.638.638,0,0,1,1329.149-964.607Z" fill="#f1d54e"/>
        </g>
        <g id="Group_96725" data-name="Group 96725">
          <path id="Path_140394" data-name="Path 140394" d="M1329.149-972.8a.637.637,0,0,1-.637-.637v-1.911H1326.6a.637.637,0,0,1-.637-.637.637.637,0,0,1,.637-.637h2.548a.638.638,0,0,1,.638.637v2.548A.638.638,0,0,1,1329.149-972.8Z" fill="#f1d54e"/>
        </g>
        <g id="Group_96726" data-name="Group 96726">
          <path id="Path_140395" data-name="Path 140395" d="M1321.85-975.348H1317.1a.637.637,0,0,1-.637-.637.637.637,0,0,1,.637-.637h4.751a.637.637,0,0,1,.637.637A.637.637,0,0,1,1321.85-975.348Zm-9.5,0H1307.6a.637.637,0,0,1-.637-.637.637.637,0,0,1,.637-.637h4.751a.637.637,0,0,1,.637.637A.637.637,0,0,1,1312.349-975.348Zm-9.5,0H1298.1a.637.637,0,0,1-.637-.637.637.637,0,0,1,.637-.637h4.751a.637.637,0,0,1,.637.637A.637.637,0,0,1,1302.847-975.348Zm-9.5,0h-4.751a.637.637,0,0,1-.637-.637.637.637,0,0,1,.637-.637h4.751a.637.637,0,0,1,.637.637A.637.637,0,0,1,1293.346-975.348Zm-9.5,0h-4.751a.637.637,0,0,1-.637-.637.637.637,0,0,1,.637-.637h4.751a.637.637,0,0,1,.637.637A.637.637,0,0,1,1283.844-975.348Zm-9.5,0h-4.751a.637.637,0,0,1-.637-.637.637.637,0,0,1,.637-.637h4.751a.637.637,0,0,1,.637.637A.637.637,0,0,1,1274.343-975.348Zm-9.5,0h-4.751a.637.637,0,0,1-.637-.637.637.637,0,0,1,.637-.637h4.751a.637.637,0,0,1,.637.637A.637.637,0,0,1,1264.841-975.348Z" fill="#f1d54e"/>
        </g>
        <g id="Group_96727" data-name="Group 96727">
          <path id="Path_140396" data-name="Path 140396" d="M1255.34-975.348h-2.548a.637.637,0,0,1-.637-.637.637.637,0,0,1,.637-.637h2.548a.637.637,0,0,1,.637.637A.637.637,0,0,1,1255.34-975.348Z" fill="#f1d54e"/>
        </g>
      </g>
      <g id="Group_96729" data-name="Group 96729">
        <path id="Path_140397" data-name="Path 140397" d="M1295.445-884.941H1134.36a.637.637,0,0,1-.637-.637v-56.7a34.381,34.381,0,0,1,34.342-34.342h78.447a.637.637,0,0,1,.637.637.637.637,0,0,1-.637.637h-78.447A33.1,33.1,0,0,0,1135-942.28v56.065h160.448a33.1,33.1,0,0,0,33.067-33.068v-26a.637.637,0,0,1,.637-.637.638.638,0,0,1,.638.637v26A34.381,34.381,0,0,1,1295.445-884.941Z" fill="#f1d54e"/>
      </g>
      <path id="Path_140398" data-name="Path 140398" d="M1168.065-966.96h152.059v47.677a24.707,24.707,0,0,1-24.679,24.679h-152.06V-942.28a24.707,24.707,0,0,1,24.68-24.68" fill="#fff"/>
    </g>
    <g id="Group_96738" data-name="Group 96738">
      <path id="Path_140399" data-name="Path 140399" d="M1509.52-970.889h155.988v51.606a28.608,28.608,0,0,1-28.608,28.608H1480.912V-942.28a28.609,28.609,0,0,1,28.608-28.609" fill="#f1d54e"/>
      <g id="Group_96736" data-name="Group 96736">
        <g id="Group_96731" data-name="Group 96731">
          <path id="Path_140400" data-name="Path 140400" d="M1670.6-949.769a.637.637,0,0,1-.637-.637v-2.548a.637.637,0,0,1,.637-.637.637.637,0,0,1,.637.637v2.548A.637.637,0,0,1,1670.6-949.769Z" fill="#f1d54e"/>
        </g>
        <g id="Group_96732" data-name="Group 96732">
          <path id="Path_140401" data-name="Path 140401" d="M1670.6-956.414a.637.637,0,0,1-.637-.637v-4.1a.637.637,0,0,1,.637-.637.637.637,0,0,1,.637.637v4.1A.637.637,0,0,1,1670.6-956.414Zm0-8.193a.637.637,0,0,1-.637-.637v-4.1a.637.637,0,0,1,.637-.637.637.637,0,0,1,.637.637v4.1A.637.637,0,0,1,1670.6-964.607Z" fill="#f1d54e"/>
        </g>
        <g id="Group_96733" data-name="Group 96733">
          <path id="Path_140402" data-name="Path 140402" d="M1670.6-972.8a.637.637,0,0,1-.637-.637v-1.911h-1.911a.637.637,0,0,1-.637-.637.637.637,0,0,1,.637-.637h2.548a.637.637,0,0,1,.637.637v2.548A.637.637,0,0,1,1670.6-972.8Z" fill="#f1d54e"/>
        </g>
        <g id="Group_96734" data-name="Group 96734">
          <path id="Path_140403" data-name="Path 140403" d="M1663.306-975.348h-4.751a.637.637,0,0,1-.637-.637.637.637,0,0,1,.637-.637h4.751a.637.637,0,0,1,.637.637A.637.637,0,0,1,1663.306-975.348Zm-9.5,0h-4.751a.637.637,0,0,1-.637-.637.637.637,0,0,1,.637-.637h4.751a.637.637,0,0,1,.637.637A.637.637,0,0,1,1653.8-975.348Zm-9.5,0h-4.751a.637.637,0,0,1-.637-.637.637.637,0,0,1,.637-.637h4.751a.637.637,0,0,1,.637.637A.637.637,0,0,1,1644.3-975.348Zm-9.5,0h-4.751a.637.637,0,0,1-.637-.637.637.637,0,0,1,.637-.637h4.751a.637.637,0,0,1,.637.637A.637.637,0,0,1,1634.8-975.348Zm-9.5,0h-4.751a.637.637,0,0,1-.637-.637.637.637,0,0,1,.637-.637h4.751a.637.637,0,0,1,.637.637A.637.637,0,0,1,1625.3-975.348Zm-9.5,0h-4.75a.638.638,0,0,1-.638-.637.638.638,0,0,1,.638-.637h4.75a.637.637,0,0,1,.637.637A.637.637,0,0,1,1615.8-975.348Zm-9.5,0h-4.751a.637.637,0,0,1-.637-.637.637.637,0,0,1,.637-.637h4.751a.637.637,0,0,1,.637.637A.637.637,0,0,1,1606.3-975.348Z" fill="#f1d54e"/>
        </g>
        <g id="Group_96735" data-name="Group 96735">
          <path id="Path_140404" data-name="Path 140404" d="M1596.8-975.348h-2.549a.637.637,0,0,1-.637-.637.637.637,0,0,1,.637-.637h2.549a.637.637,0,0,1,.637.637A.637.637,0,0,1,1596.8-975.348Z" fill="#f1d54e"/>
        </g>
      </g>
      <g id="Group_96737" data-name="Group 96737">
        <path id="Path_140405" data-name="Path 140405" d="M1636.9-884.941H1475.815a.637.637,0,0,1-.637-.637v-56.7a34.381,34.381,0,0,1,34.342-34.342h78.447a.637.637,0,0,1,.637.637.637.637,0,0,1-.637.637H1509.52a33.1,33.1,0,0,0-33.067,33.068v56.065H1636.9a33.1,33.1,0,0,0,33.068-33.068v-26a.637.637,0,0,1,.637-.637.637.637,0,0,1,.637.637v26A34.381,34.381,0,0,1,1636.9-884.941Z" fill="#f1d54e"/>
      </g>
      <path id="Path_140406" data-name="Path 140406" d="M1509.52-966.96h152.06v47.677A24.708,24.708,0,0,1,1636.9-894.6H1484.841V-942.28a24.707,24.707,0,0,1,24.679-24.68" fill="#fff"/>
    </g>
    <g id="Group_96746" data-name="Group 96746">
      <path id="Path_140407" data-name="Path 140407" d="M826.609-722.595H982.6v51.606a28.608,28.608,0,0,1-28.608,28.608H798v-51.605a28.609,28.609,0,0,1,28.608-28.609" fill="#f1d54e"/>
      <g id="Group_96744" data-name="Group 96744">
        <g id="Group_96739" data-name="Group 96739">
          <path id="Path_140408" data-name="Path 140408" d="M987.694-701.475a.637.637,0,0,1-.637-.637v-2.548a.637.637,0,0,1,.637-.637.637.637,0,0,1,.637.637v2.548A.637.637,0,0,1,987.694-701.475Z" fill="#f1d54e"/>
        </g>
        <g id="Group_96740" data-name="Group 96740">
          <path id="Path_140409" data-name="Path 140409" d="M987.694-708.12a.637.637,0,0,1-.637-.637v-4.1a.637.637,0,0,1,.637-.637.637.637,0,0,1,.637.637v4.1A.637.637,0,0,1,987.694-708.12Zm0-8.193a.637.637,0,0,1-.637-.637v-4.1a.637.637,0,0,1,.637-.637.637.637,0,0,1,.637.637v4.1A.637.637,0,0,1,987.694-716.313Z" fill="#f1d54e"/>
        </g>
        <g id="Group_96741" data-name="Group 96741">
          <path id="Path_140410" data-name="Path 140410" d="M987.694-724.506a.637.637,0,0,1-.637-.637v-1.911h-1.911a.637.637,0,0,1-.637-.637.637.637,0,0,1,.637-.637h2.548a.637.637,0,0,1,.637.637v2.548A.637.637,0,0,1,987.694-724.506Z" fill="#f1d54e"/>
        </g>
        <g id="Group_96742" data-name="Group 96742">
          <path id="Path_140411" data-name="Path 140411" d="M980.4-727.054h-4.751a.637.637,0,0,1-.637-.637.637.637,0,0,1,.637-.637H980.4a.637.637,0,0,1,.637.637A.637.637,0,0,1,980.4-727.054Zm-9.5,0h-4.751a.637.637,0,0,1-.637-.637.637.637,0,0,1,.637-.637h4.751a.637.637,0,0,1,.637.637A.637.637,0,0,1,970.893-727.054Zm-9.5,0h-4.751a.637.637,0,0,1-.637-.637.637.637,0,0,1,.637-.637h4.751a.637.637,0,0,1,.637.637A.637.637,0,0,1,961.392-727.054Zm-9.5,0h-4.751a.637.637,0,0,1-.637-.637.637.637,0,0,1,.637-.637h4.751a.637.637,0,0,1,.637.637A.637.637,0,0,1,951.89-727.054Zm-9.5,0h-4.75a.637.637,0,0,1-.637-.637.637.637,0,0,1,.637-.637h4.75a.638.638,0,0,1,.638.637A.638.638,0,0,1,942.388-727.054Zm-9.5,0h-4.751a.637.637,0,0,1-.637-.637.637.637,0,0,1,.637-.637h4.751a.637.637,0,0,1,.637.637A.637.637,0,0,1,932.887-727.054Zm-9.5,0h-4.75a.637.637,0,0,1-.637-.637.637.637,0,0,1,.637-.637h4.75a.638.638,0,0,1,.638.637A.638.638,0,0,1,923.385-727.054Z" fill="#f1d54e"/>
        </g>
        <g id="Group_96743" data-name="Group 96743">
          <path id="Path_140412" data-name="Path 140412" d="M913.884-727.054h-2.548a.637.637,0,0,1-.637-.637.637.637,0,0,1,.637-.637h2.548a.637.637,0,0,1,.637.637A.637.637,0,0,1,913.884-727.054Z" fill="#f1d54e"/>
        </g>
      </g>
      <g id="Group_96745" data-name="Group 96745">
        <path id="Path_140413" data-name="Path 140413" d="M953.989-636.647H792.9a.638.638,0,0,1-.637-.637v-56.7a34.381,34.381,0,0,1,34.342-34.342h78.447a.637.637,0,0,1,.637.637.637.637,0,0,1-.637.637H826.609a33.106,33.106,0,0,0-33.068,33.068v56.064H953.989a33.1,33.1,0,0,0,33.068-33.067v-26a.637.637,0,0,1,.637-.637.637.637,0,0,1,.637.637v26A34.381,34.381,0,0,1,953.989-636.647Z" fill="#f1d54e"/>
      </g>
      <path id="Path_140414" data-name="Path 140414" d="M826.609-718.666H978.668v47.677a24.707,24.707,0,0,1-24.679,24.679H801.93v-47.676a24.707,24.707,0,0,1,24.679-24.68" fill="#fff"/>
    </g>
    <g id="Group_96754" data-name="Group 96754">
      <path id="Path_140415" data-name="Path 140415" d="M1153.055-722.595h186.007v51.606a28.608,28.608,0,0,1-28.608,28.608H1124.447v-51.605a28.609,28.609,0,0,1,28.608-28.609" fill="#f1d54e"/>
      <g id="Group_96752" data-name="Group 96752">
        <g id="Group_96747" data-name="Group 96747">
          <path id="Path_140416" data-name="Path 140416" d="M1344.159-701.475a.637.637,0,0,1-.637-.637v-2.548a.637.637,0,0,1,.637-.637.637.637,0,0,1,.637.637v2.548A.637.637,0,0,1,1344.159-701.475Z" fill="#f1d54e"/>
        </g>
        <g id="Group_96748" data-name="Group 96748">
          <path id="Path_140417" data-name="Path 140417" d="M1344.159-708.12a.637.637,0,0,1-.637-.637v-4.1a.637.637,0,0,1,.637-.637.637.637,0,0,1,.637.637v4.1A.637.637,0,0,1,1344.159-708.12Zm0-8.193a.637.637,0,0,1-.637-.637v-4.1a.637.637,0,0,1,.637-.637.637.637,0,0,1,.637.637v4.1A.637.637,0,0,1,1344.159-716.313Z" fill="#f1d54e"/>
        </g>
        <g id="Group_96749" data-name="Group 96749">
          <path id="Path_140418" data-name="Path 140418" d="M1344.159-724.506a.637.637,0,0,1-.637-.637v-1.911h-1.911a.637.637,0,0,1-.637-.637.637.637,0,0,1,.637-.637h2.548a.637.637,0,0,1,.637.637v2.548A.637.637,0,0,1,1344.159-724.506Z" fill="#f1d54e"/>
        </g>
        <g id="Group_96750" data-name="Group 96750">
          <path id="Path_140419" data-name="Path 140419" d="M1336.86-727.054h-4.751a.637.637,0,0,1-.637-.637.637.637,0,0,1,.637-.637h4.751a.637.637,0,0,1,.637.637A.637.637,0,0,1,1336.86-727.054Zm-9.5,0h-4.751a.637.637,0,0,1-.637-.637.637.637,0,0,1,.637-.637h4.751a.637.637,0,0,1,.637.637A.637.637,0,0,1,1327.358-727.054Zm-9.5,0h-4.751a.637.637,0,0,1-.637-.637.637.637,0,0,1,.637-.637h4.751a.637.637,0,0,1,.637.637A.637.637,0,0,1,1317.857-727.054Zm-9.5,0H1303.6a.637.637,0,0,1-.637-.637.637.637,0,0,1,.637-.637h4.751a.637.637,0,0,1,.637.637A.637.637,0,0,1,1308.355-727.054Zm-9.5,0h-4.75a.637.637,0,0,1-.637-.637.637.637,0,0,1,.637-.637h4.75a.638.638,0,0,1,.638.637A.638.638,0,0,1,1298.853-727.054Zm-9.5,0H1284.6a.637.637,0,0,1-.637-.637.637.637,0,0,1,.637-.637h4.751a.637.637,0,0,1,.637.637A.637.637,0,0,1,1289.352-727.054Zm-9.5,0h-4.75a.637.637,0,0,1-.637-.637.637.637,0,0,1,.637-.637h4.75a.638.638,0,0,1,.638.637A.638.638,0,0,1,1279.85-727.054Z" fill="#f1d54e"/>
        </g>
        <g id="Group_96751" data-name="Group 96751">
          <path id="Path_140420" data-name="Path 140420" d="M1270.349-727.054H1267.8a.637.637,0,0,1-.637-.637.637.637,0,0,1,.637-.637h2.548a.637.637,0,0,1,.637.637A.637.637,0,0,1,1270.349-727.054Z" fill="#f1d54e"/>
        </g>
      </g>
      <g id="Group_96753" data-name="Group 96753">
        <path id="Path_140421" data-name="Path 140421" d="M1310.454-636.647h-191.1a.638.638,0,0,1-.637-.637v-56.7a34.381,34.381,0,0,1,34.342-34.342h108.466a.637.637,0,0,1,.637.637.637.637,0,0,1-.637.637H1153.055a33.1,33.1,0,0,0-33.067,33.068v56.064h190.466a33.1,33.1,0,0,0,33.068-33.067v-26a.637.637,0,0,1,.637-.637.637.637,0,0,1,.637.637v26A34.381,34.381,0,0,1,1310.454-636.647Z" fill="#f1d54e"/>
      </g>
      <path id="Path_140422" data-name="Path 140422" d="M1153.055-718.666h182.078v47.677a24.707,24.707,0,0,1-24.679,24.679H1128.376v-47.676a24.707,24.707,0,0,1,24.679-24.68" fill="#fff"/>
    </g>
    <g id="Group_96762" data-name="Group 96762">
      <path id="Path_140423" data-name="Path 140423" d="M1509.52-722.595h155.988v51.606a28.608,28.608,0,0,1-28.608,28.608H1480.912v-51.605a28.609,28.609,0,0,1,28.608-28.609" fill="#f1d54e"/>
      <g id="Group_96760" data-name="Group 96760">
        <g id="Group_96755" data-name="Group 96755">
          <path id="Path_140424" data-name="Path 140424" d="M1670.6-701.475a.637.637,0,0,1-.637-.637v-2.548a.637.637,0,0,1,.637-.637.637.637,0,0,1,.637.637v2.548A.637.637,0,0,1,1670.6-701.475Z" fill="#f1d54e"/>
        </g>
        <g id="Group_96756" data-name="Group 96756">
          <path id="Path_140425" data-name="Path 140425" d="M1670.6-708.12a.637.637,0,0,1-.637-.637v-4.1a.637.637,0,0,1,.637-.637.637.637,0,0,1,.637.637v4.1A.637.637,0,0,1,1670.6-708.12Zm0-8.193a.637.637,0,0,1-.637-.637v-4.1a.637.637,0,0,1,.637-.637.637.637,0,0,1,.637.637v4.1A.637.637,0,0,1,1670.6-716.313Z" fill="#f1d54e"/>
        </g>
        <g id="Group_96757" data-name="Group 96757">
          <path id="Path_140426" data-name="Path 140426" d="M1670.6-724.506a.637.637,0,0,1-.637-.637v-1.911h-1.911a.637.637,0,0,1-.637-.637.637.637,0,0,1,.637-.637h2.548a.637.637,0,0,1,.637.637v2.548A.637.637,0,0,1,1670.6-724.506Z" fill="#f1d54e"/>
        </g>
        <g id="Group_96758" data-name="Group 96758">
          <path id="Path_140427" data-name="Path 140427" d="M1663.306-727.054h-4.751a.637.637,0,0,1-.637-.637.637.637,0,0,1,.637-.637h4.751a.637.637,0,0,1,.637.637A.637.637,0,0,1,1663.306-727.054Zm-9.5,0h-4.751a.637.637,0,0,1-.637-.637.637.637,0,0,1,.637-.637h4.751a.637.637,0,0,1,.637.637A.637.637,0,0,1,1653.8-727.054Zm-9.5,0h-4.751a.637.637,0,0,1-.637-.637.637.637,0,0,1,.637-.637h4.751a.637.637,0,0,1,.637.637A.637.637,0,0,1,1644.3-727.054Zm-9.5,0h-4.751a.637.637,0,0,1-.637-.637.637.637,0,0,1,.637-.637h4.751a.637.637,0,0,1,.637.637A.637.637,0,0,1,1634.8-727.054Zm-9.5,0h-4.751a.637.637,0,0,1-.637-.637.637.637,0,0,1,.637-.637h4.751a.637.637,0,0,1,.637.637A.637.637,0,0,1,1625.3-727.054Zm-9.5,0h-4.75a.638.638,0,0,1-.638-.637.638.638,0,0,1,.638-.637h4.75a.637.637,0,0,1,.637.637A.637.637,0,0,1,1615.8-727.054Zm-9.5,0h-4.751a.637.637,0,0,1-.637-.637.637.637,0,0,1,.637-.637h4.751a.637.637,0,0,1,.637.637A.637.637,0,0,1,1606.3-727.054Z" fill="#f1d54e"/>
        </g>
        <g id="Group_96759" data-name="Group 96759">
          <path id="Path_140428" data-name="Path 140428" d="M1596.8-727.054h-2.549a.637.637,0,0,1-.637-.637.637.637,0,0,1,.637-.637h2.549a.637.637,0,0,1,.637.637A.637.637,0,0,1,1596.8-727.054Z" fill="#f1d54e"/>
        </g>
      </g>
      <g id="Group_96761" data-name="Group 96761">
        <path id="Path_140429" data-name="Path 140429" d="M1636.9-636.647H1475.815a.638.638,0,0,1-.637-.637v-56.7a34.381,34.381,0,0,1,34.342-34.342h78.447a.637.637,0,0,1,.637.637.637.637,0,0,1-.637.637H1509.52a33.1,33.1,0,0,0-33.067,33.068v56.064H1636.9a33.1,33.1,0,0,0,33.068-33.067v-26a.637.637,0,0,1,.637-.637.637.637,0,0,1,.637.637v26A34.381,34.381,0,0,1,1636.9-636.647Z" fill="#f1d54e"/>
      </g>
      <path id="Path_140430" data-name="Path 140430" d="M1509.52-718.666h152.06v47.677a24.708,24.708,0,0,1-24.68,24.679H1484.841v-47.676a24.707,24.707,0,0,1,24.679-24.68" fill="#fff"/>
    </g>
    <text id="Materiales" transform="translate(890.299 -924.937)" fill="#12263f" font-size="20" font-family="Roboto-Bold, Roboto" font-weight="700"><tspan x="-47.764" y="0">Materiales</tspan></text>
    <text id="Materia_prima" data-name="Materia prima" transform="translate(890.299 -676.643)" fill="#12263f" font-size="20" font-family="Roboto-Bold, Roboto" font-weight="700"><tspan x="-63.003" y="0">Materia prima</tspan></text>
    <text id="Directos" transform="translate(890.299 -806.67)" fill="#12263f" font-size="17" font-family="Roboto-Regular, Roboto"><tspan x="-31.311" y="0">Directos</tspan></text>
    <text id="Indirectos" transform="translate(1046.205 -801.667)" fill="#12263f" font-size="17" font-family="Roboto-Regular, Roboto"><tspan x="-37.532" y="0">Indirectos</tspan></text>
    <text id="Indirectos-2" data-name="Indirectos" transform="translate(1412.461 -801.667)" fill="#12263f" font-size="17" font-family="Roboto-Regular, Roboto"><tspan x="-37.532" y="0">Indirectos</tspan></text>
    <text id="Costos_Indirectos_de_Fabricación_CIF_" data-name="Costos Indirectos
de Fabricación (CIF)" transform="translate(1231.755 -688.643)" fill="#12263f" font-size="20" font-family="Roboto-Bold, Roboto" font-weight="700"><tspan x="-78.862" y="0">Costos Indirectos</tspan><tspan x="-90.293" y="24">de Fabricación (CIF)</tspan></text>
    <text id="Mano_de_Obra_Directa_MOD_" data-name="Mano de Obra
Directa (MOD)" transform="translate(1573.21 -688.643)" fill="#12263f" font-size="20" font-family="Roboto-Bold, Roboto" font-weight="700"><tspan x="-62.793" y="0">Mano de Obra</tspan><tspan x="-63.755" y="24">Directa (MOD)</tspan></text>
    <text id="Otros_costos" data-name="Otros costos" transform="translate(1231.755 -924.937)" fill="#12263f" font-size="20" font-family="Roboto-Bold, Roboto" font-weight="700"><tspan x="-57.08" y="0">Otros costos</tspan></text>
    <text id="Costo_laboral" data-name="Costo laboral" transform="translate(1573.21 -924.937)" fill="#12263f" font-size="20" font-family="Roboto-Bold, Roboto" font-weight="700"><tspan x="-59.526" y="0">Costo laboral</tspan></text>
    <rect id="Rectangle_32863" data-name="Rectangle 32863" width="59.103" height="1.906" transform="translate(891.252 -886.207) rotate(90)" fill="#f1d54e"/>
    <rect id="Rectangle_32864" data-name="Rectangle 32864" width="61.8" height="1.906" transform="translate(891.252 -801.667) rotate(90)" fill="#f1d54e"/>
    <g id="Group_96763" data-name="Group 96763">
      <circle id="Ellipse_4380" data-name="Ellipse 4380" cx="4.745" cy="4.745" r="4.745" transform="translate(885.554 -889.686)" fill="#f1d54e"/>
      <circle id="Ellipse_4381" data-name="Ellipse 4381" cx="3.843" cy="3.843" r="3.843" transform="translate(886.456 -888.784)" fill="#fff"/>
      <circle id="Ellipse_4382" data-name="Ellipse 4382" cx="2.422" cy="2.422" r="2.422" transform="translate(887.877 -887.363)" fill="#f1d54e"/>
    </g>
    <path id="Path_140431" data-name="Path 140431" d="M890.3-729.857l6.161-15.014H884.138Z" fill="#f1d54e"/>
    <text id="Directos-2" data-name="Directos" transform="translate(1573.21 -806.67)" fill="#12263f" font-size="17" font-family="Roboto-Regular, Roboto"><tspan x="-31.311" y="0">Directos</tspan></text>
    <rect id="Rectangle_32865" data-name="Rectangle 32865" width="59.103" height="1.906" transform="translate(1574.163 -886.207) rotate(90)" fill="#f1d54e"/>
    <rect id="Rectangle_32866" data-name="Rectangle 32866" width="61.8" height="1.906" transform="translate(1574.163 -801.667) rotate(90)" fill="#f1d54e"/>
    <g id="Group_96764" data-name="Group 96764">
      <circle id="Ellipse_4383" data-name="Ellipse 4383" cx="4.745" cy="4.745" r="4.745" transform="translate(1568.465 -889.686)" fill="#f1d54e"/>
      <circle id="Ellipse_4384" data-name="Ellipse 4384" cx="3.843" cy="3.843" r="3.843" transform="translate(1569.367 -888.784)" fill="#fff"/>
      <circle id="Ellipse_4385" data-name="Ellipse 4385" cx="2.422" cy="2.422" r="2.422" transform="translate(1570.788 -887.363)" fill="#f1d54e"/>
    </g>
    <path id="Path_140432" data-name="Path 140432" d="M1573.21-729.857l6.161-15.014h-12.322Z" fill="#f1d54e"/>
    <g id="Group_96766" data-name="Group 96766">
      <rect id="Rectangle_32867" data-name="Rectangle 32867" width="98.116" height="1.906" transform="matrix(0.667, 0.745, -0.745, 0.667, 976.833, -895.552)" fill="#f1d54e"/>
      <rect id="Rectangle_32868" data-name="Rectangle 32868" width="96.457" height="1.906" transform="matrix(0.667, 0.745, -0.745, 0.667, 1062.265, -800.225)" fill="#f1d54e"/>
      <g id="Group_96765" data-name="Group 96765">
        <circle id="Ellipse_4386" data-name="Ellipse 4386" cx="4.745" cy="4.745" r="4.745" transform="translate(971.378 -899.66)" fill="#f1d54e"/>
        <circle id="Ellipse_4387" data-name="Ellipse 4387" cx="3.843" cy="3.843" r="3.843" transform="translate(972.28 -898.758)" fill="#fff"/>
        <circle id="Ellipse_4388" data-name="Ellipse 4388" cx="2.422" cy="2.422" r="2.422" transform="translate(973.701 -897.337)" fill="#f1d54e"/>
      </g>
      <path id="Path_140433" data-name="Path 140433" d="M1132.611-720.3l-5.433-15.293L1118-727.372Z" fill="#f1d54e"/>
    </g>
    <g id="Group_96768" data-name="Group 96768">
      <rect id="Rectangle_32869" data-name="Rectangle 32869" width="87.974" height="1.906" transform="translate(1478.424 -886.728) rotate(131.866)" fill="#f1d54e"/>
      <path id="Path_140434" data-name="Path 140434" d="M1344.244-737.511l55.516-61.442-1.419-1.272-55.516,61.442Z" fill="#f1d54e"/>
      <g id="Group_96767" data-name="Group 96767">
        <circle id="Ellipse_4389" data-name="Ellipse 4389" cx="4.745" cy="4.745" r="4.745" transform="translate(1472.969 -892.109)" fill="#f1d54e"/>
        <circle id="Ellipse_4390" data-name="Ellipse 4390" cx="3.843" cy="3.843" r="3.843" transform="translate(1473.872 -891.206)" fill="#fff"/>
        <circle id="Ellipse_4391" data-name="Ellipse 4391" cx="2.422" cy="2.422" r="2.422" transform="translate(1475.293 -889.785)" fill="#f1d54e"/>
      </g>
      <path id="Path_140435" data-name="Path 140435" d="M1336.855-730.692l5.433-15.293,9.176,8.224Z" fill="#f1d54e"/>
    </g>
    <rect id="Rectangle_32870" data-name="Rectangle 32870" width="143.532" height="1.906" transform="translate(1232.71 -886.208) rotate(90)" fill="#f1d54e"/>
    <g id="Group_96769" data-name="Group 96769">
      <circle id="Ellipse_4392" data-name="Ellipse 4392" cx="4.745" cy="4.745" r="4.745" transform="translate(1227.009 -889.686)" fill="#f1d54e"/>
      <circle id="Ellipse_4393" data-name="Ellipse 4393" cx="3.843" cy="3.843" r="3.843" transform="translate(1227.912 -888.784)" fill="#fff"/>
      <circle id="Ellipse_4394" data-name="Ellipse 4394" cx="2.422" cy="2.422" r="2.422" transform="translate(1229.333 -887.363)" fill="#f1d54e"/>
    </g>
    <path id="Path_140436" data-name="Path 140436" d="M1231.755-729.857l6.161-15.014h-12.322Z" fill="#f1d54e"/>
  </g>
</svg>
