<svg xmlns="http://www.w3.org/2000/svg" width="56" height="55.995" viewBox="0 0 56 55.995">
  <g id="t4-ic1" transform="translate(-0.001 -0.021)">
    <path id="Path_140486" data-name="Path 140486" d="M253.593,352.125a1.094,1.094,0,1,0,1.547,0A1.094,1.094,0,0,0,253.593,352.125Z" transform="translate(-225.57 -313.308)" fill="#fb9e36"/>
    <path id="Path_140487" data-name="Path 140487" d="M115.47,377.8c-4.89,4.294-9.622,4.965-12.188,4.235a1.093,1.093,0,1,0-.6,2.1,9.434,9.434,0,0,0,2.574.334,13.952,13.952,0,0,0,3.91-.6,20.949,20.949,0,0,0,7.746-4.433,1.093,1.093,0,1,0-1.443-1.643Z" transform="translate(-90.745 -336.222)" fill="#fb9e36"/>
    <path id="Path_140488" data-name="Path 140488" d="M43.761,1.382A62.877,62.877,0,0,0,30.44,8.418a56.5,56.5,0,0,0-6.215,4.891,18.761,18.761,0,0,0-3.57-5.057A1.093,1.093,0,0,0,18.98,9.644c.408.593.473,2.246-.685,4.952-.952,2.224-3.079,5.964-7.808,11.149C5.812,30.869,2.2,37.9,3.714,44.568L.96,47.322a3.285,3.285,0,0,0,0,4.64l3.092,3.092a3.279,3.279,0,0,0,4.64,0l2.746-2.747c6.405,1.445,13.39-1.855,18.247-6.365,5.347-4.966,9.212-7.211,11.512-8.22,2.8-1.227,4.5-1.172,5.11-.753A1.094,1.094,0,0,0,47.7,35.3a15.429,15.429,0,0,0-5.159-3.324,56.335,56.335,0,0,0,4.828-6.062,63.2,63.2,0,0,0,7.219-13.5c1.911-5.27,1.883-8.939-.081-10.9C52.568-.432,48.952-.474,43.761,1.382ZM7.146,53.508a1.094,1.094,0,0,1-1.547,0L2.506,50.416a1.094,1.094,0,0,1,0-1.547L4.49,46.885a9.536,9.536,0,0,0,1.776,2.646,9.478,9.478,0,0,0,2.853,2ZM40.318,35.721c-3.52,1.544-7.711,4.525-12.121,8.62-7.544,7-16.426,7.606-20.277,3.755a7.951,7.951,0,0,1-1.942-3.487C4.538,39.5,6.828,33,12.1,27.218a45.167,45.167,0,0,0,8.2-11.762,15.059,15.059,0,0,0,.954-2.974,17.3,17.3,0,0,1,2.354,5.726,18.036,18.036,0,0,1-1.145,9.608,33.45,33.45,0,0,1-6.76,10.878,1.094,1.094,0,0,0,1.545,1.545c7.024-6.434,15.627-8.957,23.015-6.749a15.79,15.79,0,0,1,3.009,1.238A15.714,15.714,0,0,0,40.318,35.721ZM52.532,11.665a60.948,60.948,0,0,1-6.963,13,53.383,53.383,0,0,1-5.319,6.548c-6.155-1.615-12.8-.279-18.443,2.962,3.406-5.663,4.947-11.738,3.946-16.424a19.519,19.519,0,0,0-.637-2.289,53.743,53.743,0,0,1,6.553-5.237A60.625,60.625,0,0,1,44.5,3.442c4.2-1.5,7.21-1.641,8.464-.388C54.235,4.328,54.083,7.386,52.532,11.665Z" transform="translate(0 0)" fill="#fb9e36"/>
    <path id="Path_140489" data-name="Path 140489" d="M256.851,157.667a1.094,1.094,0,0,0,0-1.546l-1.546-1.546a1.094,1.094,0,1,0-1.546,1.546l1.546,1.546A1.094,1.094,0,0,0,256.851,157.667Z" transform="translate(-225.717 -137.364)" fill="#fb9e36"/>
    <path id="Path_140490" data-name="Path 140490" d="M326,225.268a1.094,1.094,0,0,0-1.547,1.547L326,228.361a1.094,1.094,0,1,0,1.547-1.547Z" transform="translate(-288.679 -200.326)" fill="#fb9e36"/>
    <path id="Path_140491" data-name="Path 140491" d="M320.475,164.735a1.094,1.094,0,0,0,0-1.547l-1.546-1.546a1.094,1.094,0,1,0-1.547,1.547l1.546,1.546A1.094,1.094,0,0,0,320.475,164.735Z" transform="translate(-282.383 -143.659)" fill="#fb9e36"/>
    <path id="Path_140492" data-name="Path 140492" d="M262.371,218.2a1.094,1.094,0,1,0-1.547,1.547l1.546,1.546a1.094,1.094,0,1,0,1.547-1.547Z" transform="translate(-232.011 -194.03)" fill="#fb9e36"/>
    <path id="Path_140493" data-name="Path 140493" d="M377.033,108.177a1.094,1.094,0,0,0,0-1.547l-1.546-1.546a1.094,1.094,0,0,0-1.547,1.547l1.546,1.546A1.094,1.094,0,0,0,377.033,108.177Z" transform="translate(-332.754 -93.287)" fill="#fb9e36"/>
    <path id="Path_140494" data-name="Path 140494" d="M417.9,62.675a1.094,1.094,0,1,0-1.546,1.547l1.547,1.546a1.094,1.094,0,1,0,1.546-1.547Z" transform="translate(-370.526 -55.517)" fill="#fb9e36"/>
    <path id="Path_140495" data-name="Path 140495" d="M313.408,101.108a1.094,1.094,0,0,0,0-1.547l-1.546-1.546a1.094,1.094,0,0,0-1.547,1.547l1.546,1.546A1.093,1.093,0,0,0,313.408,101.108Z" transform="translate(-276.088 -86.991)" fill="#fb9e36"/>
    <path id="Path_140496" data-name="Path 140496" d="M382.555,168.71a1.094,1.094,0,0,0-1.547,1.547l1.546,1.546a1.094,1.094,0,0,0,1.547-1.547Z" transform="translate(-339.049 -149.954)" fill="#fb9e36"/>
  </g>
</svg>
