<svg xmlns="http://www.w3.org/2000/svg" width="190" height="150" viewBox="0 0 190 150">
  <g id="t5-i0" transform="translate(-180 -404)">
    <path id="Rectangle_31567" data-name="Rectangle 31567" d="M75,0H85a0,0,0,0,1,0,0V75a75,75,0,0,1-75,75H0a0,0,0,0,1,0,0V75A75,75,0,0,1,75,0Z" transform="translate(285 404)" fill="#f1d54e" opacity="0.15"/>
    <path id="Rectangle_31566" data-name="Rectangle 31566" d="M0,0H10A75,75,0,0,1,85,75v47a0,0,0,0,1,0,0H75A75,75,0,0,1,0,47V0A0,0,0,0,1,0,0Z" transform="translate(180 432)" fill="#17c878" opacity="0.15"/>
    <g id="negocios-y-finanzas" transform="translate(222 429)">
      <path id="Path_139984" data-name="Path 139984" d="M85.695,275.9H107.26l20.909,8.655a7.127,7.127,0,0,1,3.837,9.363l-.071.167a7.333,7.333,0,0,1-9.4,4.013c-5.934-2.289-13.715-5.28-13.715-5.28l20.036,7.7a22.769,22.769,0,0,0,13.254.942l20.527-4.7a6.889,6.889,0,0,1,3.234,13.392l-24.492,6.225a22.773,22.773,0,0,1-13.924-.871l-31.61-12.4H85.695Zm0,0" transform="translate(-68.121 -219.317)" fill="#ffd4be"/>
      <path id="Path_139985" data-name="Path 139985" d="M85.695,275.9H107.26l20.909,8.655a7.127,7.127,0,0,1,3.837,9.363l-.071.167a7.333,7.333,0,0,1-9.4,4.013c-5.934-2.289-13.715-5.28-13.715-5.28l20.036,7.7a22.769,22.769,0,0,0,13.254.942l20.527-4.7a6.889,6.889,0,0,1,3.234,13.392l-24.492,6.225a22.773,22.773,0,0,1-13.924-.871l-31.61-12.4H85.695Zm0,0" transform="translate(-68.121 -219.317)" fill="#ffd4be"/>
      <path id="Path_139986" data-name="Path 139986" d="M10,252.316H25.523v36.048H10Zm0,0" transform="translate(-7.949 -200.572)" fill="#d2f6e6"/>
      <path id="Path_139987" data-name="Path 139987" d="M146.25,166.871v24.585l-5.379-2.226h-12.9V166.871Zm0,0" transform="translate(-101.732 -132.649)" fill="#f1d54e"/>
      <path id="Path_139988" data-name="Path 139988" d="M235.367,101.382v46.412a7.114,7.114,0,0,0-2.746-2.017l-15.527-6.427V101.32Zm0,0" transform="translate(-172.573 -80.542)" fill="#17c878"/>
      <path id="Path_139989" data-name="Path 139989" d="M324.47,218.41v35.734l-7.074,1.619a22.77,22.77,0,0,1-11.2-.262v-5.394a7.4,7.4,0,0,0,1.021-1.722l.07-.167a7.123,7.123,0,0,0-1.09-7.347V218.41Zm0,0" transform="translate(-243.402 -173.619)" fill="#fb9e36"/>
      <path id="Path_139990" data-name="Path 139990" d="M419.708,112.836a3.1,3.1,0,1,1-3.1-3.1A3.1,3.1,0,0,1,419.708,112.836Zm0,0" transform="translate(-328.71 -87.234)" fill="#98a1b3"/>
      <path id="Path_139991" data-name="Path 139991" d="M364.176,40.363a3.1,3.1,0,1,1-3.1-3.1A3.1,3.1,0,0,1,364.176,40.363Zm0,0" transform="translate(-284.567 -29.623)" fill="#98a1b3"/>
      <path id="Path_139992" data-name="Path 139992" d="M104.81,154.933a8.939,8.939,0,0,0-10.747-6.895l-10.944,2.506V146.07a43.231,43.231,0,0,0,6.106-7.235,42.413,42.413,0,0,0,6-14.119,43.262,43.262,0,0,0,.083-18.364,2.051,2.051,0,0,0-4.011.859,39.111,39.111,0,0,1-.075,16.61A38.328,38.328,0,0,1,85.8,136.578a36.508,36.508,0,0,1-2.68,3.537V117.384a2.051,2.051,0,0,0-2.051-2.051H64.844v-21.9A2.051,2.051,0,0,0,62.8,91.382L44.527,91.32h-.006a2.051,2.051,0,0,0-2.051,2.051v11.392H26.245a2.051,2.051,0,0,0-2.051,2.051v20.308H19.625v-2.785a2.05,2.05,0,0,0-2.051-2.05h-2.1a38.814,38.814,0,0,1,1.675-20.114c.382-1.054.816-2.105,1.29-3.123a2.051,2.051,0,1,0-3.718-1.731c-.525,1.126-1.005,2.29-1.428,3.456a42.855,42.855,0,0,0-1.98,21.512H2.05A2.051,2.051,0,0,0,0,124.338v36.047a2.051,2.051,0,0,0,2.051,2.051H17.574a2.051,2.051,0,0,0,2.051-2.051v-1.95h7.714l31.25,12.257a24.683,24.683,0,0,0,15.177.949l24.493-6.225a8.922,8.922,0,0,0,6.55-10.483Zm-25.793-35.5v32.048l-5.483,1.255c-.59.135-1.186.241-1.785.324a20.818,20.818,0,0,1-6.877-.2l-.029-.006v-3.11a9.5,9.5,0,0,0,1.263-7.99,9.21,9.21,0,0,0-.965-2.15q-.141-.228-.293-.447a.028.028,0,0,0,0-.006v-19.72H79.017ZM46.571,95.429l14.172.047V135.9l-7.92-3.278-6.252-2.588ZM28.3,108.865H42.468V128.33l-2.543-1.053a2.048,2.048,0,0,0-.784-.156H28.3ZM15.523,158.334H4.1V126.388H15.523Zm81.726,3.107-24.493,6.225a20.611,20.611,0,0,1-12.67-.792l-31.61-12.4a2.048,2.048,0,0,0-.749-.141h-8.1v-23.11H38.731L52,136.716l7.261,3.006a5.13,5.13,0,0,1,2.745,6.645,5.864,5.864,0,0,1-.821,1.441,5.286,5.286,0,0,1-5.375,1.854l-.048-.012q-.178-.044-.353-.1l-13.8-5.3-.171-.066a2.051,2.051,0,0,0-1.472,3.828s7.78,2.991,13.713,5.279c.119.046.238.09.357.13l4.556,1.752a37.664,37.664,0,0,0,4.181,1.423,24.881,24.881,0,0,0,11.677.147l7.074-1.619.022-.006,13.431-3.075a4.838,4.838,0,0,1,2.271,9.4Zm0,0" transform="translate(0 -72.592)"/>
      <path id="Path_139993" data-name="Path 139993" d="M119.928,14.586a2.042,2.042,0,0,0,1.374-.529,38.537,38.537,0,0,1,28.475-9.873,38.465,38.465,0,0,1,11.181,2.435,2.05,2.05,0,1,0,1.46-3.832,42.556,42.556,0,0,0-12.371-2.7,42.641,42.641,0,0,0-31.492,10.922,2.051,2.051,0,0,0,1.375,3.573Zm0,0" transform="translate(-93.703 0)"/>
      <path id="Path_139994" data-name="Path 139994" d="M352.151,53.26a2.053,2.053,0,0,0,2.894-.2l16.872-19.422a2.05,2.05,0,1,0-3.1-2.69L351.949,50.368A2.05,2.05,0,0,0,352.151,53.26Zm0,0" transform="translate(-279.372 -24.038)"/>
      <path id="Path_139995" data-name="Path 139995" d="M408.66,99.738a5.149,5.149,0,1,0,5.149,5.149A5.154,5.154,0,0,0,408.66,99.738Zm0,6.2a1.047,1.047,0,1,1,1.047-1.047A1.048,1.048,0,0,1,408.66,105.934Zm0,0" transform="translate(-320.761 -79.284)"/>
      <path id="Path_139996" data-name="Path 139996" d="M353.129,37.563a5.149,5.149,0,1,0-5.149-5.149A5.154,5.154,0,0,0,353.129,37.563Zm0-6.2a1.047,1.047,0,1,1-1.047,1.048A1.049,1.049,0,0,1,353.129,31.366Zm0,0" transform="translate(-276.618 -21.674)"/>
      <path id="Path_139997" data-name="Path 139997" d="M91.734,83.656a2.05,2.05,0,1,0,.755-2.49,2.068,2.068,0,0,0-.755,2.49Zm0,0" transform="translate(-72.8 -64.25)"/>
    </g>
  </g>
</svg>
