<svg xmlns="http://www.w3.org/2000/svg" width="610" height="326" viewBox="0 0 610 326">
  <g id="t5-i5" transform="translate(-6180 8217)">
    <path id="Path_139449" data-name="Path 139449" d="M773.157,553.651c-.083.251-.171.5-.256.756q-1.12,3.217-2.466,6.531-.187.462-.381.924-1.64,3.947-3.626,8.037s0,0,0,0c-.013.032-.03.066-.046.1l-562.768.749c.132-2.205-51.4-73.493,2.522-142.875s116.968-31.992,129.9-80.811A73.835,73.835,0,0,1,349.1,320.228q.458-.595.936-1.173,1.213-1.491,2.5-2.9.357-.391.716-.775a70.155,70.155,0,0,1,6.936-6.425c.49-.4.984-.788,1.486-1.171h0c29.956-22.965,77.042-21.985,110.677-8.327,44.67,18.137,126.428-13.389,196.289,9.647q1.737.571,3.462,1.191h0q3.63,1.3,7.206,2.806a75.955,75.955,0,0,1,13.7,7.423c.564.389,1.116.786,1.657,1.184h0c48.4,35.777,5.371,110.792,30.367,122.391,15.684,7.278,38.839,23.622,48.853,50.157q.19.506.374,1.015.2.567.4,1.137c.118.342.233.686.344,1.031C780.066,512.856,780.676,531.526,773.157,553.651Z" transform="translate(6008.299 -8468.751)" fill="#fff"/>
    <g id="QA_engineers-pana" data-name="QA engineers-pana" transform="translate(6210.17 -8243.83)">
      <g id="freepik--background-complete--inject-8" transform="translate(73.633 100.255)">
        <path id="Path_139195" data-name="Path 139195" d="M109.328,197.535h-2.384l-5.206-7.255v-4.76s-3.687-.223-3.248,6.008-.042,4.649-.042,4.649-7.827,0-8.475.7c-.474.495-.7,8.266-.767,12.482a4.565,4.565,0,0,0,3.234,4.6,3.486,3.486,0,0,0,.843.111c1.951,0,11.925-1.589,11.925-1.589h4.119Z" transform="translate(-89.201 -143.498)" fill="#ebebeb"/>
        <path id="Path_139196" data-name="Path 139196" d="M125.465,200.88,123.994,217.2H119.91V201.215Z" transform="translate(-98.508 -148.153)" fill="#ebebeb"/>
        <path id="Path_139197" data-name="Path 139197" d="M651.96,140.136a25.153,25.153,0,0,0-.558-3.561,14.321,14.321,0,0,0-1.645-3.868,14.51,14.51,0,0,0-17.424-6.154,13.62,13.62,0,0,0-3.659,1.972,13.451,13.451,0,0,0-3.053,3.074,14.465,14.465,0,0,0,6.712,22.128,14.552,14.552,0,0,0,17.424-6.154A14.321,14.321,0,0,0,651.4,143.7a25.152,25.152,0,0,0,.558-3.568.949.949,0,0,1,0,.244v.7a6.6,6.6,0,0,1-.091,1.143,9.812,9.812,0,0,1-.272,1.533,13.894,13.894,0,0,1-1.6,3.966,14.566,14.566,0,0,1-3.743,4.251,14.782,14.782,0,0,1-6.272,2.823,14.956,14.956,0,0,1-7.841-.62,14.968,14.968,0,0,1-6.955-5.192,14.895,14.895,0,1,1,24.8-16.42,13.892,13.892,0,0,1,1.6,3.966,9.8,9.8,0,0,1,.272,1.533,6.6,6.6,0,0,1,.091,1.136c0,.286,0,.516,0,.7A.858.858,0,0,1,651.96,140.136Z" transform="translate(-250.752 -125.225)" fill="#e0e0e0"/>
        <path id="Path_139198" data-name="Path 139198" d="M683.23,175.141c-.077.118-5.283-3.234-11.618-7.485s-11.409-7.8-11.332-7.917,5.283,3.234,11.618,7.492S683.307,175.023,683.23,175.141Z" transform="translate(-262.271 -135.684)" fill="#e0e0e0"/>
        <rect id="Rectangle_32428" data-name="Rectangle 32428" width="59.477" height="76.685" transform="translate(39.955 167.715)" fill="#ebebeb"/>
        <rect id="Rectangle_32429" data-name="Rectangle 32429" width="59.477" height="76.685" transform="translate(20.385 167.715)" fill="#f5f5f5"/>
        <path id="Path_139199" data-name="Path 139199" d="M133.43,375.064V371.74h-5.61v3.324a2.788,2.788,0,0,0,2.446,2.788v2.892h-1.248c-.432,0-.795.258-.795.565h4.8c0-.307-.362-.565-.795-.565h-1.248v-2.892A2.788,2.788,0,0,0,133.43,375.064Z" transform="translate(-100.905 -199.934)" fill="#e0e0e0" fill-rule="evenodd"/>
        <path id="Path_139200" data-name="Path 139200" d="M147.857,374.841a4.091,4.091,0,0,0-3.959-3.1h0a4.091,4.091,0,0,0-3.959,3.1h3.582v5.22a.8.8,0,0,1-1.582,0h-.767a1.554,1.554,0,0,0,3.108,0v-5.22Z" transform="translate(-104.578 -199.933)" fill="#e0e0e0" fill-rule="evenodd"/>
        <path id="Path_139201" data-name="Path 139201" d="M197.407,418.441c0,.1-17.849.181-39.865.181s-39.872-.077-39.872-.181,17.849-.181,39.872-.181S197.407,418.344,197.407,418.441Z" transform="translate(-97.829 -214.032)" fill="#e0e0e0"/>
        <path id="Path_139202" data-name="Path 139202" d="M161.041,442.823c-.1,0-.181-17.256-.181-38.548s.084-38.555.181-38.555.181,17.256.181,38.555S161.139,442.823,161.041,442.823Z" transform="translate(-110.918 -198.109)" fill="#e0e0e0"/>
        <rect id="Rectangle_32430" data-name="Rectangle 32430" width="59.477" height="76.685" transform="translate(335.089 129.872)" fill="#ebebeb"/>
        <rect id="Rectangle_32431" data-name="Rectangle 32431" width="59.477" height="76.685" transform="translate(315.526 129.872)" fill="#f5f5f5"/>
        <path id="Path_139203" data-name="Path 139203" d="M556.907,320.761V317.43H551.29v3.331a2.788,2.788,0,0,0,2.453,2.788v2.9h-1.261c-.439,0-.794.251-.794.558h4.795c0-.307-.355-.558-.794-.558H554.44v-2.906a2.788,2.788,0,0,0,2.467-2.781Z" transform="translate(-229.241 -183.474)" fill="#e0e0e0" fill-rule="evenodd"/>
        <path id="Path_139204" data-name="Path 139204" d="M571.33,320.538a4.091,4.091,0,0,0-3.952-3.108h0a4.091,4.091,0,0,0-3.959,3.108H567v5.22a.8.8,0,0,1-1.582,0h-.76a1.554,1.554,0,0,0,3.108,0v-5.22Z" transform="translate(-232.917 -183.474)" fill="#e0e0e0" fill-rule="evenodd"/>
        <path id="Path_139205" data-name="Path 139205" d="M620.887,364.141c0,.1-17.856.181-39.865.181s-39.872-.084-39.872-.181,17.849-.181,39.872-.181S620.887,364.044,620.887,364.141Z" transform="translate(-226.168 -197.576)" fill="#e0e0e0"/>
        <path id="Path_139206" data-name="Path 139206" d="M584.521,388.52c-.1,0-.181-17.263-.181-38.548s.077-38.562.181-38.562.181,17.263.181,38.562S584.619,388.52,584.521,388.52Z" transform="translate(-239.257 -181.65)" fill="#e0e0e0"/>
        <rect id="Rectangle_32432" data-name="Rectangle 32432" width="49.964" height="49.964" transform="translate(276.086 156.327)" fill="#ebebeb"/>
        <rect id="Rectangle_32433" data-name="Rectangle 32433" width="49.964" height="49.964" transform="translate(256.3 156.327)" fill="#f5f5f5"/>
        <path id="Path_139207" data-name="Path 139207" d="M472.355,359.675h1.422l-1.22-2.244-1.227-2.251-1.227,2.251-1.227,2.244h1.429v5.652H466.8v-5.652h1.429L467,357.431l-1.227-2.251-1.227,2.251-1.22,2.244h1.422v5.652h-.829v.781h9.262v-.781h-.829Z" transform="translate(-202.584 -194.915)" fill="#e0e0e0" fill-rule="evenodd"/>
        <path id="Path_139208" data-name="Path 139208" d="M493.508,399.581c-.1,0-.188-11.081-.188-24.755s.084-24.755.188-24.755.181,11.081.181,24.755S493.606,399.581,493.508,399.581Z" transform="translate(-211.673 -193.366)" fill="#e0e0e0"/>
        <path id="Path_139209" data-name="Path 139209" d="M526.971,385.2c0,.1-15.821.181-35.342.181s-35.349-.084-35.349-.181,15.835-.2,35.349-.2S526.971,385.091,526.971,385.2Z" transform="translate(-200.447 -203.952)" fill="#e0e0e0"/>
        <path id="Path_139210" data-name="Path 139210" d="M551.788,459.98H255.713a19.473,19.473,0,0,1-19.473-19.466h0A19.473,19.473,0,0,1,255.713,421H551.788A19.473,19.473,0,0,1,571.3,440.514h0A19.514,19.514,0,0,1,551.788,459.98Z" transform="translate(-133.763 -214.862)" fill="#e0e0e0" fill-rule="evenodd"/>
        <path id="Path_139211" data-name="Path 139211" d="M557.327,455.225H259.58A11.04,11.04,0,0,1,248.54,444.2h0a11.04,11.04,0,0,1,11.04-11.04H557.327a11.04,11.04,0,0,1,11.04,11.04h0a11.04,11.04,0,0,1-11.04,11.026Z" transform="translate(-137.49 -218.547)" fill="#ebebeb" fill-rule="evenodd"/>
        <path id="Path_139212" data-name="Path 139212" d="M271.453,445.016a17.412,17.412,0,0,0-.355-2.2,9.012,9.012,0,0,0-3.3-4.879,8.9,8.9,0,0,0-3.757-1.652,9.061,9.061,0,0,0-4.676.4,8.957,8.957,0,0,0-4.126,3.108,8.844,8.844,0,0,0,0,10.5,8.46,8.46,0,0,0,1.875,1.889,8.209,8.209,0,0,0,2.251,1.213,8.907,8.907,0,0,0,4.676.4,8.733,8.733,0,0,0,3.757-1.652,9.011,9.011,0,0,0,3.3-4.879,17.172,17.172,0,0,0,.355-2.2,3.347,3.347,0,0,1,0,.578,3.878,3.878,0,0,1-.056.7,6.2,6.2,0,0,1-.167.948,9,9,0,0,1-3.283,5.074,9.117,9.117,0,0,1-3.861,1.749,9.27,9.27,0,0,1-4.879-.383,8.836,8.836,0,0,1-2.342-1.247,8.669,8.669,0,0,1-1.951-1.958,9.172,9.172,0,0,1,0-10.928,8.532,8.532,0,0,1,1.958-1.951,8.72,8.72,0,0,1,2.335-1.254,9.242,9.242,0,0,1,4.844-.376,9.13,9.13,0,0,1,7.151,6.816,6.352,6.352,0,0,1,.167.948,3.967,3.967,0,0,1,.056.7,3.3,3.3,0,0,1,.028.537Z" transform="translate(-138.875 -219.364)" fill="#e0e0e0"/>
        <circle id="Ellipse_4239" data-name="Ellipse 4239" cx="3.276" cy="3.276" r="3.276" transform="translate(120.236 222.363)" fill="#e0e0e0"/>
        <path id="Path_139213" data-name="Path 139213" d="M695.463,445a17.4,17.4,0,0,0-.355-2.2,8.963,8.963,0,0,0-11.743-6.168,8.3,8.3,0,0,0-2.244,1.22,8.2,8.2,0,0,0-1.882,1.889,8.872,8.872,0,0,0,0,10.5,8.918,8.918,0,0,0,8.8,3.5,8.8,8.8,0,0,0,3.764-1.652,9.061,9.061,0,0,0,3.3-4.879,17.166,17.166,0,0,0,.355-2.2,7.042,7.042,0,0,1-.049,1.282,6.206,6.206,0,0,1-.167.948,9.163,9.163,0,0,1-12.029,6.426,8.733,8.733,0,0,1-2.342-1.247,8.559,8.559,0,0,1-1.958-1.958,9.2,9.2,0,0,1,0-10.928,9.221,9.221,0,0,1,9.179-3.582,9.13,9.13,0,0,1,7.151,6.816,6.338,6.338,0,0,1,.167.948,4.768,4.768,0,0,1,.056.7A4.54,4.54,0,0,1,695.463,445Z" transform="translate(-267.374 -219.344)" fill="#e0e0e0"/>
        <circle id="Ellipse_4240" data-name="Ellipse 4240" cx="3.276" cy="3.276" r="3.276" transform="translate(415.746 222.363)" fill="#e0e0e0"/>
        <path id="Path_139214" data-name="Path 139214" d="M562.767,435.761c0,.1-66.349.188-148.163.188s-148.184-.084-148.184-.188,66.335-.181,148.184-.181S562.767,435.664,562.767,435.761Z" transform="translate(-142.909 -219.281)" fill="#e0e0e0"/>
        <path id="Path_139215" data-name="Path 139215" d="M563.3,461.921c0,.1-66.07.181-147.55.181s-147.564-.084-147.564-.181,66.056-.181,147.564-.181S563.3,461.81,563.3,461.921Z" transform="translate(-143.445 -227.209)" fill="#e0e0e0"/>
      </g>
      <g id="freepik--Floor--inject-8" transform="translate(37.83 345.554)">
        <path id="Path_139216" data-name="Path 139216" d="M507.806,477.371c0,.1-105.238.181-234.974.181s-235-.084-235-.181,105.2-.181,235-.181S507.806,477.267,507.806,477.371Z" transform="translate(-37.83 -477.19)" fill="#263238"/>
      </g>
      <g id="freepik--List--inject-8" transform="translate(124.139 42.83)">
        <rect id="Rectangle_32434" data-name="Rectangle 32434" width="142.323" height="197.061" rx="6.36" transform="translate(0 17.263)" fill="#17c878"/>
        <g id="Group_95844" data-name="Group 95844" transform="translate(0 17.263)" opacity="0.3">
          <rect id="Rectangle_32435" data-name="Rectangle 32435" width="142.323" height="197.061" rx="6.36"/>
        </g>
        <rect id="Rectangle_32436" data-name="Rectangle 32436" width="122.348" height="179.623" transform="translate(9.987 27.801)" fill="#e0e0e0"/>
        <rect id="Rectangle_32437" data-name="Rectangle 32437" width="122.348" height="176.194" transform="translate(8.301 26.365)" fill="#ebebeb"/>
        <path id="Path_139217" data-name="Path 139217" d="M295.866,256.768c0-1.471-.07-72.231-.167-176.187l.167.16H173.531l.181-.181c0,66.161,0,127.283-.035,176.187l-.146-.146,122.355.146-122.355.146h-.146v-.146c0-48.9,0-110.026-.035-176.187V80.4h122.7v.167C295.928,184.537,295.866,255.3,295.866,256.768Z" transform="translate(-165.21 -54.216)" fill="#263238"/>
        <path id="Path_139218" data-name="Path 139218" d="M286.86,319.625s31.439-11.967,43.113-31.815a32.666,32.666,0,0,1-25.125,5.227S296.527,315.249,286.86,319.625Z" transform="translate(-199.61 -117.073)" fill="#e0e0e0"/>
        <path id="Path_139219" data-name="Path 139219" d="M286.857,319.3l.523-.293a14.056,14.056,0,0,0,1.505-.955,25.207,25.207,0,0,0,4.7-4.711c3.554-4.509,7.576-11.7,11.1-20.685l.056-.132h.132a32.136,32.136,0,0,0,11.381.23c1-.125,1.972-.39,2.976-.6a20.61,20.61,0,0,0,2.955-.906,33.238,33.238,0,0,0,5.75-2.669,20.308,20.308,0,0,0,1.917-1.261l.753-.578-.488.808a49.481,49.481,0,0,1-6.753,8.747,74.466,74.466,0,0,1-7.666,6.83,109.586,109.586,0,0,1-14.5,9.437c-4.307,2.363-7.91,4.035-10.412,5.13-1.254.551-2.244.948-2.913,1.206l-.76.293a1.5,1.5,0,0,1-.272.084,2.15,2.15,0,0,1,.258-.118l.753-.321c.655-.286,1.631-.7,2.878-1.268,2.481-1.136,6.063-2.844,10.35-5.227a111.5,111.5,0,0,0,14.441-9.444,73.209,73.209,0,0,0,7.6-6.816,49.576,49.576,0,0,0,6.7-8.684l.265.23a22.554,22.554,0,0,1-1.951,1.3,33.883,33.883,0,0,1-5.812,2.69c-.99.369-2,.641-3,.92a19.67,19.67,0,0,1-3.011.6,32.415,32.415,0,0,1-11.493-.258l.181-.1c-3.561,9.011-7.666,16.2-11.256,20.692a24.162,24.162,0,0,1-4.8,4.676A11.3,11.3,0,0,1,286.857,319.3Z" transform="translate(-199.607 -116.749)" fill="#263238"/>
        <rect id="Rectangle_32438" data-name="Rectangle 32438" width="14.956" height="14.956" rx="3.42" transform="translate(22.616 74.378)" fill="#17c878"/>
        <path id="Path_139220" data-name="Path 139220" d="M202.446,160.785h0a.348.348,0,0,1-.251-.125L200.1,158.22a.355.355,0,0,1,.042-.495.341.341,0,0,1,.488,0l1.847,2.161,4.879-4.969a.355.355,0,0,1,.495,0,.348.348,0,0,1,0,.495l-5.116,5.241A.383.383,0,0,1,202.446,160.785Z" transform="translate(-173.293 -76.768)" fill="#fff"/>
        <path id="Path_139221" data-name="Path 139221" d="M297.748,152.081c0,.1-15.918.181-35.544.181s-35.544-.077-35.544-.181,15.911-.181,35.544-.181S297.748,151.97,297.748,152.081Z" transform="translate(-181.366 -75.884)" fill="#263238"/>
        <path id="Path_139222" data-name="Path 139222" d="M256.595,167.781a7.952,7.952,0,0,1-1.178.07l-3.213.056c-2.7.035-6.454.056-10.587.056s-7.882,0-10.594-.056l-3.213-.056a7.906,7.906,0,0,1-1.171-.07,6.847,6.847,0,0,1,1.171-.07l3.213-.063c2.711,0,6.454-.049,10.594-.049s7.882,0,10.587.049l3.213.063A6.892,6.892,0,0,1,256.595,167.781Z" transform="translate(-181.36 -80.642)" fill="#263238"/>
        <path id="Path_139223" data-name="Path 139223" d="M297.748,159.041c0,.1-15.918.181-35.544.181s-35.544-.084-35.544-.181,15.911-.181,35.544-.181S297.748,158.958,297.748,159.041Z" transform="translate(-181.366 -77.994)" fill="#263238"/>
        <rect id="Rectangle_32439" data-name="Rectangle 32439" width="14.956" height="14.956" rx="3.42" transform="translate(22.616 100.632)" fill="#17c878"/>
        <path id="Path_139224" data-name="Path 139224" d="M202.445,198.413h0a.321.321,0,0,1-.251-.118l-2.091-2.446a.348.348,0,1,1,.53-.453l1.847,2.154,4.879-4.962a.348.348,0,1,1,.495.488l-5.116,5.234a.355.355,0,0,1-.293.1Z" transform="translate(-173.292 -88.177)" fill="#fff"/>
        <path id="Path_139225" data-name="Path 139225" d="M297.748,189.751c0,.1-15.918.181-35.544.181s-35.544-.084-35.544-.181,15.911-.181,35.544-.181S297.748,189.654,297.748,189.751Z" transform="translate(-181.366 -87.301)" fill="#263238"/>
        <path id="Path_139226" data-name="Path 139226" d="M256.595,205.451a7.954,7.954,0,0,1-1.178.07l-3.213.056c-2.7,0-6.454.056-10.587.056s-7.882,0-10.594-.056l-3.213-.056a7.91,7.91,0,0,1-1.171-.07,7.19,7.19,0,0,1,1.171-.077l3.213-.056c2.711-.035,6.454-.049,10.594-.049s7.882,0,10.587.049l3.213.056A7.242,7.242,0,0,1,256.595,205.451Z" transform="translate(-181.36 -92.059)" fill="#263238"/>
        <path id="Path_139227" data-name="Path 139227" d="M297.748,196.711c0,.1-15.918.181-35.544.181s-35.544-.084-35.544-.181,15.911-.181,35.544-.181S297.748,196.607,297.748,196.711Z" transform="translate(-181.366 -89.41)" fill="#263238"/>
        <rect id="Rectangle_32440" data-name="Rectangle 32440" width="14.956" height="14.956" rx="3.42" transform="translate(22.616 126.885)" fill="#17c878"/>
        <path id="Path_139228" data-name="Path 139228" d="M202.445,236.123h0a.342.342,0,0,1-.251-.118l-2.091-2.446a.348.348,0,1,1,.53-.453l1.847,2.154,4.879-4.962a.348.348,0,1,1,.495.488l-5.116,5.234A.355.355,0,0,1,202.445,236.123Z" transform="translate(-173.292 -99.606)" fill="#fff"/>
        <path id="Path_139229" data-name="Path 139229" d="M297.748,227.421c0,.1-15.918.181-35.544.181s-35.544-.084-35.544-.181,15.911-.181,35.544-.181S297.748,227.317,297.748,227.421Z" transform="translate(-181.366 -98.717)" fill="#263238"/>
        <path id="Path_139230" data-name="Path 139230" d="M256.595,243.111a6.892,6.892,0,0,1-1.178.07l-3.213.063c-2.7,0-6.454.049-10.587.049s-7.882,0-10.594-.049l-3.213-.063a6.842,6.842,0,0,1-1.171-.07,7.908,7.908,0,0,1,1.171-.07l3.213-.056c2.711,0,6.454-.056,10.594-.056s7.882,0,10.587.056l3.213.056a7.956,7.956,0,0,1,1.178.07Z" transform="translate(-181.36 -103.472)" fill="#263238"/>
        <path id="Path_139231" data-name="Path 139231" d="M297.748,234.371c0,.1-15.918.181-35.544.181s-35.544-.077-35.544-.181,15.911-.181,35.544-.181S297.748,234.274,297.748,234.371Z" transform="translate(-181.366 -100.823)" fill="#263238"/>
        <rect id="Rectangle_32441" data-name="Rectangle 32441" width="14.956" height="14.956" rx="3.42" transform="translate(22.616 153.132)" fill="#17c878"/>
        <path id="Path_139232" data-name="Path 139232" d="M202.446,273.8h0a.348.348,0,0,1-.251-.125l-2.091-2.439a.355.355,0,0,1,.042-.495.341.341,0,0,1,.488.042l1.847,2.154,4.879-4.969a.349.349,0,0,1,.495,0,.342.342,0,0,1,0,.488l-5.116,5.241A.383.383,0,0,1,202.446,273.8Z" transform="translate(-173.293 -111.028)" fill="#fff"/>
        <path id="Path_139233" data-name="Path 139233" d="M297.748,265.088c0,.1-15.918.181-35.544.181s-35.544-.084-35.544-.181,15.911-.188,35.544-.188S297.748,264.97,297.748,265.088Z" transform="translate(-181.366 -110.13)" fill="#263238"/>
        <path id="Path_139234" data-name="Path 139234" d="M256.595,280.781a6.9,6.9,0,0,1-1.178.07l-3.213.056c-2.7,0-6.454.056-10.587.056s-7.882,0-10.594-.056l-3.213-.056a6.843,6.843,0,0,1-1.171-.07,6.843,6.843,0,0,1,1.171-.07l3.213-.056c2.711-.035,6.454-.056,10.594-.056s7.882,0,10.587.056l3.213.056A6.894,6.894,0,0,1,256.595,280.781Z" transform="translate(-181.36 -114.888)" fill="#263238"/>
        <path id="Path_139235" data-name="Path 139235" d="M297.748,272.041c0,.1-15.918.181-35.544.181s-35.544-.084-35.544-.181,15.911-.181,35.544-.181S297.748,271.958,297.748,272.041Z" transform="translate(-181.366 -112.239)" fill="#263238"/>
        <path id="Path_139250" data-name="Path 139250" d="M199,64.92v9.221a9.688,9.688,0,0,0,9.688,9.694h67.673a9.694,9.694,0,0,0,9.694-9.694V64.976Z" transform="translate(-172.983 -49.525)" fill="#263238"/>
        <path id="Path_139251" data-name="Path 139251" d="M257.42,60.951a9.06,9.06,0,1,1,9.06-9.06A9.06,9.06,0,0,1,257.42,60.951Zm0-14.692A5.576,5.576,0,1,0,263,51.835,5.576,5.576,0,0,0,257.42,46.259Z" transform="translate(-187.942 -42.83)" fill="#263238"/>
      </g>
      <g id="freepik--character-2--inject-8" transform="translate(368.927 102.509)">
        <path id="Path_139252" data-name="Path 139252" d="M616.055,444l3.624,15.416,7.172,12.3a1.77,1.77,0,0,1-.746,2.481h0a1.743,1.743,0,0,1-1.624,0c-3.22-1.735-15.026-8.182-15.263-9.423-.279-1.443-4.948-17.667-4.948-17.667Z" transform="translate(-540.59 -224.087)" fill="#17c878"/>
        <g id="Group_95845" data-name="Group 95845" transform="translate(68.314 239.553)" opacity="0.6">
          <path id="Path_139253" data-name="Path 139253" d="M628.121,482.76l-17.2-10.58.2.7a2.676,2.676,0,0,0,1.066,1.5c1.394.948,5.339,3.485,14.266,8.363a1.778,1.778,0,0,0,1.673,0Z" transform="translate(-610.92 -472.18)" fill="#fff"/>
        </g>
        <g id="Group_95846" data-name="Group 95846" transform="translate(68.917 233.187)" opacity="0.6">
          <path id="Path_139254" data-name="Path 139254" d="M613.112,463.09a1.08,1.08,0,0,1,.662,1.275,1.031,1.031,0,0,1-1.254.655,1.122,1.122,0,0,1-.7-1.345,1.066,1.066,0,0,1,1.394-.544" transform="translate(-611.784 -463.045)" fill="#fff"/>
        </g>
        <path id="Path_139255" data-name="Path 139255" d="M627.222,477.255a5.452,5.452,0,0,1,1.1-1.7,5.576,5.576,0,0,1,1.819-.9c0-.042-.244-.112-.648-.063a2.823,2.823,0,0,0-1.394.7,2.787,2.787,0,0,0-.836,1.331C627.138,477,627.18,477.255,627.222,477.255Z" transform="translate(-547.533 -233.353)" fill="#263238"/>
        <path id="Path_139256" data-name="Path 139256" d="M629.822,480.324c.1.056.488-.634,1.275-1.122a15.185,15.185,0,0,1,1.575-.7,1.972,1.972,0,0,0-1.777.341C630,479.439,629.724,480.3,629.822,480.324Z" transform="translate(-548.328 -234.519)" fill="#263238"/>
        <path id="Path_139257" data-name="Path 139257" d="M622.927,473.829a19.235,19.235,0,0,1,1.861-1.868A18.9,18.9,0,0,1,627.1,470.7a4.879,4.879,0,0,0-4.182,3.129Z" transform="translate(-546.242 -232.178)" fill="#263238"/>
        <path id="Path_139258" data-name="Path 139258" d="M620.48,467.35c.07.091.885-.551,2.091-.927s2.216-.348,2.223-.46a4.426,4.426,0,0,0-4.293,1.394Z" transform="translate(-545.503 -230.71)" fill="#263238"/>
        <path id="Path_139259" data-name="Path 139259" d="M618.518,460.347a5.618,5.618,0,0,1,4.5-1.08c0-.042-.223-.2-.7-.321a3.854,3.854,0,0,0-3.373.815C618.622,460.075,618.483,460.347,618.518,460.347Z" transform="translate(-544.907 -228.585)" fill="#263238"/>
        <path id="Path_139260" data-name="Path 139260" d="M619.865,456.8a1.582,1.582,0,0,0-.153-.634,4.606,4.606,0,0,0-.955-1.512,2.021,2.021,0,0,0-1.094-.7.7.7,0,0,0-.7.369,1.157,1.157,0,0,0-.049.822,2.509,2.509,0,0,0,2.732,1.652,2.906,2.906,0,0,0,2.342-2.23.975.975,0,0,0-.174-.815.7.7,0,0,0-.8-.167,2.46,2.46,0,0,0-.941.878,5.093,5.093,0,0,0-.781,1.61,1.567,1.567,0,0,0-.1.648,8.041,8.041,0,0,1,1.087-2.091,2.267,2.267,0,0,1,.843-.739.356.356,0,0,1,.432.084.7.7,0,0,1,.091.544,2.613,2.613,0,0,1-2.056,1.91,2.174,2.174,0,0,1-2.342-1.394.815.815,0,0,1,0-.578.376.376,0,0,1,.4-.209,1.805,1.805,0,0,1,.934.572,6.768,6.768,0,0,1,1.282,1.979Z" transform="translate(-544.407 -226.972)" fill="#263238"/>
        <g id="Group_95847" data-name="Group 95847" transform="translate(64.209 222.91)" opacity="0.3">
          <path id="Path_139261" data-name="Path 139261" d="M605.03,450.245l.655,2.307,11.695-2.572-.39-1.68Z" transform="translate(-605.03 -448.3)"/>
        </g>
        <path id="Path_139262" data-name="Path 139262" d="M549.472,449.646l.808,12.315s-12.245,4.962-12.28,7.255l23.94-.7-.481-19.25Z" transform="translate(-520.507 -225.684)" fill="#17c878"/>
        <g id="Group_95848" data-name="Group 95848" transform="translate(36.005 234.983)" opacity="0.6">
          <path id="Path_139263" data-name="Path 139263" d="M565.7,465.656a.983.983,0,0,1,.7,1.094.941.941,0,0,1-1.08.7,1.038,1.038,0,0,1-.746-1.164.983.983,0,0,1,1.206-.62" transform="translate(-564.561 -465.622)" fill="#fff"/>
        </g>
        <g id="Group_95849" data-name="Group 95849" transform="translate(17.431 240.891)" opacity="0.6">
          <path id="Path_139264" data-name="Path 139264" d="M561.878,476.024l-.049-1.924-23,1.394s-1.052.495-.906,1.241Z" transform="translate(-537.91 -474.1)" fill="#fff"/>
        </g>
        <path id="Path_139265" data-name="Path 139265" d="M555.059,467.265c0,.118.592.153,1.185.516s.906.836,1.011.788-.091-.7-.809-1.143S555.017,467.161,555.059,467.265Z" transform="translate(-525.676 -231.099)" fill="#263238"/>
        <path id="Path_139266" data-name="Path 139266" d="M551.5,468.9c0,.112.495.3.906.781s.537,1,.655,1,.174-.7-.349-1.268S551.5,468.788,551.5,468.9Z" transform="translate(-524.598 -231.618)" fill="#263238"/>
        <path id="Path_139267" data-name="Path 139267" d="M549.158,472.426c.1,0,.251-.564-.07-1.2s-.871-.864-.92-.767.3.432.558.955S549.039,472.419,549.158,472.426Z" transform="translate(-523.587 -232.099)" fill="#263238"/>
        <path id="Path_139268" data-name="Path 139268" d="M555.238,463.063c.056.112.586-.07,1.248-.042s1.185.216,1.241.112-.446-.5-1.227-.523S555.183,462.979,555.238,463.063Z" transform="translate(-525.73 -229.726)" fill="#263238"/>
        <g id="Group_95850" data-name="Group 95850" transform="translate(29.014 224.067)" opacity="0.3">
          <path id="Path_139269" data-name="Path 139269" d="M554.53,450.295l.139,2.188,11.834-.341V449.96Z" transform="translate(-554.53 -449.96)"/>
        </g>
        <path id="Path_139270" data-name="Path 139270" d="M555.07,458.814a2.189,2.189,0,0,0,1.2-.042,5.137,5.137,0,0,0,1.247-.418,5.606,5.606,0,0,0,.7-.39,1.393,1.393,0,0,0,.355-.293.509.509,0,0,0,.035-.62.648.648,0,0,0-.523-.251,1.394,1.394,0,0,0-.446.077,4.381,4.381,0,0,0-.739.272,4.433,4.433,0,0,0-1.087.76,2.765,2.765,0,0,0-.7,1c0,.021.314-.335.871-.781a4.991,4.991,0,0,1,1.045-.634,5.227,5.227,0,0,1,.7-.23c.251-.077.467-.084.537,0s0,.056,0,.132a1.439,1.439,0,0,1-.258.216,6.054,6.054,0,0,1-.627.383,6.675,6.675,0,0,1-1.143.474,9.432,9.432,0,0,0-1.164.349Z" transform="translate(-525.68 -227.966)" fill="#263238"/>
        <path id="Path_139271" data-name="Path 139271" d="M554.578,458.3a1.952,1.952,0,0,0,.279-1.171,3.7,3.7,0,0,0-.2-1.3,3.646,3.646,0,0,0-.328-.7.99.99,0,0,0-.781-.585.571.571,0,0,0-.495.348,1.7,1.7,0,0,0-.1.446,2.834,2.834,0,0,0,0,.808,2.787,2.787,0,0,0,.551,1.22c.488.606.976.732.99.7a4.848,4.848,0,0,1-.76-.857,2.843,2.843,0,0,1-.411-1.115,2.548,2.548,0,0,1,0-.7c.035-.258.119-.467.216-.446a.853.853,0,0,1,.432.383,3.679,3.679,0,0,1,.321.641,4.355,4.355,0,0,1,.265,1.192C554.627,457.837,554.516,458.283,554.578,458.3Z" transform="translate(-525.028 -227.281)" fill="#263238"/>
        <path id="Path_139272" data-name="Path 139272" d="M594.376,162.46a2.174,2.174,0,0,0-.286,2.711,7.36,7.36,0,0,0,2.091,2.091,4.927,4.927,0,0,1,1.9,2.23c.572,1.742-.7,3.722,0,5.422.585,1.478,2.4,2.091,3.213,3.485s.369,3.213-.23,4.739-1.338,3.122-1.024,4.732a8.049,8.049,0,0,1,.565,2.634c-.146,1.3-1.457,2.091-2.7,2.558a12.5,12.5,0,0,1-6.342.488,5.672,5.672,0,0,1-3.924-2.265,7.306,7.306,0,0,1-.7-3.882,113.892,113.892,0,0,1,2.857-23" transform="translate(-535.338 -138.764)" fill="#263238"/>
        <path id="Path_139273" data-name="Path 139273" d="M535.519,223.622l7.395-17.612s5.15-16.03,13.353-15.772l1.979,14.427-11.367,24.47-12.19-5.241" transform="translate(-519.504 -147.182)" fill="#e0e0e0"/>
        <path id="Path_139274" data-name="Path 139274" d="M549.806,251.79s-13.36,26.351-13.137,34.6c.125,4.586,7.13,104.061,7.13,104.061h20.156l-3.729-103.761,21.145,104.479,17.849-2.9L584.988,276.538s-2.439-15.207-7.457-21.445Z" transform="translate(-520.102 -165.836)" fill="#263238"/>
        <path id="Path_139275" data-name="Path 139275" d="M569.85,286.22a41.562,41.562,0,0,1,.383,5.443,40.252,40.252,0,0,1,0,5.457,41.582,41.582,0,0,1-.383-5.443,40.312,40.312,0,0,1,0-5.457Z" transform="translate(-530.131 -176.27)" fill="#455a64"/>
        <path id="Path_139276" data-name="Path 139276" d="M602,297.21a1.965,1.965,0,0,1-.627.146,9.958,9.958,0,0,1-1.763.063,10.726,10.726,0,0,1-9.221-6.272,9.761,9.761,0,0,1-.585-1.666,2.168,2.168,0,0,1-.1-.641c.07,0,.258.885.913,2.2a11.151,11.151,0,0,0,9,6.133C601.063,297.315,602,297.148,602,297.21Z" transform="translate(-536.178 -177.064)" fill="#455a64"/>
        <path id="Path_139277" data-name="Path 139277" d="M544.8,287.1a5.958,5.958,0,0,1-.7,1.617,16.65,16.65,0,0,1-2.523,3.429,16.276,16.276,0,0,1-3.324,2.669,5.777,5.777,0,0,1-1.582.767A21.932,21.932,0,0,0,544.8,287.1Z" transform="translate(-520.104 -176.537)" fill="#455a64"/>
        <path id="Path_139278" data-name="Path 139278" d="M570.59,406.2a1.3,1.3,0,0,1-.035-.279c0-.2-.042-.467-.07-.815-.056-.739-.132-1.791-.23-3.136-.181-2.739-.446-6.677-.767-11.534-.613-9.757-1.464-23.215-2.4-38.067s-1.735-28.338-2.272-38.088a35.219,35.219,0,0,1,1.22-11.479,8.111,8.111,0,0,1,1.45-2.788,3.069,3.069,0,0,1,.586-.572l.223-.174a1.4,1.4,0,0,1-.2.2,3.307,3.307,0,0,0-.551.585,8.49,8.49,0,0,0-1.394,2.788,36.268,36.268,0,0,0-1.1,11.43c.613,9.757,1.457,23.208,2.384,38.067s1.7,28.317,2.293,38.081c.272,4.879.495,8.8.648,11.541.07,1.345.125,2.4.16,3.143a5.367,5.367,0,0,0,.035.815,1.4,1.4,0,0,1,.021.279Z" transform="translate(-528.627 -180.225)" fill="#455a64"/>
        <path id="Path_139279" data-name="Path 139279" d="M618.6,404.893c-.1,0-3.394-23.229-7.36-51.915s-7.1-51.978-7-51.978,3.394,23.222,7.36,51.915S618.708,404.879,618.6,404.893Z" transform="translate(-540.58 -180.75)" fill="#455a64"/>
        <path id="Path_139280" data-name="Path 139280" d="M583.025,233.55l3.8-19.222,2.934-20.671a19.159,19.159,0,0,0-9.381-4.467l-17.612.732-6.635,15.57.7,32.178Z" transform="translate(-526.001 -146.865)" fill="#e0e0e0"/>
        <path id="Path_139281" data-name="Path 139281" d="M585.844,189.66s-8.405,18.671-12.845,19.9c-1.986,7.91-3.75,49.748-3.75,49.748l27.7-1.115-8.189-27.181,3.31-13.6s-3.6-21.529.258-25.25A12.518,12.518,0,0,0,585.844,189.66Z" transform="translate(-529.977 -147.007)" fill="#17c878"/>
        <path id="Path_139282" data-name="Path 139282" d="M559.689,189.168a71.465,71.465,0,0,0-.7,11.074,13.8,13.8,0,0,0,3.757,8.928h0l-3.68,49.978-19.619-2.857s4.049-12.5,7.276-17.946c0,0,1.533-2.586,4.349-7.478,0,0-1.965-15.953-2.035-18.2,0-.85,5.081-21.828,5.081-21.828a7.346,7.346,0,0,1,5.569-1.666Z" transform="translate(-520.946 -146.843)" fill="#17c878"/>
        <path id="Path_139283" data-name="Path 139283" d="M559.163,152.764c-2.516-.662-4.063-1.554-4.063-2.544,0-2.035,6.579-3.68,14.692-3.68s14.685,1.645,14.685,3.68c0,.983-1.526,1.875-4.015,2.537" transform="translate(-525.689 -133.939)" fill="#17c878"/>
        <g id="Group_95851" data-name="Group 95851" transform="translate(31.277 13.235)" opacity="0.4">
          <path id="Path_139284" data-name="Path 139284" d="M561.375,152.97c-2.23-.585-3.659-1.394-3.6-2.251.153-2.432,5.826-3.269,13.019-3.269s13.012,1.464,13.012,3.269c0,.864-1.352,1.659-3.561,2.244" transform="translate(-557.777 -147.45)"/>
        </g>
        <path id="Path_139285" data-name="Path 139285" d="M590.709,152.47c-.307,1.052.453,2.091,1.324,2.788a14.437,14.437,0,0,1,2.593,1.972,4.321,4.321,0,0,1,.376,4.244,9.708,9.708,0,0,1-2.788,3.485c-.85.739-1.958,1.464-3.025,1.094" transform="translate(-536.02 -135.736)" fill="#263238"/>
        <path id="Path_139286" data-name="Path 139286" d="M596.589,193.26c-.348,0-1.638,3.283-2.6,6.272a19.772,19.772,0,0,0,1.61,15.911l6.1,10.719-18.357,6.161,2.69,8.593,25.689-6.893a7.464,7.464,0,0,0,5.116-4.725h0a7.45,7.45,0,0,0-.578-6.272l-13.4-23S598.512,193.253,596.589,193.26Z" transform="translate(-534.247 -148.098)" fill="#e0e0e0"/>
        <path id="Path_139287" data-name="Path 139287" d="M582.446,150.081a9.924,9.924,0,0,0-10.454-9.757,10.126,10.126,0,0,0-9.423,10.224,110.193,110.193,0,0,0,.327,11.033c.795,5.032,4.035,6.565,5.318,6.969a6.483,6.483,0,0,0,1.394.139h0v.035l-.272,5.952c.042,3.868,2.655,6.969,6.523,6.969s6.433-3.352,6.454-7.234Z" transform="translate(-527.953 -132.051)" fill="#ffbe9d"/>
        <path id="Path_139288" data-name="Path 139288" d="M565.28,158.406a.809.809,0,0,0,.781.815.774.774,0,0,0,.836-.7.8.8,0,0,0-.781-.815A.774.774,0,0,0,565.28,158.406Z" transform="translate(-528.774 -137.323)" fill="#263238"/>
        <path id="Path_139289" data-name="Path 139289" d="M564.525,156.31c.1.112.7-.348,1.589-.342s1.512.439,1.6.328-.056-.237-.335-.439a2.223,2.223,0,0,0-1.282-.4,2.091,2.091,0,0,0-1.261.411C564.566,156.073,564.476,156.268,564.525,156.31Z" transform="translate(-528.541 -136.643)" fill="#263238"/>
        <path id="Path_139290" data-name="Path 139290" d="M577.52,158.406a.809.809,0,0,0,.781.815.774.774,0,0,0,.836-.7.809.809,0,0,0-.781-.815A.774.774,0,0,0,577.52,158.406Z" transform="translate(-532.484 -137.323)" fill="#263238"/>
        <path id="Path_139291" data-name="Path 139291" d="M576.825,156.55c.1.1.7-.348,1.589-.348s1.512.439,1.61.335-.056-.237-.335-.446a2.216,2.216,0,0,0-1.289-.39,2.132,2.132,0,0,0-1.261.4C576.866,156.313,576.776,156.5,576.825,156.55Z" transform="translate(-532.269 -136.715)" fill="#263238"/>
        <path id="Path_139292" data-name="Path 139292" d="M571.338,163.024a5.631,5.631,0,0,0-1.394-.258c-.223,0-.432-.063-.474-.216a1.15,1.15,0,0,1,.153-.7l.655-1.694a29.384,29.384,0,0,0,1.477-4.44,30.172,30.172,0,0,0-1.833,4.307c-.216.6-.425,1.164-.627,1.708a1.3,1.3,0,0,0-.118.871.551.551,0,0,0,.369.328,1.59,1.59,0,0,0,.376.056,5.987,5.987,0,0,0,1.415.035Z" transform="translate(-529.947 -136.721)" fill="#263238"/>
        <path id="Path_139293" data-name="Path 139293" d="M572.661,180.018a13.918,13.918,0,0,0,7.576-2.258s-1.324,4.453-7.666,3.861Z" transform="translate(-530.983 -143.401)" fill="#eb996e"/>
        <path id="Path_139294" data-name="Path 139294" d="M572.776,168.961a1.554,1.554,0,0,1,1.394-.585,1.429,1.429,0,0,1,.99.53.906.906,0,0,1,.07,1.038,1.045,1.045,0,0,1-1.143.293,3.4,3.4,0,0,1-1.115-.7.956.956,0,0,1-.244-.258.272.272,0,0,1,0-.321" transform="translate(-531.015 -140.554)" fill="#eb996e"/>
        <path id="Path_139295" data-name="Path 139295" d="M574.794,167.07c-.139,0-.139.934-.948,1.61s-1.819.565-1.826.7.223.181.648.2a2.363,2.363,0,0,0,1.526-.53,2.091,2.091,0,0,0,.739-1.352C574.947,167.293,574.843,167.063,574.794,167.07Z" transform="translate(-530.817 -140.161)" fill="#263238"/>
        <path id="Path_139296" data-name="Path 139296" d="M576.268,154.443c.084.237.955.125,1.979.244s1.854.4,1.986.188c.063-.1-.084-.321-.418-.551a3.3,3.3,0,0,0-1.471-.516,3.248,3.248,0,0,0-1.547.181C576.422,154.143,576.233,154.325,576.268,154.443Z" transform="translate(-532.103 -136.134)" fill="#263238"/>
        <path id="Path_139297" data-name="Path 139297" d="M564.988,153.745c.153.2.753,0,1.477,0s1.338.132,1.478-.07-.035-.3-.307-.488a2.133,2.133,0,0,0-2.377.07C564.988,153.445,564.911,153.654,564.988,153.745Z" transform="translate(-528.677 -135.854)" fill="#263238"/>
        <path id="Path_139298" data-name="Path 139298" d="M577.9,166.477a.115.115,0,1,1-.042.028" transform="translate(-532.577 -139.979)" fill="#263238"/>
        <path id="Path_139299" data-name="Path 139299" d="M570.58,148.655a5.575,5.575,0,0,0,4.1,2.384c1.066.084,2.286-.1,3.094.6a4.641,4.641,0,0,1,1.018,2.091,5.039,5.039,0,0,0,2.161,2.753c.808.453,1.819.648,2.4,1.394a4.738,4.738,0,0,1,.578,2.83c.021.983.244,2.126,1.129,2.551l.1-10.74a4.272,4.272,0,0,0-.188-1.575c-.432-1.122-1.7-1.659-2.864-1.972a43.362,43.362,0,0,0-10.141-1.108" transform="translate(-530.38 -134.339)" fill="#263238"/>
        <path id="Path_139300" data-name="Path 139300" d="M558,144.213s2.091-8.635,2.279-9.06,2.641-4.182,8.524-5.283h4.879s6.9,2.223,8.161,3.9,1.8,9.841,1.8,9.841l-13.632-2.962-9.269,2.258Z" transform="translate(-526.568 -128.887)" fill="#17c878"/>
        <path id="Path_139301" data-name="Path 139301" d="M574.319,128.46h-2.091a3.38,3.38,0,0,0-.829,2.2c-.1,1.512-.439,11.848-.439,11.848l6.091-.272-.2-12.81,2.091.46-.063-.7-.551-.648Z" transform="translate(-530.496 -128.46)" fill="#17c878"/>
        <path id="Path_139302" data-name="Path 139302" d="M561.72,149l.118-3.136,9.172-2.732,11.458,3.394V149.9a28.191,28.191,0,0,0-20.748-.9Z" transform="translate(-527.695 -132.906)" fill="#455a64"/>
        <path id="Path_139303" data-name="Path 139303" d="M561.1,145.18l-.4.4-3.3,2.091a52.271,52.271,0,0,1,12.9-1.715,61.051,61.051,0,0,1,14.071,2.286l-4.349-2.614h0a7.485,7.485,0,0,0-5.318-2.377l-8.245-.16A7.527,7.527,0,0,0,561.1,145.18Z" transform="translate(-526.386 -132.893)" fill="#17c878"/>
        <path id="Path_139304" data-name="Path 139304" d="M571.144,138.944a27.323,27.323,0,0,1,.063-4.391,26.534,26.534,0,0,1,.425-4.363,27.209,27.209,0,0,1-.063,4.384A26.808,26.808,0,0,1,571.144,138.944Z" transform="translate(-530.533 -128.984)" fill="#263238"/>
        <path id="Path_139305" data-name="Path 139305" d="M581.427,130.346a8.057,8.057,0,0,1-1.533-.2.4.4,0,0,0-.376.383v.906c0,.662,0,1.359.049,2.091v3.812a7.15,7.15,0,0,1-.1,1.575,7.068,7.068,0,0,1-.153-1.575c-.049-.976-.091-2.321-.118-3.805V130.52a.7.7,0,0,1,.7-.62A5.665,5.665,0,0,1,581.427,130.346Z" transform="translate(-532.99 -128.896)" fill="#263238"/>
        <path id="Path_139306" data-name="Path 139306" d="M557.1,147.388a1.569,1.569,0,0,1,.258-.16c.174-.1.439-.223.788-.376s.774-.314,1.241-.558a3.485,3.485,0,0,0,1.338-1.1c.39-.5.446-1.3.99-1.965a1.875,1.875,0,0,1,1.129-.648,8.254,8.254,0,0,1,1.31-.118c1.777-.091,3.736-.118,5.792-.063s4,.181,5.778.335a3.784,3.784,0,0,1,2.418.864,6.338,6.338,0,0,1,.7.927l.307.439.153.209a.53.53,0,0,0,.16.118c1.178.606,2.2,1.031,2.857,1.394.335.167.592.307.76.4a1.122,1.122,0,0,1,.258.174s-.39-.16-1.08-.453-1.694-.7-2.92-1.282a.7.7,0,0,1-.244-.181l-.16-.209c-.1-.139-.216-.286-.321-.439a6.418,6.418,0,0,0-.7-.871,3.485,3.485,0,0,0-2.244-.746c-1.763-.139-3.708-.251-5.757-.307s-3.994-.042-5.757,0c-.878,0-1.77,0-2.23.627s-.565,1.352-1.011,1.924a3.757,3.757,0,0,1-1.457,1.136c-.495.223-.927.376-1.282.5A10.649,10.649,0,0,1,557.1,147.388Z" transform="translate(-526.295 -132.675)" fill="#263238"/>
        <path id="Path_139307" data-name="Path 139307" d="M558.87,149.3a1.088,1.088,0,0,1,.2-.174,3.574,3.574,0,0,1,.7-.418,11.4,11.4,0,0,1,2.7-.941,30.735,30.735,0,0,1,9.388-.558c1.826.132,3.582.223,5.164.446a38.524,38.524,0,0,1,4.182.878,15.8,15.8,0,0,1,1.554.5,2.69,2.69,0,0,1,1.08.634,1.066,1.066,0,0,1,.307.7.419.419,0,0,1-.063.272,1.115,1.115,0,0,0-.342-.906,2.564,2.564,0,0,0-1.052-.537c-.446-.153-.969-.307-1.547-.453-1.157-.272-2.572-.572-4.133-.788s-3.31-.286-5.143-.418a33.071,33.071,0,0,0-9.3.446,13.242,13.242,0,0,0-2.7.815C559.184,149.113,558.891,149.343,558.87,149.3Z" transform="translate(-526.832 -134.101)" fill="#263238"/>
        <path id="Path_139308" data-name="Path 139308" d="M572.56,143.327a3,3,0,0,1,.432,0h1.185c1,0,2.377.1,3.9.223.753.063,1.477.132,2.133.209a9.284,9.284,0,0,1,1.735.286,1.687,1.687,0,0,1,.948.7.774.774,0,0,1,.133.411,1.866,1.866,0,0,0-.181-.383,1.742,1.742,0,0,0-.927-.648,10.455,10.455,0,0,0-1.721-.251l-2.133-.2c-1.519-.125-2.892-.209-3.889-.265l-1.178-.063A1.812,1.812,0,0,1,572.56,143.327Z" transform="translate(-530.98 -132.963)" fill="#fafafa"/>
        <path id="Path_139309" data-name="Path 139309" d="M578.985,138.162a1.755,1.755,0,0,1-.056-.307c0-.2-.063-.488-.1-.843-.07-.7-.146-1.694-.181-2.788s0-2.091,0-2.788a4.036,4.036,0,0,1,.049-.843,1.314,1.314,0,0,1,.042-.314,1.593,1.593,0,0,1,0,.314v3.631c0,1.087.091,2.091.139,2.788l.056.843A.914.914,0,0,1,578.985,138.162Z" transform="translate(-532.819 -129.012)" fill="#fafafa"/>
        <path id="Path_139310" data-name="Path 139310" d="M589,147.14a1.142,1.142,0,0,1,.286.091l.746.293,2.446,1.011a8.96,8.96,0,0,1,1.324.627,1.7,1.7,0,0,1,.767.927,1.15,1.15,0,0,1,0,.808.531.531,0,0,1-.181.237,1.068,1.068,0,0,0,.125-.258,1.143,1.143,0,0,0,0-.76,1.6,1.6,0,0,0-.739-.843,10.459,10.459,0,0,0-1.31-.606l-2.432-1.052-.7-.335a1.739,1.739,0,0,1-.334-.139Z" transform="translate(-535.963 -134.121)" fill="#fafafa"/>
        <path id="Path_139311" data-name="Path 139311" d="M574.05,128.823a6.78,6.78,0,0,1,.857-.035H577a14.634,14.634,0,0,1,2.091.1,1.073,1.073,0,0,1,.565.307.4.4,0,0,1,.111.209.989.989,0,0,0-.7-.411c-.5-.091-1.247-.035-2.091-.07s-1.533-.035-2.091-.056A4.534,4.534,0,0,1,574.05,128.823Z" transform="translate(-531.432 -128.559)" fill="#fafafa"/>
        <path id="Path_139312" data-name="Path 139312" d="M561.557,150.938a13.876,13.876,0,0,0,.592,8.294,29.39,29.39,0,0,1,.474-5.136,6.845,6.845,0,0,1,.788-2.37,3.818,3.818,0,0,1,2.349-1.052c.857-.188,1.805-.321,2.091-1.143a24.672,24.672,0,0,0-6.328,1.394" transform="translate(-527.532 -134.845)" fill="#263238"/>
        <path id="Path_139313" data-name="Path 139313" d="M568.3,183.3a3.889,3.889,0,0,0-2.509,1.115,11.827,11.827,0,0,1-1.694,2.209c-.739.571-1.638.7-2.265,1.31-1.241,1.192-.634,3.283-1.171,4.879a12.041,12.041,0,0,1-1.554,2.572,3.185,3.185,0,0,0-.537,2.844,2.474,2.474,0,0,0,1.938,1.394,5.317,5.317,0,0,0,2.439-.335l-.1-1.937a2.788,2.788,0,0,0,.453,1.045.955.955,0,0,0,1.024.342c.558-.223.571-1,.516-1.6-.216-2.216-.112-4.607,1.15-6.44.592-.871,1.6-1.791,2.091-2.711l.2-4.7" transform="translate(-526.703 -145.077)" fill="#263238"/>
        <path id="Path_139314" data-name="Path 139314" d="M520.949,232.1s1.247-2.718,3.067-2.607,6.921.7,6.921.7l.564,2.5-11.151-.571" transform="translate(-515.158 -159.076)" fill="#ffbe9d"/>
        <path id="Path_139315" data-name="Path 139315" d="M528.81,228.709l3.115-9.653a1.206,1.206,0,0,1,1.15-.836h0a1.213,1.213,0,0,1,1.171,1.54l-2.7,9.492Z" transform="translate(-517.722 -155.662)" fill="#17c878"/>
        <path id="Path_139316" data-name="Path 139316" d="M512.9,233.26h30.275l20.079,27.285-28.317-.411Z" transform="translate(-512.9 -160.22)" fill="#263238"/>
        <path id="Path_139317" data-name="Path 139317" d="M562.7,247.48a24.026,24.026,0,0,1,4.056-.125c1.582.16,7.541,1.512,7.541,1.512l2.551,7.91-2.955-.265-1.986.962a53.4,53.4,0,0,1-7.513.7s-1.192-.7-.836-1.352c0,0-2.7-.314-2.425-2.467a2.244,2.244,0,0,1-1.756-1.944l-4.955-.272a.99.99,0,0,1-.927-.9h0c-.049-.558.7-.753,1.261-.774l7.729-.335a1.136,1.136,0,0,0,.85-1.826Z" transform="translate(-525.2 -164.482)" fill="#ffbe9d"/>
        <g id="Group_95852" data-name="Group 95852" transform="translate(39.44 97.196)" opacity="0.5">
          <path id="Path_139318" data-name="Path 139318" d="M569.8,272.84l23.02-4.92,2.572,8.517-25.905,2.857Z" transform="translate(-569.49 -267.92)" fill="#fff"/>
        </g>
        <g id="Group_95853" data-name="Group 95853" transform="translate(19.807 96.464)" opacity="0.5">
          <path id="Path_139319" data-name="Path 139319" d="M560.326,272.376l-15.472-5.506-3.534,8.377,18.615,3.443Z" transform="translate(-541.32 -266.87)" fill="#fff"/>
        </g>
        <path id="Path_139320" data-name="Path 139320" d="M595.121,166.35a1.275,1.275,0,0,1,.063,1.045,2.941,2.941,0,0,1-1.638,1.924,3.018,3.018,0,0,1-2.509-.286,1.581,1.581,0,0,1-.7-.788,3.655,3.655,0,0,0,.822.565,3.08,3.08,0,0,0,2.251.174,2.941,2.941,0,0,0,1.519-1.666A5.805,5.805,0,0,0,595.121,166.35Z" transform="translate(-536.369 -139.943)" fill="#455a64"/>
        <path id="Path_139321" data-name="Path 139321" d="M594.827,165.083a2.278,2.278,0,0,1-.76.969,2.956,2.956,0,0,1-1.2.634,2.321,2.321,0,0,1-1.68-.181,2.879,2.879,0,0,1-1.164-1.206,3.946,3.946,0,0,1-.4-1.289,2.79,2.79,0,0,1,0-1.22,7.9,7.9,0,0,1,.251,1.171,3.255,3.255,0,0,0,1.478,2.223,2.091,2.091,0,0,0,1.436.174,2.928,2.928,0,0,0,1.122-.509C594.492,165.424,594.778,165.027,594.827,165.083Z" transform="translate(-536.13 -138.864)" fill="#455a64"/>
        <path id="Path_139322" data-name="Path 139322" d="M599.719,218.726a1.565,1.565,0,0,1-.2-.209,5.193,5.193,0,0,1-.488-.7,19.36,19.36,0,0,1-1.526-2.6,22.212,22.212,0,0,1-.188-19.3,19.314,19.314,0,0,1,1.477-2.634,8.009,8.009,0,0,1,.474-.662c.112-.153.181-.223.188-.216a9.157,9.157,0,0,1-.544.955,24.385,24.385,0,0,0-1.359,2.662,23.424,23.424,0,0,0,1.6,21.717,9.692,9.692,0,0,1,.565.983Z" transform="translate(-537.844 -147.84)" fill="#263238"/>
        <path id="Path_139323" data-name="Path 139323" d="M573.75,212.38a5.807,5.807,0,0,1,.822-.7,28.132,28.132,0,0,0,2.174-1.917,34.5,34.5,0,0,0,5.743-7.618,74.932,74.932,0,0,0,4.1-8.67c.453-1.087.829-1.993,1.115-2.69a5.877,5.877,0,0,1,.446-.969,5.7,5.7,0,0,1-.314,1.018c-.23.655-.565,1.589-1.011,2.739a64.593,64.593,0,0,1-4.014,8.754,32,32,0,0,1-5.882,7.618,20.6,20.6,0,0,1-2.272,1.847c-.279.209-.509.342-.662.439A.9.9,0,0,1,573.75,212.38Z" transform="translate(-531.341 -147.056)" fill="#263238"/>
        <path id="Path_139324" data-name="Path 139324" d="M565.143,190.56c.07,0-.321,1.192-.6,3.157a23.08,23.08,0,0,0-.216,3.485,25.268,25.268,0,0,0,.46,4.223,25.708,25.708,0,0,0,1.22,4.07,23,23,0,0,0,1.547,3.108c1.018,1.7,1.833,2.634,1.777,2.676a3.677,3.677,0,0,1-.6-.634,8.368,8.368,0,0,1-.627-.795c-.237-.328-.516-.7-.774-1.115a20.906,20.906,0,0,1-1.631-3.115,21.835,21.835,0,0,1-1.7-8.433,20.44,20.44,0,0,1,.293-3.485c.063-.495.188-.934.272-1.324a9.473,9.473,0,0,1,.272-.983,3.605,3.605,0,0,1,.307-.836Z" transform="translate(-528.386 -147.28)" fill="#263238"/>
        <path id="Path_139325" data-name="Path 139325" d="M559.62,188.8c.1,0-1.045,5.52-2.551,12.287s-2.788,12.231-2.913,12.21,1.045-5.527,2.558-12.294S559.523,188.779,559.62,188.8Z" transform="translate(-525.4 -146.746)" fill="#263238"/>
      </g>
      <g id="freepik--character-1--inject-8" transform="translate(274.194 91.93)">
        <path id="Path_139326" data-name="Path 139326" d="M507.581,174.193l2.321-8.085s.843-3.283,1.045-4.049c.258-1.018-.446-1.345-.878-.655-.16.265-1.972,3.6-1.972,3.6l1.526-5.673c.474-1.784-.641-1.61-.969-.976s-2.4,6.042-2.4,6.042c1.944-7.039,1.394-7.666.836-7.785s-2.251,6.321-2.251,6.321a5.958,5.958,0,0,0-1.687-1.875c-1.694-1.192-4.544-.042-4.69.76s.871,1.031.871,1.031a2.565,2.565,0,0,1,4.077,2.37,1.6,1.6,0,0,1-3.129.272c-.7-3.185-1.784-2.168-1.784-2.168l1.038,7.032-1.2,3.485" transform="translate(-413.755 -126.411)" fill="#b78876"/>
        <path id="Path_139327" data-name="Path 139327" d="M446.008,138.868c2.641-.7,4.272-1.645,4.272-2.676,0-2.147-6.928-3.882-15.465-3.882s-15.465,1.735-15.465,3.882c0,1.031,1.6,1.965,4.23,2.662" transform="translate(-389.816 -119.047)" fill="#17c878"/>
        <g id="Group_95854" data-name="Group 95854" transform="translate(31.088 13.932)" opacity="0.4">
          <path id="Path_139328" data-name="Path 139328" d="M445.206,139.083c2.349-.62,3.847-1.457,3.784-2.377-.16-2.551-6.133-3.436-13.709-3.436s-13.7,1.54-13.7,3.436c0,.92,1.394,1.749,3.75,2.363" transform="translate(-421.58 -133.27)"/>
        </g>
        <path id="Path_139329" data-name="Path 139329" d="M448.958,129.86s-2.216-9.06-2.4-9.534-2.788-4.426-8.977-5.576h-5.122s-7.269,2.342-8.593,4.112S422,129.239,422,129.239l14.35-3.122,9.757,2.377Z" transform="translate(-390.619 -113.725)" fill="#17c878"/>
        <path id="Path_139330" data-name="Path 139330" d="M439.888,113.28h2.2a3.548,3.548,0,0,1,.878,2.307c.1,1.589.46,12.51.46,12.51L437,127.8l.209-13.486-2.181.488.07-.767.578-.7Z" transform="translate(-394.568 -113.28)" fill="#17c878"/>
        <path id="Path_139331" data-name="Path 139331" d="M388.617,439.71l-4.23,16.768-7.165,12.3a1.77,1.77,0,0,0,.746,2.5h0a1.777,1.777,0,0,0,1.624,0c3.213-1.735,15.026-8.182,15.263-9.43.279-1.436,5.631-17.424,5.631-17.424Z" transform="translate(-376.974 -212.207)" fill="#17c878"/>
        <g id="Group_95855" data-name="Group 95855" transform="translate(0.994 248.488)" opacity="0.6">
          <path id="Path_139332" data-name="Path 139332" d="M378.4,480.4l17.2-10.58-.2.7a2.7,2.7,0,0,1-1.073,1.5c-1.394.955-5.332,3.485-14.259,8.363a1.756,1.756,0,0,1-1.673,0Z" transform="translate(-378.4 -469.82)" fill="#fff"/>
        </g>
        <g id="Group_95856" data-name="Group 95856" transform="translate(15.568 242.103)" opacity="0.6">
          <path id="Path_139333" data-name="Path 139333" d="M400,460.708a1.073,1.073,0,0,0-.655,1.268,1.025,1.025,0,0,0,1.254.662,1.129,1.129,0,0,0,.7-1.352,1.073,1.073,0,0,0-1.394-.544" transform="translate(-399.312 -460.659)" fill="#fff"/>
        </g>
        <path id="Path_139334" data-name="Path 139334" d="M385.48,474.835a5.3,5.3,0,0,0-1.1-1.7,5.52,5.52,0,0,0-1.819-.9c0-.042.244-.111.648-.063a2.726,2.726,0,0,1,1.394.7,2.787,2.787,0,0,1,.843,1.331C385.571,474.605,385.529,474.835,385.48,474.835Z" transform="translate(-378.667 -222.04)" fill="#263238"/>
        <path id="Path_139335" data-name="Path 139335" d="M382.931,477.944c-.1.049-.488-.641-1.282-1.122a14.739,14.739,0,0,0-1.568-.7,1.958,1.958,0,0,1,1.77.341C382.749,477.059,383.028,477.923,382.931,477.944Z" transform="translate(-377.915 -223.218)" fill="#263238"/>
        <path id="Path_139336" data-name="Path 139336" d="M389.248,471.449a17.859,17.859,0,0,0-1.854-1.868,17.35,17.35,0,0,0-2.314-1.262,3.923,3.923,0,0,1,2.544.955,3.973,3.973,0,0,1,1.624,2.174Z" transform="translate(-379.43 -220.877)" fill="#263238"/>
        <path id="Path_139337" data-name="Path 139337" d="M391.644,464.976c-.077.091-.892-.551-2.091-.927s-2.216-.348-2.223-.46a3.394,3.394,0,0,1,2.342.1,3.443,3.443,0,0,1,1.972,1.289Z" transform="translate(-380.112 -219.395)" fill="#263238"/>
        <path id="Path_139338" data-name="Path 139338" d="M393.515,457.98a8.782,8.782,0,0,0-2.133-1.018,8.462,8.462,0,0,0-2.363-.056c0-.049.223-.2.7-.321a3.9,3.9,0,0,1,3.38.808C393.411,457.7,393.55,457.953,393.515,457.98Z" transform="translate(-380.624 -217.291)" fill="#263238"/>
        <path id="Path_139339" data-name="Path 139339" d="M391.893,454.415a1.464,1.464,0,0,1,.146-.634,4.578,4.578,0,0,1,.962-1.512,1.986,1.986,0,0,1,1.087-.7.7.7,0,0,1,.7.362,1.143,1.143,0,0,1,.056.829,2.5,2.5,0,0,1-2.732,1.645,2.9,2.9,0,0,1-2.349-2.223,1.025,1.025,0,0,1,.181-.822.7.7,0,0,1,.8-.16,2.462,2.462,0,0,1,.941.878,5.075,5.075,0,0,1,.781,1.6,1.589,1.589,0,0,1,.1.648,7.98,7.98,0,0,0-1.094-2.091,2.321,2.321,0,0,0-.836-.746.376.376,0,0,0-.439.091.7.7,0,0,0-.084.544,2.586,2.586,0,0,0,2.056,1.9,2.167,2.167,0,0,0,2.342-1.394.9.9,0,0,0,0-.578.39.39,0,0,0-.4-.2,1.756,1.756,0,0,0-.934.571,6.712,6.712,0,0,0-1.275,1.986Z" transform="translate(-380.842 -215.671)" fill="#263238"/>
        <path id="Path_139340" data-name="Path 139340" d="M452.443,446.407l-.941,13.381s13.291,5.436,13.36,7.924l-26-.864.585-20.908Z" transform="translate(-395.729 -214.095)" fill="#17c878"/>
        <path id="Path_139341" data-name="Path 139341" d="M445.2,463.795a1.052,1.052,0,0,0-.774,1.185,1.018,1.018,0,0,0,1.171.781,1.115,1.115,0,0,0,.808-1.261,1.059,1.059,0,0,0-1.3-.7" transform="translate(-397.411 -219.496)" fill="#e0e0e0"/>
        <g id="Group_95857" data-name="Group 95857" transform="translate(43.145 250.662)" opacity="0.6">
          <path id="Path_139342" data-name="Path 139342" d="M438.88,475.031l.139-2.091,24.881,1.617s1.143.544.983,1.352Z" transform="translate(-438.88 -472.94)" fill="#fff"/>
        </g>
        <path id="Path_139343" data-name="Path 139343" d="M456.581,465.586c0,.125-.641.167-1.282.551s-.99.913-1.1.857.1-.781.878-1.234S456.616,465.474,456.581,465.586Z" transform="translate(-400.369 -220.011)" fill="#263238"/>
        <path id="Path_139344" data-name="Path 139344" d="M460.731,467.359c0,.125-.53.321-.976.843s-.592,1.087-.7,1.08-.181-.7.39-1.394S460.738,467.241,460.731,467.359Z" transform="translate(-401.828 -220.565)" fill="#263238"/>
        <path id="Path_139345" data-name="Path 139345" d="M463.5,471.21c-.118,0-.272-.62.077-1.3s.955-.941,1-.836-.328.467-.606,1.038S463.625,471.2,463.5,471.21Z" transform="translate(-403.154 -221.098)" fill="#263238"/>
        <path id="Path_139346" data-name="Path 139346" d="M456.275,461.015c-.056.118-.634-.077-1.352-.056s-1.282.237-1.345.125.488-.551,1.338-.565S456.345,460.917,456.275,461.015Z" transform="translate(-400.188 -218.513)" fill="#263238"/>
        <path id="Path_139347" data-name="Path 139347" d="M455.949,456.39a2.5,2.5,0,0,1-1.3-.056,5.4,5.4,0,0,1-1.345-.46,5.733,5.733,0,0,1-.739-.425,1.394,1.394,0,0,1-.383-.321.558.558,0,0,1-.035-.7.7.7,0,0,1,.564-.272,1.858,1.858,0,0,1,.488.084,5.174,5.174,0,0,1,.8.307,4.551,4.551,0,0,1,1.171.829c.585.578.781,1.059.732,1.08s-.335-.362-.934-.85a5.267,5.267,0,0,0-1.143-.7,5.4,5.4,0,0,0-.739-.258c-.272-.077-.509-.091-.585,0s0,.07,0,.153a1.743,1.743,0,0,0,.279.23,5.949,5.949,0,0,0,.7.418,7.861,7.861,0,0,0,1.241.523,8.138,8.138,0,0,1,1.234.411Z" transform="translate(-399.723 -216.586)" fill="#263238"/>
        <path id="Path_139348" data-name="Path 139348" d="M457.267,455.84a2.146,2.146,0,0,1-.3-1.268,4.251,4.251,0,0,1,.223-1.394,4.349,4.349,0,0,1,.362-.781,1.059,1.059,0,0,1,.85-.627.6.6,0,0,1,.53.376,1.548,1.548,0,0,1,.118.488,2.788,2.788,0,0,1,0,.871,3.017,3.017,0,0,1-.6,1.331c-.53.655-1.066.788-1.073.746a5.178,5.178,0,0,0,.822-.927,3.08,3.08,0,0,0,.453-1.213,3.024,3.024,0,0,0,0-.753c-.035-.279-.132-.5-.237-.481a.914.914,0,0,0-.467.411,4.635,4.635,0,0,0-.348.7,4.75,4.75,0,0,0-.293,1.289C457.218,455.345,457.337,455.819,457.267,455.84Z" transform="translate(-401.214 -215.862)" fill="#263238"/>
        <path id="Path_139349" data-name="Path 139349" d="M427.023,169.2l15.632-.7c.091-1.659-.76-11.918-.76-11.918s5.91-.92,5.987-6.83-.822-17.709-.822-17.709l-.1-.516c-6.837-2.934-14.761-3.2-20.657,1.345l-.878.7Z" transform="translate(-391.656 -118.159)" fill="#b78876"/>
        <path id="Path_139350" data-name="Path 139350" d="M445.722,167.3A13.729,13.729,0,0,1,438,165.11s1.826,4.251,7.722,3.722Z" transform="translate(-395.468 -128.987)" fill="#aa6550"/>
        <path id="Path_139351" data-name="Path 139351" d="M424.749,144.02c-.1-.042-4.056-1.2-3.931,2.844S425,149.937,425,149.825,424.749,144.02,424.749,144.02Z" transform="translate(-390.26 -122.54)" fill="#b78876"/>
        <path id="Path_139352" data-name="Path 139352" d="M424.2,148.9a1.048,1.048,0,0,1-.181.1.7.7,0,0,1-.53,0,1.728,1.728,0,0,1-.85-1.533,2.3,2.3,0,0,1,.16-1.018.815.815,0,0,1,.516-.558.362.362,0,0,1,.418.181c.056.112.035.2.056.2s.084-.07.049-.237a.46.46,0,0,0-.167-.251.523.523,0,0,0-.39-.091.99.99,0,0,0-.7.655,2.369,2.369,0,0,0-.209,1.129,1.847,1.847,0,0,0,1.08,1.714.767.767,0,0,0,.641-.125A.225.225,0,0,0,424.2,148.9Z" transform="translate(-390.732 -123.102)" fill="#aa6550"/>
        <path id="Path_139353" data-name="Path 139353" d="M452.77,143.438a.836.836,0,0,1-.808.85.8.8,0,0,1-.871-.76.843.843,0,0,1,.808-.85.8.8,0,0,1,.871.76Z" transform="translate(-399.435 -122.189)" fill="#263238"/>
        <path id="Path_139354" data-name="Path 139354" d="M453.222,142.175c-.1.112-.746-.362-1.652-.362s-1.575.46-1.673.348.056-.251.348-.46a2.293,2.293,0,0,1,1.338-.411,2.21,2.21,0,0,1,1.317.425C453.18,141.924,453.271,142.126,453.222,142.175Z" transform="translate(-399.065 -121.769)" fill="#263238"/>
        <path id="Path_139355" data-name="Path 139355" d="M439.967,143.9a.843.843,0,0,1-.815.85.808.808,0,0,1-.871-.76.85.85,0,0,1,.815-.857A.822.822,0,0,1,439.967,143.9Z" transform="translate(-395.553 -122.326)" fill="#263238"/>
        <path id="Path_139356" data-name="Path 139356" d="M440.412,142.415c-.1.112-.746-.362-1.652-.355s-1.575.453-1.673.341.056-.244.348-.46a2.342,2.342,0,0,1,1.338-.411,2.189,2.189,0,0,1,1.317.425C440.37,142.171,440.5,142.366,440.412,142.415Z" transform="translate(-395.183 -121.841)" fill="#263238"/>
        <path id="Path_139357" data-name="Path 139357" d="M446.415,149.176a5.616,5.616,0,0,1,1.478-.272c.23,0,.446-.07.488-.223a1.185,1.185,0,0,0-.153-.7c-.216-.565-.446-1.15-.7-1.763a31.709,31.709,0,0,1-1.54-4.621,29.73,29.73,0,0,1,1.91,4.481c.23.62.453,1.213.655,1.777a1.331,1.331,0,0,1,.125.913.571.571,0,0,1-.383.335,1.393,1.393,0,0,1-.39.056A6.351,6.351,0,0,1,446.415,149.176Z" transform="translate(-397.89 -121.863)" fill="#263238"/>
        <path id="Path_139358" data-name="Path 139358" d="M442.7,153.37c.146,0,.146.976.99,1.673a4.478,4.478,0,0,0,1.9.7c.007.1-.237.188-.7.2a2.467,2.467,0,0,1-1.589-.551,2.091,2.091,0,0,1-.767-1.394C442.518,153.607,442.63,153.363,442.7,153.37Z" transform="translate(-396.843 -125.43)" fill="#263238"/>
        <path id="Path_139359" data-name="Path 139359" d="M440.386,137.4c-.091.244-1,.125-2.091.258s-1.924.418-2.091.2c-.063-.1.091-.335.439-.578a3.436,3.436,0,0,1,1.533-.537,3.485,3.485,0,0,1,1.61.188C440.239,137.088,440.421,137.283,440.386,137.4Z" transform="translate(-394.92 -120.382)" fill="#263238"/>
        <path id="Path_139360" data-name="Path 139360" d="M452.854,138.389c-.16.209-.788,0-1.54,0s-1.394.139-1.533-.077c-.063-.1,0-.307.314-.5a2.206,2.206,0,0,1,2.474.077C452.84,138.075,452.924,138.284,452.854,138.389Z" transform="translate(-399.032 -120.61)" fill="#263238"/>
        <path id="Path_139361" data-name="Path 139361" d="M441.143,266.7l-2.586,133.5a1.638,1.638,0,0,1-1.652,1.61l-15.549-.139A1.638,1.638,0,0,1,419.733,400l2.411-114.9L401.919,399.168a2.941,2.941,0,0,1-3,2.425l-13.04-.453a2.934,2.934,0,0,1-2.788-3.387L403.578,266.17Z" transform="translate(-378.818 -159.614)" fill="#263238"/>
        <path id="Path_139362" data-name="Path 139362" d="M479.136,180.3l-9.667-2.328-6.363,17.305-17.626-15.772h0c-1.875-1.394-5.109-1.547-7.569-1.847h-.188c-.955-.118-1.394-.251-1.993-.321-4.251,3.192-11.52,3.394-15.7.1,0,0-3.164.7-5.053,1.08C409.031,179.661,404.745,184,403.56,188l7.45,17.18,1.429,16.322-4.126,14.636a2.53,2.53,0,0,0,2.091,3.206l36.938.564.6-.3a6.838,6.838,0,0,0,.99-4.676c-1.589-6.969-.481-27.878-.815-34.248,7.241,7.032,15.228,12.866,21.062,9.255C474.042,206.89,479.136,180.3,479.136,180.3Z" transform="translate(-385.031 -132.694)" fill="#e0e0e0"/>
        <path id="Path_139363" data-name="Path 139363" d="M427.62,176.87Z" transform="translate(-392.322 -132.551)" fill="#17c878"/>
        <path id="Path_139364" data-name="Path 139364" d="M425.51,137.813c.153,1.638.1,3.3.265,4.934a5.575,5.575,0,0,0,.585,1.77,1.624,1.624,0,0,0,3.08,0,4.829,4.829,0,0,0,.362-2.091,6.706,6.706,0,0,1,.223-2.147,11.687,11.687,0,0,1,1.22-2.091,2.6,2.6,0,0,0,.383-2.3,12,12,0,0,0-6.119,1.931" transform="translate(-391.683 -120.132)" fill="#263238"/>
        <path id="Path_139365" data-name="Path 139365" d="M447.262,134.9l-.125-3.3-9.66-2.878-12.057,3.554v3.554a29.662,29.662,0,0,1,21.842-.927Z" transform="translate(-391.656 -117.959)" fill="#455a64"/>
        <path id="Path_139366" data-name="Path 139366" d="M445.058,130.863l.425.411,3.485,2.188a54.844,54.844,0,0,0-13.59-1.791,64.125,64.125,0,0,0-14.817,2.4l4.579-2.788h0a7.841,7.841,0,0,1,5.576-2.5l8.677-.174a7.876,7.876,0,0,1,5.666,2.244Z" transform="translate(-390.183 -117.928)" fill="#17c878"/>
        <path id="Path_139367" data-name="Path 139367" d="M446.562,124.311a29.462,29.462,0,0,1-.439-4.6,30.379,30.379,0,0,1-.077-4.621,28.49,28.49,0,0,1,.439,4.6A30.379,30.379,0,0,1,446.562,124.311Z" transform="translate(-397.89 -113.829)" fill="#263238"/>
        <path id="Path_139368" data-name="Path 139368" d="M435,115.264a6.182,6.182,0,0,1,1.631-.474.7.7,0,0,1,.7.648v3.178c0,1.568-.07,2.983-.118,4.007a8,8,0,0,1-.16,1.659,7.669,7.669,0,0,1-.1-1.659v-4.007c0-.774.035-1.512.049-2.2a8.554,8.554,0,0,1,.035-.955.439.439,0,0,0-.411-.411,9.539,9.539,0,0,1-1.624.216Z" transform="translate(-394.559 -113.738)" fill="#263238"/>
        <path id="Path_139369" data-name="Path 139369" d="M449.619,133.214s-.4-.167-1.15-.432c-.369-.139-.829-.293-1.345-.537a3.819,3.819,0,0,1-1.533-1.192c-.467-.6-.551-1.436-1.066-2.028a3.177,3.177,0,0,0-2.349-.662c-1.861-.077-3.917-.1-6.063-.035s-4.182.174-6.063.321a3.687,3.687,0,0,0-2.37.788,6.574,6.574,0,0,0-.7.92l-.335.467-.174.216a.843.843,0,0,1-.251.188c-1.289.627-2.349,1.025-3.074,1.352a9.754,9.754,0,0,1-1.129.481c-.007-.021.084-.077.265-.181s.453-.251.8-.425c.7-.362,1.77-.815,3.011-1.45a.754.754,0,0,0,.174-.125l.16-.216c.1-.153.216-.307.321-.467a6.97,6.97,0,0,1,.746-.976,3.965,3.965,0,0,1,2.551-.906c1.861-.16,3.917-.293,6.077-.355s4.223,0,6.091.07a9.237,9.237,0,0,1,1.394.125,1.924,1.924,0,0,1,1.178.7c.572.7.634,1.533,1.045,2.091a3.673,3.673,0,0,0,1.394,1.164c.495.251.941.425,1.31.585s.641.293.822.39S449.626,133.2,449.619,133.214Z" transform="translate(-390.625 -117.721)" fill="#263238"/>
        <path id="Path_139370" data-name="Path 139370" d="M448.234,135.207a1.863,1.863,0,0,1-.258-.125,5.879,5.879,0,0,0-.7-.369,14.078,14.078,0,0,0-2.844-.864,34.848,34.848,0,0,0-9.8-.474c-1.937.139-3.77.223-5.422.439a41.5,41.5,0,0,0-4.349.836c-.606.153-1.157.314-1.631.474a2.711,2.711,0,0,0-1.1.572,1.164,1.164,0,0,0-.362.955.46.46,0,0,1-.063-.286,1.143,1.143,0,0,1,.321-.767,2.829,2.829,0,0,1,1.136-.7c.474-.181,1.025-.362,1.638-.53a40.015,40.015,0,0,1,4.37-.92c1.666-.237,3.485-.335,5.436-.474a32.3,32.3,0,0,1,9.883.585,12.007,12.007,0,0,1,2.844.99,3.651,3.651,0,0,1,.7.432A1.179,1.179,0,0,1,448.234,135.207Z" transform="translate(-390.53 -119.205)" fill="#263238"/>
        <path id="Path_139371" data-name="Path 139371" d="M441.183,113.668a6.036,6.036,0,0,1-.9.07l-2.181.056a19.313,19.313,0,0,0-2.161.07,1.045,1.045,0,0,0-.732.439.368.368,0,0,1,.112-.216,1.059,1.059,0,0,1,.592-.321,15.115,15.115,0,0,1,2.188-.112h2.174A5.118,5.118,0,0,1,441.183,113.668Z" transform="translate(-394.623 -113.389)" fill="#fafafa"/>
        <path id="Path_139372" data-name="Path 139372" d="M440.559,128.93a2.089,2.089,0,0,1-.46.042l-1.241.07c-1.045.056-2.5.139-4.091.272l-2.251.209a10.609,10.609,0,0,0-1.805.265,1.826,1.826,0,0,0-.983.7,1.693,1.693,0,0,0-.188.411.934.934,0,0,1,.139-.439,1.84,1.84,0,0,1,1-.753,9.687,9.687,0,0,1,1.826-.3c.7-.077,1.457-.153,2.251-.223,1.6-.132,3.053-.2,4.1-.23H440.1A3.488,3.488,0,0,1,440.559,128.93Z" transform="translate(-392.904 -118.023)" fill="#fafafa"/>
        <path id="Path_139373" data-name="Path 139373" d="M438.407,123.488a1.683,1.683,0,0,1,0-.328c0-.293.042-.585.063-.892.049-.746.112-1.784.146-2.927s0-2.188,0-2.941v-.892a.941.941,0,0,1,0-.328,2.228,2.228,0,0,1,.042.328c0,.209.035.516.049.892.035.753.049,1.791,0,2.941s-.112,2.188-.188,2.941a4.65,4.65,0,0,1-.1.885A1.045,1.045,0,0,1,438.407,123.488Z" transform="translate(-395.589 -113.856)" fill="#fafafa"/>
        <path id="Path_139374" data-name="Path 139374" d="M425.434,132.94a1.988,1.988,0,0,1-.272.146l-.767.355-2.558,1.1a10.666,10.666,0,0,0-1.394.641,1.763,1.763,0,0,0-.788.892,1.269,1.269,0,0,0,0,.8,2.164,2.164,0,0,0,.139.272.627.627,0,0,1-.188-.251,1.282,1.282,0,0,1,0-.857,1.819,1.819,0,0,1,.808-.969,9.24,9.24,0,0,1,1.394-.662l2.572-1.066.788-.307a1.821,1.821,0,0,1,.265-.1Z" transform="translate(-389.872 -119.238)" fill="#fafafa"/>
        <path id="Path_139375" data-name="Path 139375" d="M425.51,176.423l.857-5.9,8.043,2.948,2.272,4,1.408-4.391,4.412-1.519,1.889,3.931-3.241,4.579-6.07,1.227Z" transform="translate(-391.683 -130.627)" fill="#e0e0e0"/>
        <path id="Path_139376" data-name="Path 139376" d="M436.821,179.683a1.837,1.837,0,0,1-.3-.244,10.449,10.449,0,0,1-.739-.794,11.889,11.889,0,0,1-1.944-3.352h.3l-1.861,4.683c-.321.8-.634,1.575-.934,2.314l-.1.244-.188-.181c-1.624-1.568-3.025-2.948-4.014-3.938l-1.15-1.171a2.169,2.169,0,0,1-.383-.453,2.049,2.049,0,0,1,.467.369l1.22,1.094c1.031.948,2.467,2.286,4.105,3.84l-.286.063c.293-.739.606-1.512.927-2.314l1.9-4.67.153-.383.139.39a13.09,13.09,0,0,0,1.791,3.338C436.48,179.271,436.849,179.655,436.821,179.683Z" transform="translate(-391.683 -131.921)" fill="#263238"/>
        <path id="Path_139377" data-name="Path 139377" d="M449.433,176.611a6.369,6.369,0,0,1-.941,1.3,12.887,12.887,0,0,1-3.081,2.711l-.181.1-.07-.2c-.265-.7-.572-1.491-.892-2.293-.481-1.206-.934-2.349-1.289-3.366h.314c-.265,1.331-.592,2.425-.794,3.192a7.528,7.528,0,0,1-.348,1.213,5.144,5.144,0,0,1,.16-1.255c.146-.788.432-1.889.662-3.206l.1-.592.209.565c.369,1,.836,2.133,1.317,3.338.328.808.627,1.589.878,2.314l-.251-.091a14.979,14.979,0,0,0,3.1-2.551,12.253,12.253,0,0,1,1.1-1.185Z" transform="translate(-396.726 -131.748)" fill="#263238"/>
        <path id="Path_139378" data-name="Path 139378" d="M444.678,241.812a3.681,3.681,0,0,1,.035-.613q.077-.648.188-1.756c.1-.76.16-1.7.237-2.788q.063-.815.125-1.735c0-.62.049-1.275.077-1.958.125-2.739.119-6,.056-9.625s-.293-7.611-.578-11.785c-.606-8.363-1.429-15.89-2.049-21.34-.307-2.7-.558-4.879-.739-6.461q-.119-1.108-.188-1.756a4.472,4.472,0,0,1-.042-.613,3.1,3.1,0,0,1,.119.606c.063.432.146,1.011.251,1.749.216,1.519.516,3.722.857,6.44.7,5.45,1.547,12.991,2.154,21.347.286,4.182.474,8.175.551,11.806s0,6.9-.132,9.646c-.035.7-.07,1.338-.1,1.958s-.1,1.192-.153,1.742c-.1,1.087-.174,2.021-.3,2.788l-.251,1.749a5.675,5.675,0,0,1-.111.6Z" transform="translate(-396.62 -133.918)" fill="#263238"/>
        <path id="Path_139379" data-name="Path 139379" d="M436.079,178.61l1.826.955-.342,3.074-2.844-.6Z" transform="translate(-394.474 -133.079)" fill="#17c878"/>
        <g id="Group_95858" data-name="Group 95858" transform="translate(40.246 45.531)" opacity="0.4">
          <path id="Path_139380" data-name="Path 139380" d="M436.079,178.61l1.826.955-.342,3.074-2.844-.6Z" transform="translate(-434.72 -178.61)"/>
        </g>
        <path id="Path_139381" data-name="Path 139381" d="M442.68,179.173l1.38-1.213,1.268,3.213-1.812.871Z" transform="translate(-396.887 -132.882)" fill="#17c878"/>
        <path id="Path_139382" data-name="Path 139382" d="M439.41,185.378l-.85,36.366,6.147,6.077,2.969-8.071-5.9-34.561Z" transform="translate(-395.638 -135.073)" fill="#17c878"/>
        <path id="Path_139383" data-name="Path 139383" d="M439.185,178.239c.418-.049,1-.16,1.45-.258a1.018,1.018,0,0,1,1.1.509l.774,1.429a1.039,1.039,0,0,1,.1.7l-.314,1.6a1.011,1.011,0,0,1-.788.8l-1.756.355a1.011,1.011,0,0,1-1.1-.537l-.878-1.728a.99.99,0,0,1,0-.864l.606-1.394A1.017,1.017,0,0,1,439.185,178.239Z" transform="translate(-395.37 -132.881)" fill="#17c878"/>
        <path id="Path_139384" data-name="Path 139384" d="M442,178.92a3.818,3.818,0,0,1-.467.578c-.3.348-.7.822-1.2,1.331l-1.234,1.31a4.141,4.141,0,0,1-.544.509,3.337,3.337,0,0,1,.46-.578c.307-.348.7-.822,1.206-1.338s.913-.976,1.234-1.3a4.136,4.136,0,0,1,.544-.509Z" transform="translate(-395.638 -133.173)" fill="#263238"/>
        <path id="Path_139385" data-name="Path 139385" d="M440.229,180.656a8.525,8.525,0,0,1-1.589-1.526,8.521,8.521,0,0,1,1.589,1.526Z" transform="translate(-395.662 -133.236)" fill="#263238"/>
        <path id="Path_139386" data-name="Path 139386" d="M443.776,182.884a19.77,19.77,0,0,1,.432-2.091,2.049,2.049,0,0,0-.439-1.394,1.178,1.178,0,0,1-.209-.6,2.93,2.93,0,0,0,.3.544,6.644,6.644,0,0,1,.355.592,1.331,1.331,0,0,1,.139.85c-.118.6-.272,1.1-.376,1.478a2.44,2.44,0,0,1-.2.62Z" transform="translate(-397.153 -133.136)" fill="#263238"/>
        <g id="Group_95859" data-name="Group 95859" transform="translate(25.805 82.069)" opacity="0.3">
          <path id="Path_139387" data-name="Path 139387" d="M414.16,244.9a6.969,6.969,0,0,0,6.07,1.742c1.526-.307,2.976-1.136,4.53-1.038,1.708.111,3.115,1.3,4.67,2.007,2.9,1.317,6.272.9,9.367.077a7.044,7.044,0,0,0,3.805-2.035,6.761,6.761,0,0,0,1.171-3.164,32.548,32.548,0,0,0,.46-6.272,5.822,5.822,0,0,0-1.011-3.743,4.328,4.328,0,0,0-2.788-1.394,11.02,11.02,0,0,0-3.206.181A52.967,52.967,0,0,0,414,241.2" transform="translate(-414 -231.036)"/>
        </g>
        <path id="Path_139388" data-name="Path 139388" d="M420.965,225.974s-19.514,8.733-21.515,9.172c-6.593,1.443-14.134-4.781-12.036-11.883.774-2.641,11.284-31.843,11.284-31.843l10,13.82-4.258,14.134,11.074-.739Z" transform="translate(-380.03 -136.961)" fill="#e0e0e0"/>
        <path id="Path_139389" data-name="Path 139389" d="M422.112,224.752a3.959,3.959,0,0,1-.774.1l-2.14.181c-1.812.146-4.356.321-7.255.5H411.7l.07-.237c.216-.7.432-1.443.655-2.188.99-3.3,1.9-6.273,2.579-8.44.328-1.024.606-1.882.815-2.544a5.486,5.486,0,0,1,.348-.92,5.577,5.577,0,0,1-.216.955c-.188.7-.425,1.54-.7,2.579-.613,2.174-1.491,5.164-2.474,8.468-.23.753-.446,1.484-.7,2.188l-.174-.216c2.9-.174,5.443-.307,7.262-.383l2.147-.084A3.575,3.575,0,0,1,422.112,224.752Z" transform="translate(-387.498 -142.958)" fill="#263238"/>
        <path id="Path_139390" data-name="Path 139390" d="M424.194,242.619c.035.091-4.251,1.944-9.576,4.133s-9.646,3.9-9.708,3.8,4.251-1.944,9.576-4.14S424.159,242.535,424.194,242.619Z" transform="translate(-385.44 -152.476)" fill="#263238"/>
        <path id="Path_139391" data-name="Path 139391" d="M428.518,225.961l-1.526-7.464a.962.962,0,0,1,.948-1.157l19.41.091a.969.969,0,0,1,.955,1.073l-2.007,17.18a1.331,1.331,0,0,1-1.338,1.185l-12.656-.1a1.345,1.345,0,0,1-1.289-1.011Z" transform="translate(-392.126 -144.816)" fill="#455a64"/>
        <path id="Path_139392" data-name="Path 139392" d="M426.74,224.05h0a2.028,2.028,0,0,1,1.9,1.3,4.536,4.536,0,0,0,1.3,2.091,4.658,4.658,0,0,0,3.485.516c.885-.418,4.335-3.547,4.941-3.2s1.122,1.129.516,1.819-3.812,2.788-3.206,3.485,7.367-2.356,8.405-2.091,1.645.906,1.038,1.324-5.2,2.147-5.457,2.753c0,0,6.935-1.819,7.192-1.394s.7,1.129,0,1.394-6.67,1.819-7.192,2.091a12.671,12.671,0,0,1-2.669.774c-.188,0-1.547.46-2.788.885a6.112,6.112,0,0,1-4.307-.112l-.7-.286a2.746,2.746,0,0,1-1.708-2.711l.118-2.4-.753-1.951Z" transform="translate(-392.056 -146.85)" fill="#b78876"/>
        <path id="Path_139393" data-name="Path 139393" d="M442.844,221.137a.7.7,0,1,1-.7-.7A.7.7,0,0,1,442.844,221.137Z" transform="translate(-396.514 -145.756)" fill="#fafafa"/>
        <rect id="Rectangle_32442" data-name="Rectangle 32442" width="7.945" height="2.572" transform="translate(51.488 63.415)" fill="#263238"/>
        <path id="Path_139394" data-name="Path 139394" d="M419.98,271.9l-8.44-.209.4-2.558,8.335.328Z" transform="translate(-387.449 -160.511)" fill="#455a64"/>
        <path id="Path_139395" data-name="Path 139395" d="M448.051,271.935l-21.2-.153.279-2.342,20.9.056Z" transform="translate(-392.089 -160.605)" fill="#455a64"/>
        <path id="Path_139396" data-name="Path 139396" d="M438.939,268.879V271.7a.774.774,0,0,0,.7.829h5.84a.774.774,0,0,0,.7-.829v-2.823a.774.774,0,0,0-.7-.829h-5.84A.774.774,0,0,0,438.939,268.879Zm6.314,2.621h-5.408v-2.391h5.408Z" transform="translate(-395.752 -160.184)" fill="#fafafa"/>
        <path id="Path_139397" data-name="Path 139397" d="M459.88,269.517v2.391l4.474.084.063-2.551Z" transform="translate(-402.099 -160.605)" fill="#455a64"/>
        <path id="Path_139398" data-name="Path 139398" d="M396.18,397.711a2.183,2.183,0,0,1,.035-.321l.139-.913c.132-.829.328-2.007.571-3.527.516-3.081,1.255-7.5,2.161-12.956,1.826-10.956,4.342-26.059,7.123-42.737s5.2-31.822,6.928-42.778c.85-5.464,1.54-9.9,2.021-12.977.244-1.519.425-2.7.558-3.527.07-.39.119-.7.153-.913a3.063,3.063,0,0,1,.063-.314,2.585,2.585,0,0,1,0,.314,8.594,8.594,0,0,1-.118.927c-.112.822-.272,2.014-.488,3.534-.425,3.073-1.087,7.513-1.91,12.991-1.659,10.97-4.063,26.1-6.823,42.8s-5.325,31.8-7.22,42.723c-.962,5.45-1.735,9.869-2.279,12.935-.272,1.512-.488,2.7-.641,3.485-.07.39-.132.7-.174.913A1.734,1.734,0,0,1,396.18,397.711Z" transform="translate(-382.794 -162.821)" fill="#455a64"/>
        <path id="Path_139399" data-name="Path 139399" d="M453.357,398.232c-.1,0,.077-27.181.39-60.676s.655-60.676.753-60.676-.077,27.181-.39,60.683S453.455,398.232,453.357,398.232Z" transform="translate(-400.113 -162.86)" fill="#455a64"/>
        <path id="Path_139400" data-name="Path 139400" d="M455.136,451.6c0,.1-4.237.181-9.471.181s-9.465-.084-9.465-.181,4.237-.181,9.465-.181S455.136,451.5,455.136,451.6Z" transform="translate(-394.923 -215.756)" fill="#455a64"/>
        <path id="Path_139401" data-name="Path 139401" d="M403.022,450.588a3.374,3.374,0,0,1-.76.07l-2.091.07-6.837.167c-2.669.056-5.088.077-6.837.063-.878,0-1.582,0-2.091-.042a3.411,3.411,0,0,1-.767-.07,3.083,3.083,0,0,1,.76-.077l2.091-.07,6.83-.167c2.669-.056,5.088-.077,6.837-.056.878,0,1.582,0,2.091.042A2.925,2.925,0,0,1,403.022,450.588Z" transform="translate(-378.994 -215.468)" fill="#455a64"/>
        <path id="Path_139402" data-name="Path 139402" d="M488.632,209.629a33.6,33.6,0,0,1,0-6.969,33.593,33.593,0,0,1,0,6.969Z" transform="translate(-410.751 -140.367)" fill="#263238"/>
        <path id="Path_139403" data-name="Path 139403" d="M491.144,210.066a16.08,16.08,0,0,1-1.568-3.617,15.9,15.9,0,0,1-.976-3.819,32.451,32.451,0,0,1,1.317,3.7A33.32,33.32,0,0,1,491.144,210.066Z" transform="translate(-410.803 -140.358)" fill="#263238"/>
      </g>
      <g id="freepik--Plant--inject-8" transform="translate(47.343 210.223)">
        <path id="Path_139404" data-name="Path 139404" d="M75.156,360.245a8.493,8.493,0,0,0-2.572-2.16A5.324,5.324,0,0,1,70.27,355.3c-.307-1.206.446-2.725,1.687-2.788s2.042,1.241,2.586,2.349c.948,1.958,2.335,4.279,3.29,6.238" transform="translate(-57.154 -304.073)" fill="#17c878"/>
        <g id="Group_95860" data-name="Group 95860" transform="translate(13.048 48.434)" opacity="0.4">
          <path id="Path_139405" data-name="Path 139405" d="M75.156,360.245a8.493,8.493,0,0,0-2.572-2.16A5.324,5.324,0,0,1,70.27,355.3c-.307-1.206.446-2.725,1.687-2.788s2.042,1.241,2.586,2.349c.948,1.958,2.335,4.279,3.29,6.238" transform="translate(-70.202 -352.507)"/>
        </g>
        <path id="Path_139406" data-name="Path 139406" d="M65.712,361.9a24.312,24.312,0,0,0-10.656-.565c-1.652.369-3.443,1.394-3.575,3.1a3.373,3.373,0,0,0,1.582,2.858c2.321,1.617,5.527,1.066,8.092-.125s5.422-3.283,7.708-4.53" transform="translate(-51.48 -306.636)" fill="#17c878"/>
        <g id="Group_95861" data-name="Group 95861" transform="translate(0 54.327)" opacity="0.4">
          <path id="Path_139407" data-name="Path 139407" d="M65.712,361.9a24.312,24.312,0,0,0-10.656-.565c-1.652.369-3.443,1.394-3.575,3.1a3.373,3.373,0,0,0,1.582,2.858c2.321,1.617,5.527,1.066,8.092-.125s5.422-3.283,7.708-4.53" transform="translate(-51.48 -360.963)"/>
        </g>
        <path id="Path_139408" data-name="Path 139408" d="M85.084,369.254a24,24,0,0,0-9.757,1.5,7.179,7.179,0,0,0-3.61,2.5,4.913,4.913,0,0,0,1.08,6.133,6.781,6.781,0,0,0,6.4,1.1,11.151,11.151,0,0,0,5.325-4.028,31.2,31.2,0,0,0,3.631-5.387" transform="translate(-57.415 -309.137)" fill="#17c878"/>
        <g id="Group_95862" data-name="Group 95862" transform="translate(13.65 60.081)" opacity="0.4">
          <path id="Path_139409" data-name="Path 139409" d="M85.084,369.254a24,24,0,0,0-9.757,1.5,7.179,7.179,0,0,0-3.61,2.5,4.913,4.913,0,0,0,1.08,6.133,6.781,6.781,0,0,0,6.4,1.1,11.151,11.151,0,0,0,5.325-4.028,31.2,31.2,0,0,0,3.631-5.387" transform="translate(-71.065 -369.218)"/>
        </g>
        <path id="Path_139410" data-name="Path 139410" d="M102.907,373.883a14.636,14.636,0,0,1-2.621-5.778,4.614,4.614,0,0,1-.091-1.875,1.993,1.993,0,0,1,1.094-1.457,2.028,2.028,0,0,1,2.091.495,5.346,5.346,0,0,1,1.178,1.889c1.617,3.77,2.272,8.015,3.136,12.029" transform="translate(-66.226 -307.758)" fill="#17c878"/>
        <g id="Group_95863" data-name="Group 95863" transform="translate(33.913 56.909)" opacity="0.4">
          <path id="Path_139411" data-name="Path 139411" d="M102.907,373.883a14.636,14.636,0,0,1-2.621-5.778,4.614,4.614,0,0,1-.091-1.875,1.993,1.993,0,0,1,1.094-1.457,2.028,2.028,0,0,1,2.091.495,5.346,5.346,0,0,1,1.178,1.889c1.617,3.77,2.272,8.015,3.136,12.029" transform="translate(-100.139 -364.667)"/>
        </g>
        <path id="Path_139412" data-name="Path 139412" d="M101.089,382.259a15.193,15.193,0,0,0-12.28,3.485,7.221,7.221,0,0,0-2.209,2.962,3.652,3.652,0,0,0,.481,3.534,4.138,4.138,0,0,0,4.412.857,13.911,13.911,0,0,0,4.683-3.136l6.719-6" transform="translate(-62.046 -313.033)" fill="#17c878"/>
        <g id="Group_95864" data-name="Group 95864" transform="translate(24.3 69.039)" opacity="0.4">
          <path id="Path_139413" data-name="Path 139413" d="M101.089,382.259a15.193,15.193,0,0,0-12.28,3.485,7.221,7.221,0,0,0-2.209,2.962,3.652,3.652,0,0,0,.481,3.534,4.138,4.138,0,0,0,4.412.857,13.911,13.911,0,0,0,4.683-3.136l6.719-6" transform="translate(-86.346 -382.072)"/>
        </g>
        <path id="Path_139414" data-name="Path 139414" d="M107.745,350.6a19.514,19.514,0,0,1,7.973-13.528,9.8,9.8,0,0,1,4.558-1.937,4.934,4.934,0,0,1,4.453,1.756c1.206,1.652.92,4,0,5.84a13.848,13.848,0,0,1-7.332,6.447,31.467,31.467,0,0,1-9.757,1.951" transform="translate(-68.5 -298.794)" fill="#17c878"/>
        <path id="Path_139415" data-name="Path 139415" d="M103.18,334.934a21.323,21.323,0,0,1,4.433-9.228,10.455,10.455,0,0,1,2.279-2.356,4.182,4.182,0,0,1,3.115-.753,3.764,3.764,0,0,1,2.788,3.262,5.638,5.638,0,0,1-1.436,4.182,11.52,11.52,0,0,1-3.638,2.7,26.163,26.163,0,0,1-7.36,2.5" transform="translate(-67.148 -294.993)" fill="#17c878"/>
        <path id="Path_139416" data-name="Path 139416" d="M100.831,319.584c.042-4.4,1.826-9.388,5.164-12.245.592-.5,1.394-.983,2.091-.6a1.861,1.861,0,0,1,.7,1.025,8.809,8.809,0,0,1-7.973,11.848" transform="translate(-66.43 -290.161)" fill="#17c878"/>
        <path id="Path_139417" data-name="Path 139417" d="M96.711,314.112c-.125-3.805-2.091-7.025-4.453-10.008a2.791,2.791,0,0,0-2.14-1.345c-1.206.056-1.868,1.45-1.993,2.648a8.2,8.2,0,0,0,2.091,6.272,8.894,8.894,0,0,0,6.489,2.425" transform="translate(-62.575 -288.996)" fill="#17c878"/>
        <path id="Path_139418" data-name="Path 139418" d="M100.969,297.765c-1.965-3.143-2.279-8.363-.418-11.583a6.858,6.858,0,0,1,2.474-2.593,4.14,4.14,0,0,1,3.485-.342c1.917.76,2.753,3.178,2.3,5.192a10.189,10.189,0,0,1-3.415,5.039,31.862,31.862,0,0,0-4.433,4.286" transform="translate(-65.976 -283.012)" fill="#17c878"/>
        <path id="Path_139419" data-name="Path 139419" d="M95.019,331.935a26.929,26.929,0,0,0-3.924-4.725,10.587,10.587,0,0,0-5.415-2.739,6.649,6.649,0,0,0-5.673,1.735,4.879,4.879,0,0,0-.906,5.659,6.752,6.752,0,0,0,3.8,2.732,17.877,17.877,0,0,0,12.336-.139" transform="translate(-59.691 -295.549)" fill="#17c878"/>
        <path id="Path_139420" data-name="Path 139420" d="M100.175,352.4a13.242,13.242,0,0,0-5.994-4.67,9.757,9.757,0,0,0-7.5.265,3.427,3.427,0,0,0-2.2,2.788c.007,1.254,1.164,2.258,2.293,2.885a15.514,15.514,0,0,0,13.576.62" transform="translate(-61.481 -302.436)" fill="#17c878"/>
        <path id="Path_139421" data-name="Path 139421" d="M115.386,375.616a12.454,12.454,0,0,1,1.519-9.1,14.343,14.343,0,0,1,7.471-6.043,7.666,7.666,0,0,1,3.687-.5,3.987,3.987,0,0,1,3,2.014c.941,1.917-.328,4.286-2.091,5.457a25.482,25.482,0,0,1-5.771,2.948c-3.136,1.038-5.987,4.628-7.213,7.165" transform="translate(-70.761 -306.321)" fill="#17c878"/>
        <path id="Path_139422" data-name="Path 139422" d="M120.636,395.884a19.835,19.835,0,0,1,3.2-11.4,10.837,10.837,0,0,1,4.628-4.453,5.446,5.446,0,0,1,6.049.9c1.917,2.021,1.394,5.478-.4,7.618s-4.426,3.31-6.969,4.474a13.185,13.185,0,0,0-6.036,4.83" transform="translate(-72.436 -312.259)" fill="#17c878"/>
        <path id="Path_139423" data-name="Path 139423" d="M123.78,413.418c.983-3.533,2.091-7.116,4.272-10.05s5.715-5.123,9.36-4.774a4.959,4.959,0,0,1,4.182,2.621c.857,1.979-.251,4.265-1.673,5.882a15.842,15.842,0,0,1-7.534,4.767c-1.624.46-3.324.7-4.879,1.254a5.762,5.762,0,0,0-3.631,3.29" transform="translate(-73.391 -318.029)" fill="#17c878"/>
        <path id="Path_139424" data-name="Path 139424" d="M114.742,422.346c-1.136-3.729-4.53-6.273-7.945-8.161-2.558-1.394-5.415-2.586-8.308-2.223s-5.7,2.788-5.513,5.7,3.248,4.99,6.182,5.408,5.924-.251,8.886-.188,5.778.906,7.011,3.6" transform="translate(-64.053 -322.071)" fill="#17c878"/>
        <path id="Path_139425" data-name="Path 139425" d="M115.814,405.1a11.848,11.848,0,0,0-8.363-7.666,4.62,4.62,0,0,0-3.352.223,3.541,3.541,0,0,0-1.268,4.293,5.8,5.8,0,0,0,3.575,3.094,16.964,16.964,0,0,0,4.816.7,17.423,17.423,0,0,1,4.816.648" transform="translate(-66.958 -317.624)" fill="#17c878"/>
        <path id="Path_139426" data-name="Path 139426" d="M85.032,364.435a6.593,6.593,0,0,1-1.819-2.976,1.5,1.5,0,0,1,.042-1.1,1.136,1.136,0,0,1,1.317-.39,3.129,3.129,0,0,1,1.171.878,35.439,35.439,0,0,1,3.945,5.785" transform="translate(-61.071 -306.312)" fill="#17c878"/>
        <path id="Path_139427" data-name="Path 139427" d="M105.3,286.88a1.843,1.843,0,0,1-.1.258c-.084.181-.2.425-.341.732l-.565,1.185c-.2.481-.425,1.031-.7,1.652a45,45,0,0,0-1.519,4.663,48.018,48.018,0,0,0-1.2,6.37,62.391,62.391,0,0,0,.411,16.845,141.843,141.843,0,0,0,5.039,20.072c2.2,7.011,4.509,13.639,6.154,19.814a148.119,148.119,0,0,1,3.485,16.587c.7,4.774,1.045,8.67,1.227,11.36.084,1.345.139,2.39.16,3.1v.808a1.722,1.722,0,0,1,0,.279,1.806,1.806,0,0,1,0-.279l-.063-.8c-.056-.732-.125-1.77-.223-3.094-.223-2.69-.592-6.572-1.338-11.332a153.882,153.882,0,0,0-3.527-16.545c-1.659-6.147-3.98-12.768-6.182-19.793A139.5,139.5,0,0,1,101,318.633a61.847,61.847,0,0,1-.341-16.922,48.874,48.874,0,0,1,1.254-6.4,44.4,44.4,0,0,1,1.589-4.656c.265-.62.5-1.171.7-1.645s.432-.85.592-1.178.286-.537.376-.7a1.275,1.275,0,0,1,.132-.258Z" transform="translate(-66.255 -284.184)" fill="#263238"/>
        <path id="Path_139428" data-name="Path 139428" d="M66.2,361.443a2.153,2.153,0,0,1,.509,0c.335.035.822.063,1.45.16a41.771,41.771,0,0,1,5.262,1.052,46.842,46.842,0,0,1,15.9,7.618,44.688,44.688,0,0,1,7.179,6.6,40.8,40.8,0,0,1,4.6,6.5,42.549,42.549,0,0,1,2.37,4.816c.258.578.418,1.045.537,1.359a2.272,2.272,0,0,1,.16.481,2.823,2.823,0,0,1-.223-.453c-.146-.3-.328-.76-.6-1.331a50.939,50.939,0,0,0-2.467-4.739,41.958,41.958,0,0,0-4.628-6.412,45.355,45.355,0,0,0-7.144-6.53A48.235,48.235,0,0,0,73.358,362.9a49.942,49.942,0,0,0-5.206-1.129c-.62-.119-1.108-.174-1.436-.23a4.567,4.567,0,0,1-.516-.1Z" transform="translate(-55.941 -306.777)" fill="#263238"/>
        <path id="Path_139429" data-name="Path 139429" d="M118.637,343.61a19.735,19.735,0,0,1-1.819,1.261,35.413,35.413,0,0,0-4.182,3.338,35.9,35.9,0,0,0-3.582,3.931,19.518,19.518,0,0,1-1.394,1.742,1.986,1.986,0,0,1,.272-.53c.2-.335.495-.8.892-1.394a27.878,27.878,0,0,1,7.792-7.332c.585-.362,1.073-.634,1.394-.808a2.091,2.091,0,0,1,.627-.209Z" transform="translate(-68.506 -301.377)" fill="#263238"/>
        <path id="Path_139430" data-name="Path 139430" d="M125.83,365.73c0,.063-.913.376-2.265,1.178a14.636,14.636,0,0,0-6.893,9.694c-.321,1.54-.314,2.53-.376,2.53a2.432,2.432,0,0,1-.049-.7,12.336,12.336,0,0,1,.167-1.882,13.855,13.855,0,0,1,7.025-9.869,12.549,12.549,0,0,1,1.694-.767,2.369,2.369,0,0,1,.7-.188Z" transform="translate(-71.106 -308.08)" fill="#263238"/>
        <path id="Path_139431" data-name="Path 139431" d="M129.112,386.54c0,.056-.7.516-1.812,1.443a17.7,17.7,0,0,0-5.687,9.332c-.321,1.394-.383,2.272-.453,2.265a2.189,2.189,0,0,1,0-.627,10.962,10.962,0,0,1,.209-1.694A16.267,16.267,0,0,1,123.418,392a15.981,15.981,0,0,1,3.729-4.217,11.9,11.9,0,0,1,1.394-.969,2.092,2.092,0,0,1,.572-.279Z" transform="translate(-72.59 -314.387)" fill="#263238"/>
        <path id="Path_139432" data-name="Path 139432" d="M134.491,406.63c0,.063-.8.4-2.035,1.122a20.392,20.392,0,0,0-7.666,7.9c-.7,1.261-1,2.091-1.059,2.091a2.14,2.14,0,0,1,.167-.606,14.01,14.01,0,0,1,.7-1.582,18.176,18.176,0,0,1,7.771-8.008,12.265,12.265,0,0,1,1.561-.7A2.093,2.093,0,0,1,134.491,406.63Z" transform="translate(-73.376 -320.475)" fill="#263238"/>
        <path id="Path_139433" data-name="Path 139433" d="M107.85,401.484a4.69,4.69,0,0,1,1.749,0,10.719,10.719,0,0,1,7.137,4.223,5.1,5.1,0,0,1,.864,1.526c-.056,0-.383-.551-1.059-1.394a12.05,12.05,0,0,0-6.969-4.126C108.519,401.554,107.85,401.547,107.85,401.484Z" transform="translate(-68.563 -318.891)" fill="#263238"/>
        <path id="Path_139434" data-name="Path 139434" d="M105.45,419.728a1.475,1.475,0,0,1,.523-.362,3.325,3.325,0,0,1,1.714-.237,7.491,7.491,0,0,1,2.432.795c.857.411,1.8.871,2.753,1.394a19.021,19.021,0,0,1,4.53,3.352A10.574,10.574,0,0,1,118.49,426a2.091,2.091,0,0,1,.307.544c-.056.042-.544-.7-1.575-1.694a21.89,21.89,0,0,0-4.523-3.22c-.948-.53-1.882-1-2.725-1.394a7.881,7.881,0,0,0-2.321-.843A3.708,3.708,0,0,0,105.45,419.728Z" transform="translate(-67.836 -324.255)" fill="#263238"/>
        <path id="Path_139435" data-name="Path 139435" d="M104.158,383.991a23.811,23.811,0,0,0-5.659,1.84,23.7,23.7,0,0,0-4.809,3.485,5.533,5.533,0,0,1,1.15-1.345,14.949,14.949,0,0,1,7.555-3.854A5.718,5.718,0,0,1,104.158,383.991Z" transform="translate(-64.272 -313.608)" fill="#263238"/>
        <path id="Path_139436" data-name="Path 139436" d="M107.212,379.563a4.83,4.83,0,0,1-.767-1.2,20.906,20.906,0,0,1-1.345-3.143,20.657,20.657,0,0,1-.822-3.318,4.537,4.537,0,0,1-.1-1.394c.112,0,.425,2.091,1.268,4.621S107.31,379.508,107.212,379.563Z" transform="translate(-67.445 -309.529)" fill="#263238"/>
        <path id="Path_139437" data-name="Path 139437" d="M102.581,355.285a37.37,37.37,0,0,0-4.934-1.9,36.13,36.13,0,0,0-5.227-.795,4.788,4.788,0,0,1,1.561-.1,16.35,16.35,0,0,1,3.757.551,16.662,16.662,0,0,1,3.527,1.394A5.436,5.436,0,0,1,102.581,355.285Z" transform="translate(-63.887 -304.061)" fill="#263238"/>
        <path id="Path_139438" data-name="Path 139438" d="M112.794,327.52a12.448,12.448,0,0,1-1.526,1.171c-.948.7-2.237,1.714-3.575,2.927s-2.46,2.4-3.255,3.276a11.85,11.85,0,0,1-1.317,1.394,8.363,8.363,0,0,1,1.122-1.568,31.188,31.188,0,0,1,6.879-6.272,8.764,8.764,0,0,1,1.673-.927Z" transform="translate(-67.13 -296.5)" fill="#263238"/>
        <path id="Path_139439" data-name="Path 139439" d="M97.8,336.451a16.931,16.931,0,0,1-1.673-.927,27.578,27.578,0,0,0-8.447-3.018,12.647,12.647,0,0,1-1.84-.355,7.152,7.152,0,0,1,1.882.1,21.731,21.731,0,0,1,8.531,3.046A7.033,7.033,0,0,1,97.8,336.451Z" transform="translate(-61.893 -297.898)" fill="#263238"/>
        <path id="Path_139440" data-name="Path 139440" d="M106.418,313.4c.084.077-1.457,1.638-3.046,3.8s-2.634,4.091-2.732,4.035a5.032,5.032,0,0,1,.585-1.317,23.277,23.277,0,0,1,1.861-2.927,24.17,24.17,0,0,1,2.251-2.648,4.921,4.921,0,0,1,1.08-.941Z" transform="translate(-66.378 -292.221)" fill="#263238"/>
        <path id="Path_139441" data-name="Path 139441" d="M97.174,315.249a12.062,12.062,0,0,1-.843-1.254,18.734,18.734,0,0,0-2.377-2.739c-1.031-.983-2.042-1.8-2.788-2.4a6.691,6.691,0,0,1-1.136-1.018,6.146,6.146,0,0,1,1.317.808,27.314,27.314,0,0,1,2.857,2.335,13.89,13.89,0,0,1,2.342,2.864,4.181,4.181,0,0,1,.627,1.4Z" transform="translate(-63.163 -290.536)" fill="#263238"/>
        <path id="Path_139442" data-name="Path 139442" d="M89.845,370.529a30.785,30.785,0,0,0-4.621,1.777,32.325,32.325,0,0,0-4.084,2.788,4.662,4.662,0,0,1,1-1.087,14.475,14.475,0,0,1,6.272-3.283,4.523,4.523,0,0,1,1.436-.2Z" transform="translate(-60.469 -309.534)" fill="#263238"/>
        <path id="Path_139443" data-name="Path 139443" d="M68.018,362.727c0,.111-2.2.244-4.816.948s-4.593,1.68-4.642,1.582a4.772,4.772,0,0,1,1.254-.732,20.083,20.083,0,0,1,3.3-1.2,19.577,19.577,0,0,1,3.485-.606,5.1,5.1,0,0,1,1.422.007Z" transform="translate(-53.626 -307.154)" fill="#263238"/>
        <path id="Path_139444" data-name="Path 139444" d="M77.368,362.025a11.153,11.153,0,0,1-1.554-2.439A11.945,11.945,0,0,1,74.58,357a11.689,11.689,0,0,1,1.554,2.439A12.105,12.105,0,0,1,77.368,362.025Z" transform="translate(-58.481 -305.435)" fill="#263238"/>
        <g id="Group_95865" data-name="Group 95865" transform="translate(22.057 53.583)" opacity="0.4">
          <path id="Path_139445" data-name="Path 139445" d="M85.032,364.435a6.593,6.593,0,0,1-1.819-2.976,1.5,1.5,0,0,1,.042-1.1,1.136,1.136,0,0,1,1.317-.39,3.129,3.129,0,0,1,1.171.878,35.439,35.439,0,0,1,3.945,5.785" transform="translate(-83.128 -359.895)"/>
        </g>
        <path id="Path_139446" data-name="Path 139446" d="M102.48,435.71h31.1v13.367a15.549,15.549,0,0,1-15.549,15.549h0a15.549,15.549,0,0,1-15.549-15.549V435.71Z" transform="translate(-66.936 -329.288)" fill="#455a64"/>
        <path id="Path_139447" data-name="Path 139447" d="M133.567,448.271a8.725,8.725,0,0,1-1.206-.362c-.774-.244-1.882-.627-3.283-.969a15.383,15.383,0,0,0-5-.5,10.7,10.7,0,0,0-2.885.655c-.969.355-1.944.815-2.976,1.234a11.77,11.77,0,0,1-3.15.885,9.756,9.756,0,0,1-3.046-.2c-1.9-.425-3.485-1.1-4.879-1.526a14.637,14.637,0,0,0-3.331-.7h-.927a1.064,1.064,0,0,1-.328,0,1.127,1.127,0,0,1,.328-.049,4.962,4.962,0,0,1,.934-.042,13.354,13.354,0,0,1,3.4.62c1.394.4,3.011,1.045,4.879,1.443a9.347,9.347,0,0,0,2.941.174,11.373,11.373,0,0,0,3.046-.864c1.025-.411,2.007-.871,3-1.234a11.26,11.26,0,0,1,2.976-.655,15.074,15.074,0,0,1,5.088.585c1.394.383,2.509.8,3.269,1.087l.864.348A1.716,1.716,0,0,1,133.567,448.271Z" transform="translate(-66.96 -332.454)" fill="#263238"/>
        <path id="Path_139448" data-name="Path 139448" d="M133.567,445.586a8.734,8.734,0,0,1-1.206-.362c-.774-.251-1.882-.627-3.283-.976a15.577,15.577,0,0,0-5-.5,10.986,10.986,0,0,0-2.885.662c-.969.355-1.944.815-2.976,1.234a12.036,12.036,0,0,1-3.15.885,9.757,9.757,0,0,1-3.046-.209c-1.9-.425-3.485-1.094-4.879-1.526a14.971,14.971,0,0,0-3.331-.7,6.476,6.476,0,0,0-.927,0h-.328a.969.969,0,0,1,.328-.056,5.082,5.082,0,0,1,.934-.035,12.983,12.983,0,0,1,3.4.613c1.394.4,3.011,1.052,4.879,1.443a9.344,9.344,0,0,0,2.941.181,11.911,11.911,0,0,0,3.046-.864c1.025-.418,2.007-.878,3-1.234a11.013,11.013,0,0,1,2.976-.662,15.438,15.438,0,0,1,5.088.585,32.434,32.434,0,0,1,3.269,1.094l.864.348C133.469,445.523,133.574,445.572,133.567,445.586Z" transform="translate(-66.96 -331.637)" fill="#263238"/>
      </g>
    </g>
    <rect id="Rectangle_32629" data-name="Rectangle 32629" width="610" height="326" transform="translate(6180 -8217)" fill="none"/>
  </g>
</svg>
