<svg xmlns="http://www.w3.org/2000/svg" width="181" height="182" viewBox="0 0 181 182">
  <g id="t5-ic2" transform="translate(-710 -867)">
    <ellipse id="Ellipse_4437" data-name="Ellipse 4437" cx="90.5" cy="91" rx="90.5" ry="91" transform="translate(710 867)" fill="#fff"/>
    <g id="target" transform="translate(734.165 903)">
      <g id="Group_96508" data-name="Group 96508" transform="translate(15.446 1.611)">
        <g id="Group_96497" data-name="Group 96497" transform="translate(42.48)">
          <path id="Path_140198" data-name="Path 140198" d="M277.2,54.926H219.275l-.215.214v45.826a26.228,26.228,0,0,1,13.7,36.05h43.612a1.04,1.04,0,0,0,1.04-1.04V55.14Z" transform="translate(-219.06 -44.737)" fill="#d2f6e6"/>
          <path id="Path_140199" data-name="Path 140199" d="M225.492,104.682V55.14l.215-.214h-6.432l-.215.214v45.826A26.192,26.192,0,0,1,225.492,104.682Z" transform="translate(-219.06 -44.737)" fill="#d2f6e6"/>
          <g id="Group_96483" data-name="Group 96483">
            <path id="Path_140200" data-name="Path 140200" d="M277.413,17.9H219.06V9.648A2.148,2.148,0,0,1,221.208,7.5h54.056a2.148,2.148,0,0,1,2.148,2.148Z" transform="translate(-219.06 -7.5)" fill="#17c878"/>
          </g>
          <g id="Group_96484" data-name="Group 96484">
            <path id="Path_140201" data-name="Path 140201" d="M221.208,7.5a2.148,2.148,0,0,0-2.148,2.148V17.9h12.892V7.5Z" transform="translate(-219.06 -7.5)" fill="#d2f6e6"/>
          </g>
          <g id="Group_96485" data-name="Group 96485">
            <path id="Path_140202" data-name="Path 140202" d="M227.641,7.5h-6.432a2.148,2.148,0,0,0-2.148,2.148V17.9h6.432V9.648A2.148,2.148,0,0,1,227.641,7.5Z" transform="translate(-219.06 -7.5)" fill="#17c878"/>
          </g>
          <g id="Group_96488" data-name="Group 96488" transform="translate(9.726 17.472)">
            <g id="Group_96486" data-name="Group 96486">
              <path id="Path_140203" data-name="Path 140203" d="M271.826,96.966h-6.853a.645.645,0,0,1-.645-.645V89.469a.645.645,0,0,1,.645-.645h6.853a.645.645,0,0,1,.645.645v6.853A.645.645,0,0,1,271.826,96.966Z" transform="translate(-264.328 -88.824)" fill="#f1d54e"/>
            </g>
            <g id="Group_96487" data-name="Group 96487">
              <path id="Path_140204" data-name="Path 140204" d="M267.932,96.322V89.469a.645.645,0,0,1,.645-.645h-3.6a.645.645,0,0,0-.645.645v6.853a.645.645,0,0,0,.645.645h3.6A.645.645,0,0,1,267.932,96.322Z" transform="translate(-264.328 -88.824)" fill="#f1d54e"/>
            </g>
          </g>
          <g id="Group_96491" data-name="Group 96491" transform="translate(9.726 31.891)">
            <g id="Group_96489" data-name="Group 96489">
              <path id="Path_140205" data-name="Path 140205" d="M271.826,164.078h-6.853a.645.645,0,0,1-.645-.645v-6.853a.645.645,0,0,1,.645-.645h6.853a.644.644,0,0,1,.645.645v6.853A.645.645,0,0,1,271.826,164.078Z" transform="translate(-264.328 -155.936)" fill="#f1d54e"/>
            </g>
            <g id="Group_96490" data-name="Group 96490">
              <path id="Path_140206" data-name="Path 140206" d="M267.932,163.434v-6.853a.644.644,0,0,1,.645-.645h-3.6a.645.645,0,0,0-.645.645v6.853a.645.645,0,0,0,.645.645h3.6A.645.645,0,0,1,267.932,163.434Z" transform="translate(-264.328 -155.936)" fill="#f1d54e"/>
            </g>
          </g>
          <g id="Group_96494" data-name="Group 96494" transform="translate(9.726 46.309)">
            <g id="Group_96492" data-name="Group 96492">
              <path id="Path_140207" data-name="Path 140207" d="M271.826,231.19h-6.853a.645.645,0,0,1-.645-.645v-6.853a.645.645,0,0,1,.645-.645h6.853a.645.645,0,0,1,.645.645v6.853A.645.645,0,0,1,271.826,231.19Z" transform="translate(-264.328 -223.048)" fill="#f1d54e"/>
            </g>
            <g id="Group_96493" data-name="Group 96493">
              <path id="Path_140208" data-name="Path 140208" d="M267.932,230.546v-6.853a.645.645,0,0,1,.645-.645h-3.6a.645.645,0,0,0-.645.645v6.853a.645.645,0,0,0,.645.645h3.6A.645.645,0,0,1,267.932,230.546Z" transform="translate(-264.328 -223.048)" fill="#f1d54e"/>
            </g>
          </g>
          <g id="Group_96496" data-name="Group 96496" transform="translate(9.726 60.728)">
            <path id="Path_140209" data-name="Path 140209" d="M271.826,290.159h-6.853a.645.645,0,0,0-.645.645v1.653a26.262,26.262,0,0,1,3.985,5.844h3.513a.644.644,0,0,0,.645-.645V290.8A.645.645,0,0,0,271.826,290.159Z" transform="translate(-264.328 -290.159)" fill="#f1d54e"/>
            <g id="Group_96495" data-name="Group 96495">
              <path id="Path_140210" data-name="Path 140210" d="M267.932,297.566V290.8a.645.645,0,0,1,.645-.645h-3.6a.645.645,0,0,0-.645.645v1.653A26.3,26.3,0,0,1,267.932,297.566Z" transform="translate(-264.328 -290.159)" fill="#f1d54e"/>
            </g>
          </g>
        </g>
        <g id="Group_96504" data-name="Group 96504" transform="translate(6.515 54.353)">
          <path id="Path_140211" data-name="Path 140211" d="M77.874,260.489a26.313,26.313,0,0,0-5.522.585A13.872,13.872,0,0,1,53.3,277.553a26.216,26.216,0,1,0,24.57-17.064Z" transform="translate(-51.662 -260.489)" fill="#fb9e36"/>
          <g id="Group_96498" data-name="Group 96498" transform="translate(0 17.064)">
            <path id="Path_140212" data-name="Path 140212" d="M57.1,349.063a26.2,26.2,0,0,1,1.222-7.932,13.794,13.794,0,0,1-5.022-1.216,26.226,26.226,0,0,0,24.57,35.36,26.468,26.468,0,0,0,2.721-.14A26.215,26.215,0,0,1,57.1,349.063Z" transform="translate(-51.661 -339.915)" fill="#e04022"/>
          </g>
          <path id="Path_140213" data-name="Path 140213" d="M108.976,300.1a17.616,17.616,0,0,0-5.961,1.035,13.9,13.9,0,0,1-9.671,8.371,17.7,17.7,0,1,0,15.632-9.407Z" transform="translate(-82.763 -291.591)" fill="#fff"/>
          <path id="Path_140214" data-name="Path 140214" d="M96.8,317.8a17.729,17.729,0,0,1,14.938-17.485,17.679,17.679,0,0,0-8.724.818,13.9,13.9,0,0,1-9.671,8.371,17.7,17.7,0,0,0,18.4,25.78A17.728,17.728,0,0,1,96.8,317.8Z" transform="translate(-82.763 -291.591)" fill="#eef5f6"/>
          <g id="Group_96499" data-name="Group 96499" transform="translate(59.042 20.08)">
            <path id="Path_140215" data-name="Path 140215" d="M343.7,353.952H331a.644.644,0,0,0-.532.281l-3.993,5.851,3.993,5.851a.644.644,0,0,0,.532.281h12.7a.645.645,0,0,0,.525-1.019l-3.649-5.113,3.649-5.113A.645.645,0,0,0,343.7,353.952Z" transform="translate(-326.474 -353.952)" fill="#fff"/>
          </g>
          <g id="Group_96500" data-name="Group 96500" transform="translate(59.042 20.08)">
            <path id="Path_140216" data-name="Path 140216" d="M343.7,353.952H331a.644.644,0,0,0-.532.281l-3.993,5.851,3.993,5.851a.644.644,0,0,0,.532.281h12.7a.645.645,0,0,0,.525-1.019l-3.649-5.113,3.649-5.113A.645.645,0,0,0,343.7,353.952Z" transform="translate(-326.474 -353.952)" fill="#fff"/>
          </g>
          <g id="Group_96501" data-name="Group 96501" transform="translate(59.042 20.08)">
            <path id="Path_140217" data-name="Path 140217" d="M335.915,365.934l-3.992-5.851,3.992-5.851a.645.645,0,0,1,.532-.281H331a.645.645,0,0,0-.532.281l-3.992,5.851,3.992,5.851a.645.645,0,0,0,.532.281h5.448A.644.644,0,0,1,335.915,365.934Z" transform="translate(-326.475 -353.951)" fill="#eef5f6"/>
          </g>
          <g id="Group_96502" data-name="Group 96502" transform="translate(17.021 17.021)">
            <circle id="Ellipse_4276" data-name="Ellipse 4276" cx="9.191" cy="9.191" r="9.191" fill="#fb9e36"/>
          </g>
          <g id="Group_96503" data-name="Group 96503" transform="translate(17.021 17.021)">
            <path id="Path_140218" data-name="Path 140218" d="M136.282,348.905a9.207,9.207,0,0,1,6.493-8.786,9.191,9.191,0,1,0,0,17.573A9.207,9.207,0,0,1,136.282,348.905Z" transform="translate(-130.886 -339.714)" fill="#e08d30"/>
          </g>
        </g>
        <g id="Group_96507" data-name="Group 96507" transform="translate(0 44.903)">
          <g id="Group_96505" data-name="Group 96505">
            <circle id="Ellipse_4277" data-name="Ellipse 4277" cx="13.874" cy="13.874" r="13.874" fill="#f1d54e"/>
          </g>
          <g id="Group_96506" data-name="Group 96506" transform="translate(0)">
            <path id="Path_140219" data-name="Path 140219" d="M28.568,230.376a13.877,13.877,0,0,1,10.257-13.395,13.874,13.874,0,1,0,0,26.789A13.878,13.878,0,0,1,28.568,230.376Z" transform="translate(-21.335 -216.502)" fill="#f1d54e"/>
          </g>
        </g>
      </g>
      <g id="Group_96512" data-name="Group 96512" transform="translate(27.406 10.527)">
        <g id="Group_96510" data-name="Group 96510" transform="translate(0 0)">
          <g id="Group_96509" data-name="Group 96509">
            <path id="Path_140220" data-name="Path 140220" d="M81.706,49.221l-4.485,4.485a.753.753,0,0,0-.221.533V78.647a.753.753,0,0,0,.753.753h22.765a.753.753,0,0,0,.753-.753V49.753a.753.753,0,0,0-.753-.753H82.239a.753.753,0,0,0-.533.221Z" transform="translate(-77 -49)" fill="#d2f6e6"/>
          </g>
        </g>
        <g id="Group_96511" data-name="Group 96511">
          <path id="Path_140221" data-name="Path 140221" d="M84.3,78.647V54.239a.754.754,0,0,1,.221-.533l4.485-4.485A.753.753,0,0,1,89.543,49h-7.3a.754.754,0,0,0-.533.221l-4.485,4.485a.753.753,0,0,0-.221.533V78.647a.753.753,0,0,0,.753.753h7.3a.753.753,0,0,1-.753-.753Z" transform="translate(-77 -49)" fill="#d2f6e6"/>
        </g>
      </g>
      <g id="Group_96513" data-name="Group 96513" transform="translate(13.835)">
        <path id="Path_140222" data-name="Path 140222" d="M116.279,49.521a1.611,1.611,0,0,0,1.611-1.611V3.76A3.764,3.764,0,0,0,114.131,0H60.075a3.764,3.764,0,0,0-3.76,3.76v51.81a27.834,27.834,0,0,0-12.592-.857A15.482,15.482,0,1,0,21.635,73.823,27.82,27.82,0,0,0,72.593,95.5h42.646a2.654,2.654,0,0,0,2.651-2.651V55.43a1.611,1.611,0,1,0-3.223,0V92.279H74.1a27.627,27.627,0,0,0,1.851-8.491h4.2l3.512,5.147a2.254,2.254,0,0,0,1.864.985h12.7a2.256,2.256,0,0,0,1.836-3.566l-1.831-2.566h.078a1.611,1.611,0,0,0,0-3.223h-.078L100.062,78a2.256,2.256,0,0,0-1.836-3.567h-12.7a2.254,2.254,0,0,0-1.864.984l-3.513,5.148h-4.2a27.632,27.632,0,0,0-1.844-8.473h1.044a2.258,2.258,0,0,0,2.256-2.256V62.984a2.258,2.258,0,0,0-2.256-2.256H68.3a2.248,2.248,0,0,0-1.619.689,27.907,27.907,0,0,0-7.139-4.635V13.627h55.13V47.91a1.611,1.611,0,0,0,1.611,1.611ZM86.039,86.7l-1.985-2.909H94.272L96.348,86.7Zm0-9.042H96.348l-2.076,2.909H84.054ZM17.058,60.388A12.262,12.262,0,1,1,29.32,72.65,12.276,12.276,0,0,1,17.058,60.388Zm31.116,46.389A24.6,24.6,0,0,1,24.6,75.135a15.423,15.423,0,0,0,4.719.738c.2,0,.4-.008.6-.015a19.3,19.3,0,0,0,28.806,22.48,1.611,1.611,0,1,0-1.766-2.7A16.079,16.079,0,0,1,33.656,75.251,15.553,15.553,0,0,0,43.4,66.811,16.084,16.084,0,0,1,64.183,80.565H58.856a10.8,10.8,0,1,0,0,3.223h5.326a16.013,16.013,0,0,1-2.416,6.982A1.611,1.611,0,1,0,64.486,92.5a19.227,19.227,0,0,0,2.93-8.71h5.3a24.631,24.631,0,0,1-24.547,22.989Zm0-22.989H55.58a7.58,7.58,0,1,1,0-3.223H48.174a1.611,1.611,0,1,0,0,3.223ZM69.263,63.95h4.919V68.87H72.6a27.951,27.951,0,0,0-3.34-4.822v-.1ZM72.72,80.565h-5.3A19.306,19.306,0,0,0,44.543,63.209a15.315,15.315,0,0,0,.049-5.37A24.59,24.59,0,0,1,72.72,80.565ZM69.207,10.4H59.538V3.76a.538.538,0,0,1,.537-.537h9.132V10.4Zm3.223,0V3.223h41.7a.538.538,0,0,1,.537.537V10.4Z" transform="translate(-13.835)"/>
        <path id="Path_140223" data-name="Path 140223" d="M347.76,87.114H322.655a1.611,1.611,0,0,0,0,3.223h25.105a1.611,1.611,0,1,0,0-3.223Z" transform="translate(-255.042 -68.398)"/>
        <path id="Path_140224" data-name="Path 140224" d="M322.655,116.655h14.869a1.611,1.611,0,1,0,0-3.223H322.655a1.611,1.611,0,1,0,0,3.223Z" transform="translate(-255.042 -89.062)"/>
        <path id="Path_140225" data-name="Path 140225" d="M347.76,154.226H322.655a1.611,1.611,0,0,0,0,3.223h25.105a1.611,1.611,0,1,0,0-3.223Z" transform="translate(-255.042 -121.092)"/>
        <path id="Path_140226" data-name="Path 140226" d="M322.655,183.767h14.869a1.611,1.611,0,0,0,0-3.223H322.655a1.611,1.611,0,0,0,0,3.223Z" transform="translate(-255.042 -141.755)"/>
        <path id="Path_140227" data-name="Path 140227" d="M347.76,221.337H322.655a1.611,1.611,0,0,0,0,3.223h25.105a1.611,1.611,0,1,0,0-3.223Z" transform="translate(-255.042 -173.784)"/>
        <path id="Path_140228" data-name="Path 140228" d="M322.655,250.879h14.869a1.611,1.611,0,1,0,0-3.223H322.655a1.611,1.611,0,1,0,0,3.223Z" transform="translate(-255.042 -194.449)"/>
        <path id="Path_140229" data-name="Path 140229" d="M268.193,83.58a2.258,2.258,0,0,0-2.256-2.256h-6.853a2.258,2.258,0,0,0-2.256,2.256v6.853a2.258,2.258,0,0,0,2.256,2.256h6.853a2.258,2.258,0,0,0,2.256-2.256Zm-3.223,5.886h-4.919V84.547h4.919Z" transform="translate(-204.622 -63.852)"/>
        <path id="Path_140230" data-name="Path 140230" d="M268.193,150.692a2.258,2.258,0,0,0-2.256-2.256h-6.853a2.258,2.258,0,0,0-2.256,2.256v6.853a2.258,2.258,0,0,0,2.256,2.256h6.853a2.258,2.258,0,0,0,2.256-2.256Zm-3.223,5.886h-4.919v-4.919h4.919Z" transform="translate(-204.622 -116.545)"/>
        <path id="Path_140231" data-name="Path 140231" d="M265.937,215.547h-6.853a2.258,2.258,0,0,0-2.256,2.256v6.853a2.258,2.258,0,0,0,2.256,2.256h6.853a2.258,2.258,0,0,0,2.256-2.256V217.8A2.258,2.258,0,0,0,265.937,215.547Zm-.967,8.142h-4.919V218.77h4.919Z" transform="translate(-204.622 -169.238)"/>
        <path id="Path_140232" data-name="Path 140232" d="M349.372,290.06a1.611,1.611,0,0,0-1.611-1.611H322.655a1.611,1.611,0,0,0,0,3.223h25.105A1.611,1.611,0,0,0,349.372,290.06Z" transform="translate(-255.042 -226.478)"/>
        <path id="Path_140233" data-name="Path 140233" d="M322.655,314.768a1.611,1.611,0,1,0,0,3.223h14.869a1.611,1.611,0,1,0,0-3.223Z" transform="translate(-255.042 -247.142)"/>
        <path id="Path_140234" data-name="Path 140234" d="M66.325,253.514V252.35a4.307,4.307,0,0,0-.121-8.612H63.223a1.087,1.087,0,0,1,0-2.173h5.254a1.611,1.611,0,0,0,0-3.223H66.325v-1.158a1.611,1.611,0,0,0-3.223,0v1.164a4.307,4.307,0,0,0,.121,8.612h2.982a1.087,1.087,0,1,1,0,2.173H60.951a1.611,1.611,0,0,0,0,3.223H63.1v1.158a1.611,1.611,0,0,0,3.223,0Z" transform="translate(-49.229 -184.962)"/>
        <path id="Path_140235" data-name="Path 140235" d="M71.865,75.123H94.63A2.368,2.368,0,0,0,97,72.758V61.8a1.611,1.611,0,1,0-3.223,0V71.9H72.723V48.705l3.983-3.983H93.772v9.561a1.611,1.611,0,1,0,3.223,0V43.865A2.368,2.368,0,0,0,94.63,41.5H76.35a2.351,2.351,0,0,0-1.672.693l-4.484,4.485A2.349,2.349,0,0,0,69.5,48.35V72.758A2.368,2.368,0,0,0,71.865,75.123Z" transform="translate(-57.541 -32.584)"/>
        <path id="Path_140236" data-name="Path 140236" d="M114.11,74.185H103.946a1.611,1.611,0,1,0,0,3.223H114.11a1.611,1.611,0,1,0,0-3.223Z" transform="translate(-83.321 -58.247)"/>
        <path id="Path_140237" data-name="Path 140237" d="M114.11,99.448H103.946a1.611,1.611,0,1,0,0,3.223H114.11a1.611,1.611,0,1,0,0-3.223Z" transform="translate(-83.321 -78.082)"/>
        <path id="Path_140238" data-name="Path 140238" d="M115.721,126.549a1.611,1.611,0,0,0-1.611-1.611H103.946a1.611,1.611,0,1,0,0,3.223H114.11A1.611,1.611,0,0,0,115.721,126.549Z" transform="translate(-83.321 -98.096)"/>
        <path id="Path_140239" data-name="Path 140239" d="M103.946,150.315a1.611,1.611,0,1,0,0,3.223H108.5a1.611,1.611,0,0,0,0-3.223Z" transform="translate(-83.321 -118.021)"/>
      </g>
    </g>
  </g>
</svg>
