<svg xmlns="http://www.w3.org/2000/svg" width="570" height="321.884" viewBox="0 0 570 321.884">
  <g id="t5-i1" transform="translate(-128.881 -160.72)">
    <path id="Path_139833" data-name="Path 139833" d="M150.779,481.261c.135-2.342-55.008-72.679,9.207-137.619,28.988-29.315,78.023-13.431,70.266-99.068-6.7-73.94,108.974-117.387,180.863-51.371,46.445,42.652,93.465-14.247,167.149,18.037s25.163,120.032,55.4,128.3c59.56,16.287,89.141,87.961,41.656,140.926Z" fill="#fff"/>
    <rect id="Rectangle_32630" data-name="Rectangle 32630" width="47.46" height="121.875" transform="translate(272.915 358.231)" fill="#bdd1f9"/>
    <rect id="Rectangle_32631" data-name="Rectangle 32631" width="47.46" height="161.711" transform="translate(346.749 318.395)" fill="#bdd1f9"/>
    <rect id="Rectangle_32632" data-name="Rectangle 32632" width="51.968" height="204.703" transform="translate(413.881 275.403)" fill="#bdd1f9"/>
    <rect id="Rectangle_32633" data-name="Rectangle 32633" width="47.46" height="233.042" transform="translate(484.364 247.064)" fill="#bdd1f9"/>
    <g id="Group_96142" data-name="Group 96142" transform="translate(465.849 295.333)">
      <path id="Path_139835" data-name="Path 139835" d="M1639.182,812.348l99.749-48.288-44.486,94.825-7.522-43.022Z" transform="translate(-1639.182 -764.061)" fill="#f77d48"/>
    </g>
    <g id="Group_96145" data-name="Group 96145" transform="translate(442.366 288.181)">
      <path id="Path_139836" data-name="Path 139836" d="M1534.467,755.117a18.691,18.691,0,1,1,22.58,13.741A18.691,18.691,0,0,1,1534.467,755.117Z" transform="translate(-1533.932 -732.003)" fill="#ffb93e"/>
      <g id="Group_96143" data-name="Group 96143" transform="translate(1.711 1.874)">
        <path id="Path_139837" data-name="Path 139837" d="M1562.665,773.983a17.03,17.03,0,1,1,10.521-7.693A16.919,16.919,0,0,1,1562.665,773.983Zm-7.812-32.106a16.013,16.013,0,1,0,19.345,11.773A16.031,16.031,0,0,0,1554.853,741.878Z" transform="translate(-1541.603 -740.401)" fill="#ffa412"/>
      </g>
      <g id="Group_96144" data-name="Group 96144" transform="translate(11.982 6.21)">
        <path id="Path_139838" data-name="Path 139838" d="M1597.848,776.784a2.807,2.807,0,0,0-.273-.951,2.054,2.054,0,0,0-.6-.7,3.881,3.881,0,0,0-.987-.519,10.159,10.159,0,0,0-1.43-.4,26.865,26.865,0,0,1-2.635-.712,8.475,8.475,0,0,1-2.083-.992,4.983,4.983,0,0,1-1.447-1.475,5.628,5.628,0,0,1-.564-4.242,4.74,4.74,0,0,1,.935-1.737,5.914,5.914,0,0,1,1.623-1.321,7.887,7.887,0,0,1,2.228-.822l-.34-2.806,2.259-.274.345,2.845a7.077,7.077,0,0,1,2.28.375,5.343,5.343,0,0,1,3.12,2.755,7.112,7.112,0,0,1,.661,2.321l-4.079.494a3.463,3.463,0,0,0-.984-2.269,2.406,2.406,0,0,0-1.965-.553,3.057,3.057,0,0,0-1.072.31,2.072,2.072,0,0,0-.7.577,1.928,1.928,0,0,0-.349.781,2.838,2.838,0,0,0-.032.922,2.6,2.6,0,0,0,.247.861,1.927,1.927,0,0,0,.575.669,3.888,3.888,0,0,0,.994.518,13.254,13.254,0,0,0,1.493.438q1.431.345,2.619.747a8.587,8.587,0,0,1,2.077,1.005,4.816,4.816,0,0,1,2.159,3.631,5.147,5.147,0,0,1-.151,2.12,4.674,4.674,0,0,1-.944,1.724,5.71,5.71,0,0,1-1.641,1.29,8.514,8.514,0,0,1-2.244.8l.316,2.609-2.245.272-.314-2.6a9.533,9.533,0,0,1-2.328-.237,6.053,6.053,0,0,1-2.078-.9,5.419,5.419,0,0,1-1.582-1.7,6.586,6.586,0,0,1-.835-2.639l4.079-.494a4.05,4.05,0,0,0,.449,1.522,2.616,2.616,0,0,0,.819.912,2.546,2.546,0,0,0,1.059.4,4.353,4.353,0,0,0,1.154.013,3.647,3.647,0,0,0,1.144-.311,2.428,2.428,0,0,0,.782-.574,1.936,1.936,0,0,0,.422-.776A2.36,2.36,0,0,0,1597.848,776.784Z" transform="translate(-1587.637 -759.836)" fill="#ffa412"/>
      </g>
    </g>
    <g id="Group_96148" data-name="Group 96148" transform="translate(533.678 231.857)">
      <circle id="Ellipse_4267" data-name="Ellipse 4267" cx="18.203" cy="18.203" r="18.203" transform="translate(0 25.743) rotate(-45)" fill="#ffb93e"/>
      <g id="Group_96146" data-name="Group 96146" transform="translate(9.166 9.373)">
        <path id="Path_139839" data-name="Path 139839" d="M2001.514,554.724a16.585,16.585,0,1,1,11.527-5.315A16.476,16.476,0,0,1,2001.514,554.724Zm-1.264-32.155a15.6,15.6,0,1,0,16.2,14.97A15.612,15.612,0,0,0,2000.25,522.569Z" transform="translate(-1984.277 -521.567)" fill="#ffa412"/>
      </g>
      <g id="Group_96147" data-name="Group 96147" transform="translate(18.633 13.686)">
        <path id="Path_139840" data-name="Path 139840" d="M2036.3,557.89a2.724,2.724,0,0,0-.077-.961,2.006,2.006,0,0,0-.438-.783,3.781,3.781,0,0,0-.842-.686,10.017,10.017,0,0,0-1.289-.656,26.112,26.112,0,0,1-2.379-1.188,8.268,8.268,0,0,1-1.8-1.348,4.864,4.864,0,0,1-1.1-1.687,5.481,5.481,0,0,1,.28-4.159,4.611,4.611,0,0,1,1.228-1.477,5.753,5.753,0,0,1,1.8-.948,7.671,7.671,0,0,1,2.285-.355l.217-2.744,2.209.174-.219,2.782a6.9,6.9,0,0,1,2.1.8,5.2,5.2,0,0,1,2.447,3.232,6.923,6.923,0,0,1,.183,2.343l-3.99-.315a3.373,3.373,0,0,0-.5-2.356,2.342,2.342,0,0,0-1.769-.907,2.981,2.981,0,0,0-1.084.089,2.016,2.016,0,0,0-.776.416,1.881,1.881,0,0,0-.484.678,2.763,2.763,0,0,0-.208.874,2.542,2.542,0,0,0,.07.87,1.87,1.87,0,0,0,.42.749,3.778,3.778,0,0,0,.849.686,12.858,12.858,0,0,0,1.34.706q1.3.606,2.356,1.218a8.362,8.362,0,0,1,1.788,1.361,4.687,4.687,0,0,1,1.36,3.882,5.009,5.009,0,0,1-.553,1.995,4.554,4.554,0,0,1-1.234,1.464,5.544,5.544,0,0,1-1.815.915,8.281,8.281,0,0,1-2.3.335l-.2,2.552-2.195-.174.2-2.539a9.307,9.307,0,0,1-2.176-.675,5.884,5.884,0,0,1-1.81-1.259,5.265,5.265,0,0,1-1.181-1.932,6.411,6.411,0,0,1-.288-2.681l3.99.315a3.944,3.944,0,0,0,.135,1.539,2.556,2.556,0,0,0,.606,1.029,2.477,2.477,0,0,0,.933.59,4.255,4.255,0,0,0,1.1.235,3.552,3.552,0,0,0,1.152-.077,2.368,2.368,0,0,0,.858-.4,1.884,1.884,0,0,0,.552-.66A2.3,2.3,0,0,0,2036.3,557.89Z" transform="translate(-2026.709 -540.898)" fill="#ffa412"/>
      </g>
    </g>
    <g id="Group_96151" data-name="Group 96151" transform="translate(515.545 277.827)">
      <path id="Path_139841" data-name="Path 139841" d="M1861.924,698.374a12.555,12.555,0,1,1,12.775,12.332A12.556,12.556,0,0,1,1861.924,698.374Z" transform="translate(-1861.922 -685.596)" fill="#ffb93e"/>
      <g id="Group_96149" data-name="Group 96149" transform="translate(1.119 1.265)">
        <path id="Path_139842" data-name="Path 139842" d="M1878.577,714.142a11.44,11.44,0,1,1,8.028-3.493A11.363,11.363,0,0,1,1878.577,714.142Zm-.392-22.193a10.757,10.757,0,1,0,10.946,10.565A10.769,10.769,0,0,0,1878.185,691.949Z" transform="translate(-1866.936 -691.265)" fill="#ffa412"/>
      </g>
      <g id="Group_96150" data-name="Group 96150" transform="translate(7.593 4.247)">
        <path id="Path_139843" data-name="Path 139843" d="M1902.553,716.379a1.878,1.878,0,0,0-.039-.664,1.38,1.38,0,0,0-.29-.547,2.6,2.6,0,0,0-.57-.485,6.92,6.92,0,0,0-.879-.472,17.991,17.991,0,0,1-1.623-.854,5.679,5.679,0,0,1-1.219-.957,3.35,3.35,0,0,1-.731-1.179,3.78,3.78,0,0,1,.255-2.864,3.181,3.181,0,0,1,.869-1,3.971,3.971,0,0,1,1.259-.627,5.291,5.291,0,0,1,1.581-.211l.191-1.889,1.521.153-.193,1.916a4.752,4.752,0,0,1,1.439.582,3.587,3.587,0,0,1,1.639,2.265,4.772,4.772,0,0,1,.091,1.619l-2.746-.276a2.327,2.327,0,0,0-.311-1.632,1.616,1.616,0,0,0-1.206-.652,2.065,2.065,0,0,0-.749.045,1.388,1.388,0,0,0-.541.275,1.3,1.3,0,0,0-.344.461,1.9,1.9,0,0,0-.156.6,1.746,1.746,0,0,0,.035.6,1.292,1.292,0,0,0,.279.523,2.622,2.622,0,0,0,.575.486,8.846,8.846,0,0,0,.914.507q.886.437,1.606.875a5.775,5.775,0,0,1,1.213.965,3.235,3.235,0,0,1,.88,2.7,3.46,3.46,0,0,1-.411,1.367,3.144,3.144,0,0,1-.873.991,3.836,3.836,0,0,1-1.266.6,5.725,5.725,0,0,1-1.589.2l-.177,1.757-1.511-.152.176-1.748a6.393,6.393,0,0,1-1.491-.5,4.066,4.066,0,0,1-1.23-.9,3.638,3.638,0,0,1-.785-1.35,4.422,4.422,0,0,1-.159-1.853l2.746.276a2.735,2.735,0,0,0,.071,1.064,1.77,1.77,0,0,0,.4.718,1.711,1.711,0,0,0,.635.421,2.939,2.939,0,0,0,.755.179,2.445,2.445,0,0,0,.8-.036,1.631,1.631,0,0,0,.6-.261,1.3,1.3,0,0,0,.391-.446A1.583,1.583,0,0,0,1902.553,716.379Z" transform="translate(-1895.955 -704.63)" fill="#ffa412"/>
      </g>
    </g>
    <g id="Group_96154" data-name="Group 96154" transform="translate(459.115 209.575)">
      <circle id="Ellipse_4268" data-name="Ellipse 4268" cx="30.637" cy="30.637" r="30.637" transform="translate(0 4.155) rotate(-3.888)" fill="#ffb93e"/>
      <g id="Group_96152" data-name="Group 96152" transform="translate(4.83 5.06)">
        <path id="Path_139844" data-name="Path 139844" d="M1667.351,456.794a27.913,27.913,0,1,1,16.168-13.965A27.731,27.731,0,0,1,1667.351,456.794Zm-17.025-51.417a26.249,26.249,0,1,0,33.169,16.667A26.279,26.279,0,0,0,1650.325,405.377Z" transform="translate(-1630.648 -402.367)" fill="#ffa412"/>
      </g>
      <g id="Group_96153" data-name="Group 96153" transform="translate(21.098 12.222)">
        <path id="Path_139845" data-name="Path 139845" d="M1721.416,461.716a4.594,4.594,0,0,0-.572-1.518,3.369,3.369,0,0,0-1.073-1.062,6.359,6.359,0,0,0-1.681-.717,16.814,16.814,0,0,0-2.39-.461,43.923,43.923,0,0,1-4.4-.813,13.912,13.912,0,0,1-3.534-1.344,8.173,8.173,0,0,1-2.558-2.217,9.223,9.223,0,0,1-1.485-6.856,7.757,7.757,0,0,1,1.3-2.961,9.676,9.676,0,0,1,2.477-2.374,12.911,12.911,0,0,1,3.531-1.639l-.928-4.539,3.654-.747.941,4.6a11.587,11.587,0,0,1,3.775.311,8.758,8.758,0,0,1,5.463,4.087,11.658,11.658,0,0,1,1.387,3.705l-6.6,1.349a5.674,5.674,0,0,0-1.909-3.577,3.942,3.942,0,0,0-3.283-.644,5.011,5.011,0,0,0-1.711.649,3.392,3.392,0,0,0-1.062,1.034,3.169,3.169,0,0,0-.467,1.322,4.671,4.671,0,0,0,.071,1.51,4.276,4.276,0,0,0,.519,1.374,3.149,3.149,0,0,0,1.029,1.016,6.367,6.367,0,0,0,1.692.715,21.579,21.579,0,0,0,2.5.517q2.384.375,4.378.873a14.052,14.052,0,0,1,3.527,1.368,7.888,7.888,0,0,1,4.009,5.644,8.434,8.434,0,0,1,.034,3.484,7.665,7.665,0,0,1-1.313,2.942,9.366,9.366,0,0,1-2.51,2.326,13.962,13.962,0,0,1-3.56,1.612l.863,4.22-3.631.743-.859-4.2a15.644,15.644,0,0,1-3.834-.078,9.915,9.915,0,0,1-3.515-1.193,8.874,8.874,0,0,1-2.81-2.575,10.8,10.8,0,0,1-1.715-4.2l6.6-1.349a6.652,6.652,0,0,0,.936,2.427,4.3,4.3,0,0,0,1.46,1.381,4.174,4.174,0,0,0,1.783.52,7.156,7.156,0,0,0,1.888-.132,5.969,5.969,0,0,0,1.828-.661,3.982,3.982,0,0,0,1.2-1.042,3.167,3.167,0,0,0,.586-1.324A3.862,3.862,0,0,0,1721.416,461.716Z" transform="translate(-1703.561 -434.467)" fill="#ffa412"/>
      </g>
    </g>
    <g id="Group_96157" data-name="Group 96157" transform="translate(559.421 295.799)">
      <path id="Path_139854" data-name="Path 139854" d="M2201.231,895.353s13.867,14.378,14.523,19.789S2209.111,929,2209.111,929Z" transform="translate(-2169.403 -866.526)" fill="#ed7d2b"/>
      <path id="Path_139855" data-name="Path 139855" d="M2107.846,1554.635s-.49,7.626-1.965,7.733c-.2.014-7.485,0-7.485,0l-9.3-.074a3.019,3.019,0,0,1,2.786-2.71c2.72-.468,7.277-2.369,8.932-5.96C2102.552,1549.845,2107.846,1554.635,2107.846,1554.635Z" transform="translate(-2082.283 -1376.799)" fill="#2e5a99"/>
      <path id="Path_139856" data-name="Path 139856" d="M2200.727,1554.837s-.489,7.626-1.965,7.733c-.2.014-7.485,0-7.485,0l-9.3-.074a3.019,3.019,0,0,1,2.786-2.709c2.72-.468,7.277-2.37,8.932-5.96C2195.433,1550.046,2200.727,1554.837,2200.727,1554.837Z" transform="translate(-2154.441 -1376.956)" fill="#18417c"/>
      <path id="Path_139857" data-name="Path 139857" d="M2127.763,1155.293s2.4,15.568,11.417,43.214,10.228,39.612,10.228,39.612l9.738-.252s.149-30.193-4-44.094-.795-50.086-.795-50.086Z" transform="translate(-2112.326 -1059.454)" fill="#163560"/>
      <path id="Path_139858" data-name="Path 139858" d="M2106.591,1147.2a377.686,377.686,0,0,0,3.6,52.256c4,28.8,2.593,41.024,2.593,41.024l9.718.344s5.87-28.793,4.236-43.209,8.061-49.439,8.061-49.439Z" transform="translate(-2095.87 -1062.186)" fill="#1c468a"/>
      <path id="Path_139859" data-name="Path 139859" d="M2147.383,861.027l-5.185,3.384-7.48-1.411c.1-.6.6-3.107,1.059-5.373.027-.134.055-.268.081-.4.389-1.929.726-3.586.726-3.586l7-3.069,2.608-1.144c-.007.04-.207,2.141-.234,2.447A17.817,17.817,0,0,0,2147.383,861.027Z" transform="translate(-2117.729 -830.849)" fill="#ffb27d"/>
      <path id="Path_139860" data-name="Path 139860" d="M2132.9,885.39c.145-.061,9.017-2.658,9.979-2.338s1.529,2.185,1.529,2.185l-14.509,3.247A7.2,7.2,0,0,1,2132.9,885.39Z" transform="translate(-2113.982 -856.949)" fill="#ed7d2b"/>
      <path id="Path_139861" data-name="Path 139861" d="M2132.749,952.361c-1.518,6.853-26.531,7.611-32.965,1.374-.732-.711-.761-4.011-.475-8.461.56-8.693,2.326-21.767,2.408-28.448a52.858,52.858,0,0,1,1.087-9.521,77.3,77.3,0,0,1,3.2-11.392s12.225-3.923,14.509-3.246C2131.517,895.927,2134.266,945.509,2132.749,952.361Z" transform="translate(-2090.09 -864.378)" fill="#f99746"/>
      <path id="Path_139862" data-name="Path 139862" d="M2099.9,992.059c.56-8.693,2.325-21.767,2.408-28.448a52.858,52.858,0,0,1,1.087-9.521l7.352-1.281S2117.865,982.172,2099.9,992.059Z" transform="translate(-2090.677 -911.163)" fill="#ed7d2b"/>
      <path id="Path_139863" data-name="Path 139863" d="M2110.529,1070.488a1.73,1.73,0,0,1-.555,2,3.352,3.352,0,0,0-1.5,3.055c.239.952,2.543,2.51,3.343,2.261s2.432-1.5,2.257-2,1.1-4.4-.842-5.911S2110.529,1070.488,2110.529,1070.488Z" transform="translate(-2097.303 -1001.701)" fill="#ffb27d"/>
      <path id="Path_139864" data-name="Path 139864" d="M2080.1,899.661s-7.17,1.326-12.9,9.729-9.5,14.652-8.454,17.688,10.612,13.576,12.265,13.58,4.324-1.193,4.48-3.9c0,0-6.729-10.133-5.4-11.646.57-.646,8.78-7.283,9.944-4.274C2081.967,925.817,2080.1,899.661,2080.1,899.661Z" transform="translate(-2058.575 -869.873)" fill="#f99746"/>
      <path id="Path_139865" data-name="Path 139865" d="M2149.117,855.953c-1.541,2.6-7.265,4.832-9.652,5.654.027-.134.055-.268.081-.4.389-1.929.726-3.586.726-3.586l7-3.069C2148.813,854.536,2149.752,854.884,2149.117,855.953Z" transform="translate(-2121.417 -834.829)" fill="#fca56b"/>
      <path id="Path_139866" data-name="Path 139866" d="M2126.409,801.9s11.251,3.536,13.346-3.5,4.957-11.325-2.138-13.881-9.3-.286-10.567,1.893S2123.536,800.8,2126.409,801.9Z" transform="translate(-2110.188 -779.539)" fill="#ffb27d"/>
      <path id="Path_139867" data-name="Path 139867" d="M2132.473,772.343s.7,8.2,2.4,7.847,3.235-.613,2.981,1.858-2.611,5.319,2.613,5.768,12.764-13.01,11.335-15.564C2147.673,764.881,2126.507,763.35,2132.473,772.343Z" transform="translate(-2115.168 -766.149)" fill="#163560"/>
    </g>
    <g id="Group_96186" data-name="Group 96186" transform="translate(420.073 388.357)">
      <g id="Group_96182" data-name="Group 96182" transform="translate(37.471)">
        <g id="Group_96180" data-name="Group 96180" transform="translate(0 35.36)">
          <g id="Group_96159" data-name="Group 96159" transform="translate(5.98 51.783)">
            <path id="Path_139868" data-name="Path 139868" d="M1687.409,1572.712v2.95a1,1,0,0,1-.233.634,1.346,1.346,0,0,1-.634.425,1.3,1.3,0,0,1-.248.06,1.548,1.548,0,0,1-.24.017h-55.938a1.31,1.31,0,0,1-1.34-.966c0-.037-.01-.073-.012-.112,0-.019,0-.038,0-.058v-2.95c0-.019,0-.038,0-.057,0-.038.007-.075.012-.112a1.31,1.31,0,0,1,1.34-.966h55.938a1.533,1.533,0,0,1,.24.017,1.472,1.472,0,0,1,.248.059,1.349,1.349,0,0,1,.634.425A1.006,1.006,0,0,1,1687.409,1572.712Z" transform="translate(-1628.762 -1571.576)" fill="#ffb93e"/>
            <path id="Path_139869" data-name="Path 139869" d="M1659.94,1576.8h-29.969a1.2,1.2,0,0,1-1.163-.841.979.979,0,0,1-.033-.125c0-.037-.01-.073-.012-.112,0-.019,0-.038,0-.058v-2.95c0-.019,0-.038,0-.057,0-.038.007-.075.012-.112a.966.966,0,0,1,.033-.125,1.2,1.2,0,0,1,1.163-.841h26.289A9.148,9.148,0,0,0,1659.94,1576.8Z" transform="translate(-1628.762 -1571.576)" fill="#ffa412"/>
            <g id="Group_96158" data-name="Group 96158" transform="translate(20.554)">
              <rect id="Rectangle_32634" data-name="Rectangle 32634" width="0.636" height="5.222" transform="translate(30.65 0)" fill="#ffa412"/>
              <rect id="Rectangle_32635" data-name="Rectangle 32635" width="0.636" height="5.222" transform="translate(28.498 0)" fill="#ffa412"/>
              <rect id="Rectangle_32636" data-name="Rectangle 32636" width="0.636" height="5.222" transform="translate(25.917 0)" fill="#ffa412"/>
              <rect id="Rectangle_32637" data-name="Rectangle 32637" width="0.636" height="5.222" transform="translate(21.962 0)" fill="#ffa412"/>
              <rect id="Rectangle_32638" data-name="Rectangle 32638" width="0.636" height="5.222" transform="translate(17.778 0)" fill="#ffa412"/>
              <rect id="Rectangle_32639" data-name="Rectangle 32639" width="0.636" height="5.222" transform="translate(11.366 0)" fill="#ffa412"/>
              <rect id="Rectangle_32640" data-name="Rectangle 32640" width="0.636" height="5.222" transform="translate(5.361 0)" fill="#ffa412"/>
              <rect id="Rectangle_32641" data-name="Rectangle 32641" width="0.636" height="5.222" transform="translate(0 0)" fill="#ffa412"/>
              <rect id="Rectangle_32642" data-name="Rectangle 32642" width="0.636" height="5.222" transform="translate(32.699 0)" fill="#ffa412"/>
              <rect id="Rectangle_32643" data-name="Rectangle 32643" width="0.636" height="5.222" transform="translate(34.052 0)" fill="#ffa412"/>
              <rect id="Rectangle_32644" data-name="Rectangle 32644" width="0.636" height="5.222" transform="translate(35.359 0)" fill="#ffa412"/>
              <path id="Path_139870" data-name="Path 139870" d="M1884.407,1571.592v5.186a1.585,1.585,0,0,1-.239.018h-.4v-5.222h.4A1.6,1.6,0,0,1,1884.407,1571.592Z" transform="translate(-1847.429 -1571.574)" fill="#ffa412"/>
              <path id="Path_139871" data-name="Path 139871" d="M1888.365,1572.343v4.218a1.346,1.346,0,0,1-.635.425v-5.069A1.347,1.347,0,0,1,1888.365,1572.343Z" transform="translate(-1850.504 -1571.841)" fill="#ffa412"/>
            </g>
          </g>
          <g id="Group_96161" data-name="Group 96161" transform="translate(0 46.56)">
            <path id="Path_139872" data-name="Path 139872" d="M1660.6,1549.3v2.948a1.015,1.015,0,0,1-.231.636,1.326,1.326,0,0,1-.128.135,1.459,1.459,0,0,1-.756.348,1.527,1.527,0,0,1-.238.019h-55.94a1.31,1.31,0,0,1-1.339-.968c-.005-.037-.01-.073-.012-.11,0-.019,0-.039,0-.059V1549.3c0-.019,0-.04,0-.059,0-.037.007-.073.012-.11a1.31,1.31,0,0,1,1.339-.968h55.94c.035,0,.072,0,.107.005a.249.249,0,0,1,.038,0,.005.005,0,0,1,.007,0,.256.256,0,0,1,.051.005l.035.005a1.482,1.482,0,0,1,.248.058c.047.016.093.033.136.052h0l.088.042.049.028a.358.358,0,0,1,.046.028,1.034,1.034,0,0,1,.164.121c.018.014.031.029.047.044s.019.017.028.026a.1.1,0,0,1,.014.016l.012.012a.535.535,0,0,1,.051.058A1.01,1.01,0,0,1,1660.6,1549.3Z" transform="translate(-1601.959 -1548.165)" fill="#ffb93e"/>
            <path id="Path_139873" data-name="Path 139873" d="M1633.135,1553.388h-29.969a1.2,1.2,0,0,1-1.161-.844.93.93,0,0,1-.032-.125c-.005-.037-.01-.073-.012-.11,0-.019,0-.039,0-.059V1549.3c0-.019,0-.04,0-.059,0-.037.007-.073.012-.11a.932.932,0,0,1,.032-.125,1.2,1.2,0,0,1,1.161-.843h26.289c.01.044.023.086.037.129A9.135,9.135,0,0,0,1633.135,1553.388Z" transform="translate(-1601.959 -1548.165)" fill="#ffa412"/>
            <g id="Group_96160" data-name="Group 96160" transform="translate(20.553 0)">
              <rect id="Rectangle_32645" data-name="Rectangle 32645" width="0.636" height="5.222" transform="translate(30.65 0)" fill="#ffa412"/>
              <rect id="Rectangle_32646" data-name="Rectangle 32646" width="0.636" height="5.222" transform="translate(28.498 0)" fill="#ffa412"/>
              <rect id="Rectangle_32647" data-name="Rectangle 32647" width="0.636" height="5.222" transform="translate(25.918 0)" fill="#ffa412"/>
              <rect id="Rectangle_32648" data-name="Rectangle 32648" width="0.636" height="5.222" transform="translate(21.962 0)" fill="#ffa412"/>
              <rect id="Rectangle_32649" data-name="Rectangle 32649" width="0.636" height="5.222" transform="translate(17.779 0)" fill="#ffa412"/>
              <rect id="Rectangle_32650" data-name="Rectangle 32650" width="0.636" height="5.222" transform="translate(11.366 0)" fill="#ffa412"/>
              <rect id="Rectangle_32651" data-name="Rectangle 32651" width="0.636" height="5.222" transform="translate(5.362 0)" fill="#ffa412"/>
              <rect id="Rectangle_32652" data-name="Rectangle 32652" width="0.636" height="5.222" transform="translate(0 0)" fill="#ffa412"/>
              <rect id="Rectangle_32653" data-name="Rectangle 32653" width="0.636" height="5.222" transform="translate(32.699 0)" fill="#ffa412"/>
              <rect id="Rectangle_32654" data-name="Rectangle 32654" width="0.636" height="5.222" transform="translate(34.052 0)" fill="#ffa412"/>
              <rect id="Rectangle_32655" data-name="Rectangle 32655" width="0.636" height="5.222" transform="translate(35.359 0)" fill="#ffa412"/>
              <path id="Path_139874" data-name="Path 139874" d="M1857.6,1548.185v5.186a1.6,1.6,0,0,1-.239.018h-.4v-5.222h.4A1.556,1.556,0,0,1,1857.6,1548.185Z" transform="translate(-1820.621 -1548.167)" fill="#ffa412"/>
              <path id="Path_139875" data-name="Path 139875" d="M1861.559,1548.937v4.218a1.345,1.345,0,0,1-.635.425v-5.069A1.349,1.349,0,0,1,1861.559,1548.937Z" transform="translate(-1823.698 -1548.434)" fill="#ffa412"/>
            </g>
          </g>
          <g id="Group_96163" data-name="Group 96163" transform="translate(2.89 41.467)">
            <path id="Path_139876" data-name="Path 139876" d="M1673.559,1526.478v2.95a1,1,0,0,1-.232.634,1.337,1.337,0,0,1-.635.424,1.576,1.576,0,0,1-.248.06,1.747,1.747,0,0,1-.238.017h-55.94a1.557,1.557,0,0,1-.624-.129,1.182,1.182,0,0,1-.713-.825c-.005-.025-.007-.049-.011-.073s0-.033,0-.051,0-.038,0-.057v-2.95c0-.019,0-.039,0-.058a.758.758,0,0,1,.012-.11,1.308,1.308,0,0,1,1.339-.968h55.94a1.51,1.51,0,0,1,.238.017,1.426,1.426,0,0,1,.248.057,1.358,1.358,0,0,1,.635.427A1,1,0,0,1,1673.559,1526.478Z" transform="translate(-1614.914 -1525.341)" fill="#ffb93e"/>
            <path id="Path_139877" data-name="Path 139877" d="M1646.091,1530.563h-29.969a1.251,1.251,0,0,1-.556-.129,1.147,1.147,0,0,1-.636-.825c-.005-.025-.007-.049-.011-.073s0-.033,0-.051,0-.038,0-.057v-2.95c0-.019,0-.039,0-.058a.758.758,0,0,1,.012-.11,1.012,1.012,0,0,1,.031-.122,1.2,1.2,0,0,1,1.162-.846h26.289a9.167,9.167,0,0,0,3.5,5.092C1645.966,1530.478,1646.028,1530.522,1646.091,1530.563Z" transform="translate(-1614.914 -1525.341)" fill="#ffa412"/>
            <g id="Group_96162" data-name="Group 96162" transform="translate(20.553)">
              <rect id="Rectangle_32656" data-name="Rectangle 32656" width="0.636" height="5.222" transform="translate(30.65 0)" fill="#ffa412"/>
              <rect id="Rectangle_32657" data-name="Rectangle 32657" width="0.636" height="5.222" transform="translate(28.498 0)" fill="#ffa412"/>
              <rect id="Rectangle_32658" data-name="Rectangle 32658" width="0.636" height="5.222" transform="translate(25.917 0)" fill="#ffa412"/>
              <rect id="Rectangle_32659" data-name="Rectangle 32659" width="0.636" height="5.222" transform="translate(21.962 0)" fill="#ffa412"/>
              <rect id="Rectangle_32660" data-name="Rectangle 32660" width="0.636" height="5.222" transform="translate(17.779 0)" fill="#ffa412"/>
              <rect id="Rectangle_32661" data-name="Rectangle 32661" width="0.636" height="5.222" transform="translate(11.366 0)" fill="#ffa412"/>
              <rect id="Rectangle_32662" data-name="Rectangle 32662" width="0.636" height="5.222" transform="translate(5.361 0)" fill="#ffa412"/>
              <rect id="Rectangle_32663" data-name="Rectangle 32663" width="0.636" height="5.222" transform="translate(0 0)" fill="#ffa412"/>
              <rect id="Rectangle_32664" data-name="Rectangle 32664" width="0.636" height="5.222" transform="translate(32.699 0)" fill="#ffa412"/>
              <rect id="Rectangle_32665" data-name="Rectangle 32665" width="0.636" height="5.222" transform="translate(34.052 0)" fill="#ffa412"/>
              <rect id="Rectangle_32666" data-name="Rectangle 32666" width="0.636" height="5.222" transform="translate(35.359 0)" fill="#ffa412"/>
              <path id="Path_139878" data-name="Path 139878" d="M1870.554,1525.357v5.186a1.568,1.568,0,0,1-.239.018h-.4v-5.222h.4A1.538,1.538,0,0,1,1870.554,1525.357Z" transform="translate(-1833.576 -1525.339)" fill="#ffa412"/>
              <path id="Path_139879" data-name="Path 139879" d="M1874.513,1526.107v4.218a1.346,1.346,0,0,1-.635.425v-5.069A1.348,1.348,0,0,1,1874.513,1526.107Z" transform="translate(-1836.652 -1525.605)" fill="#ffa412"/>
            </g>
          </g>
          <g id="Group_96165" data-name="Group 96165" transform="translate(4.231 36.245)">
            <path id="Path_139880" data-name="Path 139880" d="M1679.567,1503.069v2.948a1,1,0,0,1-.233.634c-.019.024-.04.047-.061.07a1.3,1.3,0,0,1-.386.281,1.569,1.569,0,0,1-.187.075,1.459,1.459,0,0,1-.248.058c-.038.005-.077.01-.117.014s-.082.005-.122.005h-55.938a1.311,1.311,0,0,1-1.34-.968,1.064,1.064,0,0,1-.012-.11v-3.067a1.248,1.248,0,0,1,1.192-1.07c.052-.005.106-.008.161-.008h55.938c.04,0,.082,0,.122.005a1.16,1.16,0,0,1,.117.014,1.494,1.494,0,0,1,.248.057,1.35,1.35,0,0,1,.634.425A1,1,0,0,1,1679.567,1503.069Z" transform="translate(-1620.922 -1501.932)" fill="#ffb93e"/>
            <path id="Path_139881" data-name="Path 139881" d="M1652.1,1507.155h-29.969a1.2,1.2,0,0,1-1.163-.843,1,1,0,0,1-.033-.125,1.064,1.064,0,0,1-.012-.11v-3.067a1.175,1.175,0,0,1,1.064-1.07,1.356,1.356,0,0,1,.144-.008h26.289s0,.005,0,.008A9.161,9.161,0,0,0,1652.1,1507.155Z" transform="translate(-1620.922 -1501.932)" fill="#ffa412"/>
            <g id="Group_96164" data-name="Group 96164" transform="translate(20.552)">
              <rect id="Rectangle_32667" data-name="Rectangle 32667" width="0.636" height="5.222" transform="translate(30.651 0)" fill="#ffa412"/>
              <rect id="Rectangle_32668" data-name="Rectangle 32668" width="0.636" height="5.222" transform="translate(28.499 0)" fill="#ffa412"/>
              <rect id="Rectangle_32669" data-name="Rectangle 32669" width="0.636" height="5.222" transform="translate(25.918 0)" fill="#ffa412"/>
              <rect id="Rectangle_32670" data-name="Rectangle 32670" width="0.636" height="5.222" transform="translate(21.962 0)" fill="#ffa412"/>
              <rect id="Rectangle_32671" data-name="Rectangle 32671" width="0.636" height="5.222" transform="translate(17.779 0)" fill="#ffa412"/>
              <rect id="Rectangle_32672" data-name="Rectangle 32672" width="0.636" height="5.222" transform="translate(11.366 0)" fill="#ffa412"/>
              <rect id="Rectangle_32673" data-name="Rectangle 32673" width="0.636" height="5.222" transform="translate(5.361 0)" fill="#ffa412"/>
              <rect id="Rectangle_32674" data-name="Rectangle 32674" width="0.636" height="5.222" transform="translate(0 0)" fill="#ffa412"/>
              <rect id="Rectangle_32675" data-name="Rectangle 32675" width="0.636" height="5.222" transform="translate(32.699 0)" fill="#ffa412"/>
              <rect id="Rectangle_32676" data-name="Rectangle 32676" width="0.636" height="5.222" transform="translate(34.052 0)" fill="#ffa412"/>
              <rect id="Rectangle_32677" data-name="Rectangle 32677" width="0.636" height="5.222" transform="translate(35.359 0)" fill="#ffa412"/>
              <path id="Path_139882" data-name="Path 139882" d="M1876.56,1501.95v5.186a1.542,1.542,0,0,1-.238.018h-.4v-5.222h.4A1.512,1.512,0,0,1,1876.56,1501.95Z" transform="translate(-1839.582 -1501.932)" fill="#ffa412"/>
              <path id="Path_139883" data-name="Path 139883" d="M1880.52,1502.7v4.218a1.347,1.347,0,0,1-.635.425v-5.069A1.346,1.346,0,0,1,1880.52,1502.7Z" transform="translate(-1842.659 -1502.198)" fill="#ffa412"/>
            </g>
          </g>
          <g id="Group_96167" data-name="Group 96167" transform="translate(0.117 31.03)">
            <path id="Path_139884" data-name="Path 139884" d="M1661.129,1479.7v2.948a1,1,0,0,1-.231.635,1.339,1.339,0,0,1-.636.426,1.4,1.4,0,0,1-.247.058.589.589,0,0,1-.078.011h-.01a.346.346,0,0,1-.042,0l-.036,0h-56.01a1.279,1.279,0,0,1-1.353-1.078.6.6,0,0,1,0-.06V1479.7c0-.019,0-.04,0-.059s0-.032,0-.047a1.225,1.225,0,0,1,1.015-.995.314.314,0,0,1,.04-.009,1.609,1.609,0,0,1,.294-.028h55.938c.042,0,.08,0,.121.005l.05.005h.005c.021,0,.042.005.063.009a1.438,1.438,0,0,1,.247.058,1.338,1.338,0,0,1,.636.426A1,1,0,0,1,1661.129,1479.7Z" transform="translate(-1602.483 -1478.56)" fill="#ffb93e"/>
            <path id="Path_139885" data-name="Path 139885" d="M1633.66,1483.783h-29.968a1.183,1.183,0,0,1-1.208-1.078.6.6,0,0,1,0-.06V1479.7c0-.019,0-.04,0-.059s0-.032,0-.047a1.166,1.166,0,0,1,.939-1,.241.241,0,0,1,.05-.01,1.24,1.24,0,0,1,.215-.019h26.287c0,.014.007.025.01.038a9.153,9.153,0,0,0,3.657,5.176Z" transform="translate(-1602.483 -1478.56)" fill="#ffa412"/>
            <g id="Group_96166" data-name="Group 96166" transform="translate(20.553 0.001)">
              <rect id="Rectangle_32678" data-name="Rectangle 32678" width="0.636" height="5.222" transform="translate(30.65 0)" fill="#ffa412"/>
              <rect id="Rectangle_32679" data-name="Rectangle 32679" width="0.636" height="5.222" transform="translate(28.498 0)" fill="#ffa412"/>
              <rect id="Rectangle_32680" data-name="Rectangle 32680" width="0.636" height="5.222" transform="translate(25.917 0)" fill="#ffa412"/>
              <rect id="Rectangle_32681" data-name="Rectangle 32681" width="0.636" height="5.222" transform="translate(21.962 0)" fill="#ffa412"/>
              <rect id="Rectangle_32682" data-name="Rectangle 32682" width="0.636" height="5.222" transform="translate(17.779 0)" fill="#ffa412"/>
              <rect id="Rectangle_32683" data-name="Rectangle 32683" width="0.636" height="5.222" transform="translate(11.366 0)" fill="#ffa412"/>
              <rect id="Rectangle_32684" data-name="Rectangle 32684" width="0.636" height="5.222" transform="translate(5.361 0)" fill="#ffa412"/>
              <rect id="Rectangle_32685" data-name="Rectangle 32685" width="0.636" height="5.222" transform="translate(0 0)" fill="#ffa412"/>
              <rect id="Rectangle_32686" data-name="Rectangle 32686" width="0.636" height="5.222" transform="translate(32.699 0)" fill="#ffa412"/>
              <rect id="Rectangle_32687" data-name="Rectangle 32687" width="0.636" height="5.222" transform="translate(34.052 0)" fill="#ffa412"/>
              <rect id="Rectangle_32688" data-name="Rectangle 32688" width="0.636" height="5.222" transform="translate(35.359 0)" fill="#ffa412"/>
              <path id="Path_139886" data-name="Path 139886" d="M1858.127,1478.581v5.186a1.6,1.6,0,0,1-.239.018h-.4v-5.222h.4A1.551,1.551,0,0,1,1858.127,1478.581Z" transform="translate(-1821.149 -1478.563)" fill="#ffa412"/>
              <path id="Path_139887" data-name="Path 139887" d="M1862.086,1479.33v4.219a1.349,1.349,0,0,1-.635.425v-5.069A1.352,1.352,0,0,1,1862.086,1479.33Z" transform="translate(-1824.225 -1478.829)" fill="#ffa412"/>
            </g>
          </g>
          <g id="Group_96169" data-name="Group 96169" transform="translate(0 25.845)">
            <path id="Path_139888" data-name="Path 139888" d="M1660.6,1456.459v2.948a1.011,1.011,0,0,1-.231.634,1.5,1.5,0,0,1-.128.136,1.4,1.4,0,0,1-.508.29,1.471,1.471,0,0,1-.192.049h-.005c-.017,0-.033.007-.05.009a1.557,1.557,0,0,1-.238.019h-55.94a1.425,1.425,0,0,1-.175-.01c-.023,0-.045-.005-.066-.009a1.258,1.258,0,0,1-1.1-.961.918.918,0,0,1-.01-.1c0-.021,0-.04,0-.059v-2.948c0-.021,0-.04,0-.059,0-.037.007-.073.012-.11a1.31,1.31,0,0,1,1.339-.968h55.94c.035,0,.072,0,.107,0l.014,0a.18.18,0,0,0,.031,0,.5.5,0,0,1,.051.007.127.127,0,0,1,.035.005,1.435,1.435,0,0,1,.248.058c.047.016.093.033.136.052h0a1.373,1.373,0,0,1,.447.315c.017.019.035.039.051.058A1.015,1.015,0,0,1,1660.6,1456.459Z" transform="translate(-1601.959 -1455.321)" fill="#ffb93e"/>
            <path id="Path_139889" data-name="Path 139889" d="M1633.135,1460.544h-29.969l-.07,0-.077-.007a1.182,1.182,0,0,1-1.049-.971.918.918,0,0,1-.01-.1c0-.021,0-.04,0-.059v-2.948c0-.021,0-.04,0-.059,0-.037.007-.073.012-.11a.925.925,0,0,1,.032-.125,1.2,1.2,0,0,1,1.161-.844h26.289c.01.044.023.086.037.129a9.137,9.137,0,0,0,3.589,5.056C1633.1,1460.52,1633.118,1460.53,1633.135,1460.544Z" transform="translate(-1601.959 -1455.321)" fill="#ffa412"/>
            <g id="Group_96168" data-name="Group 96168" transform="translate(20.553 0)">
              <rect id="Rectangle_32689" data-name="Rectangle 32689" width="0.636" height="5.222" transform="translate(30.65 0)" fill="#ffa412"/>
              <rect id="Rectangle_32690" data-name="Rectangle 32690" width="0.636" height="5.222" transform="translate(28.498 0)" fill="#ffa412"/>
              <rect id="Rectangle_32691" data-name="Rectangle 32691" width="0.636" height="5.222" transform="translate(25.918 0)" fill="#ffa412"/>
              <rect id="Rectangle_32692" data-name="Rectangle 32692" width="0.636" height="5.222" transform="translate(21.962 0)" fill="#ffa412"/>
              <rect id="Rectangle_32693" data-name="Rectangle 32693" width="0.636" height="5.222" transform="translate(17.779 0)" fill="#ffa412"/>
              <rect id="Rectangle_32694" data-name="Rectangle 32694" width="0.636" height="5.222" transform="translate(11.366 0)" fill="#ffa412"/>
              <rect id="Rectangle_32695" data-name="Rectangle 32695" width="0.636" height="5.222" transform="translate(5.362 0)" fill="#ffa412"/>
              <rect id="Rectangle_32696" data-name="Rectangle 32696" width="0.636" height="5.222" transform="translate(0 0)" fill="#ffa412"/>
              <rect id="Rectangle_32697" data-name="Rectangle 32697" width="0.636" height="5.222" transform="translate(32.699 0)" fill="#ffa412"/>
              <rect id="Rectangle_32698" data-name="Rectangle 32698" width="0.636" height="5.222" transform="translate(34.052 0)" fill="#ffa412"/>
              <rect id="Rectangle_32699" data-name="Rectangle 32699" width="0.636" height="5.222" transform="translate(35.359 0)" fill="#ffa412"/>
              <path id="Path_139890" data-name="Path 139890" d="M1857.6,1455.341v5.186a1.571,1.571,0,0,1-.239.018h-.4v-5.222h.4A1.571,1.571,0,0,1,1857.6,1455.341Z" transform="translate(-1820.621 -1455.323)" fill="#ffa412"/>
              <path id="Path_139891" data-name="Path 139891" d="M1861.559,1456.092v4.218a1.349,1.349,0,0,1-.635.425v-5.069A1.349,1.349,0,0,1,1861.559,1456.092Z" transform="translate(-1823.698 -1455.589)" fill="#ffa412"/>
            </g>
          </g>
          <g id="Group_96171" data-name="Group 96171" transform="translate(2.89 20.751)">
            <path id="Path_139892" data-name="Path 139892" d="M1673.559,1433.628v2.948a1.007,1.007,0,0,1-.232.636,1.341,1.341,0,0,1-.635.425,1.415,1.415,0,0,1-.248.057,1.555,1.555,0,0,1-.238.019h-55.94a1.552,1.552,0,0,1-.624-.129,1.181,1.181,0,0,1-.713-.825c-.005-.024-.007-.049-.011-.073s0-.033,0-.051,0-.038,0-.059v-2.948c0-.019,0-.04,0-.06a.779.779,0,0,1,.012-.11,1.31,1.31,0,0,1,1.339-.968h55.94a1.539,1.539,0,0,1,.238.019,1.449,1.449,0,0,1,.248.058,1.332,1.332,0,0,1,.635.426A1,1,0,0,1,1673.559,1433.628Z" transform="translate(-1614.914 -1432.49)" fill="#ffb93e"/>
            <path id="Path_139893" data-name="Path 139893" d="M1646.091,1437.713h-29.969a1.247,1.247,0,0,1-.556-.129,1.146,1.146,0,0,1-.636-.825c-.005-.024-.007-.049-.011-.073s0-.033,0-.051,0-.038,0-.059v-2.948c0-.019,0-.04,0-.06a.779.779,0,0,1,.012-.11,1,1,0,0,1,.031-.121,1.2,1.2,0,0,1,1.162-.847h26.289a9.164,9.164,0,0,0,3.5,5.094C1645.966,1437.628,1646.028,1437.67,1646.091,1437.713Z" transform="translate(-1614.914 -1432.49)" fill="#ffa412"/>
            <g id="Group_96170" data-name="Group 96170" transform="translate(20.553 0.001)">
              <rect id="Rectangle_32700" data-name="Rectangle 32700" width="0.636" height="5.222" transform="translate(30.65 0)" fill="#ffa412"/>
              <rect id="Rectangle_32701" data-name="Rectangle 32701" width="0.636" height="5.222" transform="translate(28.498 0)" fill="#ffa412"/>
              <rect id="Rectangle_32702" data-name="Rectangle 32702" width="0.636" height="5.222" transform="translate(25.917 0)" fill="#ffa412"/>
              <rect id="Rectangle_32703" data-name="Rectangle 32703" width="0.636" height="5.222" transform="translate(21.962 0)" fill="#ffa412"/>
              <rect id="Rectangle_32704" data-name="Rectangle 32704" width="0.636" height="5.222" transform="translate(17.779 0)" fill="#ffa412"/>
              <rect id="Rectangle_32705" data-name="Rectangle 32705" width="0.636" height="5.222" transform="translate(11.366 0)" fill="#ffa412"/>
              <rect id="Rectangle_32706" data-name="Rectangle 32706" width="0.636" height="5.222" transform="translate(5.361 0)" fill="#ffa412"/>
              <rect id="Rectangle_32707" data-name="Rectangle 32707" width="0.636" height="5.222" transform="translate(0 0)" fill="#ffa412"/>
              <rect id="Rectangle_32708" data-name="Rectangle 32708" width="0.636" height="5.222" transform="translate(32.699 0)" fill="#ffa412"/>
              <rect id="Rectangle_32709" data-name="Rectangle 32709" width="0.636" height="5.222" transform="translate(34.052 0)" fill="#ffa412"/>
              <rect id="Rectangle_32710" data-name="Rectangle 32710" width="0.636" height="5.222" transform="translate(35.359 0)" fill="#ffa412"/>
              <path id="Path_139894" data-name="Path 139894" d="M1870.554,1432.512v5.186a1.584,1.584,0,0,1-.239.018h-.4v-5.222h.4A1.553,1.553,0,0,1,1870.554,1432.512Z" transform="translate(-1833.576 -1432.494)" fill="#ffa412"/>
              <path id="Path_139895" data-name="Path 139895" d="M1874.513,1433.263v4.218a1.346,1.346,0,0,1-.635.425v-5.069A1.35,1.35,0,0,1,1874.513,1433.263Z" transform="translate(-1836.652 -1432.761)" fill="#ffa412"/>
            </g>
          </g>
          <g id="Group_96173" data-name="Group 96173" transform="translate(7.462 15.53)">
            <path id="Path_139896" data-name="Path 139896" d="M1694.047,1410.224v2.949a1.01,1.01,0,0,1-.231.633l0,0c-.019.024-.04.047-.061.07a1.27,1.27,0,0,1-.3.234,1.424,1.424,0,0,1-.178.086,0,0,0,0,0,0,0c-.03.012-.061.024-.094.035a1.405,1.405,0,0,1-.248.057,1.511,1.511,0,0,1-.238.017h-55.94a1.309,1.309,0,0,1-1.339-.966.848.848,0,0,1-.012-.112c0-.019,0-.038,0-.058v-2.949c0-.019,0-.039,0-.058a1.247,1.247,0,0,1,1.192-1.069,1.206,1.206,0,0,1,.159-.009h55.94a1.767,1.767,0,0,1,.238.017,1.564,1.564,0,0,1,.248.06,1.372,1.372,0,0,1,.573.355c.021.023.042.046.061.07l0,0A1.009,1.009,0,0,1,1694.047,1410.224Z" transform="translate(-1635.402 -1409.088)" fill="#ffb93e"/>
            <path id="Path_139897" data-name="Path 139897" d="M1666.579,1414.309H1636.61a1.2,1.2,0,0,1-1.162-.845,1.022,1.022,0,0,1-.031-.121.848.848,0,0,1-.012-.112c0-.019,0-.038,0-.058v-2.949c0-.019,0-.039,0-.058a1.173,1.173,0,0,1,1.063-1.069.976.976,0,0,1,.143-.009H1662.9a.063.063,0,0,1,0,.009A9.148,9.148,0,0,0,1666.579,1414.309Z" transform="translate(-1635.402 -1409.088)" fill="#ffa412"/>
            <g id="Group_96172" data-name="Group 96172" transform="translate(20.553)">
              <rect id="Rectangle_32711" data-name="Rectangle 32711" width="0.636" height="5.222" transform="translate(30.65 0)" fill="#ffa412"/>
              <rect id="Rectangle_32712" data-name="Rectangle 32712" width="0.636" height="5.222" transform="translate(28.498 0)" fill="#ffa412"/>
              <rect id="Rectangle_32713" data-name="Rectangle 32713" width="0.636" height="5.222" transform="translate(25.917 0)" fill="#ffa412"/>
              <rect id="Rectangle_32714" data-name="Rectangle 32714" width="0.636" height="5.222" transform="translate(21.962 0)" fill="#ffa412"/>
              <rect id="Rectangle_32715" data-name="Rectangle 32715" width="0.636" height="5.222" transform="translate(17.778 0)" fill="#ffa412"/>
              <rect id="Rectangle_32716" data-name="Rectangle 32716" width="0.636" height="5.222" transform="translate(11.366 0)" fill="#ffa412"/>
              <rect id="Rectangle_32717" data-name="Rectangle 32717" width="0.636" height="5.222" transform="translate(5.361 0)" fill="#ffa412"/>
              <rect id="Rectangle_32718" data-name="Rectangle 32718" width="0.636" height="5.222" transform="translate(0 0)" fill="#ffa412"/>
              <rect id="Rectangle_32719" data-name="Rectangle 32719" width="0.636" height="5.222" transform="translate(32.699 0)" fill="#ffa412"/>
              <rect id="Rectangle_32720" data-name="Rectangle 32720" width="0.636" height="5.222" transform="translate(34.052 0)" fill="#ffa412"/>
              <rect id="Rectangle_32721" data-name="Rectangle 32721" width="0.636" height="5.222" transform="translate(35.359 0)" fill="#ffa412"/>
              <path id="Path_139898" data-name="Path 139898" d="M1891.044,1409.105v5.186a1.57,1.57,0,0,1-.239.018h-.4v-5.223h.4A1.555,1.555,0,0,1,1891.044,1409.105Z" transform="translate(-1854.066 -1409.087)" fill="#ffa412"/>
              <path id="Path_139899" data-name="Path 139899" d="M1895,1409.857v4.218a1.347,1.347,0,0,1-.635.425v-5.069A1.349,1.349,0,0,1,1895,1409.857Z" transform="translate(-1857.142 -1409.354)" fill="#ffa412"/>
            </g>
          </g>
          <g id="Group_96175" data-name="Group 96175" transform="translate(0.117 10.316)">
            <path id="Path_139900" data-name="Path 139900" d="M1661.129,1386.854v2.948a1,1,0,0,1-.231.635,1.335,1.335,0,0,1-.636.426,1.427,1.427,0,0,1-.247.058l-.078.01h-.01a.506.506,0,0,1-.052.005l-.032,0-.066,0h-55.938a1.422,1.422,0,0,1-1.151-.542,1,1,0,0,1-.2-.536c0-.021,0-.04,0-.06v-2.948a.579.579,0,0,1,0-.059,1.2,1.2,0,0,1,.959-1.028,1.522,1.522,0,0,1,.393-.051h55.938l.072,0a.208.208,0,0,1,.035,0,1.124,1.124,0,0,1,.132.014,1.449,1.449,0,0,1,.247.057.84.84,0,0,1,.115.044h0a1.316,1.316,0,0,1,.391.246.022.022,0,0,1,.005.007l.016.014a1.123,1.123,0,0,1,.107.114A1,1,0,0,1,1661.129,1386.854Z" transform="translate(-1602.483 -1385.717)" fill="#ffb93e"/>
            <path id="Path_139901" data-name="Path 139901" d="M1633.66,1390.94h-29.968a1.229,1.229,0,0,1-1.01-.516,1.068,1.068,0,0,1-.2-.562c0-.021,0-.04,0-.06v-2.948a.579.579,0,0,1,0-.059,1.166,1.166,0,0,1,.963-1.054,1.257,1.257,0,0,1,.245-.024h26.287c.01.04.022.08.035.12a9.133,9.133,0,0,0,3.633,5.094A.05.05,0,0,1,1633.66,1390.94Z" transform="translate(-1602.483 -1385.717)" fill="#ffa412"/>
            <g id="Group_96174" data-name="Group 96174" transform="translate(20.553 0)">
              <rect id="Rectangle_32722" data-name="Rectangle 32722" width="0.636" height="5.222" transform="translate(30.65 0)" fill="#ffa412"/>
              <rect id="Rectangle_32723" data-name="Rectangle 32723" width="0.636" height="5.222" transform="translate(28.498 0)" fill="#ffa412"/>
              <rect id="Rectangle_32724" data-name="Rectangle 32724" width="0.636" height="5.222" transform="translate(25.917 0)" fill="#ffa412"/>
              <rect id="Rectangle_32725" data-name="Rectangle 32725" width="0.636" height="5.222" transform="translate(21.962 0)" fill="#ffa412"/>
              <rect id="Rectangle_32726" data-name="Rectangle 32726" width="0.636" height="5.222" transform="translate(17.779 0)" fill="#ffa412"/>
              <rect id="Rectangle_32727" data-name="Rectangle 32727" width="0.636" height="5.222" transform="translate(11.366 0)" fill="#ffa412"/>
              <rect id="Rectangle_32728" data-name="Rectangle 32728" width="0.636" height="5.222" transform="translate(5.361 0)" fill="#ffa412"/>
              <rect id="Rectangle_32729" data-name="Rectangle 32729" width="0.636" height="5.222" transform="translate(0 0)" fill="#ffa412"/>
              <rect id="Rectangle_32730" data-name="Rectangle 32730" width="0.636" height="5.222" transform="translate(32.699 0)" fill="#ffa412"/>
              <rect id="Rectangle_32731" data-name="Rectangle 32731" width="0.636" height="5.222" transform="translate(34.052 0)" fill="#ffa412"/>
              <rect id="Rectangle_32732" data-name="Rectangle 32732" width="0.636" height="5.222" transform="translate(35.359 0)" fill="#ffa412"/>
              <path id="Path_139902" data-name="Path 139902" d="M1858.127,1385.736v5.186a1.566,1.566,0,0,1-.239.018h-.4v-5.222h.4A1.521,1.521,0,0,1,1858.127,1385.736Z" transform="translate(-1821.149 -1385.718)" fill="#ffa412"/>
              <path id="Path_139903" data-name="Path 139903" d="M1862.086,1386.486v4.218a1.348,1.348,0,0,1-.635.425v-5.069A1.351,1.351,0,0,1,1862.086,1386.486Z" transform="translate(-1824.225 -1385.984)" fill="#ffa412"/>
            </g>
          </g>
          <g id="Group_96177" data-name="Group 96177" transform="translate(4.23 5.214)">
            <path id="Path_139904" data-name="Path 139904" d="M1679.564,1363.989v2.949a1,1,0,0,1-.232.635,1.347,1.347,0,0,1-.635.425,1.476,1.476,0,0,1-.248.058,1.576,1.576,0,0,1-.239.018h-55.939a1.542,1.542,0,0,1-.6-.121,1.164,1.164,0,0,1-.744-.911c0-.015,0-.031,0-.046s0-.039,0-.059v-2.949c0-.02,0-.039,0-.058a1.247,1.247,0,0,1,1.192-1.07,1.46,1.46,0,0,1,.16-.008h55.939a1.515,1.515,0,0,1,.239.018,1.429,1.429,0,0,1,.248.058,1.345,1.345,0,0,1,.635.426A1,1,0,0,1,1679.564,1363.989Z" transform="translate(-1620.918 -1362.853)" fill="#ffb93e"/>
            <path id="Path_139905" data-name="Path 139905" d="M1652.095,1368.075h-29.968a1.249,1.249,0,0,1-.54-.121,1.143,1.143,0,0,1-.664-.911c0-.015,0-.031,0-.046s0-.039,0-.059v-2.949c0-.02,0-.039,0-.058a1.21,1.21,0,0,1,1.207-1.078h26.288l0,.008a9.159,9.159,0,0,0,3.506,5.094C1651.979,1368,1652.036,1368.036,1652.095,1368.075Z" transform="translate(-1620.918 -1362.853)" fill="#ffa412"/>
            <g id="Group_96176" data-name="Group 96176" transform="translate(20.553)">
              <rect id="Rectangle_32733" data-name="Rectangle 32733" width="0.636" height="5.222" transform="translate(30.651 0)" fill="#ffa412"/>
              <rect id="Rectangle_32734" data-name="Rectangle 32734" width="0.636" height="5.222" transform="translate(28.499 0)" fill="#ffa412"/>
              <rect id="Rectangle_32735" data-name="Rectangle 32735" width="0.636" height="5.222" transform="translate(25.918 0)" fill="#ffa412"/>
              <rect id="Rectangle_32736" data-name="Rectangle 32736" width="0.636" height="5.222" transform="translate(21.962 0)" fill="#ffa412"/>
              <rect id="Rectangle_32737" data-name="Rectangle 32737" width="0.636" height="5.222" transform="translate(17.779 0)" fill="#ffa412"/>
              <rect id="Rectangle_32738" data-name="Rectangle 32738" width="0.636" height="5.222" transform="translate(11.366 0)" fill="#ffa412"/>
              <rect id="Rectangle_32739" data-name="Rectangle 32739" width="0.636" height="5.222" transform="translate(5.361 0)" fill="#ffa412"/>
              <rect id="Rectangle_32740" data-name="Rectangle 32740" width="0.636" height="5.222" transform="translate(0 0)" fill="#ffa412"/>
              <rect id="Rectangle_32741" data-name="Rectangle 32741" width="0.636" height="5.222" transform="translate(32.699 0)" fill="#ffa412"/>
              <rect id="Rectangle_32742" data-name="Rectangle 32742" width="0.636" height="5.222" transform="translate(34.052 0)" fill="#ffa412"/>
              <rect id="Rectangle_32743" data-name="Rectangle 32743" width="0.636" height="5.222" transform="translate(35.359 0)" fill="#ffa412"/>
              <path id="Path_139906" data-name="Path 139906" d="M1876.56,1362.87v5.186a1.572,1.572,0,0,1-.238.018h-.4v-5.222h.4A1.527,1.527,0,0,1,1876.56,1362.87Z" transform="translate(-1839.582 -1362.852)" fill="#ffa412"/>
              <path id="Path_139907" data-name="Path 139907" d="M1880.52,1363.62v4.218a1.348,1.348,0,0,1-.635.425v-5.069A1.349,1.349,0,0,1,1880.52,1363.62Z" transform="translate(-1842.659 -1363.118)" fill="#ffa412"/>
            </g>
          </g>
          <g id="Group_96179" data-name="Group 96179" transform="translate(5.981)">
            <path id="Path_139908" data-name="Path 139908" d="M1687.411,1340.619v2.949a1,1,0,0,1-.232.635,1.345,1.345,0,0,1-.635.425,1.445,1.445,0,0,1-.247.059l-.078.01-.044,0-.044,0-.072,0h-55.939a1.278,1.278,0,0,1-1.352-1.078c0-.019,0-.039,0-.059v-2.949c0-.02,0-.039,0-.058a1.278,1.278,0,0,1,1.352-1.078h55.939a1.568,1.568,0,0,1,.239.019,1.444,1.444,0,0,1,.247.058,1.346,1.346,0,0,1,.635.425A1,1,0,0,1,1687.411,1340.619Z" transform="translate(-1628.765 -1339.482)" fill="#ffb93e"/>
            <path id="Path_139909" data-name="Path 139909" d="M1659.942,1344.7h-29.969a1.182,1.182,0,0,1-1.207-1.078c0-.019,0-.039,0-.059v-2.949c0-.02,0-.039,0-.058a1.183,1.183,0,0,1,1.207-1.078h26.288a9.155,9.155,0,0,0,3.668,5.214Z" transform="translate(-1628.765 -1339.482)" fill="#ffa412"/>
            <g id="Group_96178" data-name="Group 96178" transform="translate(20.553)">
              <rect id="Rectangle_32744" data-name="Rectangle 32744" width="0.636" height="5.222" transform="translate(30.65 0)" fill="#ffa412"/>
              <rect id="Rectangle_32745" data-name="Rectangle 32745" width="0.636" height="5.222" transform="translate(28.498 0)" fill="#ffa412"/>
              <rect id="Rectangle_32746" data-name="Rectangle 32746" width="0.636" height="5.222" transform="translate(25.917 0)" fill="#ffa412"/>
              <rect id="Rectangle_32747" data-name="Rectangle 32747" width="0.636" height="5.222" transform="translate(21.962 0)" fill="#ffa412"/>
              <rect id="Rectangle_32748" data-name="Rectangle 32748" width="0.636" height="5.222" transform="translate(17.779 0)" fill="#ffa412"/>
              <rect id="Rectangle_32749" data-name="Rectangle 32749" width="0.636" height="5.222" transform="translate(11.366 0)" fill="#ffa412"/>
              <rect id="Rectangle_32750" data-name="Rectangle 32750" width="0.636" height="5.222" transform="translate(5.361 0)" fill="#ffa412"/>
              <rect id="Rectangle_32751" data-name="Rectangle 32751" width="0.636" height="5.222" transform="translate(0 0)" fill="#ffa412"/>
              <rect id="Rectangle_32752" data-name="Rectangle 32752" width="0.636" height="5.222" transform="translate(32.699 0)" fill="#ffa412"/>
              <rect id="Rectangle_32753" data-name="Rectangle 32753" width="0.636" height="5.222" transform="translate(34.052 0)" fill="#ffa412"/>
              <rect id="Rectangle_32754" data-name="Rectangle 32754" width="0.636" height="5.222" transform="translate(35.359 0)" fill="#ffa412"/>
              <path id="Path_139910" data-name="Path 139910" d="M1884.408,1339.5v5.186a1.567,1.567,0,0,1-.239.018h-.4v-5.222h.4A1.567,1.567,0,0,1,1884.408,1339.5Z" transform="translate(-1847.429 -1339.482)" fill="#ffa412"/>
              <path id="Path_139911" data-name="Path 139911" d="M1888.365,1340.25v4.218a1.349,1.349,0,0,1-.635.425v-5.069A1.348,1.348,0,0,1,1888.365,1340.25Z" transform="translate(-1850.504 -1339.748)" fill="#ffa412"/>
            </g>
          </g>
        </g>
        <g id="Group_96181" data-name="Group 96181" transform="translate(8.591)">
          <path id="Path_139912" data-name="Path 139912" d="M1764.083,1186.6s-2.938,4.136-5.632,4.194-6.792-1.917-6.792-1.917-2.473-5.512-.8-7.669a3.6,3.6,0,0,1,3.441.565,5.291,5.291,0,0,1,.911.872,2.89,2.89,0,0,0,1.414.958c1.922.585,4.2-.791,5.057.537a9.019,9.019,0,0,0,1.486,1.759A6.81,6.81,0,0,0,1764.083,1186.6Z" transform="translate(-1725.779 -1180.997)" fill="#ffeddc"/>
          <path id="Path_139913" data-name="Path 139913" d="M1640.463,1250.537s10.385-25.163,29.078-25.642c0,0,17.255,1.917,18.213,25.642Z" transform="translate(-1640.463 -1215.101)" fill="#ffeddc"/>
          <path id="Path_139914" data-name="Path 139914" d="M1747.711,1217s7.493,1.666,9.8.687c0,0,.349-3.133-2.806-2.693a6.62,6.62,0,0,1-4.394-1.158C1749.144,1213.237,1747.4,1215.688,1747.711,1217Z" transform="translate(-1723.754 -1206.436)" fill="#db6a1d"/>
          <path id="Path_139915" data-name="Path 139915" d="M1770.271,1189.53c-.479.36-1.951-5.066-1.951-5.066a5.272,5.272,0,0,1,.91.872,2.89,2.89,0,0,0,1.414.958C1770.649,1186.453,1770.736,1189.18,1770.271,1189.53Z" transform="translate(-1739.793 -1183.69)" fill="#e5c1a1"/>
          <path id="Path_139916" data-name="Path 139916" d="M1793.814,1196.835a30.879,30.879,0,0,1-4.041,2.138c-.479,0,2.555-3.9,2.555-3.9A9.015,9.015,0,0,0,1793.814,1196.835Z" transform="translate(-1756.421 -1191.935)" fill="#e5c1a1"/>
          <path id="Path_139917" data-name="Path 139917" d="M1685.922,1269.369c-.192-.164,7.349-11.1,9.426-11.184s6.744,2.4,10.122,2.716,6.653-.639,7.293,1.358,2.4,9.077,1.318,10.211S1690.069,1272.912,1685.922,1269.369Z" transform="translate(-1675.777 -1240.962)" fill="#f9ddbf"/>
        </g>
      </g>
      <path id="Path_139918" data-name="Path 139918" d="M1627.8,1383.51c0,.014,0,.026,0,.038a25.006,25.006,0,0,1-.839,5.176.075.075,0,0,0,0,.008c-.067.245-.136.49-.211.732a25.591,25.591,0,0,1-1.844,4.482,25.968,25.968,0,0,1-3.514,5.092c-.037.044-.075.087-.114.129a26.942,26.942,0,0,1-6.146,5.094q-.745.453-1.528.865c-.353.185-.707.36-1.064.53-.341.2-.7.367-1.04.575a14.521,14.521,0,0,1-3.554,1.463v-2.3c0-.019,0-.038,0-.057,0-.039.007-.075.012-.112a.95.95,0,0,1,.033-.125,1.2,1.2,0,0,1,1.163-.841h-5.982a1.2,1.2,0,0,1-1.161-.844.927.927,0,0,1-.032-.125c-.005-.037-.01-.073-.012-.11,0-.02,0-.039,0-.059v-2.948c0-.019,0-.04,0-.059,0-.037.007-.073.012-.11a.933.933,0,0,1,.032-.125,1.2,1.2,0,0,1,1.161-.844h2.335a1.147,1.147,0,0,1-.636-.825c-.005-.024-.007-.049-.011-.073s0-.033,0-.051,0-.038,0-.057v-2.95c0-.019,0-.039,0-.058a.758.758,0,0,1,.012-.11.99.99,0,0,1,.031-.122,1.2,1.2,0,0,1,1.162-.846h1.34a1.2,1.2,0,0,1-1.163-.843,1,1,0,0,1-.033-.125,1.068,1.068,0,0,1-.012-.11V1389.8a1.175,1.175,0,0,1,1.064-1.07h-3.968a1.183,1.183,0,0,1-1.208-1.078.6.6,0,0,1,0-.06v-2.948c0-.02,0-.041,0-.059a.47.47,0,0,1,0-.047,1.166,1.166,0,0,1,.939-1,1.181,1.181,0,0,1-1.049-.971.93.93,0,0,1-.01-.1c0-.021,0-.04,0-.059v-2.948c0-.021,0-.04,0-.059,0-.037.007-.073.012-.11a.927.927,0,0,1,.032-.125,1.2,1.2,0,0,1,1.161-.844h2.335a1.147,1.147,0,0,1-.636-.825c-.005-.024-.007-.049-.011-.073s0-.033,0-.051,0-.039,0-.06v-2.948c0-.019,0-.041,0-.06a.781.781,0,0,1,.012-.11.971.971,0,0,1,.031-.121,1.2,1.2,0,0,1,1.162-.847h4.571a1.2,1.2,0,0,1-1.162-.845,1.049,1.049,0,0,1-.031-.121.867.867,0,0,1-.012-.112c0-.019,0-.038,0-.058v-2.949c0-.02,0-.039,0-.058a1.173,1.173,0,0,1,1.063-1.07h-7.2a1.229,1.229,0,0,1-1.01-.516l0-.026.758-4.631,0-.026,1.08-6.607a28.862,28.862,0,0,1,3.707.746l.213.057.014.005q1.062.3,2.1.673a.08.08,0,0,1,.019.007,27.7,27.7,0,0,1,8.685,5.094c.045.039.091.079.134.121a26.157,26.157,0,0,1,3.642,3.923q.328.43.634.876c.068.1.136.2.2.295a.01.01,0,0,1,.005.009q.5.732.94,1.5a25.71,25.71,0,0,1,1.77,3.712,24.833,24.833,0,0,1,1.356,5.094c.009.044.014.086.021.129A24.934,24.934,0,0,1,1627.8,1383.51Z" transform="translate(-1564.488 -1317.12)" fill="#e2810e" opacity="0.5"/>
      <g id="Group_96185" data-name="Group 96185" transform="translate(0 36.175)">
        <path id="Path_139919" data-name="Path 139919" d="M1446.861,1383.938a27.515,27.515,0,1,1,37.379,10.813A27.515,27.515,0,0,1,1446.861,1383.938Z" transform="translate(-1441.335 -1343.135)" fill="#e2810e"/>
        <path id="Path_139920" data-name="Path 139920" d="M1475.851,1399.345q-.508.31-1.033.6-.178.1-.356.192-.407.217-.816.419a27.516,27.516,0,0,1-25.395-48.8c.353-.194.709-.381,1.066-.557s.7-.338,1.049-.494a27.465,27.465,0,0,1,8.259-2.22,27.52,27.52,0,0,1,17.227,50.865Z" transform="translate(-1434.014 -1347.169)" fill="#ffb93e"/>
        <g id="Group_96183" data-name="Group 96183" transform="translate(3.012 4.314)">
          <path id="Path_139921" data-name="Path 139921" d="M1472.215,1411.784a24.756,24.756,0,0,1-6.886-.983,24.5,24.5,0,1,1,6.886.983Zm-.075-48.65a23.986,23.986,0,1,0,21.049,12.4A23.839,23.839,0,0,0,1472.14,1363.134Z" transform="translate(-1447.515 -1362.469)" fill="#ffa412"/>
        </g>
        <g id="Group_96184" data-name="Group 96184" transform="translate(16.124 10.87)">
          <path id="Path_139922" data-name="Path 139922" d="M1529.96,1412.343c-.054-.136-.112-.267-.17-.4a7.217,7.217,0,0,0-1.669-2.384,7.455,7.455,0,0,0-2.627-1.546,12.566,12.566,0,0,0-3.338-.627q-1.842-.114-4.009-.052a19.388,19.388,0,0,1-2.289-.047,5.737,5.737,0,0,1-1.611-.353,2.824,2.824,0,0,1-1.076-.729,3.832,3.832,0,0,1-.683-1.127,4.168,4.168,0,0,1-.311-1.322,2.841,2.841,0,0,1,.2-1.244,3.044,3.044,0,0,1,.768-1.087,4.476,4.476,0,0,1,1.4-.854,3.54,3.54,0,0,1,3.005.028,5.1,5.1,0,0,1,2.272,2.844l5.606-2.276a10.492,10.492,0,0,0-1.835-3.043,7.864,7.864,0,0,0-5.495-2.711,10.377,10.377,0,0,0-3.383.346l-1.588-3.91-3.1,1.26,1.565,3.855a11.645,11.645,0,0,0-2.849,2.027,8.711,8.711,0,0,0-1.8,2.5,6.974,6.974,0,0,0-.66,2.828,8.282,8.282,0,0,0,2.439,5.809,7.341,7.341,0,0,0,2.624,1.537,12.441,12.441,0,0,0,3.34.606,39.52,39.52,0,0,0,4.019,0,14.943,14.943,0,0,1,2.187.014,5.7,5.7,0,0,1,1.6.356,3.028,3.028,0,0,1,1.122.762,4.118,4.118,0,0,1,.754,1.246,3.457,3.457,0,0,1,.268,1.329,2.83,2.83,0,0,1-.3,1.266,3.57,3.57,0,0,1-.891,1.118,5.381,5.381,0,0,1-1.5.884,6.471,6.471,0,0,1-1.645.427,3.76,3.76,0,0,1-1.66-.166,3.857,3.857,0,0,1-1.515-.98,5.95,5.95,0,0,1-1.226-1.989l-5.6,2.276a9.687,9.687,0,0,0,2.2,3.427,7.961,7.961,0,0,0,2.9,1.811,8.883,8.883,0,0,0,3.3.476,14,14,0,0,0,3.4-.562l1.447,3.568,3.083-1.252-1.455-3.584a12.512,12.512,0,0,0,2.878-2.009,8.49,8.49,0,0,0,1.737-2.268c.034-.066.067-.131.1-.2a6.892,6.892,0,0,0,.676-2.814A7.571,7.571,0,0,0,1529.96,1412.343Z" transform="translate(-1506.281 -1391.855)" fill="#ffa412"/>
        </g>
      </g>
    </g>
    <g id="Group_96193" data-name="Group 96193" transform="translate(608.584 407.368)" opacity="0.7">
      <g id="Group_96188" data-name="Group 96188" transform="translate(6.324 30.175)">
        <path id="Path_139923" data-name="Path 139923" d="M2336.51,1414.241s5.288-6.168.326-10.087c0,0-3.624-2.194-6.579-2.016,0,0,4.188,7.022,2.833,7.72s-4.1-8.16-4.1-8.16-8.247-.8-10.9.476c0,0,7.05,5.77,5.565,6.113s-9.1-5.319-9.1-5.319-7.676,1.306-7.267,5.989,3.054,6.128,4.217,6,7.962-2.72,8.11-1.768-3.945,4.065-6.811,4.211c0,0,5.411,5.968,9.008,4.246s3.9-4.452,6.145-5.477,4.156-1.022,3.23.023-4.983,2.059-6.265,4.327-2.432,3.8,1.288,3.237,9.77-3.282,10.035-6.4Z" transform="translate(-2307.271 -1401.45)" fill="#77a4e5"/>
        <g id="Group_96187" data-name="Group 96187" transform="translate(3.787 7.596)">
          <path id="Path_139924" data-name="Path 139924" d="M2324.246,1435.53s20.848-.8,25.452,5.159a15.081,15.081,0,0,0,4.151,5.827l.489,1.331s-3.613-3.809-4.906-4.039C2349.432,1443.807,2351.454,1436.42,2324.246,1435.53Z" transform="translate(-2324.246 -1435.494)" fill="#77a4e5"/>
          <path id="Path_139925" data-name="Path 139925" d="M2452.832,1483.066a13.091,13.091,0,0,1,4.785,9.222l-.812.073s-1.429-6.114-4.012-8.5S2452.832,1483.066,2452.832,1483.066Z" transform="translate(-2423.228 -1472.044)" fill="#77a4e5"/>
        </g>
      </g>
      <g id="Group_96190" data-name="Group 96190" transform="translate(46.993 18.717)">
        <path id="Path_139926" data-name="Path 139926" d="M2494.427,1369.3s-7.414-4.152-3.954-9.787c0,0,2.768-3.46,5.734-4.35,0,0-1.582,8.4,0,8.6s1.088-9.49,1.088-9.49,7.81-3.757,10.875-3.46c0,0-4.844,8.205-3.262,8.008s7.019-8.5,7.019-8.5,8.008-1.483,9.293,3.262-.791,7.118-1.977,7.415-8.8.2-8.6,1.186,5.338,2.57,8.206,1.681c0,0-3.164,7.81-7.316,7.415s-5.437-2.966-8.008-3.164-4.448.494-3.163,1.186,5.635.227,7.711,1.992,3.757,2.852-.1,3.643-10.776.3-12.16-2.669Z" transform="translate(-2489.552 -1350.099)" fill="#77a4e5"/>
        <g id="Group_96189" data-name="Group 96189" transform="translate(0.958 4.965)">
          <path id="Path_139927" data-name="Path 139927" d="M2527.648,1372.351s-20.761,6.722-23.134,14.236a15.768,15.768,0,0,1-1.977,7.217v1.483s2.175-5.042,3.361-5.734C2505.9,1389.553,2501.252,1383.028,2527.648,1372.351Z" transform="translate(-2500.598 -1372.351)" fill="#77a4e5"/>
          <path id="Path_139928" data-name="Path 139928" d="M2495.787,1465.29a13.693,13.693,0,0,0-1.376,10.78l.823-.221s-.8-6.518.875-9.8S2495.787,1465.29,2495.787,1465.29Z" transform="translate(-2493.848 -1443.837)" fill="#77a4e5"/>
        </g>
      </g>
      <g id="Group_96192" data-name="Group 96192">
        <path id="Path_139929" data-name="Path 139929" d="M2319.6,1294.919s11.087-6.209,5.913-14.635c0,0-4.14-5.174-8.574-6.5,0,0,2.365,12.565,0,12.861s-1.626-14.192-1.626-14.192-11.679-5.618-16.261-5.174c0,0,7.244,12.27,4.879,11.974s-10.5-12.713-10.5-12.713-11.974-2.218-13.9,4.878,1.182,10.644,2.957,11.087,13.157.3,12.862,1.774-7.983,3.843-12.27,2.513c0,0,4.73,11.679,10.939,11.087s8.131-4.435,11.975-4.731,6.653.739,4.731,1.774-8.426.339-11.531,2.978-5.618,4.266.148,5.448,16.114.443,18.183-3.991Z" transform="translate(-2278.928 -1266.207)" fill="#9fc1f4"/>
        <g id="Group_96191" data-name="Group 96191" transform="translate(6.076 7.424)">
          <path id="Path_139930" data-name="Path 139930" d="M2306.162,1299.481s31.044,10.053,34.592,21.288a23.584,23.584,0,0,0,2.957,10.791v2.217s-3.252-7.539-5.026-8.574C2338.685,1325.2,2345.633,1315.447,2306.162,1299.481Z" transform="translate(-2306.162 -1299.481)" fill="#9fc1f4"/>
          <path id="Path_139931" data-name="Path 139931" d="M2469.292,1438.457a20.476,20.476,0,0,1,2.058,16.12l-1.232-.331s1.2-9.747-1.309-14.65S2469.292,1438.457,2469.292,1438.457Z" transform="translate(-2431.744 -1406.377)" fill="#9fc1f4"/>
        </g>
      </g>
      <path id="Path_139932" data-name="Path 139932" d="M2393.341,1525.981a19.145,19.145,0,0,1-19.146-19.145h38.291A19.145,19.145,0,0,1,2393.341,1525.981Z" transform="translate(-2352.94 -1453.149)" fill="#9fc1f4"/>
      <rect id="Rectangle_32755" data-name="Rectangle 32755" width="39.355" height="0.587" transform="translate(60.176 54.275) rotate(180)" fill="#77a4e5"/>
      <path id="Path_139933" data-name="Path 139933" d="M2434.235,1587.3h-17.926a1.535,1.535,0,0,1,1.535-1.535H2432.7a1.535,1.535,0,0,1,1.535,1.535Z" transform="translate(-2385.657 -1514.467)" fill="#77a4e5"/>
    </g>
    <g id="Group_96194" data-name="Group 96194" transform="translate(283.56 330.981)">
      <path id="Path_139934" data-name="Path 139934" d="M1070.889,944.515c-24.635,20.058-54.147,35.476-87.721,45.826-27.27,8.4-57.484,13.555-89.806,15.309-8.814.479-17.4.687-25.662.687-16.709,0-32.116-.849-45.544-2.031l5.433-25.7a479.293,479.293,0,0,0,64.516,1c30.417-1.648,58.745-6.463,84.192-14.305,30.621-9.441,57.4-23.39,79.6-41.464Z" transform="translate(-822.156 -923.837)" fill="#f77d48"/>
    </g>
    <g id="Group_96196" data-name="Group 96196" transform="translate(297.099 299.397)">
      <path id="Path_139935" data-name="Path 139935" d="M1018.747,783.284a7.805,7.805,0,0,0-6.171-.66c-10.481-1.231-13.539,10.993-13.4,15.2s.622,8.723-4.059,14.187c-13.521,15.783,14.8,16.479,14.8,16.479.239-12.61,15.356-8.009,14.693-6.731C1043.989,826.409,1026.538,787.326,1018.747,783.284Z" transform="translate(-967.228 -782.277)" fill="#163560"/>
      <path id="Path_139936" data-name="Path 139936" d="M893.927,1010.812s-1.843-2.806-3.329-2.861-4.237-.825-4.017-.275,1.926.605,2.091.936-2.531.825-3.3.88-2.586,0-2.531.385,3.273,1.981,5.542,1.761a15.4,15.4,0,0,1,5.077.66Z" transform="translate(-882.839 -957.233)" fill="#ffb27d"/>
      <path id="Path_139937" data-name="Path 139937" d="M955.3,948.466a27.654,27.654,0,0,1-2.819,4.263c-2.19,2.743-5.568,5.913-9.808,6.538a10.526,10.526,0,0,1-5.827-.946l-.007,0c-5.15-2.286-9.022-7.543-9.022-7.543a4.234,4.234,0,0,1,.578-4.155s10.4,2.339,11.389,1.844,6.768-17.138,8.142-19.23,6.064-3.177,6.064-3.177Z" transform="translate(-917.55 -893.979)" fill="#f99746"/>
      <path id="Path_139938" data-name="Path 139938" d="M984.938,1026.407c-2.19,2.743-5.568,5.913-9.808,6.538A10.525,10.525,0,0,1,969.3,1032c.2.026,5.345.662,7.395-3.006,2.091-3.742,4.352-9.684,7.459-7.7C985.5,1022.145,985.438,1024.27,984.938,1026.407Z" transform="translate(-950.012 -967.657)" fill="#ed7d2b"/>
      <path id="Path_139939" data-name="Path 139939" d="M1185.873,1524.821s3.173,2.9,2.554,4.954-3.483,3.429-3.87,5.944-1.935,3.886-3.328,3.886h-6.642s-1.025-1.769,1.451-2.3,3.41-3.488,3.256-6.232a48.4,48.4,0,0,1,.232-6.4l5.263-1.219Z" transform="translate(-1109.331 -1358.084)" fill="#36599e"/>
      <path id="Path_139940" data-name="Path 139940" d="M1042.573,1535.107s1.141,12.268-.252,12.953l-17.828-.036s0-2.058,2.863-2.515,7.894-2.134,8.745-5.868S1042.573,1535.107,1042.573,1535.107Z" transform="translate(-992.889 -1367.141)" fill="#2b478b"/>
      <path id="Path_139941" data-name="Path 139941" d="M1058.015,933.985c-3.669-8.227-5.913-10.589-5.485-13.143.319-1.9-.972-35.437-.972-35.437-.435-.135-1.308-.256-1.785-.362a4.476,4.476,0,0,1-3.269-2.843,22.812,22.812,0,0,1-1.109-7.567l-.47.092-7.9,1.564s.18,2.487.185,4.83c0,.019,0,.039,0,.058a4.545,4.545,0,0,1-3.28,4.395c-1,.288-1.867.534-1.867.534a72.461,72.461,0,0,0-3.456,16.794c-.554,8.51,5.276,12.207-.044,29.213C1023.131,949.484,1060.042,938.532,1058.015,933.985Z" transform="translate(-995.625 -854.029)" fill="#ffb27d"/>
      <path id="Path_139942" data-name="Path 139942" d="M1068.387,876.613s.18,2.487.185,4.83c4.422-.125,6.759-4.159,7.717-6.394Z" transform="translate(-1026.989 -854.35)" fill="#e8945b"/>
      <path id="Path_139943" data-name="Path 139943" d="M1049.635,830.535s10.462.172,10.469-6.344,1.363-10.883-5.317-11.269-7.98,2.1-8.511,4.274S1046.914,830.322,1049.635,830.535Z" transform="translate(-1009.714 -806.053)" fill="#ffb27d"/>
      <path id="Path_139944" data-name="Path 139944" d="M1063.5,807.734s2.865,7.645,7.26,8.776,6.3-.048,6.3-.048a12.45,12.45,0,0,1-4.072-7.354S1065.665,804.094,1063.5,807.734Z" transform="translate(-1023.195 -801.025)" fill="#163560"/>
      <path id="Path_139945" data-name="Path 139945" d="M1048.24,810.787a6.49,6.49,0,0,0-3,2.343,10.533,10.533,0,0,0-1.414,5.982s-2.158-5.2.267-8.136C1046.667,807.859,1048.24,810.787,1048.24,810.787Z" transform="translate(-1007.222 -803.457)" fill="#163560"/>
      <path id="Path_139946" data-name="Path 139946" d="M1058.815,872.612a2.629,2.629,0,0,1-2.166.882,1.923,1.923,0,0,1-1.612-1.064A7.03,7.03,0,0,1,1058.815,872.612Z" transform="translate(-1016.617 -852.174)" fill="#ebf3fa"/>
      <path id="Path_139947" data-name="Path 139947" d="M1054.837,937.743a71.024,71.024,0,0,1,0,8.24c-.177,2.979-3.19,6.97-3.618,7.957-1.073,2.476-2.283,2.879-2.283,2.879l-9.361,2.294-3.291.806-10.379-3.1s-4.727-13.195-2.829-20.623a57.09,57.09,0,0,1,4.8-12.586s8.469,8.293,19.5-.7Z" transform="translate(-991.438 -891.531)" fill="#f99746"/>
      <path id="Path_139948" data-name="Path 139948" d="M1021.206,1083.878s-5.14,16-5.47,21.446,9.825,77.38,10.234,79.89c.385,2.366,3.323,3.874,3.323,3.874a4.445,4.445,0,0,0,3.28.252,8.107,8.107,0,0,0,3.521-1.66s4-51.3,1.525-69.628a290.218,290.218,0,0,1-2.505-34.174Z" transform="translate(-986.078 -1016.587)" fill="#233862"/>
      <path id="Path_139949" data-name="Path 139949" d="M1067.95,1081.74s7.84,10.52,8.571,17.631,1.147,32.09,2.7,39.023,7.279,20.273,7.279,41.9a4.314,4.314,0,0,1-2.431,1.9,20.052,20.052,0,0,1-2.138.591,3.36,3.36,0,0,1-3.759-1.785c-3.868-7.788-16.19-32.906-16.821-38.12-.447-3.69-4.338-28.111-12.824-42.441-2.037-3.44,1.25-17.121,1.25-17.121Z" transform="translate(-1011.045 -1014.926)" fill="#2b478b"/>
      <path id="Path_139950" data-name="Path 139950" d="M1058.229,872.956s-.181.768-2.092.65c0,0-1.6-.1-1.555-.943A5.16,5.16,0,0,1,1058.229,872.956Z" transform="translate(-1016.263 -852.343)" fill="#fff"/>
      <path id="Path_139951" data-name="Path 139951" d="M1035.585,1072.809a10.775,10.775,0,0,0,6.162,1.715c4.9.1,17.029-1.248,17.029-1.248a10.036,10.036,0,0,1,.517,3.1s-14.818,3.738-23.4.546A5.427,5.427,0,0,1,1035.585,1072.809Z" transform="translate(-1001.279 -1007.988)" fill="#233862"/>
      <g id="Group_96195" data-name="Group 96195" transform="translate(37.06 65.698)">
        <path id="Path_139952" data-name="Path 139952" d="M1051.176,1081.8a2.548,2.548,0,1,1,2.234-2.529A2.4,2.4,0,0,1,1051.176,1081.8Zm0-4.317a1.817,1.817,0,1,0,1.494,1.788A1.663,1.663,0,0,0,1051.176,1077.479Z" transform="translate(-1048.942 -1076.738)" fill="#fff"/>
      </g>
      <rect id="Rectangle_32756" data-name="Rectangle 32756" width="20.13" height="27.555" transform="matrix(0.754, -0.657, 0.657, 0.754, 40.173, 60.154)" fill="#b5453c"/>
      <path id="Path_139953" data-name="Path 139953" d="M1105.89,1086s-5.562.651-5.545,1.971,1.386,4.033,2.073,4.154,4.527-3.668,4.527-3.668Z" transform="translate(-1051.817 -1018.233)" fill="#ffb27d"/>
      <path id="Path_139954" data-name="Path 139954" d="M1121.8,922.907s7.426.521,10.273,7.441,8.248,18.539,8.248,20.494-3.017,7.98-19.221,11.444c0,0-1.676-1.763-1.574-3.157,0,0,10.115-8.688,10.087-9.7-.052-1.921-1.658-4.456-10.538-13.339C1116.66,933.671,1121.8,922.907,1121.8,922.907Z" transform="translate(-1065.866 -891.531)" fill="#f99746"/>
    </g>
    <g id="Group_96208" data-name="Group 96208" transform="translate(186.809 329.82)">
      <g id="Group_96204" data-name="Group 96204">
        <g id="Group_96199" data-name="Group 96199" transform="translate(3.302 50.802)">
          <g id="Group_96197" data-name="Group 96197" transform="translate(1.436 48.473)">
            <path id="Path_139955" data-name="Path 139955" d="M410.6,1415.395h-.073a.77.77,0,0,1-.77-.788l1.168-50.616,3.44-.4-2.933,51.021A.833.833,0,0,1,410.6,1415.395Z" transform="translate(-409.753 -1363.589)" fill="#95c0f4"/>
          </g>
          <g id="Group_96198" data-name="Group 96198" transform="translate(53.831 48.473)">
            <path id="Path_139956" data-name="Path 139956" d="M648.356,1415.395h.073a.77.77,0,0,0,.77-.788l-1.168-50.616-3.44-.4,2.934,51.021A.832.832,0,0,0,648.356,1415.395Z" transform="translate(-644.591 -1363.589)" fill="#b0d4ff"/>
          </g>
          <path id="Path_139957" data-name="Path 139957" d="M403.318,1192.065V1157.38a11.051,11.051,0,0,1,11.051-11.051h24.99a11.051,11.051,0,0,1,11.05,11.051v36.01Z" transform="translate(-403.318 -1146.33)" fill="#b0d4ff"/>
          <path id="Rectangle_32757" data-name="Rectangle 32757" d="M0,0H51.568a0,0,0,0,1,0,0V5.476a0,0,0,0,1,0,0H5.476A5.476,5.476,0,0,1,0,0V0A0,0,0,0,1,0,0Z" transform="translate(0 45.735)" fill="#95c0f4"/>
          <path id="Rectangle_32758" data-name="Rectangle 32758" d="M2.738,0H38.672A2.738,2.738,0,0,1,41.41,2.738v0a2.738,2.738,0,0,1-2.738,2.738H2.738A2.738,2.738,0,0,1,0,2.738v0A2.738,2.738,0,0,1,2.738,0Z" transform="translate(18.393 45.735)" fill="#b0d4ff"/>
        </g>
        <g id="Group_96203" data-name="Group 96203">
          <path id="Path_139958" data-name="Path 139958" d="M560.639,1309.027a23.243,23.243,0,0,1-8.083,8.636H533.824S563.37,1304.274,560.639,1309.027Z" transform="translate(-501.404 -1221.132)" fill="#233862"/>
          <g id="Group_96200" data-name="Group 96200">
            <path id="Path_139959" data-name="Path 139959" d="M587.974,1474.55a1.731,1.731,0,0,0-.309,1.852.013.013,0,0,0,0,.009c.447,1.235,1.923,2.613,3.637,3.99.219.177.414.338.584.487.045.039.089.078.131.117l.1.091c1.6,1.474,1,1.812,3.869,4.8,3.275,3.408,5.53,3.469,6.172,3.159.543-.265-.56-2.072-1.782-4.1-.059-.1-.117-.2-.178-.3-.163-.27-.324-.544-.486-.815-1.432-2.445-1.064-3.592-.725-7.23.276-2.957,4.6-16.518,4.6-16.518l-6.277-1.081s-1.89,10.8-3.973,12.462c-1.114.886-2.36.9-3.43,1.555-.076.046-.15.093-.223.141A8.232,8.232,0,0,0,587.974,1474.55Z" transform="translate(-543.127 -1338.447)" fill="#ffb27d"/>
            <path id="Path_139960" data-name="Path 139960" d="M587.974,1523.357a1.731,1.731,0,0,0-.309,1.852.014.014,0,0,0,0,.009,13.331,13.331,0,0,0,3.643,3.977c.216.18.408.345.578.5.045.039.089.078.131.118l.1.091c1.6,1.474,1,1.811,3.869,4.8,3.275,3.408,5.53,3.469,6.172,3.159.543-.265-.56-2.072-1.782-4.1a13.962,13.962,0,0,1-5.838-4.3c-1.972-2.517-3.287-5.75-4.63-7.623-.076.046-.15.093-.223.141A8.24,8.24,0,0,0,587.974,1523.357Z" transform="translate(-543.127 -1387.254)" fill="#233862"/>
            <path id="Path_139961" data-name="Path 139961" d="M798.885,1463.979c.388,1.938,3.149,1.614,6.235.861s2.352.142,6.743-.344,5.722-2.124,5.855-2.776c.12-.579-2.05-.783-4.377-1.052-.292-.033-.587-.069-.88-.105-2.628-.33-4.552-2.026-6.939-3.418-2.261-1.319-5.634-6.693-5.634-6.693l-6.022.477s3.16,4.8,4.383,6.887a7.275,7.275,0,0,1,.591,4.1A7.725,7.725,0,0,0,798.885,1463.979Z" transform="translate(-703.427 -1331.797)" fill="#ffb27d"/>
            <path id="Path_139962" data-name="Path 139962" d="M822.279,1500.412c3.085-.754,2.352.142,6.743-.344s5.721-2.124,5.855-2.776c.12-.579-2.05-.783-4.377-1.052l-.022.045a12.376,12.376,0,0,1-6.289,1.955c-2.979.072-6.135-.781-8.192-.748a7.729,7.729,0,0,0,.046,2.06C816.431,1501.489,819.193,1501.166,822.279,1500.412Z" transform="translate(-720.586 -1367.369)" fill="#233862"/>
            <path id="Path_139963" data-name="Path 139963" d="M640.987,1304.879l-5.63,15.149-7.35,19.78a11.917,11.917,0,0,1-3.9-.357,16.926,16.926,0,0,1-3.776-1.838s2.041-21.238,5.848-33.429a21.709,21.709,0,0,1,3.276-7.085C635.352,1290.123,640.987,1304.879,640.987,1304.879Z" transform="translate(-568.608 -1211.203)" fill="#233862"/>
            <path id="Path_139964" data-name="Path 139964" d="M497.665,1220.129c-3.688-1.189-14.207.338-24.774,2.407l-2.212-3.649-22.824-1.783s-7.531,16.7-3.408,27.344a3.859,3.859,0,0,0,3.863,2.6s.332,0,.334,0,13.584-.008,18-.008c11.351,0,24.022-7.8,25.661-8.13,2.683-.537,3.756,4.83,6.439,10.464s25.22,24.952,25.22,24.952a19.844,19.844,0,0,0,4.9-.5,4.822,4.822,0,0,0,2.1-1.327S505.983,1222.813,497.665,1220.129Z" transform="translate(-431.01 -1150.511)" fill="#2b478b"/>
            <path id="Path_139965" data-name="Path 139965" d="M427.581,920.55c-2.924-1.535-7.373-1.743-8.1-1.84-8.649-1.162-13.854,11.405-14.16,15.213-.564,7.019-4.278,8.089-9.5,12.485-10.48,8.814-7.406,19.056-1.676,22.862,3.438,2.284,9.5,0,9.5,0,.086.06,16.574-9.217,24.7-13.692C440.529,953.845,435.032,924.463,427.581,920.55Z" transform="translate(-388.81 -918.634)" fill="#b5453c"/>
            <path id="Path_139966" data-name="Path 139966" d="M496.463,1022.643c.036.023-4,1.4-6.7.206-2.538-1.122-4.461-5.3-4.423-5.3,1.154-.053,2.422-1.062,3.4-7.686l.492.177,8.266,2.974s-.6,2.652-.986,5.178C496.187,1020.312,496.011,1022.343,496.463,1022.643Z" transform="translate(-463.74 -989.509)" fill="#ffb27d"/>
            <path id="Path_139967" data-name="Path 139967" d="M511.045,1013.628s-.6,2.652-.986,5.178c-4.748-.855-6.611-5.585-7.28-8.152Z" transform="translate(-477.286 -990.123)" fill="#ed975d"/>
            <path id="Path_139968" data-name="Path 139968" d="M509.393,966.514s-11.31-1.518-10.256-8.547.3-11.958,7.569-11.286,8.263,3.564,8.482,6S512.362,966.728,509.393,966.514Z" transform="translate(-474.403 -940.376)" fill="#ffb27d"/>
            <path id="Path_139969" data-name="Path 139969" d="M503.476,946.661s-7.24,6.239-12.164,6.742-6.789-1.077-6.789-1.077a19.23,19.23,0,0,0,4.649-6.3,3.463,3.463,0,0,1,2.854-2.041C495.544,943.681,502.21,943.542,503.476,946.661Z" transform="translate(-463.103 -938.213)" fill="#b5453c"/>
            <path id="Path_139970" data-name="Path 139970" d="M549.187,949.283a17.824,17.824,0,0,1,3.185,4.079,13.69,13.69,0,0,1,.371,7.278s3.773-7.338,1.637-10.9C552.115,945.956,549.187,949.283,549.187,949.283Z" transform="translate(-513.34 -941.394)" fill="#b5453c"/>
            <path id="Path_139971" data-name="Path 139971" d="M472.191,1065.138c-.342,22.893-.094,18.109-2.6,20.282-.6.523-2.3.835-4.533.982-7.02.466-19.36-.691-19.829-1.988-1.619-4.489-.476-5.883-1.827-12.756-.141-.731-.315-1.522-.52-2.384-1.126-4.72-2.223-6.326,1.773-13.909,3.624-6.869,7.389-12.444,7.727-12.243,9.561,5.676,10.332.9,10.332.9S472.358,1053.971,472.191,1065.138Z" transform="translate(-429.944 -1015.344)" fill="#8c9df4"/>
            <path id="Path_139972" data-name="Path 139972" d="M635.357,1351.219l-7.35,19.78a11.915,11.915,0,0,1-3.9-.357,16.93,16.93,0,0,1-3.776-1.838s2.041-21.238,5.848-33.429Z" transform="translate(-568.608 -1242.395)" fill="#2b478b"/>
            <path id="Path_139973" data-name="Path 139973" d="M535.407,1047.191s9.838,1.668,10.993,5.9,7.954,29.137,7.954,29.137-5,.9-7.312-1.412S539,1059.384,539,1059.384Z" transform="translate(-502.634 -1018.508)" fill="#8c9df4"/>
            <path id="Path_139974" data-name="Path 139974" d="M470.5,1152.583c-7.02.466-19.36-.691-19.829-1.988-1.619-4.489-.476-5.883-1.827-12.756l3.386-9.534s-.56,10.617,2.571,13.409,12.82,5.391,14.341,7.724A8.537,8.537,0,0,1,470.5,1152.583Z" transform="translate(-435.385 -1081.525)" fill="#6980e2"/>
            <path id="Path_139975" data-name="Path 139975" d="M509.859,1213.371s6.925-1.542,8.043-.927,3.849,2.853,4.19,3.632-2.488-.591-3.408-.838a8.194,8.194,0,0,0-2.942.644,9.776,9.776,0,0,1-5.271.529Z" transform="translate(-482.786 -1146.779)" fill="#ffb27d"/>
            <path id="Path_139976" data-name="Path 139976" d="M410.953,1043.118s-9.3.573-12.518,5.063c-4.531,6.32-13.521,33.256-8.369,36.849,5.8,4.046,26.406,1.058,26.406,1.058s.686-3.2-.268-4.755-16.457-4.055-17.172-4.77,8.944-13.953,8.944-16.1S410.953,1043.118,410.953,1043.118Z" transform="translate(-388.519 -1015.344)" fill="#8c9df4"/>
            <path id="Path_139977" data-name="Path 139977" d="M547.411,1221.588a13.376,13.376,0,0,0,1.927,2.095,1.419,1.419,0,0,0,.783.168l-.978-1.76Z" transform="translate(-511.96 -1153.995)" fill="#ffb27d"/>
            <path id="Path_139978" data-name="Path 139978" d="M545.908,1212.948l4.219,2.049a.752.752,0,0,1-.7.27,10.069,10.069,0,0,1-1.83-.5Z" transform="translate(-510.792 -1147.283)" fill="#ffb27d"/>
          </g>
          <g id="Group_96202" data-name="Group 96202" transform="translate(24.86 47.591)">
            <g id="Group_96201" data-name="Group 96201">
              <path id="Path_139979" data-name="Path 139979" d="M549.207,1156.9H584.8l10.707-24.965H559.969Z" transform="translate(-538.216 -1131.937)" fill="#f77d48"/>
              <path id="Path_139980" data-name="Path 139980" d="M546.947,1236.58h-47v1.577H546.53Z" transform="translate(-499.944 -1213.233)" fill="#f77d48"/>
            </g>
            <path id="Path_139981" data-name="Path 139981" d="M656.427,1182.351a1.171,1.171,0,0,0-1.209-1.589,2.408,2.408,0,0,0-2.181,1.589,1.171,1.171,0,0,0,1.209,1.589A2.408,2.408,0,0,0,656.427,1182.351Z" transform="translate(-618.827 -1169.868)" fill="#ebf3fa"/>
          </g>
        </g>
      </g>
      <g id="Group_96207" data-name="Group 96207" transform="translate(20.577 72.555)">
        <g id="Group_96205" data-name="Group 96205" transform="translate(98.52 3.632)">
          <path id="Path_139982" data-name="Path 139982" d="M927.293,1335.7h.1a1.078,1.078,0,0,0,1.018-1.15l-1.545-73.854-4.549-.586,3.88,74.444A1.154,1.154,0,0,0,927.293,1335.7Z" transform="translate(-922.315 -1260.11)" fill="#233862"/>
        </g>
        <g id="Group_96206" data-name="Group 96206" transform="translate(6.486 3.632)">
          <path id="Path_139983" data-name="Path 139983" d="M510.93,1335.7h-.1a1.078,1.078,0,0,1-1.018-1.15l1.544-73.854,4.55-.586-3.88,74.444A1.153,1.153,0,0,1,510.93,1335.7Z" transform="translate(-509.815 -1260.11)" fill="#233862"/>
        </g>
        <path id="Rectangle_32759" data-name="Rectangle 32759" d="M2.643,0H104.3a2.642,2.642,0,0,1,2.642,2.642v0A2.643,2.643,0,0,1,104.3,5.285H2.642A2.642,2.642,0,0,1,0,2.643v0A2.643,2.643,0,0,1,2.643,0Z" fill="#233862"/>
      </g>
    </g>
    <rect id="Rectangle_32760" data-name="Rectangle 32760" width="563.372" height="2.403" rx="1.201" transform="translate(128.95 480.201)" fill="#2e3552"/>
  </g>
</svg>
